<svg viewBox="0 0 24 24" fill="none" xmlns="http://www.w3.org/2000/svg">
<rect x="2" y="2" width="20" height="20" rx="2" fill="#00B041"/>
<path fill-rule="evenodd" clip-rule="evenodd" d="M12.5599 12.1841H16.9465C16.948 12.1986 16.9497 12.2122 16.9513 12.2253C16.9561 12.264 16.9602 12.2979 16.9587 12.3328C16.9587 12.6054 16.9588 12.8779 16.9588 13.1506C16.9592 14.2415 16.9595 15.3332 16.9546 16.4237C16.9546 16.497 16.9139 16.5928 16.859 16.6396C16.678 16.7985 16.4889 16.9534 16.2855 17.0837C15.5412 17.5584 14.7135 17.7907 13.8431 17.8905C13.1049 17.9761 12.3667 17.9924 11.6345 17.8355C9.82458 17.4484 8.50066 16.4237 7.66686 14.7714C7.28657 14.0156 7.1076 13.2089 7.07303 12.3614C7.04659 11.6952 7.07913 11.0371 7.2642 10.3954C7.62822 9.1262 8.35424 8.10349 9.39548 7.30692C10.4937 6.46554 11.7342 6.01123 13.1191 5.99289C13.5848 5.98678 14.0485 6.01123 14.5122 6.0479C15.1508 6.09883 15.767 6.25162 16.3486 6.53276C16.4157 6.56457 16.4814 6.59858 16.5514 6.63479C16.5979 6.65888 16.6464 6.68396 16.6984 6.71001C16.6984 6.60874 16.6975 6.5091 16.6966 6.41066C16.6945 6.17835 16.6924 5.9527 16.7024 5.72805C16.7106 5.57729 16.6516 5.51821 16.5214 5.46931C15.8808 5.23096 15.2158 5.10465 14.5366 5.05168C13.8451 4.99871 13.1537 4.97019 12.4602 5.0476C11.5146 5.15354 10.6197 5.42246 9.78391 5.87269C8.20782 6.72019 7.04863 7.95477 6.41209 9.6457C5.92604 10.9292 5.8996 12.2595 6.17822 13.5837C6.65206 15.8329 7.95768 17.4484 10.0381 18.4181C11.2278 18.9682 12.4867 19.0864 13.778 18.9458C14.5386 18.8623 15.2707 18.685 15.9683 18.3733C16.7065 18.0433 17.3797 17.6134 17.9104 16.99C17.9593 16.933 17.9938 16.8413 17.9938 16.7659C17.9959 15.8523 17.9964 14.9392 17.9969 14.0263C17.9974 13.1133 17.9979 12.2005 17.9999 11.2877C18.002 11.1655 17.9633 11.1288 17.8413 11.1309C17.4752 11.1352 17.1092 11.1344 16.7431 11.1336C16.5967 11.1332 16.4503 11.1329 16.3038 11.1329H12.751C12.6501 11.1329 12.6002 11.1329 12.5757 11.1578C12.5517 11.1821 12.5517 11.2299 12.5517 11.3244V12.0252C12.5517 12.0657 12.5545 12.1062 12.5578 12.1537C12.5585 12.1635 12.5592 12.1736 12.5599 12.1841ZM16.1412 13.1457V12.997C14.9332 12.997 13.7496 12.997 12.5497 12.9929C12.5497 13.0759 12.5502 13.1578 12.5506 13.2389C12.5518 13.4527 12.553 13.6613 12.5456 13.871C12.5416 14.0034 12.5843 14.0339 12.7104 14.0339C13.0907 14.0309 13.4704 14.0309 13.8502 14.0309C14.23 14.0309 14.6098 14.0309 14.9901 14.0278C15.1345 14.0278 15.1731 14.0767 15.1711 14.2132C15.165 14.6512 15.167 15.0913 15.1711 15.5293C15.1711 15.6271 15.1365 15.6801 15.043 15.7147C14.1217 16.0508 13.172 16.1873 12.204 16.0345C10.8312 15.8186 9.86119 15.0424 9.27142 13.7895C8.97451 13.16 8.90536 12.4877 8.9196 11.7991C8.9318 11.2042 9.05586 10.6378 9.3487 10.1244C10.1947 8.64336 11.5064 7.91605 13.1842 7.84475C13.6601 7.82641 14.1421 7.87531 14.6179 7.92624C15.3277 8.00366 15.9846 8.23794 16.5601 8.67391C16.5832 8.69101 16.6071 8.70663 16.6348 8.72474C16.6533 8.73686 16.6735 8.75008 16.6963 8.76559C16.6963 8.6839 16.6964 8.60346 16.6965 8.52402C16.6968 8.21121 16.6971 7.91389 16.6923 7.61658C16.6923 7.57583 16.6475 7.51675 16.6069 7.49638C16.4198 7.4047 16.2306 7.31302 16.0354 7.23765C15.346 6.96669 14.624 6.85464 13.8858 6.80778C13.0174 6.75278 12.1653 6.82205 11.3458 7.12967C9.98321 7.64102 8.95011 8.5252 8.31153 9.84738C7.96378 10.5686 7.86209 11.3366 7.87633 12.1311C7.89056 12.9522 8.04919 13.7345 8.44169 14.4557C9.3365 16.1018 10.7235 17.0104 12.5965 17.1347C13.233 17.1774 13.8716 17.1082 14.4959 16.9676C15.0491 16.8433 15.5758 16.6518 16.0293 16.2953C16.1106 16.2321 16.1432 16.1649 16.1432 16.059C16.1401 15.3302 16.1405 14.6025 16.1409 13.8743C16.141 13.6315 16.1412 13.3887 16.1412 13.1457Z" fill="white"/>
</svg>
