<svg viewBox="0 0 24 24" fill="none" xmlns="http://www.w3.org/2000/svg">
<path d="M12 24C18.6274 24 24 18.6274 24 12C24 5.37258 18.6274 0 12 0C5.37258 0 0 5.37258 0 12C0 18.6274 5.37258 24 12 24Z" fill="#D80027"/>
<path d="M9.81068 9.67188H11.332C11.3022 8.19745 10.0451 7.15342 8.1871 7.15342C6.35471 7.15342 4.97829 8.18466 4.98256 9.72728C4.98256 10.9801 5.87318 11.7003 7.30926 12.071L8.30216 12.3267C9.24392 12.5653 9.86608 12.8594 9.87034 13.5369C9.86608 14.2827 9.15869 14.7813 8.12744 14.7813C7.13881 14.7813 6.37176 14.3381 6.30784 13.4219H4.75244C4.81636 15.1563 6.10756 16.1321 8.14023 16.1321C10.2326 16.1321 11.447 15.0881 11.4513 13.5497C11.447 12.0369 10.1985 11.3466 8.88596 11.0355L8.06778 10.831C7.35187 10.6605 6.57631 10.358 6.58483 9.62927C6.58909 8.97302 7.17716 8.49148 8.16579 8.49148C9.10755 8.49148 9.72971 8.9304 9.81068 9.67188Z" fill="white"/>
<path d="M15.4559 17.0909H16.3593L16.3636 16.1151C18.1917 15.983 19.24 14.9773 19.2443 13.5497C19.24 12.0369 17.9914 11.3466 16.6789 11.0355L16.3977 10.9631L16.4147 8.52984C17.0965 8.64915 17.5355 9.05824 17.6036 9.67188H19.125C19.0994 8.31677 18.034 7.32813 16.4233 7.17472L16.4275 6.18182H15.5241L15.5198 7.17472C13.9218 7.33665 12.7713 8.31677 12.7755 9.72728C12.7755 10.9801 13.6661 11.7003 15.1022 12.071L15.4858 12.169L15.4687 14.7472C14.7059 14.6278 14.1562 14.1932 14.1008 13.4219H12.5454C12.6051 15.0199 13.7045 15.9702 15.4602 16.1151L15.4559 17.0909ZM16.3721 14.7472L16.3892 12.4077C17.1647 12.6335 17.659 12.9318 17.6633 13.5369C17.659 14.1676 17.1519 14.6193 16.3721 14.7472ZM15.4943 10.733C14.9062 10.5455 14.3693 10.2344 14.3778 9.62927C14.3821 9.07955 14.7954 8.65341 15.5113 8.52984L15.4943 10.733Z" fill="white"/>
</svg>
