<svg viewBox="0 0 24 24" fill="none" xmlns="http://www.w3.org/2000/svg">
<path d="M12 24C18.6274 24 24 18.6274 24 12C24 5.37258 18.6274 0 12 0C5.37258 0 0 5.37258 0 12C0 18.6274 5.37258 24 12 24Z" fill="#508B46"/>
<path d="M11.4859 18.2727H12.5399L12.5449 17.1342C14.6777 16.9801 15.9007 15.8068 15.9057 14.1413C15.9007 12.3764 14.444 11.571 12.9128 11.2081L12.5847 11.1236L12.6045 8.28479C13.4 8.42399 13.9121 8.90126 13.9916 9.61717H15.7665C15.7366 8.03621 14.4937 6.8828 12.6145 6.70382L12.6195 5.54544H11.5655L11.5605 6.70382C9.69616 6.89274 8.35383 8.03621 8.3588 9.6818C8.3588 11.1435 9.39786 11.9837 11.0733 12.4162L11.5207 12.5305L11.5008 15.5383C10.6109 15.3991 9.96959 14.892 9.90496 13.9922H8.09033C8.15993 15.8565 9.44261 16.9652 11.4909 17.1342L11.4859 18.2727ZM12.5548 15.5383L12.5747 12.8089C13.4795 13.0724 14.0562 13.4204 14.0612 14.1264C14.0562 14.8622 13.4646 15.3892 12.5548 15.5383ZM11.5307 10.8551C10.8446 10.6363 10.2182 10.2734 10.2281 9.56746C10.2331 8.92612 10.7153 8.42896 11.5506 8.28479L11.5307 10.8551Z" fill="white"/>
</svg>
