<svg viewBox="0 0 24 24" fill="none" xmlns="http://www.w3.org/2000/svg">
<rect y="4" width="24" height="16" rx="2" fill="#113FA1"/>
<path fill-rule="evenodd" clip-rule="evenodd" d="M14.2828 10.2143C14.788 10.2061 15.1543 10.3194 15.4387 10.4367L15.5781 10.504L15.787 9.24407C15.4812 9.12632 15.0017 9 14.4035 9C12.8775 9 11.8019 9.78845 11.7935 10.9184C11.7836 11.7533 12.5597 12.2194 13.146 12.4977C13.7478 12.783 13.9495 12.9643 13.9468 13.2189C13.942 13.6081 13.4669 13.7866 13.0233 13.7866C12.4048 13.7866 12.0763 13.6989 11.5691 13.4822L11.3701 13.3893L11.1528 14.6903C11.5143 14.8529 12.1812 14.9927 12.8735 15C14.4969 15 15.5519 14.2209 15.563 13.0136C15.5697 12.3531 15.1578 11.849 14.2653 11.4355C13.7251 11.1657 13.3946 10.9864 13.3978 10.7142C13.3978 10.4726 13.6782 10.2143 14.2828 10.2143ZM4.4142 9.05012C4.73712 9.06275 4.99729 9.16829 5.08706 9.52238L5.60779 12.0903C5.0962 10.7468 3.86328 9.62954 2 9.16584L2.01986 9.05012H4.4142ZM9.60771 9.09982L8.64211 14.9128H10.1864L11.1528 9.09982H9.60771ZM7.34733 9.10636L5.83478 13.0706L5.67351 12.4721C5.37522 11.7508 4.52838 10.715 3.53418 10.0623L4.91724 14.91L6.55133 14.9071L8.98341 9.10513L7.34733 9.10636ZM18.5572 9.10632H19.7504L21 14.916H19.5673C19.5673 14.916 19.4251 14.2482 19.379 14.0453C19.2603 14.0453 18.763 14.0446 18.2948 14.0439C17.8784 14.0434 17.485 14.0428 17.4014 14.0428C17.3414 14.1997 17.0769 14.916 17.0769 14.916H15.4551L17.7481 9.58877C17.911 9.20982 18.1866 9.10632 18.5572 9.10632ZM18.4611 11.2284C18.4611 11.2284 17.9729 12.5193 17.8458 12.853H19.1288L18.7709 11.1746L18.6669 10.6735C18.6278 10.7805 18.5757 10.9194 18.5337 11.0316C18.4898 11.1487 18.4568 11.2365 18.4611 11.2284Z" fill="white"/>
</svg>
