<svg viewBox="0 0 24 24" fill="none" xmlns="http://www.w3.org/2000/svg">
<path d="M12 24C18.6274 24 24 18.6274 24 12C24 5.37258 18.6274 0 12 0C5.37258 0 0 5.37258 0 12C0 18.6274 5.37258 24 12 24Z" fill="#D80027"/>
<path d="M10.8493 16.1342C12.1618 16.1342 12.7535 15.3537 13.0368 14.7969H13.1462V16H14.9161V7.7919H15.8557V6.65341H14.9161V5.81818H13.1114V6.65341H11.093V7.7919H13.1114V9.62642H13.0368C12.7634 9.07457 12.2016 8.2642 10.8543 8.2642C9.0894 8.2642 7.70233 9.64631 7.70233 12.1918C7.70233 14.7074 9.04963 16.1342 10.8493 16.1342ZM11.3515 14.6577C10.1633 14.6577 9.53684 13.6136 9.53684 12.1818C9.53684 10.7599 10.1533 9.74077 11.3515 9.74077C12.5099 9.74077 13.1462 10.7003 13.1462 12.1818C13.1462 13.6634 12.4999 14.6577 11.3515 14.6577ZM14.7172 16.9844H8.13983V18.4212H14.7172V16.9844Z" fill="#FFFF00"/>
</svg>
