<svg viewBox="0 0 24 24" fill="none" xmlns="http://www.w3.org/2000/svg">
<path d="M11.3066 18.1944L17.4709 11.9947L11.3066 5.79506C10.8978 5.38385 10.8978 4.7196 11.3066 4.3084C11.7155 3.8972 12.3759 3.8972 12.7848 4.3084L19.6934 11.2567C20.1022 11.6679 20.1022 12.3321 19.6934 12.7433L12.7848 19.6916C12.3759 20.1028 11.7155 20.1028 11.3066 19.6916C10.9083 19.2804 10.8978 18.6056 11.3066 18.1944Z" fill="currentColor"/>
<path d="M5.30664 18.1944L11.4709 11.9947L5.30664 5.79506C4.89779 5.38385 4.89779 4.7196 5.30664 4.3084C5.71549 3.8972 6.37595 3.8972 6.7848 4.3084L13.6934 11.2567C14.1022 11.6679 14.1022 12.3321 13.6934 12.7433L6.7848 19.6916C6.37595 20.1028 5.71549 20.1028 5.30664 19.6916C4.90827 19.2804 4.89779 18.6056 5.30664 18.1944Z" fill="#798395"/>
</svg>
