<svg viewBox="0 0 24 24" fill="none" xmlns="http://www.w3.org/2000/svg">
<path d="M12.6934 5.8056L6.52912 12.0053L12.6934 18.2049C13.1022 18.6161 13.1022 19.2804 12.6934 19.6916C12.2845 20.1028 11.6241 20.1028 11.2152 19.6916L4.30664 12.7433C3.89778 12.3321 3.89778 11.6679 4.30664 11.2567L11.2152 4.3084C11.6241 3.8972 12.2845 3.8972 12.6934 4.3084C13.0917 4.7196 13.1022 5.3944 12.6934 5.8056Z" fill="currentColor"/>
<path d="M18.6934 5.8056L12.5291 12.0053L18.6934 18.2049C19.1022 18.6161 19.1022 19.2804 18.6934 19.6916C18.2845 20.1028 17.6241 20.1028 17.2152 19.6916L10.3066 12.7433C9.89778 12.3321 9.89778 11.6679 10.3066 11.2567L17.2152 4.3084C17.6241 3.8972 18.2845 3.8972 18.6934 4.3084C19.0917 4.7196 19.1022 5.3944 18.6934 5.8056Z" fill="#798395"/>
</svg>
