<svg viewBox="0 0 24 24" fill="none" xmlns="http://www.w3.org/2000/svg">
<path d="M18.1944 12.6934L11.9947 6.52912L5.79506 12.6934C5.38385 13.1022 4.7196 13.1022 4.3084 12.6934C3.8972 12.2845 3.8972 11.6241 4.3084 11.2152L11.2567 4.30664C11.6679 3.89779 12.3321 3.89779 12.7433 4.30664L19.6916 11.2152C20.1028 11.6241 20.1028 12.2845 19.6916 12.6934C19.2804 13.0917 18.6056 13.1022 18.1944 12.6934Z" fill="currentColor"/>
<path d="M18.1944 18.6934L11.9947 12.5291L5.79506 18.6934C5.38385 19.1022 4.7196 19.1022 4.3084 18.6934C3.8972 18.2845 3.8972 17.6241 4.3084 17.2152L11.2567 10.3066C11.6679 9.89779 12.3321 9.89779 12.7433 10.3066L19.6916 17.2152C20.1028 17.6241 20.1028 18.2845 19.6916 18.6934C19.2804 19.0917 18.6056 19.1022 18.1944 18.6934Z" fill="#798395"/>
</svg>
