<svg viewBox="0 0 24 24" fill="none" xmlns="http://www.w3.org/2000/svg">
<path d="M5.8056 11.3066L12.0053 17.4709L18.2049 11.3066C18.6161 10.8978 19.2804 10.8978 19.6916 11.3066C20.1028 11.7155 20.1028 12.3759 19.6916 12.7848L12.7433 19.6934C12.3321 20.1022 11.6679 20.1022 11.2567 19.6934L4.3084 12.7848C3.8972 12.3759 3.8972 11.7155 4.3084 11.3066C4.7196 10.9083 5.3944 10.8978 5.8056 11.3066Z" fill="currentColor"/>
<path d="M5.8056 5.30664L12.0053 11.4709L18.2049 5.30664C18.6161 4.89779 19.2804 4.89779 19.6916 5.30664C20.1028 5.71549 20.1028 6.37595 19.6916 6.7848L12.7433 13.6934C12.3321 14.1022 11.6679 14.1022 11.2567 13.6934L4.3084 6.7848C3.8972 6.37595 3.8972 5.71549 4.3084 5.30664C4.7196 4.90827 5.3944 4.89779 5.8056 5.30664Z" fill="#798395"/>
</svg>
