<svg viewBox="0 0 24 24" fill="none" xmlns="http://www.w3.org/2000/svg">
<path fill-rule="evenodd" clip-rule="evenodd" d="M4 12C4 16.41 7.59 20 12 20C16.41 20 20 16.41 20 12C20 7.59 16.41 4 12 4C7.59 4 4 7.59 4 12ZM22 12C22 17.52 17.52 22 12 22C6.48 22 2 17.52 2 12C2 6.48 6.48 2 12 2C17.52 2 22 6.48 22 12ZM12.7806 11.3702L10.602 9.19173C10.2027 8.79234 9.55768 8.78376 9.16877 9.17267C8.77986 9.56158 8.78844 10.2066 9.18783 10.6059L11.3663 12.7845L10.1006 14.0502C9.78242 14.3684 10.019 14.9161 10.4704 14.9149L14.4692 14.9681C14.7559 14.9719 14.9751 14.7527 14.9713 14.466L14.9181 10.4672C14.9122 10.0229 14.3645 9.78632 14.0463 10.1045L12.7806 11.3702Z" fill="currentColor"/>
</svg>
