<svg viewBox="0 0 24 24" fill="none" xmlns="http://www.w3.org/2000/svg">
<path fill-rule="evenodd" clip-rule="evenodd" d="M4 12C4 16.41 7.59 20 12 20C16.41 20 20 16.41 20 12C20 7.59 16.41 4 12 4C7.59 4 4 7.59 4 12ZM22 12C22 17.52 17.52 22 12 22C6.48 22 2 17.52 2 12C2 6.48 6.48 2 12 2C17.52 2 22 6.48 22 12ZM11.3684 11.2177L9.1899 13.3962C8.79051 13.7956 8.78193 14.4406 9.17084 14.8295C9.55975 15.2184 10.2047 15.2098 10.6041 14.8105L12.7826 12.632L14.0483 13.8977C14.3665 14.2159 14.9142 13.9793 14.9131 13.5279L14.9663 9.52908C14.9701 9.24242 14.7509 9.02322 14.4642 9.02703L10.4654 9.08021C10.0211 9.08612 9.78449 9.63382 10.1027 9.95202L11.3684 11.2177Z" fill="currentColor"/>
</svg>
