<svg viewBox="0 0 24 24" fill="none" xmlns="http://www.w3.org/2000/svg">
<path fill-rule="evenodd" clip-rule="evenodd" d="M4 12C4 16.41 7.59 20 12 20C16.41 20 20 16.41 20 12C20 7.59 16.41 4 12 4C7.59 4 4 7.59 4 12ZM22 12C22 17.52 17.52 22 12 22C6.48 22 2 17.52 2 12C2 6.48 6.48 2 12 2C17.52 2 22 6.48 22 12ZM12.9969 12.1078V9.02696C12.9969 8.46213 12.5469 8 11.9969 8C11.4469 8 10.9969 8.46213 10.9969 9.02696V12.1078L9.20689 12.1078C8.75689 12.1078 8.53689 12.6624 8.85689 12.9807L11.6469 15.846C11.8469 16.0513 12.1569 16.0513 12.3569 15.846L15.1469 12.9807C15.4569 12.6624 15.2369 12.1078 14.7869 12.1078H12.9969Z" fill="currentColor"/>
</svg>
