<svg viewBox="0 0 24 24" fill="none" xmlns="http://www.w3.org/2000/svg">
<path fill-rule="evenodd" clip-rule="evenodd" d="M4 12C4 16.41 7.59 20 12 20C16.41 20 20 16.41 20 12C20 7.59 16.41 4 12 4C7.59 4 4 7.59 4 12ZM22 12C22 17.52 17.52 22 12 22C6.48 22 2 17.52 2 12C2 6.48 6.48 2 12 2C17.52 2 22 6.48 22 12ZM11.216 12.6298L13.3945 14.8083C13.7939 15.2077 14.4389 15.2162 14.8278 14.8273C15.2167 14.4384 15.2081 13.7934 14.8087 13.3941L12.6302 11.2155L13.896 9.94983C14.2142 9.63163 13.9776 9.08393 13.5262 9.0851L9.52737 9.03191C9.24071 9.0281 9.02151 9.2473 9.02532 9.53396L9.07851 13.5328C9.08441 13.9771 9.63211 14.2137 9.95031 13.8955L11.216 12.6298Z" fill="currentColor"/>
</svg>
