<svg viewBox="0 0 24 24" fill="none" xmlns="http://www.w3.org/2000/svg">
<path fill-rule="evenodd" clip-rule="evenodd" d="M4 12C4 16.41 7.59 20 12 20C16.41 20 20 16.41 20 12C20 7.59 16.41 4 12 4C7.59 4 4 7.59 4 12ZM22 12C22 17.52 17.52 22 12 22C6.48 22 2 17.52 2 12C2 6.48 6.48 2 12 2C17.52 2 22 6.48 22 12ZM11.8935 13.1035H14.8935C15.4435 13.1035 15.8935 12.6535 15.8935 12.1035C15.8935 11.5535 15.4435 11.1035 14.8935 11.1035H11.8935V9.31346C11.8935 8.86346 11.3535 8.64346 11.0435 8.96346L8.25352 11.7535C8.05352 11.9535 8.05352 12.2635 8.25352 12.4635L11.0435 15.2535C11.3535 15.5635 11.8935 15.3435 11.8935 14.8935V13.1035Z" fill="currentColor"/>
</svg>
