<svg viewBox="0 0 24 24" fill="none" xmlns="http://www.w3.org/2000/svg">
<path fill-rule="evenodd" clip-rule="evenodd" d="M4 12C4 16.41 7.59 20 12 20C16.41 20 20 16.41 20 12C20 7.59 16.41 4 12 4C7.59 4 4 7.59 4 12ZM22 12C22 17.52 17.52 22 12 22C6.48 22 2 17.52 2 12C2 6.48 6.48 2 12 2C17.52 2 22 6.48 22 12ZM12.6282 12.7823L14.8067 10.6038C15.2061 10.2044 15.2147 9.55939 14.8257 9.17048C14.4368 8.78157 13.7919 8.79015 13.3925 9.18954L11.214 11.368L9.94824 10.1023C9.63004 9.78413 9.08235 10.0207 9.08351 10.4721L9.03033 14.4709C9.02651 14.7576 9.24572 14.9768 9.53237 14.973L13.5312 14.9198C13.9755 14.9139 14.2121 14.3662 13.8939 14.048L12.6282 12.7823Z" fill="currentColor"/>
</svg>
