<svg viewBox="0 0 24 24" fill="none" xmlns="http://www.w3.org/2000/svg">
<path fill-rule="evenodd" clip-rule="evenodd" d="M20 12C20 7.59 16.41 4 12 4C7.59 4 4 7.59 4 12C4 16.41 7.59 20 12 20C16.41 20 20 16.41 20 12ZM2 12C2 6.48 6.48 2 12 2C17.52 2 22 6.48 22 12C22 17.52 17.52 22 12 22C6.48 22 2 17.52 2 12ZM12.1065 10.8965H9.10648C8.55648 10.8965 8.10648 11.3465 8.10648 11.8965C8.10648 12.4465 8.55648 12.8965 9.10648 12.8965H12.1065V14.6865C12.1065 15.1365 12.6465 15.3565 12.9565 15.0365L15.7465 12.2465C15.9465 12.0465 15.9465 11.7365 15.7465 11.5365L12.9565 8.74654C12.6465 8.43654 12.1065 8.65654 12.1065 9.10654V10.8965Z" fill="currentColor"/>
</svg>
