<svg viewBox="0 0 24 24" fill="none" xmlns="http://www.w3.org/2000/svg">
<path d="M5.00021 18C4.45021 18 4.00021 17.55 4.00021 17L4.00021 7C4.00021 6.45 4.45021 6 5.00021 6C5.55021 6 6.00021 6.45 6.00021 7L6.00021 17C6.00021 17.55 5.55021 18 5.00021 18ZM16.0102 11L9.00021 11C8.45021 11 8.00021 11.45 8.00021 12C8.00021 12.55 8.45021 13 9.00021 13L16.0102 13L16.0102 14.79C16.0102 15.24 16.5502 15.46 16.8602 15.14L19.6402 12.35C19.8302 12.15 19.8302 11.84 19.6402 11.64L16.8602 8.86C16.5502 8.54 16.0102 8.76 16.0102 9.21L16.0102 11Z" fill="currentColor"/>
</svg>
