<svg viewBox="0 0 24 24" fill="none" xmlns="http://www.w3.org/2000/svg">
<path d="M18.7825 5.89123C19.3325 5.89123 19.7825 6.34123 19.7825 6.89123L19.7825 16.8912C19.7825 17.4412 19.3325 17.8912 18.7825 17.8912C18.2325 17.8912 17.7825 17.4412 17.7825 16.8912L17.7825 6.89123C17.7825 6.34123 18.2325 5.89123 18.7825 5.89123ZM7.7725 12.8912L14.7825 12.8912C15.3325 12.8912 15.7825 12.4412 15.7825 11.8912C15.7825 11.3412 15.3325 10.8912 14.7825 10.8912L7.7725 10.8912L7.7725 9.10124C7.7725 8.65124 7.2325 8.43124 6.9225 8.75123L4.1425 11.5412C3.9525 11.7412 3.9525 12.0512 4.1425 12.2512L6.9225 15.0312C7.2325 15.3512 7.7725 15.1312 7.7725 14.6812L7.7725 12.8912Z" fill="currentColor"/>
</svg>
