<svg width="25" height="24" viewBox="0 0 25 24" fill="none" xmlns="http://www.w3.org/2000/svg">
<g clip-path="url(#clip0_41_27015)">
<rect x="9.00195" y="20" width="17" height="2" rx="1" transform="rotate(-90 9.00195 20)" fill="#457DF5"/>
<path d="M5.41658 17.3455C5.15386 17.1266 5.00195 16.8023 5.00195 16.4603C5.00195 15.4833 6.14145 14.9496 6.89199 15.575L10.5873 18.6545C10.85 18.8734 11.002 19.1977 11.002 19.5397C11.002 20.5167 9.86246 21.0504 9.11192 20.425L5.41658 17.3455Z" fill="#457DF5"/>
<path d="M13.4166 5.34552C13.1539 5.12659 13.002 4.80227 13.002 4.46028C13.002 3.48329 14.1414 2.94958 14.892 3.57503L18.5873 6.65448C18.85 6.87341 19.002 7.19773 19.002 7.53972C19.002 8.51671 17.8625 9.05042 17.1119 8.42497L13.4166 5.34552Z" fill="#457DF5"/>
<rect x="13.002" y="21" width="17" height="2" rx="1" transform="rotate(-90 13.002 21)" fill="#457DF5"/>
</g>
<defs>
<clipPath id="clip0_41_27015">
<rect width="24" height="24" fill="white" transform="translate(0.00195312 24) rotate(-90)"/>
</clipPath>
</defs>
</svg>
