<svg viewBox="0 0 24 24" fill="none" xmlns="http://www.w3.org/2000/svg">
<path d="M19.0504 10.91C15.1504 7.03001 8.82045 7.03001 4.93045 10.93C3.84045 12.02 3.03045 13.33 2.54045 14.75C2.33045 15.36 2.80045 16 3.45045 16H3.55045C3.97045 16 4.32045 15.72 4.46045 15.33C4.85045 14.22 5.48045 13.2 6.34045 12.34C9.45045 9.23001 14.5204 9.22001 17.6404 12.32L15.6704 14.29C15.0404 14.92 15.4904 16 16.3804 16H20.9604C21.5104 16 21.9604 15.55 21.9604 15V10.41C21.9604 9.52001 20.8804 9.07001 20.2504 9.70001L19.0504 10.91Z" fill="currentColor"/>
</svg>
