<svg viewBox="0 0 24 24" fill="none" xmlns="http://www.w3.org/2000/svg">
<path fill-rule="evenodd" clip-rule="evenodd" d="M5.9997 12.0003C5.9997 7.71032 10.2897 5.01032 13.9897 6.35032C14.3497 6.48032 14.7497 6.42032 15.0097 6.16032L15.0897 6.08032C15.5697 5.60032 15.4197 4.76032 14.7897 4.52032C9.7797 2.61032 3.9997 6.24032 3.9997 12.0003L2.2097 12.0003C1.7597 12.0003 1.5397 12.5403 1.8497 12.8503L4.6397 15.6403C4.8397 15.8403 5.1497 15.8403 5.3497 15.6403L8.1397 12.8503C8.4597 12.5403 8.2397 12.0003 7.7897 12.0003L5.9997 12.0003ZM17.9997 12.0001C17.9997 16.1701 13.8597 19.0101 10.0197 17.6401C9.6497 17.5201 9.24969 17.5801 8.97969 17.8501L8.90969 17.9201C8.42969 18.4001 8.5797 19.2401 9.20969 19.4801C14.2197 21.3901 19.9997 17.7601 19.9997 12.0001L21.7997 12.0001C22.2397 12.0001 22.4597 11.4601 22.1497 11.1501L19.3597 8.36005C19.1597 8.16005 18.8497 8.16005 18.6497 8.36005L15.8597 11.1501C15.5397 11.4601 15.7597 12.0001 16.2097 12.0001L17.9997 12.0001Z" fill="currentColor"/>
</svg>
