<svg viewBox="0 0 24 24" fill="none" xmlns="http://www.w3.org/2000/svg">
<path fill-rule="evenodd" clip-rule="evenodd" d="M18.0003 12.0003C18.0003 7.71029 13.7103 5.01029 10.0103 6.35029C9.6503 6.48029 9.2503 6.42029 8.9903 6.16029L8.9103 6.08029C8.4303 5.60029 8.5803 4.76029 9.2103 4.52029C14.2203 2.61029 20.0003 6.24029 20.0003 12.0003L21.7903 12.0003C22.2403 12.0003 22.4603 12.5403 22.1503 12.8503L19.3603 15.6403C19.1603 15.8403 18.8503 15.8403 18.6503 15.6403L15.8603 12.8503C15.5403 12.5403 15.7603 12.0003 16.2103 12.0003L18.0003 12.0003ZM6.0003 12C6.0003 16.17 10.1403 19.01 13.9803 17.64C14.3503 17.52 14.7503 17.58 15.0203 17.85L15.0903 17.92C15.5703 18.4 15.4203 19.24 14.7903 19.48C9.7803 21.39 4.0003 17.76 4.0003 12L2.20031 12C1.76031 12 1.5403 11.46 1.8503 11.15L4.6403 8.36002C4.8403 8.16002 5.1503 8.16002 5.3503 8.36002L8.1403 11.15C8.4603 11.46 8.2403 12 7.79031 12L6.0003 12Z" fill="currentColor"/>
</svg>
