<svg viewBox="0 0 24 24" fill="none" xmlns="http://www.w3.org/2000/svg">
<path d="M20.1501 4.84999L18.8401 6.15999C17.2401 4.27999 14.8801 3.06999 12.2401 2.99999C7.35008 2.87999 3.14008 6.85999 3.00008 11.74C2.86008 16.83 6.94008 21 12.0001 21C16.2001 21 19.7201 18.12 20.7201 14.24C20.8801 13.61 20.3901 13 19.7401 13C19.2901 13 18.8901 13.3 18.7801 13.73C17.9101 17.14 14.5301 19.56 10.7301 18.89C7.95008 18.4 5.69008 16.18 5.15008 13.42C4.26008 8.93999 7.68008 4.99999 12.0001 4.99999C14.1801 4.99999 16.1201 6.01999 17.4101 7.58999L15.8601 9.13999C15.5401 9.45999 15.7601 9.99999 16.2101 9.99999H20.5001C20.7801 9.99999 21.0001 9.77999 21.0001 9.49999V5.20999C21.0001 4.75999 20.4601 4.53999 20.1501 4.84999Z" fill="currentColor"/>
</svg>
