<svg viewBox="0 0 24 24" fill="none" xmlns="http://www.w3.org/2000/svg">
<path d="M3.84992 4.84999L5.15992 6.15999C6.75992 4.27999 9.11992 3.06999 11.7599 2.99999C16.6499 2.87999 20.8599 6.85999 20.9999 11.74C21.1399 16.83 17.0599 21 11.9999 21C7.79992 21 4.27992 18.12 3.27992 14.24C3.11992 13.61 3.60992 13 4.25992 13C4.70992 13 5.10992 13.3 5.21992 13.73C6.08992 17.14 9.46992 19.56 13.2699 18.89C16.0499 18.4 18.3099 16.18 18.8499 13.42C19.7399 8.93999 16.3199 4.99999 11.9999 4.99999C9.81992 4.99999 7.87992 6.01999 6.58992 7.58999L8.13992 9.13999C8.45992 9.45999 8.23992 9.99999 7.78992 9.99999H3.49992C3.21992 9.99999 2.99992 9.77999 2.99992 9.49999V5.20999C2.99992 4.75999 3.53992 4.53999 3.84992 4.84999Z" fill="currentColor"/>
</svg>
