<svg viewBox="0 0 24 24" fill="none" xmlns="http://www.w3.org/2000/svg">
<g clip-path="url(#clip0_57_37)">
<path d="M4.92898 4.92893C1.03282 8.82509 1.03282 15.1749 4.92898 19.0711C8.82514 22.9672 15.175 22.9672 19.0711 19.0711C22.9673 15.1749 22.9673 8.82509 19.0711 4.92893C15.175 1.03277 8.82514 1.03277 4.92898 4.92893ZM12 13.4142L8.46451 9.87868C8.0756 9.48977 8.0756 8.85338 8.46451 8.46447C8.85342 8.07556 9.48982 8.07556 9.87873 8.46447L13.4143 12L14.68 10.7343C14.9982 10.4161 15.5356 10.6424 15.5285 11.0878V15.0335C15.5285 15.3163 15.3093 15.5355 15.0265 15.5355H11.0808C10.6424 15.5355 10.4161 14.9981 10.7343 14.6799L12 13.4142Z" fill="currentColor"/>
</g>
<defs>
<clipPath id="clip0_57_37">
<rect width="24" height="24" fill="white"/>
</clipPath>
</defs>
</svg>
