<svg viewBox="0 0 24 24" fill="none" xmlns="http://www.w3.org/2000/svg">
<path d="M12 2C6.48 2 2 6.48 2 12C2 17.52 6.48 22 12 22C17.52 22 22 17.52 22 12C22 6.48 17.52 2 12 2ZM7.35 8.15L9.65 5.85C9.85 5.65 10.16 5.65 10.36 5.85L12.65 8.15C12.96 8.46 12.74 9 12.3 9H11V12C11 12.55 10.55 13 10 13C9.45 13 9 12.55 9 12V9H7.71C7.26 9 7.04 8.46 7.35 8.15ZM14.35 18.15C14.15 18.35 13.84 18.35 13.64 18.15L11.35 15.85C11.04 15.54 11.26 15 11.7 15H13V12C13 11.45 13.45 11 14 11C14.55 11 15 11.45 15 12V15H16.29C16.74 15 16.96 15.54 16.64 15.85L14.35 18.15Z" fill="currentColor"/>
</svg>
