<svg viewBox="0 0 24 24" fill="none" xmlns="http://www.w3.org/2000/svg">
<g clip-path="url(#clip0_57_35)">
<path d="M4.92893 19.0711C8.82509 22.9672 15.1749 22.9672 19.0711 19.0711C22.9672 15.1749 22.9672 8.82511 19.0711 4.92895C15.1749 1.03279 8.82509 1.03279 4.92893 4.92895C1.03277 8.82511 1.03277 15.1749 4.92893 19.0711ZM13.4142 12L9.87868 15.5355C9.48977 15.9245 8.85338 15.9245 8.46447 15.5355C8.07556 15.1466 8.07556 14.5102 8.46447 14.1213L12 10.5858L10.7343 9.32008C10.4161 9.00188 10.6424 8.46448 11.0878 8.47155H15.0335C15.3163 8.47155 15.5355 8.69076 15.5355 8.9736V12.9193C15.5355 13.3577 14.9981 13.5839 14.6799 13.2657L13.4142 12Z" fill="currentColor"/>
</g>
<defs>
<clipPath id="clip0_57_35">
<rect width="24" height="24" fill="white"/>
</clipPath>
</defs>
</svg>
