<svg viewBox="0 0 24 24" fill="none" xmlns="http://www.w3.org/2000/svg">
<path d="M22 12C22 6.48 17.52 2 12 2C6.48 2 2 6.48 2 12C2 17.52 6.48 22 12 22C17.52 22 22 17.52 22 12ZM15.85 7.35L18.15 9.65C18.35 9.85 18.35 10.16 18.15 10.36L15.85 12.65C15.54 12.96 15 12.74 15 12.3V11H12C11.45 11 11 10.55 11 10C11 9.45 11.45 9 12 9H15V7.71C15 7.26 15.54 7.04 15.85 7.35ZM8.15 16.65L5.85 14.35C5.65 14.15 5.65 13.84 5.85 13.64L8.15 11.35C8.46 11.04 9 11.26 9 11.7V13H12C12.55 13 13 13.45 13 14C13 14.55 12.55 15 12 15H9V16.29C9 16.74 8.46 16.96 8.15 16.65Z" fill="currentColor"/>
</svg>
