<svg viewBox="0 0 24 24" fill="none" xmlns="http://www.w3.org/2000/svg">
<path d="M22 12C22 17.52 17.52 22 12 22C6.48 22 2 17.52 2 12C2 6.48 6.48 2 12 2C17.52 2 22 6.48 22 12ZM5.85 11.09C5.54 11.4 5.76 11.94 6.2 11.94L7 11.94C7 11.96 7 11.98 7 12C7 13.28 7.49 14.56 8.46 15.54C9.89 16.97 11.98 17.35 13.76 16.68C14.27 16.49 14.4 15.82 14.01 15.44C13.79 15.22 13.47 15.17 13.19 15.27C11.95 15.73 10.51 15.47 9.51 14.47C8.81 13.77 8.48 12.85 8.5 11.93L9.44 11.93C9.89 11.93 10.11 11.39 9.79 11.08L8.17 9.46C7.97 9.26 7.66 9.26 7.46 9.46L5.85 11.09ZM9.98 8.56C10.2 8.78 10.52 8.83 10.8 8.73C12.04 8.27 13.48 8.53 14.48 9.53C15.18 10.23 15.52 11.15 15.5 12.06L14.56 12.06C14.11 12.06 13.89 12.6 14.21 12.91L15.82 14.54C16.02 14.74 16.33 14.74 16.53 14.54L18.15 12.92C18.46 12.61 18.24 12.07 17.8 12.07L16.99 12.07C17.01 10.77 16.54 9.46 15.54 8.47C14.11 7.04 12.02 6.66 10.24 7.33C9.72 7.52 9.59 8.18 9.98 8.56Z" fill="currentColor"/>
</svg>
