<svg viewBox="0 0 24 24" fill="none" xmlns="http://www.w3.org/2000/svg">
<path d="M2 12C2 17.52 6.48 22 12 22C17.52 22 22 17.52 22 12C22 6.48 17.52 2 12 2C6.48 2 2 6.48 2 12ZM18.15 11.09C18.46 11.4 18.24 11.94 17.8 11.94L17 11.94C17 11.96 17 11.98 17 12C17 13.28 16.51 14.56 15.54 15.54C14.11 16.97 12.02 17.35 10.24 16.68C9.73 16.49 9.6 15.82 9.99 15.44C10.21 15.22 10.53 15.17 10.81 15.27C12.05 15.73 13.49 15.47 14.49 14.47C15.19 13.77 15.52 12.85 15.5 11.93L14.56 11.93C14.11 11.93 13.89 11.39 14.21 11.08L15.83 9.46C16.03 9.26 16.34 9.26 16.54 9.46L18.15 11.09ZM14.02 8.56C13.8 8.78 13.48 8.83 13.2 8.73C11.96 8.27 10.52 8.53 9.52 9.53C8.82 10.23 8.48 11.15 8.5 12.06L9.44 12.06C9.89 12.06 10.11 12.6 9.79 12.91L8.18 14.54C7.98 14.74 7.67 14.74 7.47 14.54L5.85 12.92C5.54 12.61 5.76 12.07 6.2 12.07L7.01 12.07C6.99 10.77 7.46 9.46 8.46 8.47C9.89 7.04 11.98 6.66 13.76 7.33C14.28 7.52 14.41 8.18 14.02 8.56Z" fill="currentColor"/>
</svg>
