<svg viewBox="0 0 24 24" fill="none" xmlns="http://www.w3.org/2000/svg">
<g clip-path="url(#clip0_57_34)">
<path d="M19.071 19.0711C22.9672 15.1749 22.9672 8.82509 19.071 4.92893C15.1749 1.03277 8.82505 1.03277 4.92889 4.92893C1.03273 8.82509 1.03273 15.1749 4.92889 19.0711C8.82504 22.9672 15.1749 22.9672 19.071 19.0711ZM12 10.5858L15.5355 14.1213C15.9244 14.5102 15.9244 15.1466 15.5355 15.5355C15.1466 15.9244 14.5102 15.9244 14.1213 15.5355L10.5857 12L9.32002 13.2657C9.00182 13.5839 8.46442 13.3576 8.47149 12.9122L8.47149 8.96651C8.47149 8.68367 8.69069 8.46446 8.97354 8.46446L12.9192 8.46447C13.3576 8.46447 13.5839 9.00187 13.2657 9.32006L12 10.5858Z" fill="currentColor"/>
</g>
<defs>
<clipPath id="clip0_57_34">
<rect width="24" height="24" fill="white"/>
</clipPath>
</defs>
</svg>
