<svg viewBox="0 0 24 24" fill="none" xmlns="http://www.w3.org/2000/svg">
<g clip-path="url(#clip0_57_36)">
<path d="M19.0711 4.92892C15.1749 1.03276 8.82509 1.03276 4.92893 4.92892C1.03277 8.82507 1.03277 15.1749 4.92893 19.0711C8.82509 22.9672 15.1749 22.9672 19.0711 19.0711C22.9672 15.1749 22.9672 8.82508 19.0711 4.92892ZM10.5858 12L14.1213 8.46445C14.5102 8.07554 15.1466 8.07554 15.5355 8.46445C15.9244 8.85336 15.9244 9.48976 15.5355 9.87866L12 13.4142L13.2657 14.6799C13.5839 14.9981 13.3576 15.5355 12.9122 15.5284L8.96651 15.5284C8.68367 15.5284 8.46446 15.3092 8.46446 15.0264L8.46446 11.0807C8.46446 10.6423 9.00187 10.4161 9.32006 10.7343L10.5858 12Z" fill="currentColor"/>
</g>
<defs>
<clipPath id="clip0_57_36">
<rect width="24" height="24" fill="white"/>
</clipPath>
</defs>
</svg>
