<svg viewBox="0 0 24 24" fill="none" xmlns="http://www.w3.org/2000/svg">
<path d="M2 12C2 17.51 6.49 22 12 22C17.51 22 22 17.51 22 12C22 6.49 17.51 2 12 2C6.49 2 2 6.49 2 12ZM10 13L7 13C6.45 13 6 12.55 6 12C6 11.45 6.45 11 7 11L10 11L10 9.21C10 8.76 10.54 8.54 10.85 8.86L13.64 11.65C13.84 11.85 13.84 12.16 13.64 12.36L10.85 15.15C10.54 15.46 10 15.24 10 14.79L10 13ZM17 8L17 16C17 16.55 16.55 17 16 17C15.45 17 15 16.55 15 16L15 8C15 7.45 15.45 7 16 7C16.55 7 17 7.45 17 8Z" fill="currentColor"/>
</svg>
