<svg viewBox="0 0 24 24" fill="none" xmlns="http://www.w3.org/2000/svg">
<path d="M5.13979 11.86L2.35979 14.65C2.16979 14.85 2.16979 15.16 2.35979 15.36L5.13979 18.15C5.44978 18.47 5.98978 18.24 5.98978 17.8V16H11.9998C12.5498 16 12.9998 15.55 12.9998 15C12.9998 14.45 12.5498 14 11.9998 14H5.98978V12.21C5.98978 11.76 5.44978 11.54 5.13979 11.86ZM21.6498 8.65L18.8698 5.86C18.5598 5.54 18.0198 5.77 18.0198 6.21V8H11.9998C11.4498 8 10.9998 8.45 10.9998 9C10.9998 9.55 11.4498 10 11.9998 10H18.0098V11.79C18.0098 12.24 18.5498 12.46 18.8598 12.14L21.6398 9.35C21.8398 9.16 21.8398 8.84 21.6498 8.65Z" fill="currentColor"/>
</svg>
