<svg viewBox="0 0 24 24" fill="none" xmlns="http://www.w3.org/2000/svg">
<path fill-rule="evenodd" clip-rule="evenodd" d="M11.9998 18.0003C16.2898 18.0003 18.9898 13.7103 17.6498 10.0103C17.5198 9.65033 17.5798 9.25033 17.8398 8.99033L17.9198 8.91033C18.3998 8.43033 19.2398 8.58033 19.4798 9.21033C21.3898 14.2203 17.7598 20.0003 11.9998 20.0003L11.9998 21.7903C11.9998 22.2403 11.4598 22.4603 11.1498 22.1503L8.35977 19.3603C8.15977 19.1603 8.15977 18.8503 8.35977 18.6503L11.1498 15.8603C11.4598 15.5403 11.9998 15.7603 11.9998 16.2103L11.9998 18.0003ZM12 6.00033C7.83004 6.00033 4.99004 10.1403 6.36004 13.9803C6.48004 14.3503 6.42004 14.7503 6.15004 15.0203L6.08004 15.0903C5.60004 15.5703 4.76004 15.4203 4.52004 14.7903C2.61004 9.78033 6.24004 4.00033 12 4.00033L12 2.20034C12 1.76034 12.54 1.54033 12.85 1.85033L15.64 4.64033C15.84 4.84033 15.84 5.15033 15.64 5.35033L12.85 8.14033C12.54 8.46034 12 8.24034 12 7.79034L12 6.00033Z" fill="currentColor"/>
</svg>
