<svg viewBox="0 0 24 24" fill="none" xmlns="http://www.w3.org/2000/svg">
<path d="M5.40023 10.91C9.30023 7.03001 15.6302 7.03001 19.5202 10.93C20.6102 12.02 21.4202 13.33 21.9102 14.75C22.1202 15.36 21.6502 16 21.0002 16H20.9002C20.4802 16 20.1302 15.72 19.9902 15.33C19.6002 14.22 18.9702 13.2 18.1102 12.34C15.0002 9.23001 9.93023 9.22001 6.81023 12.32L8.78023 14.29C9.41023 14.92 8.96023 16 8.07023 16H3.49023C2.94023 16 2.49023 15.55 2.49023 15V10.41C2.49023 9.52001 3.57023 9.07001 4.20023 9.70001L5.40023 10.91Z" fill="currentColor"/>
</svg>
