<svg viewBox="0 0 24 24" fill="none" xmlns="http://www.w3.org/2000/svg">
<path d="M14.38 4.7L12 7.08L9.61998 4.7C9.22998 4.31 8.59998 4.31 8.20998 4.7C7.81998 5.09 7.81998 5.73 8.20998 6.12L11.29 9.2C11.68 9.59 12.31 9.59 12.7 9.2L15.78 6.12C16.17 5.73 16.17 5.09 15.78 4.7C15.4 4.31 14.76 4.32 14.38 4.7ZM9.61998 19.3L12 16.92L14.38 19.3C14.77 19.69 15.4 19.69 15.79 19.3C16.18 18.91 16.18 18.27 15.79 17.88L12.71 14.8C12.32 14.41 11.69 14.41 11.3 14.8L8.21998 17.88C7.82998 18.27 7.82998 18.91 8.21998 19.3C8.59998 19.69 9.23998 19.68 9.61998 19.3Z" fill="currentColor"/>
</svg>
