<svg viewBox="0 0 24 24" fill="none" xmlns="http://www.w3.org/2000/svg">
<path d="M12.0001 7.4225L14.4601 9.8825C14.8501 10.2725 15.4801 10.2725 15.8701 9.8825C16.2601 9.4925 16.2601 8.8625 15.8701 8.4725L12.7001 5.2925C12.3101 4.9025 11.6801 4.9025 11.2901 5.2925L8.12014 8.4725C7.73014 8.8625 7.73014 9.4925 8.12014 9.8825C8.51014 10.2725 9.14014 10.2725 9.53014 9.8825L12.0001 7.4225Z" fill="currentColor"/>
<path d="M11.9999 16.9325L9.5399 14.4725C9.1499 14.0825 8.5199 14.0825 8.1299 14.4725C7.7399 14.8625 7.7399 15.4925 8.1299 15.8825L11.2999 19.0625C11.6899 19.4525 12.3199 19.4525 12.7099 19.0625L15.8799 15.8925C16.2699 15.5025 16.2699 14.8725 15.8799 14.4825C15.4899 14.0925 14.8599 14.0925 14.4699 14.4825L11.9999 16.9325Z" fill="#798395"/>
</svg>
