<svg xmlns="http://www.w3.org/2000/svg" width="11.5" height="12.778" viewBox="0 0 11.5 12.778">
  <g id="noun_Share_3656361" transform="translate(-1)">
    <path id="Path_369" data-name="Path 369" d="M10.583,8.944A2.154,2.154,0,0,0,9.5,9.264L4.769,6.9a1.407,1.407,0,0,0,.064-.511c0-.192-.064-.383-.064-.511L9.5,3.514a2.154,2.154,0,0,0,1.086.319A1.882,1.882,0,0,0,12.5,1.917a1.917,1.917,0,0,0-3.833,0c0,.192.064.383.064.511L4,4.792a2.154,2.154,0,0,0-1.086-.319A1.882,1.882,0,0,0,1,6.389,1.882,1.882,0,0,0,2.917,8.306,2.154,2.154,0,0,0,4,7.986L8.731,10.35a1.407,1.407,0,0,0-.064.511,1.917,1.917,0,0,0,3.833,0A1.922,1.922,0,0,0,10.583,8.944Z" fill="#535252"/>
  </g>
</svg>
