<svg xmlns="http://www.w3.org/2000/svg" width="16.757" height="16.757" viewBox="0 0 16.757 16.757">
  <g id="noun_Write_post_3345910" data-name="noun_Write post_3345910" transform="translate(-2 -2)">
    <g id="Layer_17" data-name="Layer 17" transform="translate(2 2)">
      <path id="Path_421" data-name="Path 421" d="M14.568,18.757H6.189A4.194,4.194,0,0,1,2,14.568V6.189A4.194,4.194,0,0,1,6.189,2h4.189a.838.838,0,1,1,0,1.676H6.189A2.516,2.516,0,0,0,3.676,6.189v8.378a2.516,2.516,0,0,0,2.514,2.514h8.378a2.516,2.516,0,0,0,2.514-2.514V10.378a.838.838,0,1,1,1.676,0v4.189a4.194,4.194,0,0,1-4.189,4.189ZM7.951,13.716l2.654-.241h0a2.517,2.517,0,0,0,1.549-.726L17.9,7.006a2.932,2.932,0,0,0,0-4.147,3,3,0,0,0-4.147,0L8.009,8.6a2.517,2.517,0,0,0-.727,1.55l-.241,2.654a.838.838,0,0,0,.835.913C7.9,13.719,7.926,13.718,7.951,13.716ZM10.53,12.64Zm6.183-8.6a1.256,1.256,0,0,1,0,1.777L10.97,11.564a.838.838,0,0,1-.516.241L8.8,11.956,8.952,10.3a.838.838,0,0,1,.242-.517l5.743-5.742a1.255,1.255,0,0,1,1.777,0Z" transform="translate(-2 -2)" fill="#fff"/>
    </g>
  </g>
</svg>
