<svg xmlns="http://www.w3.org/2000/svg" width="22.995" height="24.182" viewBox="0 0 22.995 24.182">
  <g id="zalo" transform="translate(0 0.339)">
    <ellipse id="Ellipse_20" data-name="Ellipse 20" cx="11.153" cy="11.809" rx="11.153" ry="11.809" transform="translate(0 -0.339)" fill="#e1e0df"/>
    <path id="Path_354" data-name="Path 354" d="M130.177,99.369h0a1.262,1.262,0,0,0-.9-.371h-9.849a1.266,1.266,0,0,0-1.266,1.266v9.849a1.262,1.262,0,0,0,.371.9h0l6.517,6.517a11.5,11.5,0,0,0,10.8-11.476c0-.363-.018-.722-.051-1.077Z" transform="translate(-112.86 -93.682)" fill="#bcbcbc"/>
    <path id="Path_355" data-name="Path 355" d="M129.281,99h-9.849a1.266,1.266,0,0,0-1.266,1.266v9.849a1.266,1.266,0,0,0,1.266,1.266h1.975V113.1l2.4-1.722h5.477a1.266,1.266,0,0,0,1.266-1.266v-9.849A1.266,1.266,0,0,0,129.281,99Z" transform="translate(-112.859 -93.683)" fill="#141213"/>
    <path id="Path_356" data-name="Path 356" d="M215.651,134.631v-1.984a1.413,1.413,0,0,0-1.013-.426h-2.883l3.9-5.307v-1.7a1.112,1.112,0,0,0-.741-.283h-5.892a1.418,1.418,0,0,0,0,2.836H211.5l-4.011,5.525a1.113,1.113,0,0,0,.9,1.767h6.253A1.414,1.414,0,0,0,215.651,134.631Z" transform="translate(-197.964 -118.449)" fill="#fff"/>
  </g>
</svg>
