<svg viewBox="0 0 24 24" fill="none" xmlns="http://www.w3.org/2000/svg">
<path d="M16 10.53C15.71 10.24 15.23 10.24 14.94 10.53L10.59 14.88L9 13.29C8.71 13 8.23 13 7.94 13.29C7.65 13.58 7.65 14.06 7.94 14.35L9.88 16.29C10.27 16.68 10.9 16.68 11.29 16.29L15.99 11.59C16.29 11.3 16.29 10.82 16 10.53ZM19 4H18V3C18 2.45 17.55 2 17 2C16.45 2 16 2.45 16 3V4H8V3C8 2.45 7.55 2 7 2C6.45 2 6 2.45 6 3V4H5C3.89 4 3.01 4.9 3.01 6L3 19C3 20.1 3.89 21 5 21H19C20.1 21 21 20.1 21 19V6C21 4.9 20.1 4 19 4ZM18 19H6C5.45 19 5 18.55 5 18V8H19V18C19 18.55 18.55 19 18 19Z" fill="currentColor"/>
</svg>
