<svg viewBox="0 0 24 24" fill="none" xmlns="http://www.w3.org/2000/svg">
<path d="M10.9998 8.75V12.43C10.9998 12.78 11.1898 13.11 11.4898 13.29L14.6098 15.14C14.9698 15.35 15.4298 15.23 15.6398 14.88C15.8498 14.52 15.7398 14.06 15.3798 13.85L12.5098 12.14V8.74C12.4998 8.34 12.1598 8 11.7498 8C11.3398 8 10.9998 8.34 10.9998 8.75ZM20.9998 9.5V4.21C20.9998 3.76 20.4598 3.54 20.1498 3.86L18.3698 5.64C16.5598 3.83 13.9798 2.79 11.1598 3.04C6.96976 3.42 3.51976 6.79 3.05976 10.98C2.45976 16.4 6.68976 21 11.9998 21C16.5898 21 20.3798 17.56 20.9298 13.12C20.9998 12.52 20.5298 12 19.9298 12C19.4298 12 19.0098 12.37 18.9498 12.86C18.5198 16.35 15.5098 19.05 11.8998 19C8.18976 18.95 5.05976 15.82 4.99976 12.1C4.93976 8.2 8.10976 5 11.9998 5C13.9298 5 15.6798 5.79 16.9498 7.05L14.8598 9.14C14.5398 9.46 14.7598 10 15.2098 10H20.4998C20.7798 10 20.9998 9.78 20.9998 9.5Z" fill="currentColor"/>
</svg>
