<svg viewBox="0 0 24 24" fill="none" xmlns="http://www.w3.org/2000/svg">
<path fill-rule="evenodd" clip-rule="evenodd" d="M19 4H18V3C18 2.45 17.55 2 17 2C16.45 2 16 2.45 16 3V4H8V3C8 2.45 7.55 2 7 2C6.45 2 6 2.45 6 3V4H5C3.89 4 3.01 4.9 3.01 6L3.00917 7H21V6C21 4.9 20.1 4 19 4ZM3 18L3.0075 9H21V18C21 19.1 20.1 20 19 20H5C3.89 20 3 19.1 3 18ZM16.0002 11.53C15.7102 11.24 15.2302 11.24 14.9402 11.53L10.5902 15.88L9.00016 14.29C8.71016 14 8.23016 14 7.94016 14.29C7.65016 14.58 7.65016 15.06 7.94016 15.35L9.88016 17.29C10.2702 17.68 10.9002 17.68 11.2902 17.29L15.9902 12.59C16.2902 12.3 16.2902 11.82 16.0002 11.53Z" fill="currentColor"/>
</svg>
