<svg viewBox="0 0 24 24" fill="none" xmlns="http://www.w3.org/2000/svg">
<path fill-rule="evenodd" clip-rule="evenodd" d="M19 4H18V3C18 2.45 17.55 2 17 2C16.45 2 16 2.45 16 3V4H8V3C8 2.45 7.55 2 7 2C6.45 2 6 2.45 6 3V4H5C3.89 4 3.01 4.9 3.01 6L3.00917 7H21V6C21 4.9 20.1 4 19 4ZM3 18L3.0075 9H21V18C21 19.1 20.1 20 19 20H5C3.89 20 3 19.1 3 18ZM10.2024 16.7953L12 14.9976L13.7976 16.7953C14.0706 17.0682 14.5224 17.0682 14.7953 16.7953C15.0682 16.5224 15.0682 16.0706 14.7953 15.7976L12.9976 14L14.7953 12.2024C15.0682 11.9294 15.0682 11.4776 14.7953 11.2047C14.5224 10.9318 14.0706 10.9318 13.7976 11.2047L12 13.0024L10.2024 11.2047C9.92941 10.9318 9.47765 10.9318 9.20471 11.2047C8.93176 11.4776 8.93176 11.9294 9.20471 12.2024L11.0024 14L9.20471 15.7976C8.93176 16.0706 8.93176 16.5224 9.20471 16.7953C9.47765 17.0682 9.92941 17.0682 10.2024 16.7953Z" fill="currentColor"/>
</svg>
