<?xml version="1.0" encoding="iso-8859-1"?>
<!-- Generator: Adobe Illustrator 19.0.0, SVG Export Plug-In . SVG Version: 6.00 Build 0)  -->
<svg version="1.1" id="Capa_1" xmlns="http://www.w3.org/2000/svg" xmlns:xlink="http://www.w3.org/1999/xlink" x="0px" y="0px"
	 viewBox="0 0 512 512" style="enable-background:new 0 0 512 512;" xml:space="preserve">
<g transform="matrix(1.25 0 0 -1.25 0 45)">
	<g>
		<g>
			<path style="fill:#DD2E44;" d="M409.6-328.089c0-25.134-20.378-45.511-45.511-45.511H45.511C20.378-373.6,0-353.222,0-328.089
				V-9.511C0,15.622,20.378,36,45.511,36h318.578C389.222,36,409.6,15.622,409.6-9.511V-328.089z"/>
			<path style="fill:#FFFFFF;" d="M332.8-275.546c0-19.217-9.762-28.103-32.848-28.103c-9.466,0-22.778,0.887-31.061,2.662
				c-4.13,0.887-7.088,4.733-7.088,9.762c0,1.195,0,2.082,0.284,3.254c1.183,5.916,4.733,8.875,9.182,8.875
				c0.592,0,1.468,0,2.059-0.296c6.804-1.479,17.158-2.662,23.677-2.662c11.241,0,13.301,2.071,13.301,11.844v225.428
				c0,5.609,4.437,8.863,11.253,8.863c6.793,0,11.241-3.254,11.241-8.863V-275.546z M277.174-229.694
				c0-5.621-4.733-8.272-11.241-8.272c-6.212,0-11.241,2.958-11.241,8.272v170.109c0,5.632,5.029,8.283,11.241,8.283
				c6.508,0,11.241-2.947,11.241-8.283C277.174-59.585,277.174-229.694,277.174-229.694z M189.906-282.054
				c5.621,0,8.283,1.491,8.283,7.111v33.132c0,5.905-2.662,7.384-8.283,7.384h-68.631c-5.621,0-8.283-1.479-8.283-7.384v-33.132
				c0-5.621,2.662-7.111,8.283-7.111H189.906z M196.71-216.382c16.566,0,23.666-6.212,23.666-22.471v-39.06
				c0-16.27-7.1-22.482-23.666-22.482h-81.943c-16.566,0-23.973,6.212-23.973,22.482v39.06c0,16.259,7.407,22.471,23.973,22.471
				H196.71z M215.347-56.922c15.679,0,23.074-6.497,23.074-22.482v-19.228c0-6.508-4.13-8.875-10.354-8.875
				c-6.212,0-10.058,2.662-10.058,7.987v16.566c0,5.916-2.958,7.407-8.283,7.407H103.822c-5.621,0-8.294-1.49-8.294-7.407v-19.82
				c0-5.325-4.733-8.272-10.638-8.272c-5.928,0-10.354,2.651-10.354,9.159v22.482c0,15.986,7.396,22.482,23.074,22.482h48.219
				v15.986c0,5.313,4.437,8.283,11.241,8.283c7.1,0,11.537-2.97,11.537-8.283v-15.986L215.347-56.922L215.347-56.922z
				 M97.018-158.389c-4.733,0-7.396,4.142-7.396,8.875c0,4.733,2.662,8.875,7.396,8.875h49.994v20.412h-39.64
				c-5.325,0-7.396,3.846-7.396,8.875c0,4.733,2.662,8.579,7.396,8.579h39.64v13.904c0,5.336,3.846,7.987,9.762,7.987
				c6.212,0,9.762-2.651,9.762-7.987v-13.904h40.823c4.733,0,7.396-3.846,7.396-8.579c0-5.029-2.071-8.875-7.396-8.875h-40.823
				v-20.412h48.515c4.437,0,7.396-4.142,7.396-8.875c0-4.733-2.958-8.875-7.396-8.875h-48.515v-21.003h63.898
				c4.437,0,7.1-3.857,7.1-9.17c0-4.733-2.662-8.886-7.1-8.886H78.962c-4.733,0-7.1,4.153-7.1,8.886c0,5.313,2.367,9.17,7.1,9.17
				h68.05v21.003H97.018L97.018-158.389z"/>
		</g>
	</g>
</g>
<g>
</g>
<g>
</g>
<g>
</g>
<g>
</g>
<g>
</g>
<g>
</g>
<g>
</g>
<g>
</g>
<g>
</g>
<g>
</g>
<g>
</g>
<g>
</g>
<g>
</g>
<g>
</g>
<g>
</g>
</svg>
