<svg viewBox="0 0 24 24" fill="none" xmlns="http://www.w3.org/2000/svg">
<path fill-rule="evenodd" clip-rule="evenodd" d="M19.9999 1.29L20.7099 2C21.0999 2.39 21.0999 3.02 20.6999 3.41L19.9799 4.13L17.8599 2.01L18.5799 1.29C18.8099 1.07 19.1599 1 19.2899 1C19.5499 1 19.7999 1.1 19.9999 1.29ZM13.95 13H9V8.05L14.61 2.44C13.78 2.16 12.9 2 12 2C7.8 2 4 5.22 4 10.2C4 13.52 6.67 17.45 12 22C17.33 17.45 20 13.52 20 10.2C20 9.19 19.84 8.26 19.55 7.4L13.95 13ZM11 11H13.12L19.28 4.83997L17.16 2.71997L11 8.87997V11Z" fill="currentColor"/>
</svg>
