<svg viewBox="0 0 24 24" fill="none" xmlns="http://www.w3.org/2000/svg">
<path fill-rule="evenodd" clip-rule="evenodd" d="M5.2 4C3.43269 4 2 5.43269 2 7.2C2 7.64183 2.35817 8 2.8 8H21.2C21.6418 8 22 7.64183 22 7.2C22 5.43269 20.5673 4 18.8 4H5.2ZM19 7C19.5523 7 20 6.55228 20 6C20 5.44772 19.5523 5 19 5C18.4477 5 18 5.44772 18 6C18 6.55228 18.4477 7 19 7ZM2.8 16C2.35817 16 2 16.3582 2 16.8C2 18.5673 3.43269 20 5.2 20H18.8C20.5673 20 22 18.5673 22 16.8C22 16.3582 21.6418 16 21.2 16H2.8ZM19 19C19.5523 19 20 18.5523 20 18C20 17.4477 19.5523 17 19 17C18.4477 17 18 17.4477 18 18C18 18.5523 18.4477 19 19 19ZM3 10C2.44772 10 2 10.4477 2 11V13C2 13.5523 2.44772 14 3 14H21C21.5523 14 22 13.5523 22 13V11C22 10.4477 21.5523 10 21 10H3ZM19 13C19.5523 13 20 12.5523 20 12C20 11.4477 19.5523 11 19 11C18.4477 11 18 11.4477 18 12C18 12.5523 18.4477 13 19 13ZM8 12C8 11.4477 8.44771 11 9 11H15C15.5523 11 16 11.4477 16 12C16 12.5523 15.5523 13 15 13H9C8.44771 13 8 12.5523 8 12Z" fill="currentColor"/>
</svg>
