<svg viewBox="0 0 24 24" fill="none" xmlns="http://www.w3.org/2000/svg">
<path d="M9.0002 11H15.0002C15.5502 11 16.0002 11.45 16.0002 12C16.0002 12.55 15.5502 13 15.0002 13H9.0002C8.4502 13 8.0002 12.55 8.0002 12C8.0002 11.45 8.4502 11 9.0002 11ZM20.9302 12C21.5502 12 22.0002 11.41 21.8602 10.81C21.3202 8.62 19.3502 7 17.0002 7H13.9502C13.4302 7 13.0002 7.43 13.0002 7.95C13.0002 8.47 13.4302 8.9 13.9502 8.9H17.0002C18.4502 8.9 19.6702 9.9 20.0102 11.24C20.1202 11.68 20.4802 12 20.9302 12ZM3.9602 11.38C4.2402 9.91 5.6202 8.9 7.1202 8.9H10.0502C10.5702 8.9 11.0002 8.47 11.0002 7.95C11.0002 7.43 10.5702 7 10.0502 7H7.2202C4.6102 7 2.2802 8.91 2.0302 11.51C1.7402 14.49 4.0802 17 7.0002 17H10.0502C10.5702 17 11.0002 16.57 11.0002 16.05C11.0002 15.53 10.5702 15.1 10.0502 15.1H7.0002C5.0902 15.1 3.5802 13.36 3.9602 11.38ZM18.0002 12C17.4502 12 17.0002 12.45 17.0002 13V15H15.0002C14.4502 15 14.0002 15.45 14.0002 16C14.0002 16.55 14.4502 17 15.0002 17H17.0002V19C17.0002 19.55 17.4502 20 18.0002 20C18.5502 20 19.0002 19.55 19.0002 19V17H21.0002C21.5502 17 22.0002 16.55 22.0002 16C22.0002 15.45 21.5502 15 21.0002 15H19.0002V13C19.0002 12.45 18.5502 12 18.0002 12Z" fill="currentColor"/>
</svg>
