<svg viewBox="0 0 24 24" fill="none" xmlns="http://www.w3.org/2000/svg">
<g clip-path="url(#clip0_59_17)">
<path d="M19.0424 11.1168L11.5612 18.598C10.0833 20.0758 7.68624 20.3092 6.07404 18.9798C4.22142 17.4525 4.12949 14.716 5.78412 13.0614L14.524 4.32151C15.4503 3.3952 16.9564 3.21842 17.9676 4.04574C19.1343 5.00033 19.1979 6.7186 18.1585 7.75805L10.7339 15.1827C10.345 15.5716 9.70857 15.5716 9.31966 15.1827C8.93075 14.7938 8.93075 14.1574 9.31966 13.7685L15.5068 7.58127C15.7968 7.29136 15.7968 6.81053 15.5068 6.52061C15.2169 6.2307 14.7361 6.2307 14.4462 6.52061L8.35799 12.6088C7.43168 13.5351 7.2549 15.0412 8.08222 16.0524C9.03681 17.2191 10.7551 17.2828 11.7945 16.2433L19.0989 8.93892C20.5768 7.46106 20.8101 5.06397 19.4808 3.45177C17.9605 1.60622 15.2169 1.50723 13.5623 3.16185L4.8861 11.8381C2.8567 13.8675 2.52436 17.1696 4.35577 19.3829C6.47002 21.9214 10.2248 22.0557 12.5016 19.7789L20.103 12.1775C20.3929 11.8876 20.3929 11.4067 20.103 11.1168C19.8131 10.8269 19.3323 10.8269 19.0424 11.1168Z" fill="currentColor"/>
</g>
<defs>
<clipPath id="clip0_59_17">
<rect width="24" height="24" fill="white"/>
</clipPath>
</defs>
</svg>
