<svg viewBox="0 0 24 24" fill="none" xmlns="http://www.w3.org/2000/svg">
<g clip-path="url(#clip0_72_30)">
<path fill-rule="evenodd" clip-rule="evenodd" d="M6.34321 4.92894C5.95269 4.53841 5.31953 4.53841 4.929 4.92894C4.53848 5.31946 4.53848 5.95263 4.929 6.34315L10.5858 12L4.92896 17.6569C4.53843 18.0474 4.53843 18.6806 4.92896 19.0711C5.31948 19.4616 5.95264 19.4616 6.34317 19.0711L12 13.4142L17.6569 19.0711C18.0474 19.4616 18.6806 19.4616 19.0711 19.0711C19.4617 18.6806 19.4617 18.0474 19.0711 17.6569L13.4143 12L19.0711 6.34315C19.4616 5.95263 19.4616 5.31947 19.0711 4.92894C18.6806 4.53842 18.0474 4.53842 17.6569 4.92894L12 10.5858L6.34321 4.92894Z" fill="currentColor"/>
</g>
<defs>
<clipPath id="clip0_72_30">
<rect width="24" height="24" fill="white"/>
</clipPath>
</defs>
</svg>
