<svg viewBox="0 0 24 24" fill="none" xmlns="http://www.w3.org/2000/svg">
<path d="M4.14006 2.69001C3.75006 3.08001 3.75006 3.71001 4.14006 4.10001L13.8101 13.77L12.4001 15.18L8.86006 11.65C8.47006 11.26 7.84006 11.26 7.45006 11.65C7.06006 12.04 7.06006 12.67 7.45006 13.06L11.6901 17.3C12.0801 17.69 12.7101 17.69 13.1001 17.3L15.2201 15.18L21.1101 21.07C21.5001 21.46 22.1301 21.46 22.5201 21.07C22.9101 20.68 22.9101 20.05 22.5201 19.66L5.55006 2.69001C5.16006 2.30001 4.53006 2.30001 4.14006 2.69001ZM18.0501 12.36L22.2901 8.12001C22.6801 7.73001 22.6801 7.09001 22.2801 6.70001C21.8901 6.32001 21.2601 6.32001 20.8701 6.71001L16.6301 10.95L18.0501 12.36ZM16.6401 6.70001C16.2501 6.31001 15.6201 6.31001 15.2301 6.70001L13.8101 8.12001L15.2201 9.53001L16.6401 8.11001C17.0301 7.72001 17.0301 7.09001 16.6401 6.70001ZM1.79006 13.06L6.74006 18.01L8.15006 16.6L3.20006 11.65C2.81006 11.26 2.18006 11.26 1.79006 11.65C1.40006 12.04 1.40006 12.67 1.79006 13.06Z" fill="currentColor"/>
</svg>
