<svg viewBox="0 0 24 24" fill="none" xmlns="http://www.w3.org/2000/svg">
<path d="M18.1464 9.85355C18.4614 9.53857 18.2383 9 17.7929 9H15.5C15.2239 9 15 8.77614 15 8.5V4C15 3.44772 14.5523 3 14 3H10C9.44772 3 9 3.44772 9 4V8.5C9 8.77614 8.77614 9 8.5 9H6.20711C5.76165 9 5.53857 9.53857 5.85355 9.85355L11.2929 15.2929C11.6834 15.6834 12.3166 15.6834 12.7071 15.2929L18.1464 9.85355ZM6 18C5.44772 18 5 18.4477 5 19C5 19.5523 5.44772 20 6 20H18C18.5523 20 19 19.5523 19 19C19 18.4477 18.5523 18 18 18H6Z" fill="currentColor"/>
</svg>
