<svg viewBox="0 0 24 24" fill="none" xmlns="http://www.w3.org/2000/svg">
<path fill-rule="evenodd" clip-rule="evenodd" d="M18.7779 2.39337C17.9969 1.61232 16.7305 1.61232 15.9495 2.39337L14.5353 3.80759L20.1921 9.46444L21.6063 8.05023C22.3874 7.26918 22.3874 6.00285 21.6063 5.2218L18.7779 2.39337ZM19.4854 10.1714L13.8286 4.5145L10.5857 7.75739L16.2425 13.4142L19.4854 10.1714ZM20.4898 20.4899C20.8758 20.8808 20.8743 21.5106 20.4853 21.8996C20.0948 22.2901 19.4616 22.2901 19.0711 21.8996L13.4141 16.2426L7.75748 21.8993C7.56995 22.0868 7.31559 22.1922 7.05038 22.1922H2.30774C2.03159 22.1922 1.80774 21.9683 1.80774 21.6922L1.80774 16.9495C1.80774 16.6843 1.91309 16.43 2.10063 16.2424L7.75726 10.5858L2.10051 4.92903C1.70999 4.53851 1.70999 3.90534 2.10051 3.51482C2.48949 3.12584 3.11919 3.1243 3.51007 3.5102C3.51157 3.51171 3.51307 3.51322 3.51457 3.51473L20.4851 20.4853C20.4867 20.4868 20.4882 20.4884 20.4898 20.4899Z" fill="currentColor"/>
</svg>
