<svg viewBox="0 0 24 24" fill="none" xmlns="http://www.w3.org/2000/svg">
<path fill-rule="evenodd" clip-rule="evenodd" d="M1 6.5C1 5.67157 1.67157 5 2.5 5H21.5C22.3284 5 23 5.67157 23 6.5C23 7.32843 22.3284 8 21.5 8H2.5C1.67157 8 1 7.32843 1 6.5ZM4 12.5C4 11.6716 4.67157 11 5.5 11H18.5C19.3284 11 20 11.6716 20 12.5C20 13.3284 19.3284 14 18.5 14H5.5C4.67157 14 4 13.3284 4 12.5ZM8.5 17C7.67157 17 7 17.6716 7 18.5C7 19.3284 7.67157 20 8.5 20H15.5C16.3284 20 17 19.3284 17 18.5C17 17.6716 16.3284 17 15.5 17H8.5Z" fill="currentColor"/>
</svg>
