<svg viewBox="0 0 24 24" fill="none" xmlns="http://www.w3.org/2000/svg">
<path d="M18.7408 6.58C18.5628 6.58 18.3848 6.518 18.2418 6.39C16.5138 4.849 14.2968 4 11.9998 4C9.70279 4 7.48579 4.849 5.75779 6.39C5.44879 6.664 4.97379 6.64 4.69879 6.329C4.42279 6.02 4.44979 5.545 4.75979 5.27C6.76279 3.484 9.33379 2.5 11.9998 2.5C14.6658 2.5 17.2368 3.484 19.2398 5.27C19.5498 5.546 19.5768 6.02 19.3008 6.329C19.1528 6.495 18.9468 6.58 18.7408 6.58Z" fill="currentColor"/>
<path d="M19.7511 10.391C19.5121 10.391 19.2771 10.277 19.1321 10.065C17.5061 7.69702 14.8401 6.28302 12.0001 6.28302C9.16014 6.28302 6.49414 7.69702 4.86814 10.066C4.63414 10.406 4.16914 10.497 3.82514 10.26C3.48414 10.026 3.39714 9.55901 3.63214 9.21801C5.53714 6.44002 8.66514 4.78302 12.0001 4.78302C15.3351 4.78302 18.4631 6.44102 20.3681 9.21701C20.6021 9.55801 20.5151 10.025 20.1751 10.259C20.0451 10.349 19.8961 10.391 19.7511 10.391Z" fill="#798395"/>
<path d="M10.117 21.5C9.92698 21.5 9.73598 21.428 9.58998 21.284C9.45798 21.154 6.35498 18.054 6.35498 15.044C6.35498 11.903 8.88698 9.34802 12.001 9.34802C15.115 9.34802 17.647 11.903 17.647 15.044C17.647 15.458 17.311 15.794 16.897 15.794C16.483 15.794 16.147 15.458 16.147 15.044C16.147 12.731 14.288 10.848 12.001 10.848C9.71398 10.848 7.85498 12.73 7.85498 15.044C7.85498 17.426 10.618 20.19 10.645 20.217C10.939 20.509 10.942 20.983 10.651 21.278C10.504 21.426 10.311 21.5 10.117 21.5Z" fill="#798395"/>
<path d="M13.8832 21.5C12.4052 21.5 8.98124 18.761 8.65024 15.71C8.53224 14.61 8.87124 13.523 9.58024 12.729C10.2082 12.025 11.0612 11.635 11.9832 11.63C12.9152 11.649 13.7372 11.975 14.3792 12.614C15.0292 13.26 15.3872 14.123 15.3872 15.043V15.423C15.3872 16.268 16.0652 16.956 16.8972 16.956C17.7292 16.956 18.4072 16.268 18.4072 15.423V15.29C18.4072 11.746 15.7812 8.79704 12.4292 8.57904C10.6402 8.45904 8.95024 9.07004 7.64824 10.289C6.34324 11.512 5.59424 13.245 5.59424 15.043C5.59424 16.546 6.11524 18.01 7.05924 19.166C7.32124 19.487 7.27324 19.959 6.95324 20.221C6.63224 20.484 6.16024 20.435 5.89724 20.115C4.73524 18.692 4.09424 16.89 4.09424 15.043C4.09424 12.831 5.01624 10.699 6.62224 9.19404C8.23024 7.68804 10.3322 6.93804 12.5242 7.08204C16.6632 7.35304 19.9042 10.958 19.9042 15.29V15.423C19.9042 17.095 18.5532 18.456 16.8942 18.456C15.2352 18.456 13.8842 17.096 13.8842 15.423V15.043C13.8842 14.525 13.6832 14.04 13.3192 13.677C12.9652 13.324 12.4962 13.13 11.9992 13.13C11.9952 13.13 11.9922 13.13 11.9892 13.13C11.3592 13.133 10.9392 13.457 10.6972 13.728C10.2762 14.2 10.0682 14.88 10.1402 15.549C10.3902 17.844 13.1532 20 13.8832 20C14.2972 20 14.6332 20.336 14.6332 20.75C14.6332 21.164 14.2972 21.5 13.8832 21.5Z" fill="#798395"/>
<path d="M16.0961 20.359C13.8801 20.359 11.2031 17.818 11.2031 14.663C11.2031 14.249 11.5391 13.913 11.9531 13.913C12.3671 13.913 12.7031 14.249 12.7031 14.663C12.7031 16.979 14.7561 18.859 16.0961 18.859C16.5101 18.859 16.8461 19.195 16.8461 19.609C16.8461 20.023 16.5101 20.359 16.0961 20.359Z" fill="#798395"/>
</svg>
