<svg viewBox="0 0 24 24" fill="none" xmlns="http://www.w3.org/2000/svg">
<path d="M12 2C6.48609 2 2 6.48609 2 12C2 17.5139 6.48609 22 12 22C17.5139 22 22 17.5139 22 12C22 6.48609 17.5139 2 12 2ZM12 20.3333C9.72984 20.3333 7.67109 19.4186 6.16668 17.9412V16.5833C6.16668 16.187 6.3441 15.9319 6.54918 15.6364C6.76035 15.3325 7 14.9879 7 14.5C7 13.7053 6.28262 13.6248 5.89688 13.5816C5.62098 13.5507 5.36059 13.5214 5.21125 13.3721C5.09812 13.2589 4.985 13.0535 4.86539 12.8362C4.62785 12.404 4.30586 11.8325 3.69285 11.4824C3.96234 7.12875 7.57957 3.66668 12 3.66668C12.2287 3.66668 12.4536 3.68285 12.6777 3.70102C12.6321 3.73098 12.5762 3.75133 12.5387 3.78875C12.4578 3.86973 12.4134 3.98082 12.4167 4.09555C12.4204 4.20988 12.4708 4.31812 12.5562 4.39461C12.706 4.52766 12.7349 4.5948 12.7406 4.5948C12.7312 4.61473 12.6547 4.74535 12.2283 4.96184C11.5243 5.31867 10.7114 6.04906 10.5905 6.80918C10.5352 7.15422 10.6353 7.47445 10.8721 7.71129C10.9502 7.78941 11.056 7.83336 11.1667 7.83336C11.7453 7.83336 12.1925 7.61934 12.625 7.41262C13.0689 7.20059 13.4884 7 14.0833 7C15.7187 7 17 7.36621 17 7.83332C17 8.00461 16.9467 8.05711 16.9264 8.07664C16.7217 8.27805 14.5263 9.43176 13.9135 9.42238C13.7512 9.41953 13.5852 9.41668 13.4183 9.41668C12.8527 9.41668 12.6773 9.33406 12.4743 9.23805C12.2379 9.12656 11.9702 9 11.335 9C10.6481 9 9.37168 9.1241 8.54035 9.95539C7.86043 10.6349 7.93242 11.4479 7.97965 11.9854C7.99062 12.1091 8.00164 12.2263 8.00164 12.3333C8.00164 13.154 8.84027 13.5833 9.66832 13.5833C10.9419 13.5833 12.043 13.8209 12.1683 14C12.1683 14.4663 12.3071 14.7849 12.4186 15.0404C12.5113 15.2541 12.585 15.4225 12.585 15.6666C12.585 15.8554 12.554 15.8957 12.4706 16.0032C12.3115 16.2099 12.1683 16.4349 12.1683 16.9166C12.1683 17.7935 13.0126 18.7554 13.1086 18.8625C13.1888 18.9512 13.3019 19 13.4183 19C13.4529 19 13.4875 18.9959 13.5216 18.987C13.767 18.9239 15.9183 18.3319 15.9183 16.9167C15.9183 16.4732 16.0562 16.3535 16.2654 16.172C16.4704 15.9938 16.7516 15.7501 16.7516 15.25C16.7516 14.9159 17.3445 14.0537 17.8938 13.4462C17.9715 13.3604 18.0102 13.2456 18 13.13C17.9898 13.0145 17.932 12.9083 17.8405 12.8375C17.5166 12.5864 18.1206 10.6022 17.8211 9.80918C17.9908 9.89789 18.2032 10.0423 18.3721 10.2112C18.5108 10.3508 18.6968 10.4175 18.9084 10.409C19.2458 10.3897 19.6467 10.1231 20.0266 9.79051C20.221 10.4954 20.3334 11.2341 20.3334 12C20.3333 16.5951 16.5951 20.3333 12 20.3333Z" fill="currentColor"/>
</svg>
