<svg viewBox="0 0 24 24" fill="none" xmlns="http://www.w3.org/2000/svg">
<path fill-rule="evenodd" clip-rule="evenodd" d="M12 12C14.21 12 16 10.21 16 8C16 5.79 14.21 4 12 4C9.79 4 8 5.79 8 8C8 10.21 9.79 12 12 12ZM12 13C9.33 13 4 14.34 4 17V19C4 19.5523 4.44772 20 5 20H19C19.5523 20 20 19.5523 20 19V17C20 14.34 14.67 13 12 13ZM17.9998 7.99999C17.9998 6.48999 17.4298 5.10999 16.5098 4.04999C18.4698 4.29999 19.9998 5.95999 19.9998 7.99999C19.9998 10.04 18.4698 11.7 16.5098 11.95C17.4298 10.89 17.9998 9.50999 17.9998 7.99999ZM20.5298 13.83C21.4198 14.66 21.9998 15.7 21.9998 17V20H22.9998C23.5521 20 23.9998 19.5523 23.9998 19V17C23.9998 15.55 22.4098 14.49 20.5298 13.83ZM4 8V9H5C5.55228 9 6 9.44772 6 10C6 10.5523 5.55228 11 5 11H4V12C4 12.5523 3.55228 13 3 13C2.44772 13 2 12.5523 2 12V11H1C0.447715 11 0 10.5523 0 10C0 9.44772 0.447715 9 1 9H2V8C2 7.44772 2.44772 7 3 7C3.55228 7 4 7.44772 4 8Z" fill="currentColor"/>
</svg>
