<svg viewBox="0 0 24 24" fill="none" xmlns="http://www.w3.org/2000/svg">
<path d="M19.6602 3.99001C17.0202 2.19001 13.7602 3.03001 12.0002 5.09001C10.2402 3.03001 6.98021 2.18001 4.34021 3.99001C2.94021 4.95001 2.06021 6.57001 2.00021 8.28001C1.86021 12.16 5.30021 15.27 10.5502 20.04L10.6502 20.13C11.4102 20.82 12.5802 20.82 13.3402 20.12L13.4502 20.02C18.7002 15.26 22.1302 12.15 22.0002 8.27001C21.9402 6.57001 21.0602 4.95001 19.6602 3.99001ZM12.1002 18.55L12.0002 18.65L11.9002 18.55C7.14021 14.24 4.00021 11.39 4.00021 8.50001C4.00021 6.50001 5.50021 5.00001 7.50021 5.00001C8.8012 5.00001 10.0736 5.70656 10.7568 6.75186C10.9828 7.09762 11.3425 7.36001 11.7556 7.36001H12.2502C12.6655 7.36001 13.0267 7.09463 13.2532 6.74643C13.9312 5.70411 15.2015 5.00001 16.5002 5.00001C18.5002 5.00001 20.0002 6.50001 20.0002 8.50001C20.0002 11.39 16.8602 14.24 12.1002 18.55Z" fill="currentColor"/>
</svg>
