<svg viewBox="0 0 24 24" fill="none" xmlns="http://www.w3.org/2000/svg">
<path fill-rule="evenodd" clip-rule="evenodd" d="M13.0002 15C13.0002 15.55 12.5502 16 12.0002 16C11.4502 16 11.0002 15.55 11.0002 15V4.99999H9.21018C8.76018 4.99999 8.54018 4.45999 8.85018 4.14999L11.6402 1.35999C11.8402 1.15999 12.1502 1.15999 12.3502 1.35999L15.1402 4.14999C15.4602 4.45999 15.2402 4.99999 14.7902 4.99999H13.0002V15ZM16 8H18C19.1 8 20 8.9 20 10V21C20 22.1 19.1 23 18 23H6C4.9 23 4 22.1 4 21V10C4 8.9 4.9 8 6 8H8C8.55 8 9 8.45 9 9C9 9.55 8.55 10 8 10H6V21H18V10H16C15.45 10 15 9.55 15 9C15 8.45 15.45 8 16 8Z" fill="currentColor"/>
</svg>
