<svg viewBox="0 0 24 24" fill="none" xmlns="http://www.w3.org/2000/svg">
<path d="M14.0001 9H16.8701C18.3301 9 19.6701 9.98 19.9501 11.42C20.2601 13.06 19.2101 14.53 17.7301 14.9L19.2601 16.43C21.0301 15.52 22.2101 13.61 21.9601 11.42C21.6801 8.86 19.3701 7 16.7901 7H14.0001C13.4501 7 13.0001 7.45 13.0001 8C13.0001 8.55 13.4501 9 14.0001 9ZM3.51012 3.51C3.12012 3.12 2.49012 3.12 2.10012 3.51C1.71012 3.9 1.71012 4.53 2.10012 4.92L4.74012 7.56C2.97012 8.47 1.79012 10.38 2.04012 12.57C2.32012 15.14 4.63012 17 7.21012 17H10.0001C10.5501 17 11.0001 16.55 11.0001 16C11.0001 15.45 10.5501 15 10.0001 15H7.13012C5.67012 15 4.33012 14.02 4.05012 12.58C3.74012 10.94 4.80012 9.47 6.27012 9.1L8.39012 11.22C8.16012 11.41 8.00012 11.68 8.00012 12C8.00012 12.55 8.45012 13 9.00012 13H10.1701L19.0701 21.9C19.4601 22.29 20.0901 22.29 20.4801 21.9C20.8701 21.51 20.8701 20.88 20.4801 20.49L3.51012 3.51ZM14.0001 11L15.7101 12.71C15.8901 12.53 16.0001 12.28 16.0001 12C16.0001 11.45 15.5501 11 15.0001 11H14.0001Z" fill="currentColor"/>
</svg>
