<svg viewBox="0 0 24 24" fill="none" xmlns="http://www.w3.org/2000/svg">
<path fill-rule="evenodd" clip-rule="evenodd" d="M4 8C5.10457 8 6 7.10457 6 6C6 4.89543 5.10457 4 4 4C2.89543 4 2 4.89543 2 6C2 7.10457 2.89543 8 4 8ZM21 19H9C8.45 19 8 18.55 8 18C8 17.45 8.45 17 9 17H21C21.55 17 22 17.45 22 18C22 18.55 21.55 19 21 19ZM21 13H9C8.45 13 8 12.55 8 12C8 11.45 8.45 11 9 11H21C21.55 11 22 11.45 22 12C22 12.55 21.55 13 21 13ZM9 7C8.45 7 8 6.55 8 6C8 5.45 8.45 5 9 5H21C21.55 5 22 5.45 22 6C22 6.55 21.55 7 21 7H9ZM6 12C6 13.1046 5.10457 14 4 14C2.89543 14 2 13.1046 2 12C2 10.8954 2.89543 10 4 10C5.10457 10 6 10.8954 6 12ZM4 20C5.10457 20 6 19.1046 6 18C6 16.8954 5.10457 16 4 16C2.89543 16 2 16.8954 2 18C2 19.1046 2.89543 20 4 20Z" fill="currentColor"/>
</svg>
