<svg viewBox="0 0 24 24" fill="none" xmlns="http://www.w3.org/2000/svg">
<path d="M3 17C3 17.5523 3.44772 18 4 18H15C15.5523 18 16 17.5523 16 17C16 16.4477 15.5523 16 15 16H4C3.44772 16 3 16.4477 3 17ZM3 12C3 12.5523 3.44772 13 4 13H12C12.5523 13 13 12.5523 13 12C13 11.4477 12.5523 11 12 11H4C3.44772 11 3 11.4477 3 12ZM4 6C3.44772 6 3 6.44772 3 7C3 7.55228 3.44772 8 4 8H15C15.5523 8 16 7.55228 16 7C16 6.44772 15.5523 6 15 6H4ZM20.2955 16.2945C20.6847 15.9053 20.6852 15.2743 20.2965 14.8845L17.42 12L20.2965 9.11549C20.6852 8.7257 20.6847 8.09474 20.2955 7.70549C19.9059 7.31586 19.2741 7.31586 18.8845 7.70549L16.0042 10.5858C15.2232 11.3668 15.2232 12.6332 16.0042 13.4142L18.8845 16.2945C19.2741 16.6841 19.9059 16.6841 20.2955 16.2945Z" fill="currentColor"/>
</svg>
