<svg viewBox="0 0 24 24" fill="none" xmlns="http://www.w3.org/2000/svg">
<path fill-rule="evenodd" clip-rule="evenodd" d="M21 6V12H17C15.34 12 14 13.34 14 15V20H3C1.9 20 1 19.1 1 18L1.01 6C1.01 4.9 1.9 4 3 4H19C20.1 4 21 4.9 21 6ZM10.47 12.67C10.79 12.87 11.21 12.87 11.53 12.67L18.6 8.25C18.85 8.09 19 7.82 19 7.53C19 6.86 18.27 6.46 17.7 6.81L11 11L4.3 6.81C3.73 6.46 3 6.86 3 7.53C3 7.82 3.15 8.09 3.4 8.25L10.47 12.67ZM21 17C21 16.45 21.45 16 22 16C22.55 16 23 16.45 23 17V19C23 21.21 21.21 23 19 23C16.79 23 15 21.21 15 19V15.5C15 14.12 16.12 13 17.5 13C18.88 13 20 14.12 20 15.5V19C20 19.55 19.55 20 19 20C18.45 20 18 19.55 18 19V15.5C18 15.22 17.78 15 17.5 15C17.22 15 17 15.22 17 15.5V19C17 20.1 17.9 21 19 21C20.1 21 21 20.1 21 19V17Z" fill="currentColor"/>
</svg>
