<svg viewBox="0 0 24 24" fill="none" xmlns="http://www.w3.org/2000/svg">
<path fill-rule="evenodd" clip-rule="evenodd" d="M17 5C17 3.89543 16.1046 3 15 3H4C2.89543 3 2 3.89543 2 5V17C2 19.2091 3.79086 21 6 21H15H19C17.8954 21 17 20.1046 17 19V17V5ZM20 20C21.1046 20 22 19.1046 22 18V10C22 9.44771 21.5523 9 21 9H19C18.4477 9 18 9.44772 18 10V18C18 19.1046 18.8954 20 20 20ZM5 6C4.44772 6 4 6.44772 4 7C4 7.55229 4.44772 8 5 8H14C14.5523 8 15 7.55229 15 7C15 6.44772 14.5523 6 14 6H5ZM4 11C4 10.4477 4.44772 10 5 10H14C14.5523 10 15 10.4477 15 11C15 11.5523 14.5523 12 14 12H5C4.44772 12 4 11.5523 4 11ZM5 14C4.44772 14 4 14.4477 4 15C4 15.5523 4.44772 16 5 16H10C10.5523 16 11 15.5523 11 15C11 14.4477 10.5523 14 10 14H5Z" fill="currentColor"/>
</svg>
