<svg viewBox="0 0 24 24" fill="none" xmlns="http://www.w3.org/2000/svg">
<path fill-rule="evenodd" clip-rule="evenodd" d="M5.11375 4.11398C5.11616 4.11644 5.11858 4.11888 5.12102 4.12132L20.6774 19.6777C20.6798 19.6801 20.6822 19.6825 20.6846 19.6848C21.068 20.0759 21.0657 20.7037 20.6775 21.0919C20.287 21.4824 19.6538 21.4824 19.2633 21.0919L18.1714 20H4.99985C4.44985 20 3.99985 19.55 3.99985 19V18C3.99985 15.34 9.32985 14 11.9998 14C12.0565 14 12.1143 14.0006 12.1732 14.0018L3.70696 5.53554C3.31643 5.14501 3.31643 4.51185 3.70696 4.12132C4.09502 3.73326 4.72266 3.73081 5.11375 4.11398ZM9.08653 5.25841L14.7414 10.9133C15.5163 10.1839 15.9998 9.1487 15.9998 8C15.9998 5.79 14.2098 4 11.9998 4C10.8511 4 9.81591 4.4836 9.08653 5.25841Z" fill="currentColor"/>
</svg>
