<svg viewBox="0 0 24 24" fill="none" xmlns="http://www.w3.org/2000/svg">
<path fill-rule="evenodd" clip-rule="evenodd" d="M14 8C14 10.21 12.21 12 10 12C7.79 12 6 10.21 6 8C6 5.79 7.79 4 10 4C12.21 4 14 5.79 14 8ZM2 17C2 14.34 7.33 13 10 13C12.67 13 18 14.34 18 17V19C18 19.5523 17.5523 20 17 20H3C2.44772 20 2 19.5523 2 19V17ZM14.5098 4.04999C15.4298 5.10999 15.9998 6.48999 15.9998 7.99999C15.9998 9.50999 15.4298 10.89 14.5098 11.95C16.4698 11.7 17.9998 10.04 17.9998 7.99999C17.9998 5.95999 16.4698 4.29999 14.5098 4.04999ZM19.9998 17C19.9998 15.7 19.4198 14.66 18.5298 13.83C20.4098 14.49 21.9998 15.55 21.9998 17V19C21.9998 19.5523 21.5521 20 20.9998 20H19.9998V17Z" fill="currentColor"/>
</svg>
