<svg viewBox="0 0 24 24" fill="none" xmlns="http://www.w3.org/2000/svg">
<path fill-rule="evenodd" clip-rule="evenodd" d="M4.0003 10C2.89573 10 2.0003 10.8954 2.0003 12C2.0003 13.1046 2.89573 14 4.0003 14L10.0008 14L10.0008 20C10.0008 21.1046 10.8962 22 12.0008 22C13.1054 22 14.0008 21.1046 14.0008 20L14.0008 14H20.0003C21.1049 14 22.0003 13.1046 22.0003 12C22.0003 10.8954 21.1049 10 20.0003 10L14.0008 10L14.0008 4C14.0008 2.89543 13.1054 2 12.0008 2C10.8962 2 10.0008 2.89543 10.0008 4L10.0008 10L4.0003 10Z" fill="currentColor"/>
</svg>
