<svg viewBox="0 0 24 24" fill="none" xmlns="http://www.w3.org/2000/svg">
<path d="M18.41 5.8L17.2 4.59C16.42 3.81 15.15 3.81 14.37 4.59L11.69 7.27L3.29289 15.6671C3.10536 15.8546 3 16.109 3 16.3742V19C3 19.5523 3.44772 20 4 20H6.62579C6.891 20 7.14536 19.8946 7.33289 19.7071L15.78 11.26L18.41 8.63C19.2 7.85 19.2 6.58 18.41 5.8ZM13.4142 20C12.5233 20 12.0771 18.9229 12.7071 18.2929L14.7071 16.2929C14.8946 16.1054 15.149 16 15.4142 16H20C20.5523 16 21 16.4477 21 17V19C21 19.5523 20.5523 20 20 20H13.4142Z" fill="currentColor"/>
</svg>
