<svg viewBox="0 0 24 24" fill="none" xmlns="http://www.w3.org/2000/svg">
<path fill-rule="evenodd" clip-rule="evenodd" d="M13.0658 1.84462C14.1567 0.719022 16.0604 0.719022 17.1535 1.84462C17.7 2.40686 18 3.15576 18 3.95189C18 4.74802 17.7 5.49692 17.1535 6.05916C16.8211 6.4009 16.1916 6.72099 15.4808 7H20.5417C21.3417 7 22 7.56429 22 8.25V10.75C22 11.4357 21.3417 12 20.5417 12H20.3333H19.7083H19.0833H12.625H11.375H4.91667H4.29167H3.66667H3.45833C2.65833 12 2 11.4357 2 10.75V8.25C2 7.56429 2.65833 7 3.45833 7H8.52006C7.80874 6.72087 7.17874 6.40044 6.84655 6.05803C6.3 5.49579 6 4.74689 6 3.95076C6 3.15464 6.3 2.40686 6.84655 1.84462C7.93964 0.719022 9.84327 0.717897 10.9342 1.84462C11.3324 2.25506 11.6956 3.10741 12 4.01373C12.3044 3.10741 12.6676 2.25506 13.0658 1.84462ZM7.63636 3.95076C7.63636 4.2971 7.76727 4.62208 8.004 4.86609C8.29309 5.16407 9.54764 5.62398 10.8775 5.99956C10.5131 4.6277 10.0658 3.33455 9.77673 3.03657C9.54109 2.79368 9.22582 2.65874 8.89091 2.65874C8.556 2.65874 8.24182 2.79143 8.004 3.03657C7.76618 3.2817 7.63636 3.60443 7.63636 3.95076ZM13.1215 5.99956C14.4524 5.62398 15.7069 5.16295 15.996 4.86609C16.2327 4.62208 16.3636 4.29598 16.3636 3.95076C16.3636 3.60555 16.2316 3.2817 15.9949 3.03769C15.7582 2.79368 15.444 2.65874 15.108 2.65874C14.7742 2.65874 14.4589 2.79255 14.2222 3.03657C13.9331 3.33455 13.4858 4.6277 13.1215 5.99956ZM4 13H4.56757H5.13514H11V20.7143V21.3571V22H6.08108C4.93081 22 4 20.9457 4 19.6429V13ZM18.8649 13H13V20.7143V21.3571V22H17.9189C19.0692 22 20 20.9457 20 19.6429V13H19.4324H18.8649Z" fill="currentColor"/>
</svg>
