<svg viewBox="0 0 24 24" fill="none" xmlns="http://www.w3.org/2000/svg">
<path d="M22.5487 1.00192C18.2541 0.92492 13.3564 3.16984 10.2562 6.65225C7.29354 6.70817 4.40879 7.92275 2.28487 10.0467C2.16112 10.1686 2.11712 10.351 2.1712 10.516C2.2262 10.6819 2.3692 10.802 2.54154 10.8268L6.07437 11.3328L5.63804 11.8213C5.47579 12.0028 5.48404 12.2788 5.65637 12.4511L11.5478 18.3425C11.6367 18.4314 11.754 18.4763 11.8723 18.4763C11.9814 18.4763 12.0905 18.4378 12.1775 18.3599L12.6661 17.9236L13.1721 21.4564C13.1969 21.6288 13.3325 21.7553 13.4966 21.8103C13.5388 21.824 13.5828 21.8304 13.6277 21.8304C13.7579 21.8304 13.8908 21.7736 13.9825 21.6828C16.077 19.5883 17.2916 16.7035 17.3475 13.7408C20.8336 10.6343 23.0969 5.73834 22.997 1.44925C22.9905 1.20542 22.7935 1.00834 22.5487 1.00192ZM18.3247 8.91459C17.8783 9.361 17.2916 9.58467 16.704 9.58467C16.1165 9.58467 15.5298 9.361 15.0834 8.91459C14.1905 8.02084 14.1905 6.567 15.0834 5.67325C15.9771 4.7795 17.431 4.7795 18.3247 5.67325C19.2185 6.567 19.2185 8.02175 18.3247 8.91459Z" fill="currentColor"/>
<path d="M3.49705 16.4954C2.51622 17.4762 1.16964 21.9074 1.0193 22.4088C0.970719 22.5701 1.01564 22.7452 1.13389 22.8644C1.22189 22.9524 1.3383 22.9991 1.45839 22.9991C1.50239 22.9991 1.54639 22.9927 1.59039 22.9799C2.0918 22.8296 6.52297 21.483 7.5038 20.5021C8.60839 19.3976 8.60839 17.6 7.5038 16.4954C6.3983 15.3908 4.60164 15.3917 3.49705 16.4954Z" fill="#798395"/>
</svg>
