<svg viewBox="0 0 24 24" fill="none" xmlns="http://www.w3.org/2000/svg">
<path fill-rule="evenodd" clip-rule="evenodd" d="M20 6C20 6.55 20.45 7 21 7C21.55 7 22 6.55 22 6V3C22 2.45 21.55 2 21 2H18C17.45 2 17 2.45 17 3C17 3.55 17.45 4 18 4H20V6ZM22 18V21C22 21.55 21.55 22 21 22H18C17.45 22 17 21.55 17 21C17 20.45 17.45 20 18 20H20V18C20 17.45 20.45 17 21 17C21.55 17 22 17.45 22 18ZM6 22H3C2.45 22 2 21.55 2 21V18C2 17.45 2.45 17 3 17C3.55 17 4 17.45 4 18V20H6C6.55 20 7 20.45 7 21C7 21.55 6.55 22 6 22ZM2 6V3C2 2.45 2.45 2 3 2H6C6.55 2 7 2.45 7 3C7 3.55 6.55 4 6 4H4V6C4 6.55 3.55 7 3 7C2.45 7 2 6.55 2 6ZM17.1408 7.27578C17.2585 7.38357 17.4051 7.43578 17.5517 7.43578C17.7214 7.43578 17.891 7.3642 18.0129 7.22441C18.2402 6.9642 18.218 6.56505 17.9627 6.33263C16.3131 4.82863 14.1958 4 12.0002 4C9.8046 4 7.68725 4.82863 6.03768 6.33263C5.78238 6.5642 5.76014 6.9642 5.98744 7.22441C6.21392 7.48631 6.6051 7.50652 6.85958 7.27578C8.28268 5.9781 10.1085 5.26315 12.0002 5.26315C13.8919 5.26315 15.7177 5.9781 17.1408 7.27578ZM17.8739 10.3705C17.9933 10.549 18.1868 10.645 18.3836 10.645C18.503 10.645 18.6258 10.6097 18.7328 10.5339C19.0128 10.3368 19.0845 9.94358 18.8918 9.65642C17.3229 7.31874 14.7468 5.92254 12.0003 5.92254C9.25375 5.92254 6.67769 7.3179 5.10882 9.65726C4.91529 9.94442 4.98694 10.3377 5.26777 10.5347C5.55107 10.7343 5.93402 10.6577 6.12673 10.3714C7.46582 8.37642 9.66141 7.18569 12.0003 7.18569C14.3392 7.18569 16.5348 8.37642 17.8739 10.3705ZM10.4493 20C10.2928 20 10.1355 19.9394 10.0153 19.8181C9.90655 19.7086 7.35107 17.0981 7.35107 14.5634C7.35107 11.9183 9.4363 9.76674 12.0008 9.76674C14.5654 9.76674 16.6506 11.9183 16.6506 14.5634C16.6506 14.912 16.3739 15.1949 16.0329 15.1949C15.692 15.1949 15.4153 14.912 15.4153 14.5634C15.4153 12.6156 13.8843 11.0299 12.0008 11.0299C10.1174 11.0299 8.5864 12.6147 8.5864 14.5634C8.5864 16.5693 10.8619 18.8968 10.8841 18.9196C11.1262 19.1655 11.1287 19.5646 10.889 19.813C10.768 19.9377 10.609 20 10.4493 20ZM9.24135 15.1242C9.51395 17.6935 12.3338 20 13.551 20C13.8919 20 14.1687 19.7171 14.1687 19.3684C14.1687 19.0198 13.8919 18.7368 13.551 18.7368C12.9498 18.7368 10.6743 16.9213 10.4684 14.9886C10.4091 14.4253 10.5804 13.8526 10.9272 13.4552C11.1265 13.227 11.4723 12.9541 11.9912 12.9516H11.9994C12.4087 12.9516 12.795 13.115 13.0865 13.4122C13.3863 13.7179 13.5518 14.1263 13.5518 14.5625V14.8825C13.5518 16.2914 14.6644 17.4366 16.0307 17.4366C17.397 17.4366 18.5096 16.2905 18.5096 14.8825V14.7705C18.5096 11.1225 15.8405 8.08676 12.4318 7.85855C10.6266 7.73729 8.89546 8.36887 7.57119 9.63708C6.24857 10.9044 5.48926 12.6998 5.48926 14.5625C5.48926 16.1179 6.01715 17.6354 6.97412 18.8337C7.19071 19.1032 7.57943 19.1444 7.84379 18.923C8.10732 18.7023 8.14685 18.3048 7.93108 18.0345C7.15365 17.0611 6.72458 15.8282 6.72458 14.5625C6.72458 13.0484 7.34142 11.5891 8.41615 10.5592C9.48842 9.53266 10.8802 9.01813 12.3535 9.11918C15.1141 9.30276 17.2767 11.7861 17.2767 14.7705V14.8825C17.2767 15.5941 16.7184 16.1735 16.0332 16.1735C15.348 16.1735 14.7896 15.5941 14.7896 14.8825V14.5625C14.7896 13.7878 14.4948 13.0611 13.9595 12.5171C13.4308 11.979 12.7538 11.7044 11.9862 11.6884C11.2269 11.6927 10.5244 12.0211 10.0073 12.6139C9.42336 13.2825 9.14417 14.1979 9.24135 15.1242ZM15.3734 19.0391C13.5484 19.0391 11.3438 16.8993 11.3438 14.2425C11.3438 13.8939 11.6205 13.6109 11.9614 13.6109C12.3024 13.6109 12.5791 13.8939 12.5791 14.2425C12.5791 16.1928 14.2698 17.776 15.3734 17.776C15.7143 17.776 15.991 18.0589 15.991 18.4075C15.991 18.7562 15.7143 19.0391 15.3734 19.0391Z" fill="currentColor"/>
</svg>
