<svg viewBox="0 0 24 24" fill="none" xmlns="http://www.w3.org/2000/svg">
<path d="M20 9C19.45 9 19 8.55 19 8V5H16C15.45 5 15 4.55 15 4C15 3.45 15.45 3 16 3H20C20.55 3 21 3.45 21 4V8C21 8.55 20.55 9 20 9ZM21 20V16C21 15.45 20.55 15 20 15C19.45 15 19 15.45 19 16V19H16C15.45 19 15 19.45 15 20C15 20.55 15.45 21 16 21H20C20.55 21 21 20.55 21 20ZM4 21H8C8.55 21 9 20.55 9 20C9 19.45 8.55 19 8 19H5V16C5 15.45 4.55 15 4 15C3.45 15 3 15.45 3 16V20C3 20.55 3.45 21 4 21ZM3 4V8C3 8.55 3.45 9 4 9C4.55 9 5 8.55 5 8V5H8C8.55 5 9 4.55 9 4C9 3.45 8.55 3 8 3H4C3.45 3 3 3.45 3 4Z" fill="currentColor"/>
<rect x="1" y="11" width="22" height="2" rx="1" fill="#798395"/>
</svg>
