<svg viewBox="0 0 24 24" fill="none" xmlns="http://www.w3.org/2000/svg">
<path fill-rule="evenodd" clip-rule="evenodd" d="M21 7C20.45 7 20 6.55 20 6V4H18C17.45 4 17 3.55 17 3C17 2.45 17.45 2 18 2H21C21.55 2 22 2.45 22 3V6C22 6.55 21.55 7 21 7ZM22 21V18C22 17.45 21.55 17 21 17C20.45 17 20 17.45 20 18V20H18C17.45 20 17 20.45 17 21C17 21.55 17.45 22 18 22H21C21.55 22 22 21.55 22 21ZM3 22H6C6.55 22 7 21.55 7 21C7 20.45 6.55 20 6 20H4V18C4 17.45 3.55 17 3 17C2.45 17 2 17.45 2 18V21C2 21.55 2.45 22 3 22ZM2 3V6C2 6.55 2.45 7 3 7C3.55 7 4 6.55 4 6V4H6C6.55 4 7 3.55 7 3C7 2.45 6.55 2 6 2H3C2.45 2 2 2.45 2 3ZM16 9C16 11.2091 14.2091 13 12 13C9.79086 13 8 11.2091 8 9C8 6.79086 9.79086 5 12 5C14.2091 5 16 6.79086 16 9ZM12 14C9.54121 14 7.45864 15.1272 6.29292 16.2929C6.00692 16.5789 5.92137 17.009 6.07615 17.3827C6.23093 17.7564 6.59557 18 7.00003 18H17C17.4045 18 17.7691 17.7564 17.9239 17.3827C18.0787 17.009 17.9931 16.5789 17.7071 16.2929C16.5414 15.1272 14.4588 14 12 14Z" fill="currentColor"/>
</svg>
