<svg viewBox="0 0 24 24" fill="none" xmlns="http://www.w3.org/2000/svg">
<path fill-rule="evenodd" clip-rule="evenodd" d="M15.7617 17.1761C14.3145 18.3183 12.4868 19 10.5 19C5.80558 19 2 15.1944 2 10.5C2 5.80558 5.80558 2 10.5 2C15.1944 2 19 5.80558 19 10.5C19 12.4869 18.3183 14.3146 17.176 15.7619L20.8283 19.4142C21.2188 19.8048 21.2188 20.4379 20.8283 20.8284C20.4378 21.219 19.8046 21.219 19.4141 20.8284L15.7617 17.1761ZM17 10.5C17 14.0899 14.0899 17 10.5 17C6.91015 17 4 14.0899 4 10.5C4 6.91015 6.91015 4 10.5 4C14.0899 4 17 6.91015 17 10.5Z" fill="currentColor"/>
</svg>
