<svg viewBox="0 0 24 24" fill="none" xmlns="http://www.w3.org/2000/svg">
<path d="M19 3H5C3.89 3 3 3.9 3 5V6C3 6.55 3.45 7 4 7C4.55 7 5 6.55 5 6C5 5.45 5.45 5 6 5H18C18.55 5 19 5.45 19 6V18C19 18.55 18.55 19 18 19H6C5.45 19 5 18.55 5 18C5 17.45 4.55 17 4 17C3.45 17 3 17.45 3 18V19C3 20.1 3.9 21 5 21H19C20.1 21 21 20.1 21 19V5C21 3.9 20.1 3 19 3Z" fill="currentColor"/>
<path d="M5.88252 16.29C6.27252 16.68 6.90252 16.68 7.29252 16.29C7.67252 15.91 7.68252 15.27 7.29252 14.88L5.41252 13H14.0825C14.6325 13 15.0825 12.55 15.0825 12C15.0825 11.45 14.6325 11 14.0825 11H5.41252L7.29252 9.11C7.68252 8.72 7.68252 8.09 7.29252 7.7C6.90252 7.31 6.27252 7.31 5.88252 7.7L2.29252 11.29C1.90252 11.68 1.90252 12.31 2.29252 12.7L5.88252 16.29Z" fill="#798395"/>
</svg>
