<svg viewBox="0 0 24 24" fill="none" xmlns="http://www.w3.org/2000/svg">
<path fill-rule="evenodd" clip-rule="evenodd" d="M22 12C22 17.5228 17.5228 22 12 22C6.47715 22 2 17.5228 2 12C2 6.47715 6.47715 2 12 2C17.5228 2 22 6.47715 22 12ZM7.05022 7.05025C7.44074 6.65972 8.07391 6.65972 8.46443 7.05025L11.9999 10.5857L15.5354 7.05025C15.9259 6.65972 16.5591 6.65972 16.9496 7.05025C17.3402 7.44077 17.3402 8.07394 16.9496 8.46446L13.4141 12L16.9497 15.5355C17.3402 15.9261 17.3402 16.5592 16.9497 16.9497C16.5592 17.3403 15.926 17.3403 15.5355 16.9497L11.9999 13.4142L8.46435 16.9497C8.07383 17.3403 7.44066 17.3403 7.05014 16.9497C6.65961 16.5592 6.65961 15.9261 7.05014 15.5355L10.5857 12L7.05022 8.46446C6.65969 8.07394 6.65969 7.44077 7.05022 7.05025Z" fill="currentColor"/>
</svg>
