<svg viewBox="0 0 24 24" fill="none" xmlns="http://www.w3.org/2000/svg">
<path fill-rule="evenodd" clip-rule="evenodd" d="M22 12C22 17.5228 17.5228 22 12 22C6.47715 22 2 17.5228 2 12C2 6.47715 6.47715 2 12 2C17.5228 2 22 6.47715 22 12ZM5 12C5 11.4477 5.44772 11 6 11H11V6C11 5.44772 11.4477 5 12 5C12.5523 5 13 5.44772 13 6V11H18C18.5523 11 19 11.4477 19 12C19 12.5523 18.5523 13 18 13H13V18C13 18.5523 12.5523 19 12 19C11.4477 19 11 18.5523 11 18V13H6C5.44772 13 5 12.5523 5 12Z" fill="currentColor"/>
</svg>
