<svg viewBox="0 0 24 24" fill="none" xmlns="http://www.w3.org/2000/svg">
<path fill-rule="evenodd" clip-rule="evenodd" d="M12.0019 14.9339L15.1527 16.8395L14.3181 13.2587L17.107 10.8422L13.4389 10.5308L11.9988 7.13242L10.5596 10.5209L6.89265 10.8322L9.68152 13.2487L8.84568 16.8352L12.0019 14.9339ZM17.6398 18.7C17.8398 19.56 16.9098 20.24 16.1498 19.78L11.9998 17.27L7.84983 19.77C7.08983 20.23 6.15983 19.55 6.35983 18.69L7.45983 13.97L3.78983 10.79C3.11983 10.21 3.47983 9.11001 4.35983 9.04001L9.18983 8.63001L11.0798 4.18001C11.4198 3.37001 12.5798 3.37001 12.9198 4.18001L14.8098 8.64001L19.6398 9.05001C20.5198 9.12001 20.8798 10.22 20.2098 10.8L16.5398 13.98L17.6398 18.7Z" fill="currentColor"/>
</svg>
