<svg viewBox="0 0 24 24" fill="none" xmlns="http://www.w3.org/2000/svg">
<g clip-path="url(#clip0_161_3)">
<path d="M10.06 5H5.82L6.48 1.82C6.56 1.45 6.44 1.07 6.18 0.800001C5.74 0.360001 5.03 0.360001 4.6 0.800001L0.6 4.8C0.21 5.17 0 5.68 0 6.21V12C0 13.1 0.9 14 2 14H7.92C8.72 14 9.44 13.52 9.76 12.79L11.9 7.79C12.46 6.47 11.49 5 10.06 5ZM22 10H16.08C15.28 10 14.56 10.48 14.24 11.21L12.1 16.21C11.54 17.53 12.5 19 13.94 19H18.18L17.52 22.18C17.44 22.55 17.56 22.93 17.82 23.2C18.26 23.64 18.97 23.64 19.4 23.2L23.4 19.2C23.78 18.82 23.99 18.32 23.99 17.79V12C24 10.9 23.1 10 22 10Z" fill="currentColor"/>
</g>
<defs>
<clipPath id="clip0_161_3">
<rect width="24" height="24" fill="white"/>
</clipPath>
</defs>
</svg>
