<svg viewBox="0 0 24 24" fill="none" xmlns="http://www.w3.org/2000/svg">
<path fill-rule="evenodd" clip-rule="evenodd" d="M8.49688 16.4434L13.2429 21.5879C13.7398 22.1358 14.5451 22.1358 15.0506 21.5972C15.359 21.2629 15.4875 20.7893 15.4018 20.325L14.5879 16.072H19.4282C21.2701 16.072 22.5123 14.029 21.7927 12.1904L18.9999 5.12362C18.7258 4.44573 18.1089 4 17.4236 4H9.71338C8.77102 4 8 4.83575 8 5.85723V15.1341C8 15.6262 8.1799 16.0998 8.49688 16.4434ZM4.5 15C3.67157 15 3 14.3284 3 13.5V5.5C3 4.67157 3.67157 4 4.5 4C5.32843 4 6 4.67157 6 5.5V13.5C6 14.3284 5.32843 15 4.5 15Z" fill="currentColor"/>
</svg>
