<svg viewBox="0 0 24 24" fill="none" xmlns="http://www.w3.org/2000/svg">
<path fill-rule="evenodd" clip-rule="evenodd" d="M8.49688 7.55659L13.2429 2.41208C13.7398 1.8642 14.5451 1.8642 15.0506 2.40279C15.359 2.73709 15.4875 3.21069 15.4018 3.67499L14.5879 7.92804H19.4282C21.2701 7.92804 22.5123 9.97098 21.7927 11.8096L18.9999 18.8764C18.7258 19.5543 18.1089 20 17.4236 20H9.71338C8.77102 20 8 19.1642 8 18.1428V8.86594C8 8.37377 8.1799 7.90018 8.49688 7.55659ZM4.5 9C3.67157 9 3 9.67157 3 10.5V18.5C3 19.3284 3.67157 20 4.5 20C5.32843 20 6 19.3284 6 18.5V10.5C6 9.67157 5.32843 9 4.5 9Z" fill="currentColor"/>
</svg>
