<svg viewBox="0 0 24 24" fill="none" xmlns="http://www.w3.org/2000/svg">
<g clip-path="url(#clip0_75_131)">
<path fill-rule="evenodd" clip-rule="evenodd" d="M2.83337 2H12.0002C12.4864 2 12.9528 2.19316 13.2966 2.53698C13.6404 2.8808 13.8336 3.34713 13.8336 3.83337V8.41678H12.0002C11.5757 8.41828 11.1574 8.51843 10.7783 8.70934C10.3992 8.90025 10.0697 9.17668 9.81574 9.5168C9.34632 9.37065 8.89538 9.1707 8.47189 8.92096C8.79503 8.56172 9.06879 8.16095 9.2859 7.72927C9.5109 7.28125 9.67638 6.80574 9.77816 6.31483C10.2099 6.31483 10.4959 6.3295 10.8186 6.35883V5.02781C10.4658 5.06594 10.111 5.08308 9.75616 5.07914H8.01446V4.6318C8.01416 4.48189 8.0289 4.33234 8.05846 4.18537H6.58902C6.61915 4.33627 6.63389 4.48984 6.63302 4.64372V5.08372H5.01232C4.65748 5.0875 4.30272 5.07036 3.94989 5.03239V6.35883C4.31656 6.3295 4.5659 6.31483 4.99766 6.31483C5.12224 6.74901 5.29183 7.16899 5.50367 7.56793C5.76002 8.05357 6.07764 8.50429 6.44877 8.90904C5.64434 9.37875 4.76385 9.70389 3.84722 9.86973C4.15579 10.2577 4.39406 10.6967 4.55123 11.1668C5.59363 10.8879 6.58031 10.4318 7.46812 9.81839C8.03162 10.221 8.64243 10.5529 9.28682 10.8066C9.26621 10.9257 9.25396 11.046 9.25015 11.1668V13.9169H6.5001L2.83337 16.6669V13.9169C2.34713 13.9169 1.8808 13.7237 1.53698 13.3799C1.19316 13.0361 1 12.5698 1 12.0835V3.83337C1 3.34713 1.19316 2.8808 1.53698 2.53698C1.8808 2.19316 2.34713 2 2.83337 2ZM11.9999 9.33328H21.1667C21.6529 9.33328 22.1193 9.52644 22.4631 9.87026C22.8069 10.2141 23.0001 10.6804 23.0001 11.1666V19.4168C23.0001 19.903 22.8069 20.3694 22.4631 20.7132C22.1193 21.057 21.6529 21.2502 21.1667 21.2502V24.0002L17.5 21.2502H11.9999C11.5136 21.2502 11.0473 21.057 10.7035 20.7132C10.3597 20.3694 10.1665 19.903 10.1665 19.4168V11.1666C10.1665 10.6804 10.3597 10.2141 10.7035 9.87026C11.0473 9.52644 11.5136 9.33328 11.9999 9.33328ZM17.775 16.9418L18.2507 18.5001H19.7458L17.4266 11.9293H15.7308L13.4207 18.5001H14.9158L15.3916 16.9418H17.775ZM7.43117 8.08841C7.87707 7.58092 8.1918 6.9719 8.34786 6.31462H6.40815C6.5969 6.98152 6.94845 7.59106 7.43117 8.08841ZM15.3985 15.5259C15.8219 14.1564 16.078 13.2978 16.1669 12.95C16.1902 13.0483 16.2269 13.1817 16.2752 13.3492C16.3246 13.5175 16.5491 14.2431 16.9485 15.5259H15.3985Z" fill="currentColor"/>
</g>
<defs>
<clipPath id="clip0_75_131">
<rect width="24" height="24" fill="white"/>
</clipPath>
</defs>
</svg>
