<svg viewBox="0 0 24 24" fill="none" xmlns="http://www.w3.org/2000/svg">
<path fill-rule="evenodd" clip-rule="evenodd" d="M9 3C9 2.44772 9.44772 2 10 2H14C14.5523 2 15 2.44772 15 3H18C19.1046 3 20 3.89543 20 5V6H4V5C4 3.89543 4.89543 3 6 3H9ZM19 7H5V20C5 21.1046 5.89543 22 7 22H17C18.1046 22 19 21.1046 19 20V7ZM8 10C7.44772 10 7 10.4477 7 11V18C7 18.5523 7.44772 19 8 19C8.55228 19 9 18.5523 9 18V11C9 10.4477 8.55228 10 8 10ZM16 10C15.4477 10 15 10.4477 15 11V18C15 18.5523 15.4477 19 16 19C16.5523 19 17 18.5523 17 18V11C17 10.4477 16.5523 10 16 10ZM11 11C11 10.4477 11.4477 10 12 10C12.5523 10 13 10.4477 13 11V18C13 18.5523 12.5523 19 12 19C11.4477 19 11 18.5523 11 18V11Z" fill="currentColor"/>
</svg>
