<svg viewBox="0 0 24 24" fill="none" xmlns="http://www.w3.org/2000/svg">
<path d="M9 15C9 15.5523 9.44772 16 10 16H14C14.5523 16 15 15.5523 15 15V10.5C15 10.2239 15.2239 10 15.5 10H17.7929C18.2383 10 18.4614 9.46143 18.1464 9.14645L12.7071 3.70711C12.3166 3.31658 11.6834 3.31658 11.2929 3.70711L5.85355 9.14645C5.53857 9.46143 5.76165 10 6.20711 10H8.5C8.77614 10 9 10.2239 9 10.5V15ZM5 19C5 18.4477 5.44772 18 6 18H18C18.5523 18 19 18.4477 19 19C19 19.5523 18.5523 20 18 20H6C5.44772 20 5 19.5523 5 19Z" fill="currentColor"/>
</svg>
