<svg viewBox="0 0 24 24" fill="none" xmlns="http://www.w3.org/2000/svg">
<path fill-rule="evenodd" clip-rule="evenodd" d="M20 4C21.1 4 22 4.89 22 6V10C20.9 10 20 10.9 20 12C20 13.1 20.9 14 22 14V18C22 19.1 21.1 20 20 20H4C2.9 20 2 19.1 2 18V14C3.11 14 4 13.1 4 12C4 10.9 3.11 10 2.01 10V6C2.01 4.89 2.9 4 4 4H20ZM12 9C12.5523 9 13 8.55228 13 8C13 7.44772 12.5523 7 12 7C11.4477 7 11 7.44772 11 8C11 8.55228 11.4477 9 12 9ZM13 12C13 12.5523 12.5523 13 12 13C11.4477 13 11 12.5523 11 12C11 11.4477 11.4477 11 12 11C12.5523 11 13 11.4477 13 12ZM12 17C12.5523 17 13 16.5523 13 16C13 15.4477 12.5523 15 12 15C11.4477 15 11 15.4477 11 16C11 16.5523 11.4477 17 12 17Z" fill="currentColor"/>
</svg>
