<svg viewBox="0 0 24 24" fill="none" xmlns="http://www.w3.org/2000/svg">
<path d="M15 3L17.3 5.3L15.122 7.4629C14.7292 7.85302 14.7285 8.48852 15.12 8.88C15.5115 9.27148 16.147 9.27081 16.5371 8.87797L18.7 6.7L21 9V4C21 3.44772 20.5523 3 20 3H15ZM3 9L5.3 6.7L7.4629 8.87797C7.85302 9.27081 8.48852 9.27148 8.88 8.88C9.27148 8.48852 9.27081 7.85302 8.87797 7.4629L6.7 5.3L9 3H4C3.44772 3 3 3.44772 3 4V9ZM9 21L6.7 18.7L8.87797 16.5371C9.27081 16.147 9.27148 15.5115 8.88 15.12C8.48852 14.7285 7.85302 14.7292 7.4629 15.122L5.3 17.3L3 15V20C3 20.5523 3.44772 21 4 21H9ZM21 15L18.7 17.3L16.5371 15.122C16.147 14.7292 15.5115 14.7285 15.12 15.12C14.7285 15.5115 14.7292 16.147 15.122 16.5371L17.3 18.7L15 21H20C20.5523 21 21 20.5523 21 20V15Z" fill="currentColor"/>
</svg>
