<svg viewBox="0 0 64 64" fill="none" xmlns="http://www.w3.org/2000/svg">
<circle cx="32" cy="32" r="32" fill="#0A192B"/>
<path d="M17.0884 36.2523L18.3734 26.5671L7.20996 18.8108L17.4097 22.2669L19.8191 18.5697L28.6133 13.1041L48.0088 23.7941L49.0126 40.1104L40.379 52.1265L33.5525 53.1714L37.0863 46.7011V40.472L34.5162 35.6093L31.9061 33.8812L27.8904 38.0206V42.401L24.7583 45.3347L20.7828 45.817L19.0159 46.8217L16.1247 45.8974L14.9199 41.5571L17.0884 38.5029V36.2523Z" fill="white"/>
<path d="M34.9177 18.7301C32.7894 18.2881 30.4603 18.4086 30.4603 18.4086C30.4603 18.4086 29.6974 21.9451 24.959 22.8694C24.9991 22.8694 31.2234 24.9994 34.9177 18.7301Z" fill="#94A6C3"/>
<path d="M36.8454 50.8003C39.4154 48.7909 41.3429 46.018 42.2264 42.8833C42.2666 42.7627 42.628 42.5618 42.8689 42.401C43.2704 42.1599 43.672 41.959 43.7523 41.6375C43.9129 40.7131 43.9932 39.7486 43.9932 38.7841C43.9932 38.4225 43.6318 38.0608 43.2704 37.6991C42.9894 37.458 42.7083 37.1766 42.7083 36.9757C42.3067 33.3186 40.6202 29.9027 37.9297 27.411L37.6485 27.6923C40.2588 30.1438 41.9453 33.4794 42.3067 37.0159C42.3469 37.3374 42.6681 37.6589 42.9894 37.9804C43.2704 38.2215 43.5917 38.5832 43.5917 38.744C43.5917 39.6683 43.5114 40.5926 43.3508 41.5169C43.3106 41.6776 42.9492 41.8384 42.6681 41.9991C42.2666 42.2001 41.9051 42.401 41.8248 42.7225C40.8611 46.1386 38.6525 49.1124 35.7211 51.0414C36.2431 49.9162 37.8896 46.2591 38.773 44.4105L38.6123 38.4626L33.5125 33.5196L30.6212 33.9215L27.4489 39.0655C27.4489 39.0655 28.9346 40.9543 26.8465 43.1646C24.7985 45.3348 23.1923 45.8171 23.1923 45.8171L21.7065 45.0133C22.1482 44.4507 23.0317 43.6067 23.7143 43.044C24.8789 42.0795 26.0434 41.9991 26.0434 40.9543C26.0836 38.7841 23.7545 39.387 23.7545 39.387L22.9113 40.1907L22.5498 43.1646L20.783 45.375L20.5822 45.3348L17.6909 44.6918C17.6909 44.6918 19.4578 43.7675 19.7389 42.7225C20.0199 41.7178 19.1767 38.3823 19.1365 38.1813C19.1767 38.2215 19.9798 38.9047 20.3412 40.03C20.9837 38.2617 21.827 36.5738 22.0679 36.4131C22.3088 36.2523 25.5615 34.5243 25.5615 34.5243L24.4773 37.3776L25.2805 36.9355L27.208 32.1934C27.208 32.1934 29.0952 31.2691 30.5007 31.2691C33.0306 31.2289 36.7651 28.1344 35.0785 22.5885C35.5604 22.7894 43.9129 26.9689 45.3586 35.1673C46.4428 41.4767 42.8689 47.3844 36.8454 50.8003Z" fill="#94A6C3"/>
<path d="M27.2886 19.6144C28.2122 18.5294 27.8508 16.9219 27.8508 16.9219L25.1603 20.9004C25.1201 20.9004 26.1241 20.9406 27.2886 19.6144Z" fill="#050F18"/>
<path d="M18.2535 41.3563L18.5747 39.7488C18.5747 39.7488 17.2495 42.0796 17.1291 42.4011C17.0086 42.7628 17.2094 43.4058 17.7314 43.3656C18.2535 43.3254 18.896 42.5619 18.896 41.9993C18.896 41.2759 18.2535 41.3563 18.2535 41.3563Z" fill="#050F18"/>
<path d="M42.1059 15.7966C42.1059 15.7966 44.1137 15.877 46.2019 16.1181C41.5036 12.4208 37.0463 11.3358 33.4322 11.3358C28.4528 11.3358 25.0797 13.3853 24.8789 13.5059L26.445 11.0143C26.445 11.0143 20.1806 10.4115 17.972 17.0424C17.4098 15.6359 16.8878 13.5863 16.8878 13.5863C16.8878 13.5863 13.6352 16.4396 15.1611 21.1818C11.4266 19.8154 6.08578 17.9266 5.885 17.8864C5.60391 17.8462 5.52359 17.9668 5.52359 17.9668C5.52359 17.9668 5.44328 18.0874 5.68422 18.2883C6.12593 18.65 14.5588 24.879 16.406 26.0847C16.0043 27.5314 16.0043 28.2146 16.406 28.8978C16.9681 29.8222 17.0083 30.3044 16.928 30.9876C16.8477 31.6708 16.1248 37.5784 15.9642 38.3018C15.8036 39.0251 14.117 41.5971 14.1974 42.3607C14.2777 43.1243 15.3217 46.3795 16.2453 46.7412C16.928 46.9824 18.6146 47.5048 19.7389 47.5048C20.1404 47.5048 20.5018 47.4244 20.6625 47.2637C21.3452 46.6609 21.5459 46.5403 22.0278 46.5403C22.068 46.5403 22.1081 46.5403 22.1483 46.5403C22.349 46.5403 22.59 46.5805 22.8711 46.5805C23.5136 46.5805 24.3569 46.4599 24.9592 45.8973C25.8427 45.0132 27.3686 43.8075 27.8505 43.2448C28.4528 42.4813 28.774 41.4364 28.6134 40.3915C28.493 39.427 29.015 38.5831 29.6174 37.7391C30.3803 36.7344 31.7858 34.926 31.7858 34.926C34.5566 37.0158 36.2833 40.1906 36.2833 43.7271C36.2833 49.9964 30.822 55.06 24.0758 55.06C23.0318 55.06 22.0278 54.9395 21.0239 54.6984C24.1159 55.7834 26.7261 56.1451 28.8544 56.1451C33.392 56.1451 35.8014 54.4974 35.8014 54.4974C35.8014 54.4974 34.9581 55.5825 33.5928 56.8283C33.633 56.8283 33.633 56.8283 33.633 56.8283C41.1422 55.7834 44.7965 49.5945 44.7965 49.5945C44.7965 49.5945 44.5154 51.6039 44.1539 52.9703C54.1528 45.4552 52.4663 36.0513 52.4261 35.7298C52.5064 35.8503 53.5104 37.0559 54.0324 37.6989C55.6386 21.1416 42.1059 15.7966 42.1059 15.7966ZM26.7261 42.2401C26.5655 42.4411 25.8828 43.0439 25.401 43.486C24.919 43.9281 24.397 44.3702 23.9955 44.772C23.8349 44.9328 23.5136 45.0132 23.0318 45.0132C22.8711 45.0132 22.7104 45.0132 22.59 45.0132C22.5097 45.0132 22.4293 45.0132 22.349 45.0132C22.2687 45.0132 22.2286 45.0132 22.1884 45.0132C22.068 45.0132 21.9475 45.0132 21.827 45.0132C22.4293 44.2094 24.1962 42.3607 24.7986 41.9588C25.5214 41.4766 25.8828 40.9943 25.4411 40.1504C24.9994 39.3064 23.8349 39.5074 23.8349 39.5074C23.8349 39.5074 24.5175 39.2261 25.1199 39.2261C24.3569 39.0251 23.3932 39.2261 22.9515 39.6681C22.4695 40.1102 22.5498 41.6775 22.349 42.6822C22.1483 43.7271 21.4656 44.2496 20.4215 45.2141C19.8594 45.7365 19.4578 45.8973 19.1366 45.8973C18.4539 45.7767 17.6508 45.5758 17.0886 45.3749C16.6871 44.8524 16.0846 43.1243 15.924 42.4009C16.0445 41.999 16.5264 41.1551 16.7674 40.6728C17.2492 39.7485 17.5303 39.2261 17.6106 38.7438C17.7712 38.0606 18.2932 33.8409 18.4941 32.0727C19.0161 32.7559 19.7389 33.8811 19.5783 34.6045C20.7429 32.9568 19.8995 31.3493 19.498 30.7063C19.1366 30.0633 18.6547 28.7772 19.0563 27.4108C19.4578 26.0445 20.9035 22.2668 20.9035 22.2668C20.9035 22.2668 21.3853 23.1108 22.068 22.95C22.7506 22.7893 28.252 14.5106 28.252 14.5106C28.252 14.5106 29.7379 17.7658 28.1717 20.1369C26.5655 22.508 24.9994 22.95 24.9994 22.95C24.9994 22.95 27.208 23.3519 29.2559 21.865C30.0992 23.8342 30.9023 25.8837 30.9425 26.165C30.822 26.4463 29.2157 30.3044 29.0551 30.5456C28.9748 30.6259 28.4127 30.7867 28.0111 30.8671C27.3285 31.068 26.9268 31.1886 26.7662 31.3091C26.4851 31.5503 25.2002 35.0868 24.5978 36.8148C23.875 37.0158 23.1522 37.4176 22.6301 38.2214C22.9113 38.0204 23.7947 37.8999 24.4372 37.8195C24.9994 37.7793 26.7261 38.7036 27.1678 40.4317C27.1678 40.4719 27.1678 40.4719 27.1678 40.5121C27.2482 41.1551 27.0473 41.7579 26.7261 42.2401ZM22.9515 42.7224C23.3128 42.1999 23.2727 41.3158 23.3128 41.0345C23.353 40.7532 23.4333 40.2308 23.7545 40.1504C24.0758 40.07 24.8387 40.1906 24.8387 40.7532C24.8387 41.2756 24.2766 41.3962 23.875 41.7579C23.5939 42.0392 23.0318 42.642 22.9515 42.7224ZM38.9738 35.0466C39.3753 32.997 39.4155 31.2288 39.295 29.782C40.8611 31.8718 41.8248 34.4036 42.1059 37.0158C42.1461 37.3373 42.4674 37.6588 42.7886 37.9803C43.0697 38.2214 43.391 38.5429 43.391 38.7438C43.391 39.6681 43.3106 40.5924 43.15 41.5168C43.1099 41.6373 42.7485 41.8383 42.4674 41.999C42.0658 42.1999 41.7044 42.4009 41.6241 42.7224C40.7407 45.8169 38.8533 48.5497 36.3235 50.4787C40.0579 46.5805 41.865 40.1504 38.9738 35.0466ZM36.4439 50.8404C39.0541 48.831 41.0619 46.0179 41.9453 42.8429C41.9854 42.7224 42.3469 42.5214 42.5879 42.3607C42.9894 42.1598 43.391 41.9186 43.4713 41.5971C43.6319 40.6728 43.7122 39.7083 43.7122 38.7438C43.7122 38.3821 43.3508 38.0204 42.9894 37.6588C42.7886 37.4176 42.4674 37.1363 42.4674 36.9354C42.1461 34.0017 40.9816 31.2288 39.1745 28.938C38.3715 24.1155 35.1589 22.6285 35.0786 22.5883C35.1589 22.7089 37.247 25.723 35.8014 29.2595C34.3157 32.8363 30.5008 32.2736 30.1796 32.3138C29.8583 32.3138 28.6134 33.9213 27.0473 36.8952C26.8465 36.8148 26.0033 36.6139 25.0396 36.7746C25.7624 34.7653 26.8465 31.9119 27.0473 31.6708C27.1277 31.5904 27.73 31.4297 28.1316 31.3091C28.8945 31.1082 29.2559 30.9876 29.3765 30.8269C29.4568 30.7063 29.8583 29.782 30.2599 28.8174C30.6212 28.8174 31.5449 28.737 31.6252 28.6968C31.7055 28.6165 32.4684 26.6473 32.4684 26.4062C32.4684 26.2052 30.9023 22.307 30.3 20.8201C30.5811 20.4986 30.8622 20.0967 31.1433 19.6547C39.3753 20.5388 45.8003 27.5314 45.8003 36.0111C45.8003 42.5214 41.9854 48.188 36.4439 50.8404Z" fill="#0A192B"/>
<path d="M25.7631 29.139C26.5261 28.2549 26.1246 26.6072 24.7191 26.3259C25.0804 25.4819 25.6025 23.7941 25.6025 23.7941C25.6025 23.7941 21.5065 30.2241 21.1451 30.3446C20.7837 30.4652 20.4223 29.0586 20.4223 29.0586C19.6594 31.9923 21.7074 32.3942 21.9483 31.4699C23.0726 31.1886 25.0001 29.9829 25.7631 29.139Z" fill="#050F18"/>
<path d="M22.2686 30.7064L24.3567 27.1298C24.3567 27.1298 25.5613 27.7326 24.959 28.6971C24.196 29.8223 22.2686 30.7064 22.2686 30.7064Z" fill="#FFD923"/>
<path d="M48.0892 47.2638C47.4868 48.0676 46.8041 48.9115 46.001 49.7153C51.1812 39.7488 46.242 30.6261 46.0412 30.2644C46.4026 30.6261 46.764 31.028 47.0852 31.3896C51.0607 35.8103 51.5426 42.4413 48.0892 47.2638Z" fill="#D82122"/>
<path d="M52.9083 34.4437C51.1013 29.581 48.5313 25.4417 42.8692 21.7042C37.4079 18.0873 31.5452 18.3686 31.2239 18.4088C31.1838 18.4088 31.1436 18.4088 31.1436 18.4088C31.3444 18.3284 31.5452 18.2882 31.7459 18.248C32.9907 17.8461 34.597 17.5247 36.2033 17.3237C40.4598 16.7209 44.7566 18.1676 47.6879 21.2622C47.7281 21.3024 47.7281 21.3024 47.7682 21.3426C51.1013 24.8791 52.828 29.2997 52.9083 34.4437Z" fill="#D82122"/>
<path d="M41.5843 14.5509C35.6011 13.4257 31.746 13.9883 28.9753 15.0332C28.895 14.7117 28.6138 14.0687 28.3729 13.5462C27.5296 14.5509 26.6462 15.7565 26.084 16.5201C24.5581 17.565 23.9155 18.5697 23.9155 18.5697C24.799 15.5556 27.369 13.3051 30.5011 12.7425C31.3846 12.5817 32.3483 12.5013 33.3925 12.5013C36.1632 12.5415 38.934 13.2247 41.5843 14.5509Z" fill="#D82122"/>
<path d="M19.4576 22.2669C14.7593 22.1061 16.3254 16.6406 16.4058 16.3191C16.4058 16.3593 16.727 20.6192 19.4576 22.2669Z" fill="#D82122"/>
<path d="M24.0756 12.4209C20.4615 14.591 21.1843 19.7753 21.1843 19.7753C17.7309 14.5107 23.7946 12.5415 24.0756 12.4209Z" fill="#D82122"/>
<path d="M18.1329 23.7137C18.3738 23.9147 18.6147 24.2763 18.3337 24.7988C18.173 25.0801 17.9321 25.0399 17.5707 24.8792C17.0888 24.638 14.1975 22.9502 11.5874 21.222C14.5589 22.267 17.5707 23.3922 18.0526 23.6333C18.0526 23.6333 18.0927 23.6735 18.1329 23.7137Z" fill="white"/>
</svg>
