<svg viewBox="0 0 64 64" fill="none" xmlns="http://www.w3.org/2000/svg">
<path d="M32 64C49.6731 64 64 49.6731 64 32C64 14.3269 49.6731 0 32 0C14.3269 0 0 14.3269 0 32C0 49.6731 14.3269 64 32 64Z" fill="url(#paint0_linear_307_45)"/>
<path d="M32 64C49.6731 64 64 49.6731 64 32C64 14.3269 49.6731 0 32 0C14.3269 0 0 14.3269 0 32C0 49.6731 14.3269 64 32 64Z" fill="#BD55B9"/>
<path d="M46.8591 43.1499L35.3977 16.0821C34.7512 14.6827 33.7903 14 32.5236 14H31.5102C30.2435 14 29.2826 14.6827 28.6362 16.0821L23.648 27.8752H19.8741C18.7472 27.8837 17.8299 28.7712 17.8212 29.8805V29.9061C17.8299 31.0069 18.7472 31.9029 19.8741 31.9115H21.9008L17.1398 43.1499C17.0524 43.3973 17 43.6533 17 43.9179C17 44.5493 17.2009 45.0443 17.5591 45.4283C17.9173 45.8123 18.4327 46 19.0791 46C19.5072 45.9915 19.9178 45.8635 20.2585 45.616C20.6254 45.3685 20.8787 45.0101 21.0796 44.6005L26.3212 31.9029H29.9553C31.0822 31.8944 31.9995 31.0069 32.0082 29.8976V29.8464C31.9995 28.7456 31.0822 27.8496 29.9553 27.8411H28.0159L32.0169 18.1045L42.9193 44.592C43.1202 45.0016 43.3735 45.36 43.7404 45.6075C44.0811 45.8549 44.5005 45.9829 44.9198 45.9915C45.5662 45.9915 46.0729 45.8037 46.4398 45.4197C46.8067 45.0357 46.9989 44.5408 46.9989 43.9093C47.0076 43.6533 46.964 43.3888 46.8591 43.1499Z" fill="white"/>
<defs>
<linearGradient id="paint0_linear_307_45" x1="55.8587" y1="11.9247" x2="8.24274" y2="51.9887" gradientUnits="userSpaceOnUse">
<stop stop-color="#B6509E"/>
<stop offset="1" stop-color="#2EBAC6"/>
</linearGradient>
</defs>
</svg>
