<svg viewBox="0 0 64 64" fill="none" xmlns="http://www.w3.org/2000/svg">
<path d="M32 64C49.6731 64 64 49.6731 64 32C64 14.3269 49.6731 0 32 0C14.3269 0 0 14.3269 0 32C0 49.6731 14.3269 64 32 64Z" fill="#0033AD"/>
<path d="M22.2623 32.0692C22.2191 31.2843 22.4902 30.5144 23.0163 29.9279C23.5423 29.3414 24.2805 28.9861 25.0693 28.9398C25.1272 28.9398 25.1874 28.9398 25.2417 28.9398C25.8243 28.9402 26.3941 29.1104 26.8805 29.4294C27.367 29.7484 27.7489 30.2022 27.979 30.7347C28.209 31.2672 28.2772 31.8551 28.1751 32.4257C28.073 32.9964 27.8051 33.5247 27.4044 33.9456C27.0038 34.3664 26.4879 34.6612 25.9207 34.7936C25.3535 34.926 24.7596 34.8902 24.2126 34.6906C23.6656 34.491 23.1894 34.1364 22.8428 33.6705C22.4962 33.2046 22.2943 32.6479 22.2623 32.0692Z" fill="#FEFEFE"/>
<path d="M11.15 32.8325C10.9598 32.8431 10.7707 32.7974 10.6067 32.7011C10.4426 32.6048 10.3109 32.4623 10.2282 32.2916C10.1456 32.1209 10.1157 31.9297 10.1422 31.742C10.1688 31.5544 10.2508 31.3788 10.3776 31.2375C10.5045 31.0962 10.6707 30.9955 10.8551 30.9481C11.0395 30.9007 11.2339 30.9087 11.4137 30.9712C11.5936 31.0337 11.7507 31.1479 11.8653 31.2992C11.98 31.4505 12.0469 31.6323 12.0577 31.8215C12.065 31.9472 12.0474 32.0731 12.0057 32.192C11.964 32.3109 11.8991 32.4205 11.8148 32.5144C11.7305 32.6083 11.6283 32.6848 11.5142 32.7394C11.4002 32.7939 11.2764 32.8256 11.15 32.8325Z" fill="#FEFEFE"/>
<path d="M22.0736 49.28C22.2431 49.3659 22.3833 49.4997 22.4764 49.6647C22.5696 49.8297 22.6115 50.0184 22.597 50.2071C22.5824 50.3958 22.5121 50.5759 22.3947 50.7249C22.2774 50.8738 22.1184 50.9849 21.9377 51.044C21.757 51.1032 21.5627 51.1078 21.3794 51.0573C21.1961 51.0067 21.0319 50.9034 20.9076 50.7602C20.7833 50.617 20.7043 50.4403 20.6808 50.2526C20.6572 50.0648 20.69 49.8743 20.7752 49.7051C20.8323 49.5923 20.9112 49.4918 21.0074 49.4093C21.1036 49.3269 21.2152 49.2641 21.3358 49.2246C21.4564 49.1851 21.5836 49.1697 21.7102 49.1792C21.8369 49.1887 21.9603 49.223 22.0736 49.28Z" fill="#FEFEFE"/>
<path d="M25.0976 44.0346C25.3604 44.1664 25.5781 44.3728 25.723 44.6277C25.868 44.8825 25.9337 45.1744 25.9119 45.4664C25.8901 45.7585 25.7818 46.0375 25.6006 46.2683C25.4194 46.499 25.1735 46.6712 24.8939 46.7629C24.6144 46.8547 24.3138 46.862 24.0301 46.7838C23.7464 46.7056 23.4924 46.5455 23.3002 46.3238C23.108 46.102 22.9861 45.8285 22.9501 45.5379C22.9141 45.2473 22.9656 44.9526 23.0979 44.691C23.2757 44.3403 23.5862 44.0742 23.9612 43.9511C24.3361 43.828 24.7449 43.8581 25.0976 44.0346Z" fill="#FEFEFE"/>
<path d="M14.9225 40.4274C15.1254 40.2952 15.3632 40.2257 15.6058 40.2279C15.8484 40.2301 16.0849 40.3039 16.2853 40.4398C16.4858 40.5757 16.6413 40.7677 16.732 40.9915C16.8228 41.2153 16.8448 41.4608 16.7952 41.6971C16.7457 41.9333 16.6268 42.1497 16.4537 42.3187C16.2805 42.4877 16.0609 42.6019 15.8225 42.6467C15.5841 42.6916 15.3377 42.6651 15.1145 42.5706C14.8913 42.4761 14.7012 42.3179 14.5684 42.116C14.3903 41.8453 14.3276 41.5154 14.394 41.1988C14.4604 40.8821 14.6505 40.6047 14.9225 40.4274Z" fill="#FEFEFE"/>
<path d="M16.7348 33.3609C16.4406 33.3776 16.1481 33.3071 15.8941 33.1584C15.6402 33.0097 15.4363 32.7894 15.3082 32.5254C15.1801 32.2614 15.1336 31.9655 15.1746 31.6753C15.2156 31.385 15.3422 31.1133 15.5385 30.8946C15.7347 30.6759 15.9917 30.52 16.277 30.4467C16.5623 30.3733 16.8631 30.3857 17.1413 30.4824C17.4195 30.5791 17.6626 30.7557 17.8398 30.9899C18.0171 31.2241 18.1206 31.5053 18.1372 31.7979C18.1594 32.1902 18.0242 32.5751 17.7612 32.8682C17.4983 33.1612 17.1291 33.3385 16.7348 33.3609Z" fill="#FEFEFE"/>
<path d="M15.0903 23.4127C14.8736 23.3042 14.6942 23.1342 14.5747 22.9241C14.4552 22.7141 14.4009 22.4736 14.4189 22.2329C14.4368 21.9922 14.5261 21.7622 14.6755 21.5721C14.8248 21.3819 15.0275 21.24 15.2579 21.1644C15.4883 21.0889 15.7361 21.083 15.9698 21.1475C16.2036 21.212 16.4129 21.344 16.5712 21.5269C16.7296 21.7097 16.8298 21.9352 16.8593 22.1747C16.8888 22.4143 16.8463 22.6571 16.737 22.8726C16.6647 23.0158 16.5648 23.1434 16.4428 23.2481C16.3209 23.3528 16.1793 23.4325 16.0264 23.4827C15.8734 23.5329 15.712 23.5525 15.5513 23.5405C15.3907 23.5285 15.234 23.4851 15.0903 23.4127Z" fill="#FEFEFE"/>
<path d="M20.8736 36.4268C21.1633 36.2378 21.5028 36.1385 21.8493 36.1415C22.1957 36.1445 22.5335 36.2495 22.8199 36.4435C23.1063 36.6374 23.3285 36.9114 23.4583 37.2309C23.5881 37.5504 23.6198 37.9011 23.5493 38.2385C23.4789 38.5759 23.3094 38.885 23.0623 39.1266C22.8153 39.3682 22.5018 39.5316 22.1614 39.5959C21.8211 39.6603 21.4692 39.6228 21.1502 39.4882C20.8313 39.3537 20.5596 39.128 20.3696 38.8399C20.2432 38.6486 20.156 38.4344 20.1129 38.2095C20.0699 37.9846 20.0718 37.7535 20.1186 37.5294C20.1655 37.3053 20.2562 37.0925 20.3858 36.9033C20.5153 36.7141 20.6811 36.5522 20.8736 36.4268Z" fill="#FEFEFE"/>
<path d="M39.226 44.152C39.4724 43.9912 39.7611 43.9066 40.0558 43.9091C40.3505 43.9115 40.6378 44.0008 40.8814 44.1657C41.125 44.3306 41.314 44.5637 41.4244 44.8354C41.5349 45.1072 41.5619 45.4054 41.5019 45.6924C41.442 45.9794 41.2978 46.2422 41.0877 46.4477C40.8775 46.6532 40.6109 46.7921 40.3214 46.8468C40.0319 46.9015 39.7326 46.8695 39.4613 46.755C39.1901 46.6405 38.9591 46.4485 38.7975 46.2034C38.6902 46.0407 38.6161 45.8586 38.5795 45.6675C38.5429 45.4763 38.5446 45.2799 38.5844 45.0893C38.6241 44.8988 38.7013 44.718 38.8114 44.5571C38.9215 44.3963 39.0624 44.2586 39.226 44.152Z" fill="#FEFEFE"/>
<path d="M42.2809 49.381C42.4403 49.2772 42.6269 49.2228 42.8174 49.2245C43.0078 49.2263 43.1934 49.2842 43.3508 49.3908C43.5081 49.4975 43.6302 49.6481 43.7015 49.8238C43.7729 49.9994 43.7903 50.1921 43.7515 50.3776C43.7128 50.5631 43.6196 50.733 43.4839 50.8658C43.3481 50.9986 43.1758 51.0885 42.9888 51.1239C42.8017 51.1594 42.6083 51.1389 42.4329 51.0651C42.2576 50.9912 42.1082 50.8673 42.0036 50.709C41.934 50.6037 41.886 50.4858 41.8622 50.3621C41.8385 50.2383 41.8396 50.1111 41.8654 49.9878C41.8911 49.8644 41.9411 49.7473 42.0124 49.6432C42.0837 49.5391 42.175 49.45 42.2809 49.381Z" fill="#FEFEFE"/>
<path d="M39.4601 34.8978C39.0693 34.9199 38.678 34.8653 38.3084 34.7369C37.9389 34.6086 37.5983 34.4091 37.3063 34.1499C37.0142 33.8907 36.7763 33.5767 36.6062 33.2261C36.4361 32.8754 36.3371 32.4948 36.3149 32.106C36.2926 31.7173 36.3476 31.328 36.4766 30.9604C36.6056 30.5927 36.8061 30.254 37.0667 29.9635C37.3273 29.6729 37.6429 29.4363 37.9954 29.2671C38.3479 29.0979 38.7305 28.9994 39.1213 28.9773C39.1792 28.9773 39.2394 28.9773 39.2925 28.9773C40.0685 28.9773 40.8138 29.2783 41.3702 29.8164C41.9265 30.3545 42.25 31.0872 42.2718 31.8588C42.2936 32.6304 42.0121 33.3801 41.487 33.9484C40.962 34.5168 40.2348 34.8591 39.4601 34.9025V34.8978Z" fill="#FEFEFE"/>
<path d="M26.0777 36.6323C26.3253 36.1412 26.7057 35.7287 27.1762 35.4412C27.6467 35.1536 28.1886 35.0025 28.7408 35.0048C29.2496 35.0049 29.75 35.1346 30.1942 35.3815C30.6384 35.6285 31.0117 35.9845 31.2784 36.4156C31.5452 36.8467 31.6965 37.3385 31.718 37.8443C31.7396 38.3501 31.6306 38.8529 31.4014 39.3049C31.0456 40.0071 30.424 40.54 29.6732 40.7864C28.9224 41.0327 28.104 40.9722 27.398 40.6183C26.6921 40.2643 26.1564 39.6459 25.9088 38.899C25.6612 38.1522 25.7219 37.3381 26.0777 36.6358V36.6323Z" fill="#FEFEFE"/>
<path d="M49.4405 40.431C49.6564 40.5403 49.835 40.7108 49.9536 40.9209C50.0722 41.1311 50.1256 41.3714 50.107 41.6117C50.0885 41.852 49.9988 42.0814 49.8493 42.2711C49.6998 42.4607 49.4972 42.6021 49.267 42.6773C49.0368 42.7525 48.7894 42.7583 48.556 42.6938C48.3226 42.6293 48.1136 42.4975 47.9554 42.315C47.7972 42.1325 47.6968 41.9074 47.667 41.6683C47.6372 41.4291 47.6793 41.1865 47.788 40.9711C47.8606 40.8275 47.961 40.6995 48.0834 40.5946C48.2059 40.4897 48.3479 40.4098 48.5015 40.3596C48.655 40.3094 48.817 40.2899 48.9782 40.3022C49.1393 40.3144 49.2964 40.3582 49.4405 40.431Z" fill="#FEFEFE"/>
<path d="M41.8857 39.4869C41.5764 39.3317 41.3203 39.0888 41.1498 38.7889C40.9793 38.489 40.902 38.1455 40.9277 37.8019C40.9534 37.4582 41.0809 37.1299 41.2941 36.8584C41.5073 36.5868 41.7967 36.3842 42.1257 36.2763C42.4546 36.1683 42.8083 36.1597 43.1422 36.2517C43.476 36.3437 43.7749 36.532 44.0011 36.793C44.2274 37.0539 44.3708 37.3757 44.4132 37.7177C44.4556 38.0597 44.3951 38.4065 44.2395 38.7143C44.03 39.127 43.6645 39.4401 43.2232 39.585C42.7819 39.7298 42.3009 39.6946 41.8857 39.4869Z" fill="#FEFEFE"/>
<path d="M32.1531 49.8284C32.395 49.815 32.6356 49.8731 32.8444 49.9955C33.0531 50.1179 33.2208 50.2991 33.3261 50.5162C33.4315 50.7333 33.4698 50.9766 33.4363 51.2153C33.4028 51.4541 33.2989 51.6776 33.1378 51.8577C32.9767 52.0378 32.7656 52.1663 32.5311 52.2271C32.2965 52.288 32.0492 52.2783 31.8202 52.1994C31.5912 52.1205 31.3908 51.9759 31.2444 51.7838C31.098 51.5917 31.012 51.3607 30.9974 51.1201C30.9875 50.9597 31.0096 50.7989 31.0624 50.647C31.1152 50.4952 31.1977 50.3552 31.3051 50.2351C31.4125 50.1151 31.5427 50.0173 31.6883 49.9475C31.8338 49.8777 31.9917 49.8373 32.1531 49.8284Z" fill="#FEFEFE"/>
<path d="M32.1388 42.1522C32.4846 42.1333 32.8283 42.2167 33.1265 42.392C33.4246 42.5673 33.6638 42.8266 33.8139 43.1371C33.964 43.4476 34.0181 43.7954 33.9696 44.1365C33.921 44.4776 33.7719 44.7968 33.5411 45.0536C33.3103 45.3104 33.0081 45.4935 32.6727 45.5795C32.3374 45.6656 31.9839 45.6508 31.657 45.5371C31.3301 45.4234 31.0444 45.2159 30.836 44.9407C30.6276 44.6655 30.5059 44.3351 30.4862 43.9911C30.4731 43.7624 30.5055 43.5333 30.5816 43.3171C30.6576 43.1008 30.7757 42.9016 30.9292 42.7308C31.0827 42.56 31.2685 42.421 31.4761 42.3217C31.6837 42.2224 31.9089 42.1648 32.1388 42.1522Z" fill="#FEFEFE"/>
<path d="M22.6452 24.3567C22.9546 24.5118 23.2109 24.7546 23.3816 25.0545C23.5523 25.3544 23.6297 25.6979 23.6042 26.0416C23.5786 26.3853 23.4512 26.7138 23.238 26.9854C23.0248 27.2571 22.7354 27.4597 22.4064 27.5678C22.0774 27.6758 21.7236 27.6844 21.3897 27.5924C21.0558 27.5005 20.7569 27.3121 20.5306 27.0511C20.3044 26.7901 20.161 26.4682 20.1186 26.1261C20.0763 25.7841 20.1368 25.4372 20.2926 25.1294C20.5018 24.7168 20.8671 24.4037 21.3082 24.2588C21.7493 24.1139 22.2302 24.1492 22.6452 24.3567Z" fill="#FEFEFE"/>
<path d="M33.2687 39.609C32.9061 39.0578 32.7385 38.402 32.7927 37.7454C32.8468 37.0887 33.1195 36.4688 33.5676 35.9837C34.0157 35.4986 34.6136 35.176 35.2667 35.0669C35.9199 34.9578 36.5909 35.0684 37.1737 35.3813C37.7565 35.6942 38.2178 36.1915 38.4846 36.7946C38.7513 37.3976 38.8083 38.0718 38.6466 38.7107C38.4848 39.3496 38.1136 39.9165 37.5915 40.3219C37.0694 40.7273 36.4264 40.9479 35.7641 40.9489C35.2691 40.9489 34.7818 40.8265 34.3462 40.5926C33.9106 40.3588 33.5403 40.0207 33.2687 39.609Z" fill="#FEFEFE"/>
<path d="M38.4536 27.2111C38.1883 27.7352 37.7727 28.1693 37.2594 28.4584C36.7461 28.7475 36.1582 28.8786 35.5699 28.8353C34.9817 28.7919 34.4196 28.5759 33.9548 28.2147C33.4899 27.8535 33.1432 27.3633 32.9585 26.806C32.7738 26.2487 32.7594 25.6495 32.9172 25.0841C33.0749 24.5187 33.3977 24.0125 33.8446 23.6296C34.2916 23.2467 34.8427 23.0043 35.4282 22.9331C36.0137 22.8618 36.6073 22.9649 37.1338 23.2293C37.4848 23.4029 37.7977 23.644 38.0544 23.9387C38.3111 24.2334 38.5064 24.5759 38.6292 24.9462C38.7519 25.3165 38.7996 25.7074 38.7694 26.0962C38.7393 26.4849 38.6319 26.8639 38.4536 27.2111Z" fill="#FEFEFE"/>
<path d="M43.6562 27.4168C43.3665 27.6058 43.027 27.705 42.6805 27.7021C42.3341 27.6991 41.9963 27.594 41.7099 27.4001C41.4235 27.2062 41.2014 26.9322 41.0715 26.6126C40.9417 26.2931 40.91 25.9425 40.9805 25.6051C41.051 25.2676 41.2204 24.9586 41.4675 24.717C41.7145 24.4753 42.0281 24.312 42.3684 24.2477C42.7088 24.1833 43.0607 24.2208 43.3796 24.3553C43.6985 24.4899 43.9702 24.7155 44.1603 25.0037C44.2865 25.1951 44.3735 25.4093 44.4165 25.6341C44.4595 25.8589 44.4575 26.09 44.4107 26.3141C44.3639 26.5382 44.2732 26.7509 44.1437 26.9401C44.0143 27.1293 43.8486 27.2913 43.6562 27.4168Z" fill="#FEFEFE"/>
<path d="M49.3676 31.8718C49.3844 32.1645 49.3136 32.4555 49.1641 32.7081C49.0146 32.9607 48.7931 33.1636 48.5277 33.291C48.2623 33.4184 47.9649 33.4646 47.6731 33.4238C47.3813 33.3831 47.1082 33.2571 46.8883 33.0619C46.6685 32.8667 46.5118 32.611 46.438 32.3272C46.3643 32.0434 46.3768 31.7442 46.474 31.4675C46.5712 31.1908 46.7488 30.9489 46.9841 30.7726C47.2195 30.5962 47.5022 30.4933 47.7964 30.4768C48.1907 30.4547 48.5777 30.5892 48.8723 30.8508C49.1669 31.1123 49.3451 31.4796 49.3676 31.8718Z" fill="#FEFEFE"/>
<path d="M53.4898 32.9253C53.2996 32.9359 53.1106 32.8901 52.9465 32.7939C52.7824 32.6976 52.6508 32.5551 52.5681 32.3844C52.4854 32.2137 52.4555 32.0224 52.4821 31.8348C52.5087 31.6472 52.5906 31.4716 52.7175 31.3303C52.8444 31.189 53.0105 31.0883 53.1949 31.0409C53.3794 30.9935 53.5738 31.0015 53.7536 31.064C53.9334 31.1265 54.0906 31.2407 54.2052 31.392C54.3198 31.5433 54.3867 31.7251 54.3975 31.9142C54.4117 32.168 54.3241 32.417 54.1539 32.6065C53.9837 32.7961 53.7449 32.9107 53.4898 32.9253Z" fill="#FEFEFE"/>
<path d="M49.608 23.4173C49.4051 23.5494 49.1673 23.6187 48.9248 23.6164C48.6823 23.6141 48.4459 23.5404 48.2455 23.4044C48.0451 23.2685 47.8897 23.0766 47.799 22.8528C47.7083 22.6291 47.6863 22.3836 47.7358 22.1474C47.7853 21.9112 47.9041 21.695 48.0771 21.5259C48.2501 21.3569 48.4697 21.2427 48.708 21.1977C48.9463 21.1528 49.1926 21.1791 49.4158 21.2734C49.6391 21.3678 49.8292 21.5258 49.9621 21.7275C50.0505 21.8616 50.1114 22.0117 50.1414 22.1692C50.1714 22.3267 50.17 22.4885 50.1371 22.6454C50.1042 22.8023 50.0405 22.9513 49.9497 23.0837C49.859 23.2162 49.7428 23.3295 49.608 23.4173Z" fill="#FEFEFE"/>
<path d="M22.2499 14.4625C22.0907 14.5666 21.904 14.6213 21.7135 14.6198C21.523 14.6184 21.3372 14.5607 21.1796 14.4542C21.0221 14.3477 20.8998 14.1971 20.8283 14.0214C20.7567 13.8458 20.7392 13.653 20.7778 13.4674C20.8165 13.2818 20.9095 13.1118 21.0453 12.9788C21.1811 12.8459 21.3534 12.756 21.5405 12.7205C21.7277 12.685 21.9212 12.7054 22.0966 12.7793C22.2721 12.8532 22.4215 12.9772 22.5261 13.1356C22.666 13.3481 22.7155 13.6071 22.6638 13.8559C22.612 14.1046 22.4631 14.3228 22.2499 14.4625Z" fill="#FEFEFE"/>
<path d="M42.4558 14.5634C42.2863 14.4775 42.1462 14.3437 42.053 14.1787C41.9599 14.0137 41.918 13.825 41.9325 13.6363C41.947 13.4476 42.0174 13.2674 42.1348 13.1185C42.2521 12.9696 42.4111 12.8585 42.5918 12.7994C42.7725 12.7402 42.9667 12.7356 43.1501 12.7861C43.3334 12.8366 43.4975 12.94 43.6219 13.0832C43.7462 13.2264 43.8251 13.4031 43.8487 13.5908C43.8723 13.7786 43.8394 13.9691 43.7543 14.1383C43.6974 14.2514 43.6187 14.3521 43.5225 14.4347C43.4263 14.5173 43.3147 14.5802 43.194 14.6197C43.0733 14.6592 42.946 14.6746 42.8193 14.6649C42.6926 14.6553 42.5691 14.6208 42.4558 14.5634Z" fill="#FEFEFE"/>
<path d="M31.2626 24.2358C31.6261 24.7876 31.7942 25.4443 31.7403 26.1019C31.6864 26.7595 31.4136 27.3804 30.965 27.8663C30.5164 28.3523 29.9177 28.6755 29.2637 28.7849C28.6096 28.8943 27.9376 28.7835 27.354 28.4701C26.7703 28.1568 26.3084 27.6587 26.0414 27.0548C25.7743 26.4509 25.7174 25.7756 25.8796 25.1359C26.0418 24.4962 26.4138 23.9285 26.9368 23.5228C27.4598 23.1171 28.1039 22.8965 28.7672 22.896C29.2625 22.894 29.7505 23.0156 30.1865 23.2496C30.6224 23.4837 30.9924 23.8228 31.2626 24.2358Z" fill="#FEFEFE"/>
<path d="M25.3046 19.6914C25.0582 19.8522 24.7695 19.9367 24.4748 19.9343C24.1802 19.9318 23.8929 19.8425 23.6492 19.6776C23.4056 19.5127 23.2166 19.2797 23.1062 19.0079C22.9957 18.7362 22.9688 18.438 23.0287 18.151C23.0887 17.864 23.2328 17.6011 23.443 17.3956C23.6531 17.1901 23.9198 17.0513 24.2093 16.9966C24.4987 16.9419 24.798 16.9738 25.0693 17.0883C25.3405 17.2029 25.5715 17.3948 25.7331 17.64C25.9496 17.9685 26.0261 18.3692 25.9458 18.7539C25.8654 19.1386 25.6348 19.4758 25.3046 19.6914Z" fill="#FEFEFE"/>
<path d="M32.2508 14.0162C32.0088 14.0299 31.7682 13.972 31.5592 13.8498C31.3503 13.7275 31.1825 13.5464 31.0769 13.3293C30.9714 13.1123 30.9329 12.869 30.9663 12.6301C30.9997 12.3913 31.1034 12.1677 31.2645 11.9875C31.4255 11.8073 31.6367 11.6786 31.8712 11.6177C32.1057 11.5568 32.3531 11.5663 32.5822 11.6452C32.8112 11.7241 33.0117 11.8687 33.1582 12.0608C33.3047 12.2529 33.3907 12.4839 33.4053 12.7245C33.415 12.8848 33.3929 13.0454 33.3401 13.1972C33.2873 13.3489 33.2049 13.4888 33.0976 13.6088C32.9904 13.7288 32.8604 13.8266 32.7151 13.8965C32.5697 13.9664 32.412 14.0071 32.2508 14.0162Z" fill="#FEFEFE"/>
<path d="M32.2645 21.6923C31.9188 21.7112 31.5751 21.6278 31.277 21.4526C30.9789 21.2773 30.7397 21.0181 30.5896 20.7077C30.4395 20.3972 30.3853 20.0495 30.4338 19.7085C30.4822 19.3674 30.6312 19.0482 30.8619 18.7914C31.0926 18.5345 31.3947 18.3514 31.73 18.2652C32.0652 18.179 32.4186 18.1936 32.7456 18.3071C33.0725 18.4207 33.3583 18.628 33.5668 18.903C33.7753 19.1781 33.8972 19.5084 33.9171 19.8523C33.9302 20.0811 33.8978 20.3102 33.8218 20.5265C33.7458 20.7428 33.6277 20.9421 33.4742 21.113C33.3207 21.2839 33.1349 21.4231 32.9273 21.5224C32.7198 21.6218 32.4945 21.6796 32.2645 21.6923Z" fill="#FEFEFE"/>
<path d="M39.4317 19.8101C39.1694 19.6774 38.9524 19.4704 38.8082 19.2152C38.664 18.96 38.5991 18.668 38.6215 18.3761C38.644 18.0842 38.7528 17.8055 38.9344 17.5751C39.1159 17.3446 39.362 17.1729 39.6416 17.0814C39.9211 16.99 40.2216 16.983 40.5052 17.0612C40.7888 17.1395 41.0427 17.2996 41.2349 17.5213C41.4271 17.743 41.5491 18.0163 41.5853 18.3068C41.6215 18.5974 41.5704 18.892 41.4384 19.1537C41.3504 19.3282 41.2285 19.4838 41.0799 19.6113C40.9312 19.7389 40.7587 19.8359 40.5722 19.8969C40.3857 19.9579 40.189 19.9816 39.9932 19.9668C39.7975 19.9519 39.6067 19.8986 39.4317 19.8101Z" fill="#FEFEFE"/>
</svg>
