<svg viewBox="0 0 64 64" fill="none" xmlns="http://www.w3.org/2000/svg">
<circle cx="32" cy="32" r="32" fill="white"/>
<path d="M55.6382 24.9424L53.7294 26.5122C53.7294 26.5122 53.2051 25.7004 52.506 24.6975C52.309 23.7292 51.8581 22.701 51.0577 21.6343C46.7623 15.9087 40.6138 18.3241 37.6173 20.3526L36.6753 18.2367C36.4449 16.1502 35.714 13.4534 33.5608 12.2839C29.8067 10.2487 25.0995 11.2018 23.8274 13.3034C22.5553 15.4051 21.4097 17.375 23.0631 24.6278C23.0631 24.6278 16.9559 21.211 14.0914 22.0281C13.5981 22.1644 13.1238 22.3616 12.6792 22.615C12.969 22.2792 13.3562 21.8976 13.7101 21.7645C14.3882 21.5108 17.1878 21.2136 20.0721 22.1461C20.0721 22.1461 20.4814 10.8976 28.8594 10.2705C36.7825 9.67685 39.1588 17.1837 39.1588 17.1837C39.1588 17.1837 43.6552 15.3608 47.896 17.5236C52.1369 19.6864 54.2161 22.652 55.6382 24.9424Z" fill="#EDDCE0"/>
<path d="M19.1813 38.8144C18.9271 39.2446 18.6955 39.6877 18.4875 40.1421C17.5082 39.9131 14.4464 39.1112 12.4389 37.6661C10.0212 35.928 8.87642 33.7221 8.9609 33.4252C9.00663 33.263 9.62824 33.0105 10.1802 32.8162C10.5327 34.3769 11.2289 35.8432 12.5027 36.7757C16.0319 39.3597 19.1231 38.824 19.1813 38.8144Z" fill="#EDDCE0"/>
<path d="M52.5063 24.6969C51.5227 23.2833 50.1868 21.4866 49.4667 21.0398C48.2363 20.2769 37.7176 20.5737 37.7176 20.5737L37.6177 20.3506C40.6142 18.3235 46.7627 15.9082 51.058 21.6323C51.8585 22.7004 52.3094 23.7287 52.5063 24.6969Z" fill="#EDDCE0"/>
<path d="M50.2292 47.7832C44.753 53.632 35.342 44.5383 35.342 44.5383C33.9421 49.3105 29.1084 53.1269 25.9264 53.3824C22.7443 53.6379 18.8012 51.6638 17.465 47.7195C16.5565 45.0379 17.6774 41.8858 18.4875 40.1419C18.6955 39.6875 18.9271 39.2444 19.1813 38.8142C19.123 38.8238 16.0319 39.3595 12.5026 36.7752C11.2291 35.843 10.5326 34.3764 10.1802 32.8157C9.5478 30.0091 10.029 26.9042 10.2746 26.0869C10.5839 25.0575 11.0168 23.5745 12.6803 22.6104C13.125 22.3579 13.5994 22.1617 14.0925 22.0263C16.9559 21.2107 23.0642 24.6261 23.0642 24.6261C21.4105 17.373 22.555 15.4007 23.8285 13.3016C25.102 11.2026 29.8078 10.2481 33.5619 12.2821C35.7175 13.4517 36.4457 16.1484 36.6764 18.2349C36.8471 19.786 36.7431 20.9987 36.7431 20.9987C36.9913 20.7948 37.2855 20.574 37.6184 20.3508C40.6149 18.3238 46.7634 15.9084 51.0588 21.6325C51.8592 22.6992 52.3113 23.7275 52.5071 24.6957C53.4838 29.502 48.201 32.8949 48.201 32.8949C50.2403 34.4859 55.8286 41.8025 50.2292 47.7832Z" fill="#E38297"/>
<path d="M36.7865 32.7045C36.7858 33.8798 36.4582 35.0316 35.8404 36.0313C35.7807 36.1272 35.7198 36.2216 35.6546 36.3145C34.5337 37.9335 32.6834 38.9905 30.5937 38.8976C30.2124 38.8814 29.8334 38.8304 29.4615 38.745C29.3493 38.7185 29.2383 38.6894 29.13 38.6576C26.5844 37.9169 24.8556 35.5763 24.6768 32.7045C24.6712 32.6215 24.6672 32.5394 24.6657 32.4575C24.6612 32.2232 24.6699 31.9888 24.6919 31.7555C24.964 28.9754 27.1932 26.7975 30.0225 26.5379C30.153 26.5254 30.2846 26.5173 30.4166 26.5143C30.4749 26.5143 30.5346 26.5117 30.5928 26.5117C31.6701 26.5114 32.7287 26.7922 33.6642 27.3265C34.5996 27.8608 35.3793 28.63 35.9263 29.558C36.0433 29.7541 36.1484 29.957 36.2412 30.1657C36.6015 30.9635 36.7874 31.8291 36.7865 32.7045Z" fill="#FCECA8"/>
<path d="M48.1514 23.7132C48.1514 23.7132 43.995 23.4581 41.6629 25.0701C39.572 26.5143 37.8575 28.0598 36.2411 30.1656C36.1484 29.9569 36.0432 29.754 35.9263 29.5579C36.6559 28.5512 38.9466 25.5987 41.7046 24.0945C44.9717 22.3136 48.1514 23.7132 48.1514 23.7132Z" fill="#CB6A7F"/>
<path d="M30.4161 26.5143C30.283 26.5173 30.1525 26.5254 30.022 26.5379C30.022 25.8319 29.9818 23.5441 29.5102 20.277C28.9567 16.4509 28.3864 14.8762 28.3477 14.7693C28.4184 14.8791 29.5475 16.6839 29.9984 19.6833C30.3077 21.7422 30.394 24.7372 30.4161 26.5143Z" fill="#CB6A7F"/>
<path d="M24.6902 31.7556C24.6682 31.9889 24.6595 32.2233 24.664 32.4576C22.6314 31.3728 18.876 30.3114 17.0197 30.2712C14.8557 30.224 13.2655 31.6225 13.2655 31.6225C13.2655 31.6225 13.0753 31.1147 13.4249 30.6694C13.7744 30.224 15.1117 29.5872 17.498 29.4596C19.5655 29.3501 23.6427 31.2493 24.6902 31.7556Z" fill="#CB6A7F"/>
<path d="M29.4596 38.7463C28.5441 40.8369 25.9429 44.7507 24.9717 46.1614C23.9216 47.6889 21.9819 47.6889 21.9819 47.6889C21.9819 47.6889 23.2222 46.5444 24.3996 45.5581C25.4005 44.7177 28.2846 40.0405 29.1281 38.6589C29.2365 38.6881 29.3475 38.7172 29.4596 38.7463Z" fill="#CB6A7F"/>
<path d="M48.1512 44.2516C47.8543 44.2196 44.7274 41.5476 41.7361 39.5112C39.379 37.9073 36.6878 36.7378 35.6528 36.3134C35.7181 36.2205 35.779 36.1261 35.8387 36.0303C37.3243 36.5354 39.6837 37.5106 41.5771 38.6842C44.0906 40.2423 47.7492 42.692 48.0029 43.2333C48.2566 43.7745 48.1512 44.2516 48.1512 44.2516Z" fill="#CB6A7F"/>
<path d="M31.9991 1.59985C48.7491 1.59985 62.3991 15.2499 62.3991 31.9999C62.3991 48.7499 48.7491 62.3999 31.9991 62.3999C15.2491 62.3999 1.59912 48.7499 1.59912 31.9999C1.59912 15.2499 15.2491 1.59985 31.9991 1.59985ZM31.9991 0.0998535C14.3991 0.0998535 0.0991211 14.3999 0.0991211 31.9999C0.0991211 49.5999 14.3491 63.8999 31.9991 63.8999C49.6491 63.8999 63.8991 49.6499 63.8991 31.9999C63.8991 14.3499 49.5991 0.0998535 31.9991 0.0998535Z" fill="#D2D8E2"/>
</svg>
