<svg viewBox="0 0 64 64" fill="none" xmlns="http://www.w3.org/2000/svg">
<path fill-rule="evenodd" clip-rule="evenodd" d="M31.9999 0C49.673 0 64 14.3268 64 31.9999C64 49.673 49.673 64 31.9999 64C14.3268 64 0 49.673 0 31.9999C0 14.3268 14.3268 0 31.9999 0Z" fill="#2E3148"/>
<path fill-rule="evenodd" clip-rule="evenodd" d="M31.9385 13.5383C42.1346 13.5383 50.4 21.8039 50.4 31.9998C50.4 42.1958 42.1346 50.4614 31.9385 50.4614C21.7425 50.4614 13.4771 42.1958 13.4771 31.9998C13.4771 21.8039 21.7425 13.5383 31.9385 13.5383Z" fill="#161931"/>
<path fill-rule="evenodd" clip-rule="evenodd" d="M32.3773 8.27484C32.1578 8.07479 32.0446 8.071 32.0256 8.071C32.0065 8.071 31.8933 8.07479 31.6738 8.27484C31.4485 8.4802 31.1792 8.83451 30.8891 9.38122C30.3099 10.4724 29.7556 12.1218 29.2778 14.2499C28.3262 18.4891 27.7283 24.3972 27.7283 30.9593C27.7283 37.5213 28.3262 43.4294 29.2778 47.6685C29.7556 49.7968 30.3099 51.4461 30.8891 52.5373C31.1792 53.084 31.4485 53.4383 31.6738 53.6436C31.8933 53.8437 32.0065 53.8475 32.0256 53.8475C32.0446 53.8475 32.1578 53.8437 32.3773 53.6436C32.6026 53.4383 32.8719 53.084 33.1621 52.5373C33.7412 51.4461 34.2955 49.7968 34.7733 47.6685C35.725 43.4294 36.3229 37.5213 36.3229 30.9593C36.3229 24.3972 35.725 18.4891 34.7733 14.2499C34.2955 12.1218 33.7412 10.4724 33.1621 9.38122C32.8719 8.83451 32.6026 8.4802 32.3773 8.27484ZM37.4042 30.9593C37.4042 17.7269 34.9961 7 32.0256 7C29.055 7 26.647 17.7269 26.647 30.9593C26.647 44.1916 29.055 54.9185 32.0256 54.9185C34.9961 54.9185 37.4042 44.1916 37.4042 30.9593Z" fill="#DADCEF"/>
<path fill-rule="evenodd" clip-rule="evenodd" d="M51.8379 19.8866C51.9026 19.5977 51.8497 19.4989 51.8405 19.483C51.8313 19.467 51.772 19.3716 51.4893 19.2831C51.199 19.1924 50.7577 19.1385 50.1391 19.1631C48.9043 19.2124 47.1974 19.5629 45.1128 20.2193C40.9607 21.5268 35.5353 23.9752 29.8389 27.2655C24.1425 30.5558 19.3104 34.0323 16.1026 36.9761C14.4921 38.4539 13.3354 39.7575 12.6754 40.8026C12.3448 41.3262 12.1709 41.7353 12.1044 42.0318C12.0396 42.3206 12.0925 42.4194 12.1018 42.4353C12.1109 42.4513 12.1703 42.5468 12.453 42.6353C12.7432 42.726 13.1845 42.7799 13.8032 42.7552C15.0379 42.7059 16.7449 42.3555 18.8294 41.699C22.9815 40.3916 28.407 37.9432 34.1034 34.6529C39.7998 31.3625 44.6319 27.886 47.8397 24.9423C49.4502 23.4644 50.6069 22.1608 51.2668 21.1158C51.5975 20.5922 51.7714 20.183 51.8379 19.8866ZM11.1728 42.9726C12.6465 45.5264 23.153 42.218 34.6395 35.5831C46.1261 28.9483 54.2432 21.4995 52.7695 18.9458C51.2958 16.392 40.7893 19.7004 29.3027 26.3352C17.8161 32.9701 9.69906 40.4189 11.1728 42.9726Z" fill="#DADCEF"/>
<path fill-rule="evenodd" clip-rule="evenodd" d="M52.7695 42.9726C54.2432 40.4189 46.1261 32.9701 34.6395 26.3352C23.153 19.7004 12.6465 16.392 11.1728 18.9458C9.69906 21.4995 17.8161 28.9483 29.3027 35.5831C40.7893 42.218 51.2958 45.5264 52.7695 42.9726ZM12.1018 19.483C12.111 19.467 12.1704 19.3715 12.453 19.2831C12.7432 19.1924 13.1845 19.1385 13.8032 19.1631C15.0379 19.2124 16.7449 19.5629 18.8294 20.2193C22.9815 21.5268 28.407 23.9752 34.1034 27.2655C39.7998 30.5558 44.6319 34.0323 47.8397 36.9761C49.4502 38.4539 50.6069 39.7575 51.2668 40.8026C51.5975 41.3262 51.7714 41.7353 51.8379 42.0318C51.9026 42.3207 51.8497 42.4195 51.8405 42.4353C51.8313 42.4513 51.772 42.5468 51.4893 42.6353C51.199 42.726 50.7577 42.7799 50.1391 42.7552C48.9043 42.7059 47.1974 42.3555 45.1128 41.699C40.9607 40.3916 35.5353 37.9432 29.8389 34.6529C24.1425 31.3625 19.3104 27.886 16.1026 24.9423C14.4921 23.4644 13.3354 22.1608 12.6754 21.1158C12.3448 20.5922 12.1709 20.183 12.1044 19.8866C12.0396 19.5978 12.0925 19.4989 12.1018 19.483Z" fill="#DADCEF"/>
<path fill-rule="evenodd" clip-rule="evenodd" d="M16.7047 24.2767C17.6349 24.2767 18.3889 25.0308 18.3889 25.9609C18.3889 26.8911 17.6349 27.6452 16.7047 27.6452C15.7746 27.6452 15.0205 26.8911 15.0205 25.9609C15.0205 25.0308 15.7746 24.2767 16.7047 24.2767Z" fill="#DADCEF"/>
<path fill-rule="evenodd" clip-rule="evenodd" d="M43.4347 18.4092C44.3648 18.4092 45.1189 19.1632 45.1189 20.0934C45.1189 21.0236 44.3648 21.7776 43.4347 21.7776C42.5045 21.7776 41.7505 21.0236 41.7505 20.0934C41.7505 19.1632 42.5045 18.4092 43.4347 18.4092Z" fill="#DADCEF"/>
<path fill-rule="evenodd" clip-rule="evenodd" d="M28.6574 44.9219C29.5875 44.9219 30.3416 45.6759 30.3416 46.6061C30.3416 47.5363 29.5875 48.2903 28.6574 48.2903C27.7272 48.2903 26.9731 47.5363 26.9731 46.6061C26.9731 45.6759 27.7272 44.9219 28.6574 44.9219Z" fill="#DADCEF"/>
<path fill-rule="evenodd" clip-rule="evenodd" d="M31.9168 28.0797C33.4471 28.0797 34.6876 29.3446 34.6876 30.9049C34.6876 32.4651 33.4471 33.73 31.9168 33.73C30.3866 33.73 29.146 32.4651 29.146 30.9049C29.146 29.3446 30.3866 28.0797 31.9168 28.0797Z" fill="#DADCEF"/>
</svg>
