<svg viewBox="0 0 64 64" fill="none" xmlns="http://www.w3.org/2000/svg">
<path d="M32 64C49.6731 64 64 49.6731 64 32C64 14.3269 49.6731 0 32 0C14.3269 0 0 14.3269 0 32C0 49.6731 14.3269 64 32 64Z" fill="#FC2838"/>
<path d="M43.2877 32.8314C44.3963 30.9163 46.1856 30.9163 47.2941 32.8314L54.1984 44.9515C55.3069 46.8658 54.3995 48.4285 52.1801 48.4285H38.2737C36.0815 48.4285 35.1748 46.8658 36.2554 44.9515L43.2877 32.8314ZM29.9333 9.49629C31.0418 7.58197 32.8056 7.58197 33.9149 9.49629L35.4519 12.2684L39.081 18.6456C39.5163 19.5451 39.7424 20.5314 39.7424 21.5306C39.7424 22.5299 39.5163 23.5162 39.081 24.4157L26.9097 45.5058C26.3659 46.3505 25.6309 47.0552 24.7641 47.563C23.8974 48.0708 22.9232 48.3673 21.9205 48.4285H11.8171C9.5993 48.4285 8.6926 46.8915 9.79881 44.9515L29.9333 9.49629Z" fill="white"/>
</svg>
