<svg viewBox="0 0 64 64" fill="none" xmlns="http://www.w3.org/2000/svg">
<circle cx="32" cy="32" r="32" fill="white"/>
<path d="M31.2621 56.745C16.2879 44.9944 8.33771 35.3981 6.25426 32.7358C6.09039 32.5259 6.00094 32.2674 6.00001 32.001C5.99908 31.7346 6.08672 31.4755 6.24912 31.2644C14.1194 21.0222 27.9235 9.88671 31.2596 7.25723C31.4707 7.09064 31.7317 7.00005 32.0005 7.00005C32.2693 7.00005 32.5303 7.09064 32.7414 7.25723C36.0775 9.88704 49.8813 21.0226 57.7515 31.2648C57.9139 31.4758 58.0016 31.7349 58.0006 32.0013C57.9997 32.2677 57.9102 32.5263 57.7464 32.7362C55.6632 35.3984 47.7131 44.9947 32.7385 56.7453C32.5278 56.9104 32.2679 57.0001 32.0003 57C31.7327 56.9999 31.4728 56.9102 31.2621 56.745Z" fill="url(#paint0_linear_1222_120)"/>
<path opacity="0.14" d="M11.9536 31.644L18.333 34.4805L26.4954 27.4985C26.4954 27.4985 13.5369 30.4782 11.9536 31.644Z" fill="#1A5DE1"/>
<path opacity="0.14" d="M33.3511 35.3547C33.3511 35.3547 44.0027 29.8082 44.1102 29.8371C44.2178 29.866 52.0463 32.0505 52.0463 32.0505L33.3511 35.3547Z" fill="#1A5DE1"/>
<path opacity="0.14" d="M18.333 34.4803L24.305 37.0024L26.5294 27.4158L18.333 34.4803Z" fill="#1A5DE1"/>
<g style="mix-blend-mode:screen">
<path d="M42.7173 34.6061C42.672 35.4785 42.6107 36.1874 42.5246 36.8378C42.4691 37.2578 42.3872 37.8089 42.2463 38.3481C42.1574 38.6887 42.0473 39.0473 41.8454 39.3638C41.6685 39.6405 41.4409 39.7494 41.1494 39.7002C40.8444 39.6479 40.5715 39.5209 40.3696 39.4165C39.8293 39.1379 39.3369 38.7928 38.8855 38.4618C37.9186 37.7526 37.0069 36.994 36.2425 36.3452C35.4611 35.6819 34.6695 35.0033 33.9051 34.3468L33.1667 33.7138C32.2769 32.9509 31.3234 32.1473 30.1668 31.1852C29.3664 30.5194 28.412 29.7392 27.4024 29.0075C26.9283 28.6634 26.361 28.2668 25.7478 27.9343C25.4233 27.7582 25.0689 27.5853 24.6779 27.5133C24.395 27.4612 24.2506 27.5284 24.1052 27.7787C24.0431 27.8867 23.992 28.0006 23.9524 28.1187C23.7434 28.7292 23.6666 29.359 23.6056 29.9522C23.562 30.378 23.5341 30.8394 23.5199 31.3632C23.5048 31.9333 23.5093 32.4956 23.5331 33.0342C23.5588 33.6052 23.6018 34.1084 23.6647 34.5721C23.7138 34.9326 23.7812 35.3564 23.909 35.7655C23.9784 35.9869 24.0499 36.1652 24.1751 36.3172C24.2715 36.4342 24.3697 36.4727 24.4846 36.438C25.264 36.2087 26.0024 35.8577 26.6724 35.3979C26.6984 35.3838 26.7203 35.3633 26.7361 35.3383C26.7519 35.3133 26.761 35.2847 26.7626 35.2551C26.7642 35.2256 26.7581 35.1962 26.7451 35.1696C26.7321 35.1431 26.7125 35.1203 26.6881 35.1035C26.6063 35.0325 26.5238 34.9618 26.4416 34.8911C26.3376 34.8018 26.23 34.7093 26.1247 34.6177C25.3601 33.9522 24.7443 33.3895 24.1867 32.8468C24.1658 32.8291 24.1491 32.8072 24.1375 32.7824C24.126 32.7575 24.12 32.7305 24.1199 32.7032C24.1236 32.2536 24.1585 31.8047 24.2246 31.36C24.2339 31.2989 24.2544 31.2315 24.3353 31.2074C24.4162 31.1833 24.4666 31.2324 24.5042 31.2694C25.5093 32.2488 26.5857 33.2 27.7947 34.1771C27.8987 34.2613 27.978 34.2549 28.0685 34.155C28.2387 33.9663 28.3992 33.7633 28.5543 33.5669L28.5767 33.5383C28.6178 33.4863 28.6586 33.4323 28.6984 33.3802C28.8084 33.2269 28.9301 33.0824 29.0624 32.948C29.0976 32.9113 29.1419 32.8846 29.1907 32.8708C29.2396 32.857 29.2913 32.8564 29.3404 32.8693C29.7938 32.9714 30.2076 33.2038 30.5308 33.538C30.7424 33.7539 30.8518 33.9837 30.8676 34.2411C30.8726 34.2853 30.866 34.3301 30.8485 34.3711C30.831 34.412 30.8032 34.4477 30.7677 34.4747C29.6467 35.4088 28.5979 36.242 27.5613 37.0248C27.5213 37.055 27.4814 37.0854 27.4416 37.1161C27.3132 37.2147 27.1809 37.3163 27.0413 37.4053L27.0377 37.4072C26.9995 37.4254 26.9652 37.4508 26.9366 37.4821C26.906 37.5132 26.8706 37.5392 26.8316 37.5589C26.6121 37.7298 26.3822 37.8908 26.1575 38.0466L26.1087 38.0807C25.4185 38.5627 24.6718 39.0617 23.8881 39.4666C23.5639 39.6344 23.2114 39.7998 22.8317 39.8757C22.475 39.9467 22.3049 39.8635 22.1315 39.5328C21.9919 39.2661 21.9122 38.9817 21.8426 38.7131C21.734 38.2731 21.6482 37.8278 21.5858 37.3789L21.5411 37.0377C21.536 37.0001 21.5305 36.9621 21.5254 36.9242C21.5138 36.8429 21.502 36.7587 21.4933 36.6755C21.4439 36.2228 21.4082 35.8564 21.3813 35.5229C21.3463 35.0933 21.3171 34.6627 21.2955 34.2427C21.2721 33.7893 21.2545 33.3108 21.2419 32.7809C21.2342 32.466 21.2285 32.1273 21.2362 31.7848L21.2339 31.734C21.2288 31.6728 21.2294 31.6113 21.2355 31.5502V31.5232C21.2355 31.5146 21.2355 31.5062 21.2339 31.4975C21.2339 31.4779 21.231 31.4577 21.2313 31.4374L21.2342 31.1302C21.2358 30.897 21.2378 30.6556 21.2442 30.4182C21.2596 29.8375 21.2827 29.316 21.3148 28.8244C21.3546 28.2119 21.4073 27.6624 21.4753 27.1447C21.5598 26.5059 21.6506 26.0242 21.7697 25.5824C21.8551 25.2662 21.9604 24.9323 22.1524 24.6345C22.2772 24.4417 22.4153 24.3308 22.5861 24.289C22.7332 24.2563 22.8859 24.2572 23.0326 24.2916C23.3771 24.3629 23.6875 24.5143 23.9456 24.6528C24.4952 24.9478 24.9931 25.2955 25.4076 25.6001C26.5555 26.4388 27.6653 27.3674 28.7385 28.2633L28.7443 28.2684C29.0839 28.5522 29.4281 28.8427 29.7607 29.1235C30.2127 29.5056 30.6801 29.9002 31.1433 30.2842C31.7574 30.7925 32.3757 31.3169 32.9732 31.8237L33.4627 32.2385C34.5057 33.1206 35.5841 34.0329 36.7138 34.8905C37.2897 35.3278 37.9096 35.7864 38.5937 36.1633C38.8277 36.2918 39.0842 36.4204 39.3718 36.4808C39.5763 36.5238 39.7288 36.4654 39.8383 36.3018C39.9024 36.2075 39.9563 36.1065 39.9988 36.0007C40.2113 35.4583 40.2945 34.878 40.3616 34.3298C40.4072 33.957 40.4389 33.5586 40.4579 33.1161C40.4551 33.1108 40.4542 33.1046 40.4553 33.0987C40.4563 33.0948 40.4575 33.0909 40.4592 33.0872L40.4733 32.8423V32.8031C40.4707 32.7244 40.4733 32.645 40.4784 32.5682C40.481 32.5129 40.4839 32.4554 40.4842 32.3992C40.4919 31.3867 40.4585 30.5692 40.3789 29.8263C40.3304 29.37 40.2598 28.8301 40.1076 28.2932L40.0482 28.094L39.925 27.8205L39.8078 27.6544C39.7115 27.5731 39.6242 27.5258 39.507 27.5618C38.8212 27.7663 38.1661 28.0625 37.5593 28.4423C36.787 28.9301 36.0955 29.5792 35.446 30.4268C35.4133 30.4697 35.3812 30.5125 35.3497 30.5554C35.2232 30.7238 35.0929 30.8976 34.9382 31.0477C34.9021 31.0851 34.8568 31.1122 34.8067 31.1261C34.7567 31.1401 34.7039 31.1404 34.6537 31.127C34.2008 31.025 33.7877 30.792 33.4659 30.457C33.2563 30.2434 33.1472 30.0159 33.1324 29.761C33.1266 29.7155 33.133 29.6693 33.1509 29.6271C33.1688 29.5849 33.1975 29.5482 33.2342 29.5207C33.456 29.3417 33.6801 29.1576 33.8964 28.9792C34.0695 28.8369 34.2496 28.69 34.4252 28.5461C34.7462 28.2845 35.1314 27.9763 35.5276 27.674C35.5404 27.6568 35.5584 27.6443 35.5789 27.6383L35.621 27.6026C35.6531 27.5744 35.6881 27.5454 35.7231 27.5184C36.481 26.9349 37.3857 26.2511 38.3484 25.6014C38.9211 25.2158 39.5439 24.8115 40.2184 24.4767C40.5073 24.3321 40.8248 24.1891 41.1661 24.1232C41.2344 24.1089 41.304 24.1012 41.3738 24.1001C41.5962 24.1001 41.7295 24.2042 41.864 24.4555C42.0097 24.7273 42.0913 25.0246 42.1561 25.2823C42.3487 26.049 42.4527 26.8433 42.5352 27.5872C42.5994 28.1579 42.6476 28.7591 42.6852 29.4246C42.7327 30.2565 42.7587 31.0175 42.7654 31.7507C42.776 32.8703 42.7606 33.778 42.7173 34.6061Z" fill="white"/>
</g>
<path opacity="0.14" d="M31.9136 50.4836L33.3515 35.3546L29.4526 38.7357L31.9136 50.4836Z" fill="#1A5DE1"/>
<path opacity="0.14" d="M35.0647 27.3142L31.6683 13.841L26.5293 27.4158L35.0647 27.3142Z" fill="#0C3BAF"/>
<g style="mix-blend-mode:darken">
<path d="M33.3513 35.3545L35.065 27.3141L26.5296 27.4156L24.3052 37.0023L29.4525 38.7356L33.3513 35.3545Z" fill="#00FFFF"/>
</g>
<g style="mix-blend-mode:darken">
<path d="M35.0647 27.3143L44.1102 29.8371L33.3511 35.3547L35.0647 27.3143Z" fill="#00FFFF"/>
</g>
<g style="mix-blend-mode:darken">
<path d="M33.3511 35.3544L52.0466 32.0501L40.3812 42.9189L33.3511 35.3544Z" fill="#00FFFF"/>
</g>
<g style="mix-blend-mode:darken">
<path d="M41.3493 22.9996L45.8264 30.3154L35.0649 27.3142L41.3493 22.9996Z" fill="#00FFFF"/>
</g>
<path d="M31.9991 1.59985C48.7491 1.59985 62.3991 15.2499 62.3991 31.9999C62.3991 48.7499 48.7491 62.3999 31.9991 62.3999C15.2491 62.3999 1.59912 48.7499 1.59912 31.9999C1.59912 15.2499 15.2491 1.59985 31.9991 1.59985ZM31.9991 0.0998535C14.3991 0.0998535 0.0991211 14.3999 0.0991211 31.9999C0.0991211 49.5999 14.3491 63.8999 31.9991 63.8999C49.6491 63.8999 63.8991 49.6499 63.8991 31.9999C63.8991 14.3499 49.5991 0.0998535 31.9991 0.0998535Z" fill="#D2D8E2"/>
<defs>
<linearGradient id="paint0_linear_1222_120" x1="32.0005" y1="55.067" x2="32.0005" y2="7.47542" gradientUnits="userSpaceOnUse">
<stop stop-color="#0067AA"/>
<stop offset="0.51" stop-color="#003481"/>
<stop offset="1" stop-color="#020F66"/>
</linearGradient>
</defs>
</svg>
