<svg viewBox="0 0 64 64" fill="none" xmlns="http://www.w3.org/2000/svg">
<path d="M32 64C49.6731 64 64 49.6731 64 32C64 14.3269 49.6731 0 32 0C14.3269 0 0 14.3269 0 32C0 49.6731 14.3269 64 32 64Z" fill="#8FCC4C"/>
<path d="M42.4141 21.068C40.8621 17.124 36.9701 16.768 32.4381 17.648L30.8241 12.022L27.4001 13.004L28.9721 18.484C28.0721 18.74 27.1561 19.024 26.2461 19.304L24.6661 13.788L21.2441 14.768L22.8541 20.394C22.1181 20.622 21.3941 20.846 20.6841 21.05L20.6781 21.03L15.9541 22.384L17.0041 26.044C17.0041 26.044 19.5201 25.268 19.4901 25.328C20.8781 24.93 21.5601 25.606 21.8901 26.264L23.7301 32.672C23.8241 32.646 23.9501 32.614 24.0981 32.592L23.7361 32.696L26.3101 41.676C26.3741 42.13 26.3181 42.9 25.3501 43.18C25.4041 43.206 22.8581 43.892 22.8581 43.892L23.3521 48.178L27.8081 46.898C28.6381 46.664 29.4581 46.444 30.2601 46.218L31.8941 51.908L35.3141 50.928L33.7001 45.298C34.6175 45.0546 35.5322 44.8012 36.4441 44.538L38.0481 50.144L41.4741 49.162L39.8461 43.482C45.5081 41.5 49.1221 38.894 48.0721 33.342C47.2281 28.874 44.6241 27.518 41.1301 27.67C42.8261 26.09 43.5561 23.954 42.4141 21.07V21.068ZM41.1141 34.608C42.3341 38.862 34.9141 40.466 32.5941 41.134L30.4321 33.594C32.7521 32.928 39.8401 30.174 41.1121 34.61L41.1141 34.608ZM36.4701 24.428C37.5781 28.298 31.3761 29.588 29.4421 30.142L27.4821 23.304C29.4141 22.75 35.3121 20.394 36.4701 24.43V24.428Z" fill="white"/>
</svg>
