<svg viewBox="0 0 64 64" fill="none" xmlns="http://www.w3.org/2000/svg">
<path d="M32 64C49.6731 64 64 49.6731 64 32C64 14.3269 49.6731 0 32 0C14.3269 0 0 14.3269 0 32C0 49.6731 14.3269 64 32 64Z" fill="white"/>
<path d="M33.6959 0C32.5698 0 31.4438 0 30.3239 0C30.2676 0.0938556 30.1738 0.0563134 30.0987 0.0563134C28.591 0.143912 27.0958 0.331623 25.6132 0.644475C20.0203 1.80828 15.0468 4.24227 10.7989 8.05907C4.33649 13.8656 0.789337 21.1363 0.0949211 29.7835C-0.167831 33.0372 0.119946 36.2533 0.895691 39.4256C2.54102 46.1645 5.97557 51.8271 11.2556 56.3321C16.4857 60.7934 22.5602 63.2962 29.4168 63.8844C33.2142 64.2098 36.9428 63.8469 40.6025 62.8144C46.6771 61.1 51.8383 57.8901 56.0048 53.1411C60.653 47.8476 63.2618 41.6719 63.8874 34.6578C63.9124 34.3762 63.8749 34.0821 64 33.8131C64 32.6492 64 31.4792 64 30.3154C63.9187 30.2653 63.9437 30.184 63.9437 30.1151C63.7873 27.3495 63.268 24.6527 62.4047 22.0185C58.4134 9.81104 47.4841 1.19509 34.6343 0.10637C34.3215 0.0813415 33.9962 0.125141 33.6959 0ZM32.0068 21.0549C31.9192 21.1363 31.8441 21.2051 31.7691 21.2802C29.323 23.7267 26.8769 26.1669 24.4433 28.6135C24.2869 28.7699 24.2056 28.7886 24.0366 28.6197C22.6728 27.2432 21.3028 25.8729 19.9327 24.5088C19.7638 24.3461 19.7388 24.2523 19.9202 24.0708C23.8865 20.1164 27.8466 16.1557 31.8004 12.1887C31.963 12.026 32.0443 12.0198 32.2132 12.1887C33.4957 13.4839 34.7845 14.7666 36.0732 16.0556C38.7445 18.7273 41.4158 21.3991 44.0934 24.0708C44.2498 24.221 44.2873 24.3086 44.1059 24.4838C42.7108 25.8604 41.3282 27.2432 39.9519 28.6322C39.8018 28.7824 39.7267 28.7636 39.5891 28.626C38.7195 27.7437 37.8374 26.874 36.9616 25.998C35.3788 24.415 33.796 22.8319 32.2132 21.2489C32.1507 21.1863 32.0819 21.1238 32.0068 21.0549ZM19.7388 39.7009C19.8076 39.6258 19.8639 39.557 19.9327 39.4944C21.2965 38.1304 22.6603 36.7726 24.0116 35.4023C24.193 35.2146 24.2869 35.2271 24.4621 35.4086C26.8894 37.8488 29.3355 40.2828 31.7628 42.7293C31.9505 42.917 32.0381 42.9421 32.2445 42.7356C34.6656 40.2953 37.0992 37.8739 39.5203 35.4399C39.7079 35.2522 39.808 35.2084 40.0207 35.4274C41.3408 36.7726 42.6733 38.0991 44.0183 39.4256C44.2373 39.6446 44.2686 39.7572 44.0308 39.995C40.0958 43.9119 36.1796 47.8351 32.257 51.7645C32.0631 51.9585 31.963 51.9772 31.7566 51.7708C27.834 47.8351 23.899 43.9057 19.9702 39.97C19.9202 39.9199 19.8639 39.8699 19.8138 39.8136C19.7888 39.776 19.7701 39.7447 19.7388 39.7009ZM31.9818 36.5474C31.938 36.5036 31.8817 36.4598 31.8316 36.4097C30.4178 34.9956 29.0039 33.5815 27.5901 32.1737C27.4587 32.0423 27.4399 31.9735 27.5838 31.8296C29.0102 30.4155 30.4303 28.9951 31.8441 27.5685C31.963 27.4496 32.0318 27.4309 32.1632 27.5623C33.5833 28.9951 35.0159 30.4217 36.4486 31.8483C36.5612 31.961 36.5799 32.0235 36.4548 32.1424C35.0159 33.5753 33.5833 35.0081 32.1444 36.4473C32.1006 36.4848 32.0694 36.5474 31.9818 36.5474ZM43.0049 31.9672C43.0424 31.9234 43.0924 31.8734 43.1425 31.8171C44.5313 30.428 45.9264 29.0389 47.3152 27.6374C47.4466 27.506 47.5154 27.4934 47.6593 27.6311C49.0544 29.0327 50.4495 30.4342 51.8508 31.8296C51.976 31.9485 51.9885 32.0235 51.8571 32.1487C50.4495 33.5503 49.0419 34.9581 47.6406 36.3659C47.5279 36.4785 47.4654 36.4973 47.3465 36.3722C45.9389 34.9518 44.5251 33.544 43.1112 32.1299C43.0612 32.0924 42.9986 32.0611 43.0049 31.9672ZM16.5294 36.5036C16.4794 36.4598 16.4419 36.4285 16.4043 36.391C14.9842 34.9706 13.5641 33.5503 12.1377 32.1299C12.0251 32.0173 12.0439 31.9547 12.144 31.8546C13.5578 30.4468 14.9717 29.0327 16.3856 27.6123C16.4794 27.5185 16.542 27.4809 16.6608 27.5936C18.0747 29.0202 19.501 30.4405 20.9212 31.8546C21.0338 31.961 21.015 32.0298 20.9149 32.1299C19.501 33.5377 18.0872 34.9518 16.6733 36.3659C16.6295 36.416 16.5795 36.4535 16.5294 36.5036Z" fill="#FCB700"/>
</svg>
