<svg viewBox="0 0 64 64" fill="none" xmlns="http://www.w3.org/2000/svg">
<path d="M32 64C49.6731 64 64 49.6731 64 32C64 14.3269 49.6731 0 32 0C14.3269 0 0 14.3269 0 32C0 49.6731 14.3269 64 32 64Z" fill="black"/>
<path d="M55.4858 27.0779C55.1694 25.5415 54.7018 24.0402 54.0898 22.5959C53.4866 21.1733 52.7485 19.8118 51.8858 18.5299C51.0303 17.2635 50.0544 16.0827 48.9718 15.0039C47.8924 13.9212 46.7109 12.9453 45.4438 12.0899C44.16 11.2315 42.7995 10.4937 41.3798 9.88592C38.4437 8.64064 35.287 7.9989 32.0978 7.9989C28.9085 7.9989 25.7519 8.64064 22.8158 9.88592C19.9767 11.0834 17.398 12.8225 15.2238 15.0059C14.1412 16.084 13.1654 17.2642 12.3098 18.5299C11.4512 19.8143 10.7134 21.1755 10.1058 22.5959C8.86049 25.532 8.21875 28.6887 8.21875 31.8779C8.21875 35.0672 8.86049 38.2238 10.1058 41.1599C10.6938 42.5799 11.4538 43.9259 12.3098 45.2239C13.1653 46.4909 14.1412 47.6724 15.2238 48.7519C16.3031 49.8346 17.4846 50.8105 18.7518 51.6659C20.0238 52.5219 21.3958 53.2579 22.8158 53.8699C25.7519 55.1152 28.9085 55.7569 32.0978 55.7569C35.287 55.7569 38.4437 55.1152 41.3798 53.8699C42.7998 53.2819 44.1458 52.5219 45.4438 51.6659C46.7109 50.8105 47.8924 49.8346 48.9718 48.7519C50.0545 47.6725 51.0304 46.491 51.8858 45.2239C52.7418 43.9519 53.4778 42.5799 54.0898 41.1599C55.9738 36.7165 56.4607 31.8048 55.4858 27.0779ZM32.1198 52.7679C20.5858 52.7679 11.2558 43.4119 11.2558 31.9019C11.2558 20.3919 20.6118 11.0359 32.1198 11.0359C43.6298 11.0359 52.9858 20.3919 52.9858 31.9019C52.9858 43.4119 43.6318 52.7679 32.1198 52.7679Z" fill="white"/>
<path d="M32.4899 50.956H33.0539C33.1519 50.956 33.2479 50.956 33.3459 50.93H33.3719C33.4699 50.93 33.5419 50.93 33.6399 50.906H33.7139C33.7879 50.906 33.8619 50.906 33.9339 50.882H34.0079C34.0819 50.882 34.1559 50.858 34.2539 50.858H34.3019C34.3999 50.858 34.4979 50.832 34.5959 50.832C34.6939 50.832 34.7679 50.808 34.8659 50.784H34.9139C34.9879 50.784 35.0619 50.76 35.1339 50.76H35.1839C35.2819 50.734 35.3559 50.734 35.4539 50.71C35.6479 50.686 35.8439 50.636 36.0159 50.588H36.0659C36.1379 50.564 36.2359 50.564 36.3099 50.538H36.3339C36.5299 50.49 36.7019 50.44 36.8979 50.392C35.0635 50.4501 33.2291 50.2774 31.4379 49.878C28.7419 49.29 26.1719 48.238 23.9919 46.424C22.2732 44.9937 20.894 43.1993 19.9538 41.1707C19.0137 39.142 18.5362 36.9298 18.5559 34.694C18.5735 31.3584 19.7604 28.1346 21.9099 25.584C24.7019 22.278 28.6699 20.538 32.7339 20.44H33.2979V17.184H32.6619C31.4255 17.2066 30.1946 17.354 28.9879 17.624C27.7735 17.8986 26.5916 18.3008 25.4619 18.824C24.3099 19.364 23.2319 20.024 22.2279 20.784C21.1904 21.5726 20.2457 22.4764 19.4119 23.478C18.6268 24.4049 17.9454 25.4149 17.3799 26.49C16.8204 27.5263 16.3687 28.6174 16.0319 29.746C15.7015 30.8571 15.4804 31.9978 15.3719 33.152L15.2979 34.228V34.864C15.3219 36.114 15.4699 37.338 15.7379 38.538C16.0079 39.764 16.4239 40.938 16.9379 42.066C17.5519 43.412 18.6539 45.396 20.2939 46.89C23.6425 49.5297 27.7839 50.9624 32.0479 50.956H32.4899Z" fill="white"/>
<path d="M37.8276 47.8199C36.6196 47.7767 35.4165 47.6457 34.2276 47.4279C29.1836 46.5219 24.8476 43.4359 23.2576 38.7839C21.3216 33.1259 24.2856 27.0039 29.9176 25.1439C30.9909 24.7842 32.1156 24.6018 33.2476 24.6039C34.6936 24.6039 36.1376 24.8979 37.4616 25.4359L38.8316 22.5219C38.4196 22.3567 38.0034 22.202 37.5836 22.0579C36.1804 21.6175 34.7182 21.3942 33.2476 21.3959C31.7742 21.3986 30.3108 21.6384 28.9136 22.1059C27.1303 22.6941 25.4879 23.6446 24.0896 24.8979C23.4152 25.4986 22.8003 26.163 22.2536 26.8819C21.7131 27.5925 21.2454 28.3557 20.8576 29.1599C20.0679 30.7767 19.6018 32.5323 19.4856 34.3279C19.3636 36.1879 19.6076 38.0479 20.2196 39.8119C20.8431 41.6265 21.8453 43.2879 23.1596 44.6859C24.3596 45.9839 25.7556 46.9639 27.4436 47.8699C29.2076 48.7999 31.3876 49.2899 33.6636 49.6099C35.1336 49.8039 37.0936 49.8539 38.2436 49.8539C39.2476 49.4859 39.6636 49.3139 40.2036 49.0939C40.6696 48.8739 41.1336 48.6539 41.5996 48.3839C42.0656 48.1139 42.1396 48.0639 42.9216 47.5519C42.9912 47.5086 43.0568 47.459 43.1176 47.4039C40.4236 47.8699 39.7376 47.8439 37.8276 47.8199Z" fill="white"/>
<path d="M43.8537 44.1718C43.0937 44.2198 42.0157 44.2918 40.7917 44.2918C38.6117 44.2918 35.9417 44.0978 33.6657 43.3378C30.1377 42.1638 26.8077 39.1518 26.8077 35.4278C26.8069 34.5465 26.98 33.6736 27.3169 32.8591C27.6538 32.0447 28.148 31.3046 28.7713 30.6814C29.3945 30.0582 30.1345 29.5639 30.949 29.227C31.7634 28.8901 32.6363 28.7171 33.5177 28.7178C36.0397 28.7178 38.2197 30.1138 39.3717 32.1458L42.2857 30.7018C41.8288 29.8416 41.2419 29.0571 40.5457 28.3758C39.6232 27.4518 38.5276 26.7187 37.3215 26.2185C36.1154 25.7183 34.8225 25.4608 33.5167 25.4608C32.211 25.4608 30.9181 25.7183 29.712 26.2185C28.5059 26.7187 27.4102 27.4518 26.4877 28.3758C25.564 29.2983 24.8311 30.3938 24.3311 31.5998C23.8311 32.8057 23.5737 34.0984 23.5737 35.4038C23.5803 36.772 23.8732 38.1237 24.4337 39.3718C24.9457 40.4978 25.6577 41.5518 26.5637 42.5318C28.1557 44.2438 30.3337 45.6158 32.6617 46.3998C34.8897 47.1338 38.1717 47.4038 41.3557 47.1838C42.2357 47.1098 42.8977 47.0358 44.0237 46.7918C45.1104 45.9343 46.0966 44.9568 46.9637 43.8778C46.2037 43.9518 44.8077 44.0978 43.8537 44.1718Z" fill="white"/>
</svg>
