<svg viewBox="0 0 64 64" fill="none" xmlns="http://www.w3.org/2000/svg">
<g clip-path="url(#clip0_1080_273)">
<circle cx="32" cy="32" r="32" fill="white"/>
<path d="M48.0275 26.5094C48.8851 26.5094 49.5803 25.8142 49.5803 24.9565C49.5803 24.0989 48.8851 23.4037 48.0275 23.4037C47.1698 23.4037 46.4746 24.0989 46.4746 24.9565C46.4746 25.8142 47.1698 26.5094 48.0275 26.5094Z" fill="#F7B454"/>
<path d="M32.0555 0C14.3085 0 0 14.3085 0 32.0555C0 49.8024 14.3085 64.1109 32.0555 64.1109C49.8024 64.1109 64.1109 49.8024 64.1109 32.0555C64.1109 14.3085 49.6915 0 32.0555 0ZM46.5858 45.3657C42.8146 49.5806 37.3796 51.9099 31.8336 51.9099C26.1768 51.9099 20.7418 49.4697 16.9705 45.2548C13.0884 40.9289 11.4246 35.4939 11.9792 29.7262C12.9775 20.5199 20.2981 13.1993 29.5043 12.0901C30.2808 11.9792 31.0572 11.9792 31.8336 11.9792C36.2704 11.9792 40.4853 13.4211 44.0347 16.1941C44.2565 16.305 44.3674 16.6378 44.3674 16.8596C44.3674 17.1924 44.2565 17.4142 44.0347 17.636L41.9272 19.5217C41.7054 19.7435 41.3726 19.8544 41.0399 19.8544C40.818 19.8544 40.4853 19.7435 40.3744 19.6326C37.8232 17.8579 34.8284 16.9705 31.8336 16.9705C27.5078 16.9705 23.4038 18.8562 20.6308 22.0728C17.747 25.2894 16.4159 29.5043 16.9705 33.8302C17.747 40.7071 23.2929 46.253 30.1698 47.0295C30.7244 47.1404 31.279 47.1404 31.9445 47.1404C35.9376 47.1404 39.7088 45.5875 42.5927 42.7036C42.8146 42.4818 43.1473 42.3709 43.4801 42.3709C43.7019 42.3709 43.9237 42.4818 44.1456 42.5927L46.4749 44.1456C46.6967 44.2565 46.8076 44.4783 46.9185 44.8111C46.8076 44.922 46.6967 45.1438 46.5858 45.3657ZM48.0277 29.8371C45.3657 29.8371 43.1473 27.6187 43.1473 24.9567C43.1473 22.2946 45.3657 20.0763 48.0277 20.0763C50.6898 20.0763 52.9081 22.2946 52.9081 24.9567C52.9081 27.6187 50.6898 29.8371 48.0277 29.8371Z" fill="url(#paint0_linear_1080_273)"/>
</g>
<defs>
<linearGradient id="paint0_linear_1080_273" x1="5.31629" y1="49.0735" x2="56.8435" y2="14.4153" gradientUnits="userSpaceOnUse">
<stop stop-color="#F37123"/>
<stop offset="1" stop-color="#F8C864"/>
</linearGradient>
<clipPath id="clip0_1080_273">
<rect width="64" height="64" fill="white"/>
</clipPath>
</defs>
</svg>
