<svg viewBox="0 0 64 64" fill="none" xmlns="http://www.w3.org/2000/svg">
<path d="M32 64C49.6733 64 64 49.6733 64 32C64 14.3267 49.6733 0 32 0C14.3267 0 0 14.327 0 32C0 49.673 14.327 64 32 64Z" fill="#070A0E"/>
<path fill-rule="evenodd" clip-rule="evenodd" d="M18.4851 42.7304C18.0144 42.4427 17.6254 42.039 17.3553 41.558C17.0852 41.077 16.943 40.5348 16.9424 39.9832V33.7316C16.9429 33.4955 17.0056 33.2636 17.1243 33.0594C17.2429 32.8551 17.4133 32.6858 17.6182 32.5684C17.8231 32.451 18.0554 32.3896 18.2915 32.3905C18.5277 32.3914 18.7595 32.4546 18.9635 32.5736L33.0729 40.8001C33.4785 41.0367 33.815 41.3753 34.049 41.7823C34.283 42.1894 34.4064 42.6506 34.4067 43.1201V49.5982C34.4073 49.8849 34.3314 50.1665 34.1868 50.4141C34.0421 50.6616 33.8341 50.866 33.584 51.0063C33.334 51.1465 33.0511 51.2175 32.7644 51.2119C32.4778 51.2062 32.1979 51.1242 31.9536 50.9742L18.4851 42.7304ZM39.5171 30.86C39.9226 31.0966 40.259 31.4353 40.4929 31.8424C40.7268 32.2495 40.85 32.7108 40.8502 33.1803V46.3243C40.8505 46.5147 40.8 46.7018 40.7039 46.8663C40.6077 47.0307 40.4695 47.1665 40.3033 47.2596L37.2141 48.9988C37.1746 49.0204 37.133 49.0377 37.0899 49.0504V41.7521C37.0897 41.2873 36.9692 40.8304 36.7401 40.426C36.511 40.0216 36.181 39.6833 35.7824 39.4443L23.392 32.0321V23.7924C23.3925 23.5563 23.4552 23.3244 23.5739 23.1202C23.6925 22.9159 23.8629 22.7466 24.0678 22.6292C24.2727 22.5118 24.505 22.4504 24.7411 22.4513C24.9773 22.4522 25.2091 22.5154 25.4131 22.6343L39.5171 30.86ZM45.6931 21.1518C46.1002 21.388 46.4381 21.7271 46.6728 22.1351C46.9075 22.5431 47.0308 23.0056 47.0304 23.4763V42.6763C47.0293 42.8698 46.9762 43.0596 46.8765 43.2255C46.7769 43.3914 46.6344 43.5275 46.464 43.6193L43.5372 45.2001V31.8344C43.537 31.3705 43.4169 30.9147 43.1885 30.511C42.9601 30.1073 42.6313 29.7695 42.2339 29.5304L29.568 21.9339V14.1185C29.5686 13.8817 29.6305 13.6491 29.7475 13.4433C29.9269 13.1354 30.2211 12.9113 30.5655 12.82C30.91 12.7287 31.2766 12.7777 31.5849 12.9563L45.6931 21.1518Z" fill="#00D395"/>
</svg>
