<svg viewBox="0 0 64 64" fill="none" xmlns="http://www.w3.org/2000/svg">
<path d="M32 64C49.6731 64 64 49.6731 64 32C64 14.3269 49.6731 0 32 0C14.3269 0 0 14.3269 0 32C0 49.6731 14.3269 64 32 64Z" fill="#3AB03E"/>
<path d="M34.322 33.558C35.117 33.1771 35.7884 32.5795 36.2589 31.8341C36.7295 31.0886 36.9801 30.2255 36.982 29.344C36.982 26.756 34.858 24.658 32.242 24.658C29.622 24.658 27.496 26.756 27.496 29.344C27.4982 30.2257 27.7494 31.0889 28.2207 31.8341C28.692 32.5793 29.3643 33.1762 30.16 33.556V39.344H34.322V33.558ZM32.242 47C23.87 47 17.062 40.272 17.062 32C17.062 23.728 23.87 17 32.242 17C39.072 17 44.862 21.48 46.762 27.624H51.994C49.974 18.684 41.898 12 32.24 12C21.062 12 12 20.954 12 32C12 43.046 21.062 52 32.24 52C41.898 52 49.974 45.316 51.994 36.376H46.76C44.86 42.52 39.07 47 32.24 47" fill="white"/>
</svg>
