<svg viewBox="0 0 64 64" fill="none" xmlns="http://www.w3.org/2000/svg">
<path d="M32 64C49.6731 64 64 49.6731 64 32C64 14.3269 49.6731 0 32 0C14.3269 0 0 14.3269 0 32C0 49.6731 14.3269 64 32 64Z" fill="#F3B641"/>
<path d="M50.9758 26.7201H47.1785C45.0878 20.9174 39.4665 16.9387 32.0531 16.9387H19.8611V26.7201H15.6265V30.2294H19.8611V33.9094H15.6265V37.4187H19.8611V47.0827H32.0531C39.3811 47.0827 44.9598 43.1361 47.1038 37.4187H50.9758V33.9094H47.9571C48.0318 33.2907 48.0745 32.6507 48.0745 32.0107V31.9254C48.0745 31.3494 48.0425 30.7841 47.9891 30.2294H50.9865V26.7201H50.9758ZM23.2745 20.0641H32.0531C37.4931 20.0641 41.5358 22.7414 43.4025 26.7094H23.2745V20.0641ZM32.0531 43.9254H23.2745V37.4081H43.3811C41.5038 41.3121 37.4718 43.9254 32.0531 43.9254ZM44.5438 32.0854C44.5438 32.7041 44.5011 33.3121 44.4158 33.8987H23.2745V30.2187H44.4265C44.5011 30.7947 44.5438 31.3921 44.5438 32.0001V32.0854Z" fill="white"/>
</svg>
