<svg viewBox="0 0 64 64" fill="none" xmlns="http://www.w3.org/2000/svg">
<path d="M32 64C49.6731 64 64 49.6731 64 32C64 14.3269 49.6731 0 32 0C14.3269 0 0 14.3269 0 32C0 49.6731 14.3269 64 32 64Z" fill="#2C398F"/>
<path d="M50.1506 38.1995C51.2025 38.1472 52.2062 37.7405 53 37.0451C51.897 42.6785 48.8178 48.2195 43.5326 51.2671C39.4883 53.622 34.4329 54.407 29.5154 53.8067C28.7801 51.6827 26.8499 49.4201 23.4949 47.7116C18.2097 44.9872 15.728 40.2773 13.4761 42.5861C13.268 42.7851 13.0968 43.0196 12.9705 43.2788C12.8786 43.0941 12.7867 42.8632 12.6948 42.6323C8.37472 31.9196 12.6948 21.1607 21.3349 13.4494C26.4822 8.87807 32.5027 9.386 37.8798 11.8795C37.2267 12.4067 36.8533 13.2081 36.8687 14.0497V24.8548C32.2507 22.165 26.3736 23.229 22.9804 27.3691C19.5872 31.5091 19.6752 37.5085 23.1884 41.5463C26.7016 45.584 32.6074 46.4735 37.1445 43.6482C37.7028 44.8399 39.0097 45.4825 40.2889 45.1944C41.5681 44.9064 42.4769 43.7648 42.4756 42.4476V14.6038C46.6118 17.5129 49.9208 21.2069 51.4374 23.7466C52.1768 25.0221 52.7046 26.4102 53 27.8562C52.3493 27.3745 51.5926 27.0577 50.794 26.9327C49.0936 26.8403 47.8067 29.1491 48.6799 32.4737C49.4153 35.4751 48.4961 38.1071 50.1506 38.1995ZM29.4235 38.3842C23.6328 35.0595 28.5044 26.5171 34.2951 29.8417C36.0415 30.8114 36.2253 33.9051 35.9036 35.8907C35.3061 39.3077 32.0891 39.9079 29.4235 38.3842ZM32.135 16.3123C30.8482 16.3585 29.9291 17.9284 29.975 18.6211C30.021 19.3137 30.9861 19.7293 32.3189 19.2675C33.5138 18.852 34.6168 19.129 34.5708 18.4364C34.5249 17.7437 33.3759 16.2661 32.135 16.3123Z" fill="white"/>
</svg>
