<svg viewBox="0 0 64 64" fill="none" xmlns="http://www.w3.org/2000/svg">
<path d="M32 64C49.6731 64 64 49.6731 64 32C64 14.3269 49.6731 0 32 0C14.3269 0 0 14.3269 0 32C0 49.6731 14.3269 64 32 64Z" fill="#DEB822"/>
<path fill-rule="evenodd" clip-rule="evenodd" d="M14.2449 30.1446C14.0479 29.9939 13.8933 29.794 13.6934 29.6433C13.4934 29.4926 13.3418 29.2917 13.1409 29.142L12.5893 28.6397C12.4909 28.5412 12.3924 28.489 12.3392 28.3896C12.2407 28.2911 12.1422 28.2389 12.0378 28.1384C11.3356 27.4362 10.5832 26.7842 9.88098 26.082C10.6334 26.734 11.3356 27.4362 12.0378 28.0882L12.289 28.3393C12.3874 28.4378 12.4859 28.489 12.5391 28.5895L13.0916 29.0918C13.2886 29.2415 13.4422 29.4424 13.6431 29.5931C13.8666 29.7502 14.0689 29.9356 14.2449 30.1446ZM4.76465 30.0461C4.76465 30.0461 7.37354 30.2972 8.62726 30.4981C9.78053 30.6478 13.4925 31.2496 13.4925 31.2496L4.76465 30.0461ZM4.76465 30.0461C5.51708 30.0963 6.21928 30.1968 6.97171 30.2431C7.33708 30.3008 7.70593 30.3337 8.07574 30.3415L8.62726 30.3918C8.82423 30.442 8.97787 30.442 9.17878 30.4903L11.3356 30.8409L12.4387 31.0378C12.7903 31.0881 13.1409 31.1885 13.5427 31.2348C13.1911 31.1856 12.7903 31.1363 12.4387 31.0851L11.3356 30.8881L9.17878 30.5868C8.98181 30.5375 8.82817 30.5375 8.62726 30.4883L8.07574 30.4381C7.72415 30.3878 7.32331 30.3396 6.97171 30.2874C6.26951 30.2371 5.51708 30.1367 4.76465 30.0362V30.0461ZM13.2413 31.9025C13.2413 31.9025 10.4837 32.6047 9.53038 32.8549C8.62726 33.106 5.81845 33.9589 5.81845 33.9589L13.2413 31.9025Z" fill="#CFB66C"/>
<path fill-rule="evenodd" clip-rule="evenodd" d="M13.2417 31.9005C12.64 32.0975 12.0382 32.2511 11.3862 32.4018L9.53078 32.9031C8.92903 33.1001 8.3263 33.2547 7.67432 33.4546L6.77219 33.7057C6.47082 33.8042 6.16946 33.8564 5.81885 33.9569L6.72196 33.6555L7.62409 33.3542C8.22682 33.1572 8.82857 33.0035 9.48055 32.8026C10.0823 32.652 10.7343 32.5023 11.336 32.3516C11.9605 32.159 12.5972 32.0083 13.2417 31.9005ZM6.21968 35.6617C6.52105 35.5632 10.0321 33.9067 10.885 33.5048C11.2858 33.3542 12.4391 32.9031 12.4391 32.9031L6.21968 35.6617Z" fill="#CFB66C"/>
<path fill-rule="evenodd" clip-rule="evenodd" d="M6.21924 35.6618C6.47038 35.5633 6.72152 35.4116 7.0219 35.3111L7.77433 34.9596L9.32942 34.2071C9.83071 33.957 10.333 33.7058 10.8845 33.4547C11.1347 33.3562 11.436 33.2577 11.6872 33.1543L12.088 33.0036C12.2148 32.9475 12.3505 32.9142 12.4888 32.9052C11.9876 33.1563 11.436 33.3562 10.9347 33.6073C10.4334 33.8585 9.88094 34.0584 9.37965 34.3096L7.82456 35.0088C7.22281 35.2058 6.72152 35.4599 6.21924 35.6608V35.6618ZM6.57083 37.1164C6.57083 37.1164 9.78049 35.2609 10.8343 34.6592C11.3858 34.3578 13.2413 33.4045 13.2413 33.4045L6.57083 37.1164Z" fill="#CFB66C"/>
<path fill-rule="evenodd" clip-rule="evenodd" d="M6.5708 37.1163C7.12232 36.7657 7.67384 36.4643 8.22635 36.1137L9.02802 35.6114C9.3231 35.4634 9.60803 35.2959 9.88091 35.1101C10.1823 34.9594 10.4324 34.7585 10.7338 34.6088C10.8624 34.5334 10.9963 34.4675 11.1346 34.4119L11.5867 34.2149C12.1576 33.9176 12.7434 33.6497 13.3417 33.4122C12.7902 33.7638 12.2387 34.0642 11.6871 34.3656C11.3858 34.5163 11.1346 34.6669 10.8343 34.8166C10.5339 34.9663 10.2827 35.118 9.98136 35.2687C9.68 35.4194 9.42984 35.5691 9.12848 35.7198L8.27559 36.1708L6.5708 37.1242V37.1163ZM13.2412 33.8062C13.2412 33.8062 11.2351 35.311 10.6333 35.8123C9.98136 36.3136 8.12589 37.6678 8.12589 37.6678L13.2412 33.8062Z" fill="#CFB66C"/>
<path fill-rule="evenodd" clip-rule="evenodd" d="M24.6276 46.0441L23.624 44.1384L24.1755 41.7304L28.3888 40.1251L26.6338 36.4644L27.4866 32.7524L29.1412 29.3921L34.3078 28.5894L38.0689 25.0282L46.195 25.6299L47.7993 34.3578L44.7404 45.2916L42.9844 50.9595L35.8619 51.2599L32.5518 48.9533L28.6901 47.348L24.6276 46.0441Z" fill="#E2CC85"/>
<path fill-rule="evenodd" clip-rule="evenodd" d="M37.066 45.9938C37.066 45.9938 36.0634 46.4459 34.4069 46.3454C33.9056 45.6934 30.5443 45.3921 30.5443 45.3921C30.5443 45.3921 30.1434 45.2414 29.391 45.589C28.6386 45.8845 27.9364 45.8402 27.2342 46.0401C26.532 46.24 25.88 45.3379 25.3787 45.138C24.9618 44.9507 24.5595 44.7324 24.1752 44.485L22.7206 44.3353L19.8645 43.1308L15.2997 38.567L14.044 40.5239L13.6934 42.9319L15.0978 45.788L18.8087 49.1986L26.0819 51.0619L30.3956 49.8082L35.7621 47.4504L37.066 45.9958V45.9938Z" fill="#F1D789"/>
<path fill-rule="evenodd" clip-rule="evenodd" d="M11.3356 29.8934L12.2377 27.1348L13.3417 25.3296L16.8528 25.0282L15.799 28.1384L12.8404 33.3542L14.0942 38.0687L11.8871 39.1727L11.2351 38.1189L10.6836 35.7622V33.1533L11.3356 29.8934Z" fill="#F4ECB4"/>
<path fill-rule="evenodd" clip-rule="evenodd" d="M15.2979 45.794L14.5957 44.8406C14.5957 44.8406 14.3987 44.3896 14.4972 43.9878C14.5957 43.5859 14.5957 43.5869 14.5464 43.4362C14.4972 43.2856 14.0452 42.7843 14.0954 42.3332C14.1456 41.8821 14.0451 41.7305 14.3967 41.3799C14.7483 41.0293 14.6469 40.4265 14.6469 40.4265L15.0989 40.7279L15.1974 40.5772C15.2873 40.6731 15.3403 40.7976 15.3471 40.9288C15.3974 40.6274 15.2486 39.3737 15.5983 39.0723C15.9479 38.771 16.5516 40.4767 16.5516 40.4767L16.2 38.0698L15.2467 35.5613L13.5429 33.305L13.4444 30.7966V30.5996C13.4444 30.5996 12.6417 31.8041 12.4408 32.7564C12.2911 33.4084 12.6378 34.2111 12.5915 35.1142C12.5413 36.0675 12.4408 35.9671 12.69 36.3177C12.9392 36.6683 13.4926 37.4217 13.2415 37.9732C13.0445 38.4243 12.3896 38.1239 12.3896 38.1239C12.3896 38.1239 12.2389 38.5248 12.0882 38.6252C12.038 38.3741 11.9376 38.2736 11.8371 38.1239C11.8335 38.1923 11.8165 38.2592 11.7869 38.3209C11.7869 38.3209 11.6884 37.9703 11.5367 37.5192C11.386 36.9165 11.2354 36.1148 11.0847 35.713C11.0344 35.9641 10.8877 36.7166 10.8877 36.7166L10.9862 37.8698L11.387 39.4249L11.7869 40.4255L12.1887 41.6802L12.5393 42.5321L12.8407 43.1841L13.0918 44.6388L14.2451 45.8925L14.8468 46.1938L15.2979 45.793V45.794Z" fill="#F3E19D"/>
<path fill-rule="evenodd" clip-rule="evenodd" d="M11.9376 27.6371C11.9376 27.6371 11.0847 29.0917 10.8346 30.4932C10.5844 31.8946 10.3825 33.4478 10.5332 35.4086C10.6839 37.4148 10.9853 38.6183 11.2354 39.4712C11.6372 40.9258 12.6901 42.932 12.6901 42.932L12.7403 42.8335C12.5629 42.5005 12.4282 42.1464 12.3395 41.7797C12.1888 41.2281 12.1425 40.5762 12.0381 40.2758C11.9337 39.9754 11.7367 39.7233 11.6372 39.3727C11.5378 39.0221 11.5388 38.4696 11.2857 38.0687C11.1872 37.918 11.0345 37.467 10.9902 37.0149C10.94 36.3629 11.0394 35.6105 10.94 35.0088C10.8415 34.0062 10.743 33.3532 10.8415 32.8017C10.94 32.3004 11.4935 30.7955 11.7938 29.592C11.9908 28.8396 11.8923 28.1876 12.2961 27.5357C12.6999 26.8837 12.9481 26.3322 13.0486 25.9303C13.0988 25.6792 11.9445 27.6361 11.9445 27.6361L11.9376 27.6371Z" fill="#F2E8B0"/>
<path fill-rule="evenodd" clip-rule="evenodd" d="M15.95 27.0314C15.95 27.0314 15.4989 27.1811 15.298 27.382C15.0971 27.5829 14.9977 27.7828 14.7465 28.1344C14.4461 28.485 14.4461 28.7864 14.2452 29.2374C13.9941 29.6895 13.4928 30.3415 13.4426 30.5916C13.3923 30.8418 13.2919 31.996 13.1412 32.4983C13.0427 33.0498 13.2919 33.7018 13.2919 33.7018L13.5932 33.6516C13.5973 33.7748 13.626 33.8959 13.6776 34.0079C13.7292 34.1199 13.8026 34.2204 13.8936 34.3035C14.195 34.5547 14.2452 33.4507 14.2452 33.4507L15.3483 29.7397L17.0038 28.6357L17.2008 27.7336L15.95 27.0314Z" fill="#F5EEC0"/>
<path fill-rule="evenodd" clip-rule="evenodd" d="M16.7525 28.7402C16.7525 28.7402 15.9499 28.7904 15.5993 29.0918C15.4486 29.1903 15.4023 29.2888 15.1984 29.4424C14.8971 29.6935 14.5957 29.9437 14.446 30.2451C14.2018 30.8019 14.0491 31.3945 13.9939 32.0001C13.9437 32.4019 13.9437 32.7525 13.8955 33.1041C13.8452 33.5552 13.7458 33.9068 13.797 34.1067C13.8462 34.609 14.3485 34.8591 14.3987 35.4116L15.4515 34.9094L16.4551 30.9473L18.5588 29.5921L17.3543 28.2379L16.7525 28.7392V28.7402Z" fill="#E6DB9D"/>
<path fill-rule="evenodd" clip-rule="evenodd" d="M11.1348 55.2732V55.1748C11.2854 53.8206 11.3317 52.818 11.4361 52.2202C11.5868 51.318 11.7365 51.0167 11.6873 50.6661C11.637 50.1136 11.5888 49.7127 11.637 49.3119C11.7355 48.7594 12.2388 48.1074 12.2388 47.6563C12.2388 47.3047 12.0418 47.0546 11.8872 46.8537L11.5868 46.4529C11.5868 46.4529 12.6396 45.7004 12.6396 42.7911C12.6463 42.791 12.6529 42.7922 12.659 42.7947C12.6652 42.7972 12.6708 42.8009 12.6754 42.8056C12.6801 42.8103 12.6838 42.8158 12.6863 42.822C12.6888 42.8282 12.69 42.8347 12.6899 42.8414L13.1912 44.3462L13.5427 44.7973L14.8969 47.3579L16.6519 49.0637L19.2608 50.8187L20.9154 52.5747L21.0661 57.3395L18.9092 60.0971L18.5586 60.749C15.8674 59.2408 13.3737 57.4045 11.1348 55.2821V55.2732Z" fill="#E5CB7A"/>
<path fill-rule="evenodd" clip-rule="evenodd" d="M17.6556 59.7878C17.6556 59.7878 17.7058 59.185 18.1569 58.8344C18.2554 58.9851 18.3076 59.0856 18.2554 59.185C18.4885 58.8164 18.7965 58.5008 19.1594 58.2589C19.5223 58.0169 19.932 57.854 20.362 57.7806C21.7664 57.5305 22.0678 56.5269 22.0678 56.5269L25.0223 53.8186L28.3906 50.7094L32.5033 49.2547L34.409 48.8027C34.409 48.8027 34.4593 48.9534 34.3588 49.2547C35.026 49.1534 35.6813 48.9851 36.3147 48.7524C36.6663 48.6027 36.9667 48.5555 37.1174 48.7524C37.3685 49.0036 37.4188 49.5049 37.4188 49.8565C37.8196 49.758 38.2707 49.4044 38.6223 49.4044C39.224 49.4546 39.7253 50.1569 40.327 50.1569C41.1297 50.1569 41.4813 49.6556 42.0328 49.3049C42.3844 49.0538 42.8355 48.8027 43.0866 48.6027C43.7386 48.1507 50.5095 46.0421 50.5095 46.0421L52.8662 46.1928L53.2681 48.7534L53.0711 55.4249C53.0209 55.4249 53.0209 55.4751 52.9726 55.4751L42.1392 61.1429L27.1349 63.4485C23.7747 62.9083 20.5339 61.7882 17.5571 60.1384L17.6556 59.7878Z" fill="#D8C173"/>
<path fill-rule="evenodd" clip-rule="evenodd" d="M12.042 56.1261C12.239 55.674 12.4428 55.3234 12.4931 55.1727C12.5433 55.4239 12.5915 56.0256 12.6437 56.6776C12.4559 56.4803 12.2549 56.296 12.042 56.1261Z" fill="#F1D789"/>
<path fill-rule="evenodd" clip-rule="evenodd" d="M23.022 62.3957L24.9779 61.8441L25.1286 61.8944C25.1286 61.8944 25.2271 61.9436 25.2271 62.1445C25.4782 61.9938 25.6782 62.046 25.8288 61.9475C25.9273 62.0982 25.9795 62.6497 26.3311 62.7502C26.6827 62.8507 27.0826 62.6005 27.4342 62.2991C27.835 61.9978 28.2368 61.5969 28.5874 61.4463C28.6859 61.6432 28.8386 61.8983 28.8888 62.1485C29.3399 61.7978 30.0923 60.3934 31.1461 60.4437C31.4465 59.6912 31.998 59.0895 32.65 58.6374C33.6535 57.9352 34.2553 57.885 35.0579 57.9855C35.3626 57.5879 35.7363 57.2483 36.161 56.9829C36.3117 57.0331 36.6633 57.233 37.1143 57.0331C37.5654 56.8332 38.0677 56.0295 38.7196 55.9291C39.0703 55.8788 39.4218 55.9793 39.7725 56.126C39.7725 56.126 41.7284 54.2203 43.0835 53.5654C43.0333 53.4157 42.9329 52.814 44.487 51.509C44.5855 51.6075 44.5372 51.8104 44.5855 51.8104C44.6337 51.8104 44.9873 51.6597 45.4886 51.2589C46.0903 50.8068 46.7925 50.3558 47.2446 50.2051C48.0462 49.9549 48.9494 50.4562 48.9494 50.4562C49.0184 50.3941 49.1076 50.3591 49.2005 50.3577C49.3975 50.3075 49.5511 50.3075 49.6516 50.2592C49.6516 50.5104 49.8022 51.0117 49.6516 51.3633C49.8097 51.4497 49.9781 51.5159 50.1529 51.5602C50.0544 51.7572 49.8574 52.2624 49.5511 52.4634C49.8022 52.614 49.8525 52.7647 50.2533 52.8642C50.0685 53.1203 49.9011 53.3884 49.752 53.6669C49.6535 53.918 49.2507 54.9216 49.0498 55.3224C48.8489 55.7232 48.5987 56.4254 48.4983 56.5259C48.3978 56.6264 47.9468 57.2783 47.5952 57.5797C47.8965 57.4812 49.1503 57.0774 49.7018 56.9277C49.5511 57.1779 48.7484 58.3321 47.9468 59.4884C40.3722 64.002 31.2938 65.0558 23.0181 62.3976L23.022 62.3957Z" fill="#E0CD81"/>
<path fill-rule="evenodd" clip-rule="evenodd" d="M16.8527 28.5895C16.8527 28.5895 16.4017 28.5895 16.3012 28.6397C16.2007 28.6899 16.7523 28.8367 16.903 28.8908C17.1491 29.0177 17.3569 29.2082 17.5047 29.4424C17.6032 29.6393 20.7153 30.9472 20.7153 30.9472L22.9214 30.8487L23.6738 29.7959L22.2192 28.5412L23.2228 25.5325L21.8686 25.7294L18.6087 27.6864L16.9532 28.2881L16.8547 28.5885L16.8527 28.5895Z" fill="#DFC57C"/>
<path fill-rule="evenodd" clip-rule="evenodd" d="M21.7681 29.592C21.8021 29.6399 21.8474 29.6787 21.8999 29.705C21.9525 29.7312 22.0107 29.7442 22.0694 29.7427C22.5205 29.7427 22.9716 29.8412 23.1222 30.0933C23.4236 30.4449 24.2263 31.6484 24.2263 31.6484L26.1822 32.3496L26.3329 30.0421L24.176 28.5372L21.7681 29.4403V29.592Z" fill="#E5CC7C"/>
<path fill-rule="evenodd" clip-rule="evenodd" d="M21.3672 30.4459C21.6433 30.4659 21.9199 30.414 22.1699 30.2952C22.6209 30.0982 23.3734 29.7939 23.6738 29.8934C24.1258 30.0903 24.0254 30.696 24.5266 31.2475C24.828 31.5991 25.3795 31.5489 25.6799 31.9498C25.9803 32.3506 27.0351 32.1467 27.0351 32.1467L27.4359 34.3036L25.8296 36.3639L25.3283 38.9245H23.1705L21.2146 38.1228L20.2612 35.7651L20.7635 33.4073L21.3653 30.4528L21.3672 30.4459Z" fill="#D2C281"/>
<path fill-rule="evenodd" clip-rule="evenodd" d="M25.5346 30.5463C25.5848 30.5463 25.6331 30.5956 25.6843 30.5956C25.6351 30.6458 25.4873 30.7463 25.5346 31.0476C25.5819 31.349 25.7316 31.6996 25.6331 31.9498C25.7445 32.0641 25.8299 32.2011 25.8832 32.3516C25.9817 32.6027 25.9817 32.8529 26.5854 32.8529C26.4906 32.9025 26.4058 32.9693 26.3353 33.0498C26.5583 33.2454 26.76 33.4639 26.937 33.7018C27.134 33.7018 27.6895 33.5049 27.6895 33.5049L27.788 33.6033L28.0391 33.5049C28.0391 33.5049 27.788 33.4064 27.9889 32.8529C28.1386 32.3496 28.2922 32.4018 28.2922 32.3496C28.2922 32.2974 28.3907 31.7981 28.3907 31.5972C28.4892 31.346 28.5404 30.4941 28.5404 30.4941L28.3907 28.6899L27.4876 28.1886L26.7351 27.4362L25.9827 28.7903L25.5346 29.2414L25.4844 30.4459L25.5346 30.5444V30.5463Z" fill="#E2C270"/>
<path fill-rule="evenodd" clip-rule="evenodd" d="M27.7872 29.0414C27.7872 29.0414 27.9379 29.4925 28.0383 29.8933C28.0383 29.8441 28.0885 29.7436 28.0885 29.6964C28.0885 29.6964 28.2392 30.3986 28.2392 30.6989C28.2895 30.6989 28.3377 30.6487 28.3377 30.7492C28.3377 30.7994 28.4874 31.3509 28.4362 31.7025C28.6398 31.3479 28.9337 31.0536 29.2881 30.8496C29.4971 30.6989 29.7369 30.5964 29.9903 30.5492C30.3921 30.5492 30.6925 30.7994 31.1446 30.7994C32.2978 30.7994 33.3506 29.9465 34.0991 29.6964C34.6516 29.4994 35.1529 29.3448 35.5035 29.0444C35.7847 28.77 36.0368 28.4674 36.256 28.1413C36.6076 27.5395 37.0084 26.988 37.36 26.9378C37.196 26.9793 37.0267 26.9962 36.8577 26.988C36.9527 26.898 37.0534 26.8141 37.1591 26.7369C37.356 26.5862 37.5599 26.3853 37.9115 26.3853C38.5133 26.3853 38.8146 26.4837 39.115 26.4837C39.4666 26.4837 39.6163 26.3853 39.6163 26.3853C39.6163 26.3853 39.9679 26.6364 40.7203 26.6364C41.523 26.6364 42.0243 26.7349 42.4251 26.7349C42.8269 26.7851 44.1811 26.6364 44.5819 26.6364C44.8463 26.6303 45.1069 26.6986 45.3344 26.8334L44.0807 23.1717L39.5168 19.2096L36.8085 21.1153L32.6445 25.2783L28.6322 26.7831L27.7793 27.7365V29.0404L27.7872 29.0414Z" fill="#CCB360"/>
<path fill-rule="evenodd" clip-rule="evenodd" d="M36.8649 26.9329C36.96 26.8428 37.0606 26.7589 37.1663 26.6817C37.3633 26.5311 37.5672 26.3311 37.9187 26.3311C38.5205 26.3311 38.8219 26.4296 39.1222 26.4296C39.4738 26.4296 39.6235 26.3311 39.6235 26.3311C39.6235 26.3311 39.9751 26.5813 40.7276 26.5813C41.5302 26.5813 42.0315 26.6798 42.4324 26.6798C42.8342 26.73 44.1884 26.5813 44.5892 26.5813C44.8535 26.5752 45.1142 26.6435 45.3416 26.7783L44.7901 25.1227L44.1381 23.8798L42.2324 21.7732L39.9249 20.419L39.1222 20.222L37.0659 21.4768L35.2104 26.342L35.1602 27.3445L36.3637 27.8961C36.665 27.3948 37.0156 26.9939 37.317 26.9437L36.8649 26.9329Z" fill="#D5B457"/>
<path fill-rule="evenodd" clip-rule="evenodd" d="M36.816 27.2855C36.619 27.2855 36.4644 27.2352 36.4644 27.1348C36.3137 26.6837 36.163 26.6335 36.0636 26.6335C35.9641 26.6335 35.7622 26.9348 35.6617 26.9348C35.5632 26.9851 35.4116 26.6335 35.4116 26.6335L35.3131 26.5833C34.9046 26.8712 34.5188 27.1899 34.1588 27.5366C33.7078 28.0379 32.9051 28.941 32.5545 29.0917C32.2039 29.2424 30.9994 29.2887 30.5976 29.3921C30.2724 29.488 29.967 29.6411 29.6955 29.8441C29.6452 29.8934 29.8924 29.9938 29.8924 30.0411C29.9427 30.0913 29.4916 30.0913 29.4414 30.1396C29.3911 30.1878 29.5398 30.4912 29.592 30.6409C29.7013 30.5852 29.8204 30.5518 29.9427 30.5424C30.3445 30.5424 30.6449 30.7925 31.0969 30.7925C32.2502 30.7925 33.304 29.9396 34.0515 29.6895C34.604 29.4925 35.1053 29.3379 35.4559 29.0375C35.7371 28.7631 35.9892 28.4605 36.2083 28.1344C36.3727 27.8259 36.5752 27.5394 36.8111 27.2815L36.816 27.2855Z" fill="#D2B257"/>
<path fill-rule="evenodd" clip-rule="evenodd" d="M20.3637 52.9154C20.3637 52.9154 20.2652 52.5145 19.3109 51.5612C19.0597 51.2608 18.8588 51.0599 18.7082 50.859C18.3757 50.5684 18.0239 50.3005 17.6553 50.0573C16.9531 49.555 16.2007 49.555 15.599 48.9031C14.9972 48.2511 14.3452 47.0476 13.843 45.7939C13.3919 44.5392 13.2412 44.1383 13.2412 44.0881C13.2412 44.0379 13.3919 43.7877 13.5426 43.837C13.6933 43.8862 13.6933 44.1885 13.7396 44.289C13.8266 44.4164 13.9274 44.534 14.0399 44.6396C14.2911 44.941 14.6417 45.2414 14.7924 45.7436C14.7477 45.4384 14.6818 45.1366 14.5954 44.8405C14.5954 44.8405 15.4985 45.392 16.3012 45.9938C17.1038 46.5955 17.4042 46.7965 17.6553 47.1983C17.9065 47.6001 18.4078 48.6027 18.6589 48.9031C18.9101 49.2034 22.4201 50.3075 22.4201 50.3075L24.0756 51.5612L24.9285 53.3674L24.2765 54.37L23.0218 54.6212L20.9654 53.721L20.3637 52.9183V52.9154Z" fill="#D2B159"/>
<path fill-rule="evenodd" clip-rule="evenodd" d="M15.8502 46.5956C15.8502 46.5956 16.251 47.2978 17.3048 47.9005C18.2572 48.452 19.7118 48.9533 21.0158 49.3049C21.7388 49.4907 22.4778 49.608 23.2228 49.6555C25.0281 49.7057 26.2828 49.1542 27.8871 49.0035C28.74 48.9051 29.7436 48.8529 30.8466 48.6027C32.251 48.2511 33.0537 47.9005 34.1567 47.3982C34.9594 47.0476 35.7118 46.7463 36.3136 46.3956C37.1664 45.8934 37.7682 45.3418 38.4704 45.1912C38.3719 45.4423 38.2734 45.8934 37.5673 46.2952C37.9189 46.2952 38.4704 46.245 38.4704 46.245C38.4704 46.245 37.9691 46.5463 37.1162 47.1983C36.5647 47.5991 35.8625 48.3013 35.1101 48.7524C34.659 49.0538 34.1065 49.2547 33.8061 49.4546C33.0035 49.9067 32.6519 50.1568 32.1003 50.6591H32.2973C32.2973 50.6591 31.5951 50.7576 31.144 51.0097C30.9422 50.9818 30.7367 50.9989 30.5423 51.0599C30.2481 51.1939 29.9466 51.3113 29.6392 51.4115C29.1871 51.5612 29.0374 51.51 29.0374 51.51L29.1359 51.6607H28.3333C28.3399 51.6606 28.3465 51.6618 28.3526 51.6642C28.3588 51.6667 28.3644 51.6704 28.3691 51.6751C28.3738 51.6798 28.3775 51.6854 28.3799 51.6915C28.3824 51.6977 28.3836 51.7043 28.3835 51.7109C28.3333 51.7109 28.3333 51.7109 28.285 51.7611L27.9836 51.9118C27.9146 51.9104 27.8465 51.9278 27.7867 51.9621C27.9174 52.146 28.019 52.349 28.088 52.5638C27.9895 52.614 26.8343 53.5172 26.8343 53.5172C26.8845 53.5664 26.8845 53.6156 26.9328 53.7141C26.981 53.8126 26.983 54.0155 27.0313 54.0657C27.0752 54.1357 27.1253 54.2017 27.181 54.2627C27.0493 54.3031 26.9155 54.336 26.7801 54.3612C26.5173 54.4448 26.2492 54.5106 25.9775 54.5581C25.8585 54.5533 25.7397 54.5703 25.6269 54.6084C25.6761 54.7069 25.9223 55.1599 25.4762 55.6612C25.0744 56.1635 24.9247 56.2137 24.774 56.5643C24.7238 56.5141 24.6233 56.4658 24.577 56.4136C24.4263 56.3634 24.2264 56.2639 24.1762 56.1132C24.1259 56.2639 24.0777 56.4639 24.0255 56.6145C23.8804 56.9213 23.7627 57.2403 23.6739 57.5679C23.5242 57.4172 23.2731 57.1158 22.9215 57.1661C22.5699 57.2163 22.2695 57.7176 22.2193 57.8683C22.2193 57.7698 22.17 57.7176 22.1208 57.818C22.1208 57.9165 21.9238 59.122 20.8158 60.0753C20.8158 59.8242 20.8158 59.2727 20.7666 59.122C20.6681 59.2205 20.5155 59.3731 19.8133 59.6745C19.0608 59.9699 19.2115 60.3265 19.2115 60.3265C19.2115 60.3265 19.1613 59.8242 19.5621 59.2727C19.9629 58.7211 20.2141 58.47 20.2141 58.4198C20.2141 58.3696 20.2141 58.3213 20.1639 58.3213C20.1136 58.2711 20.0142 58.2228 20.0142 58.1706C20.0644 58.1204 20.7164 57.8692 20.6661 57.2173C20.6149 56.6756 20.413 56.3801 20.2161 56.1763C20.1658 56.126 20.4672 55.9793 20.413 55.8749C20.3628 55.8247 20.0624 55.5794 20.0122 55.4741C20.0122 55.3756 20.0624 55.3234 20.0624 55.2229C20.0982 55.1442 20.115 55.0582 20.1117 54.9718C20.0624 54.8221 19.962 54.4705 19.9147 54.4705H20.2161C20.1223 54.3088 20.0387 54.1414 19.9659 53.9692C19.9157 53.8185 19.8674 53.4177 19.8152 53.3172C19.9137 53.3172 20.1107 53.3675 20.1107 53.3172C20.1107 53.2187 19.9137 53.1203 20.0122 53.0159C20.0734 53.0256 20.1318 53.0481 20.1835 53.0821C20.2353 53.116 20.2793 53.1606 20.3126 53.2128C20.2623 53.0622 20.1619 52.7115 19.9117 52.6111C20.0318 52.5579 20.1631 52.5346 20.2941 52.5434C20.4252 52.5521 20.5522 52.5926 20.6642 52.6613C20.8372 52.7713 20.9761 52.9276 21.065 53.1124C21.065 53.1124 21.262 53.2631 21.5161 53.464C21.9328 53.8251 22.4076 54.1131 22.9205 54.3159C23.0712 54.4144 23.4228 54.4144 23.6729 54.3661C23.7714 54.3159 23.8699 54.3159 23.9743 54.2164C24.0245 54.2164 24.0245 54.1662 24.0728 54.1662C24.0249 54.0551 23.9583 53.9532 23.8758 53.8648H24.0728C24.0728 53.8648 24.123 53.7141 23.8758 53.464C23.926 53.4137 24.0265 53.3655 24.0265 53.267C23.928 53.267 23.7753 53.1163 23.7251 53.07L23.9221 52.8731C23.8236 52.8238 23.6709 52.5776 23.5715 52.5224C23.67 52.4722 23.7212 52.4722 23.8216 52.424C23.8216 52.424 23.3706 52.3255 23.2701 52.227C23.1194 52.1285 22.9185 51.9266 22.819 51.8764C22.6684 51.8262 22.4674 51.7779 22.367 51.6794C22.4655 51.7296 22.6181 51.6794 22.7186 51.6794H22.8752C22.8752 51.6292 22.8752 51.5809 23.0721 51.5287C23.1786 51.5185 23.2815 51.4849 23.3735 51.4302C23.2198 51.4167 23.0766 51.3465 22.9717 51.2333C22.8234 51.0774 22.6548 50.9423 22.4704 50.8314C22.3197 50.7812 22.1198 50.9299 21.9691 50.9299C21.8577 50.9054 21.7542 50.8536 21.6677 50.7792C21.6677 50.7792 20.9655 50.8295 19.4607 49.9273C18.1567 49.104 17.5569 48.4028 17.5569 48.4028C17.4585 48.3526 17.3068 48.3043 17.2063 48.2521C16.5041 47.8513 15.8019 47.2988 15.8522 46.5966L15.8502 46.5956Z" fill="#C2A44D"/>
<path fill-rule="evenodd" clip-rule="evenodd" d="M34.8591 15.549C34.9576 15.5992 35.1103 15.6474 35.1605 15.7459C35.4116 16.0463 35.5613 16.5486 35.0098 17.1001C35.164 17.1804 35.338 17.2146 35.5111 17.1986C35.3141 17.4487 34.9094 17.9008 34.8591 18.3519C34.8089 18.7025 35.0561 18.8029 35.0561 18.8029C34.8314 19.0894 34.7081 19.4424 34.7055 19.8065C34.8593 19.6266 35.0269 19.459 35.2068 19.3052C35.6111 19.0019 36.0316 18.7208 36.4664 18.4631C36.4664 18.5616 36.4664 18.6601 36.5166 18.7133C36.5166 18.7133 37.1686 18.1618 37.7201 18.4129C37.9713 18.5114 37.8708 18.864 37.8708 18.864C37.8708 18.864 38.2214 18.7133 38.4726 18.9625C38.7237 19.2116 39.0743 19.8154 39.225 20.0665C39.4101 20.2694 39.5778 20.4875 39.7263 20.7185C40.0277 21.1695 40.2286 21.6708 40.4285 22.2224C40.4285 21.9722 40.527 21.5201 41.2814 21.8215C42.0338 22.0727 42.9369 22.6744 43.6391 23.7774C44.3916 24.8815 44.5413 26.1352 44.8929 26.6335C45.2435 27.0846 45.6453 27.837 45.6955 28.1886C45.7457 28.489 45.597 29.5428 46.3475 32.3516C46.5445 31.4987 46.899 29.5428 46.899 29.5428L47.096 27.837L47.293 22.571L41.7778 18.0072L37.4651 14.897L34.6562 15.1481L34.8532 15.549H34.8591Z" fill="#CAA13E"/>
<path fill-rule="evenodd" clip-rule="evenodd" d="M45.0917 23.3736C45.0917 23.3736 44.9932 22.8723 43.7376 21.9692C42.4326 21.1163 41.43 21.1163 40.5269 20.3639C39.7745 19.8626 39.022 18.5084 38.5208 18.1066C38.0697 17.6555 37.9692 16.452 37.9692 16.452L39.5746 15.0978L41.9313 11.6873L43.9375 9.48022L44.8908 10.8344L46.245 12.3895L46.9974 15.5489L47.2486 20.163L45.0917 23.3736Z" fill="#B59544"/>
<path fill-rule="evenodd" clip-rule="evenodd" d="M46.6959 28.8908C46.7395 28.1958 46.6547 27.4987 46.4458 26.8344C46.0942 25.7806 45.3417 23.8749 44.9911 23.1727C44.8404 22.37 44.9409 22.3198 45.0896 22.2194C45.2383 22.1189 45.7918 21.8185 46.0922 20.6653C46.3936 19.5612 47.3459 19.511 47.3459 19.511L47.9487 19.0599L48.8528 21.3192L49.6554 23.3254L49.9066 24.8804L50.1035 26.1844L49.7027 28.9932L47.5458 30.9491L46.693 28.8928L46.6959 28.8908Z" fill="#C89D3A"/>
<path fill-rule="evenodd" clip-rule="evenodd" d="M17.4585 59.9877V59.9374C17.5088 59.8872 17.557 59.8872 17.557 59.839C17.6072 59.7897 17.6072 59.7405 17.6555 59.6893C17.7038 59.638 17.9569 59.5908 18.0563 59.5908C18.207 59.5908 18.5084 59.7415 18.7083 59.7415C19.0599 59.7415 19.511 59.4401 20.2132 59.5908C21.267 59.7877 21.4679 60.4939 22.0696 60.8947C22.4705 61.1961 22.9215 61.0454 22.9718 61.0454H23.1225C23.1727 61.0454 23.3194 60.8484 23.4238 60.8484C23.6208 60.8484 23.674 61.0454 23.7744 61.0454C24.0758 61.0956 24.6775 60.8947 24.9779 60.9469C25.0623 60.969 25.1394 61.0131 25.2011 61.0747C25.2629 61.1363 25.3072 61.2132 25.3295 61.2975C25.3798 61.4945 25.3295 61.7496 25.1788 61.85C24.8785 62.1455 24.5771 62.4016 24.4766 62.6517C24.5716 62.7016 24.6567 62.7684 24.7278 62.8487C22.1823 62.2396 19.7343 61.2783 17.4546 59.9926L17.4585 59.9877Z" fill="#CEB052"/>
<path fill-rule="evenodd" clip-rule="evenodd" d="M44.9913 49.6555C44.9913 49.6555 45.7939 48.6027 46.0943 48.0502C46.3947 47.4977 45.1912 40.5239 45.1912 40.5239L47.549 32.8499L47.4967 30.3454C47.4967 30.3454 47.5952 28.0379 47.8986 27.0353C48.194 27.5868 49.2025 28.289 49.4527 28.6899C49.5512 27.9877 49.9047 26.4828 49.8545 24.9287C50.0515 25.2291 50.5065 28.1886 50.5065 28.1886L50.9575 30.1947L51.5593 32.3014L52.2113 34.5586L52.618 36.1137L52.8682 36.4643L53.0651 37.1163L53.2621 37.8185L53.7634 39.4741L54.0648 40.8282L54.3149 43.2904C54.3676 43.4701 54.4006 43.6551 54.4134 43.8419C54.4091 43.9937 54.3923 44.1449 54.3632 44.294C54.3632 44.3442 54.4617 44.8957 54.4134 45.2965C54.3652 45.6974 54.3632 46.049 54.0628 46.3001C53.7614 46.5956 53.5605 48.3565 53.5605 48.3565L53.009 47.9557C53.0614 47.6136 53.0088 47.2637 52.8583 46.9521C52.6082 46.4508 52.0566 46.4006 51.7553 46.4508C51.4539 46.501 50.8522 46.6005 50.7025 46.7463C50.5055 46.8969 50.0997 47.4485 49.6487 47.6494C49.1474 47.9507 48.2945 48 47.8434 48.1004C47.3924 48.2009 46.8901 48.5023 46.3888 48.8529C45.948 49.1657 45.4776 49.4345 44.9844 49.6555H44.9913Z" fill="#CCA847"/>
<path fill-rule="evenodd" clip-rule="evenodd" d="M44.9912 60.9411C45.0291 60.9452 45.0641 60.9631 45.0897 60.9913C48.7651 59.2737 52.0577 56.8348 54.7718 53.8196C54.7216 52.7668 54.7216 51.713 54.6733 51.3121C54.5749 50.4592 54.6231 49.6063 54.6231 49.1051C54.5729 48.6038 54.3218 46.5966 54.1721 46.0451C54.0214 45.5438 53.7702 45.2424 53.72 45.2424C53.6698 45.2424 53.4699 46.246 53.4699 46.4469C53.4699 46.6478 53.4196 47.2988 53.4196 47.4495C53.3694 47.4495 53.3694 47.351 53.3694 47.2988C53.3192 47.4495 53.2709 47.6504 53.2187 47.7006C53.1665 47.7509 53.2689 47.5037 53.2187 47.4495C53.1685 47.3953 53.1202 47.3993 53.1202 47.2988C53.1125 47.2123 53.13 47.1255 53.1705 47.0487C53.1705 47.0487 53.0198 47.2988 52.9193 47.8513C52.8189 48.4038 52.8208 48.4531 52.7696 48.5033C52.7184 48.5535 52.5185 48.7535 52.5185 48.8539C52.5185 49.0046 52.7154 49.1553 52.7154 49.2055C52.7154 49.3562 52.5185 49.9579 52.4643 50.2081C52.4141 50.5095 52.4141 51.061 52.3658 51.3623C52.3156 51.6125 52.2673 51.7632 52.0704 51.9139C52.1508 51.9428 52.2351 51.9597 52.3205 51.9641C52.374 52.2057 52.3754 52.456 52.3244 52.6982C52.2735 52.9404 52.1714 53.1689 52.0251 53.3685C51.92 53.5718 51.7845 53.7578 51.6232 53.92C51.2726 54.3209 51.0215 54.7227 50.9713 55.0231C50.9713 54.9246 50.921 54.8734 50.921 54.7729C50.921 54.7729 50.3695 55.3747 50.1686 55.7755C49.8732 56.2276 49.4664 56.2275 49.3669 56.328C49.3109 56.3972 49.2727 56.4791 49.2555 56.5664C49.2384 56.6538 49.2428 56.744 49.2684 56.8293C49.17 56.8795 48.9671 56.8795 48.8666 57.2804C48.8314 57.3975 48.7735 57.5065 48.6961 57.6011C48.6187 57.6957 48.5234 57.7742 48.4156 57.8319C48.2011 57.954 47.96 58.0216 47.7134 58.0289C47.864 58.0791 47.9103 58.0791 47.9645 58.1273C47.866 58.278 47.5124 58.478 47.1116 58.7291C46.7923 58.9309 46.5461 59.2298 46.4094 59.582C46.3645 59.6846 46.2953 59.7747 46.2078 59.8445C46.1203 59.9143 46.0171 59.9618 45.9071 59.9828C46.0056 60.0331 46.1583 60.1798 46.2587 60.234C46.1602 60.2842 45.9574 60.2842 45.6067 60.5343C45.3054 60.8357 45.1557 60.9362 45.005 60.9362L44.9912 60.9411Z" fill="#C39D3C"/>
<path fill-rule="evenodd" clip-rule="evenodd" d="M37.8188 63.348C38.0193 63.2021 38.2386 63.0841 38.4708 62.9974C39.2735 62.696 40.1264 62.5965 40.477 62.4961C40.7783 62.3976 41.0285 62.2449 41.4303 62.1947C41.4435 62.2817 41.4257 62.3706 41.3801 62.4458C40.2268 62.7965 39.0223 63.0978 37.8188 63.348Z" fill="#D2BA6B"/>
<path fill-rule="evenodd" clip-rule="evenodd" d="M52.6651 42.1322C52.6651 42.1322 52.5145 43.0353 52.2131 43.5868C51.987 44.0265 51.7861 44.4786 51.6113 44.941C51.6004 44.7723 51.6174 44.6029 51.6616 44.4397C51.311 44.6367 50.4078 45.1912 50.1065 45.3921C49.8563 45.589 49.4545 45.9938 49.355 46.1947C49.6052 45.4925 49.8563 44.8406 49.9065 44.5392C49.555 44.7903 47.7999 46.245 46.8968 47.1983L44.088 49.4546C43.7788 49.6556 43.4407 49.808 43.0854 49.9067C42.5831 50.1036 42.0316 50.3075 41.5806 50.4582C41.679 50.1568 41.8809 49.9067 42.1321 49.6053C42.3832 49.3552 43.1849 48.5023 43.3356 48.0502C43.4341 47.6494 43.4863 47.348 43.3356 46.9974C43.1849 47.0476 42.8845 47.0476 42.6334 47.0959C42.4364 47.1461 42.1823 47.3913 42.1823 47.3913C42.2919 46.7622 42.4597 46.1447 42.6836 45.5467C42.4308 45.562 42.1794 45.5949 41.9312 45.6452C42.3986 44.9388 42.9942 44.3261 43.6872 43.839C43.3404 43.8928 43.0027 43.9942 42.6836 44.1403C42.0316 44.3915 41.3294 44.7923 40.8281 45.0434C41.1236 44.6416 43.1849 41.6831 44.4396 38.9235C45.6431 36.1659 46.1444 35.4627 46.3955 34.0091C46.5462 33.2566 46.494 32.2029 46.5462 31.2515C46.5984 30.3001 46.6959 29.4462 46.6447 28.8445C46.9461 29.2453 48.1496 30.3493 48.1998 32.8568C48.25 35.3642 47.0465 38.7758 45.7928 40.581C46.0932 40.6795 46.8958 40.778 47.6985 39.3775C48.5012 37.9771 48.5012 37.5713 48.8015 36.9696C48.8273 37.1022 48.8441 37.2365 48.8518 37.3714C48.8518 37.3714 50.0572 35.9128 50.6088 34.1066C50.7072 34.9092 51.0598 35.5612 50.5103 37.0159C50.0592 38.3198 49.4062 38.6212 49.4062 38.6212C49.6712 38.5604 49.9251 38.4588 50.1587 38.3198C50.2572 38.5168 50.2089 38.7216 50.3556 38.8221C50.5024 38.9225 50.657 39.0191 50.7072 39.1727C50.8569 38.9757 51.0578 38.7216 51.1081 38.5207C51.0578 38.9216 51.0096 40.7278 51.2066 41.6309C51.6074 41.5807 52.0092 41.5807 52.3096 40.8282C52.1126 41.5304 52.1126 41.9313 52.2594 42.533C52.421 42.4304 52.5581 42.2935 52.6612 42.1322H52.6651Z" fill="#C0993A"/>
<path fill-rule="evenodd" clip-rule="evenodd" d="M39.2237 13.593C38.8833 13.7005 38.5277 13.7514 38.1709 13.7437C37.5681 13.7437 37.769 13.4926 36.8167 13.4926C35.4123 13.4926 30.4466 14.2952 29.5937 14.2952C28.992 14.3454 31.4994 14.5907 31.4994 14.5907L37.8193 14.6892L39.073 14.5907L39.525 13.6383L39.2237 13.593Z" fill="#A88F33"/>
<path fill-rule="evenodd" clip-rule="evenodd" d="M22.8752 25.9313C22.8752 25.9313 22.0726 26.5331 21.721 27.0354C21.3694 27.5377 21.2197 27.8371 20.8179 28.1886C20.9049 28.2018 20.9937 28.184 21.069 28.1384C21.0692 28.1928 21.0516 28.2457 21.0188 28.2891C21.1253 28.2989 21.2283 28.3326 21.3201 28.3876C21.1993 28.4657 21.112 28.5863 21.0755 28.7256C21.0391 28.8648 21.0561 29.0127 21.1232 29.14C21.186 29.229 21.2684 29.3023 21.364 29.3544C21.4596 29.4065 21.5659 29.4359 21.6747 29.4404C21.6747 29.4404 21.5762 29.6915 21.9761 29.6915C22.7787 29.6413 23.6306 29.2897 24.0827 29.3902C24.4835 29.4887 24.7347 29.5409 25.035 30.0422C25.3354 30.5434 25.5875 30.5937 25.5875 30.5937C25.721 30.2255 25.7701 29.8321 25.7313 29.4424C25.8914 29.0786 25.9768 28.6865 25.9825 28.2891L25.7313 26.2829L24.5781 24.7781L23.0722 25.631L22.8752 25.9313Z" fill="#E3C571"/>
<path fill-rule="evenodd" clip-rule="evenodd" d="M24.3262 25.6309C24.3262 25.6309 24.4247 25.8811 24.9289 25.9313C24.8946 25.9912 24.8772 26.0593 24.8787 26.1283C24.8823 26.1966 24.8994 26.2635 24.9289 26.3252C24.9782 26.275 25.0274 26.275 25.0786 26.2268C25.1288 26.3252 25.0284 26.5271 25.0786 26.6276C25.0786 26.7261 25.1288 26.7783 25.1771 26.8787C25.177 26.8721 25.1782 26.8655 25.1806 26.8593C25.1831 26.8532 25.1868 26.8476 25.1915 26.8429C25.1962 26.8382 25.2018 26.8345 25.2079 26.832C25.2141 26.8296 25.2207 26.8284 25.2273 26.8285C25.2273 26.7783 25.3258 27.1289 25.5789 27.3298C25.5789 27.2796 25.5789 27.2796 25.6291 27.2313C25.6291 27.2815 25.6784 27.382 25.6784 27.4283C25.6718 27.4284 25.6653 27.4272 25.6592 27.4247C25.653 27.4222 25.6475 27.4185 25.6429 27.4138C25.6383 27.4091 25.6347 27.4035 25.6323 27.3974C25.63 27.3912 25.6289 27.3846 25.6291 27.378C25.6542 27.7986 25.7042 28.2172 25.7788 28.6318C25.7788 28.5815 25.8291 28.5815 25.8291 28.5333C25.8268 28.6686 25.81 28.8034 25.7788 28.9351C25.7506 29.0841 25.7506 29.2371 25.7788 29.3862C25.8773 29.3359 25.9758 29.2355 26.0802 29.1892C26.2309 29.14 26.481 28.939 26.6317 28.487C26.7207 28.2432 26.7866 27.9916 26.8287 27.7356C26.8838 27.8269 26.9175 27.9296 26.9272 28.0359C26.9272 28.1866 27.1773 28.0862 27.1773 28.0862L27.2276 27.5346L27.5289 26.2809L27.8293 25.4783L29.1835 23.3716L31.5994 21.5162L33.706 22.0185L35.5112 19.6105L32.4522 17.755L29.4927 18.0554L26.8336 21.7171L24.727 25.0272L24.3252 25.6299L24.3262 25.6309Z" fill="#D8B65B"/>
<path fill-rule="evenodd" clip-rule="evenodd" d="M39.6237 20.3137C39.3809 20.3924 39.1459 20.4933 38.9215 20.6151C38.4202 20.8652 38.0194 20.9657 37.8185 21.3675C37.7037 21.5849 37.6365 21.8243 37.6215 22.0697C37.8017 21.9933 37.9862 21.9275 38.174 21.8727C38.371 21.8225 38.6251 21.8225 38.6251 21.923C38.6251 21.9732 38.5749 22.0214 38.5266 22.0736C38.5266 22.0736 38.9274 22.0736 38.9274 22.2706C38.9155 22.4471 38.8643 22.6187 38.7777 22.7729C38.6793 22.8714 38.3759 23.023 38.3257 23.1235C38.2272 23.3746 38.3759 23.3746 38.3257 23.5755C38.2755 23.7765 38.1287 24.1271 37.5733 24.779C37.274 25.1224 37.0057 25.4915 36.7716 25.8821C36.5955 25.5841 36.4603 25.2638 36.3698 24.9297C36.2713 24.979 35.7178 25.2803 35.7178 25.2803L34.4641 20.8662L34.5143 20.5707C34.588 20.4468 34.639 20.3108 34.665 20.1689C34.468 20.1187 34.468 20.0704 34.2129 19.8183C33.9578 19.5662 33.7619 19.2668 33.3108 19.0659C33.2606 18.9674 33.1601 18.8148 32.8587 18.7143C32.5584 18.6651 32.3575 18.6158 32.3575 18.6158C32.4591 18.5769 32.5466 18.5083 32.6086 18.4188C32.3644 18.4906 32.1106 18.5239 31.8562 18.5173C31.4543 18.5173 31.4041 18.4671 31.154 18.5173C30.9038 18.5676 30.6517 18.668 30.5512 18.3204C30.4527 18.2219 30.2006 18.3204 29.9997 18.6217C29.7988 18.9231 29.7042 19.1732 29.2975 19.2737C29.262 19.4511 29.1954 19.6209 29.1005 19.775C29.002 19.972 28.7992 20.1758 28.548 20.427C28.1472 20.878 28.2476 21.6305 27.5957 22.183C26.9939 22.7345 27.6941 20.6279 27.6941 20.6279L28.6859 18.2573L31.4947 15.4997L35.8586 15.1993L36.2595 17.4556L38.3661 18.2081L39.6198 20.3147L39.6237 20.3137Z" fill="#D3AE4D"/>
<path fill-rule="evenodd" clip-rule="evenodd" d="M40.277 20.8149L38.4708 18.1558L37.217 17.1532C37.217 17.1532 36.3139 15.4977 36.2637 15.4474C36.2135 15.3972 35.3616 15.2968 34.8091 15.2968L34.9076 15.5479C35.006 15.5981 35.1587 15.6464 35.2089 15.7449C35.4591 16.0452 35.6098 16.5475 35.0582 17.099C35.2124 17.1794 35.3864 17.2136 35.5595 17.1975C35.3626 17.4477 34.9578 17.8997 34.9076 18.3508C34.8573 18.7014 35.1045 18.8019 35.1045 18.8019C34.8792 19.0881 34.7555 19.4412 34.7529 19.8054C34.9073 19.6257 35.0752 19.4581 35.2552 19.3041C35.6594 19.001 36.0799 18.7202 36.5148 18.4631C36.5148 18.5616 36.5148 18.66 36.5651 18.7132C36.5651 18.7132 37.217 18.1617 37.7686 18.4128C38.0197 18.5113 37.9192 18.8639 37.9192 18.8639C37.9192 18.8639 38.2698 18.7132 38.521 18.9624C38.7721 19.2116 39.1227 19.8153 39.2734 20.0664C39.4585 20.2693 39.6262 20.4874 39.7747 20.7184C40.0761 21.1695 40.277 21.6708 40.4769 22.2223C40.4769 22.0253 40.5271 21.721 40.8787 21.721L40.277 20.8179V20.8149Z" fill="#CAA13E"/>
<path fill-rule="evenodd" clip-rule="evenodd" d="M12.8907 28.2891C12.8907 28.2891 12.74 27.9878 12.8907 27.3358C13.0414 26.734 13.2413 26.4327 13.2915 25.4803C13.3418 24.5772 13.9435 23.4239 13.9435 23.4239L15.5991 22.6715L16.7523 22.967L17.1039 24.5221L15.5991 25.3247C15.506 25.5769 15.329 25.7894 15.0978 25.9265C14.6959 26.1776 14.0942 26.4278 13.9435 26.7291C13.8481 26.9009 13.7815 27.0872 13.7465 27.2806C13.6223 27.2545 13.4935 27.2587 13.3713 27.293C13.249 27.3273 13.1368 27.3906 13.0443 27.4776C12.8937 27.8282 12.9459 28.0794 12.8937 28.2803L12.8907 28.2891Z" fill="#F4EFC8"/>
<path fill-rule="evenodd" clip-rule="evenodd" d="M16.251 27.8872C16.1446 27.9663 16.0585 28.0696 15.9999 28.1886C15.9014 28.0379 15.6493 27.0353 15.6493 26.1322C15.6493 25.2291 15.5991 25.0282 15.8 24.7278C16.0009 24.4274 16.8026 24.126 16.7021 23.5745C16.6036 23.0722 16.1004 22.8221 15.5488 22.9718C15.148 23.0703 14.8466 23.9251 14.3956 24.3762C14.0942 24.7278 13.6934 24.6776 13.5929 24.8282C13.4422 25.0784 13.5929 25.3295 13.5427 25.4802C13.5427 25.5305 13.392 25.8308 13.1911 26.1322C12.74 26.8344 11.9374 27.7868 11.8369 28.6396C11.8871 28.1384 11.8369 28.1384 11.9876 27.5868L11.8891 27.4362L12.3914 25.7806L12.74 24.3723L13.4925 22.0657L14.7994 19.7119L16.0531 18.3075L17.357 18.406L17.5077 20.4121L18.2602 24.1241L19.8655 26.08L17.3048 27.7848L16.251 27.8833V27.8872Z" fill="#EBCC73"/>
<path fill-rule="evenodd" clip-rule="evenodd" d="M17.0537 28.5895C16.955 28.6162 16.851 28.6162 16.7523 28.5895C16.6538 28.5392 16.6026 28.491 16.6026 28.4398C16.6519 28.3895 16.7523 28.2891 16.7523 28.2428C16.7553 28.2224 16.7534 28.2016 16.747 28.1821C16.7405 28.1625 16.7296 28.1447 16.7151 28.1301C16.7005 28.1155 16.6828 28.1045 16.6633 28.0979C16.6438 28.0913 16.623 28.0893 16.6026 28.0921C16.5479 28.0895 16.4942 28.1074 16.452 28.1423C16.3986 28.0892 16.3295 28.0547 16.255 28.0438H16.4057L15.9536 27.8932C16.1043 27.7947 16.3554 27.5928 16.5061 27.5928C16.6568 27.5928 16.7563 27.5425 16.7563 27.4943C16.6934 27.3741 16.5853 27.2838 16.4559 27.2432C16.5061 27.1929 16.5544 27.0925 16.4057 26.8423C16.2569 26.5922 16.3072 26.4405 16.3554 26.341C16.4238 26.2287 16.5084 26.1272 16.6066 26.0397C16.6425 25.9364 16.7118 25.848 16.8035 25.7885C16.8538 25.7383 17.0005 25.69 17.2054 25.6388C17.4102 25.5876 17.556 25.4881 17.6564 25.5886C17.6842 25.6121 17.704 25.6438 17.713 25.6791C17.722 25.7144 17.7198 25.7516 17.7067 25.7856C17.8205 25.7432 17.9421 25.7257 18.0632 25.7344C18.1844 25.743 18.3022 25.7776 18.4089 25.8358C18.7092 25.9865 19.5119 26.0869 19.5119 26.0869L19.8133 26.6384L17.9578 28.1935L17.2054 28.5944L17.0537 28.5895Z" fill="#E5C66B"/>
<path fill-rule="evenodd" clip-rule="evenodd" d="M19.6114 25.9815C19.6114 25.9815 19.0599 26.3824 18.9092 26.4828C19.0077 26.4828 19.1061 26.533 19.0599 26.6335C19.0136 26.734 18.6088 26.9851 18.4079 27.2352C18.2175 27.4697 18.0496 27.7216 17.9066 27.9877C17.8081 28.1384 17.2546 28.5392 17.0537 28.5894C17.4545 28.5894 18.3074 28.0881 18.659 28.0881C18.659 28.2388 18.7575 28.4397 18.9092 28.4397C19.3978 28.4927 19.8906 28.3871 20.3146 28.1384C21.0168 27.7375 20.7666 27.3859 21.067 27.185C21.6185 26.8344 21.8697 26.4828 22.171 26.2829C22.311 26.1818 22.4624 26.0975 22.6221 26.0317C22.6221 26.0317 22.6221 25.8811 22.7206 25.8811C22.7459 25.8833 22.7697 25.8944 22.7877 25.9124C22.8057 25.9304 22.8168 25.9542 22.8191 25.9796C23.1807 25.7301 23.5907 25.5593 24.0225 25.4783C24.0159 25.4784 24.0093 25.4772 24.0032 25.4747C23.997 25.4722 23.9914 25.4685 23.9867 25.4638C23.982 25.4592 23.9783 25.4536 23.9759 25.4474C23.9734 25.4413 23.9722 25.4347 23.9723 25.428L24.0225 25.3778L24.0728 25.3276C24.123 25.3778 24.123 25.5245 24.1713 25.6289C24.2697 25.5787 24.5219 25.0764 24.5219 25.0764L25.0232 23.5726V22.2194L24.6223 22.3178L21.5673 23.6238L19.7118 25.5305L19.6134 25.9815H19.6114Z" fill="#E6BD62"/>
<path fill-rule="evenodd" clip-rule="evenodd" d="M28.4891 19.2609C28.6482 19.2165 28.8003 19.1502 28.9412 19.0639C28.8848 19.3381 28.7636 19.5947 28.5876 19.8124C28.4022 20.0855 28.2347 20.3704 28.0863 20.6653C27.8893 21.0661 27.8352 21.7181 27.6352 21.9692C27.7337 21.919 27.8322 21.919 27.9307 21.8708C27.8237 21.9801 27.7249 22.0973 27.6352 22.2214C27.5368 22.372 27.3841 22.8241 27.0335 23.0742C26.6317 23.3254 26.1806 23.4761 25.6291 24.0276C25.1268 24.5791 24.5753 25.2813 24.2739 25.5827C24.4593 25.2533 24.5948 24.8981 24.6757 24.5289C24.726 24.2285 24.6757 23.8267 24.7742 23.4258C24.8727 23.025 24.8727 22.6734 25.2755 21.9712C25.6803 21.2207 26.4327 18.6601 26.4327 18.6601L27.9878 18.1578L28.4891 19.2609Z" fill="#B6933F"/>
<path fill-rule="evenodd" clip-rule="evenodd" d="M27.3356 18.3577C27.3356 18.3577 26.8845 19.0599 26.7338 19.6114C26.5831 20.163 26.7338 20.163 26.6353 20.4643C26.5851 20.6447 26.5851 20.8354 26.6353 21.0158C26.8001 20.7516 27.0231 20.5286 27.2873 20.3639C27.7394 20.1127 28.09 19.9128 28.2909 19.6617C28.4918 19.4105 28.6917 19.0097 29.1438 18.7083C28.9784 18.6657 28.8107 18.6328 28.6415 18.6098C28.8385 18.4129 29.3939 18.0573 29.9957 17.6565C30.5482 17.2557 30.5482 17.105 31.4503 16.6529C31.1499 16.7031 30.9992 16.6037 30.7481 16.6529C30.8466 16.4559 31.2001 16.3525 31.5508 15.9507C31.9023 15.6001 31.2996 15.0486 31.2996 15.0486L28.5873 16.7022L27.3336 18.3577H27.3356Z" fill="#C49937"/>
<path fill-rule="evenodd" clip-rule="evenodd" d="M19.9116 17.103L20.0121 16.6017L20.7645 15.348L21.6174 13.1409V10.1322L21.5169 8.42642L21.6676 7.27315L21.7681 6.92156L21.8685 6.77087L22.5205 7.12247L23.4729 8.37619L23.5231 10.7842L22.6702 14.5956L20.1125 17.4044L19.9116 17.103Z" fill="#DFC068"/>
<path fill-rule="evenodd" clip-rule="evenodd" d="M21.9689 6.62122C21.9689 6.62122 21.5671 6.62122 21.4676 8.326C21.3681 10.0308 21.3169 10.9349 21.2706 11.7868C21.2243 12.6387 21.0737 13.141 20.9693 13.6433C20.919 14.1445 20.8708 14.7965 20.6186 15.2476C20.5202 15.4446 20.3173 16.0502 19.7658 16.5023C19.2142 17.0036 18.3111 17.3542 18.2107 17.3542C17.9605 17.4044 16.8063 17.5049 16.3552 17.756C16.2045 17.8545 15.9041 17.953 15.6028 18.2573C14.7531 19.0615 14.0564 20.0132 13.5464 21.0661C12.6433 22.8724 11.6909 27.9877 11.6909 27.9877L11.8879 27.6371C11.8879 27.6371 11.9381 27.185 12.3902 26.3824C12.8422 25.5797 12.6905 24.6776 13.3425 23.1225C13.5937 22.5208 13.894 21.7683 14.2456 21.1164C14.8474 20.0635 15.5496 19.1604 16.2518 18.6591C16.9942 18.1611 17.8303 17.8196 18.709 17.6556L20.1174 16.7524C20.1174 16.7524 20.3685 16.3014 20.6699 15.7499C21.1209 14.9974 21.6724 14.1445 21.8231 12.941C22.0201 11.1348 21.572 9.93132 21.572 8.87851C21.572 7.8257 21.6222 7.02205 21.8231 6.82213C22.024 6.6222 21.9738 6.62516 21.9738 6.62516L21.9689 6.62122Z" fill="#A88F33"/>
<path fill-rule="evenodd" clip-rule="evenodd" d="M21.9695 14.7463C22.3353 13.816 22.637 12.8617 22.8726 11.8902C22.9218 11.64 23.0223 11.3387 23.0696 11.1378C23.2203 9.88404 23.2203 9.33252 23.0696 8.63032C22.9189 8.12902 22.4678 7.67697 22.1674 7.27614C21.9163 6.92454 21.8158 6.77484 21.8661 6.67439C21.9163 6.57393 22.1172 6.47742 22.3171 6.47742C22.7363 6.4947 23.1323 6.67449 23.4212 6.97871C23.822 7.43076 24.1234 8.98486 24.1234 8.98486L24.474 11.0422L25.3269 13.6501L21.9665 14.7532L21.9695 14.7463Z" fill="#C99E3D"/>
<path fill-rule="evenodd" clip-rule="evenodd" d="M27.7377 13.1912C27.64 13.2245 27.5341 13.2245 27.4364 13.1912C27.4413 13.2767 27.4261 13.3622 27.3918 13.4408C27.3576 13.5193 27.3054 13.5887 27.2394 13.6433C26.9892 13.5448 24.9821 13.6935 24.9821 13.6935C24.9821 13.6935 24.0297 13.5428 23.7284 12.2891C23.5314 11.4362 23.879 10.2829 23.7786 9.53148C23.5816 8.42745 23.3275 8.1773 23.3275 7.87593C23.291 7.66059 23.2742 7.44236 23.2773 7.22396C23.1824 7.18302 23.079 7.16579 22.9759 7.17373C22.9257 7.07524 23.0262 6.97676 22.8774 6.82312C22.9267 6.87236 23.3787 6.92161 23.88 7.37464C24.2809 7.77548 24.2809 7.87593 24.3311 7.97639C24.4296 8.07487 25.0333 8.57814 25.2844 9.12966C25.5356 9.68118 26.0871 11.387 26.1876 11.6381C26.2639 11.8183 26.365 11.987 26.4879 12.1394C26.7893 12.4398 27.2404 13.0927 27.7426 13.1922L27.7377 13.1912Z" fill="#B58634"/>
<path fill-rule="evenodd" clip-rule="evenodd" d="M24.376 7.97534C24.6773 8.47663 24.9777 9.02815 25.2289 9.53043C25.5302 10.2326 25.7302 10.7842 26.0817 11.2352C25.8848 10.6335 25.5302 9.4802 25.2791 9.02815C25.0821 8.62732 24.5769 8.12603 24.376 7.97534Z" fill="#A88F33"/>
<path fill-rule="evenodd" clip-rule="evenodd" d="M20.8652 16.452C20.8652 16.452 20.3639 16.6027 19.3613 17.104L18.4582 17.5551C17.7253 17.8885 16.9712 18.1734 16.2009 18.408L16.2994 18.5064C16.3017 18.6535 16.355 18.7951 16.4501 18.9073C16.3516 19.0058 15.3461 19.7099 15.6474 22.0677C15.8068 21.9839 15.9749 21.9178 16.1487 21.8707C16.199 21.8707 16.2472 22.0677 16.2994 22.0677C16.3979 22.0677 16.65 21.9692 16.9012 21.6156C16.9012 21.7663 16.7505 23.1707 17.5531 24.1241C17.7038 23.9271 18.1047 23.3214 18.1047 23.3214V23.1244C18.1434 22.6988 18.2276 22.2785 18.3558 21.8707C18.4988 21.4786 18.7207 21.1199 19.0078 20.8169L21.2148 17.6575L20.8633 16.454L20.8652 16.452Z" fill="#E6C367"/>
<path fill-rule="evenodd" clip-rule="evenodd" d="M18.8087 21.1163C18.7102 21.1666 18.6117 21.267 18.4581 21.267C18.4078 21.1163 18.3596 20.7155 18.655 20.2635C19.0056 19.7622 19.8083 19.06 20.0092 18.5084C20.1589 18.1569 20.1077 17.305 21.3132 16.2009C22.5669 15.0979 23.018 14.6961 23.018 14.6961L25.0241 13.6935L27.4863 14.6458L26.2828 19.4608L25.3294 21.7181L21.5673 21.0159L18.8097 21.1144L18.8087 21.1163Z" fill="#DCBA5A"/>
<path fill-rule="evenodd" clip-rule="evenodd" d="M20.2637 19.8124L20.7157 19.2106V18.8088C20.7157 18.8088 21.217 18.6591 21.8188 18.1066C22.3703 17.5551 23.1729 16.452 23.8751 16.5023C24.5774 16.6008 24.6276 18.0061 24.6778 18.408C24.728 18.8098 24.7763 19.7119 24.9289 20.2132C25.0816 20.7145 23.2695 22.5207 23.2695 22.5207L21.9655 23.4238L20.2637 19.8124Z" fill="#E9CE77"/>
<path fill-rule="evenodd" clip-rule="evenodd" d="M21.7183 24.7278C21.7183 24.7278 22.1201 24.1261 21.8167 23.9754C21.9421 23.7104 22.0931 23.4584 22.2678 23.223C22.2678 23.223 22.4648 22.6715 23.1709 22.0195C23.8771 21.3675 24.3242 20.9155 24.4247 20.4644C24.4822 20.1666 24.5152 19.8645 24.5231 19.5613C24.6216 19.6115 24.6738 19.6598 24.7743 19.712C24.8747 19.7642 25.4263 20.2133 25.3258 21.1164C25.2253 22.0195 24.9742 22.4203 24.9742 22.4203C24.9742 22.4203 24.6738 22.7217 24.4227 22.9216C24.1725 23.0723 24.0721 23.2732 23.6703 23.2732C23.7205 23.223 23.7687 23.223 23.8209 23.1747C23.8209 23.1747 23.4201 23.1245 23.169 23.3254C22.9178 23.5263 22.4707 24.1753 22.2196 24.3723C22.0459 24.4799 21.8786 24.5973 21.7183 24.7239V24.7278Z" fill="#CDAE50"/>
<path fill-rule="evenodd" clip-rule="evenodd" d="M38.9217 14.6459C38.3091 14.4286 37.6658 14.3102 37.016 14.2952C35.913 14.245 34.3569 14.3455 32.8028 14.3455C31.1482 14.3455 29.5931 13.794 27.4845 13.6433C27.1329 13.4463 26.281 12.5392 23.5225 14.4459C23.6722 14.4459 25.5286 14.0441 26.1816 14.7965C26.8336 15.5992 26.6326 16.9534 26.5322 17.2587C26.3815 17.9609 25.83 19.0137 25.6301 19.7661C25.4301 20.5186 25.4794 20.8692 25.3287 21.3714C25.178 21.8737 24.8274 22.1239 25.0273 22.7256C25.2785 22.5749 25.4291 22.5749 25.8802 21.5714C26.3313 20.5678 26.2318 19.8666 26.9842 19.0107C27.7367 18.1549 28.9402 16.9544 29.3912 16.7032C29.8433 16.4028 33.504 14.4971 37.3686 16.3024C38.2205 16.1517 38.9227 14.6468 38.9227 14.6468L38.9217 14.6459Z" fill="#D2A83E"/>
<path fill-rule="evenodd" clip-rule="evenodd" d="M25.0283 13.9436C25.0283 13.8934 25.0283 13.8451 24.978 13.8451C24.9406 13.7709 24.8898 13.7042 24.8283 13.6482C24.8283 13.6482 23.9252 13.4975 23.4742 13.5497C22.6715 13.6482 21.9191 14.6527 21.6177 15.155C21.3163 15.6573 20.8653 16.459 20.4142 16.8598C20.4142 16.8096 20.4142 16.7613 20.364 16.7613C20.364 16.7613 20.4142 16.8115 20.3138 16.8598C20.2133 16.9081 20.2635 16.9583 20.2635 16.9583L20.362 17.0568C20.4122 17.0568 21.1144 16.7554 22.0678 15.8533C23.1206 14.8999 23.873 14.3986 24.3241 14.248C24.5265 14.0857 24.7692 13.9815 25.0263 13.9466L25.0283 13.9436Z" fill="#C29637"/>
<path fill-rule="evenodd" clip-rule="evenodd" d="M42.6835 10.0317C42.6835 10.0317 42.5328 10.2287 42.3329 10.4828C41.8809 10.9851 41.2791 11.5366 40.7778 12.0881C40.2765 12.6396 39.724 13.0464 39.1253 13.7437C38.5265 14.4409 37.7711 15.2475 37.6204 15.4485C37.4707 15.6996 37.32 16.0502 37.32 16.2511C37.248 16.2098 37.1817 16.1592 37.123 16.1004C37.1733 16.1989 37.2215 16.2511 37.2737 16.3516C37.4244 16.5485 37.6243 16.7524 37.7248 16.9031C37.8502 17.0836 37.9359 17.2887 37.9759 17.5048C38.0262 17.5048 38.427 17.6033 38.9283 16.7524C39.4306 15.9497 40.0825 15.0476 40.0825 15.0476L41.1353 13.4925L41.7844 12.1886L42.587 10.7339L42.6855 10.0317H42.6835Z" fill="#AC8132"/>
<path fill-rule="evenodd" clip-rule="evenodd" d="M43.7376 9.0282C43.4363 9.27712 43.1514 9.54523 42.8847 9.83086C42.6336 10.1322 42.082 10.9349 42.082 10.9349L42.279 10.8847L43.3318 9.93131L43.7336 9.17888V9.0282H43.7376Z" fill="#A88F33"/>
<path fill-rule="evenodd" clip-rule="evenodd" d="M43.5867 50.1568C43.5949 49.9024 43.6824 49.6569 43.8369 49.4546C44.088 49.2045 44.6898 48.8529 45.2915 47.4485C45.8933 46.0441 45.9435 45.7437 45.9435 45.7437C45.9435 45.7437 44.8907 46.6458 44.1885 46.8969C44.3029 46.6699 44.4017 46.4353 44.4839 46.1947C44.3855 46.0963 44.0329 46.0441 43.9826 45.9978C44.1796 45.8008 44.284 45.2956 44.7351 44.945C45.2866 44.5431 46.2399 43.8409 47.0426 43.189C47.795 42.537 49.2999 41.0824 49.4998 40.6815C49.5547 40.7623 49.605 40.8462 49.6505 40.9327C49.6505 40.9327 48.8981 41.9352 48.4972 42.537C48.1456 43.0895 48.1959 43.3899 48.1959 43.3899L48.8981 43.0895C48.8981 43.0895 49.095 43.8409 48.1456 44.9952C48.5475 44.8445 48.6972 44.945 48.9483 44.7982C48.5475 45.0494 48.0452 45.3497 47.5439 46.3031C47.0426 47.2062 46.3906 48.259 45.2866 48.9622C44.1836 49.6142 43.5316 50.1155 43.5818 50.1657L43.5867 50.1568Z" fill="#A67A2E"/>
<path fill-rule="evenodd" clip-rule="evenodd" d="M40.778 15.1983C40.778 15.1983 40.3761 16.1005 40.2767 16.7524C40.2767 16.9031 40.2265 17.0538 40.2265 17.2547C40.2265 17.8565 40.2767 18.5587 40.128 18.859C40.102 18.7633 40.0498 18.6766 39.9773 18.6089C39.8788 18.8059 39.7803 19.511 39.6257 19.7622C39.5215 19.3014 39.4712 18.8301 39.476 18.3578C39.4749 18.0393 39.4917 17.721 39.5262 17.4044C39.476 17.6014 39.3755 17.9067 39.3293 18.0564C39.2308 17.9067 39.1786 17.756 39.0781 17.6053C39.0279 17.7038 38.9274 17.8565 38.8811 17.9569C38.8556 17.8073 38.8388 17.6564 38.8309 17.5049C38.8309 17.2547 38.7807 16.9031 38.8309 16.8027C38.9833 16.3591 39.2219 15.9501 39.5331 15.5992C40.0846 14.9974 40.6361 13.8432 40.7868 13.4926C40.9375 13.1419 41.6397 11.6371 41.6397 11.6371H42.1784L41.3758 13.3921C41.3758 13.3921 40.9247 14.3454 40.6736 14.7463C40.4224 15.0979 39.9211 16.1507 39.67 16.5023C39.8207 16.3053 39.9714 16.1507 40.1221 15.9498C40.319 15.8001 40.774 15.1983 40.774 15.1983H40.778Z" fill="#8C6228"/>
<path fill-rule="evenodd" clip-rule="evenodd" d="M43.7876 8.92871C43.6734 9.18926 43.5391 9.4405 43.3858 9.68016C43.0854 10.082 42.3832 10.5833 42.0316 10.9851C41.7303 11.3859 41.1285 12.489 41.3797 13.7427C41.5496 13.2111 41.8208 12.7175 42.1784 12.289C42.6797 11.6873 43.2312 10.9349 43.5326 10.3824C43.6782 10.0639 43.7777 9.72633 43.828 9.37978L43.9265 9.22909L43.8763 8.92871H43.7876Z" fill="#CBA94C"/>
<path fill-rule="evenodd" clip-rule="evenodd" d="M54.2205 43.2815C54.0998 42.9405 54.0156 42.5875 53.9693 42.2287C53.9191 41.7264 54.0678 41.627 53.8709 41.0242C53.7724 40.6736 53.5695 40.7238 53.5202 40.6736C53.471 40.6234 53.4218 40.0719 53.4218 39.7705C53.4218 39.4691 53.4218 39.0683 53.3715 38.9176C53.2731 38.8684 53.2208 38.8191 53.1204 38.4163C52.9697 38.0155 52.9234 37.8648 52.8693 37.7141C52.82 37.6156 52.6191 37.5172 52.6191 37.3635C52.6191 37.1124 52.8161 37.0119 52.8161 36.9617C52.8161 36.812 52.6654 36.9115 52.6191 36.9115C52.5689 36.8612 52.7698 36.4604 52.6693 36.4102C52.6191 36.3599 52.4724 36.6071 52.4182 36.5609C52.364 36.5146 52.3197 35.8587 52.2212 35.4568C52.1227 35.055 52.0242 34.7546 52.0242 34.6552C52.0242 34.5557 51.322 32.5485 51.1211 32.0463C50.9805 31.6354 50.8634 31.2168 50.7705 30.7925C50.7203 30.5424 50.672 30.0401 50.672 30.0903C50.6218 30.1406 50.672 30.3917 50.6218 30.3917C50.5716 30.3917 50.4711 29.4886 50.4248 29.3379C50.3785 29.1872 50.1737 28.7362 50.1235 28.3856C50.0732 28.0349 49.959 27.1348 49.8605 26.533C49.7968 26.2026 49.7639 25.867 49.762 25.5305C49.7715 25.1617 49.7547 24.7928 49.7118 24.4264C49.6133 23.7745 49.4104 22.9718 49.2105 22.5207C48.8589 21.6678 47.9568 19.4106 47.7559 18.859C47.7559 18.7083 47.9528 18.8088 47.9528 18.8088C47.9528 18.8088 48.4039 19.9128 48.7545 20.815C49.0559 21.6678 49.3572 22.4705 49.4567 22.5207C49.8426 23.2391 50.0974 24.0205 50.2091 24.8283C50.4061 26.2327 50.5105 27.5366 50.611 28.3895C50.6612 28.7903 50.7095 29.2414 50.8611 29.6432C51.0118 30.0943 51.2127 30.5956 51.5131 31.348C51.7277 31.8672 51.8958 32.4044 52.0154 32.9533C52.1139 33.5048 52.1139 33.9569 52.2124 34.2573C52.2626 34.5084 52.363 35.0097 52.564 35.7119C52.7649 36.4141 53.1155 37.3172 53.3164 37.8687C53.6154 38.7031 53.8501 39.5592 54.0186 40.4294C54.1171 40.9317 54.314 42.7369 54.2156 43.2855L54.2205 43.2815Z" fill="#A88F33"/>
<path fill-rule="evenodd" clip-rule="evenodd" d="M43.7878 8.87847L43.7376 8.9287C43.751 8.93499 43.7629 8.94391 43.7727 8.95493C43.7825 8.96595 43.79 8.97884 43.7947 8.99283C43.7994 9.00682 43.8012 9.02161 43.8 9.03632C43.7988 9.05102 43.7947 9.06534 43.7878 9.0784C43.7993 9.21438 43.7822 9.35125 43.7376 9.48022C43.6874 9.6772 43.6391 9.78061 43.6391 9.93129C43.6391 10.1824 43.6893 10.4326 43.3378 11.1348C43.2393 11.3318 43.1871 11.4864 43.1408 11.5868C43.0712 11.7444 42.9874 11.8954 42.8906 12.0379C43.0876 11.9394 43.7435 11.5366 44.0439 11.5868C43.7405 11.7765 43.4696 12.0136 43.2412 12.289C43.4408 12.3182 43.6435 12.3182 43.843 12.289C44.3955 12.1906 45.0475 11.9877 45.599 12.0379C46.3012 12.1364 46.0501 11.3357 46.0501 11.3357L45.3479 9.78061L43.9937 8.82825L43.7967 8.87847H43.7878Z" fill="#BE9C44"/>
<path fill-rule="evenodd" clip-rule="evenodd" d="M47.3 20.5648C47.3 20.5648 46.6982 19.963 46.4481 17.9057C46.1979 15.8483 46.2511 12.7893 46.2511 12.7893L45.7498 11.5858C45.7498 11.5858 45.6513 10.7832 45.3982 10.4818C45.1451 10.1804 44.6458 9.67915 44.3956 9.429C44.1455 9.17885 43.8934 8.87748 43.7437 8.82725C43.8421 8.67657 44.1445 7.97437 45.4987 7.97437C46.8528 7.97437 47.2547 8.7268 47.3541 8.97695C47.5048 9.22809 48.1066 10.4316 48.3577 12.6387C48.5547 14.8457 48.6088 14.9964 48.5547 15.7991C48.4688 16.6253 48.3346 17.4457 48.1529 18.2563C48.0022 19.1594 47.752 20.1118 47.3 20.5638V20.5648Z" fill="#A17C34"/>
<path fill-rule="evenodd" clip-rule="evenodd" d="M45.4425 22.3701C45.637 22.3742 45.8286 22.3219 45.994 22.2194C46.1909 22.2194 46.8971 22.3179 47.3984 21.6177C47.4533 21.774 47.473 21.9406 47.456 22.1054C47.439 22.2702 47.3857 22.4292 47.2999 22.571C47.3925 22.4688 47.516 22.3996 47.6515 22.374C47.6515 22.571 47.8485 23.1767 47.1 24.5811C47.2969 24.33 47.551 24.3841 47.752 24.33C47.752 24.5811 47.9026 25.4842 47.5008 25.9855C47.4282 26.086 47.3279 26.1633 47.2121 26.2079C47.0964 26.2525 46.9702 26.2625 46.8488 26.2367V26.0397C46.8395 25.9216 46.8227 25.8041 46.7986 25.6881C46.5971 25.6016 46.4109 25.4832 46.2471 25.3375C45.796 24.9366 45.1933 24.1842 45.1933 23.6317C45.1761 23.4675 45.217 23.3025 45.3087 23.1653C45.4004 23.028 45.5373 22.9272 45.6956 22.8803C45.6453 22.83 45.5971 22.7818 45.5971 22.7296C45.5468 22.6311 45.5468 22.4784 45.4464 22.378L45.4425 22.3701Z" fill="#8C6228"/>
<path fill-rule="evenodd" clip-rule="evenodd" d="M41.43 15.8504C41.43 15.8504 41.3798 15.8001 41.2793 16.0001C41.3208 15.8535 41.3378 15.7011 41.3295 15.549C41.3798 15.3983 41.4802 15.2978 41.5807 15.1482C41.5189 15.2403 41.4683 15.3395 41.43 15.4436C41.5506 15.2373 41.7028 15.0512 41.881 14.8921C42.078 14.7414 42.3331 14.6409 42.4326 14.5405C42.5311 14.3908 42.5311 14.3435 42.5311 14.3435C42.5311 14.3435 42.7822 14.1928 43.183 13.6915L43.38 13.4946C43.4785 13.4443 43.6814 13.3439 43.9315 13.2434C44.1827 13.0937 44.4831 12.8928 44.6337 12.8426C44.9853 12.6919 45.3359 12.6919 45.5369 12.4408C45.6875 12.3915 45.788 12.0399 45.788 11.6893C45.985 11.7878 46.9413 12.3915 47.2919 13.6955C47.543 14.6478 47.0949 16.1025 46.9413 16.8047C46.7876 17.5069 46.7443 18.0082 46.4902 18.3598C46.1888 18.7606 45.136 19.3633 44.8849 19.6637C44.6879 19.9149 44.032 20.5166 44.032 20.9677C44.0822 21.3193 44.4831 21.47 44.5333 21.5192C44.6318 21.5694 44.6318 21.6699 44.7844 21.6177C44.8821 21.5768 44.9829 21.5439 45.0858 21.5192C45.1843 21.5192 45.1843 21.5694 45.1843 21.5694H45.2828C45.2828 21.5694 45.2325 22.0215 44.1797 22.1722C44.0812 22.1722 44.029 22.2214 43.9286 22.2214C44.0793 22.1722 44.1255 22.1722 44.2802 21.9712C44.0832 21.8728 43.6282 21.8728 43.5277 21.8206C43.578 21.7703 43.6784 21.5694 43.7789 21.5192C43.8774 21.4207 43.7789 21.4207 43.6804 21.47C43.5297 21.5684 43.4293 21.6669 43.2786 21.7703C43.1279 21.8737 43.0284 22.0215 42.8275 22.1722C42.7917 22.0164 42.7908 21.8547 42.8248 21.6985C42.8589 21.5424 42.9271 21.3957 43.0245 21.269C42.9742 21.269 42.8275 21.466 42.7231 21.4197C42.7125 21.2341 42.7294 21.0479 42.7733 20.8672C42.8236 20.6171 43.1742 20.2152 43.1742 20.2152L44.7795 17.307L45.1311 15.0999L41.4191 15.8523L41.43 15.8504Z" fill="#92723A"/>
<path fill-rule="evenodd" clip-rule="evenodd" d="M41.3292 15.9497C41.3292 15.9497 41.2308 15.9999 41.4277 16.1467C41.3665 16.2233 41.3158 16.3078 41.277 16.3978C41.1786 16.4963 41.0801 16.5485 41.0801 16.648C40.9816 16.8449 40.9304 16.9493 40.9304 17.0498C40.912 17.3653 40.8264 17.6732 40.6792 17.9529C40.5808 18.0514 40.5286 18.2484 40.4281 18.404C40.2784 18.6551 40.1779 18.8048 40.1779 18.9053C40.1277 19.1022 40.0795 19.6075 40.0795 19.6075C40.1256 19.5388 40.1759 19.473 40.2301 19.4105C40.1762 19.5463 40.09 19.667 39.979 19.7621C40.0292 19.7119 40.2301 19.5651 40.5305 19.311C41.1266 18.7769 41.7638 18.2906 42.4362 17.8564C42.2446 17.9305 42.0397 17.964 41.8345 17.9549C41.9852 17.8042 43.1384 16.45 43.7412 16.3496C43.7602 16.3298 43.7747 16.306 43.7834 16.2799C43.792 16.2538 43.7948 16.2262 43.7914 16.1989L43.2891 16.1487L42.1861 16.3456L42.0354 15.543L41.3332 15.9438L41.3292 15.9497Z" fill="#B18E3E"/>
<path fill-rule="evenodd" clip-rule="evenodd" d="M43.0356 20.615C42.9141 20.7604 42.8281 20.932 42.7845 21.1163C42.6737 21.0214 42.5876 20.9011 42.5333 20.7657C42.3364 20.4644 42.032 20.0133 41.3801 20.2634C41.3801 20.0665 41.3298 19.9128 41.3801 19.7622C41.6816 19.57 41.9522 19.3333 42.1827 19.0599C42.4405 18.7632 42.6442 18.4236 42.7845 18.0564C42.883 17.9579 43.0858 17.8594 43.2858 17.7058C43.6374 17.4546 44.0382 17.1542 44.0884 16.8027C43.7691 16.9293 43.4293 16.9961 43.0858 16.9996C43.2828 16.9011 43.5871 16.8027 43.5369 16.4481C43.5916 16.4228 43.6424 16.3896 43.6876 16.3496C43.6374 16.3496 43.5891 16.2994 43.4906 16.2994C43.4906 16.2492 43.4404 16.2009 43.3921 16.2492L43.2936 16.2994C43.2074 16.2959 43.1217 16.3132 43.0435 16.3496C42.901 16.4378 42.7665 16.5383 42.6417 16.65C42.6808 16.6045 42.7139 16.5542 42.7402 16.5003C42.7402 16.5003 42.489 16.5505 42.2891 16.5988C41.9375 16.6973 41.5869 16.8942 41.1851 17.1001C41.2353 17.0499 41.2353 17.0016 41.2835 17.0016C41.3209 16.9959 41.3555 16.9783 41.382 16.9514C41.382 16.9514 41.3318 16.8529 41.382 16.8007C41.4866 16.5511 41.6219 16.3156 41.7848 16.0995C41.909 15.923 41.9775 15.7134 41.9818 15.4977L42.7845 15.0969L44.9915 14.5946L46.4462 14.6931L46.2492 15.6967L45.3963 17.4517L44.6409 19.0599L43.789 20.0133L43.0366 20.615H43.0356Z" fill="#543E26"/>
<path fill-rule="evenodd" clip-rule="evenodd" d="M46.6458 16.3014C46.6458 16.3014 45.7939 17.3542 45.5427 17.5551C45.6934 17.2045 46.6458 15.2476 46.9974 14.699C46.8989 14.6488 46.8004 14.6488 47.0476 13.6964C46.8506 14.1977 46.7462 14.4488 46.5956 14.5483C46.4459 14.699 46.3986 14.6468 46.2952 14.6468C46.2952 14.5966 46.3454 14.5483 46.3454 14.4971C45.9461 14.444 45.5445 14.4112 45.1419 14.3986C44.6899 14.3986 43.637 14.6488 43.0855 14.8999C42.6335 15.0969 42.3833 15.0969 42.2326 15.2013L41.9313 15.5017C41.881 15.5519 41.5807 15.6523 41.5304 15.7528C41.4802 15.8532 41.3797 15.9498 41.3797 16.0029C41.3797 16.0561 41.3295 16.0532 41.43 16.0532C41.4802 16.0532 41.6269 15.9547 41.881 15.803C42.1824 15.6523 42.533 15.4514 42.7842 15.351C43.5366 15.0506 43.7375 15.1008 44.0881 15.0506C44.4387 15.0004 44.941 14.8536 45.2414 14.8536C45.593 14.8536 46.1947 14.8536 46.3454 14.9038C46.2952 14.9541 46.2469 15.0023 46.2469 15.2545C46.2222 15.3574 46.1893 15.4582 46.1484 15.5558C45.9977 15.9567 45.6974 16.6589 45.5467 17.0607C45.2955 17.562 45.0454 17.9638 44.9449 18.214C44.8445 18.4641 44.5431 19.1171 44.2427 19.4677C43.9423 19.8183 43.8409 20.0202 43.7414 20.1197C43.642 20.2191 43.0392 20.6722 43.0895 20.8219C43.1879 20.7726 43.9414 20.5264 44.4436 19.9197C44.9459 19.3131 45.0414 18.9556 45.4925 18.6601C45.9436 18.3646 46.2449 17.8072 46.3956 17.3552C46.4459 16.8036 46.4459 16.653 46.6458 16.3023V16.3014Z" fill="#806031"/>
<path fill-rule="evenodd" clip-rule="evenodd" d="M27.8873 24.326C27.8873 24.326 27.7889 24.7781 27.5367 25.0283C27.2846 25.2784 26.8345 25.4301 26.7843 25.8309C26.7341 26.2318 27.2354 26.3824 27.2354 26.3824C27.2354 26.3824 26.9399 26.8345 26.9399 27.1851C26.9316 27.437 26.9484 27.689 26.9901 27.9375C26.9399 27.9878 26.8916 27.9878 26.8916 28.036C26.9269 28.2484 27.0327 28.4427 27.192 28.5875C27.4432 28.7845 27.6441 28.9391 27.7938 28.8889C27.7938 28.9391 27.844 28.9874 27.844 29.0396C27.9611 28.7444 28.0617 28.4429 28.1454 28.1365C28.2961 27.6854 28.3965 27.7849 28.4467 27.1831C28.497 26.5814 29.0485 25.5788 29.0485 25.5788L29.4493 24.7259L28.8476 24.2246L27.8942 24.3231L27.8873 24.326Z" fill="#B6903C"/>
<path fill-rule="evenodd" clip-rule="evenodd" d="M29.0417 25.1789C28.9106 25.3 28.7928 25.4347 28.6902 25.5807C28.5395 25.8309 28.3898 26.0318 28.1386 26.082C27.8875 26.1805 27.7378 26.1805 27.7378 26.4326C27.7378 26.6847 27.9879 26.7842 28.0884 26.8847C28.1703 26.9595 28.2314 27.0542 28.2659 27.1597C28.3004 27.2651 28.3071 27.3776 28.2854 27.4864C28.3839 27.4362 28.4823 27.3879 28.636 27.1348C28.7867 26.8344 29.6898 25.1287 29.6898 25.1287L29.0378 25.1789H29.0417Z" fill="#685026"/>
<path fill-rule="evenodd" clip-rule="evenodd" d="M32.6028 21.267C32.6028 21.267 32.7013 21.07 32.6028 20.9154C32.5043 20.7608 32.0503 20.7184 31.8002 20.5146C31.55 20.3107 31.2477 20.2132 30.9975 20.2634C31.0477 20.1649 31.1945 19.963 31.0477 19.963C30.9492 19.9128 30.4962 20.1127 30.3957 20.2132C30.2953 20.3137 30.0442 20.4102 29.9939 20.4643C29.9437 20.5185 29.8442 20.6613 29.797 20.615C29.7497 20.5687 29.6985 20.4643 29.6463 20.5165C29.5941 20.5687 29.145 20.9174 29.0445 21.1183C28.8683 21.5588 28.5937 21.9533 28.2419 22.2716C27.6903 22.7738 27.4898 23.1251 27.6401 23.3254C27.7898 23.5223 27.8903 23.3756 27.8903 23.5223C27.8984 23.691 27.8815 23.8599 27.84 24.0236C27.7898 24.2748 27.6903 24.5249 27.7898 24.5751C28.1414 24.6736 28.492 24.4767 28.5925 24.5249C28.7432 24.6756 28.494 25.1769 28.8938 25.2773C29.2444 25.3758 29.6463 25.1789 29.6463 25.1789L31.0005 24.4264L32.3044 23.7242L32.9564 22.4203L32.7052 21.3675L32.6068 21.269L32.6028 21.267Z" fill="#D4B968"/>
<path fill-rule="evenodd" clip-rule="evenodd" d="M31.3452 24.3722C31.3452 24.3722 31.0951 24.0216 31.3955 23.7203C31.6958 23.4189 32.0977 23.2692 32.2483 23.1185L32.1499 23.02C32.1913 22.9242 32.2533 22.8387 32.3314 22.7694C32.4095 22.7002 32.5018 22.6489 32.6019 22.6192C32.5642 22.5753 32.5182 22.5393 32.4664 22.5134C32.4147 22.4876 32.3583 22.4723 32.3005 22.4685C32.0494 22.4685 31.8997 22.6192 31.6486 22.6192C31.3974 22.6192 31.3974 22.5207 31.3974 22.5207C31.3974 22.5207 31.7992 22.4705 31.749 22.3237C31.6988 22.1268 31.6505 22.1268 31.6505 22.1268C31.6505 22.1268 32.403 21.8254 32.5034 21.6747C32.6531 21.524 32.6019 21.3241 32.6531 21.2236C32.7516 21.2236 33.2558 20.9725 33.4558 21.073C33.6557 21.1734 33.506 21.4748 33.506 21.4748C33.8645 21.2005 34.1851 20.88 34.4593 20.5214C34.7597 20.5717 34.8602 20.3245 35.0611 20.3245C35.3122 20.3245 35.7131 20.6761 35.8135 21.4285C35.8638 21.8293 35.9642 22.0805 35.8638 22.8329C35.8135 23.2337 35.8135 24.1871 35.9622 24.5879C36.0607 24.9395 36.2626 24.8893 36.2626 24.8893C36.2142 24.9997 36.1477 25.1013 36.0656 25.1897C35.915 25.3404 35.915 25.6417 35.915 25.7914C35.9248 25.898 35.9585 26.001 36.0135 26.0928C35.9419 26.189 35.8762 26.2893 35.8165 26.3932C35.7663 26.5438 35.6195 26.5901 35.4649 26.5901H35.2147C35.064 26.5901 35.0178 26.6404 34.9134 26.5901C34.809 26.5399 34.7164 26.4917 34.7627 26.1893C34.8129 25.8377 33.509 25.0853 33.509 25.0853L31.3452 24.3722Z" fill="#CCA849"/>
<path fill-rule="evenodd" clip-rule="evenodd" d="M28.8906 27.6873C28.8906 27.6873 29.3417 28.2891 31.2976 28.2891C32.2007 28.2891 32.5523 28.1906 32.7523 28.1384C32.9522 28.0862 33.7558 27.7868 34.5083 26.8847C35.2105 26.0318 35.0598 25.7304 35.0598 25.7304L34.6589 25.6802L33.3048 25.8771L29.3919 27.5327L28.8906 27.6834V27.6873Z" fill="#585136"/>
<path fill-rule="evenodd" clip-rule="evenodd" d="M30.3455 27.837C30.3455 27.837 28.686 28.1886 28.686 27.1348C28.686 26.081 29.7398 25.0281 29.99 24.8282C30.2401 24.6283 30.8931 24.4264 30.8931 24.4264H32.4482L32.7486 25.2291L32.5516 26.8846L30.3445 27.837H30.3455Z" fill="#252211"/>
<path fill-rule="evenodd" clip-rule="evenodd" d="M31.8504 24.7277C31.8504 24.7277 31.549 24.4263 30.7966 24.8262C30.0441 25.226 29.4926 26.0317 29.4424 26.8343C29.3921 27.4863 29.9939 27.9876 30.897 28.0378C31.3341 28.0803 31.7752 28.047 32.201 27.9393C32.1507 27.8891 31.9006 27.5385 31.9006 27.5385L31.8504 24.7297V24.7277Z" fill="#C3B378"/>
<path fill-rule="evenodd" clip-rule="evenodd" d="M31.5491 24.8785C31.5491 24.8785 31.4506 24.8283 31.2477 24.9288C31.0449 25.0292 30.7967 25.2794 30.5465 25.4803C30.3958 25.5788 30.2954 25.631 30.2451 25.7304C29.9438 26.1322 29.6434 26.734 29.7941 27.0354C29.9448 27.3367 30.4461 27.6873 31.75 27.4362L31.553 24.8756L31.5491 24.8785Z" fill="#E6D89C"/>
<path fill-rule="evenodd" clip-rule="evenodd" d="M31.1479 25.5304C31.1479 25.5304 30.9509 25.8308 30.9509 26.3823C30.9509 26.8846 31.2513 27.7375 32.3553 27.7867C33.2082 27.8369 33.7597 26.5832 34.3615 26.0819C34.8125 25.7303 35.1139 25.6801 35.1139 25.6801C35.1139 25.6801 34.6628 25.1788 33.4081 24.5268C32.1534 23.8749 30.749 23.7744 29.9976 24.778C30.3492 24.7277 31.5024 24.4766 31.5024 24.4766L32.0539 24.6736L31.1479 25.5304Z" fill="#252211"/>
<path fill-rule="evenodd" clip-rule="evenodd" d="M32.7526 26.2327C32.7024 26.1343 32.7024 26.0358 32.8511 26.0358C33.0018 25.9855 33.0481 26.0358 33.1023 26.1343C33.1564 26.2327 33.2007 26.3312 33.1525 26.3844C33.054 26.3844 32.8511 26.3844 32.7507 26.2347L32.7526 26.2327ZM32.5025 25.4803C32.5025 25.3818 32.5527 25.179 32.6995 25.2292C32.7255 25.2349 32.7497 25.247 32.7699 25.2643C32.7902 25.2817 32.8059 25.3037 32.8156 25.3285C32.8253 25.3533 32.8288 25.3801 32.8257 25.4066C32.8226 25.4331 32.8131 25.4584 32.7979 25.4803C32.7477 25.5305 32.6473 25.631 32.5478 25.5788C32.4976 25.5788 32.4976 25.5788 32.4976 25.4803H32.5025Z" fill="#6F674D"/>
<path fill-rule="evenodd" clip-rule="evenodd" d="M18.5083 25.8308C18.7736 26.0164 19.087 26.1211 19.4105 26.1322C19.8625 26.1322 20.4643 25.6309 20.7656 25.3295C20.9027 25.151 21.0536 24.9834 21.2167 24.8282L21.5122 24.5269C21.6106 24.4284 21.7091 24.2265 21.7633 24.1763C21.6227 24.3051 21.4718 24.4224 21.3122 24.5269C21.1057 24.6631 20.8875 24.7808 20.6603 24.8785C20.5096 24.9287 19.0549 25.6801 19.0549 25.6801L18.5034 25.8308H18.5083Z" fill="#AC924C"/>
<path fill-rule="evenodd" clip-rule="evenodd" d="M19.1104 21.9692C19.3155 21.8568 19.5348 21.7723 19.7623 21.7181C20.1632 21.6196 21.0161 21.5211 21.0161 21.5211L21.7183 21.8225L22.0196 22.8763L21.5174 23.9793L20.8654 24.3723L20.1179 23.1727L19.1104 21.9692Z" fill="#9F8E57"/>
<path fill-rule="evenodd" clip-rule="evenodd" d="M18.2072 22.9215L17.957 23.1185C18.0089 22.973 18.042 22.8214 18.0555 22.6675C18.1057 22.3159 18.3569 21.464 18.7577 21.0119C19.1595 20.5106 19.1595 20.5608 19.1595 20.5608C19.0901 20.5544 19.0205 20.5721 18.9626 20.6111C19.165 20.3325 19.4008 20.0798 19.6648 19.8586C20.0164 19.6617 20.1158 19.6075 20.4674 19.7602C20.819 19.9128 20.9185 20.0113 21.1696 20.0113C21.4208 20.0113 21.6207 19.7099 21.6207 19.7099C21.6207 19.7099 21.6709 19.8606 21.471 20.2614C21.2711 20.6623 20.5117 21.4177 20.5117 21.4177L18.9567 22.4705L18.2042 22.9215H18.2072Z" fill="#EAC970"/>
<path fill-rule="evenodd" clip-rule="evenodd" d="M19.3613 21.8688C19.3613 21.8688 20.5146 22.0194 20.8652 21.7181C20.8651 21.7247 20.8663 21.7313 20.8688 21.7375C20.8712 21.7436 20.8749 21.7492 20.8796 21.7539C20.8843 21.7586 20.8899 21.7623 20.8961 21.7648C20.9022 21.7672 20.9088 21.7684 20.9154 21.7683C20.9156 21.7749 20.9144 21.7815 20.9119 21.7877C20.9094 21.7938 20.9057 21.7994 20.901 21.8041C20.8963 21.8088 20.8908 21.8125 20.8846 21.815C20.8784 21.8175 20.8718 21.8187 20.8652 21.8185H20.9637C20.991 21.8151 21.0187 21.8179 21.0447 21.8266C21.0708 21.8353 21.0946 21.8497 21.1144 21.8688H21.2129C21.2129 21.919 21.1626 21.9672 21.1144 22.0194C21.1646 22.0194 21.2129 22.0194 21.2129 22.0697C21.22 22.1392 21.2022 22.209 21.1626 22.2666H21.012C21.0218 22.3732 21.0554 22.4762 21.1104 22.568C21.2089 22.765 21.4118 22.9688 21.7122 22.9186C21.7122 22.9186 21.8629 23.2702 21.2109 24.1231C21.0985 24.2473 20.9977 24.3815 20.9095 24.5239C20.8545 24.6157 20.8209 24.7187 20.811 24.8253C20.811 24.8253 21.9151 24.4235 22.2155 23.4209C22.5108 22.5159 22.6135 21.5591 22.5168 20.6121C22.5234 20.4233 22.4898 20.2354 22.4183 20.0606C22.2676 19.7592 21.8166 19.8094 21.6659 19.9621C21.4158 20.2122 20.9637 20.8642 20.4122 21.266C19.8607 21.6166 19.8104 21.6669 19.3594 21.8678L19.3613 21.8688Z" fill="#D7BC6B"/>
<path fill-rule="evenodd" clip-rule="evenodd" d="M18.006 23.2731C18.006 23.2731 17.809 23.4238 17.6554 23.8749C17.5569 24.3762 17.7539 24.9779 17.9065 25.1788C18.005 25.3758 18.3074 25.881 18.9091 25.9312C19.0487 25.9284 19.1859 25.8948 19.3109 25.8328C19.5121 25.7457 19.6982 25.6273 19.8625 25.4821C20.1126 25.2852 20.3135 25.1306 20.3135 25.1306C20.2633 25.0803 18.7584 23.8768 18.7584 23.8768L18.2069 23.2249L18.0099 23.2751L18.006 23.2731Z" fill="#585136"/>
<path fill-rule="evenodd" clip-rule="evenodd" d="M19.4104 25.3296C19.5833 25.3 19.752 25.2494 19.9127 25.1789C20.1097 25.0804 18.8589 23.8247 18.8589 23.8247L18.9574 25.1789L19.4104 25.3296Z" fill="#453A25"/>
<path fill-rule="evenodd" clip-rule="evenodd" d="M18.1064 23.1727C18.0474 23.2858 17.9974 23.4034 17.9567 23.5243C17.9064 23.7744 18.0059 24.5771 18.0551 24.8282C18.1044 25.0794 18.457 25.5304 18.908 25.5304C19.1592 25.5304 19.56 25.3798 19.56 25.3335C19.56 25.2872 19.1592 25.235 19.0587 25.0321C18.9883 24.8395 18.9549 24.6353 18.9602 24.4304C18.9602 24.2807 18.9602 24.0797 19.0105 24.0295C19.1611 23.8788 19.1611 23.4278 19.1611 23.4278L19.6624 22.5247H19.0105L18.2078 23.0259L18.1064 23.1727Z" fill="#84754B"/>
<path fill-rule="evenodd" clip-rule="evenodd" d="M17.9067 23.4741C17.9067 23.4741 18.408 22.7719 18.8591 22.6212C19.3102 22.4705 19.5111 22.571 19.5111 22.571L19.2609 23.2732L18.8591 23.674L18.9093 23.871C18.9093 23.871 18.8591 24.4225 19.2107 24.8243C19.5623 25.2261 19.8627 25.2251 20.0636 25.2251C20.2645 25.2251 20.7156 25.0745 20.9657 24.5229C21.1627 23.9714 21.3675 23.3194 20.9155 22.6172C20.5146 21.915 19.7622 21.915 19.6115 21.915C19.4608 21.915 18.3076 21.9653 17.9067 23.4701V23.4741Z" fill="#252211"/>
<path fill-rule="evenodd" clip-rule="evenodd" d="M31.0494 25.7304C30.8524 25.6319 31.0494 25.1286 31.2463 24.9287C31.474 24.6979 31.7763 24.5555 32.0992 24.5269C32.2499 24.5269 32.4006 24.6253 32.4006 24.7238C32.3504 24.9208 32.0992 25.1749 31.8491 25.3758C31.4985 25.6801 31.2463 25.8308 31.0494 25.7304Z" fill="#F7F7E7"/>
<path fill-rule="evenodd" clip-rule="evenodd" d="M20.7157 22.8221C20.7927 22.8229 20.8676 22.8473 20.9303 22.8921C20.993 22.9368 21.0405 22.9997 21.0663 23.0723C21.1165 23.223 20.9678 23.5746 20.7157 23.5746C20.5187 23.5746 20.3641 23.3234 20.3641 23.223C20.3576 23.1535 20.3754 23.0839 20.4143 23.026C20.4143 23.026 20.4646 22.8724 20.7157 22.8221Z" fill="#F8F6DE"/>
<path fill-rule="evenodd" clip-rule="evenodd" d="M18.7086 22.9217C18.4884 23.026 18.3112 23.2035 18.2073 23.4239C18.1008 23.6772 18.0668 23.9551 18.1088 24.2266C18.159 24.3763 18.2595 24.6777 18.3599 24.7781C18.4604 24.8786 18.5569 24.9751 18.6613 24.9751C18.7657 24.9751 18.9115 24.7249 18.9115 24.5742C18.9115 24.4236 18.9115 23.8218 19.1084 23.5214C19.2069 23.2703 18.7066 22.9187 18.7066 22.9187L18.7086 22.9217Z" fill="#D4C38B"/>
<path fill-rule="evenodd" clip-rule="evenodd" d="M18.7586 22.9216C18.7084 22.9718 18.6089 23.0201 18.6089 23.0723C18.6591 23.1225 18.859 23.1708 18.9043 23.3234C18.9475 23.3798 18.9748 23.4466 18.9836 23.5171C18.9925 23.5875 18.9824 23.659 18.9546 23.7243C19.0048 23.674 19.1053 23.6258 19.1515 23.5746C19.25 23.4239 19.4017 23.2732 19.5022 23.2732C19.6026 23.2732 19.6528 23.3234 19.7533 23.3234C19.8538 23.3234 20.0044 23.2732 20.0044 23.1727C20.0547 23.0221 19.8075 22.8724 19.6528 22.9216C19.6815 22.8651 19.6921 22.8011 19.6831 22.7384C19.6741 22.6756 19.646 22.6172 19.6026 22.571C19.5041 22.4725 19.1515 22.6695 19.0511 22.7217C18.9526 22.7217 18.7497 22.9187 18.7497 22.9187L18.7586 22.9216Z" fill="#E2D59D"/>
<path fill-rule="evenodd" clip-rule="evenodd" d="M26.935 33.8062L27.6874 33.5551L27.8844 33.7057C27.8844 33.7057 28.0351 34.0563 28.2862 34.0563C28.1877 34.207 27.9848 34.3577 28.0351 34.4582L28.1336 34.6551C28.1336 34.6551 27.4313 35.8084 28.7855 36.9617C28.4842 37.1124 28.0331 37.263 27.8322 37.3635C27.9829 37.4137 28.3345 37.462 28.4349 37.6137L28.6861 37.8648C28.8367 37.9633 28.883 38.0618 28.883 38.1159C28.7845 38.0657 28.4812 37.919 28.432 38.0657C28.3827 38.2125 27.1773 38.1642 27.1773 38.1642L25.1209 38.565C25.1209 38.565 25.2194 38.3681 24.9702 38.1642C24.72 37.9131 24.4187 38.1642 24.0681 37.9131C23.616 37.5615 23.616 37.2108 23.4663 37.0602C23.616 36.9617 23.8671 36.8632 24.5694 36.7598C24.533 36.7097 24.5094 36.6515 24.5007 36.5902C24.4919 36.5289 24.4982 36.4665 24.5191 36.4082C24.5693 36.2112 24.8205 36.1127 24.7703 35.9069C24.8687 35.8567 24.9209 35.8567 25.2213 35.5051C25.4725 35.1545 25.6724 35.054 25.8733 35.054C26.0703 35.0038 26.2249 35.054 26.5755 34.7034C26.8266 34.4523 26.7725 34.2513 26.7725 34.2513C26.7725 34.2513 27.0236 34.1529 26.9232 33.8003L26.935 33.8062Z" fill="#CBAC5A"/>
<path fill-rule="evenodd" clip-rule="evenodd" d="M24.6778 33.9067C24.6778 33.8564 24.728 33.8082 25.0284 33.8564C25.3288 33.9047 27.0848 33.7057 27.5368 33.6595C28.0381 33.6092 29.7439 33.6595 30.5466 33.8101C31.3985 34.0071 32.2011 34.211 32.6522 34.3114C33.054 34.4099 33.2047 34.4621 33.1545 34.5084C33.1545 34.5586 33.056 34.6069 33.0038 34.6069C32.9516 34.6069 31.5994 34.2051 31.1985 34.1046C30.3217 33.934 29.4324 33.8352 28.5394 33.8092C27.787 33.8092 27.4866 33.8092 26.8849 33.8594C26.2831 33.9579 25.2293 34.0564 24.9289 34.0101C24.6286 33.9638 24.6778 33.9598 24.6778 33.9116V33.9067Z" fill="#D6BC6F"/>
<path fill-rule="evenodd" clip-rule="evenodd" d="M28.8409 37.9692C28.8409 37.9692 29.8937 38.5207 30.2955 39.2229C30.3384 39.2855 30.3685 39.3559 30.3841 39.4301C30.3997 39.5043 30.4006 39.5809 30.3866 39.6555C30.3726 39.73 30.344 39.8011 30.3025 39.8646C30.2611 39.9281 30.2075 39.9828 30.1448 40.0256C30.1448 40.0256 30.7466 40.0256 30.6461 40.3762C30.5959 40.5731 29.5933 41.1286 28.9413 41.43C28.2391 41.7304 28.2894 41.7304 27.9378 41.7806C27.6423 41.8308 26.7343 41.6821 26.5334 41.9313C26.4652 42.0047 26.4233 42.0987 26.4142 42.1985C26.4051 42.2983 26.4293 42.3982 26.4831 42.4828C26.5334 42.533 26.9352 42.5813 26.9352 42.5813C26.9352 42.5813 26.8367 42.8324 25.9819 42.8324C25.129 42.8826 24.8788 42.9309 24.8286 43.0294C24.7784 43.1279 24.9783 43.0796 25.3801 43.1279C25.7819 43.1761 26.3334 43.2264 26.3334 43.2264C26.1315 43.3578 25.9116 43.4594 25.6805 43.5277C25.129 43.6784 24.2771 43.7779 24.0259 43.9286C24.1552 44.019 24.289 44.1029 24.4268 44.1797C24.2298 44.2299 23.9255 44.3304 23.8752 44.3767L24.0722 44.4752C24.0722 44.4752 23.6202 44.9774 23.37 45.1281C23.1199 45.2788 21.6682 45.9406 21.1669 45.8421C19.9132 45.4905 19.7625 44.1364 19.4611 44.0359C19.01 43.8852 18.7589 44.1866 18.3581 43.9857C18.555 43.835 18.6594 43.7887 18.8091 43.6853C18.6122 43.5868 17.5554 42.8826 17.5554 42.8826C17.4569 42.6315 17.3053 42.3813 17.2048 42.1804C17.0078 41.8288 16.7025 41.3275 16.4524 40.9267C15.9501 40.0236 15.9501 39.5725 15.499 39.0703C15.5975 38.9718 15.8506 38.9718 15.8506 38.9718L19.6118 40.2284L26.2832 40.4254L28.0382 37.918L28.8409 37.9682V37.9692Z" fill="#DFC677"/>
<path fill-rule="evenodd" clip-rule="evenodd" d="M18.9595 41.7304C19.0097 41.7806 19.058 41.8289 19.1102 41.8289C19.2723 41.9301 19.4235 42.048 19.5612 42.1805C19.6114 42.082 19.7582 41.9835 19.963 42.1805C20.2132 42.3774 20.4643 42.2307 20.6652 42.279C20.8662 42.3272 20.8622 42.3774 20.8622 42.3774C20.9665 42.291 21.0856 42.2242 21.2138 42.1805C21.3645 42.1302 21.5093 42.082 21.7151 42.0298C21.8611 41.9783 22.013 41.9452 22.1672 41.9313C22.2656 42.0298 22.6685 42.4326 24.323 41.7806C25.8781 41.1789 26.2297 41.1286 26.4799 41.2291C26.5301 41.1789 26.5301 41.0321 26.9319 41.0784C26.9319 40.9287 26.5803 40.326 26.5803 40.326L24.7751 39.7242H23.7744L20.7657 40.2767L19.1102 41.2291L18.9595 41.7304Z" fill="#C4A859"/>
<path fill-rule="evenodd" clip-rule="evenodd" d="M17.9567 40.6776C17.9567 40.6776 18.006 40.979 18.4078 41.2291C18.6007 41.3684 18.7848 41.5194 18.9593 41.6812C19.018 41.6225 19.0687 41.5563 19.11 41.4842C19.1602 41.3857 19.2085 41.2331 19.3069 41.1829C19.5039 41.0844 20.0092 41.2813 20.1086 41.2331C20.2081 41.1848 20.1589 41.0361 20.2593 41.0361C20.4563 41.0361 20.6109 41.1868 20.7114 41.1868C20.8118 41.1868 20.9615 41.1868 21.0117 41.1366C21.062 41.0863 21.062 40.6855 21.3633 40.4344C21.6647 40.1832 22.0655 40.2847 22.166 40.3359C22.166 40.4344 22.166 40.587 22.363 40.6372C22.5599 40.6372 22.6141 40.587 22.7648 40.6875C22.9618 40.7377 23.1656 40.6875 23.2661 40.9888C23.3646 40.9386 23.5674 40.9386 23.5172 40.6372C23.673 40.5082 23.8082 40.3561 23.9181 40.1862C23.9683 40.0877 24.0687 40.0355 24.115 39.8848C24.312 39.8848 24.5159 39.8346 24.8172 40.0818C24.7168 40.1317 24.6665 40.1819 24.6665 40.2325C24.7577 40.2921 24.8269 40.38 24.8635 40.4826C24.962 40.5811 25.0132 40.7338 25.1137 40.7338C25.3106 40.784 25.6652 40.6835 26.067 40.7338C26.4688 40.784 26.7692 40.8844 26.9199 40.9849C26.9701 40.9347 26.9701 40.9347 27.1169 40.9849C27.2636 41.0351 27.368 41.0341 27.2154 40.8342C27.3138 40.8844 27.366 40.9327 27.4665 40.8844C27.565 40.786 27.6172 40.6875 27.8171 40.6875C28.0141 40.6372 28.1185 40.6875 28.2189 40.4905C28.3174 40.195 27.9176 40.195 27.9176 40.195C28.0663 40.0768 28.2011 39.942 28.3194 39.7932C28.5695 39.5431 28.8207 39.2919 28.9211 38.8911C29.0196 38.2381 28.3696 38.1387 28.3696 38.1387L25.2092 39.091L21.3476 38.8941L17.937 40.6993L17.9567 40.6776Z" fill="#927D49"/>
<path fill-rule="evenodd" clip-rule="evenodd" d="M15.095 31.5489C15.0162 31.6882 14.965 31.8413 14.9443 32C14.8941 32.3013 14.8941 32.2511 14.8458 32.5023C14.7956 32.6992 14.1436 34.859 14.3948 35.6114C14.6459 36.3639 15.0467 36.615 15.2969 37.2168C15.3366 37.3218 15.3871 37.4225 15.4476 37.5171C15.5461 37.919 15.4476 38.2194 15.5461 38.5709C15.61 38.7315 15.6944 38.8831 15.7972 39.022C16.0976 39.3234 16.5999 39.6238 16.7998 39.8749C17.1011 40.1763 17.5522 40.8282 18.1037 40.9287C18.4051 40.9789 18.8059 40.8302 19.1575 40.6273C19.4579 40.4304 19.6588 40.1763 19.9602 40.0256C20.1871 39.9368 20.4224 39.8708 20.6624 39.8286C21.0233 39.74 21.398 39.7229 21.7654 39.7784C22.117 39.8769 23.0192 40.13 23.5214 40.13C23.8944 40.1326 24.2659 40.0819 24.6245 39.9793C25.3769 39.7823 26.28 39.3775 26.8315 39.2269C27.1282 39.1425 27.4298 39.0767 27.7347 39.0299C28.236 38.9314 28.6368 38.7797 28.8377 38.4784C28.687 38.2814 28.4861 38.0273 27.4333 38.0273C26.28 38.0775 24.9258 38.7295 24.2236 38.83C23.5717 38.9284 23.2703 39.0269 22.5179 38.7315C21.7654 38.4803 21.7654 38.2794 21.7654 38.2794C21.7654 38.2794 21.013 37.7279 20.6624 36.3737C20.361 35.0195 20.6624 34.017 21.5143 33.0636C21.7113 32.8125 21.665 32.6126 21.665 32.6126C21.665 32.6126 22.2165 31.8601 22.0668 31.1579C21.9171 30.4557 20.8623 30.6054 20.8623 30.6054L15.095 31.5489Z" fill="#6E6342"/>
<path fill-rule="evenodd" clip-rule="evenodd" d="M15.9999 33.8564C15.9589 33.951 15.9417 34.0541 15.9496 34.1568C15.9496 34.3075 15.9999 34.4582 16.4017 34.9093C16.502 35.0061 16.5804 35.1235 16.6313 35.2533C16.6823 35.3831 16.7048 35.5224 16.6971 35.6617C16.6971 35.6617 16.8941 35.7119 17.3491 35.4647C17.7509 35.2677 17.8514 35.6154 17.8514 35.6154C17.9606 35.5597 18.0798 35.5262 18.202 35.5169C18.3085 35.5067 18.4114 35.4731 18.5034 35.4184C18.7653 35.6784 19.0508 35.9135 19.3563 36.1206C19.7069 36.3176 19.9078 36.4161 20.1077 36.3176C20.2584 36.2191 20.2584 35.967 20.2584 35.8665C20.2196 35.7765 20.1689 35.692 20.1077 35.6154C20.0092 35.4647 19.8123 35.2648 19.8123 35.1141C19.762 34.7625 20.0634 34.3115 20.0092 34.211C19.9551 34.1105 19.7079 34.0603 19.1563 34.3095C18.5546 34.408 15.9959 33.8584 15.9959 33.8584L15.9999 33.8564Z" fill="#39331F"/>
<path fill-rule="evenodd" clip-rule="evenodd" d="M17.3544 36.163C17.3544 36.163 17.054 35.8626 17.1574 34.5084C17.2765 34.5003 17.396 34.5175 17.508 34.5586C17.5573 34.5586 17.706 35.6115 17.3544 36.163Z" fill="#292311"/>
<path fill-rule="evenodd" clip-rule="evenodd" d="M15.2476 30.5463C15.2978 30.4961 15.3461 30.4961 15.3461 30.4478C15.2476 30.6448 14.7945 31.4002 15.1491 32.6047C15.5499 33.8081 16.5033 34.7113 17.6565 34.7605C18.86 34.8107 19.4618 34.209 20.164 33.3561C20.4653 33.0055 20.7667 32.5544 21.0671 32.3033C21.4689 31.8522 21.8195 31.7015 21.8195 31.2495C21.8195 30.3474 20.8662 29.9455 19.512 29.5447C18.1578 29.1439 16.9041 29.1931 16.2521 29.4462C15.7006 29.6974 15.3992 30.048 15.2486 30.5502L15.2476 30.5463Z" fill="#252211"/>
<path fill-rule="evenodd" clip-rule="evenodd" d="M19.6616 36.5648L19.7601 36.5146C19.7601 36.5146 19.8104 36.1138 19.9571 36.1138C20.0182 36.1412 20.0724 36.182 20.1157 36.2332C20.1589 36.2843 20.1902 36.3444 20.2073 36.4092C20.2092 36.4356 20.2054 36.462 20.1962 36.4868C20.1869 36.5116 20.1725 36.5341 20.1538 36.5527C20.1351 36.5714 20.1126 36.5859 20.0879 36.5951C20.0631 36.6043 20.0366 36.6081 20.0103 36.6062C19.7591 36.6564 19.6587 36.556 19.6587 36.556L19.6616 36.5648Z" fill="#3F3824"/>
<path fill-rule="evenodd" clip-rule="evenodd" d="M19.2109 34.859C19.2109 34.859 19.3094 34.8088 19.4611 34.9575C19.5596 34.9575 20.0136 34.9073 20.1633 35.0077C20.233 35.0524 20.2989 35.1028 20.3603 35.1584C20.3603 35.1584 19.859 35.2569 19.5576 35.1584C19.2109 35.0599 19.2109 34.859 19.2109 34.859Z" fill="#2D2815"/>
<path fill-rule="evenodd" clip-rule="evenodd" d="M21.5173 34.9103C21.5173 34.8601 21.2218 34.7133 20.9658 34.6099C20.9155 34.6099 20.9155 34.6601 20.8673 34.6601C20.819 34.6601 20.817 34.5616 20.817 34.5616L20.6673 34.6601C20.6673 34.6601 20.6171 34.7104 20.7176 34.7586C20.8201 34.7955 20.9079 34.8646 20.9677 34.9556C20.9945 35.0019 21.0116 35.0531 21.018 35.1063C21.1206 35.1071 21.2225 35.0901 21.3193 35.056C21.3696 35.056 21.5163 34.9576 21.5163 34.9054L21.5173 34.9103Z" fill="#82764F"/>
<path fill-rule="evenodd" clip-rule="evenodd" d="M18.9097 35.9631C18.9236 35.8661 18.9717 35.7773 19.0454 35.7128C19.1192 35.6483 19.2135 35.6124 19.3115 35.6115C19.6621 35.5613 19.7123 35.9128 19.7123 35.9128L19.5154 36.1098C19.5154 36.1098 19.3657 35.9128 18.9136 35.9591L18.9097 35.9631Z" fill="#2D2816"/>
<path fill-rule="evenodd" clip-rule="evenodd" d="M21.116 34.4583C20.9456 34.6038 20.7344 34.6929 20.5113 34.7134C20.461 34.6631 20.4128 34.5627 20.5113 34.412C20.6098 34.2613 20.7624 34.215 20.8619 34.2613C21.0155 34.2574 21.116 34.3076 21.116 34.4583Z" fill="#574F35"/>
<path fill-rule="evenodd" clip-rule="evenodd" d="M21.9193 34.7132C21.9193 34.663 21.8691 34.663 21.9193 34.6148C21.9695 34.5665 22.07 34.5163 22.1163 34.5645V34.663C22.1197 34.6901 22.1169 34.7177 22.1082 34.7436C22.0995 34.7695 22.0851 34.7931 22.066 34.8127C22.0158 34.863 21.9154 34.9112 21.8691 34.8629C21.8188 34.8629 21.8188 34.7645 21.8188 34.7645C21.857 34.7588 21.8923 34.7409 21.9193 34.7132ZM22.8224 34.1607C22.8224 34.1105 22.9209 34.0623 22.9721 34.0623C23.0706 34.0623 23.0706 34.1125 23.0706 34.1607C23.1208 34.1607 23.1208 34.1607 23.1208 34.211C23.1598 34.2689 23.1775 34.3385 23.1711 34.4079C23.0726 34.4079 22.9741 34.4582 22.9741 34.4079C22.9219 34.4079 22.8224 34.1568 22.8224 34.1568V34.1607Z" fill="#82764F"/>
<path fill-rule="evenodd" clip-rule="evenodd" d="M21.0161 34.8118C21.1026 34.8573 21.1864 34.9076 21.2673 34.9624C21.2213 35.0014 21.1707 35.0345 21.1166 35.0609C21.1297 35.014 21.1272 34.9642 21.1095 34.9188C21.0917 34.8735 21.0596 34.8352 21.0181 34.8098L21.0161 34.8118Z" fill="#6E6342"/>
<path fill-rule="evenodd" clip-rule="evenodd" d="M20.7656 33.6555C20.7154 33.6053 20.8641 33.557 20.9153 33.557C20.9665 33.557 21.0138 33.6072 21.066 33.6072C21.1034 33.6015 21.1379 33.5839 21.1644 33.557H21.3151L21.3654 33.6072C21.3654 33.557 21.3654 33.5087 21.4156 33.5087C21.4352 33.4897 21.4588 33.4753 21.4847 33.4666C21.5106 33.4579 21.5382 33.4551 21.5653 33.4585C21.5653 33.5087 21.6155 33.6092 21.6155 33.6555C21.6155 33.7018 21.4658 33.7057 21.4185 33.7057C21.4726 33.7681 21.5226 33.8339 21.5682 33.9027C21.5682 33.9027 21.4698 34.0012 21.4185 34.0012C21.2679 34.0012 20.866 33.75 20.7666 33.6496L20.7656 33.6555ZM21.4678 32.8026C21.4679 32.796 21.4667 32.7894 21.4642 32.7832C21.4618 32.7771 21.4581 32.7715 21.4534 32.7668C21.4487 32.7621 21.4431 32.7584 21.4369 32.7559C21.4308 32.7534 21.4242 32.7522 21.4176 32.7524C21.3673 32.7524 21.2669 32.7524 21.2669 32.8026C21.3086 33.0102 21.3748 33.2122 21.4638 33.4043C21.6135 33.6013 21.6608 33.7559 21.7642 33.7559C21.8145 33.8062 21.8627 33.7559 21.9149 33.7057C21.951 33.4903 21.9678 33.2721 21.9651 33.0537C21.9651 32.6027 21.9149 32.1506 21.9149 32.1506C21.9149 32.1506 21.7642 32.1004 21.7642 32.2008C21.6657 32.2008 21.4638 32.7524 21.4638 32.8026H21.4678Z" fill="#585136"/>
<path fill-rule="evenodd" clip-rule="evenodd" d="M20.9657 35.4608C20.8573 35.4064 20.7342 35.3891 20.615 35.4115C20.4644 35.51 20.4644 35.8123 20.4644 35.8123C20.5628 35.8626 20.615 35.8123 20.7155 35.7621C20.816 35.7119 20.9657 35.5652 20.9657 35.4608Z" fill="#574F35"/>
<path fill-rule="evenodd" clip-rule="evenodd" d="M21.3172 35.8626C21.3172 35.7641 21.2188 35.7641 21.2188 35.7119C21.221 35.6865 21.2321 35.6627 21.2501 35.6447C21.2681 35.6267 21.2919 35.6156 21.3172 35.6134C21.3675 35.6134 21.4157 35.6636 21.4679 35.7119C21.5201 35.7601 21.6176 35.8104 21.6176 35.9089C21.6176 36.0073 21.5191 36.2092 21.3675 36.2092C21.2158 36.2092 21.3675 35.9591 21.3172 35.8586V35.8626ZM22.3198 35.7119C22.3198 35.7119 22.1228 35.7621 22.1228 35.7119C22.1228 35.6617 22.1731 35.6134 22.2725 35.6134C22.2923 35.5943 22.3161 35.5799 22.3422 35.5712C22.3683 35.5625 22.396 35.5598 22.4232 35.5632C22.4735 35.5632 22.4735 35.5632 22.5217 35.6134C22.5857 35.5908 22.6517 35.574 22.7187 35.5632C22.7689 35.6134 22.7187 35.6134 22.7689 35.6617C22.788 35.6814 22.8024 35.7052 22.8111 35.7313C22.8198 35.7574 22.8225 35.7851 22.8191 35.8123C22.8191 35.8626 22.6685 35.963 22.5178 35.9108C22.3198 35.9128 22.37 35.7621 22.3198 35.7119ZM23.5243 35.5149C23.5373 35.528 23.5446 35.5457 23.5446 35.5642C23.5446 35.5826 23.5373 35.6003 23.5243 35.6134C23.4206 35.6829 23.2974 35.7174 23.1727 35.7119C23.022 35.7119 22.8773 35.7621 22.8773 35.6617C22.8773 35.6114 23.0269 35.511 23.0742 35.4647C23.0942 35.4459 23.1181 35.4318 23.1441 35.4233C23.1701 35.4148 23.1977 35.4121 23.2249 35.4154C23.2751 35.4154 23.5263 35.3652 23.5765 35.3652C23.6019 35.3672 23.6258 35.3783 23.6439 35.3963C23.6619 35.4144 23.673 35.4383 23.675 35.4637C23.632 35.4964 23.5794 35.5141 23.5253 35.5139L23.5243 35.5149ZM23.8749 33.9106C23.8749 33.9106 23.7764 34.0603 23.7242 34.0603C23.6257 34.0603 23.6257 34.011 23.6257 34.011C23.6257 33.9608 23.7242 33.8604 23.7242 33.8604C23.674 33.8604 23.6257 33.8604 23.6257 33.8101C23.6257 33.7599 23.7242 33.7116 23.7764 33.7116C23.831 33.6601 23.8995 33.6259 23.9734 33.6132C24.0719 33.6132 24.1241 33.6634 24.1241 33.7116C24.1241 33.7599 24.0256 33.8623 23.9734 33.9086C23.9603 33.9216 23.9426 33.9289 23.9242 33.9289C23.9057 33.9289 23.888 33.9216 23.8749 33.9086V33.9106ZM22.7216 36.9695C22.7216 36.9695 22.6232 36.9695 22.6232 37.0198C22.6232 37.07 22.6734 37.07 22.6734 37.0198H22.7236C22.7236 37.0198 22.7236 37.07 22.8221 37.07C22.8723 37.07 22.9718 37.0198 23.0191 37.0198C23.0693 36.9695 23.1176 36.9695 23.1176 36.9213C23.0673 36.8228 23.0191 36.7716 22.9669 36.7716C22.9147 36.7716 22.8684 36.7716 22.8684 36.8218C22.8553 36.8088 22.8376 36.8015 22.8191 36.8015C22.8007 36.8015 22.783 36.8088 22.7699 36.8218C22.7197 36.8711 22.6714 36.8711 22.7197 36.9203V36.9705L22.7216 36.9695ZM22.1199 37.5211C22.1199 37.4718 22.2696 37.4226 22.2696 37.4718C22.3198 37.4718 22.4203 37.6688 22.4203 37.722C22.4203 37.7751 22.2696 37.8204 22.2233 37.8204C22.177 37.8204 22.0736 37.722 22.0736 37.722L22.1238 37.6717C22.1741 37.5733 22.1238 37.5211 22.1238 37.5211H22.1199ZM21.7181 36.7696C21.7247 36.7697 21.7313 36.7685 21.7375 36.7661C21.7436 36.7636 21.7492 36.7599 21.7539 36.7552C21.7586 36.7505 21.7623 36.7449 21.7648 36.7388C21.7672 36.7326 21.7684 36.726 21.7683 36.7194H21.8668C21.8668 36.6692 21.917 36.6692 21.9653 36.6692C22.0135 36.6692 22.0638 36.6692 22.0638 36.7194C22.0638 36.8179 22.114 36.8691 22.114 36.9164C22.1065 36.9589 22.0889 36.999 22.0627 37.0333C22.0365 37.0675 22.0024 37.095 21.9633 37.1133C21.8495 37.1485 21.7308 37.1654 21.6117 37.1636C21.5615 37.1636 21.5615 37.0651 21.5615 37.0129C21.5615 36.9607 21.66 36.7627 21.7122 36.7627L21.7181 36.7696Z" fill="#82764F"/>
<path fill-rule="evenodd" clip-rule="evenodd" d="M21.8685 36.7656C21.8685 36.7656 21.77 36.8159 21.77 36.8641V36.9626C21.8244 36.9628 21.8773 36.9452 21.9207 36.9124C21.8956 36.8665 21.878 36.817 21.8685 36.7656Z" fill="#6E6342"/>
<path fill-rule="evenodd" clip-rule="evenodd" d="M21.1163 36.5146C21.1858 36.5081 21.2554 36.5259 21.3133 36.5648C21.3635 36.6151 21.4117 36.6633 21.3635 36.7155C21.3152 36.7677 21.265 36.8652 21.1665 36.8652C21.0158 36.8652 20.9154 36.7667 20.9154 36.7155C20.9089 36.646 20.9266 36.5764 20.9656 36.5185C21.0158 36.4683 21.0158 36.5185 21.1163 36.5185V36.5146Z" fill="#585136"/>
<path fill-rule="evenodd" clip-rule="evenodd" d="M21.0663 36.5648L20.8693 36.7618C20.8191 36.812 20.569 37.1626 20.4685 37.2129C20.5187 37.1626 20.5187 37.1144 20.567 37.0622C20.5092 37.0888 20.46 37.1312 20.4252 37.1845C20.3903 37.2378 20.3712 37.2999 20.37 37.3635C20.3198 37.5605 20.7216 37.6639 20.9718 37.7142C21.0924 37.7332 21.2104 37.7662 21.3233 37.8126C21.221 37.6735 21.1366 37.5219 21.0722 37.3616C20.9737 37.1104 20.9215 37.1104 20.9737 36.9597C21.024 36.8613 21.1244 36.7628 21.1244 36.6594C21.0941 36.6361 21.0734 36.6024 21.0663 36.5648Z" fill="#574F35"/>
<path fill-rule="evenodd" clip-rule="evenodd" d="M15.148 37.0159H15.2464C15.3449 37.0159 16.1496 36.7156 16.9522 36.7658C17.5781 36.8128 18.1989 36.9133 18.8077 37.0662C19.8615 37.3675 21.1654 37.9191 22.0183 38.2194C22.2685 38.3179 22.4694 38.4706 22.6201 38.5208C23.2721 38.7719 23.3223 38.7719 23.6729 38.8222C24.1249 38.8724 24.576 38.7237 25.0773 38.6252C25.679 38.4745 26.6826 38.4282 27.5857 38.3238C27.8749 38.2815 28.1602 38.2156 28.4386 38.1269C28.4386 38.1269 27.7364 38.8291 26.0306 39.0792C25.3491 39.1712 24.6595 39.188 23.9743 39.1294C23.5858 39.0903 23.2004 39.0245 22.821 38.9325C22.5196 38.834 21.8676 38.6321 21.1152 38.4312C20.5205 38.2808 19.9178 38.1637 19.31 38.0806C17.6544 37.729 15.7989 37.3784 15.147 37.0268L15.148 37.0159Z" fill="#252211"/>
<path fill-rule="evenodd" clip-rule="evenodd" d="M13.2417 33.8063C12.8409 34.1569 12.3898 34.5085 11.988 34.8089L10.7343 35.8124C10.2832 36.1138 9.88141 36.4644 9.43035 36.7658C8.97928 37.0671 8.57746 37.3724 8.07617 37.6679C8.47701 37.3173 8.92906 37.0159 9.3299 36.6653C9.73073 36.3147 10.233 36.0636 10.6338 35.712L11.8876 34.7133C12.3898 34.4622 12.7907 34.1106 13.2417 33.8102V33.8063ZM10.9854 37.4177C10.9854 37.4177 11.4365 37.0159 12.0383 36.5146C12.7405 35.8627 13.6436 35.0098 13.8937 34.8591L10.9854 37.4197V37.4177Z" fill="#CFB66C"/>
<path fill-rule="evenodd" clip-rule="evenodd" d="M10.9854 37.4177C11.2062 37.1866 11.4407 36.9689 11.6876 36.7657L12.0382 36.4644C12.1674 36.3602 12.2853 36.2427 12.3898 36.1138L13.092 35.4116L13.4426 35.06C13.4928 35.0097 13.5933 34.9615 13.6396 34.9093C13.6941 34.8578 13.7626 34.8235 13.8365 34.8108C13.7873 34.9093 13.7381 34.9093 13.6868 35.0078L13.5362 35.1584C13.4377 35.2569 13.285 35.3554 13.1846 35.4539L12.4361 36.0635C12.1859 36.2605 11.985 36.5146 11.7339 36.7155C11.509 36.9755 11.2571 37.2109 10.9824 37.4177H10.9854ZM14.0946 35.3613C14.0946 35.3613 12.3898 37.0159 12.0382 37.267L14.0946 35.3613Z" fill="#CFB66C"/>
<path fill-rule="evenodd" clip-rule="evenodd" d="M14.094 35.3613C13.9527 35.5524 13.7837 35.7213 13.5927 35.8626L13.0914 36.3639C12.937 36.5436 12.7691 36.7112 12.5891 36.8652C12.3921 37.0159 12.2385 37.1666 12.0376 37.3173L12.5389 36.816C12.6896 36.6653 12.8905 36.5146 13.0412 36.3639L13.5425 35.8626C13.7133 35.6817 13.8977 35.5141 14.094 35.3613ZM14.1442 36.2635C13.9911 36.6942 13.8068 37.1132 13.5927 37.5172C13.1406 38.3701 12.4887 39.4741 12.2385 40.0256L14.1442 36.2635Z" fill="#CFB66C"/>
<path fill-rule="evenodd" clip-rule="evenodd" d="M14.1445 36.2634C14.141 36.4353 14.1076 36.6052 14.046 36.7657C13.9958 36.9154 13.8953 37.1163 13.849 37.267C13.7505 37.4177 13.6993 37.5674 13.5989 37.7181C13.4963 37.8575 13.4119 38.0094 13.3477 38.1701L12.8464 39.0722C12.6495 39.3736 12.4948 39.674 12.2949 39.9754C12.4446 39.6238 12.5953 39.3234 12.746 39.022C12.9431 38.7213 13.111 38.4024 13.2473 38.0697C13.3427 37.9155 13.4094 37.7453 13.4443 37.5674C13.5307 37.427 13.597 37.2751 13.6412 37.1163C13.7279 36.9761 13.7942 36.8242 13.8382 36.6653C13.9505 36.5407 14.0514 36.4062 14.1396 36.2634H14.1445Z" fill="#CFB66C"/>
<path fill-rule="evenodd" clip-rule="evenodd" d="M16 40.4767C16 40.4767 15.4987 41.1789 15.5489 42.0318C15.6996 41.5807 15.8503 40.8785 16 40.4767ZM16.5023 41.1789C16.5023 41.1789 16.3053 43.0353 16.1507 43.9365C16.3516 42.8876 16.4018 42.9349 16.5023 41.1789ZM19.8626 44.035C19.8626 44.035 19.1102 46.2923 19.06 46.891C19.2569 46.2391 19.5613 44.9351 19.8626 44.035Z" fill="#DEC270"/>
<path fill-rule="evenodd" clip-rule="evenodd" d="M21.668 40.327C21.668 40.327 22.9217 42.3844 23.8248 44.1394C23.5747 43.2816 23.0221 41.631 21.668 40.327Z" fill="#CBAF59"/>
<path fill-rule="evenodd" clip-rule="evenodd" d="M24.978 43.386C25.6667 44.5871 26.2865 45.8264 26.8345 47.0979C26.734 46.1948 26.4829 44.6899 24.978 43.386Z" fill="#E3C677"/>
<path fill-rule="evenodd" clip-rule="evenodd" d="M34.809 46.3956C35.0059 46.245 35.4117 45.5428 35.7623 45.3921C36.1139 45.1951 36.364 45.1951 36.7156 44.8406C37.016 44.489 37.1165 44.2388 37.8187 43.9374C38.8223 43.5366 38.12 42.9851 38.12 42.9851C38.2257 42.8722 38.3432 42.7712 38.4707 42.6837C38.7218 42.4867 39.0222 42.2829 38.972 41.8308C38.9217 41.1286 38.8223 40.126 38.2195 39.5745C38.772 39.476 39.8248 39.3775 40.4768 39.2229C41.2292 39.026 41.5808 38.7719 41.5808 38.7719C41.5808 38.7719 41.1288 38.0194 41.831 37.267C42.5332 36.5146 43.0857 36.0635 43.5368 35.2608C43.0355 35.2106 42.3333 34.9595 40.4266 35.6617L40.728 35.8124C40.728 35.8124 39.5747 36.1137 39.1226 36.5146C38.3702 37.1163 38.2697 37.6678 37.4681 38.0194C36.6654 38.4203 35.8628 38.3198 35.2108 38.6212C34.5588 38.9225 34.4583 39.1727 34.2072 39.3234C34.2574 39.3736 34.2072 39.4741 34.3057 39.5745C34.2555 39.673 33.9049 40.2767 33.503 40.2767C33.5533 40.4264 33.8546 40.5269 33.8546 40.5269C33.8546 40.5269 33.6035 40.6776 33.052 40.7238C33.3474 41.0242 33.6035 41.3758 34.4061 41.8269C34.3559 41.9776 34.1048 42.1283 34.2092 42.3794C34.3136 42.6305 34.611 42.9309 35.8145 43.2313C35.2127 43.2815 34.5105 43.382 33.5572 43.2815C32.6039 43.1811 32.4542 43.0846 31.8524 43.2313C31.9026 43.2815 32.1026 43.2815 32.203 43.4824C32.0523 43.4824 31.1 43.3839 30.7484 43.7838C30.3978 44.2349 30.2471 44.9873 30.2973 45.4886C30.1004 45.5871 29.9457 45.7397 30.0462 46.0401C30.1466 46.3405 30.5977 46.4419 30.8991 46.6419C31.2004 46.8418 31.2004 46.9432 31.5008 46.893C31.8012 46.8428 32.2533 46.5424 32.5044 46.5424C32.6731 46.5537 32.8325 46.6233 32.9555 46.7394C32.9555 46.7394 33.6577 46.3887 33.7079 46.4892C33.7581 46.5394 33.7079 46.9403 33.8064 46.9905C33.8566 46.9905 34.609 46.4892 34.809 46.3887V46.3956Z" fill="#ECD592"/>
</svg>
