<svg viewBox="0 0 64 64" fill="none" xmlns="http://www.w3.org/2000/svg">
<path d="M63.75 31.875C63.75 49.4791 49.4791 63.75 31.875 63.75C14.2709 63.75 0 49.4791 0 31.875C0 14.2709 14.2709 0 31.875 0C49.4791 0 63.75 14.2709 63.75 31.875Z" fill="#E6007A"/>
<path fill-rule="evenodd" clip-rule="evenodd" d="M19.7593 26.8734C19.7593 19.2027 25.9987 13 33.6327 13C41.2668 13 47.5061 19.2027 47.5061 26.8734C47.5061 34.1772 41.854 40.1596 34.6971 40.7102C34.6971 40.7102 32.9721 40.8203 32.5316 40.8937C30.5497 41.1506 28.8614 42.6554 28.421 44.7107C28.421 44.7107 27.8338 47.39 27.7971 47.6102C27.5768 48.6378 26.5492 49.2985 25.5215 49.0783C24.4939 48.8581 23.8332 47.8304 24.0534 46.8027C24.0901 46.5825 28.421 26.3963 28.421 26.3963C28.6412 25.3686 29.6689 24.708 30.6965 24.9282C31.7242 25.1484 32.3848 26.1761 32.1646 27.2038L30.3662 35.4985L30.0359 37.1133C29.9992 37.2235 30.1093 37.3336 30.2194 37.2969C30.3414 37.2794 30.4882 37.2537 30.6598 37.2237C30.8497 37.1905 31.0699 37.1519 31.3205 37.1133C32.2747 36.9665 34.2199 36.8564 34.2199 36.8564C39.4684 36.5628 43.6524 32.1953 43.6524 26.8734C43.6524 21.1846 38.8811 16.5968 33.1189 16.8904C27.9439 17.1473 23.7598 21.4048 23.613 26.5798C23.5763 27.791 23.7598 29.0022 24.1635 30.1399C24.4939 31.1676 23.9433 32.2687 22.9524 32.599C21.9247 32.9293 20.8236 32.3788 20.4933 31.3878C20.0162 29.9197 19.7593 28.4149 19.7593 26.8734ZM31.871 46.7294C32.1279 45.4448 33.3758 44.6741 34.6237 44.931C35.9082 45.1879 36.679 46.3991 36.4221 47.6837C36.1652 48.9683 34.9173 49.739 33.6694 49.4821C32.3848 49.2252 31.6141 47.9773 31.871 46.7294Z" fill="#FEFEFE"/>
</svg>
