<svg viewBox="0 0 64 64" fill="none" xmlns="http://www.w3.org/2000/svg">
<path d="M32 64C49.6731 64 64 49.6731 64 32C64 14.3269 49.6731 0 32 0C14.3269 0 0 14.3269 0 32C0 49.6731 14.3269 64 32 64Z" fill="black"/>
<path d="M40.0905 14.5228L15.6953 49.4748H23.1858L47.7073 14.5228H40.0905Z" fill="white"/>
<path d="M23.9642 14.5228L31.143 24.8222L27.3973 30.4398L16.3179 14.5228H23.9642Z" fill="url(#paint0_linear_1197_64)"/>
<path d="M40.8163 49.4776L32.854 38.0864L36.5988 32.6246L48.3026 49.481L40.8163 49.4776Z" fill="url(#paint1_linear_1197_64)"/>
<defs>
<linearGradient id="paint0_linear_1197_64" x1="21.4476" y1="17.3698" x2="31.7232" y2="29.7749" gradientUnits="userSpaceOnUse">
<stop stop-color="white"/>
<stop offset="1" stop-color="white" stop-opacity="0.55"/>
</linearGradient>
<linearGradient id="paint1_linear_1197_64" x1="42.8289" y1="46.6044" x2="30.2036" y2="29.5846" gradientUnits="userSpaceOnUse">
<stop stop-color="#6966FF"/>
<stop offset="1" stop-color="#6966FF" stop-opacity="0.36"/>
</linearGradient>
</defs>
</svg>
