<svg viewBox="0 0 64 64" fill="none" xmlns="http://www.w3.org/2000/svg">
<circle cx="32" cy="32" r="32" fill="white"/>
<path d="M31.9991 1.59985C48.7491 1.59985 62.3991 15.2499 62.3991 31.9999C62.3991 48.7499 48.7491 62.3999 31.9991 62.3999C15.2491 62.3999 1.59912 48.7499 1.59912 31.9999C1.59912 15.2499 15.2491 1.59985 31.9991 1.59985ZM31.9991 0.0998535C14.3991 0.0998535 0.0991211 14.3999 0.0991211 31.9999C0.0991211 49.5999 14.3491 63.8999 31.9991 63.8999C49.6491 63.8999 63.8991 49.6499 63.8991 31.9999C63.8991 14.3499 49.5991 0.0998535 31.9991 0.0998535Z" fill="#D2D8E2"/>
<path fill-rule="evenodd" clip-rule="evenodd" d="M44.0185 19.9371C43.862 19.7809 43.7681 19.6246 43.7681 19.4059C43.7681 19.1871 43.862 19.0309 44.0185 18.8746C44.3314 18.5934 44.8322 18.5934 45.1765 18.8746C45.333 19.0309 45.4269 19.1871 45.4269 19.4059C45.4269 19.6246 45.333 19.7809 45.1765 19.9371C45.02 20.0621 44.8009 20.1559 44.6131 20.1559C44.394 20.1871 44.1749 20.1246 44.0185 19.9371Z" fill="#0D022B"/>
<path fill-rule="evenodd" clip-rule="evenodd" d="M42.0155 22.0936C41.8903 21.9374 41.7964 21.7811 41.7964 21.5624C41.7964 21.3436 41.8903 21.1874 42.0155 21.0311C42.2972 20.7499 42.7979 20.7499 43.0796 21.0311C43.2048 21.1874 43.2987 21.3436 43.2987 21.5624C43.2987 21.7811 43.2048 21.9374 43.0796 22.0936C42.9231 22.2186 42.7666 22.3124 42.5476 22.3124C42.3285 22.3124 42.172 22.2186 42.0155 22.0936Z" fill="#0D022B"/>
<path fill-rule="evenodd" clip-rule="evenodd" d="M39.8241 24.1562C39.6989 24.0312 39.605 23.8437 39.605 23.625C39.605 23.4062 39.6989 23.25 39.8241 23.0937C40.1058 22.8125 40.6065 22.8125 40.8882 23.0937C41.0134 23.2187 41.1073 23.4062 41.1073 23.625C41.1073 23.8437 41.0134 24 40.8882 24.1562C40.7317 24.3125 40.5752 24.375 40.3561 24.375C40.1371 24.375 39.9493 24.2812 39.8241 24.1562Z" fill="#0D022B"/>
<path fill-rule="evenodd" clip-rule="evenodd" d="M37.7274 26.2501C37.5709 26.1251 37.4771 25.9376 37.4771 25.7189C37.4771 25.5001 37.5709 25.3439 37.7274 25.1876C38.0404 24.9064 38.5412 24.9064 38.8855 25.1876C39.042 25.3126 39.1359 25.5001 39.1359 25.7189C39.1359 25.9376 39.042 26.1251 38.8855 26.2501C38.729 26.4064 38.5099 26.4689 38.3221 26.4689C38.103 26.4689 37.9152 26.4376 37.7274 26.2501Z" fill="#0D022B"/>
<path fill-rule="evenodd" clip-rule="evenodd" d="M35.724 28.3434C35.5675 28.2184 35.5049 28.0309 35.5049 27.8121C35.5049 27.5934 35.5988 27.4371 35.724 27.2809C36.0057 26.9996 36.5064 26.9996 36.7881 27.2809C36.9446 27.4059 37.0072 27.5934 37.0072 27.8121C37.0072 28.0309 36.9133 28.2184 36.7881 28.3434C36.6629 28.4996 36.4751 28.5621 36.256 28.5621C36.0683 28.5934 35.8492 28.5309 35.724 28.3434Z" fill="#0D022B"/>
<path fill-rule="evenodd" clip-rule="evenodd" d="M33.314 29.9062C33.314 29.6875 33.4079 29.5312 33.5331 29.375C33.8147 29.0938 34.3155 29.0938 34.5972 29.375C34.7537 29.5312 34.8163 29.6875 34.8163 29.9062C34.8163 30.125 34.7224 30.2812 34.5972 30.4375C34.472 30.5625 34.2842 30.6562 34.0651 30.6562C33.846 30.6562 33.6895 30.5625 33.5331 30.4375C33.3766 30.3125 33.314 30.125 33.314 29.9062Z" fill="#0D022B"/>
<path fill-rule="evenodd" clip-rule="evenodd" d="M29.4017 34.5309C29.2765 34.4059 29.1826 34.2184 29.1826 33.9996C29.1826 33.7809 29.2765 33.6246 29.4017 33.4684C29.6834 33.1871 30.1842 33.1871 30.4659 33.4684C30.6223 33.6246 30.6849 33.7809 30.6849 33.9996C30.6849 34.2184 30.5911 34.3746 30.4659 34.5309C30.3407 34.6871 30.1529 34.7496 29.9338 34.7496C29.746 34.7809 29.5582 34.7184 29.4017 34.5309Z" fill="#0D022B"/>
<path fill-rule="evenodd" clip-rule="evenodd" d="M27.2426 36.6246C27.0861 36.4996 26.9922 36.3121 26.9922 36.0934C26.9922 35.8746 27.0861 35.7184 27.2426 35.5621C27.5556 35.2809 28.0563 35.2809 28.4006 35.5621C28.5571 35.7184 28.651 35.8746 28.651 36.0934C28.651 36.3121 28.5571 36.4684 28.4006 36.6246C28.2441 36.7809 28.025 36.8434 27.8372 36.8434C27.5869 36.8746 27.3991 36.7809 27.2426 36.6246Z" fill="#0D022B"/>
<path fill-rule="evenodd" clip-rule="evenodd" d="M25.2079 38.7496C25.0827 38.6246 24.9888 38.4371 24.9888 38.2184C24.9888 37.9996 25.0827 37.8121 25.2079 37.6871C25.4895 37.4059 25.9903 37.4059 26.272 37.6871C26.3972 37.8121 26.4911 37.9996 26.4911 38.2184C26.4911 38.4371 26.3972 38.5934 26.272 38.7496C26.1155 38.9059 25.959 38.9684 25.7399 38.9684C25.5208 38.9684 25.3956 38.8746 25.2079 38.7496Z" fill="#0D022B"/>
<path fill-rule="evenodd" clip-rule="evenodd" d="M23.1112 40.8434C22.9547 40.7184 22.8921 40.5309 22.8921 40.3121C22.8921 40.0934 22.986 39.9371 23.1112 39.7809C23.3929 39.4996 23.8936 39.4996 24.1753 39.7809C24.3005 39.9371 24.3944 40.0934 24.3944 40.3121C24.3944 40.5309 24.3005 40.7184 24.1753 40.8434C24.0188 40.9996 23.8623 41.0621 23.6433 41.0621C23.4555 41.0621 23.2364 40.9996 23.1112 40.8434Z" fill="#0D022B"/>
<path fill-rule="evenodd" clip-rule="evenodd" d="M20.9516 42.9372C20.7951 42.8122 20.7012 42.6247 20.7012 42.406C20.7012 42.1872 20.7951 42.031 20.9516 41.8748C21.2645 41.5935 21.7653 41.5935 22.047 41.8748C22.2035 42.031 22.2974 42.1872 22.2974 42.406C22.2974 42.6247 22.2035 42.8122 22.047 42.9372C21.8905 43.0622 21.6714 43.156 21.4836 43.156C21.2645 43.156 21.0768 43.0935 20.9516 42.9372Z" fill="#0D022B"/>
<path fill-rule="evenodd" clip-rule="evenodd" d="M18.8851 45.0307C18.7286 44.8745 18.666 44.7182 18.666 44.4995C18.666 44.2808 18.7599 44.1245 18.8851 43.9683C19.1668 43.687 19.6676 43.687 19.9493 43.9683C20.1057 44.1245 20.1683 44.2808 20.1683 44.4995C20.1683 44.7182 20.0744 44.8745 19.9493 45.0307C19.8241 45.1557 19.6363 45.2495 19.4172 45.2495C19.2607 45.2807 19.0729 45.187 18.8851 45.0307Z" fill="#0D022B"/>
<path fill-rule="evenodd" clip-rule="evenodd" d="M19.9493 19.9371C20.0744 19.7809 20.1683 19.6246 20.1683 19.4059C20.1683 19.1871 20.0744 19.0309 19.9493 18.8746C19.6676 18.5934 19.1668 18.5934 18.8851 18.8746C18.7286 19.0309 18.666 19.1871 18.666 19.4059C18.666 19.6246 18.7599 19.7809 18.8851 19.9371C19.0103 20.0621 19.1981 20.1559 19.4172 20.1559C19.6363 20.1871 19.8241 20.1246 19.9493 19.9371Z" fill="#0D022B"/>
<path fill-rule="evenodd" clip-rule="evenodd" d="M22.0466 22.0936C22.2031 21.9374 22.297 21.7811 22.297 21.5624C22.297 21.3436 22.2031 21.1874 22.0466 21.0311C21.7336 20.7499 21.2329 20.7499 20.8886 21.0311C20.7321 21.1874 20.6382 21.3436 20.6382 21.5624C20.6382 21.7811 20.7321 21.9374 20.8886 22.0936C21.0451 22.2186 21.2642 22.3124 21.4519 22.3124C21.671 22.2811 21.8901 22.2186 22.0466 22.0936Z" fill="#0D022B"/>
<path fill-rule="evenodd" clip-rule="evenodd" d="M24.1753 24.1562C24.3005 24.0312 24.3944 23.8437 24.3944 23.625C24.3944 23.4062 24.3005 23.25 24.1753 23.0937C23.8936 22.8125 23.3929 22.8125 23.1112 23.0937C22.986 23.2187 22.8921 23.4062 22.8921 23.625C22.8921 23.8437 22.986 24 23.1112 24.1562C23.2677 24.3125 23.4242 24.375 23.6433 24.375C23.831 24.375 24.0188 24.2812 24.1753 24.1562Z" fill="#0D022B"/>
<path fill-rule="evenodd" clip-rule="evenodd" d="M26.272 26.2501C26.3972 26.1251 26.4911 25.9376 26.4911 25.7189C26.4911 25.5001 26.3972 25.3439 26.272 25.1876C25.9903 24.9064 25.4895 24.9064 25.2079 25.1876C25.0827 25.3126 24.9888 25.5001 24.9888 25.7189C24.9888 25.9376 25.0827 26.1251 25.2079 26.2501C25.3644 26.4064 25.5208 26.4689 25.7399 26.4689C25.9277 26.4689 26.1155 26.4376 26.272 26.2501Z" fill="#0D022B"/>
<path fill-rule="evenodd" clip-rule="evenodd" d="M28.338 28.3434C28.4945 28.2184 28.5884 28.0309 28.5884 27.8121C28.5884 27.5934 28.4945 27.4371 28.338 27.2809C28.0563 26.9996 27.5243 26.9996 27.2426 27.2809C27.0861 27.4059 26.9922 27.5934 26.9922 27.8121C26.9922 28.0309 27.0861 28.2184 27.2426 28.3434C27.3991 28.4996 27.6182 28.5621 27.8059 28.5621C27.9937 28.5934 28.2128 28.5309 28.338 28.3434Z" fill="#0D022B"/>
<path fill-rule="evenodd" clip-rule="evenodd" d="M30.6849 29.9062C30.6849 29.6875 30.5911 29.5312 30.4659 29.375C30.1842 29.0938 29.6834 29.0938 29.4017 29.375C29.2452 29.5312 29.1826 29.6875 29.1826 29.9062C29.1826 30.125 29.2765 30.2812 29.4017 30.4375C29.5269 30.5625 29.7147 30.6562 29.9338 30.6562C30.1529 30.6562 30.3094 30.5625 30.4659 30.4375C30.6223 30.3125 30.6849 30.125 30.6849 29.9062Z" fill="#0D022B"/>
<path fill-rule="evenodd" clip-rule="evenodd" d="M32.5635 32.5621C32.72 32.4059 32.7826 32.2496 32.7826 32.0309C32.7826 31.8121 32.6887 31.6559 32.5635 31.4996C32.2818 31.2184 31.7811 31.2184 31.4994 31.4996C31.3429 31.6559 31.2803 31.8121 31.2803 32.0309C31.2803 32.2496 31.3742 32.4059 31.4994 32.5621C31.6246 32.6871 31.8124 32.7809 32.0314 32.7809C32.2505 32.7809 32.4383 32.6871 32.5635 32.5621Z" fill="#0D022B"/>
<path fill-rule="evenodd" clip-rule="evenodd" d="M34.6598 34.5309C34.8163 34.4059 34.9102 34.2184 34.9102 33.9996C34.9102 33.7809 34.8163 33.6246 34.6598 33.4684C34.3468 33.1871 33.846 33.1871 33.5644 33.4684C33.4079 33.6246 33.314 33.7809 33.314 33.9996C33.314 34.2184 33.4079 34.3746 33.5644 34.5309C33.7208 34.6871 33.9399 34.7496 34.1277 34.7496C34.2842 34.7809 34.5033 34.7184 34.6598 34.5309Z" fill="#0D022B"/>
<path fill-rule="evenodd" clip-rule="evenodd" d="M36.7881 36.6246C36.9133 36.4996 37.0072 36.3121 37.0072 36.0934C37.0072 35.8746 36.9133 35.7184 36.7881 35.5621C36.5064 35.2809 36.0057 35.2809 35.724 35.5621C35.5988 35.7184 35.5049 35.8746 35.5049 36.0934C35.5049 36.3121 35.5988 36.4684 35.724 36.6246C35.8805 36.7809 36.037 36.8434 36.256 36.8434C36.4125 36.8746 36.6316 36.7809 36.7881 36.6246Z" fill="#0D022B"/>
<path fill-rule="evenodd" clip-rule="evenodd" d="M38.8853 38.7496C39.0105 38.6246 39.1044 38.4371 39.1044 38.2184C39.1044 37.9996 39.0105 37.8121 38.8853 37.6871C38.6036 37.4059 38.1028 37.4059 37.8211 37.6871C37.6959 37.8121 37.6021 37.9996 37.6021 38.2184C37.6021 38.4371 37.6959 38.5934 37.8211 38.7496C37.9776 38.9059 38.1341 38.9684 38.3532 38.9684C38.5723 38.9684 38.7288 38.8746 38.8853 38.7496Z" fill="#0D022B"/>
<path fill-rule="evenodd" clip-rule="evenodd" d="M40.857 40.8434C41.0135 40.7184 41.0761 40.5309 41.0761 40.3121C41.0761 40.0934 40.9822 39.9371 40.857 39.7809C40.5753 39.4996 40.0745 39.4996 39.7928 39.7809C39.6676 39.9371 39.5737 40.0934 39.5737 40.3121C39.5737 40.5309 39.6676 40.7184 39.7928 40.8434C39.9493 40.9996 40.1058 41.0621 40.3249 41.0621C40.5127 41.0621 40.7318 40.9996 40.857 40.8434Z" fill="#0D022B"/>
<path fill-rule="evenodd" clip-rule="evenodd" d="M43.0796 42.9372C43.2361 42.8122 43.2987 42.6247 43.2987 42.406C43.2987 42.1872 43.2048 42.031 43.0796 41.8748C42.7979 41.5935 42.2972 41.5935 42.0155 41.8748C41.859 42.031 41.7964 42.1872 41.7964 42.406C41.7964 42.6247 41.8903 42.8122 42.0155 42.9372C42.1407 43.0622 42.3285 43.156 42.5476 43.156C42.7666 43.156 42.9544 43.0935 43.0796 42.9372Z" fill="#0D022B"/>
<path fill-rule="evenodd" clip-rule="evenodd" d="M45.1769 45.0307C45.3334 44.8745 45.4273 44.7182 45.4273 44.4995C45.4273 44.2808 45.3334 44.1245 45.1769 43.9683C44.8639 43.687 44.3631 43.687 44.0814 43.9683C43.925 44.1245 43.8311 44.2808 43.8311 44.4995C43.8311 44.7182 43.925 44.8745 44.0814 45.0307C44.2379 45.1557 44.457 45.2495 44.6448 45.2495C44.8013 45.2807 44.9891 45.187 45.1769 45.0307Z" fill="#0D022B"/>
<path fill-rule="evenodd" clip-rule="evenodd" d="M24.9268 20.5311C27.0551 19.1249 29.4025 18.4687 32.0003 18.4374C34.5355 18.4374 36.8828 19.1249 39.0737 20.5311L43.5807 16.0312C40.044 13.3437 36.2256 12 32.0003 12C27.775 12 23.894 13.3437 20.4512 16.0312L24.9268 20.5311Z" fill="#0D022B"/>
<path fill-rule="evenodd" clip-rule="evenodd" d="M20.4193 38.9997C18.9795 36.8123 18.291 34.4998 18.291 31.9998C18.291 29.4686 18.9795 27.1249 20.4193 24.9999L15.9436 20.5312C13.3145 23.9687 12 27.7811 12 32.0311C12 36.2185 13.3145 40.0622 15.9749 43.5622L20.4193 38.9997Z" fill="#0D022B"/>
<path fill-rule="evenodd" clip-rule="evenodd" d="M39.042 43.4684C36.9137 44.9059 34.5663 45.6558 32.0312 45.6871C29.4334 45.6871 27.0547 44.9996 24.9264 43.4996L20.4194 47.9683C23.8936 50.687 27.7746 52.0307 32.0312 51.9995C36.2564 51.9682 40.0749 50.5933 43.5177 47.9683L39.042 43.4684Z" fill="#0D022B"/>
<path fill-rule="evenodd" clip-rule="evenodd" d="M43.4551 24.9372C44.8948 27.1247 45.646 29.4996 45.5834 32.0621C45.5521 34.5621 44.8322 36.8433 43.4551 38.937L47.962 43.4057C50.6224 39.9682 51.9995 36.1558 51.9995 31.9683C52.0308 27.7184 50.685 23.8435 47.962 20.3748L43.4551 24.9372Z" fill="#0D022B"/>
<path fill-rule="evenodd" clip-rule="evenodd" d="M48.1499 44.8748C49.8713 44.8748 51.3111 46.281 51.3111 48.031C51.3111 49.7497 49.9026 51.1872 48.1499 51.1872C46.4285 51.1872 44.9888 49.7809 44.9888 48.031C44.9888 46.281 46.3972 44.8748 48.1499 44.8748Z" fill="#0D022B"/>
<path fill-rule="evenodd" clip-rule="evenodd" d="M15.9126 44.8748C17.634 44.8748 19.0424 46.281 19.0424 48.031C19.0424 49.7497 17.634 51.1872 15.9126 51.1872C14.1911 51.1872 12.7827 49.7809 12.7827 48.031C12.7827 46.281 14.1911 44.8748 15.9126 44.8748Z" fill="#0D022B"/>
<path fill-rule="evenodd" clip-rule="evenodd" d="M48.2119 12.6869C49.9333 12.6869 51.3417 14.0931 51.3417 15.8431C51.3417 17.5931 49.9333 18.9993 48.2119 18.9993C46.4905 18.9993 45.082 17.5931 45.082 15.8431C45.082 14.0931 46.4905 12.6869 48.2119 12.6869Z" fill="#0D022B"/>
<path fill-rule="evenodd" clip-rule="evenodd" d="M15.8496 12.6869C17.571 12.6869 19.0108 14.0931 19.0108 15.8118C19.0108 17.5306 17.6023 18.9368 15.8496 18.9368C14.1282 18.9368 12.6885 17.5306 12.6885 15.8118C12.6885 14.0931 14.0969 12.6869 15.8496 12.6869Z" fill="#0D022B"/>
</svg>
