<svg viewBox="0 0 64 64" fill="none" xmlns="http://www.w3.org/2000/svg">
<rect width="64" height="64" rx="32" fill="white"/>
<path d="M15.6503 27.4194C16.135 28.4334 17.3348 30.4376 17.3348 30.4376L31.2049 8L17.6681 17.2502C16.8615 17.7767 16.1997 18.4895 15.7412 19.3255C15.1246 20.5868 14.7971 21.9646 14.7814 23.3626C14.7657 24.7607 15.0622 26.1452 15.6503 27.4194Z" fill="url(#paint0_linear_1827_105)"/>
<path d="M10.1535 34.8076C10.3063 36.9538 10.926 39.0434 11.9711 40.9362C13.0161 42.8291 14.4623 44.4817 16.213 45.7832L31.1859 55.9999C31.1859 55.9999 21.818 42.7888 13.9164 29.6429C13.1165 28.254 12.5787 26.7355 12.3289 25.1601C12.2182 24.4467 12.2182 23.7211 12.3289 23.0077C12.1228 23.3813 11.7229 24.1462 11.7229 24.1462C10.9217 25.7451 10.3761 27.455 10.105 29.216C9.94902 31.0775 9.96524 32.9489 10.1535 34.8076Z" fill="#A0A8D4"/>
<path d="M48.352 36.5804C47.8673 35.5665 46.6675 33.5623 46.6675 33.5623L32.7974 55.9998L46.3342 46.7556C47.1408 46.229 47.8026 45.5163 48.2611 44.6802C48.8786 43.4182 49.2066 42.0393 49.2223 40.6402C49.238 39.241 48.941 37.8554 48.352 36.5804Z" fill="url(#paint1_linear_1827_105)"/>
<path d="M53.8488 29.1923C53.696 27.0461 53.0763 24.9566 52.0313 23.0637C50.9862 21.1708 49.54 19.5182 47.7894 18.2167L32.8164 8C32.8164 8 42.1783 21.2111 50.0859 34.357C50.8837 35.7463 51.4194 37.2648 51.6674 38.8398C51.778 39.5532 51.778 40.2788 51.6674 40.9922C51.8734 40.6187 52.2734 39.8537 52.2734 39.8537C53.0746 38.2548 53.6202 36.5449 53.8912 34.7839C54.0493 32.9226 54.0351 31.0512 53.8488 29.1923Z" fill="#A0A8D4"/>
<path style="mix-blend-mode:color" d="M15.7403 19.3255C16.1989 18.4895 16.8606 17.7767 17.6672 17.2502L31.2041 8L17.334 30.4435C17.334 30.4435 16.1221 28.4393 15.6494 27.4253C15.0605 26.1503 14.7634 24.7647 14.7791 23.3656C14.7948 21.9664 15.1229 20.5876 15.7403 19.3255ZM10.1535 34.8077C10.3063 36.9539 10.926 39.0434 11.9711 40.9363C13.0161 42.8292 14.4623 44.4818 16.213 45.7833L31.1859 56C31.1859 56 21.818 42.7889 13.9164 29.643C13.1165 28.2541 12.5787 26.7356 12.3289 25.1602C12.2182 24.4468 12.2182 23.7212 12.3289 23.0078C12.1228 23.3813 11.7229 24.1463 11.7229 24.1463C10.9217 25.7452 10.3761 27.4551 10.105 29.2161C9.94902 31.0775 9.96524 32.949 10.1535 34.8077ZM48.3282 36.5865C47.8434 35.5726 46.6436 33.5684 46.6436 33.5684L32.7977 56L46.3346 46.7558C47.1412 46.2292 47.803 45.5165 48.2615 44.6804C48.879 43.4184 49.207 42.0395 49.2227 40.6404C49.2384 39.2412 48.9414 37.8556 48.3524 36.5806L48.3282 36.5865ZM53.8241 29.1983C53.6712 27.052 53.0516 24.9625 52.0065 23.0696C50.9615 21.1767 49.5153 19.5242 47.7646 18.2226L32.8159 8C32.8159 8 42.1778 21.2111 50.0854 34.357C50.8832 35.7463 51.419 37.2648 51.6669 38.8398C51.7775 39.5532 51.7775 40.2788 51.6669 40.9922C51.8729 40.6187 52.2729 39.8537 52.2729 39.8537C53.0741 38.2548 53.6197 36.5449 53.8907 34.7839C54.0488 32.9226 54.0346 31.0512 53.8483 29.1923L53.8241 29.1983Z" fill="url(#paint2_linear_1827_105)"/>
<path d="M31.9991 1.59985C48.7491 1.59985 62.3991 15.2499 62.3991 31.9999C62.3991 48.7499 48.7491 62.3999 31.9991 62.3999C15.2491 62.3999 1.59912 48.7499 1.59912 31.9999C1.59912 15.2499 15.2491 1.59985 31.9991 1.59985ZM31.9991 0.0998535C14.3991 0.0998535 0.0991211 14.3999 0.0991211 31.9999C0.0991211 49.5999 14.3491 63.8999 31.9991 63.8999C49.6491 63.8999 63.8991 49.6499 63.8991 31.9999C63.8991 14.3499 49.5991 0.0998535 31.9991 0.0998535Z" fill="#D2D8E2"/>
<defs>
<linearGradient id="paint0_linear_1827_105" x1="31.8109" y1="8.55145" x2="14.4242" y2="27.8127" gradientUnits="userSpaceOnUse">
<stop offset="0.58" stop-color="#A0A8D4"/>
<stop offset="0.73" stop-color="#8791C7"/>
<stop offset="0.91" stop-color="#6470B4"/>
</linearGradient>
<linearGradient id="paint1_linear_1827_105" x1="32.1854" y1="55.4484" x2="49.5781" y2="36.1869" gradientUnits="userSpaceOnUse">
<stop offset="0.58" stop-color="#A0A8D4"/>
<stop offset="0.73" stop-color="#8791C7"/>
<stop offset="0.91" stop-color="#6470B4"/>
</linearGradient>
<linearGradient id="paint2_linear_1827_105" x1="31.9979" y1="7.76282" x2="31.9979" y2="56.1482" gradientUnits="userSpaceOnUse">
<stop stop-color="#513EFF"/>
<stop offset="0.18" stop-color="#5157FF"/>
<stop offset="0.57" stop-color="#5298FF"/>
<stop offset="1" stop-color="#52E5FF"/>
</linearGradient>
</defs>
</svg>
