<svg viewBox="0 0 64 64" fill="none" xmlns="http://www.w3.org/2000/svg">
<path d="M32 64C49.6731 64 64 49.6731 64 32C64 14.3269 49.6731 0 32 0C14.3269 0 0 14.3269 0 32C0 49.6731 14.3269 64 32 64Z" fill="#1D2227"/>
<path fill-rule="evenodd" clip-rule="evenodd" d="M32.0001 9.74989C32.3896 9.74834 32.7741 9.92835 33.0195 10.2682L41.7752 22.3951C41.8762 22.535 41.9472 22.6943 41.9836 22.8629L46.2219 42.4836C46.3325 42.9955 46.1123 43.522 45.6702 43.8028L32.6762 52.0552C32.4692 52.1866 32.2342 52.2511 32 52.25C31.7659 52.2511 31.5309 52.1866 31.3239 52.0552L18.3299 43.8028C17.8879 43.522 17.6677 42.9956 17.7782 42.4837L22.0148 22.863C22.0512 22.6943 22.1222 22.535 22.2233 22.395L30.9807 10.2682C31.2261 9.92832 31.6106 9.74835 32.0001 9.74989ZM32 13.1269L24.6171 23.3504L32 46.8484L39.3814 23.3503L32 13.1269ZM40.5379 28.0106L34.2239 48.1107L43.5942 42.1596L40.5379 28.0106ZM29.776 48.1105L23.4609 28.0108L20.4058 42.1596L29.776 48.1105Z" fill="white"/>
</svg>
