<svg viewBox="0 0 64 64" fill="none" xmlns="http://www.w3.org/2000/svg">
<mask id="mask0_110_607" style="mask-type:alpha" maskUnits="userSpaceOnUse" x="0" y="0" width="64" height="64">
<path fill-rule="evenodd" clip-rule="evenodd" d="M0 0H64V64H0V0Z" fill="white"/>
</mask>
<g mask="url(#mask0_110_607)">
<path fill-rule="evenodd" clip-rule="evenodd" d="M32 63.9996C14.4 63.9996 0 49.5996 0 31.8396C0.16 14.2396 14.4 -0.160388 32.16 -0.000388413C49.76 0.159612 64 14.3996 64 32.3196C63.84 49.7596 49.6 63.9996 32 63.9996Z" fill="#0090FF"/>
<path fill-rule="evenodd" clip-rule="evenodd" d="M34.6282 28.8255L33.8128 33.1629L41.559 34.2472L41.0154 36.2803L33.4051 35.196C32.8615 36.958 32.5897 38.8556 31.9103 40.4821C31.2308 42.3797 30.5513 44.2773 29.7359 46.0393C28.6487 48.3435 26.7462 49.97 24.1641 50.3767C22.6692 50.6477 21.0385 50.5122 19.8154 49.5634C19.4077 49.2923 19 48.7502 19 48.3435C19 47.8014 19.2718 47.1237 19.6795 46.8526C19.9513 46.717 20.6308 46.8526 21.0385 46.9881C21.4462 47.3947 21.8538 47.9369 22.1256 48.4791C22.941 49.5634 24.0282 49.699 25.1154 48.8857C26.3385 47.8014 27.018 46.3104 27.4256 44.8194C28.241 41.5664 29.0564 38.449 29.7359 35.196V34.6538L22.5333 33.5695L22.8051 31.5364L30.2795 32.6207L31.2308 28.4189L23.4846 27.199L23.7564 25.0304L31.7744 26.1147C32.0462 25.3014 32.1821 24.6237 32.4538 23.946C33.1333 21.5063 33.8128 19.0665 35.4436 16.8979C37.0744 14.7292 38.9769 13.3738 41.8308 13.5093C43.0538 13.5093 44.2769 13.9159 45.0923 14.8647C45.2282 15.0003 45.5 15.2713 45.5 15.5424C45.5 16.0846 45.5 16.7623 45.0923 17.1689C44.5487 17.5756 43.8692 17.44 43.3256 16.8979C42.9179 16.4912 42.6462 16.0846 42.2385 15.678C41.4231 14.5936 40.2 14.4581 39.2487 15.4069C38.5692 16.0846 37.8897 17.0334 37.4821 17.9822C36.5308 20.8286 35.8513 23.8105 34.9 26.7924L42.3744 27.8767L41.8308 29.9099L34.6282 28.8255Z" fill="white"/>
</g>
</svg>
