<svg viewBox="0 0 64 64" fill="none" xmlns="http://www.w3.org/2000/svg">
<path d="M32.0004 64.0008C49.6737 64.0008 64.0008 49.6737 64.0008 32.0004C64.0008 14.3271 49.6737 0 32.0004 0C14.3271 0 0 14.3271 0 32.0004C0 49.6737 14.3271 64.0008 32.0004 64.0008Z" fill="#00EF8B"/>
<path d="M46.0164 27.0081H36.9922V36.0323H46.0164V27.0081Z" fill="white"/>
<path d="M27.9684 39.4247C27.9684 40.0957 27.7695 40.7516 27.3967 41.3094C27.024 41.8673 26.4941 42.3021 25.8742 42.5589C25.2544 42.8157 24.5723 42.8829 23.9142 42.752C23.2561 42.6211 22.6516 42.298 22.1772 41.8235C21.7028 41.3491 21.3797 40.7446 21.2488 40.0865C21.1179 39.4285 21.185 38.7464 21.4418 38.1265C21.6986 37.5066 22.1334 36.9768 22.6913 36.604C23.2492 36.2312 23.9051 36.0323 24.576 36.0323H27.9684V27.0081H24.576C17.7282 27.0081 12.1602 32.5761 12.1602 39.4247C12.1602 46.2733 17.7282 51.8406 24.576 51.8406C31.4238 51.8406 36.9927 46.2725 36.9927 39.4247V36.0323H27.9684V39.4247Z" fill="white"/>
<path d="M40.3841 22.4642H50.563V13.4376H40.3841C33.5363 13.4376 27.9683 19.0057 27.9683 25.8543V27.0058H36.9925V25.8566C36.9982 24.9588 37.3574 24.0994 37.9922 23.4645C38.627 22.8295 39.4863 22.4702 40.3841 22.4642Z" fill="white"/>
<path d="M36.992 27.0081H27.9678V36.0323H36.992V27.0081Z" fill="#16FF99"/>
</svg>
