<svg viewBox="0 0 64 64" fill="none" xmlns="http://www.w3.org/2000/svg">
<circle cx="32" cy="32" r="32" fill="white"/>
<path fill-rule="evenodd" clip-rule="evenodd" d="M47.8738 22.0133L50.9444 20.1752C49.8915 19.63 48.8554 19.0856 47.7846 18.5229L47.7451 18.5021C46.2836 17.7026 44.84 16.8908 43.4003 16.0812C39.6059 13.9475 35.8382 11.8288 31.8407 9.98975C25.3678 13.2435 19.2644 16.6269 12.8657 20.1933C15.0114 21.4371 17.1549 22.6809 19.2985 23.9247C23.492 26.3579 27.6854 28.7912 31.8952 31.2244L32.8505 30.6733L37.9251 27.7314L39.3226 26.9229L36.1051 25.2861L33.9172 26.5359L32.9272 27.0697L31.9711 27.639L19.1011 20.2857L31.9711 13.3722L44.7115 20.2668L47.8738 22.0133ZM30.8121 32.7326V44.1498V48.783V55.0521L11.6177 43.451V21.6462L14.7065 23.4852V41.7234L27.9626 49.8497V34.5897L23.5497 32.0528V28.5589L30.8121 32.7326ZM52.176 21.7378V43.5425C49.626 45.3246 46.7627 46.9154 43.8836 48.515C40.0783 50.6292 36.2456 52.7586 33.0731 55.3648V51.6878C36.0605 49.7354 39.1471 47.8634 42.2608 45.9749L42.261 45.9747L42.2615 45.9744C44.5132 44.6087 46.7791 43.2345 49.0319 41.815V27.1069C47.0327 28.3676 44.9999 29.5123 42.9841 30.6474L42.9841 30.6474C40.5321 32.0281 38.1053 33.3947 35.7948 34.9386V39.9026L33.0723 41.2449V32.7474L52.176 21.7378Z" fill="#010101"/>
<path d="M31.9991 1.59985C48.7491 1.59985 62.3991 15.2499 62.3991 31.9999C62.3991 48.7499 48.7491 62.3999 31.9991 62.3999C15.2491 62.3999 1.59912 48.7499 1.59912 31.9999C1.59912 15.2499 15.2491 1.59985 31.9991 1.59985ZM31.9991 0.0998535C14.3991 0.0998535 0.0991211 14.3999 0.0991211 31.9999C0.0991211 49.5999 14.3491 63.8999 31.9991 63.8999C49.6491 63.8999 63.8991 49.6499 63.8991 31.9999C63.8991 14.3499 49.5991 0.0998535 31.9991 0.0998535Z" fill="#D2D8E2"/>
</svg>
