<svg viewBox="0 0 64 64" fill="none" xmlns="http://www.w3.org/2000/svg">
<path d="M32 64C49.6731 64 64 49.6731 64 32C64 14.3269 49.6731 0 32 0C14.3269 0 0 14.3269 0 32C0 49.6731 14.3269 64 32 64Z" fill="#001D57"/>
<path d="M40.9981 10.5759L43.4041 12.9839L38.8501 17.6639C39.8101 19.1239 40.3261 20.8459 40.3261 22.6219C40.3424 24.9587 39.4387 27.2081 37.8101 28.8839C36.6211 30.1399 35.072 30.9966 33.3761 31.3359V35.4139C35.0421 35.7499 36.5781 36.5979 37.8021 37.8539C39.4355 39.5313 40.3423 41.7847 40.3261 44.1259C40.3418 46.4665 39.435 48.719 37.8021 50.3959C37.0062 51.2204 36.0523 51.8759 34.9974 52.3234C33.9424 52.7708 32.808 53.0009 31.6621 52.9999C30.5158 53.0034 29.3807 52.7745 28.3254 52.3269C27.27 51.8793 26.3164 51.2224 25.5221 50.3959C23.8941 48.716 22.9888 46.4653 23.0001 44.1259C23.0001 41.7659 23.8961 39.5279 25.5161 37.8619C26.7054 36.6066 28.2544 35.7507 29.9501 35.4119V31.3319C28.2626 30.9833 26.7198 30.1328 25.5241 28.8919C23.8949 27.2118 22.9889 24.9602 23.0001 22.6199C23.0001 20.2599 23.8961 18.0219 25.5241 16.3499C26.3198 15.5251 27.2736 14.8692 28.3286 14.4214C29.3836 13.9737 30.518 13.7432 31.6641 13.7439C33.3841 13.7439 35.0381 14.2679 36.4541 15.2419L41.0001 10.5759H40.9981ZM31.6641 38.6899C30.9698 38.6844 30.2817 38.8218 29.6427 39.0936C29.0038 39.3654 28.4276 39.7658 27.9501 40.2699C26.9492 41.3032 26.3928 42.6874 26.4001 44.1259C26.4001 45.5759 26.9501 46.9299 27.9501 47.9799C28.9401 48.9959 30.2621 49.5599 31.6641 49.5599C32.3581 49.5652 33.0458 49.4277 33.6844 49.1559C34.323 48.8841 34.8988 48.4838 35.3761 47.9799C36.3765 46.9472 36.9329 45.5638 36.9261 44.1259C36.9261 42.6759 36.3761 41.3219 35.3701 40.2639C34.8932 39.7616 34.3181 39.3627 33.6806 39.0919C33.0431 38.8212 32.3567 38.6843 31.6641 38.6899ZM35.3701 26.5099C36.3741 25.4758 36.9327 24.0893 36.9261 22.6479C36.9352 21.9347 36.8029 21.2267 36.5369 20.5648C36.2709 19.903 35.8763 19.3004 35.3761 18.7919C34.8954 18.2926 34.3188 17.8953 33.6811 17.6238C33.0433 17.3523 32.3573 17.2122 31.6641 17.2119C30.9698 17.2064 30.2817 17.3438 29.6427 17.6156C29.0038 17.8874 28.4276 18.2878 27.9501 18.7919C26.9492 19.8252 26.3928 21.2094 26.4001 22.6479C26.4001 24.0979 26.9501 25.4519 27.9501 26.5019C28.9401 27.5179 30.2621 28.0819 31.6641 28.0819C33.0861 28.0819 34.3981 27.5299 35.3701 26.5099Z" fill="white"/>
</svg>
