<svg viewBox="0 0 64 64" fill="none" xmlns="http://www.w3.org/2000/svg">
<path d="M32 0C49.6745 0 64 14.3281 64 32C64 49.6718 49.6719 64 32 64C14.3281 64 0 49.6744 0 32.0026C0 14.3307 14.3281 0 32 0Z" fill="black"/>
<path d="M32.0743 60.6145C47.8806 60.6145 60.6941 47.801 60.6941 31.9948C60.6941 16.1885 47.8806 3.375 32.0743 3.375C16.2681 3.375 3.45459 16.1885 3.45459 31.9948C3.45459 47.801 16.2681 60.6145 32.0743 60.6145Z" fill="#FEF102"/>
<path d="M45.6573 21.2198C45.0477 19.5967 44.4405 16.7568 42.6142 15.9465C40.3839 15.1361 38.964 20.8134 38.5576 22.2334H38.1511C37.5415 19.7999 36.7312 16.3504 34.0945 15.5401C32.8778 20.8134 35.3113 26.4932 37.7447 30.9537C40.3814 29.737 41.5981 25.8836 41.8014 23.2469H42.2078L44.8445 31.3601C47.0747 30.7505 47.6843 28.5202 48.4947 26.6964C50.1178 22.6398 51.5378 17.3664 50.5217 12.9059C47.2804 13.7162 46.4676 18.3799 45.6573 21.2198ZM13.41 31.9698C16.2499 30.5498 17.6698 26.29 18.0737 23.2494H18.4802C18.8866 24.6693 19.6969 28.3195 21.5232 28.726C23.7535 28.9292 24.9702 23.859 25.1735 22.4391H25.5799C26.3902 24.8725 26.9998 28.3221 29.6365 29.5388C30.65 25.6854 29.4333 21.4255 28.0133 17.7753C27.6069 16.7618 26.7966 14.3283 25.5799 14.3283C23.5528 14.3283 22.3336 20.0081 21.9297 21.4281H21.5232L18.8841 13.3098C14.0171 15.5426 11.5836 27.5067 13.41 31.9698ZM8.33984 36.0264C11.7868 51.2368 28.0133 59.9597 42.4135 53.4696C47.6868 51.0361 51.9467 46.9795 54.3802 41.7062C54.9898 40.2862 56.2065 37.8527 55.5969 36.2296C54.7866 34.4032 47.8901 37.4463 46.2669 38.0559C46.0637 38.2592 45.8605 38.4624 45.8605 38.6656C45.8605 39.072 45.8605 39.4759 46.0637 39.6791C46.2669 39.8823 46.6733 40.0855 47.0772 40.0855C48.294 40.2887 49.9171 40.2887 49.9171 40.2887C44.6438 50.429 30.4468 54.8921 20.5072 46.7788C18.2769 44.9499 16.2499 42.7197 15.0331 40.2862C14.4235 39.0695 13.8164 37.4463 12.5997 36.636C11.3804 35.8232 9.75728 35.62 8.33984 36.0264Z" fill="black"/>
</svg>
