<svg viewBox="0 0 64 64" fill="none" xmlns="http://www.w3.org/2000/svg">
<path d="M32 64C49.6731 64 64 49.6731 64 32C64 14.3269 49.6731 0 32 0C14.3269 0 0 14.3269 0 32C0 49.6731 14.3269 64 32 64Z" fill="#542BF3"/>
<path fill-rule="evenodd" clip-rule="evenodd" d="M31.0334 35.1335C26.3001 35.1335 22.5001 31.3335 22.5001 26.6002C22.5001 21.8668 26.3001 18.0668 31.0334 18.0668C35.7667 18.0668 39.5667 21.8668 39.5667 26.6002C39.5667 31.3335 35.7667 35.1335 31.0334 35.1335ZM31.0334 13.8002C38.1001 13.8002 43.8334 19.5335 43.8334 26.6002C43.8334 33.6668 38.1001 39.4002 31.0334 39.4002C23.9667 39.4002 18.2334 33.6668 18.2334 26.6002C18.2334 19.5335 23.9667 13.8002 31.0334 13.8002ZM43.2334 40.0668C44.1001 40.9335 44.1001 42.2668 43.2334 43.0668L34.7001 51.6002C33.8334 52.4668 32.5001 52.4668 31.7001 51.6002C30.8334 50.7335 30.8334 49.4002 31.7001 48.6002L40.2334 40.0668C41.0334 39.2002 42.4334 39.2002 43.2334 40.0668ZM48.1667 15.9335C48.1667 17.1335 47.2334 18.0668 46.0334 18.0668C44.8334 18.0668 43.9001 17.1335 43.9001 15.9335C43.9001 14.7335 44.8334 13.8002 46.0334 13.8002C47.1667 13.8002 48.1667 14.7335 48.1667 15.9335Z" fill="white"/>
</svg>
