<svg viewBox="0 0 64 64" fill="none" xmlns="http://www.w3.org/2000/svg">
<path d="M32 64C49.6731 64 64 49.6731 64 32C64 14.3269 49.6731 0 32 0C14.3269 0 0 14.3269 0 32C0 49.6731 14.3269 64 32 64Z" fill="#7F27FF"/>
<path d="M30.7523 27.9982H16.0374V42.4437C16.0225 43.9217 16.614 45.3434 17.6786 46.3886C18.7432 47.4337 20.1915 48.0144 21.697 47.9997H30.7523V27.9982ZM31.0931 20.442H32.6753C34.2448 17.7434 35.6804 15.9068 37.0291 14.9138C38.6932 13.6885 40.3984 13.6775 41.7346 14.9892C42.9821 16.2139 43.2166 17.7501 42.3926 19.229C42.1626 19.6416 41.853 20.0463 41.4673 20.442H47.2834C48.6417 20.442 50 21.5584 50 23.1089C50 24.4423 48.8628 25.7758 47.2834 25.7758H33.0161V22.2199H30.7523V25.7758H16.7166C15.3583 25.7758 14 24.6594 14 23.1089C14 21.7755 15.1372 20.442 16.7166 20.442H22.5951C22.1995 20.0655 21.8731 19.6835 21.6198 19.2972C20.645 17.8105 20.7633 16.2365 22.0338 14.9892C23.37 13.6775 25.0751 13.6885 26.7393 14.9138C28.088 15.9068 29.5236 17.7434 31.0931 20.442ZM28.4621 20.442C27.3034 18.5964 26.2655 17.343 25.381 16.6917C24.5644 16.0905 24.1164 16.0876 23.6345 16.5607C23.1404 17.0458 23.1091 17.4625 23.5234 18.0943C23.9968 18.8164 24.9899 19.6295 26.4216 20.442H28.4621ZM35.3063 20.442H37.7477C39.1111 19.6571 40.014 18.8668 40.4065 18.1625C40.7453 17.5545 40.6746 17.0916 40.1338 16.5607C39.6519 16.0876 39.2039 16.0905 38.3874 16.6917C37.5029 17.343 36.4649 18.5964 35.3063 20.442ZM33.0161 27.9982H47.7309V42.4437C47.7458 43.9217 47.1544 45.3434 46.0897 46.3886C45.0251 47.4337 43.5769 48.0144 42.0714 47.9997H33.0161V27.9982Z" fill="white"/>
</svg>
