<svg viewBox="0 0 64 64" fill="none" xmlns="http://www.w3.org/2000/svg">
<circle cx="32" cy="32" r="30" fill="white"/>
<path fill-rule="evenodd" clip-rule="evenodd" d="M24.4563 24.6289V7.28618C16.1629 9.80655 9.69983 16.3161 7.23829 24.6289H24.4563ZM30.6307 28.9145C32.139 27.4064 36.3084 23.2374 47.8628 11.6841C43.3325 8.12402 37.7213 6.17382 31.9582 6.17382C31.5371 6.17382 31.0982 6.18691 30.6307 6.21309V28.9145ZM6.20499 30.8018C6.18427 31.2119 6.17437 31.589 6.17437 31.9543C6.17437 37.7172 8.12488 43.3276 11.6852 47.8578L24.4563 35.0878V30.8018H6.20499ZM16.0554 52.227C20.586 55.7859 26.1962 57.7356 31.9582 57.7356C46.1755 57.7356 57.7422 46.1702 57.7422 31.9543C57.7422 26.1931 55.7923 20.5835 52.2331 16.0542L16.0554 52.227ZM31.9582 63.9095C24.5543 63.9095 17.3853 61.3338 11.6763 56.6394L11.6615 56.655L11.0324 56.1186C9.79297 55.0536 8.67879 53.8719 8.3407 53.5066L8.3141 53.4783C8.20276 53.3575 8.10608 53.2507 8.02393 53.1569L8.00279 53.1338C7.88792 53.0024 7.81231 52.9124 7.76499 52.852L7.45795 52.4597C2.64464 46.715 0 39.4546 0 31.9543C0 14.3346 14.3364 0 31.9582 0C39.3984 0 46.602 2.60125 52.3254 7.3398L52.3435 7.32545L52.8862 7.78916C53.188 8.04716 53.4674 8.30097 53.7361 8.55057C55.0625 9.78205 55.9533 10.8239 56.1015 11L56.1733 11.0743L56.1834 11.0946L56.5116 11.4675L56.497 11.4954C61.2865 17.2329 63.9168 24.4739 63.9168 31.9543C63.9168 49.5745 49.5802 63.9095 31.9582 63.9095Z" fill="url(#paint0_linear_110_615)"/>
<defs>
<linearGradient id="paint0_linear_110_615" x1="7.15051" y1="2.53699" x2="51.1327" y2="54.7421" gradientUnits="userSpaceOnUse">
<stop stop-color="#EE2649"/>
<stop offset="0.2122" stop-color="#EE3449"/>
<stop offset="0.5581" stop-color="#F05048"/>
<stop offset="1" stop-color="#F36E45"/>
</linearGradient>
</defs>
</svg>
