<svg viewBox="0 0 64 64" fill="none" xmlns="http://www.w3.org/2000/svg">
<circle cx="32" cy="32" r="32" fill="#BC423B"/>
<mask id="mask0_110_616" style="mask-type:alpha" maskUnits="userSpaceOnUse" x="0" y="0" width="64" height="64">
<circle cx="32" cy="32" r="32" fill="#BC423B"/>
</mask>
<g mask="url(#mask0_110_616)">
<path fill-rule="evenodd" clip-rule="evenodd" d="M25.3487 0.461426C10.8178 3.87622 0 16.9224 0 32.4952C0 44.5202 6.45015 55.0386 16.0793 60.7794C5.97278 34.1836 15.4525 12.4182 25.3487 0.461426Z" fill="#A33331"/>
<path fill-rule="evenodd" clip-rule="evenodd" d="M8.49958 55.4508C18.4409 66.0283 34.6884 68.7955 47.8038 61.2234C57.931 55.3764 63.6532 44.8297 63.8059 33.9287C46.3214 55.3723 23.3813 57.9715 8.49958 55.4508Z" fill="#AF3A36"/>
<path fill-rule="evenodd" clip-rule="evenodd" d="M62.7995 41.1775C66.9891 27.2793 61.2617 11.8251 48.1465 4.25305C38.0191 -1.594 26.0241 -1.27614 16.5072 4.04226C43.8202 8.46235 57.5414 27.0292 62.7995 41.1775Z" fill="#CA4745"/>
<path fill-rule="evenodd" clip-rule="evenodd" d="M16.191 15.3832H-2.13281L4.04683 -9.06665L30.5257 -3.41098C25.9184 0.27403 20.3141 6.75328 16.191 15.3832Z" fill="#A33331"/>
</g>
<path d="M14.4087 17.7291H23.2985C24.5272 17.7291 25.7077 17.8502 26.84 18.0924C27.9964 18.3103 29.0203 18.6978 29.9117 19.2548C30.8031 19.8117 31.5138 20.5625 32.0438 21.5069C32.5738 22.4513 32.8388 23.6501 32.8388 25.1031C32.8388 26.9677 32.3209 28.5297 31.2849 29.789C30.2731 31.0482 28.8155 31.811 26.9123 32.0774L33.7061 43.4471H28.2132L22.2867 32.5496H18.962V43.4471H14.4087V17.7291ZM22.5035 28.6266C23.154 28.6266 23.8044 28.6023 24.4549 28.5539C25.1054 28.4813 25.6956 28.336 26.2257 28.118C26.7798 27.8759 27.2255 27.5247 27.5627 27.0646C27.9 26.5803 28.0687 25.9143 28.0687 25.0667C28.0687 24.316 27.9121 23.7106 27.5989 23.2505C27.2857 22.7904 26.8761 22.4513 26.3702 22.2334C25.8643 21.9912 25.2981 21.8338 24.6717 21.7612C24.0695 21.6885 23.4792 21.6522 22.901 21.6522H18.962V28.6266H22.5035Z" fill="white"/>
<path d="M35.6895 26.0112H39.8091V28.6266H39.8814C40.5078 27.561 41.351 26.7861 42.411 26.3018C43.4711 25.8174 44.6154 25.5753 45.8441 25.5753C47.1691 25.5753 48.3617 25.8174 49.4217 26.3018C50.4817 26.7619 51.3852 27.4036 52.132 28.227C52.8789 29.0504 53.445 30.019 53.8305 31.133C54.216 32.2469 54.4087 33.4457 54.4087 34.7291C54.4087 36.0126 54.2039 37.2113 53.7943 38.3253C53.3848 39.4392 52.8066 40.4079 52.0597 41.2313C51.337 42.0546 50.4576 42.7085 49.4217 43.1928C48.3858 43.6529 47.2535 43.883 46.0248 43.883C45.2057 43.883 44.4829 43.7982 43.8565 43.6287C43.2301 43.4592 42.676 43.2412 42.1942 42.9749C41.7124 42.7085 41.3028 42.43 40.9655 42.1394C40.6282 41.8246 40.3512 41.5219 40.1344 41.2313H40.026V51.7291H35.6895V26.0112ZM50.0722 34.7291C50.0722 34.0511 49.9517 33.3972 49.7108 32.7676C49.494 32.138 49.1567 31.581 48.699 31.0966C48.2653 30.6123 47.7353 30.2249 47.1089 29.9343C46.4825 29.6437 45.7718 29.4984 44.9768 29.4984C44.1818 29.4984 43.4711 29.6437 42.8447 29.9343C42.2183 30.2249 41.6762 30.6123 41.2185 31.0966C40.7848 31.581 40.4476 32.138 40.2066 32.7676C39.9898 33.3972 39.8814 34.0511 39.8814 34.7291C39.8814 35.4072 39.9898 36.061 40.2066 36.6907C40.4476 37.3203 40.7848 37.8773 41.2185 38.3616C41.6762 38.8459 42.2183 39.2334 42.8447 39.524C43.4711 39.8146 44.1818 39.9599 44.9768 39.9599C45.7718 39.9599 46.4825 39.8146 47.1089 39.524C47.7353 39.2334 48.2653 38.8459 48.699 38.3616C49.1567 37.8773 49.494 37.3203 49.7108 36.6907C49.9517 36.061 50.0722 35.4072 50.0722 34.7291Z" fill="white"/>
</svg>
