<svg viewBox="0 0 64 64" fill="none" xmlns="http://www.w3.org/2000/svg">
<rect width="64" height="64" rx="32" fill="white"/>
<path fill-rule="evenodd" clip-rule="evenodd" d="M14.8058 49.9999H10L24.7359 32.8776C25.2068 32.3308 25.2068 31.5107 24.7359 30.9783L10.1108 14H14.7365L29.4447 31.1222C29.8186 31.6258 29.8879 32.3597 29.4863 32.8344C25.6361 37.3093 14.8058 49.9999 14.8058 49.9999ZM53.8891 14H49.2771L30.6634 35.7553C30.1787 36.2877 30.1649 37.1366 30.6357 37.6834L31.1343 38.3165L41.1198 49.9999H45.9395L35.1368 37.3956C34.6659 36.8488 34.6798 35.9999 35.1645 35.4675L53.8891 14ZM38.5714 36.1151C38.4606 36.5612 38.5714 37.0504 38.8761 37.4101C41.5629 40.5612 49.6234 50.0001 49.6234 50.0001H53.9999L40.2472 34.0288L39.0008 35.4101C38.8346 35.5972 38.6545 35.8705 38.5714 36.1151ZM18.4204 14H22.8661C22.8661 14 30.788 23.5108 33.6549 26.4604C34.1119 26.9208 34.0288 27.5251 33.6133 28.0143C32.0899 29.8129 32.0483 29.8417 32.0483 29.8417L18.4204 14ZM36.1342 25.0503L45.5934 14H41.1201L36.1758 19.7842L34.7493 21.4532C34.2645 21.9856 34.2507 22.8201 34.7216 23.3813C35.0817 23.7985 36.1342 25.0503 36.1342 25.0503ZM18.4623 50L27.9215 38.9497C27.9215 38.9497 28.974 40.2015 29.3341 40.6188C29.805 41.1799 29.7911 42.0144 29.3064 42.5468L27.8799 44.2159L22.9357 50H18.4623Z" fill="#17B5CB"/>
<path d="M31.9991 1.59985C48.7491 1.59985 62.3991 15.2499 62.3991 31.9999C62.3991 48.7499 48.7491 62.3999 31.9991 62.3999C15.2491 62.3999 1.59912 48.7499 1.59912 31.9999C1.59912 15.2499 15.2491 1.59985 31.9991 1.59985ZM31.9991 0.0998535C14.3991 0.0998535 0.0991211 14.3999 0.0991211 31.9999C0.0991211 49.5999 14.3491 63.8999 31.9991 63.8999C49.6491 63.8999 63.8991 49.6499 63.8991 31.9999C63.8991 14.3499 49.5991 0.0998535 31.9991 0.0998535Z" fill="#D2D8E2"/>
</svg>
