<svg viewBox="0 0 64 64" fill="none" xmlns="http://www.w3.org/2000/svg">
<circle cx="32" cy="32" r="32" fill="white"/>
<path d="M31.9991 1.59985C48.7491 1.59985 62.3991 15.2499 62.3991 31.9999C62.3991 48.7499 48.7491 62.3999 31.9991 62.3999C15.2491 62.3999 1.59912 48.7499 1.59912 31.9999C1.59912 15.2499 15.2491 1.59985 31.9991 1.59985ZM31.9991 0.0998535C14.3991 0.0998535 0.0991211 14.3999 0.0991211 31.9999C0.0991211 49.5999 14.3491 63.8999 31.9991 63.8999C49.6491 63.8999 63.8991 49.6499 63.8991 31.9999C63.8991 14.3499 49.5991 0.0998535 31.9991 0.0998535Z" fill="#D2D8E2"/>
<path d="M41.9997 15.9461C43.3428 15.9461 44.4342 14.836 44.4342 13.4722C44.4342 12.1083 43.3428 11 41.9997 11C40.6565 11.007 39.5651 12.1154 39.5651 13.4792C39.5651 14.8431 40.6565 15.9461 41.9997 15.9461ZM42.7179 22.3742C43.2688 22.37 43.7955 22.1469 44.182 21.754C44.5686 21.3612 44.7834 20.8307 44.7793 20.2792C44.7793 19.1269 43.8568 18.1841 42.7179 18.1841C41.579 18.1841 40.6565 19.1198 40.6565 20.2792C40.6565 21.4387 41.5772 22.3742 42.7179 22.3742ZM48.3774 23.1935C49.5111 23.1935 50.4335 22.2579 50.4335 21.1037C50.4335 19.9496 49.5111 19.0139 48.3774 19.0139C47.2438 19.0139 46.3213 19.9496 46.3213 21.1037C46.3213 22.2579 47.2455 23.1935 48.3774 23.1935ZM47.6979 28.693C48.6697 28.693 49.4565 27.893 49.4565 26.908C49.4565 25.923 48.6697 25.123 47.6979 25.123C46.7262 25.123 45.9393 25.923 45.9393 26.908C45.9393 27.893 46.7262 28.693 47.6979 28.693ZM52.2291 30.4762C53.2078 30.4762 54 29.6709 54 28.6789C54 27.6868 53.2078 26.8816 52.2291 26.8816C51.9949 26.8832 51.7633 26.9309 51.5476 27.0221C51.3319 27.1133 51.1362 27.2462 50.9717 27.4131C50.8073 27.58 50.6773 27.7777 50.5892 27.9948C50.5011 28.212 50.4565 28.4445 50.4582 28.6789C50.4582 29.6709 51.2521 30.4762 52.2291 30.4762ZM42.0032 27.9494C42.2413 27.948 42.4768 27.8997 42.6963 27.8072C42.9157 27.7147 43.1148 27.5798 43.2822 27.4103C43.4496 27.2408 43.582 27.04 43.6718 26.8192C43.7617 26.5985 43.8072 26.3622 43.8058 26.1239V26.1203C43.8058 25.1107 43.0013 24.2913 42.0032 24.2913C41.0051 24.2913 40.2006 25.1089 40.2006 26.1203C40.2006 27.1247 41.0068 27.9494 42.0032 27.9494ZM40.3696 32.3246C41.2058 32.3246 41.88 31.6374 41.88 30.7934C41.8833 30.3905 41.7265 30.0029 41.4443 29.7158C41.1621 29.4286 40.7775 29.2654 40.375 29.2621H40.3696C39.5334 29.2621 38.8592 29.9493 38.8592 30.7934C38.8592 31.6374 39.5334 32.3246 40.3696 32.3246ZM46.0379 33.0981C46.236 33.0968 46.4319 33.0564 46.6144 32.9792C46.7969 32.9021 46.9624 32.7897 47.1015 32.6486C47.2406 32.5074 47.3506 32.3402 47.4251 32.1565C47.4997 31.9727 47.5374 31.7761 47.536 31.5778V31.5741C47.536 30.7319 46.8671 30.0499 46.0379 30.0499C45.2088 30.0499 44.5399 30.7319 44.5399 31.5741C44.5373 31.7717 44.5737 31.9679 44.6468 32.1514C44.72 32.3349 44.8286 32.5022 44.9663 32.6437C45.1041 32.7852 45.2684 32.8982 45.4498 32.9762C45.6311 33.0542 45.8261 33.0956 46.0235 33.0981H46.0379ZM50.5567 34.8743C51.3929 34.8743 52.0671 34.1871 52.0671 33.3378C52.0671 32.4885 51.3929 31.8013 50.5567 31.8013C49.7206 31.8013 49.0464 32.4885 49.0464 33.3378C49.0421 33.7411 49.1981 34.1295 49.48 34.4177C49.7619 34.7058 50.1466 34.8701 50.5495 34.8743H50.5567ZM48.3246 38.1941C49.0305 38.1941 49.6009 37.6108 49.6009 36.8989C49.6009 36.1871 49.0305 35.6038 48.3246 35.6038C47.6187 35.6038 47.0484 36.1871 47.0484 36.8989C47.0484 37.6108 47.6187 38.1941 48.3246 38.1941ZM43.7847 36.4461C44.5029 36.4461 45.0909 35.8505 45.0909 35.1192C45.0909 34.388 44.5082 33.7924 43.7847 33.7924C43.0612 33.7924 42.4785 34.388 42.4785 35.1192C42.4785 35.8505 43.0665 36.4461 43.7847 36.4461ZM38.1234 35.6355C38.468 35.6301 38.7966 35.4894 39.0384 35.2436C39.2803 34.9979 39.4159 34.6668 39.4162 34.3219C39.4164 33.9769 39.2812 33.6457 39.0397 33.3997C38.7982 33.1536 38.4697 33.0124 38.1251 33.0065H38.1234C37.7788 33.0119 37.4502 33.1527 37.2083 33.3984C36.9665 33.6442 36.8308 33.9752 36.8306 34.3202C36.8304 34.6651 36.9656 34.9963 37.2071 35.2424C37.4486 35.4885 37.7771 35.6297 38.1216 35.6355H38.1234ZM41.2709 38.7544C41.8958 38.7544 42.3975 38.2399 42.3975 37.6143C42.4003 37.3148 42.2842 37.0264 42.0746 36.8126C41.865 36.5988 41.5791 36.4771 41.2799 36.4743H41.2709C40.646 36.4743 40.1443 36.9888 40.1443 37.6143C40.141 37.9134 40.2565 38.2015 40.4655 38.4153C40.6744 38.6291 40.9596 38.7511 41.2584 38.7544H41.2709ZM45.8091 40.5323C46.434 40.5323 46.948 40.0178 46.948 39.3799C46.948 38.7421 46.441 38.2275 45.8091 38.2275C45.5037 38.2275 45.2109 38.349 44.995 38.5651C44.7791 38.7812 44.6578 39.0743 44.6578 39.3799C44.6578 39.6856 44.7791 39.9787 44.995 40.1948C45.2109 40.4109 45.5037 40.5323 45.8091 40.5323ZM43.2531 41.8662C43.7477 41.8662 44.1508 41.4574 44.1508 40.9552C44.1522 40.7153 44.0585 40.4847 43.8902 40.3139C43.7219 40.1431 43.4927 40.0461 43.2531 40.0442C42.7584 40.0442 42.3553 40.453 42.3553 40.9552C42.3548 41.1949 42.4488 41.425 42.617 41.5956C42.7851 41.7662 43.0137 41.8634 43.2531 41.8662ZM40.8308 42.5816C40.938 42.581 41.0441 42.5591 41.1429 42.5175C41.2418 42.4758 41.3314 42.415 41.4068 42.3386C41.4821 42.2622 41.5417 42.1717 41.5821 42.0723C41.6225 41.9729 41.643 41.8664 41.6423 41.7591V41.757C41.6423 41.2988 41.2762 40.9323 40.8308 40.9323C40.7236 40.933 40.6175 40.9548 40.5187 40.9965C40.4199 41.0382 40.3302 41.099 40.2549 41.1754C40.1795 41.2517 40.1199 41.3422 40.0795 41.4417C40.0391 41.5411 40.0186 41.6475 40.0193 41.7549V41.757C40.0156 41.9719 40.0973 42.1795 40.2465 42.3341C40.3956 42.4887 40.6001 42.5777 40.8148 42.5814L40.8308 42.5816ZM38.7096 40.2099C39.243 40.2099 39.676 39.7694 39.676 39.2302C39.676 38.691 39.243 38.2505 38.7096 38.2505C38.1762 38.2505 37.7431 38.691 37.7431 39.2302C37.7426 39.488 37.8439 39.7357 38.0249 39.9192C38.2059 40.1026 38.452 40.2071 38.7096 40.2099ZM35.5973 37.9632C36.2169 37.9632 36.7239 37.4558 36.7239 36.8232C36.7239 36.1906 36.2222 35.6831 35.5973 35.6831C34.9776 35.6831 34.4707 36.1906 34.4707 36.8232C34.4702 37.1235 34.5883 37.4119 34.7994 37.6255C35.0104 37.839 35.2972 37.9604 35.5973 37.9632ZM44.8268 52.2466C46.1647 52.2466 47.2491 51.1435 47.2491 49.785C47.2491 48.4264 46.1647 47.3234 44.8268 47.3234C43.4889 47.3234 42.4046 48.4264 42.4046 49.785C42.4046 51.1435 43.4889 52.2466 44.8268 52.2466ZM38.6744 49.1312C39.7887 49.1312 40.6935 48.2132 40.6935 47.0802C40.6935 45.9472 39.7887 45.0291 38.6744 45.0291C37.5601 45.0291 36.6552 45.9472 36.6552 47.0802C36.6552 48.2132 37.5583 49.1312 38.6744 49.1312ZM35.159 53.6404C36.2856 53.6404 37.1957 52.7171 37.1957 51.57C37.1957 50.4299 36.2856 49.4995 35.159 49.4995C34.0323 49.4995 33.1222 50.4228 33.1222 51.57C33.118 52.1148 33.3302 52.6391 33.7121 53.0274C34.0941 53.4156 34.6144 53.6362 35.1588 53.6404H35.159ZM34.101 45.3322C34.3345 45.3306 34.5653 45.283 34.7804 45.192C34.9955 45.1011 35.1906 44.9687 35.3546 44.8022C35.5185 44.6358 35.6481 44.4387 35.736 44.2222C35.8239 44.0056 35.8682 43.7739 35.8666 43.5402C35.8682 43.3065 35.8239 43.0747 35.736 42.8582C35.6481 42.6416 35.5185 42.4445 35.3546 42.2781C35.1906 42.1117 34.9955 41.9793 34.7804 41.8883C34.5653 41.7974 34.3345 41.7498 34.101 41.7482C33.8675 41.7498 33.6366 41.7974 33.4215 41.8883C33.2064 41.9793 33.0113 42.1117 32.8474 42.2781C32.6834 42.4445 32.5538 42.6416 32.466 42.8582C32.3781 43.0747 32.3337 43.3065 32.3353 43.5402C32.3371 44.527 33.1293 45.3322 34.101 45.3322ZM30.5944 49.903C31.5661 49.903 32.353 49.1031 32.353 48.1181C32.353 47.1331 31.5661 46.3331 30.5944 46.3331C29.6226 46.3331 28.8358 47.1331 28.8358 48.1181C28.8311 48.5868 29.0126 49.0381 29.3404 49.3728C29.6682 49.7076 30.1154 49.8983 30.5836 49.903H30.5944ZM26.8149 53.0043C27.7866 53.0043 28.5682 52.2043 28.5682 51.2246C28.5682 50.2396 27.7813 49.4449 26.8149 49.4449C25.8432 49.4449 25.0616 50.2449 25.0616 51.2246C25.0616 52.2043 25.8484 53.0043 26.8149 53.0043ZM23.6691 48.9674C24.0687 48.9637 24.4505 48.8019 24.7312 48.5173C25.0119 48.2327 25.1687 47.8484 25.1672 47.4485C25.1672 46.6115 24.4983 45.9296 23.6691 45.9296C23.2707 45.9356 22.8906 46.0983 22.611 46.3825C22.3314 46.6667 22.1746 47.0496 22.1746 47.4485C22.1746 47.8473 22.3314 48.2302 22.611 48.5144C22.8906 48.7986 23.2707 48.9613 23.6691 48.9674ZM27.4557 45.852C27.8555 45.8492 28.2378 45.6877 28.5187 45.4029C28.7996 45.1181 28.9561 44.7333 28.9537 44.3331C28.9537 43.4909 28.2848 42.8142 27.4557 42.8142C27.0572 42.8196 26.6768 42.9816 26.3966 43.2653C26.1165 43.549 25.9591 43.9316 25.9584 44.3305C25.9577 44.7294 26.1138 45.1126 26.3929 45.3973C26.6721 45.682 27.0519 45.8453 27.4504 45.852H27.4557ZM30.9887 41.283C31.1868 41.2816 31.3827 41.2412 31.5652 41.1641C31.7476 41.0869 31.9132 40.9746 32.0523 40.8334C32.1914 40.6922 32.3014 40.525 32.3759 40.3413C32.4504 40.1576 32.4881 39.9609 32.4867 39.7627V39.759C32.4867 38.9167 31.8178 38.2348 30.9887 38.2348C30.7906 38.2361 30.5947 38.2765 30.4122 38.3537C30.2297 38.4308 30.0642 38.5432 29.9251 38.6844C29.786 38.8255 29.676 38.9927 29.6015 39.1765C29.5269 39.3602 29.4892 39.5568 29.4906 39.7551V39.7588C29.4906 40.6011 30.1596 41.283 30.9887 41.283ZM25.5844 41.912C26.3026 41.912 26.8853 41.3235 26.8853 40.5922C26.8853 39.861 26.3026 39.2725 25.5844 39.2725C24.8662 39.2725 24.2835 39.861 24.2835 40.5922C24.2835 41.3235 24.8662 41.912 25.5844 41.912ZM21.8172 45.015C21.9874 45.0141 22.1557 44.9797 22.3125 44.9136C22.4694 44.8476 22.6117 44.7513 22.7313 44.6302C22.851 44.5091 22.9456 44.3656 23.0099 44.2079C23.0742 44.0502 23.1067 43.8814 23.1058 43.7111V43.7076C23.1091 43.3641 22.976 43.0334 22.7357 42.7882C22.4954 42.543 22.1676 42.4034 21.8245 42.4001H21.8172C21.6471 42.4011 21.4788 42.4355 21.322 42.5015C21.1651 42.5676 21.0228 42.6639 20.9032 42.785C20.7835 42.906 20.6888 43.0495 20.6246 43.2072C20.5603 43.3649 20.5277 43.5338 20.5287 43.7041V43.7076C20.5275 43.8781 20.5599 44.0472 20.624 44.2052C20.6882 44.3632 20.7828 44.507 20.9024 44.6285C21.0221 44.7499 21.1645 44.8465 21.3214 44.9128C21.4784 44.9792 21.6469 45.0139 21.8172 45.015ZM20.9511 41.3781C21.2481 41.3758 21.532 41.2558 21.7409 41.0445C21.9497 40.8332 22.0664 40.5476 22.0655 40.2504C22.0655 39.6249 21.5638 39.1227 20.9511 39.1227C20.3385 39.1227 19.8368 39.6302 19.8368 40.2504C19.8368 40.8759 20.3385 41.3781 20.9511 41.3781ZM20.9195 38.187C21.0459 38.1859 21.1709 38.1598 21.2873 38.1103C21.4037 38.0608 21.5092 37.9888 21.5978 37.8985C21.6864 37.8082 21.7563 37.7013 21.8037 37.5839C21.851 37.4665 21.8747 37.3409 21.8736 37.2143C21.8736 36.6804 21.4458 36.2417 20.9195 36.2417C20.3931 36.2417 19.9654 36.6752 19.9654 37.2143C19.9654 37.7535 20.3931 38.187 20.9195 38.187ZM21.444 35.5333C21.8965 35.5333 22.2556 35.1615 22.2556 34.7087C22.2556 34.2558 21.8894 33.884 21.444 33.884C20.9916 33.884 20.6325 34.2558 20.6325 34.7087C20.6325 35.1615 20.9916 35.5333 21.444 35.5333ZM24.6919 35.0893C25.2253 35.0893 25.6583 34.6488 25.6583 34.1096C25.6583 33.5704 25.2253 33.1299 24.6919 33.1299C24.1585 33.1299 23.7255 33.5704 23.7255 34.1096C23.7245 34.3676 23.8257 34.6154 24.0067 34.799C24.1878 34.9826 24.4342 35.087 24.6919 35.0893ZM28.2566 33.699C28.8763 33.699 29.3832 33.1845 29.3832 32.559C29.3861 32.2594 29.2699 31.971 29.0603 31.7572C28.8507 31.5434 28.5648 31.4217 28.2656 31.4189H28.2566C27.637 31.4189 27.13 31.9334 27.13 32.559C27.1288 32.7075 27.1569 32.8548 27.2126 32.9925C27.2684 33.1302 27.3506 33.2556 27.4548 33.3615C27.5589 33.4673 27.6828 33.5516 27.8195 33.6095C27.9562 33.6675 28.1029 33.6979 28.2513 33.699H28.2566ZM29.1051 37.3183C29.4441 37.3176 29.769 37.1822 30.0083 36.9419C30.2476 36.7016 30.3819 36.376 30.3815 36.0367C30.3812 35.6973 30.2463 35.372 30.0064 35.1322C29.7666 34.8924 29.4415 34.7577 29.1025 34.7577C28.7635 34.7577 28.4383 34.8924 28.1985 35.1322C27.9587 35.372 27.8237 35.6973 27.8234 36.0367C27.823 36.376 27.9573 36.7016 28.1966 36.9419C28.436 37.1822 28.7608 37.3176 29.0998 37.3183H29.1051ZM24.7377 38.2822C25.3573 38.2822 25.852 37.7747 25.852 37.1474C25.852 36.5201 25.3503 36.0126 24.7377 36.0126C24.5904 36.0135 24.4448 36.0434 24.3091 36.1007C24.1734 36.1579 24.0503 36.2414 23.9468 36.3462C23.8433 36.4511 23.7615 36.5754 23.706 36.7119C23.6505 36.8484 23.6224 36.9945 23.6234 37.1419V37.1474C23.6213 37.2943 23.6481 37.4402 23.7023 37.5767C23.7566 37.7132 23.8371 37.8377 23.9394 37.9431C24.0417 38.0484 24.1637 38.1326 24.2985 38.1907C24.4333 38.2489 24.5782 38.2799 24.725 38.282H24.7377V38.2822ZM12.4152 36.5994C13.746 36.5994 14.8304 35.5016 14.8304 34.1501C14.8304 32.7986 13.746 31.7008 12.4152 31.7008C11.0844 31.7008 10 32.8004 10 34.1519C10 35.5034 11.0844 36.5994 12.4152 36.5994ZM17.8969 32.2259C19.0429 32.2259 19.9654 31.2832 19.9654 30.1238C19.9654 28.9643 19.0359 28.0216 17.8969 28.0216C17.3447 28.0253 16.8165 28.2485 16.4286 28.6421C16.0407 29.0356 15.8248 29.5672 15.8285 30.1201V30.1238C15.8285 31.2903 16.758 32.2259 17.8969 32.2259ZM15.7581 26.834C16.8971 26.834 17.8142 25.8983 17.8142 24.7442C17.8142 23.59 16.8918 22.6543 15.7581 22.6543C15.4863 22.6562 15.2174 22.7116 14.967 22.8174C14.7165 22.9232 14.4893 23.0774 14.2984 23.2711C14.1075 23.4648 13.9565 23.6943 13.8542 23.9464C13.7519 24.1985 13.7002 24.4683 13.702 24.7405V24.7442C13.6964 25.2928 13.9088 25.8211 14.2923 26.213C14.6759 26.605 15.1993 26.8283 15.7474 26.834H15.7581ZM21.0427 24.279C22.0144 24.279 22.8083 23.479 22.8083 22.4869C22.8083 21.4949 22.0162 20.6949 21.0427 20.6949C20.0692 20.6949 19.2771 21.4949 19.2771 22.4869C19.2771 23.479 20.071 24.279 21.0427 24.279ZM23.2026 29.6586C24.1814 29.6586 24.9736 28.8533 24.9736 27.8613C24.9736 26.8692 24.1814 26.064 23.2026 26.064C22.2239 26.064 21.4317 26.8692 21.4317 27.8613C21.4317 28.8533 22.2239 29.6586 23.2026 29.6586ZM28.0119 28.5414C28.4143 28.5381 28.7989 28.375 29.0812 28.0879C29.3634 27.8007 29.5202 27.4132 29.517 27.0104C29.5201 26.8125 29.4841 26.616 29.4113 26.4321C29.3384 26.2481 29.2301 26.0803 29.0925 25.9383C28.9549 25.7963 28.7907 25.6827 28.6092 25.6042C28.4278 25.5257 28.2326 25.4837 28.035 25.4807C27.8373 25.4777 27.641 25.5136 27.4573 25.5866C27.2735 25.6595 27.1059 25.7679 26.964 25.9057C26.8221 26.0434 26.7087 26.2078 26.6302 26.3894C26.5518 26.571 26.5098 26.7664 26.5068 26.9642C26.5068 26.9797 26.5068 26.995 26.5068 27.0104C26.5022 27.4118 26.657 27.7986 26.9372 28.0857C27.2175 28.3729 27.6002 28.5369 28.0012 28.5416L28.0119 28.5414ZM32.1664 28.5555C32.8846 28.5555 33.4673 27.967 33.4673 27.241C33.4673 26.515 32.8846 25.9265 32.1664 25.9265C31.8181 25.9265 31.484 26.065 31.2378 26.3115C30.9915 26.558 30.8531 26.8924 30.8531 27.241C30.8531 27.5896 30.9915 27.924 31.2378 28.1705C31.484 28.417 31.8181 28.5555 32.1664 28.5555ZM35.599 29.3467C36.1993 29.3467 36.6957 28.8516 36.6957 28.2366C36.6957 27.6216 36.2064 27.1265 35.599 27.1265C35.3067 27.1288 35.0273 27.2468 34.8217 27.4549C34.6162 27.6629 34.5014 27.944 34.5023 28.2366C34.5094 28.8445 34.997 29.3467 35.599 29.3467ZM36.0462 25.2975C36.3008 25.2956 36.5443 25.1927 36.7232 25.0114C36.9021 24.83 37.0017 24.585 37.0003 24.3301C37.0003 23.7962 36.5725 23.3627 36.0462 23.3627C35.5198 23.3627 35.0921 23.7962 35.0921 24.3301C35.0906 24.585 35.1903 24.83 35.3692 25.0114C35.548 25.1927 35.7915 25.2956 36.0462 25.2975ZM33.4056 23.9724C33.697 23.9717 33.9762 23.8552 34.1818 23.6486C34.3875 23.442 34.5028 23.1621 34.5024 22.8704C34.5021 22.5788 34.3861 22.2992 34.1799 22.0931C33.9737 21.887 33.6943 21.7712 33.4029 21.7712C33.1115 21.7712 32.8321 21.887 32.6259 22.0931C32.4198 22.2992 32.3038 22.5788 32.3034 22.8704C32.303 23.1621 32.4183 23.442 32.624 23.6486C32.8296 23.8552 33.1088 23.9717 33.4002 23.9724H33.4056ZM30.0134 23.1689C30.3574 23.1661 30.6862 23.0269 30.9277 22.7818C31.1693 22.5367 31.3039 22.2057 31.302 21.8614C31.302 21.1354 30.7264 20.554 30.0134 20.554C29.3005 20.554 28.7249 21.1425 28.7249 21.8614C28.7235 22.0317 28.7556 22.2006 28.8194 22.3585C28.8833 22.5164 28.9775 22.6601 29.0969 22.7816C29.2162 22.903 29.3582 22.9997 29.5149 23.0661C29.6716 23.1326 29.8398 23.1675 30.0099 23.1689H30.0134ZM25.8661 23.1742C26.7022 23.1742 27.3764 22.4869 27.3764 21.6429C27.3764 20.7989 26.7022 20.1117 25.8661 20.1117C25.0299 20.1117 24.3557 20.7989 24.3557 21.6429C24.3543 22.0461 24.5123 22.4335 24.7953 22.7204C25.0783 23.0073 25.4633 23.1704 25.8661 23.1742ZM20.2805 19.3452C21.2275 19.3452 21.9898 18.5699 21.9898 17.6095C21.9898 16.6492 21.2222 15.8739 20.2805 15.8739C19.3334 15.8739 18.5712 16.6492 18.5712 17.6095C18.5712 18.5699 19.3387 19.3452 20.2805 19.3452ZM25.088 18.2932C25.9241 18.2932 26.5984 17.606 26.5984 16.762C26.5984 15.9179 25.9241 15.2307 25.088 15.2307C24.2518 15.2307 23.5776 15.9179 23.5776 16.762C23.5776 17.606 24.2518 18.2932 25.088 18.2932ZM29.2406 18.3126C29.9589 18.3126 30.5415 17.7241 30.5415 16.9928C30.5415 16.2615 29.9589 15.673 29.2406 15.673C29.0689 15.6739 28.899 15.7087 28.7407 15.7754C28.5823 15.842 28.4387 15.9392 28.3179 16.0615C28.1971 16.1837 28.1015 16.3285 28.0366 16.4877C27.9717 16.6469 27.9388 16.8174 27.9397 16.9893V16.9928C27.9383 17.3402 28.0743 17.6741 28.3181 17.9214C28.5619 18.1687 28.8936 18.3094 29.2406 18.3126ZM32.6487 19.0985C33.256 19.0985 33.7454 18.6033 33.7454 17.9884C33.7454 17.3734 33.256 16.8783 32.6487 16.8783C32.3546 16.8783 32.0725 16.9952 31.8645 17.2034C31.6565 17.4116 31.5397 17.694 31.5397 17.9884C31.5397 18.2828 31.6565 18.5652 31.8645 18.7733C32.0725 18.9815 32.3546 19.0985 32.6487 19.0985ZM35.2663 20.4588C35.5275 20.4569 35.7772 20.3514 35.9607 20.1654C36.1442 19.9794 36.2465 19.7282 36.2451 19.4668C36.2451 18.9152 35.805 18.4747 35.2663 18.4747C34.7277 18.4747 34.2876 18.9205 34.2876 19.4668C34.2876 20.013 34.7277 20.4588 35.2663 20.4588ZM37.1869 22.02C37.2932 22.0193 37.3984 21.9977 37.4964 21.9563C37.5943 21.9149 37.6832 21.8546 37.7579 21.7789C37.8326 21.7031 37.8917 21.6134 37.9317 21.5148C37.9718 21.4161 37.9921 21.3106 37.9914 21.2042V21.2024C37.9923 21.096 37.9723 20.9904 37.9324 20.8917C37.8926 20.793 37.8337 20.7031 37.7592 20.6272C37.6846 20.5513 37.5959 20.4908 37.498 20.4492C37.4001 20.4076 37.295 20.3857 37.1886 20.3848H37.1869C37.0805 20.3855 36.9754 20.4071 36.8774 20.4485C36.7794 20.4899 36.6905 20.5502 36.6158 20.6259C36.5411 20.7017 36.4821 20.7914 36.442 20.89C36.402 20.9887 36.3817 21.0942 36.3824 21.2006V21.2024C36.3808 21.3081 36.4 21.4132 36.4389 21.5115C36.4778 21.6098 36.5357 21.6995 36.6093 21.7754C36.6829 21.8513 36.7706 21.912 36.8676 21.9539C36.9646 21.9958 37.0689 22.0182 37.1746 22.0198H37.1872L37.1869 22.02Z" fill="black"/>
</svg>
