<svg viewBox="0 0 64 64" fill="none" xmlns="http://www.w3.org/2000/svg">
<path d="M32 64C49.6731 64 64 49.6731 64 32C64 14.3269 49.6731 0 32 0C14.3269 0 0 14.3269 0 32C0 49.6731 14.3269 64 32 64Z" fill="#4F473B"/>
<path d="M33.0503 31.8929L48.1878 46.9218C56.1447 38.482 56.1447 25.303 48.1878 16.864" fill="white"/>
<path d="M31.9442 32.8843L17.0264 47.6919L31.9442 53.8805L46.8629 47.6919" fill="white"/>
<path d="M31.3932 31.3378L46.8654 15.979L32.6074 10.1204L18.4619 44.2684L31.3932 31.3378Z" fill="white"/>
<path d="M9.84233 31.8929C9.83134 37.4822 11.9675 42.8623 15.8096 46.9217L30.6173 11.2235" fill="white"/>
</svg>
