<svg viewBox="0 0 64 64" fill="none" xmlns="http://www.w3.org/2000/svg">
<path d="M32 64C49.6731 64 64 49.6731 64 32C64 14.3269 49.6731 0 32 0C14.3269 0 0 14.3269 0 32C0 49.6731 14.3269 64 32 64Z" fill="#31CA9D"/>
<path d="M17.3583 21.3551C17.7501 20.2972 18.6775 19.7355 19.5003 19.0694C22.4391 16.6923 25.3909 14.3282 28.3428 11.951C28.9305 11.4808 29.4268 11.4678 29.7403 11.938C29.9101 12.1731 29.9232 12.4343 29.8579 12.7086C28.5517 19.0955 27.2587 25.4825 25.9395 31.8564C25.7305 32.849 26.0701 33.7502 26.253 34.6645C27.4285 40.5421 28.6301 46.4066 29.8448 52.2841C29.9362 52.7413 29.8579 53.12 29.453 53.3682C29.0611 53.6164 28.7346 53.4204 28.4211 53.1723C25.0905 50.4947 21.773 47.8172 18.4293 45.1396C17.946 44.7608 17.6587 44.2645 17.3452 43.7682C17.3583 36.2972 17.3583 28.8262 17.3583 21.3551Z" fill="white"/>
<path d="M34.5718 10.6318C38.2942 13.3616 42.0167 16.0784 45.7392 18.8082C46.3792 19.2784 46.3269 19.9314 45.6347 20.3233C40.3187 23.262 35.0028 26.1877 29.6869 29.1265C29.6477 29.1526 29.5824 29.1657 29.4648 29.1918C29.7391 27.9249 30.0134 26.7102 30.2877 25.4824C31.3195 20.8588 32.3514 16.2482 33.3832 11.6245C33.4746 11.1935 33.6575 10.8539 34.0363 10.6318C34.2191 10.6318 34.3889 10.6318 34.5718 10.6318Z" fill="white"/>
<path d="M30.0142 32.0129C30.6672 31.6472 31.3072 31.2684 31.9603 30.9027C36.6362 28.2774 41.3382 25.6521 46.0011 23.0007C46.8892 22.4913 47.5945 22.9223 47.5945 23.9411C47.5554 29.3484 47.5684 34.7688 47.5684 40.1762C47.5684 41.3125 46.9937 41.6521 46.0141 41.1035C40.7897 38.1778 35.5782 35.239 30.3668 32.3133C30.2493 32.235 30.1056 32.2088 30.0142 32.0129Z" fill="white"/>
<path d="M29.5175 35.3567C31.4636 36.4277 33.3706 37.4857 35.2775 38.5306C38.6734 40.3983 42.0563 42.2661 45.4522 44.1469C46.4056 44.6693 46.4448 45.2571 45.5697 45.8971C42.0432 48.4832 38.5297 51.0693 35.0032 53.6424C34.2587 54.191 33.6187 53.9689 33.4228 53.0938C32.1036 47.2424 30.8106 41.391 29.5044 35.5526C29.4914 35.5134 29.5044 35.4742 29.5175 35.3567Z" fill="white"/>
</svg>
