<svg viewBox="0 0 64 64" fill="none" xmlns="http://www.w3.org/2000/svg">
<circle cx="32" cy="32" r="32" fill="#06061A"/>
<path d="M48.7205 21.2825C48.1337 20.8163 47.434 20.1796 46.1589 20.0204C44.9627 19.8612 43.7439 20.6685 42.9201 21.2029C42.0964 21.7373 40.5391 23.3064 39.8958 23.7839C39.2526 24.2615 37.605 24.7049 34.9531 26.3081C32.3012 27.9113 21.8967 34.6424 21.8967 34.6424L24.605 34.6765L12.5304 40.9414H13.7378L12 42.2717C12 42.2717 13.5347 42.6811 14.8212 41.8624V42.2376C14.8212 42.2376 29.1979 36.5298 31.974 38.0079L30.2813 38.5082C30.428 38.5082 33.1589 38.6902 33.1589 38.6902C33.1589 38.6902 33.2491 40.407 34.8967 41.5099C36.5443 42.6015 36.5781 43.2041 36.5781 43.2041C36.5781 43.2041 35.7205 43.5566 35.7205 44C35.7205 44 36.9844 43.6134 38.158 43.6475C39.3316 43.6816 40.3585 44 40.3585 44C40.3585 44 40.2682 43.5225 39.1285 43.2041C37.9774 42.8744 36.8602 41.635 36.3073 40.9528C35.7543 40.2706 35.3707 39.054 35.8446 37.8374C36.2396 36.8027 37.6163 36.2342 40.4601 34.7561C43.8116 33.0051 44.579 31.7089 45.053 30.697C45.5269 29.685 46.2266 27.6725 46.6215 26.7288C47.1181 25.5122 47.7274 24.8641 48.2352 24.4775C48.7318 24.0909 51 23.2382 51 23.2382C51 23.2382 49.2734 21.7259 48.7205 21.2825Z" fill="#FEFEFE"/>
</svg>
