<svg viewBox="0 0 64 64" fill="none" xmlns="http://www.w3.org/2000/svg">
<circle cx="32" cy="32" r="32" fill="#42358A"/>
<path fill-rule="evenodd" clip-rule="evenodd" d="M42.7799 19.3419C43.3166 19.6068 43.8618 19.8764 44.4104 20.1477C44.9135 20.3965 45.4197 20.6468 45.925 20.8963C44.0558 25.913 38.1532 28.1639 33.3276 25.7071C32.8268 25.4532 32.3475 25.1572 31.8682 24.8613L31.8682 24.8613L31.8682 24.8612C31.3889 24.5653 30.9096 24.2693 30.4089 24.0154L30.3632 23.9924C29.4788 23.5465 28.5644 23.0855 27.6102 22.8865C25.5695 22.461 23.8855 23.2468 22.5445 24.7943C22.2631 25.1174 22.0066 25.4606 21.7342 25.825L21.7341 25.825C21.6014 26.0025 21.465 26.1851 21.3201 26.3728C20.775 26.1037 20.2254 25.8318 19.6731 25.5586L19.6719 25.558L19.6702 25.5572C19.1531 25.3014 18.6336 25.0444 18.1133 24.7875C21.1383 19.0537 26.1903 17.513 30.8959 20.0556C31.374 20.315 31.8373 20.5991 32.3012 20.8835C32.7025 21.1295 33.1042 21.3758 33.5162 21.6066L33.6925 21.7053C34.2869 22.0384 34.8897 22.3763 35.5295 22.5948C37.5907 23.3086 39.4565 22.9174 41.0239 21.3836C41.4488 20.9655 41.8287 20.4993 42.2219 20.0167C42.4031 19.7942 42.5873 19.5682 42.7799 19.3419ZM21.3366 36.0148C20.2288 35.4624 19.1862 34.9442 18.147 34.4295C19.6149 29.9173 25.2637 27.3232 29.7189 29.1624C30.4982 29.4841 31.2305 29.918 31.9637 30.3526C32.4663 30.6504 32.9693 30.9486 33.4882 31.2109C33.5766 31.2559 33.6651 31.3014 33.7539 31.3469L33.7539 31.3469C34.6057 31.7837 35.4769 32.2305 36.3931 32.4325C38.427 32.8854 40.1178 32.0962 41.4691 30.5624C41.7572 30.2357 42.0212 29.8879 42.2989 29.5222L42.2989 29.5221C42.4412 29.3348 42.5871 29.1427 42.7416 28.9462C43.8014 29.4712 44.8749 30.0031 45.9484 30.5384C44.2781 34.2237 40.742 36.5261 37.0276 36.3683C35.3539 36.2962 33.8449 35.6923 32.4181 34.8585C32.0465 34.6423 31.6813 34.4155 31.316 34.1887L31.3159 34.1886C30.8754 33.9151 30.4348 33.6415 29.983 33.3864C26.8516 31.6227 24.125 32.2163 21.978 35.1124C21.8481 35.293 21.7182 35.4764 21.5793 35.6726L21.5791 35.6728C21.5016 35.7823 21.4213 35.8957 21.3366 36.0148ZM44.8978 39.6361C44.178 39.2811 43.4542 38.9241 42.7208 38.5608C42.6454 38.6655 42.5725 38.7672 42.5013 38.8667C42.3299 39.1063 42.1678 39.3328 42.0006 39.5558C39.8947 42.349 37.2093 42.9289 34.1499 41.2338C33.6117 40.9353 33.0887 40.6089 32.5655 40.2824C32.2285 40.0721 31.8915 39.8618 31.5502 39.6588C29.537 38.4612 27.3899 37.8161 25.0371 38.2725C21.7206 38.9142 19.7451 41.2235 18.0508 44.0063C18.5595 44.2577 19.0577 44.5042 19.5498 44.7476C20.1459 45.0425 20.7331 45.333 21.3193 45.6225C21.4568 45.4455 21.5883 45.2715 21.7173 45.1008C22.0033 44.7224 22.2767 44.3606 22.5746 44.0201C23.8127 42.6063 25.3595 41.7759 27.2527 42.0951C28.3125 42.2701 29.3415 42.747 30.3224 43.2205C30.8702 43.4847 31.3907 43.8072 31.9116 44.1299C32.3853 44.4234 32.8593 44.7171 33.3542 44.9671C38.173 47.4034 44.175 45.1009 45.9173 40.1392C45.578 39.9716 45.2384 39.8041 44.8978 39.6361Z" fill="white"/>
</svg>
