<svg viewBox="0 0 64 64" fill="none" xmlns="http://www.w3.org/2000/svg">
<g clip-path="url(#clip0_110_598)">
<path d="M32 64C49.6731 64 64 49.6731 64 32C64 14.3269 49.6731 0 32 0C14.3269 0 0 14.3269 0 32C0 49.6731 14.3269 64 32 64Z" fill="#2A5ADA"/>
<path d="M32.0497 12.5L28.4834 14.5506L18.7655 20.1674L15.1992 22.218V41.654L18.7655 43.7046L28.5726 49.3214L32.1388 51.372L35.7051 49.3214L45.3339 43.7046L48.9001 41.654V22.218L45.3339 20.1674L35.6159 14.5506L32.0497 12.5ZM22.3317 37.5528V26.3192L32.0497 20.7023L41.7677 26.3192V37.5528L32.0497 43.1696L22.3317 37.5528Z" fill="white"/>
</g>
<defs>
<clipPath id="clip0_110_598">
<rect width="64" height="64" fill="white"/>
</clipPath>
</defs>
</svg>
