<svg viewBox="0 0 64 64" fill="none" xmlns="http://www.w3.org/2000/svg">
<circle cx="32" cy="32" r="32" fill="white"/>
<path fill-rule="evenodd" clip-rule="evenodd" d="M27.0065 51.9992V12C26.9104 12.0358 26.8312 12.109 26.7852 12.2042C25.9955 13.5282 11.9174 36.9271 11.0794 38.3163L11.0751 38.3233C10.9952 38.4536 10.9361 38.55 11.131 38.7076C11.8643 39.3 21.4539 47.3425 25.3752 50.6313C26.2818 51.3916 26.8854 51.8978 27.0065 51.9992ZM36.4929 44.0154C32.6197 47.2332 28.1045 50.9845 27.5264 51.4601C27.6556 51.5526 27.7444 51.491 27.8221 51.4371C27.8303 51.4315 27.8383 51.4259 27.8462 51.4207C28.7957 50.8209 57.9211 32.2401 58.8411 31.6472C58.8464 31.6438 58.8518 31.6404 58.8573 31.637C58.9318 31.5903 59.0205 31.5348 58.9953 31.4412C58.9705 31.3491 58.86 31.3502 58.7786 31.351C58.7713 31.3511 58.7642 31.3511 58.7575 31.3511H38.9789C38.9544 31.3507 38.9302 31.357 38.9087 31.3694C38.8872 31.3818 38.8692 31.3999 38.8565 31.4219C38.8438 31.4439 38.8369 31.469 38.8363 31.4946C38.8358 31.5203 38.8417 31.5457 38.8535 31.5682C39.4717 32.5962 42.1883 37.1088 42.9304 38.3359C42.9378 38.3475 42.9453 38.3588 42.9525 38.3697C43.0171 38.4673 43.0646 38.5391 42.9304 38.6456C42.7802 38.7648 42.6362 38.8926 42.4921 39.0205C42.379 39.1209 42.2659 39.2213 42.1498 39.3175C41.7316 39.6632 39.2783 41.7014 36.4929 44.0154Z" fill="#1C60FE"/>
<path d="M31.9991 1.59985C48.7491 1.59985 62.3991 15.2499 62.3991 31.9999C62.3991 48.7499 48.7491 62.3999 31.9991 62.3999C15.2491 62.3999 1.59912 48.7499 1.59912 31.9999C1.59912 15.2499 15.2491 1.59985 31.9991 1.59985ZM31.9991 0.0998535C14.3991 0.0998535 0.0991211 14.3999 0.0991211 31.9999C0.0991211 49.5999 14.3491 63.8999 31.9991 63.8999C49.6491 63.8999 63.8991 49.6499 63.8991 31.9999C63.8991 14.3499 49.5991 0.0998535 31.9991 0.0998535Z" fill="#D2D8E2"/>
</svg>
