<svg viewBox="0 0 64 64" fill="none" xmlns="http://www.w3.org/2000/svg">
<path d="M32 64C49.6731 64 64 49.6731 64 32C64 14.3269 49.6731 0 32 0C14.3269 0 0 14.3269 0 32C0 49.6731 14.3269 64 32 64Z" fill="#172852"/>
<path d="M25.7755 14.3008C29.5227 12.8992 33.7403 12.896 37.5579 14.048C42.5275 15.5904 46.7227 19.3408 48.9147 24.048C49.5195 25.3888 50.0987 26.7872 50.1563 28.2784C47.3627 26.6592 44.3003 25.6096 41.2315 24.6528C36.3227 22.8832 31.1835 21.6544 26.5371 19.2224C25.4555 18.576 24.0763 17.9136 23.7819 16.5664C23.6635 15.4016 24.8955 14.752 25.7755 14.3008Z" fill="#FFD83D"/>
<path d="M14.4637 25.6288C15.5485 22.6848 17.3277 19.952 19.7437 17.9264C20.3581 22.9792 22.5085 27.8624 26.0605 31.536C30.3197 35.9616 36.3869 38.6784 42.5597 38.576C45.0109 38.6528 47.4077 38.0864 49.7981 37.6288C47.4461 46.128 38.1309 51.7696 29.5005 50.4128C24.2909 49.7472 19.4813 46.6624 16.5789 42.3072C13.3053 37.4944 12.4797 31.104 14.4637 25.6288Z" fill="#FFD83D"/>
<path d="M41.2319 24.653C44.3007 25.6098 47.3631 26.6594 50.1567 28.2786L50.3455 28.3778C50.6047 30.3266 50.7935 32.3138 50.4479 34.2658C49.0431 33.6706 47.9039 32.6242 46.7135 31.6994C44.4223 29.7922 42.0831 27.6098 41.2319 24.653Z" fill="#FF6F03"/>
</svg>
