<svg viewBox="0 0 64 64" fill="none" xmlns="http://www.w3.org/2000/svg">
<path d="M32 64C49.6731 64 64 49.6731 64 32C64 14.3269 49.6731 0 32 0C14.3269 0 0 14.3269 0 32C0 49.6731 14.3269 64 32 64Z" fill="url(#paint0_linear_511_55)"/>
<path fill-rule="evenodd" clip-rule="evenodd" d="M22.6719 20.8V44.8H42.6719L22.6719 20.8Z" fill="url(#paint1_linear_511_55)"/>
<path fill-rule="evenodd" clip-rule="evenodd" d="M2.67188 44.8H22.6719V20.8L2.67188 44.8Z" fill="white"/>
<path fill-rule="evenodd" clip-rule="evenodd" d="M6.3999 51.2C8.2239 53.616 10.3839 55.7759 12.7999 57.5999H51.1999C53.6159 55.7759 55.7759 53.616 57.5999 51.2H6.3999Z" fill="#FC9965"/>
<path fill-rule="evenodd" clip-rule="evenodd" d="M12.7998 57.6C18.1438 61.616 24.7998 64 31.9998 64C39.1998 64 45.8558 61.616 51.1998 57.6H12.7998Z" fill="#FF2D55"/>
<path fill-rule="evenodd" clip-rule="evenodd" d="M42.9282 33.6V51.2H57.6002L42.9282 33.6Z" fill="url(#paint2_linear_511_55)"/>
<path fill-rule="evenodd" clip-rule="evenodd" d="M42.9279 44.8H2.67188C3.66387 47.088 4.92787 49.232 6.39987 51.2001H42.9439V44.8H42.9279Z" fill="#FFBC5B"/>
<path fill-rule="evenodd" clip-rule="evenodd" d="M28.272 51.2H42.928V33.6L28.272 51.2Z" fill="white"/>
<path d="M42.9282 28.8C47.3465 28.8 50.9282 25.2183 50.9282 20.8C50.9282 16.3818 47.3465 12.8 42.9282 12.8C38.5099 12.8 34.9282 16.3818 34.9282 20.8C34.9282 25.2183 38.5099 28.8 42.9282 28.8Z" fill="#FFC95B"/>
<path d="M22.6719 16C24.881 16 26.6719 14.2091 26.6719 12C26.6719 9.79086 24.881 8 22.6719 8C20.4627 8 18.6719 9.79086 18.6719 12C18.6719 14.2091 20.4627 16 22.6719 16Z" fill="#FFC95B"/>
<defs>
<linearGradient id="paint0_linear_511_55" x1="54.6272" y1="9.3728" x2="9.3728" y2="54.6272" gradientUnits="userSpaceOnUse">
<stop stop-color="#FF2D55"/>
<stop offset="1" stop-color="#FFBC5B"/>
</linearGradient>
<linearGradient id="paint1_linear_511_55" x1="32.6651" y1="20.8" x2="32.6651" y2="44.8" gradientUnits="userSpaceOnUse">
<stop stop-color="#A524B3"/>
<stop offset="1" stop-color="#FF2D55"/>
</linearGradient>
<linearGradient id="paint2_linear_511_55" x1="50.2592" y1="33.6" x2="50.2592" y2="51.2" gradientUnits="userSpaceOnUse">
<stop stop-color="#A524B3"/>
<stop offset="1" stop-color="#FF2D55"/>
</linearGradient>
</defs>
</svg>
