<svg viewBox="0 0 64 64" fill="none" xmlns="http://www.w3.org/2000/svg">
<circle cx="32" cy="32" r="32" fill="#8441E8"/>
<path d="M23.3571 15C25.4077 15.8365 27.2288 17.0984 29.1647 18.1476C30.3119 18.7715 31.4447 19.4379 32.5776 20.0759C33.3806 20.5438 33.8251 21.2244 33.8251 22.1601C33.8251 23.1101 33.8251 24.0459 33.8251 24.9958C33.8251 25.2652 33.8251 25.4779 33.524 25.648C32.3625 26.2861 31.2153 26.9525 29.9247 27.6897C29.9247 26.6405 29.896 25.7189 29.9247 24.7973C29.9677 23.578 29.4515 22.7273 28.376 22.1601C27.0137 21.437 25.6658 20.6572 24.3179 19.9058C23.3714 19.367 22.425 19.3812 21.4642 19.9199C20.102 20.6856 18.711 21.4654 17.3057 22.231C16.3736 22.7273 15.9148 23.4929 15.9148 24.5279C15.9148 26.1159 15.9148 27.6897 15.9148 29.2777C15.9148 30.3128 16.3736 31.0926 17.277 31.603C18.7254 32.4254 20.1737 33.2477 21.622 34.0559C22.5397 34.5663 23.4575 34.5805 24.4039 34.0417C29.3655 31.2202 34.3414 28.427 39.3029 25.5913C40.4071 24.9533 41.4109 24.9391 42.5294 25.5913C45.1966 27.1368 47.9068 28.6255 50.617 30.1284C51.5348 30.6389 51.9936 31.4045 51.9936 32.4395C51.9936 35.5021 52.008 38.5788 51.9936 41.6414C51.9936 42.6339 51.5491 43.4137 50.66 43.9099C47.8781 45.4696 45.0962 47.0292 42.3143 48.5605C41.9558 48.759 41.5399 48.8582 41.1384 49C40.952 49 40.7512 49 40.5648 49C40.3784 48.7448 40.0629 48.759 39.8192 48.6314C36.9512 47.0292 34.0832 45.4412 31.2153 43.839C30.3692 43.3711 30.0108 42.5913 29.9821 41.6697C29.9677 40.7765 29.9821 39.8832 29.9677 38.9758C29.9677 38.6497 30.0538 38.4512 30.3406 38.2811C31.3587 37.7139 32.3768 37.1468 33.3806 36.5513C33.8538 36.2677 33.9398 36.452 33.9255 36.9058C33.8968 37.7281 33.9255 38.5505 33.9112 39.387C33.8968 40.4362 34.3557 41.1877 35.2735 41.6981C36.7074 42.4921 38.1271 43.3002 39.5754 44.0942C40.4788 44.5905 41.3822 44.6047 42.2856 44.0659C43.7052 43.2435 45.1249 42.4212 46.5588 41.6272C47.4766 41.1168 47.9211 40.3653 47.9068 39.3161C47.8781 37.7848 47.8638 36.2535 47.9068 34.7223C47.9355 33.5455 47.4049 32.7515 46.4011 32.1985C45.0675 31.4612 43.7339 30.7381 42.4147 29.9725C41.3965 29.3912 40.4214 29.377 39.3746 29.9725C34.4274 32.7798 29.4658 35.5446 24.5186 38.352C23.4862 38.9333 22.5111 38.9616 21.4786 38.3661C18.9118 36.9058 16.345 35.4737 13.7495 34.0559C12.9751 33.6305 12.3442 33.1059 12 32.2836C12.0287 28.6964 12.0287 25.1093 12.0287 21.5221C12.4445 20.6147 13.1759 20.0759 14.0506 19.6505C14.7532 19.3103 15.4272 18.8991 16.1012 18.5163C18.1804 17.3394 20.274 16.1768 22.3533 15C22.6831 15 23.0273 15 23.3571 15Z" fill="white"/>
</svg>
