<svg viewBox="0 0 64 64" fill="none" xmlns="http://www.w3.org/2000/svg">
<path d="M32 64C49.6731 64 64 49.6731 64 32C64 14.3269 49.6731 0 32 0C14.3269 0 0 14.3269 0 32C0 49.6731 14.3269 64 32 64Z" fill="#103F68"/>
<path d="M31.96 10.0361L51 21.0021V43.0021L31.982 54.0001L31.828 53.9621L13 43.0021V21.0021L31.828 10.0361H31.96ZM31.898 12.3121L15 22.1521V41.8521L31.896 51.6901L33.96 50.4961L49 41.8461V22.1561L33.96 13.4561L31.898 12.3121ZM17.618 33.5321L22.62 29.7921L27.042 32.6161V37.6961L30.388 40.9201L30.386 42.4321L27.162 45.4521H24.44L17.62 33.5321H17.618ZM33.424 42.4361L33.418 40.9161L36.752 37.6961V32.6161L41.126 29.7561L46.118 33.5341L39.332 45.4181H36.644L33.424 42.4361ZM28.684 32.6161L27.056 28.3541H36.732L35.136 32.6161L35.608 37.3801L31.874 37.3881L28.184 37.3941L28.684 32.6161ZM31.874 27.1861L22.678 27.1821L24.388 19.5421H39.316L41.116 27.1921L31.874 27.1861Z" fill="white"/>
</svg>
