<svg viewBox="0 0 64 64" fill="none" xmlns="http://www.w3.org/2000/svg">
<path d="M32 64C49.6731 64 64 49.6731 64 32C64 14.3269 49.6731 0 32 0C14.3269 0 0 14.3269 0 32C0 49.6731 14.3269 64 32 64Z" fill="#00316D"/>
<path d="M36.3116 39.7731C36.2867 39.727 36.2827 39.7059 36.2715 39.7007C35.0315 39.1138 33.7919 38.5263 32.5483 37.9472C32.4824 37.9165 32.3492 37.9244 32.3061 37.9709C31.7668 38.5519 31.2384 39.1432 30.7024 39.7373C31.091 40.024 35.9881 40.0267 36.3116 39.7731ZM24.963 25.4482C24.9478 25.4157 24.8944 25.3018 24.841 25.188C24.7366 25.263 24.6 25.3156 24.5325 25.4162C23.3871 27.1205 22.2481 28.8295 21.1167 30.5436C21.0456 30.6512 21.049 30.8098 21.0177 30.9448C21.1546 30.9159 21.3116 30.9215 21.4251 30.8528C22.3949 30.265 23.3628 29.6734 24.315 29.0567C24.4678 28.9578 24.6133 28.7386 24.6361 28.5585C24.7633 27.558 24.8515 26.5522 24.963 25.4482ZM48.9576 39.9487C49.5081 39.9487 50.0587 39.9503 50.6093 39.9481C50.9273 39.947 51.0482 39.8295 50.8472 39.5221C49.7984 37.9186 48.7529 36.3127 47.6985 34.7132C47.6413 34.6266 47.5137 34.5881 47.4189 34.5271C47.3683 34.629 47.2811 34.728 47.2728 34.8334C47.1499 36.3974 47.0396 37.9623 46.9203 39.5267C46.8977 39.8234 47.0021 39.9585 47.306 39.9521C47.8563 39.9405 48.407 39.9489 48.9576 39.9487ZM13.4892 39.8285C13.7427 39.8898 13.8653 39.9447 13.988 39.9452C15.7736 39.9507 17.5592 39.9472 19.3448 39.9505C19.6896 39.9512 19.7774 39.8272 19.6316 39.4947C19.0739 38.223 18.5213 36.9488 17.9874 35.6667C17.8313 35.292 17.6873 35.3101 17.4425 35.5743C16.4907 36.6014 15.5295 37.6193 14.5743 38.643C14.2409 39.0001 13.9143 39.3637 13.4892 39.8285ZM39.8805 30.6023C39.9962 30.8274 40.0342 30.926 40.0921 31.0104C40.8955 32.1809 41.7017 33.3496 42.5074 34.5185C43.5058 35.9673 44.5024 37.4173 45.5072 38.8615C45.576 38.9607 45.7067 39.0154 45.8086 39.0907C45.8608 38.9714 45.9448 38.8559 45.9592 38.7321C45.9987 38.3932 46.0071 38.051 46.0307 37.7103C46.1382 36.1621 46.2582 34.6147 46.3496 33.0656C46.3886 32.4065 46.1046 32.0671 45.4788 31.9106C43.8081 31.4928 42.138 31.0725 40.4664 30.659C40.3169 30.622 40.1571 30.6276 39.8805 30.6023ZM39.4567 20.332C39.4054 20.3403 39.3541 20.3487 39.303 20.357C39.2828 20.665 39.2534 20.9727 39.2441 21.2811C39.1686 23.7955 39.0989 26.31 39.0212 28.8243C39.0128 29.0992 39.0938 29.2425 39.3793 29.3118C41.1123 29.7321 42.8403 30.1743 44.5722 30.5996C44.7217 30.6363 44.8879 30.6024 45.0465 30.6013C45.0071 30.4455 44.9985 30.2724 44.9239 30.1367C43.1989 26.9952 41.4674 23.8574 39.7337 20.7208C39.657 20.5822 39.5496 20.4612 39.4567 20.332ZM31.6861 35.7464C31.7331 35.4793 31.7809 35.3206 31.7859 35.1605C31.8123 34.3225 31.8134 33.4833 31.8516 32.6459C31.8819 31.9797 31.7023 31.399 31.3157 30.863C29.7267 28.6605 28.1457 26.4519 26.5659 24.2424C26.4946 24.1427 26.4632 24.0136 26.4133 23.8981C26.351 23.9355 26.2885 23.973 26.2261 24.0103C26.1796 24.1784 26.1083 24.3437 26.0907 24.5147C25.9506 25.873 25.8311 27.2335 25.6804 28.5906C25.6444 28.9144 25.7204 29.1435 25.9339 29.3814C27.7241 31.3769 29.5029 33.3828 31.2877 35.3833C31.3833 35.4905 31.5 35.5782 31.6861 35.7464ZM32.8408 35.3288C32.8807 35.3555 32.9208 35.3821 32.9607 35.4086C33.0705 35.3228 33.2003 35.2542 33.2871 35.1487C34.8075 33.3021 36.3246 31.4525 37.8344 29.5969C37.9226 29.4886 37.986 29.3254 37.9901 29.1857C38.0618 26.7162 38.1246 24.2465 38.18 21.7767C38.1832 21.6407 38.1052 21.5028 38.0649 21.3658C37.9541 21.472 37.8002 21.5572 37.7386 21.6875C36.3377 24.649 35.0003 27.6432 33.5326 30.5697C32.7557 32.1188 32.8793 33.7169 32.8408 35.3288ZM25.8332 39.9493C26.7964 39.9493 27.76 39.9633 28.7224 39.9378C28.923 39.9324 29.1721 39.8324 29.3096 39.6881C29.9798 38.9858 30.6072 38.2415 31.2767 37.5387C31.5255 37.2777 31.471 37.1179 31.2583 36.8866C30.1315 35.6611 29.0084 34.4318 27.9014 33.1877C27.6343 32.8875 27.4798 32.888 27.2395 33.2166C25.7173 35.298 24.1787 37.367 22.6504 39.444C22.5744 39.5471 22.5451 39.6861 22.494 39.8085C22.6286 39.8553 22.7628 39.9412 22.898 39.9428C23.8763 39.9545 24.8548 39.9491 25.8332 39.9493ZM26.8306 32.0175C26.299 31.4003 25.7762 30.8163 25.2818 30.2083C25.0748 29.9538 24.9133 29.9266 24.6338 30.1024C22.9614 31.1544 21.272 32.1784 19.6034 33.2363C19.3017 33.4276 19.0638 33.7268 18.8081 33.9881C18.5702 34.2313 18.6013 34.5007 18.7318 34.7995C19.3811 36.2855 20.0164 37.7778 20.6589 39.267C20.9013 39.8287 20.9947 39.8382 21.3689 39.3378C22.3573 38.0161 23.3436 36.6926 24.3305 35.3697C25.1587 34.2594 25.9868 33.1489 26.8306 32.0175ZM38.4205 30.4427C38.2891 30.6523 38.2274 30.779 38.1408 30.8846C36.555 32.8165 34.9701 34.749 33.3745 36.6725C33.1139 36.9867 33.2471 37.1091 33.5418 37.244C35.3758 38.0841 37.2036 38.9385 39.04 39.7731C39.2692 39.8772 39.5371 39.939 39.7877 39.9416C41.3007 39.9569 42.8139 39.952 44.327 39.9447C44.469 39.9439 44.6108 39.8801 44.7528 39.8456C44.7013 39.6963 44.6794 39.526 44.5937 39.4009C43.1988 37.3622 41.7963 35.3289 40.3942 33.2955C39.7738 32.3953 39.1504 31.4974 38.4205 30.4427ZM31.9851 41.9958C25.1016 41.996 18.2182 41.9937 11.3347 42C10.7985 42.0005 10.3146 41.9388 10.0819 41.3633C9.86128 40.8179 10.1178 40.415 10.4768 40.0317C12.5328 37.8363 14.6147 35.6646 16.6173 33.4196C17.3805 32.564 17.971 31.5455 18.6148 30.5837C20.6862 27.4887 22.7391 24.381 24.8202 21.2927C25.0243 20.9898 25.3362 20.6848 25.6634 20.5639C26.1161 20.3965 26.5015 20.6557 26.7897 21.0673C28.4643 23.4599 30.15 25.8446 31.8327 28.2314C32.1774 28.7203 32.3027 28.704 32.5582 28.1475C34.2874 24.3812 36.0177 20.6156 37.7459 16.8489C37.9498 16.4048 38.2207 16.0261 38.7441 16.0014C39.2961 15.9754 39.6291 16.3105 39.8885 16.7811C42.4928 21.5069 45.0359 26.2697 47.7428 30.9341C49.3784 33.7527 51.2718 36.4163 53.0496 39.1494C53.2687 39.4864 53.4926 39.8199 53.7077 40.1593C53.9676 40.5696 54.1216 41.0211 53.8773 41.4741C53.6395 41.9151 53.1942 41.9978 52.7274 41.9976C45.8134 41.9949 38.8993 41.9958 31.9851 41.9958Z" fill="white"/>
</svg>
