<svg viewBox="0 0 64 64" fill="none" xmlns="http://www.w3.org/2000/svg">
<path d="M32 64C49.6731 64 64 49.6731 64 32C64 14.3269 49.6731 0 32 0C14.3269 0 0 14.3269 0 32C0 49.6731 14.3269 64 32 64Z" fill="#27AB9B"/>
<path d="M16.2497 41.6V26.5392L27.6712 35.1344V41.6H30.5873V34.5281C30.5873 33.9937 30.3362 33.4903 29.9091 33.169L16.0574 22.745C14.9364 21.9014 13.3335 22.7011 13.3335 24.1042V41.6H16.2497ZM47.838 41.6V26.5392L36.4165 35.1344V41.6H33.5004V34.5281C33.5004 33.9937 33.7515 33.4903 34.1786 33.169L48.0302 22.745C49.1513 21.9014 50.7542 22.7011 50.7542 24.1042V41.6H47.838Z" fill="white"/>
</svg>
