<svg viewBox="0 0 64 64" fill="none" xmlns="http://www.w3.org/2000/svg">
<rect width="64" height="64" rx="32" fill="white"/>
<path d="M56.174 36.2122L45.096 17.8634C42.6673 14.039 36.7448 13.9983 34.4014 18.0261L22.7696 37.1072C20.5965 40.6061 23.2807 45 27.6268 45H50.9332C55.3218 45 58.6026 40.484 56.174 36.2122Z" fill="#00B897"/>
<path d="M40.3667 37.6372L39.6862 36.4983C39.0483 35.4407 37.6446 33.1629 37.6446 33.1629L28.2874 17.6249C25.8631 14.1674 20.1212 13.8827 17.6968 18.235L6.80844 36.2543C4.55421 40.0371 7.23377 44.9588 12.125 44.9996H35.2628H45.1304H51C45.0029 45.0402 43.089 42.0708 40.3667 37.6372Z" fill="#76FCB2"/>
<path d="M40.3077 37.6125L39.6234 36.4761C38.9819 35.4207 37.5705 33.1476 37.5705 33.1476L31.4973 23L22.7724 37.1255C20.5912 40.6163 23.2857 45 27.6482 45H35.1326H45.0551H51C44.9268 44.9594 43.0449 42.0369 40.3077 37.6125Z" fill="url(#paint0_linear_1827_77)"/>
<path d="M31.9991 1.59985C48.7491 1.59985 62.3991 15.2499 62.3991 31.9999C62.3991 48.7499 48.7491 62.3999 31.9991 62.3999C15.2491 62.3999 1.59912 48.7499 1.59912 31.9999C1.59912 15.2499 15.2491 1.59985 31.9991 1.59985ZM31.9991 0.0998535C14.3991 0.0998535 0.0991211 14.3999 0.0991211 31.9999C0.0991211 49.5999 14.3491 63.8999 31.9991 63.8999C49.6491 63.8999 63.8991 49.6499 63.8991 31.9999C63.8991 14.3499 49.5991 0.0998535 31.9991 0.0998535Z" fill="#D2D8E2"/>
<defs>
<linearGradient id="paint0_linear_1827_77" x1="19.6673" y1="30.7074" x2="46.3432" y2="41.094" gradientUnits="userSpaceOnUse">
<stop stop-color="#53E57A" stop-opacity="0"/>
<stop offset="1" stop-color="#00A977"/>
</linearGradient>
</defs>
</svg>
