<svg viewBox="0 0 64 64" fill="none" xmlns="http://www.w3.org/2000/svg">
<circle cx="32" cy="32" r="32" fill="#4A90E2"/>
<path d="M11.2411 42.3854C13.1687 42.3854 14.7313 40.8219 14.7313 38.8932C14.7313 36.9644 13.1687 35.4009 11.2411 35.4009C9.31357 35.4009 7.75098 36.9644 7.75098 38.8932C7.75098 40.8219 9.31357 42.3854 11.2411 42.3854Z" fill="white"/>
<path d="M52.8311 21.5776C50.9417 21.5776 49.341 23.1064 49.341 25.0699C49.341 27.8357 48.9036 28.5622 45.8508 28.5622H45.5593C43.8156 28.708 42.4336 30.1639 42.4336 31.9815V32.0544C42.4336 34.7473 41.9234 35.4009 38.9434 35.4009C38.7977 35.4009 38.6519 35.4009 38.579 35.4738C36.8353 35.6926 35.4533 37.1484 35.4533 38.8931C35.4533 40.7837 36.9811 42.3854 38.9434 42.3854C40.76 42.3854 42.2878 40.9296 42.3607 39.1848V38.8931C42.3607 36.4191 43.1596 35.4738 45.7779 35.4009H45.8508C47.6674 35.4009 49.1952 33.945 49.2681 32.1274V31.9086C49.2681 29.3616 50.067 28.4163 52.7582 28.4163C54.6477 28.4163 56.2484 26.8876 56.2484 24.924C56.2484 23.1064 54.7206 21.5776 52.8311 21.5776ZM32.3276 28.5622H32.036C28.9832 28.5622 28.5459 27.8357 28.5459 25.0699C28.5459 23.1793 27.0181 21.5776 25.0557 21.5776C23.1663 21.5776 21.5656 23.1064 21.5656 25.0699C21.5656 27.8357 21.1283 28.4892 18.0755 28.4892H17.7839C16.0402 28.6351 14.6582 30.0909 14.6582 31.9086C14.6582 33.7992 16.186 35.4009 18.1483 35.4009C19.9649 35.4009 21.4927 33.945 21.5656 32.2003V31.9815C21.5656 29.4345 22.3645 28.4892 25.0557 28.4892C27.7469 28.4892 28.5459 29.4345 28.5459 31.9086C28.5459 33.7992 30.0737 35.4009 32.036 35.4009C33.9984 35.4009 35.5262 33.8721 35.5262 31.9086C35.4533 30.1639 34.0712 28.708 32.3276 28.5622Z" fill="white"/>
</svg>
