<svg viewBox="0 0 64 64" fill="none" xmlns="http://www.w3.org/2000/svg">
<circle cx="32" cy="32" r="32" fill="white"/>
<path d="M31.9991 1.59985C48.7491 1.59985 62.3991 15.2499 62.3991 31.9999C62.3991 48.7499 48.7491 62.3999 31.9991 62.3999C15.2491 62.3999 1.59912 48.7499 1.59912 31.9999C1.59912 15.2499 15.2491 1.59985 31.9991 1.59985ZM31.9991 0.0998535C14.3991 0.0998535 0.0991211 14.3999 0.0991211 31.9999C0.0991211 49.5999 14.3491 63.8999 31.9991 63.8999C49.6491 63.8999 63.8991 49.6499 63.8991 31.9999C63.8991 14.3499 49.5991 0.0998535 31.9991 0.0998535Z" fill="#D2D8E2"/>
<path d="M42.407 16.4264L35.1012 27.2806C34.596 28.0198 35.5675 28.9145 36.267 28.2921L43.4562 22.0286C43.6505 21.873 43.9226 21.9897 43.9226 22.262V41.8306C43.9226 42.1029 43.5728 42.2197 43.4174 42.0251L21.6554 15.9596C20.9559 15.1037 19.9455 14.6368 18.8186 14.6368H18.0414C16.0206 14.6368 14.3496 16.3097 14.3496 18.3716V45.9155C14.3496 47.9774 16.0206 49.6503 18.0802 49.6503C19.3626 49.6503 20.5673 48.9889 21.2668 47.8607L28.5726 37.0065C29.0778 36.2674 28.1063 35.3726 27.4068 35.995L20.2176 42.2197C20.0233 42.3753 19.7512 42.2586 19.7512 41.9862V22.4565C19.7512 22.1842 20.101 22.0675 20.2564 22.262L42.0184 48.3276C42.7179 49.1834 43.7671 49.6503 44.8552 49.6503H45.6324C47.6921 49.6503 49.3631 47.9774 49.3631 45.9155V18.3716C49.3631 16.3097 47.6921 14.6368 45.6324 14.6368C44.3112 14.6368 43.1065 15.2982 42.407 16.4264Z" fill="black"/>
</svg>
