<svg viewBox="0 0 64 64" fill="none" xmlns="http://www.w3.org/2000/svg">
<path d="M32 64C49.6731 64 64 49.6731 64 32C64 14.3269 49.6731 0 32 0C14.3269 0 0 14.3269 0 32C0 49.6731 14.3269 64 32 64Z" fill="#1A53F0"/>
<path d="M23.7123 34.58C21.4037 34.5816 19.1902 35.5001 17.5587 37.1335C15.9272 38.7668 15.0112 40.9814 15.0123 43.29C15.0112 45.5983 15.9269 47.8125 17.558 49.4458C19.1891 51.0792 21.402 51.9979 23.7103 52C24.8538 51.9997 25.986 51.7742 27.0423 51.3363C28.0985 50.8985 29.0582 50.2568 29.8665 49.448C30.6748 48.6391 31.3158 47.679 31.7529 46.6224C32.1901 45.5658 32.4148 44.4335 32.4143 43.29C32.4148 42.1467 32.1902 41.0145 31.7531 39.9581C31.3161 38.9016 30.6753 37.9416 29.8672 37.1328C29.0591 36.324 28.0997 35.6822 27.0436 35.2442C25.9876 34.8062 24.8556 34.5805 23.7123 34.58ZM23.7123 49.366C22.1028 49.3649 20.5596 48.7247 19.422 47.586C18.2845 46.4474 17.6458 44.9035 17.6463 43.294C17.6458 42.4969 17.8023 41.7075 18.1068 40.9708C18.4114 40.2342 18.8581 39.5647 19.4213 39.0007C19.9846 38.4367 20.6535 37.9891 21.3897 37.6836C22.126 37.3781 22.9152 37.2205 23.7123 37.22C24.5096 37.2203 25.299 37.3776 26.0355 37.683C26.772 37.9884 27.4411 38.4359 28.0046 39C28.5681 39.564 29.0149 40.2336 29.3196 40.9703C29.6243 41.7071 29.7808 42.4967 29.7803 43.294C29.7782 44.9031 29.1383 46.4457 28.0009 47.5838C26.8635 48.722 25.3214 49.3628 23.7123 49.366ZM42.3003 16C41.157 16.0005 40.025 16.2262 38.969 16.6642C37.9129 17.1022 36.9535 17.744 36.1454 18.5528C35.3373 19.3616 34.6965 20.3216 34.2595 21.3781C33.8224 22.4345 33.5978 23.5667 33.5983 24.71C33.5972 27.0186 34.5132 29.2332 36.1447 30.8665C37.7762 32.4999 39.9897 33.4184 42.2983 33.42C43.4418 33.4197 44.574 33.1942 45.6303 32.7563C46.6865 32.3185 47.6462 31.6768 48.4545 30.868C49.2628 30.0591 49.9038 29.099 50.3409 28.0424C50.7781 26.9858 51.0028 25.8535 51.0023 24.71C51.0028 23.5665 50.7781 22.4342 50.3409 21.3776C49.9038 20.321 49.2628 19.3609 48.4545 18.552C47.6462 17.7432 46.6865 17.1015 45.6303 16.6637C44.574 16.2258 43.4418 16.0003 42.2983 16H42.3003ZM42.3003 30.786C41.5032 30.7857 40.7139 30.6285 39.9776 30.3232C39.2412 30.0179 38.5722 29.5706 38.0087 29.0067C37.4453 28.4429 36.9984 27.7736 36.6936 27.037C36.3888 26.3005 36.232 25.5111 36.2323 24.714C36.2318 23.9167 36.3883 23.1271 36.693 22.3903C36.9977 21.6536 37.4446 20.984 38.008 20.42C38.5715 19.8559 39.2406 19.4084 39.9771 19.103C40.7136 18.7976 41.503 18.6403 42.3003 18.64C43.0974 18.6405 43.8866 18.7981 44.6229 19.1036C45.3591 19.4091 46.028 19.8567 46.5913 20.4207C47.1545 20.9847 47.6012 21.6542 47.9058 22.3908C48.2103 23.1275 48.3668 23.9169 48.3663 24.714C48.3642 26.3227 47.7246 27.865 46.5876 29.0031C45.4507 30.1412 43.909 30.7823 42.3003 30.786ZM23.7123 16C21.7031 16.0027 19.7566 16.6994 18.202 17.9722C16.6475 19.2451 15.5804 21.0159 15.1814 22.9851C14.7824 24.9542 15.076 27.0007 16.0124 28.7783C16.9488 30.5559 18.4706 31.9554 20.3203 32.74C22.1714 33.5222 24.2361 33.6397 26.164 33.0724C28.0918 32.5051 29.7639 31.2881 30.8963 29.628C32.03 27.967 32.5547 25.9652 32.3815 23.9616C32.2084 21.9581 31.3481 20.0759 29.9463 18.634H32.4123V16H23.7123ZM29.7803 24.71C29.7806 25.5071 29.6238 26.2965 29.319 27.033C29.0142 27.7696 28.5673 28.4389 28.0039 29.0027C27.4404 29.5666 26.7714 30.0139 26.035 30.3192C25.2987 30.6245 24.5094 30.7817 23.7123 30.782C22.1028 30.7809 20.5596 30.1407 19.422 29.002C18.2845 27.8634 17.6458 26.3195 17.6463 24.71C17.6458 23.1005 18.2845 21.5566 19.422 20.418C20.5596 19.2793 22.1028 18.6391 23.7123 18.638C25.3217 18.6406 26.8644 19.2813 28.0022 20.4195C29.1401 21.5577 29.7802 23.1006 29.7823 24.71H29.7803Z" fill="white"/>
</svg>
