<svg viewBox="0 0 64 64" fill="none" xmlns="http://www.w3.org/2000/svg">
<g clip-path="url(#clip0_1080_271)">
<ellipse cx="32.1143" cy="32.0571" rx="32" ry="32.0571" fill="white"/>
<path d="M28.0302 0.169487C14.2242 2.04504 3.11276 12.4505 0.572266 25.8877C-1.01875 34.3662 0.726236 42.8704 5.57628 50.1414C7.26994 52.6593 11.5041 56.9242 13.942 58.5428C17.6629 60.9836 21.4608 62.5766 25.8489 63.5272C28.877 64.1695 35.1384 64.1695 38.1665 63.5272C44.4279 62.1912 49.4833 59.5705 53.9484 55.357C58.6701 50.8608 61.8008 45.414 63.1865 39.2735C65.5987 28.6368 62.6476 17.8202 55.1801 9.88125C50.792 5.2566 44.4279 1.73673 38.1152 0.529179C35.472 0.0153313 30.4167 -0.16452 28.0302 0.169487ZM35.2154 2.71304C42.8369 3.58659 50.0478 7.49185 54.7439 13.2984C57.7719 17.0751 59.5169 20.5693 60.6717 25.3224C61.2363 27.5834 61.3389 28.6111 61.3646 31.7456C61.3646 36.2161 60.9027 38.9652 59.4399 42.6649C51.7158 62.5252 26.1825 67.8949 11.2218 52.8134C2.77916 44.3349 0.289989 32.0025 4.78077 20.8776C7.06465 15.1482 11.8377 9.62432 17.124 6.6183C22.8978 3.30397 28.9027 2.01934 35.2154 2.71304Z" fill="black"/>
<path d="M11.2989 24.4489C7.96288 25.6565 5.83296 29.793 6.60281 33.6469C6.98774 35.5738 7.42398 36.473 8.63008 37.732C10.2211 39.4534 11.2476 39.8387 14.0447 39.8387C16.2772 39.8387 16.6108 39.7617 17.8426 39.0937C20.1265 37.809 21.3839 35.7793 21.6662 32.9018C22.0254 28.9451 19.7415 25.2454 16.3799 24.2948C15.0711 23.9351 12.5563 24.0122 11.2989 24.4489ZM16.9188 27.6605C18.4328 28.7653 19.2027 31.3088 18.6638 33.5441C17.6373 37.8604 11.9661 38.7083 10.0158 34.8287C8.83537 32.5164 9.45125 28.8937 11.2476 27.6348C12.7359 26.5557 15.3791 26.5814 16.9188 27.6605Z" fill="black"/>
<path d="M46.0188 24.5516C41.1944 26.4786 39.8343 33.5954 43.4783 37.9117C45.4542 40.2755 50.1246 40.7122 52.2032 38.7082L52.7678 38.1687L52.8447 38.8881C52.9217 39.5304 52.9987 39.5818 54.2048 39.5818H55.4879L55.5649 35.5223L55.6419 31.4886H52.0236H48.431V32.7732V34.0579H50.6122C52.9731 34.0579 53.05 34.1093 52.3828 35.4967C51.9209 36.4473 50.2786 37.3979 49.0468 37.3979C46.0957 37.3979 44.3251 35.3168 44.3251 31.9511C44.3508 28.2257 46.7373 26.0932 49.9963 26.864C51.2537 27.1723 52.5368 28.2771 52.5368 29.0735C52.5368 29.3304 52.9217 29.4332 54.0765 29.4332H55.5905L55.2313 28.2771C54.4358 25.5793 52.4598 24.2176 49.2008 24.1149C47.7638 24.0635 46.9682 24.1663 46.0188 24.5516Z" fill="black"/>
<path d="M23.7959 32.0024V39.7101H25.079H26.3621L26.4134 34.5203L26.4904 29.3047L28.3893 34.5203L30.2883 39.7358L31.5714 39.6588L32.8544 39.5817L34.7277 34.4432L36.601 29.3047L36.678 34.4432L36.755 39.5817L38.1151 39.6588L39.4495 39.7358L39.3981 32.0795L39.3212 24.4231H37.5505H35.7542L33.7013 30.1269C32.5722 33.287 31.5714 35.7792 31.4944 35.6507C31.3917 35.548 30.4679 33.1072 29.4414 30.2039C28.415 27.3007 27.4398 24.7828 27.3115 24.603C27.1576 24.4231 26.439 24.2947 25.4382 24.2947H23.7959V32.0024Z" fill="black"/>
</g>
<defs>
<clipPath id="clip0_1080_271">
<rect width="64" height="64" fill="white"/>
</clipPath>
</defs>
</svg>
