<svg viewBox="0 0 64 64" fill="none" xmlns="http://www.w3.org/2000/svg">
<path d="M32 64C49.6731 64 64 49.6731 64 32C64 14.3269 49.6731 0 32 0C14.3269 0 0 14.3269 0 32C0 49.6731 14.3269 64 32 64Z" fill="#17CECC"/>
<path d="M41.5969 15.5C37.7912 15.497 34.7018 18.5846 34.692 22.4007V30.0519C33.9809 30.1 33.2538 30.1303 32.5 30.1303C31.7462 30.1303 31.0227 30.1606 30.308 30.2034V22.4007C30.2475 18.6205 27.1743 15.5879 23.404 15.5879C19.6337 15.5879 16.5605 18.6205 16.5 22.4007V40.6872C16.5605 44.4674 19.6337 47.5 23.404 47.5C27.1743 47.5 30.2475 44.4674 30.308 40.6872V33.0361C31.0191 32.9879 31.7462 32.9576 32.5 32.9576C33.2538 32.9576 33.9773 32.9273 34.692 32.8845V40.6872C34.7525 44.4674 37.8257 47.5 41.596 47.5C45.3663 47.5 48.4395 44.4674 48.5 40.6872V22.4007C48.4902 18.5853 45.4019 15.498 41.5969 15.5ZM23.4031 18.3273C25.649 18.3263 27.4719 20.1486 27.4778 22.4007V30.5029C25.4578 30.7964 23.4853 31.3556 21.6111 32.1661C20.7991 32.5235 20.0347 32.981 19.3356 33.5281V22.4007C19.3414 20.1514 21.16 18.3302 23.4031 18.3273ZM27.4778 40.6872C27.4778 42.9438 25.6535 44.7731 23.4031 44.7731C21.1527 44.7731 19.3284 42.9438 19.3284 40.6872V38.8529C19.3284 37.2324 20.6084 35.6976 22.7542 34.7421C24.2662 34.088 25.8526 33.6228 27.4778 33.3569V40.6872ZM41.5969 44.7606C39.351 44.7616 37.5281 42.9393 37.5222 40.6872V32.585C39.5422 32.2915 41.5147 31.7323 43.3889 30.9218C44.2009 30.5644 44.9653 30.1069 45.6645 29.5599V40.6872C45.6586 42.9366 43.8401 44.7577 41.5969 44.7606ZM42.2458 28.3352C40.7338 28.9893 39.1474 29.4545 37.5222 29.7203V22.4007C37.5222 20.1441 39.3465 18.3148 41.5969 18.3148C43.8473 18.3148 45.6716 20.1441 45.6716 22.4007V24.235C45.6716 25.8484 44.3916 27.3832 42.2458 28.3352Z" fill="white"/>
</svg>
