<svg viewBox="0 0 64 64" fill="none" xmlns="http://www.w3.org/2000/svg">
<path d="M32 64C49.6731 64 64 49.6731 64 32C64 14.3269 49.6731 0 32 0C14.3269 0 0 14.3269 0 32C0 49.6731 14.3269 64 32 64Z" fill="#1E1B1C"/>
<path d="M20.2974 11.5713L32.072 25.3682L39.9723 20.719C39.9723 20.719 30.4325 7.97243 27.8987 8.87214C25.514 9.77186 20.2974 11.5713 20.2974 11.5713Z" fill="white"/>
<path d="M40.2705 20.719C40.2705 20.719 42.056 17.5704 42.9533 13.3715C42.9533 13.3715 51.8961 16.9703 48.4649 25.9682L40.2705 20.719Z" fill="white"/>
<path d="M48.4683 25.9683L49.2135 35.4157L52.6416 34.9662C52.6416 34.9662 53.5359 34.6658 53.3868 33.0162C53.2378 31.2168 52.9397 27.4681 52.9397 27.4681C52.9397 27.4681 53.0887 26.5684 50.999 26.268C48.4683 25.8185 48.4683 25.9683 48.4683 25.9683Z" fill="white"/>
<path d="M49.2131 35.4156L42.3569 40.9645L45.4869 47.1127C45.4869 47.1127 46.2322 49.5122 48.4679 46.813C50.553 44.1139 51.4496 43.6637 51.3005 42.0141C51.1515 40.3645 50.7082 36.466 49.2131 35.4156Z" fill="white"/>
<path d="M42.2082 40.9644L32.8151 36.7655L24.6199 53.4113C24.6199 53.4113 24.0237 54.6107 26.1103 54.7605C28.197 55.0609 31.6219 55.81 33.4144 54.0106C35.203 52.361 42.2082 40.9644 42.2082 40.9644Z" fill="white"/>
<path d="M32.8183 36.6158L31.9225 25.5181L11.6529 26.868C11.6529 26.868 10.4605 27.0178 10.6096 29.2675C10.7586 32.2663 11.0567 35.5655 11.0567 35.5655C11.0567 35.5655 10.9077 36.9155 13.5905 37.0653C16.2734 37.2151 32.5202 37.2151 32.8183 36.6158Z" fill="white"/>
</svg>
