<svg viewBox="0 0 64 64" fill="none" xmlns="http://www.w3.org/2000/svg">
<circle cx="32" cy="32" r="32" fill="white"/>
<path d="M31.9991 1.59985C48.7491 1.59985 62.3991 15.2499 62.3991 31.9999C62.3991 48.7499 48.7491 62.3999 31.9991 62.3999C15.2491 62.3999 1.59912 48.7499 1.59912 31.9999C1.59912 15.2499 15.2491 1.59985 31.9991 1.59985ZM31.9991 0.0998535C14.3991 0.0998535 0.0991211 14.3999 0.0991211 31.9999C0.0991211 49.5999 14.3491 63.8999 31.9991 63.8999C49.6491 63.8999 63.8991 49.6499 63.8991 31.9999C63.8991 14.3499 49.5991 0.0998535 31.9991 0.0998535Z" fill="#D2D8E2"/>
<path d="M41.6782 32.0056V41.6047H32.1758C30.298 41.6047 28.4623 41.0417 26.901 39.9869C25.3396 38.9322 24.1227 37.433 23.4041 35.679C22.6854 33.925 22.4974 31.995 22.8638 30.1329C23.2301 28.2709 24.1344 26.5605 25.4622 25.218C26.79 23.8756 28.4818 22.9614 30.3235 22.591C32.1653 22.2206 34.0743 22.4107 35.8092 23.1372C37.5441 23.8638 39.027 25.0941 40.0702 26.6727C41.1135 28.2512 41.6703 30.1071 41.6703 32.0056H41.6782ZM32.3012 16.0072C30.2231 15.9448 28.1532 16.2968 26.2097 17.0431C24.2662 17.7895 22.4872 18.9155 20.9741 20.357C19.4611 21.7985 18.2437 23.5271 17.3914 25.4442C16.5391 27.3614 16.0687 29.4295 16.007 31.5304C15.9453 33.6313 16.2934 35.724 17.0317 37.6889C17.7699 39.6538 18.8836 41.4525 20.3094 42.9822C21.7352 44.5119 23.445 45.7427 25.3413 46.6044C27.2375 47.466 29.2831 47.9416 31.3611 48.004H48V32.1957C48 23.3728 41.028 16.0705 32.3012 16.0072Z" fill="#20EE82"/>
</svg>
