<svg viewBox="0 0 64 64" fill="none" xmlns="http://www.w3.org/2000/svg">
<path d="M32 64C49.6731 64 64 49.6731 64 32C64 14.3269 49.6731 0 32 0C14.3269 0 0 14.3269 0 32C0 49.6731 14.3269 64 32 64Z" fill="#F00500"/>
<path d="M46.971 37.5825C46.9451 37.7191 46.5452 38.1281 46.1445 38.4265C44.9677 39.2874 42.8629 40.0879 40.7261 40.4718C39.505 40.6931 38.2886 40.7275 37.9223 40.5481C37.6834 40.4283 37.6498 40.3344 37.7345 40.0276C37.9139 39.3889 38.4931 38.6898 39.3967 38.0335C39.8546 37.7008 41.7235 36.5675 42.5928 36.0897C44.0252 35.306 45.1875 34.8374 45.9682 34.7267C46.2155 34.6924 46.5139 34.684 46.6078 34.7267C46.7604 34.7863 46.9313 35.2381 46.9993 35.783C47.0305 36.0737 47.0138 37.352 46.971 37.5825Z" fill="black"/>
<path d="M26.8898 40.404C26.8386 40.5062 26.5845 40.6169 26.293 40.6596C26.0014 40.7023 25.1169 40.6764 24.614 40.6169C22.8069 40.378 20.889 39.824 19.4917 39.1425C18.7072 38.7609 18.1447 38.3793 17.7273 37.9573L17.4884 37.71L17.4632 37.3864C17.4205 36.824 17.4289 35.9364 17.4968 35.622C17.5415 35.3596 17.6311 35.1068 17.7616 34.8749C17.8295 34.7902 17.8295 34.7902 18.1363 34.7902C18.511 34.7902 18.827 34.8497 19.3383 35.0115C20.3861 35.3351 21.946 36.1196 23.847 37.262C25.4153 38.1992 26.0037 38.6594 26.4548 39.2905C26.7593 39.6828 26.9668 40.233 26.8898 40.404Z" fill="black"/>
<path d="M38.9592 52.268C38.9592 52.294 38.8569 52.703 38.7302 53.1884C38.6036 53.6738 38.5013 54.0668 38.5013 54.0836C38.4107 54.0947 38.3192 54.0976 38.2281 54.092H37.9556L37.5802 54.9788C37.3756 55.4641 37.1887 55.9159 37.1627 55.9846L37.1116 56.1037L36.933 55.8136L36.7537 55.5244V53.1632L36.6857 53.18C36.5407 53.2143 35.5089 53.3509 35.0572 53.3929C33.1928 53.5793 31.3127 53.5393 29.4579 53.2739C29.1595 53.2311 28.9038 53.1975 28.8954 53.2059C28.887 53.2143 28.8954 53.76 28.9122 54.4331L28.9374 55.6435L28.7932 55.8648C28.7168 55.9846 28.6405 56.0869 28.6405 56.0937C28.6146 56.1189 28.5291 55.9831 28.3353 55.5908C28.1242 55.1792 27.9638 54.7436 27.8575 54.2934L27.798 54.0462L27.5339 54.0637L27.2691 54.0889L27.2012 53.7737C27.1669 53.6035 27.1249 53.3387 27.1073 53.1945L27.0822 52.9213L26.8601 52.7251C26.7326 52.6145 26.6044 52.5038 26.5792 52.487C26.5594 52.4686 26.5438 52.4461 26.5335 52.4211C26.5233 52.396 26.5185 52.3691 26.5197 52.342V52.2398L27.5881 52.2482L28.6565 52.2566L28.6901 52.3672L28.7245 52.4779L29.0908 52.4954C29.2953 52.5038 29.9432 52.5206 30.5232 52.5382L31.5917 52.5634L31.8641 52.1375L32.1457 51.7109H32.5036L32.483 50.8249L32.4739 49.9381L32.0053 49.7336C30.4988 49.0696 29.609 48.3133 29.2778 47.3907C29.2098 47.2029 29.2098 47.135 29.193 46.2826C29.1763 45.4301 29.1839 45.3622 29.2442 45.1745C29.3015 44.9664 29.4122 44.7769 29.5654 44.6248C29.7185 44.4728 29.9088 44.3634 30.1172 44.3075C30.2622 44.2648 30.6453 44.2648 32.657 44.2648L35.0266 44.2732L35.2907 44.4014C35.6059 44.554 35.7486 44.6654 35.9302 44.9043C36.1347 45.1767 36.1943 45.3897 36.1943 45.9101C36.1943 46.6512 36.1431 47.2907 36.0668 47.5464C35.9537 47.8966 35.7869 48.2272 35.5723 48.5262C35.1457 49.0719 34.3703 49.6176 33.6644 49.8648L33.4599 49.9411L33.4683 50.8363L33.4767 51.7315L33.6644 51.7483L33.8521 51.7651L34.1078 52.1467L34.3551 52.5283H35.4998C36.1309 52.5283 36.685 52.5374 36.7361 52.5458C36.8208 52.5626 36.8384 52.5542 36.9231 52.4092L37.0253 52.2566H38.006C38.7409 52.2253 38.9592 52.2428 38.9592 52.268Z" fill="black"/>
<path d="M34.4588 54.7169C34.2963 54.81 34.1856 54.8528 34.1604 54.836C34.1352 54.8192 34.0154 54.7253 33.8872 54.6314L33.6583 54.4437L33.4194 54.6994C32.8997 55.2618 32.8852 55.2878 32.7287 55.2962C32.4906 55.3221 32.4395 55.2794 32.1495 54.8444C31.9969 54.623 31.877 54.4353 31.877 54.4353C31.877 54.4353 31.7656 54.4185 31.6382 54.4101L31.3993 54.3842L31.2887 54.6131L31.178 54.8421L30.9819 54.7825C30.8278 54.7318 30.677 54.672 30.5301 54.6032L30.2744 54.4758V53.9896L32.5418 53.998L34.8091 54.0072L34.8175 54.2361C34.8251 54.5101 34.8335 54.5009 34.4588 54.7169Z" fill="black"/>
<path d="M55.7669 44.3158C55.7585 44.2815 55.7585 44.2219 55.7501 44.1281C53.7041 43.9068 47.8659 43.7701 42.4452 48.2491C42.4452 48.2491 40.6976 40.236 32.515 40.236C24.3324 40.236 21.2966 48.2491 21.2966 48.2491C16.7107 43.3138 10.5742 43.6702 8.35797 43.996C8.35797 44.0472 8.34957 44.1067 8.34957 44.1578C8.28089 45.3934 8.31523 45.9818 8.51976 46.7572C9.15928 49.1863 11.1282 51.8627 14.2129 54.4879C19.2673 58.7838 26.1182 61.886 31.3077 62.2439C36.72 62.611 44.7064 59.4485 50.0249 54.8291C50.8575 54.0917 51.6433 53.3031 52.3777 52.4679C52.9058 51.8573 53.6903 50.7973 53.6308 50.7973C53.6133 50.7973 53.6308 50.7805 53.6644 50.763C53.698 50.7454 53.7155 50.721 53.6987 50.7034C53.682 50.6859 53.7071 50.6699 53.7331 50.6607C53.759 50.6515 53.7758 50.6355 53.7667 50.6187C53.7575 50.6019 53.7667 50.5844 53.801 50.576C53.8063 50.5746 53.8112 50.5722 53.8154 50.5688C53.8196 50.5654 53.8231 50.5611 53.8256 50.5563C53.828 50.5515 53.8294 50.5462 53.8296 50.5407C53.8299 50.5353 53.829 50.5299 53.827 50.5249C53.8178 50.5073 53.827 50.4905 53.8437 50.4905C53.8605 50.4905 53.8781 50.4653 53.8781 50.4478C53.8781 50.4302 53.8949 50.405 53.9117 50.405C53.9205 50.4047 53.9289 50.4011 53.9353 50.3949C53.9416 50.3887 53.9454 50.3803 53.946 50.3715C53.9744 50.3017 54.0116 50.2358 54.0567 50.1753C54.1849 49.9792 54.6962 49.0672 54.7641 48.9138C55.2502 47.8141 55.557 46.8342 55.702 45.8536C55.7593 45.3812 55.8013 44.5203 55.7669 44.3158ZM34.4588 54.7169C34.2962 54.81 34.1855 54.8527 34.1604 54.8359C34.1352 54.8192 34.0154 54.7253 33.8871 54.6314L33.6582 54.4437L33.4193 54.6993C32.8996 55.2618 32.8851 55.2877 32.7287 55.2961C32.4906 55.3221 32.4394 55.2793 32.1494 54.8443C31.9968 54.623 31.877 54.4353 31.877 54.4353C31.877 54.4353 31.7656 54.4185 31.6381 54.4101L31.3993 54.3842L31.2886 54.6131L31.1779 54.8421L30.9818 54.7825C30.8278 54.7318 30.6769 54.6719 30.53 54.6032L30.2744 54.4757V53.9896L32.5417 53.998L34.809 54.0072L34.8174 54.2361C34.8251 54.5101 34.8335 54.5009 34.4588 54.7169ZM38.7202 53.1822C38.592 53.6683 38.4913 54.0606 38.4913 54.0774C38.4009 54.0885 38.3097 54.0914 38.2188 54.0858H37.9464L37.5793 54.9809C37.3748 55.4663 37.1878 55.9181 37.1619 55.9868L37.1107 56.1058L36.9322 55.8158L36.7528 55.5266V53.1654L36.6849 53.1822C36.5399 53.2165 35.5081 53.3531 35.0563 53.3951C33.1919 53.5814 31.3118 53.5415 29.457 53.2761C29.1586 53.2333 28.903 53.1997 28.8946 53.2081C28.8862 53.2165 28.8946 53.7622 28.9114 54.4353L28.9365 55.6457L28.7923 55.867C28.716 55.9868 28.6397 56.0891 28.6397 56.0959C28.6137 56.1211 28.5282 55.9853 28.3344 55.593C28.1233 55.1814 27.9629 54.7458 27.8567 54.2956L27.7971 54.0484L27.5331 54.0659L27.2683 54.0911L27.2004 53.7759C27.166 53.6057 27.124 53.3409 27.1065 53.1967L27.0813 52.9235L26.8592 52.7273C26.7318 52.6167 26.6036 52.506 26.5784 52.4892C26.5586 52.4708 26.543 52.4483 26.5327 52.4233C26.5224 52.3982 26.5177 52.3713 26.5189 52.3442V52.242L27.5873 52.2504L28.6557 52.2588L28.6893 52.3694L28.7236 52.4801L29.0899 52.4976C29.2945 52.506 29.9424 52.5228 30.5224 52.5404L31.5908 52.5656L31.8633 52.1397L32.1449 51.7131H32.5028L32.4829 50.8248L32.4738 49.938L32.0052 49.7335C30.4987 49.0695 29.6089 48.3132 29.2777 47.3906C29.2097 47.2028 29.2097 47.1349 29.193 46.2825C29.1762 45.43 29.1838 45.3621 29.2441 45.1744C29.3014 44.9663 29.4121 44.7768 29.5653 44.6247C29.7184 44.4727 29.9087 44.3633 30.1171 44.3074C30.2621 44.2647 30.6453 44.2647 32.6569 44.2647L35.0265 44.2731L35.2906 44.4013C35.6058 44.5539 35.7485 44.6653 35.9301 44.9042C36.1347 45.1766 36.1942 45.3896 36.1942 45.91C36.1942 46.6511 36.143 47.2906 36.0667 47.5463C35.9536 47.8965 35.7868 48.2271 35.5722 48.5262C35.1456 49.0718 34.3702 49.6175 33.6643 49.8647L33.4598 49.941L33.4682 50.8362L33.4766 51.7314L33.6643 51.7482L33.852 51.765L34.1077 52.1466L34.355 52.5282H35.4997C36.1308 52.5282 36.6849 52.5373 36.736 52.5457C36.8207 52.5625 36.8383 52.5541 36.923 52.4091L37.0253 52.2565H38.0059C38.7645 52.2565 38.9858 52.2649 38.9858 52.2908C38.9591 52.2855 38.8477 52.7029 38.7202 53.1799V53.1822Z" fill="white"/>
<path d="M55.6992 43.4467C55.6816 43.0651 55.6481 42.5263 55.6229 42.2615C55.2566 38.3923 54.2675 35.2298 52.3924 31.8825C52.3219 31.7676 52.2592 31.648 52.2047 31.5246C52.1918 31.5029 52.1806 31.4802 52.1711 31.4567C52.4352 30.6638 53.5173 27.3486 54.3782 23.5557C55.5458 18.4074 56.2861 12.3899 54.0203 10.582C54.0203 10.582 50.0999 10.292 44.8494 15.4403C43.4243 16.8629 42.1237 18.4051 40.9618 20.0498L40.5955 19.9307C38.4867 19.2403 36.2998 18.8165 34.0858 18.6692C33.4211 18.6181 30.9408 18.6181 30.1311 18.6692C27.6852 18.831 25.8101 19.1981 23.6794 19.9391C23.5939 19.9734 23.5168 19.9986 23.4405 20.0246C22.239 18.3835 20.8955 16.8513 19.4255 15.4456C13.9621 10.2722 9.89672 10.5706 9.89672 10.5706C7.49353 12.4373 8.31164 18.7272 9.55559 24.0457C10.3737 27.5661 11.3795 30.66 11.755 31.7765C11.7271 31.8407 11.6958 31.9033 11.6611 31.9642C9.67693 35.9868 8.60087 39.8652 8.34521 43.9908C10.5698 43.6665 16.6987 43.3002 21.2922 48.2439C21.2922 48.2439 24.3265 40.2307 32.5106 40.2307C40.6947 40.2307 42.4363 48.2454 42.4363 48.2454C47.8547 43.7703 53.6959 43.9153 55.7412 44.1244C55.7328 43.9565 55.716 43.7023 55.6992 43.4467ZM13.3637 28.5651C13.3637 28.5651 10.176 20.5954 10.9941 16.0439C11.13 15.2808 11.3864 14.6039 11.7863 14.0925C11.7863 14.0925 15.4006 14.4505 21.2304 20.9282C21.2304 20.9282 20.1223 21.4624 18.6395 22.6071C18.6349 22.6117 18.629 22.6146 18.6227 22.6155C17.0116 23.8518 14.9488 25.8116 13.3637 28.5681V28.5651ZM26.89 40.404C26.8388 40.5062 26.5847 40.6169 26.2932 40.6596C26.0016 40.7024 25.1171 40.6764 24.6142 40.6169C22.8071 40.378 20.8893 39.824 19.4919 39.1425C18.7074 38.7609 18.1449 38.3793 17.7275 37.9573L17.4886 37.71L17.4634 37.3864C17.4207 36.824 17.4291 35.9364 17.497 35.622C17.5417 35.3596 17.6313 35.1069 17.7618 34.8749C17.8298 34.7902 17.8298 34.7902 18.1365 34.7902C18.5113 34.7902 18.8272 34.8497 19.3385 35.0115C20.3863 35.3351 21.9462 36.1196 23.8473 37.262C25.4155 38.1992 26.0039 38.6594 26.455 39.2905C26.7595 39.6828 26.967 40.233 26.89 40.404ZM46.971 37.5803C46.945 37.7169 46.5451 38.1259 46.1445 38.4243C44.9677 39.2852 42.8629 40.0857 40.726 40.4696C39.505 40.6909 38.2885 40.7253 37.9222 40.5459C37.6833 40.4261 37.6497 40.3322 37.7344 40.0254C37.9138 39.3867 38.493 38.6876 39.3966 38.0313C39.8545 37.6986 41.7235 36.5653 42.5927 36.0875C44.0252 35.3038 45.1875 34.8352 45.9682 34.7245C46.2154 34.6902 46.5138 34.6818 46.6077 34.7245C46.7603 34.7841 46.9313 35.2359 46.9992 35.7808C47.0305 36.0738 47.0137 37.3521 46.971 37.5826V37.5803ZM45.5561 22.6071L45.5393 22.5987C44.1068 21.454 43.0331 20.9198 43.0331 20.9198C48.6675 14.4413 52.1528 14.0834 52.1528 14.0834C52.5344 14.6039 52.7839 15.2686 52.9205 16.0356C53.7127 20.587 50.6356 28.5651 50.6356 28.5651C49.3454 26.2681 47.6201 24.2444 45.5561 22.6071Z" fill="#FFA409"/>
<path d="M52.9291 16.0355C52.2644 15.9485 49.1202 15.9333 45.5562 22.6071L45.5394 22.5987C44.107 21.454 43.0332 20.9197 43.0332 20.9197C48.6676 14.4413 52.1529 14.0834 52.1529 14.0834C52.5452 14.6038 52.7925 15.2686 52.9291 16.0355Z" fill="#FF9300"/>
<path d="M50.6464 28.565C49.3543 26.2661 47.6251 24.2421 45.5562 22.607C49.1201 15.9332 52.2552 15.9484 52.929 16.0354C53.7212 20.5953 50.6464 28.565 50.6464 28.565Z" fill="#FF8300"/>
<path d="M53.0562 16.0615L52.9287 16.0355L53.0562 16.0615Z" fill="#FF8300"/>
<path d="M21.2305 20.9197C21.2305 20.9197 20.1224 21.454 18.6396 22.5987C18.635 22.6033 18.6291 22.6062 18.6228 22.6071C14.9306 15.9249 11.6841 15.9485 10.9858 16.0355C11.1217 15.2724 11.3773 14.5955 11.778 14.0834C11.7864 14.0834 15.4007 14.4413 21.2305 20.9197Z" fill="#FF9300"/>
<path d="M18.631 22.607C17.0116 23.8517 14.9488 25.8031 13.3652 28.565C13.3652 28.565 10.1775 20.5953 10.9956 16.0354C11.684 15.9484 14.9404 15.9332 18.631 22.607Z" fill="#FF8300"/>
<path d="M10.994 16.0355C10.9513 16.0439 10.9002 16.0523 10.8574 16.0615L10.994 16.0355Z" fill="#FF8300"/>
<path d="M42.0224 32.9882C42.0224 32.9882 39.2948 33.1584 39.636 31.0277C39.9771 28.897 42.1078 28.6413 42.7046 28.7268C43.3014 28.8122 45.6855 29.6639 45.2574 31.4543C44.8293 33.2447 44.2348 32.9043 43.8936 32.9882C43.5525 33.0722 42.0224 32.9882 42.0224 32.9882Z" fill="white"/>
<path d="M21.9036 32.9882C21.9036 32.9882 19.1768 33.1584 19.5172 31.0277C19.8576 28.897 21.9891 28.6413 22.5859 28.7268C23.1826 28.8122 25.569 29.6639 25.1424 31.4543C24.7158 33.2447 24.1198 32.9043 23.7794 32.9882C23.4391 33.0722 21.9036 32.9882 21.9036 32.9882Z" fill="white"/>
</svg>
