<svg viewBox="0 0 64 64" fill="none" xmlns="http://www.w3.org/2000/svg">
<path d="M32 64C49.6731 64 64 49.6731 64 32C64 14.3269 49.6731 0 32 0C14.3269 0 0 14.3269 0 32C0 49.6731 14.3269 64 32 64Z" fill="#0B1C26"/>
<path d="M32 54C19.8641 53.9638 10 44.1145 10 32C10 19.8855 19.8641 10.0364 32 10C44.1359 10.0364 54 19.8855 54 32C54 44.1145 44.1359 53.9759 32 54ZM51.5096 35.5011C51.1695 36.2885 50.3799 36.8458 49.4687 36.8458C49.1768 36.8457 48.8878 36.7881 48.6184 36.6762C49.3958 37.4879 49.8818 38.5781 49.8818 39.7775C49.8818 40.1286 49.8332 40.4559 49.7604 40.783C50.5868 39.112 51.1755 37.3343 51.5096 35.5011ZM49.4687 35.7192C50.0792 35.7192 50.5742 35.2256 50.5742 34.6167C50.5742 34.0078 50.0792 33.5143 49.4687 33.5143C48.8581 33.5143 48.3632 34.0078 48.3632 34.6167C48.3653 35.2244 48.8586 35.7166 49.468 35.7192H49.4687ZM49.9667 23.6652C50.3192 24.6615 50.5002 25.7101 50.502 26.7666C50.5042 28.9526 49.7295 31.0687 48.3154 32.7391C48.6434 32.5454 49.0322 32.412 49.4572 32.412C50.6113 32.412 51.5589 33.2964 51.6559 34.4351C51.7531 33.6356 51.8139 32.8359 51.8139 32.0121C51.828 29.1275 51.1971 26.276 49.967 23.6652H49.9667ZM48.837 26.7545C48.837 22.5507 45.4112 19.1224 41.1839 19.1224C36.9685 19.1224 33.5308 22.5388 33.5308 26.7545C33.5308 30.9583 36.9566 34.3866 41.1839 34.3866C45.3993 34.3866 48.837 30.9581 48.837 26.7545ZM40.8801 39.7775C40.8798 38.1168 41.8008 36.5921 43.2732 35.8161C41.4061 36.2506 39.4498 36.0982 37.6729 35.38C39.1852 36.5395 40.3046 38.1336 40.8801 39.9473C40.8924 39.8745 40.8801 39.826 40.8801 39.7775ZM41.3174 42.7337C41.3154 43.4685 41.2256 44.2005 41.0501 44.9142C41.413 44.1881 42.1559 43.7286 42.9694 43.7271C43.0838 43.7266 43.1979 43.7388 43.3095 43.7635C42.3728 43.2815 41.6337 42.489 41.2195 41.5224C41.2833 41.923 41.316 42.328 41.3174 42.7337ZM45.3749 42.6005C46.942 42.6005 48.2175 41.328 48.2175 39.7778C48.2175 38.215 46.9415 36.955 45.3749 36.955C43.8083 36.955 42.5444 38.2275 42.5444 39.7778C42.5444 41.3403 43.8199 42.6003 45.376 42.6003L45.3749 42.6005ZM47.2449 34.629C47.2481 34.2561 47.3441 33.8897 47.5243 33.563C46.7178 34.3084 45.7892 34.9108 44.7789 35.3438C44.9732 35.3197 45.1677 35.2953 45.3742 35.2953C46.1827 35.2938 46.9763 35.5115 47.6702 35.9252C47.3937 35.5493 47.2451 35.095 47.246 34.6288L47.2449 34.629ZM31.9989 33.4296C33.1978 33.4287 34.3856 33.6591 35.4969 34.1079C33.6293 32.6754 32.3786 30.5877 31.9989 28.2688C31.6102 30.6433 30.3225 32.7027 28.5009 34.1079C29.582 33.6839 30.7605 33.4296 31.9989 33.4296ZM31.9989 21.0849C31.1515 21.0866 30.3213 20.8471 29.6057 20.3945C30.8679 21.7277 31.7017 23.4067 32 25.2159C32.3058 23.4092 33.1381 21.7323 34.3932 20.3943C33.6776 20.847 32.8474 21.0866 32 21.0849H31.9989ZM36.5423 16.554C36.542 17.569 36.1998 18.5545 35.5706 19.3523C36.5142 18.6386 37.5865 18.1122 38.7291 17.8017C38.6805 17.8017 38.644 17.8137 38.6077 17.8137C37.6723 17.8137 36.8697 17.2323 36.5426 16.4085C36.532 16.457 36.5434 16.5055 36.5434 16.554H36.5423ZM39.9924 13.8774C40.4905 14.2892 40.8185 14.8949 40.8185 15.5856C40.8197 16.4625 40.2998 17.2568 39.4943 17.6086C40.0514 17.507 40.6164 17.4543 41.1828 17.4511C44.0375 17.4511 46.5765 18.7352 48.2888 20.7341C46.2015 17.7376 43.3332 15.3665 39.9935 13.8767L39.9924 13.8774ZM38.5954 14.4952C37.9848 14.4952 37.4899 14.9888 37.4899 15.5976C37.4899 16.2065 37.9848 16.7001 38.5954 16.7001C39.2059 16.7001 39.7009 16.2065 39.7009 15.5976C39.6991 14.9897 39.2058 14.4972 38.5963 14.4945L38.5954 14.4952ZM33.3728 12.229C34.8601 12.7029 35.9983 13.9066 36.3855 15.4151C36.4706 14.2762 37.4182 13.3677 38.5842 13.3677C38.6576 13.3698 38.7307 13.3778 38.8028 13.3918C37.1022 12.7622 35.2679 12.3745 33.3728 12.229ZM29.1332 16.554C29.1332 18.1288 30.4208 19.412 32 19.412C33.5792 19.412 34.8668 18.1279 34.8668 16.5531C34.8668 14.9783 33.5792 13.695 32 13.695C30.4208 13.695 29.1332 14.9792 29.1332 16.554ZM25.1851 13.3921C25.2572 13.378 25.3303 13.37 25.4037 13.3679C26.5697 13.3679 27.5175 14.2644 27.6024 15.4153C27.9895 13.9068 29.1277 12.703 30.6151 12.229C28.72 12.3745 26.8978 12.7622 25.1851 13.3921ZM27.4566 16.554C27.4545 16.5052 27.4586 16.4563 27.4687 16.4085C27.1406 17.2323 26.339 17.8137 25.4035 17.8137C25.3549 17.8137 25.3184 17.8017 25.2821 17.8017C26.4238 18.1147 27.4956 18.6409 28.4406 19.3523C27.8026 18.5585 27.4555 17.5713 27.4566 16.554ZM24.2982 15.597C24.2982 16.2058 24.7932 16.6994 25.4037 16.6994C26.0143 16.6994 26.5092 16.2058 26.5092 15.597C26.5092 14.9881 26.0143 14.4945 25.4037 14.4945C24.7941 14.4967 24.3004 14.989 24.2982 15.597ZM15.7097 20.7455C17.4226 18.7345 19.9614 17.4625 22.8157 17.4625C23.3821 17.4652 23.9471 17.5179 24.5042 17.62C23.7962 17.3124 23.3013 16.6579 23.1994 15.8945C23.0975 15.1312 23.4035 14.3703 24.0061 13.8888C20.6537 15.3668 17.7748 17.7655 15.7097 20.7455ZM15.163 26.7545C15.163 30.9583 18.5888 34.3866 22.8161 34.3866C27.0315 34.3866 30.4692 30.9702 30.4692 26.7545C30.4692 22.5507 27.0434 19.1224 22.8161 19.1224C18.6007 19.1343 15.163 22.5507 15.163 26.7545ZM23.1199 39.7775C23.1199 39.826 23.1078 39.8872 23.1078 39.9351C23.6865 38.123 24.8053 36.5298 26.315 35.3679C24.5379 36.0863 22.5814 36.2387 20.714 35.8041C22.148 36.5671 23.1199 38.0573 23.1199 39.7775ZM16.754 34.6288C16.7561 35.0972 16.6023 35.5531 16.3166 35.925C17.0108 35.5116 17.8045 35.2943 18.613 35.2962C18.8125 35.2938 19.0118 35.31 19.2083 35.3447C18.193 34.9204 17.2629 34.3168 16.4627 33.563C16.6537 33.8859 16.7543 34.2539 16.754 34.6288ZM15.7823 39.7775C15.7823 41.3403 17.0583 42.6003 18.6128 42.6003C20.1798 42.6003 21.4433 41.3278 21.4433 39.7775C21.4433 38.2148 20.1673 36.9548 18.6128 36.9548C17.058 36.9427 15.7825 38.2141 15.7825 39.7775H15.7823ZM20.6779 43.7633C20.7879 43.7512 20.8966 43.7269 21.018 43.7269C21.8316 43.7284 22.5745 44.1879 22.9373 44.914C22.7619 44.2003 22.6723 43.4684 22.6702 42.7337C22.674 42.3245 22.7024 41.9159 22.7554 41.5101C22.3504 42.4815 21.6149 43.2794 20.6781 43.7633H20.6779ZM12.332 34.423C12.4292 33.2964 13.3768 32.4 14.5307 32.4C14.9343 32.4021 15.3295 32.5153 15.6727 32.7271C14.2586 31.0567 13.4839 28.9406 13.4861 26.7545C13.4861 25.6641 13.6804 24.6345 14.0207 23.6531C12.8303 26.1852 12.1743 29.02 12.1743 32C12.1772 32.8101 12.2299 33.6193 12.332 34.423ZM14.532 33.5265C13.9214 33.5265 13.4265 34.0201 13.4265 34.629C13.4265 35.2379 13.9214 35.7315 14.532 35.7315C15.1426 35.7315 15.6375 35.2379 15.6375 34.629C15.6353 34.021 15.1416 33.5287 14.532 33.5265ZM14.1191 39.7778C14.1182 38.6191 14.5717 37.5061 15.3825 36.6764C15.1134 36.7894 14.8242 36.8471 14.5322 36.846C13.6212 36.846 12.8314 36.2887 12.4913 35.5013C12.8314 37.3662 13.4153 39.1356 14.2405 40.7832C14.1668 40.4559 14.1182 40.1288 14.1182 39.7775L14.1191 39.7778ZM19.8043 44.1027C19.4277 44.2124 19.0268 44.2602 18.6139 44.2602C17.4356 44.2602 16.3666 43.7995 15.5647 43.0608C16.6238 44.6254 17.8999 46.0325 19.3548 47.2402C19.0512 46.8646 18.8568 46.4043 18.8568 45.8835C18.8571 45.1701 19.2116 44.5032 19.8034 44.1025L19.8043 44.1027ZM19.9744 45.8835C19.9744 46.4589 20.4421 46.9254 21.0191 46.9254C21.5962 46.9254 22.0639 46.4589 22.0639 45.8835C22.0639 45.3081 21.5962 44.8416 21.0191 44.8416C20.4436 44.8453 19.9778 45.3093 19.9735 45.8833L19.9744 45.8835ZM29.316 51.6378C26.4241 50.7612 24.1348 48.5458 23.1692 45.6896C23.1692 45.7501 23.1934 45.8107 23.1934 45.8833C23.1968 46.6256 22.8155 47.3169 22.185 47.7115C21.5544 48.106 20.7643 48.1476 20.0956 47.8216C22.7312 49.8085 25.8895 51.1652 29.316 51.6378ZM39.641 42.7337C39.641 38.5298 36.2152 35.1136 32 35.1016C27.7846 35.1016 24.359 38.518 24.359 42.7337C24.359 46.9493 27.7846 50.3537 32 50.3657C36.2154 50.3537 39.641 46.9373 39.641 42.7337ZM43.9172 47.8218C43.2485 48.1479 42.4583 48.1062 41.8278 47.7117C41.1973 47.3172 40.8159 46.6258 40.8194 45.8835C40.8214 45.8183 40.8295 45.7535 40.8436 45.6898C39.878 48.546 37.5886 50.7614 34.6968 51.638C38.1105 51.1652 41.2688 49.8085 43.9172 47.8216V47.8218ZM44.0272 45.8835C44.0272 45.3081 43.5594 44.8416 42.9824 44.8416C42.4054 44.8416 41.9376 45.3081 41.9376 45.8835C41.9376 46.4589 42.4054 46.9254 42.9824 46.9254C43.5575 46.9209 44.0224 46.4568 44.0265 45.8833L44.0272 45.8835ZM48.4362 43.0606C47.6345 43.7995 46.5662 44.26 45.387 44.26C44.9851 44.2577 44.5852 44.2048 44.1966 44.1025C44.7887 44.5029 45.1435 45.1698 45.1441 45.8833C45.1441 46.4041 44.9499 46.8646 44.646 47.24C46.101 46.0323 47.377 44.6252 48.4362 43.0606Z" fill="white"/>
</svg>
