<svg viewBox="0 0 64 64" fill="none" xmlns="http://www.w3.org/2000/svg">
<circle cx="31.875" cy="31.875" r="31.875" fill="#06061A"/>
<g clip-path="url(#clip0_110_600)">
<path d="M23.459 25.5721C23.2142 25.3011 22.9128 25.1653 22.5542 25.1653H15.2198C15.1546 25.1653 15.1013 25.1454 15.0612 25.1054C15.0204 25.0662 15 25.0218 15 24.9741V20.1912C15 20.1435 15.0204 20.0998 15.0612 20.0599C15.1013 20.02 15.1546 20 15.2198 20H22.9701C24.9257 20 26.613 20.7737 28.031 22.3197L29.9136 24.5435L26.2464 28.8721L23.459 25.5721ZM37.0039 22.2959C38.422 20.7653 40.1171 20 42.0892 20H49.8152C49.8803 20 49.9289 20.0161 49.9619 20.0476C49.9942 20.0798 50.0106 20.1274 50.0106 20.1912V24.9741C50.0106 25.0218 49.9942 25.0662 49.9619 25.1054C49.9289 25.1454 49.8803 25.1653 49.8152 25.1653H42.4807C42.1221 25.1653 41.8207 25.3011 41.576 25.5721L36.1729 31.9333L41.6003 38.3422C41.8451 38.5977 42.1378 38.7251 42.4807 38.7251H49.8152C49.8803 38.7251 49.9289 38.745 49.9619 38.785C49.9942 38.8249 50.0106 38.877 50.0106 38.9401V43.723C50.0106 43.7707 49.9942 43.8151 49.9619 43.8544C49.9289 43.8942 49.8803 43.9142 49.8152 43.9142H42.0892C40.1171 43.9142 38.4299 43.1412 37.0282 41.5945L32.53 36.2857L28.031 41.5945C26.613 43.1412 24.9179 43.9142 22.9457 43.9142H15.2198C15.1546 43.9142 15.1053 43.8942 15.073 43.8544C15.0401 43.8145 15.0243 43.763 15.0243 43.6986V38.9156C15.0243 38.868 15.0401 38.8242 15.073 38.7843C15.1053 38.7444 15.1546 38.7245 15.2198 38.7245H22.5542C22.8964 38.7245 23.1978 38.5893 23.459 38.3177L28.764 32.0524L37.0039 22.2959Z" fill="#00DCFF"/>
<path d="M23.459 25.5721C23.2142 25.3011 22.9128 25.1653 22.5542 25.1653H15.2198C15.1546 25.1653 15.1013 25.1454 15.0612 25.1054C15.0204 25.0662 15 25.0218 15 24.9741V20.1912C15 20.1435 15.0204 20.0998 15.0612 20.0599C15.1013 20.02 15.1546 20 15.2198 20H22.9701C24.9257 20 26.613 20.7737 28.031 22.3197L29.9136 24.5435L26.2464 28.8721L23.459 25.5721ZM37.0039 22.2959C38.422 20.7653 40.1171 20 42.0892 20H49.8152C49.8803 20 49.9289 20.0161 49.9619 20.0476C49.9942 20.0798 50.0106 20.1274 50.0106 20.1912V24.9741C50.0106 25.0218 49.9942 25.0662 49.9619 25.1054C49.9289 25.1454 49.8803 25.1653 49.8152 25.1653H42.4807C42.1221 25.1653 41.8207 25.3011 41.576 25.5721L36.1729 31.9333L41.6003 38.3422C41.8451 38.5977 42.1378 38.7251 42.4807 38.7251H49.8152C49.8803 38.7251 49.9289 38.745 49.9619 38.785C49.9942 38.8249 50.0106 38.877 50.0106 38.9401V43.723C50.0106 43.7707 49.9942 43.8151 49.9619 43.8544C49.9289 43.8942 49.8803 43.9142 49.8152 43.9142H42.0892C40.1171 43.9142 38.4299 43.1412 37.0282 41.5945L32.53 36.2857L28.031 41.5945C26.613 43.1412 24.9179 43.9142 22.9457 43.9142H15.2198C15.1546 43.9142 15.1053 43.8942 15.073 43.8544C15.0401 43.8145 15.0243 43.763 15.0243 43.6986V38.9156C15.0243 38.868 15.0401 38.8242 15.073 38.7843C15.1053 38.7444 15.1546 38.7245 15.2198 38.7245H22.5542C22.8964 38.7245 23.1978 38.5893 23.459 38.3177L28.764 32.0524L37.0039 22.2959Z" fill="#00D1FF"/>
</g>
<defs>
<clipPath id="clip0_110_600">
<rect width="35.5" height="24" fill="white" transform="translate(15 20)"/>
</clipPath>
</defs>
</svg>
