<svg viewBox="0 0 64 64" fill="none" xmlns="http://www.w3.org/2000/svg">
<circle cx="32" cy="32" r="32" fill="#00C7E3"/>
<path d="M32.0532 43.7809C26.1968 43.7809 21.4409 39.025 21.4409 33.1685C21.4409 27.4751 31.0477 17.4199 31.4554 16.9987L31.9581 16.4688L32.4745 16.9851C32.8957 17.4063 42.6655 27.4615 42.6655 33.155C42.6655 39.025 37.9097 43.7809 32.0532 43.7809ZM31.9717 18.5206C31.1292 19.431 29.3628 21.4012 27.6099 23.7112C24.4982 27.8148 22.8541 31.076 22.8541 33.155C22.8541 38.2233 26.9849 42.3541 32.0532 42.3541C37.1216 42.3541 41.2524 38.2233 41.2524 33.155C41.2524 31.076 39.581 27.8148 36.415 23.7112C34.635 21.4148 32.8278 19.431 31.9717 18.5206Z" fill="white"/>
<path d="M32.0533 47.1779C24.3217 47.1779 18.0439 40.8866 18.0439 33.1686C18.0439 25.6136 28.5883 15.0692 29.0367 14.6344C29.3085 14.3626 29.7705 14.3626 30.0423 14.6344C30.314 14.9062 30.314 15.3682 30.0423 15.6399C29.9335 15.7486 19.4707 26.2115 19.4707 33.1686C19.4707 40.1121 25.1234 45.7648 32.0669 45.7648C39.0104 45.7648 44.6631 40.1121 44.6631 33.1686C44.6631 30.3151 42.8151 26.3745 39.3093 21.741C36.6189 18.1945 33.9149 15.504 33.8877 15.4769C33.6023 15.2051 33.6023 14.7567 33.8877 14.4713C34.1595 14.186 34.6079 14.186 34.8932 14.4713C35.3552 14.9197 46.0898 25.6 46.0898 33.1686C46.0626 40.8866 39.7849 47.1779 32.0533 47.1779Z" fill="white"/>
<path d="M32.0531 50.575C22.6501 50.575 15 42.9249 15 33.5219C15 29.6357 16.9567 24.8527 20.8021 19.3223C23.642 15.2459 26.4276 12.338 26.5499 12.2157C26.8217 11.9304 27.2701 11.9304 27.5554 12.2022C27.8408 12.4739 27.8408 12.9223 27.569 13.2077C27.5418 13.2349 24.7291 16.1699 21.9571 20.1512C18.3291 25.3554 16.4132 29.9754 16.4132 33.5219C16.4132 42.1368 23.4246 49.1618 32.0531 49.1618C40.6815 49.1618 47.693 42.1504 47.693 33.5219C47.693 29.9754 45.7635 25.3554 42.1083 20.1512C39.3091 16.1699 36.4692 13.2349 36.442 13.2077C36.1703 12.9223 36.1703 12.4739 36.4556 12.2022C36.741 11.9304 37.1894 11.9304 37.4611 12.2157C37.9367 12.7049 49.1062 24.3092 49.1062 33.5219C49.1062 42.9249 41.456 50.575 32.0531 50.575Z" fill="white"/>
</svg>
