<svg viewBox="0 0 64 64" fill="none" xmlns="http://www.w3.org/2000/svg">
<path d="M32 64C49.6731 64 64 49.6731 64 32C64 14.3269 49.6731 0 32 0C14.3269 0 0 14.3269 0 32C0 49.6731 14.3269 64 32 64Z" fill="#35BBE2"/>
<path d="M22.7602 13H41.2398L43 14.8873V49.1127L41.2398 51H22.7602L21 49.1127V14.8873L22.7602 13ZM24.5203 47.2254H39.4797V16.7746H24.5203V47.2254ZM37.5993 37.4033H33.7724V41.7021H30.3194V37.4033H26.4926V33.7008H37.5993V37.4033ZM37.5993 26.795V30.4975H26.4926V26.795H30.3194V22.4962H33.7724V26.795H37.5993Z" fill="white"/>
</svg>
