<svg viewBox="0 0 64 64" fill="none" xmlns="http://www.w3.org/2000/svg">
<path d="M32 64C49.6731 64 64 49.6731 64 32C64 14.3269 49.6731 0 32 0C14.3269 0 0 14.3269 0 32C0 49.6731 14.3269 64 32 64Z" fill="#2F2F7C"/>
<path d="M12.3391 44.1381C15.8501 47.3482 19.8626 49.6554 24.5773 50.6585C34.1071 52.7651 45.1416 47.2478 48.7529 38.5206C51.5617 31.6993 50.3579 25.4798 45.7435 19.8623C45.4425 19.5613 45.2419 19.1601 44.941 18.8591C45.4425 18.6585 45.7435 18.9594 46.0444 19.1601C52.0632 22.7714 55.3736 30.3952 54.6714 37.4171C53.5679 47.4485 43.3359 54.7714 34.6087 55.3732C28.2889 55.7745 22.6714 54.3701 17.6557 50.5582C15.4488 48.8529 13.5428 46.8466 12.2388 44.4391C12.2388 44.3388 12.3391 44.2384 12.3391 44.1381Z" fill="white"/>
<path d="M51.8619 19.0596C48.3509 15.8496 44.3384 13.5424 39.6236 12.5393C30.0938 10.4327 19.0594 15.9499 15.4481 24.6772C12.6393 31.4985 13.8431 37.7179 18.4575 43.3355C18.7584 43.6364 18.959 44.0377 19.26 44.3386C18.7584 44.5393 18.4575 44.2383 18.1565 44.0377C12.1377 40.4264 8.82738 32.8026 9.52958 25.7806C10.7333 15.7493 20.9653 8.4264 29.6926 7.92484C36.0123 7.52358 41.6299 8.92797 46.6456 12.7399C48.8525 14.4452 50.7584 16.4515 52.0625 18.859C52.0625 18.9593 51.9622 19.0596 51.8619 19.0596Z" fill="white"/>
<path d="M29.3924 34.8089C29.3924 32.5017 29.2921 30.1945 29.3924 27.8873C29.4927 26.5832 28.9911 26.3826 27.8877 26.3826C26.082 26.4829 24.2764 26.3826 22.4708 26.3826C21.267 26.3826 21.3673 25.9813 21.8689 25.1788C23.173 22.9719 25.2795 22.0691 27.6871 21.8685C32.3015 21.4672 37.0162 21.8685 41.6306 21.7682C42.5335 21.7682 42.4331 22.1694 42.1322 22.7713C41.0288 25.0785 39.1228 26.1819 36.615 26.3826C34.4081 26.5832 34.4081 26.5832 34.4081 28.7901C34.4081 31.5989 34.4081 34.4077 34.4081 37.2164C34.4081 39.8246 32.8031 42.1318 30.3955 43.1349C29.593 43.4359 29.3924 43.3356 29.3924 42.4327C29.3924 39.8246 29.3924 37.3167 29.3924 34.8089Z" fill="white"/>
<path d="M12.1384 44.3387C12.1384 44.2383 12.1384 44.138 12.0381 44.0377C12.1384 44.0377 12.2387 44.138 12.339 44.138C12.339 44.2383 12.2387 44.3387 12.1384 44.3387Z" fill="white"/>
</svg>
