<svg viewBox="0 0 64 64" fill="none" xmlns="http://www.w3.org/2000/svg">
<circle cx="31.875" cy="31.875" r="31.875" fill="#FFE7F1"/>
<path d="M31.4255 27.569C32.3628 29.2266 30.2665 29.7404 29.2828 29.835C27.7921 29.9805 27.4835 29.1175 27.7747 28.0333C27.8702 27.6451 28.0823 27.2959 28.3821 27.0329C28.682 26.77 29.0551 26.6061 29.4509 26.5634C29.8408 26.5275 30.233 26.6028 30.5822 26.7807C30.9316 26.9586 31.2238 27.2318 31.4255 27.569Z" fill="#FC157B"/>
<path d="M37.278 24.502C36.1885 32.8731 50.8759 31.131 50.5962 37.7936C52.0449 35.9016 52.668 30.7614 48.4028 28.1156C44.6028 25.7565 39.651 27.0473 37.278 24.502Z" fill="#FC157B"/>
<path d="M45.7375 21.3458C45.6419 21.257 45.5433 21.1697 45.4478 21.0824C45.5448 21.1712 45.6419 21.2644 45.7375 21.3458Z" fill="#FC157B"/>
<path d="M49.152 27.4471L49.1432 27.4341C49.0107 27.1867 48.8596 26.9497 48.6913 26.7253C48.1961 26.0514 47.4858 25.5685 46.679 25.3573C46.1419 25.218 45.5927 25.1313 45.039 25.0983C44.4783 25.0575 43.9061 25.0342 43.328 25.0036C42.1691 24.9396 40.9825 24.8203 39.8235 24.4885C39.5338 24.4055 39.244 24.3152 38.9644 24.2061C38.8196 24.1537 38.6848 24.0969 38.5414 24.0358C38.398 23.9747 38.2516 23.9049 38.1068 23.8306C37.5618 23.5307 37.057 23.1625 36.6044 22.7348C35.712 21.9008 35.0109 20.9548 34.3082 20.038C33.6458 19.1176 32.9349 18.2334 32.1785 17.3893C31.4323 16.5623 30.5502 15.8702 29.5708 15.3431C28.5567 14.8299 27.4551 14.5139 26.3242 14.4117C27.4975 14.2837 28.6842 14.4291 29.7925 14.8366C30.9108 15.2727 31.933 15.9249 32.8015 16.7562C33.3685 17.2904 33.9008 17.8606 34.3951 18.4633C38.0749 17.7356 41.0593 18.3818 43.3527 19.6363L43.4048 19.6625C44.1348 20.0602 44.8188 20.5376 45.4446 21.0859C45.5446 21.1732 45.6431 21.2605 45.7344 21.3493C46.2229 21.8002 46.6775 22.2866 47.0948 22.8046L47.1266 22.8468C48.4812 24.5699 49.1505 26.3614 49.152 27.4471Z" fill="#FC157B"/>
<path d="M49.1504 27.4467L49.1421 27.4299L49.1504 27.4467Z" fill="#FC157B"/>
<path d="M26.5098 15.4895C27.4486 15.6263 28.4062 16.0018 29.0234 16.7178C29.6406 17.4339 29.868 18.3653 30.0462 19.2516C30.191 19.9385 30.3055 20.6386 30.575 21.2891C30.7053 21.6064 30.8966 21.8843 31.056 22.1841C31.1878 22.433 31.4283 22.6571 31.521 22.9234C31.5376 22.9617 31.5438 23.0036 31.5389 23.045C31.5341 23.0865 31.5184 23.1258 31.4935 23.1592C31.1661 23.5231 30.2824 23.1184 29.9491 22.9555C29.3731 22.6686 28.8572 22.2734 28.4294 21.7912C27.0922 20.2995 26.4012 18.1528 26.4432 16.1983C26.4525 15.961 26.4747 15.7244 26.5098 15.4895Z" fill="#FC157B"/>
<path d="M42.2121 32.3135C40.1838 37.9995 49.3833 41.8139 45.9368 47.5946C49.4731 46.1276 51.1522 41.6961 49.6847 38.1799C48.401 35.0932 44.6054 33.9682 42.2121 32.3135Z" fill="#FC157B"/>
<path d="M30.0454 39.7464C30.5981 39.3279 31.2024 38.9831 31.8433 38.7204C32.4916 38.4597 33.1643 38.2647 33.8513 38.1382C35.2145 37.8778 36.5633 37.8137 37.6962 37.3553C38.2559 37.1358 38.771 36.8151 39.2159 36.4093C39.6465 36.0074 39.9762 35.5086 40.1779 34.9539C40.3844 34.3687 40.4683 33.7469 40.4242 33.1276C40.373 32.4622 40.223 31.8084 39.9794 31.1875C40.4843 31.7152 40.8521 32.3597 41.05 33.0641C41.2478 33.7686 41.2697 34.5111 41.1138 35.2261C40.9365 35.983 40.5539 36.6756 40.0084 37.2272C39.4684 37.7616 38.8173 38.1691 38.1019 38.4206C37.419 38.6611 36.7071 38.808 35.9853 38.8572C35.2898 38.9154 34.6176 38.9314 33.957 38.9707C32.6213 39.027 31.3022 39.2886 30.0454 39.7464Z" fill="#FC157B"/>
<path d="M43.021 49.7424C42.8168 49.9054 42.6125 50.0786 42.3879 50.23C42.1619 50.3796 41.9252 50.5118 41.6795 50.6258C41.168 50.8765 40.6057 51.0045 40.0366 50.9999C38.4952 50.9707 37.4057 49.8181 36.7683 48.5155C36.3336 47.6278 36.0338 46.6687 35.518 45.8232C34.7806 44.6138 33.5188 43.6401 32.041 43.8206C31.4384 43.8963 30.8733 44.1684 30.5387 44.6938C29.6578 46.0662 30.9226 47.9887 32.5351 47.7166C32.6722 47.6956 32.8064 47.6585 32.9349 47.606C33.063 47.5512 33.1825 47.4781 33.2898 47.3891C33.5151 47.2007 33.6849 46.9542 33.7809 46.676C33.8869 46.3859 33.9104 46.0721 33.8491 45.7693C33.7829 45.4529 33.597 45.1748 33.3304 44.9936C33.6403 45.1394 33.8818 45.4002 34.0041 45.7213C34.1309 46.0517 34.1635 46.411 34.0982 46.759C34.0349 47.1215 33.8758 47.4603 33.6375 47.7398C33.511 47.8837 33.3646 48.0087 33.2029 48.111C33.0426 48.2121 32.871 48.2937 32.6915 48.354C32.3276 48.479 31.9403 48.5193 31.5586 48.4719C31.0228 48.3952 30.5173 48.175 30.0954 47.8345C29.597 47.4386 29.2261 46.9205 28.7756 46.4752C28.259 45.9308 27.6497 45.4837 26.9762 45.1552C26.5118 44.9503 26.0258 44.7989 25.5275 44.704C25.2769 44.6517 25.0234 44.6138 24.7698 44.5818C24.6539 44.5701 24.086 44.4435 24.0063 44.5178C24.7899 43.7931 25.6442 43.1495 26.5561 42.5967C27.4925 42.0385 28.4978 41.6064 29.5463 41.3116C30.6334 41.0042 31.7704 40.9167 32.8914 41.054C33.4685 41.1237 34.0337 41.2705 34.5719 41.4906C35.136 41.7169 35.6566 42.04 36.1105 42.4453C36.5598 42.8705 36.9229 43.379 37.1797 43.9429C37.4115 44.4708 37.5845 45.0228 37.6954 45.5888C38.0257 47.2814 37.904 49.9054 40.1105 50.2926C40.2255 50.315 40.3416 50.3314 40.4582 50.342L40.8189 50.3507C41.0669 50.333 41.3134 50.2975 41.5564 50.2445C42.0597 50.1256 42.5503 49.9574 43.021 49.7424Z" fill="#FC157B"/>
<path d="M30.2015 47.8973L30.1431 47.8516L30.2015 47.8973Z" fill="#FC157B"/>
<path d="M28.2205 24.0101C28.1401 24.3203 27.9998 24.6116 27.8076 24.8673C27.4497 25.3339 26.9761 25.6977 26.4342 25.9224C25.9467 26.1334 25.4306 26.2698 24.9029 26.327C24.7884 26.3416 24.6696 26.3503 24.5552 26.3591C24.2209 26.3718 23.8996 26.4917 23.6381 26.7012C23.3766 26.9107 23.1888 27.1988 23.1021 27.5233C23.0624 27.6847 23.0328 27.8486 23.0137 28.0138C22.9615 28.4417 22.9529 28.887 22.9065 29.4254C22.793 30.3418 22.5291 31.2328 22.1256 32.0625C21.6012 33.1715 21.013 34.0651 21.1492 35.3429C21.239 36.1724 21.662 36.7284 22.2242 37.3018C23.2382 38.3437 25.5084 38.8095 25.0013 41.3767C24.6957 42.9092 22.1662 44.5173 18.611 45.0791C18.9645 45.0253 18.1575 43.6587 18.1068 43.5714C17.7258 42.9718 17.3086 42.4071 17.0058 41.7565C16.4118 40.4947 16.1366 39.0351 16.3799 37.6525C16.6364 36.1972 17.7085 35.0823 18.5994 33.9704C19.6599 32.6475 20.7725 30.9143 21.0188 29.197C21.0767 28.7807 21.1173 28.2597 21.21 27.7416C21.2984 27.1676 21.4774 26.6115 21.7402 26.0942C21.9196 25.7549 22.1559 25.4491 22.4386 25.1904C22.5859 25.053 22.6831 24.8699 22.7147 24.6704C22.7462 24.4709 22.7102 24.2666 22.6124 24.0902L17.6606 14.9429L25.0854 23.9417C25.1781 24.0586 25.2953 24.1537 25.4286 24.22C25.562 24.2863 25.7083 24.3223 25.857 24.3256C26.0057 24.3288 26.1534 24.299 26.2895 24.2385C26.4255 24.1779 26.5466 24.0881 26.6442 23.9752C26.7474 23.8544 26.8059 23.7016 26.8098 23.5425C26.8137 23.3834 26.763 23.2278 26.666 23.102C26.1343 22.4195 25.5722 21.7237 25.0275 21.0398L22.9789 18.4929L18.8674 13.4079L16.3799 10.25L19.3948 12.9524L23.7714 17.8133L25.9547 20.2495C26.679 21.0689 27.4034 21.862 28.1278 22.7236L28.2465 22.8692L28.2726 23.0947C28.3079 23.4006 28.2903 23.7103 28.2205 24.0101Z" fill="#FC157B"/>
<path d="M30.0958 47.8288C29.7025 47.5236 29.3525 47.1657 29.0557 46.765C29.3742 47.1465 29.7219 47.5022 30.0958 47.8288Z" fill="#FC157B"/>
</svg>
