<svg viewBox="0 0 64 64" fill="none" xmlns="http://www.w3.org/2000/svg">
<circle cx="32" cy="32" r="32" fill="#2976CA"/>
<path fill-rule="evenodd" clip-rule="evenodd" d="M23.654 9.83038C14.2588 13.2864 7.98682 22.2976 7.98682 32.3072C7.98682 42.368 14.31 51.4304 23.7052 54.8608C23.7872 54.89 23.8691 54.9206 23.9513 54.9514C24.2288 55.055 24.5098 55.1599 24.806 55.2192C25.3948 55.3472 25.7788 55.0656 25.958 54.4768C26.4956 52.6848 25.9068 51.5072 24.1916 50.7136C16.486 47.1296 12.1852 41.088 12.0828 32.5632C11.9804 23.9872 16.23 17.8432 23.91 14.08C24.1452 13.9534 24.3931 13.8523 24.6447 13.7497C24.7493 13.7071 24.8544 13.6643 24.9596 13.6192C25.9324 13.1584 26.4956 11.136 25.8812 10.0096C25.3768 9.06383 24.6826 9.37761 24.0536 9.66193C23.9164 9.72394 23.7824 9.78454 23.654 9.83038ZM56.0124 31.4624C56.0124 42.3424 49.766 51.3536 40.3708 54.8096C40.2456 54.8571 40.1139 54.9184 39.9785 54.9814C39.3112 55.292 38.5563 55.6433 38.0668 54.5792C37.478 53.2736 38.0156 51.4304 39.0908 51.0208C41.6252 50.0224 43.878 48.6144 45.8492 46.72C56.1916 36.7104 52.9916 19.5584 39.7308 13.9008C38.0924 13.2096 37.4524 11.7504 38.0668 10.112C38.3996 9.19038 39.0908 9.39518 39.7564 9.62558C43.0076 10.7264 45.8748 12.4416 48.358 14.7712C53.4012 19.5328 55.8844 25.4208 56.0124 31.4624ZM40.7803 37.0687C40.7803 40.3455 38.7323 42.9567 35.2763 43.8783C34.2267 44.1599 33.8683 44.6207 34.0219 45.6191C34.0391 45.7565 34.0332 45.9055 34.0275 46.0506C34.0247 46.1216 34.0219 46.1917 34.0219 46.2591C34.0219 48.2559 33.9195 48.3583 31.9483 48.3583C30.1563 48.3583 30.0027 48.2047 30.0027 46.3615C30.0027 44.3647 30.0027 44.3647 28.1083 43.7759C25.3947 42.9055 23.6795 41.1391 23.0651 38.3487C22.7835 37.1455 23.1163 36.7871 24.3195 36.7103C24.6608 36.6932 25.0022 36.6989 25.3435 36.7046C25.5142 36.7074 25.6848 36.7103 25.8555 36.7103C26.5979 36.7103 26.9819 37.0431 27.2123 37.7855C28.2875 40.9599 32.6651 42.1887 35.3019 40.0895C36.3259 39.2703 36.7099 38.1951 36.5563 36.9151C36.4283 35.6607 35.6347 34.9695 34.5083 34.5599C33.657 34.2484 32.772 34.0886 31.8944 33.93C31.6899 33.8931 31.4859 33.8562 31.2827 33.8175L31.1642 33.7962C30.2034 33.624 29.2218 33.448 28.2875 33.1775C25.0619 32.2303 23.6027 30.4383 23.5259 27.4943C23.4235 24.4479 25.0107 22.1183 27.9291 20.9919L27.9804 20.9724C29.9524 20.2237 30.0025 20.2047 29.9771 17.9711C29.9771 16.7423 30.4635 16.3327 31.6667 16.3327L31.7451 16.3335C34.0236 16.358 34.0976 16.3588 33.9963 18.6623C33.9451 19.9167 34.1755 20.6079 35.5835 20.9919C37.8363 21.6063 39.2187 23.2703 39.8587 25.5231C40.1659 26.6239 39.8331 27.0335 38.7067 27.1103C37.2731 27.2127 36.2235 27.1103 35.4811 25.4463C34.4827 23.1679 29.7979 22.9375 28.2107 24.9087C27.0587 26.3679 27.5707 28.5183 29.2859 29.3119C30.3831 29.8128 31.5691 29.9803 32.7405 30.1458L32.9979 30.1823C34.1755 30.3615 35.3531 30.5919 36.4795 31.0015C39.4747 32.0511 40.7803 33.8943 40.7803 37.0687Z" fill="#F9FBFD"/>
</svg>
