<svg viewBox="0 0 64 64" fill="none" xmlns="http://www.w3.org/2000/svg">
<path d="M32 64C49.6731 64 64 49.6731 64 32C64 14.3269 49.6731 0 32 0C14.3269 0 0 14.3269 0 32C0 49.6731 14.3269 64 32 64Z" fill="#26A17B"/>
<path fill-rule="evenodd" clip-rule="evenodd" d="M35.8431 34.7661V34.7621C35.6231 34.7781 34.4891 34.8461 31.9591 34.8461C29.9391 34.8461 28.5171 34.7861 28.0171 34.7621V34.7681C20.2411 34.4261 14.4371 33.0721 14.4371 31.4521C14.4371 29.8341 20.2411 28.4801 28.0171 28.1321V33.4201C28.5251 33.4561 29.9811 33.5421 31.9931 33.5421C34.4071 33.5421 35.6171 33.4421 35.8431 33.4221V28.1361C43.6031 28.4821 49.3931 29.8361 49.3931 31.4521C49.3931 33.0721 43.6031 34.4221 35.8431 34.7661ZM35.8431 27.5861V22.8541H46.6711V15.6381H17.1891V22.8541H28.0171V27.5841C19.2171 27.9881 12.5991 29.7321 12.5991 31.8201C12.5991 33.9081 19.2171 35.6501 28.0171 36.0561V51.2201H35.8431V36.0521C44.6291 35.6481 51.2311 33.9061 51.2311 31.8201C51.2311 29.7341 44.6291 27.9921 35.8431 27.5861Z" fill="white"/>
</svg>
