<svg viewBox="0 0 64 64" fill="none" xmlns="http://www.w3.org/2000/svg">
<g clip-path="url(#clip0_1863_85)">
<rect width="64" height="64" rx="32" fill="white"/>
<path d="M25.5886 49.7754C27.3237 56.2517 33.5501 61.1948 36.6915 60.9941C36.8002 60.9941 48.6185 58.7644 55.0939 47.8568C60.1273 39.369 58.4128 31.1735 51.57 30.9998C49.107 31.1803 22.2973 37.433 25.6024 49.7754H25.5886ZM31.5494 1.00406C27.2344 1.00073 22.9674 1.89004 19.0279 3.61373C18.3571 3.88879 17.7042 4.20374 17.0726 4.55682C16.6392 4.78316 16.2071 5.0095 15.7875 5.25336L15.8865 5.283C14.6387 6.11803 13.5354 7.14325 12.6186 8.31975C3.75721 19.7985 33.44 28.1395 49.3038 28.1705C56.6061 33.309 58.6605 13.6886 51.5219 8.24296C45.9607 3.56288 38.8686 0.992729 31.5356 1.00002L31.5494 1.00406Z" fill="#0E3CA5"/>
<path d="M23.1803 8.61706C19.2531 14.2896 6.16348 18.2877 4.01465 17.6664V17.6425L4.28409 17.1312C6.53761 12.982 9.735 9.40047 13.6271 6.66572C14.4354 6.09608 15.2694 5.56618 16.1289 5.07603C17.4635 4.37002 18.9516 3.99102 20.467 3.97119C26.2924 4.07585 23.2504 8.56407 23.2194 8.61971" fill="#5493F7"/>
<path d="M19.8974 51.1374C20.1911 53.0013 19.8974 60.3708 19.4932 60.9802C19.1591 61.0001 18.4491 61.0425 16.4067 59.931C12.441 57.7462 8.98553 54.7676 6.26347 51.1877C3.10222 47.0093 1.05472 42.1194 0.307592 36.9636C-0.439533 31.8078 0.137476 26.5501 1.98603 21.6698C4.32212 24.6915 7.03813 27.4245 9.32707 30.4754C11.5513 33.3792 14.5543 38.1098 15.1727 39.1246C18.9826 45.4039 19.5902 49.2787 19.888 51.1413" fill="#5493F7"/>
<path d="M64.0001 32.9129C64.0042 36.8178 63.2606 40.6886 61.8082 44.3229C58.0979 48.26 33.0866 38.5749 32.8428 38.4702C29.4168 36.9905 19.0027 32.493 18.0651 25.4202C16.7178 15.2488 37.6281 8.16541 46.8203 7.89648C47.921 7.89648 51.2742 7.94947 53.2304 9.51664C56.6191 12.4337 59.3335 16.0303 61.1912 20.0646C63.0488 24.099 64.0066 28.4777 64.0001 32.9063V32.9129ZM42.1292 58.0764C43.6233 52.8702 56.6995 47.5354 59.5866 47.2493C59.9436 47.2135 60.0931 47.4599 59.9396 47.7447C56.9754 53.098 52.5115 57.5026 47.0776 60.4358C44.3481 61.7181 41.3478 60.7709 42.1292 58.0737V58.0764Z" fill="#5493F7"/>
</g>
<defs>
<clipPath id="clip0_1863_85">
<rect width="64" height="64" fill="white"/>
</clipPath>
</defs>
</svg>
