<svg viewBox="0 0 64 64" fill="none" xmlns="http://www.w3.org/2000/svg">
<path d="M32 64C49.6731 64 64 49.6731 64 32C64 14.3269 49.6731 0 32 0C14.3269 0 0 14.3269 0 32C0 49.6731 14.3269 64 32 64Z" fill="#8200FF"/>
<path fill-rule="evenodd" clip-rule="evenodd" d="M36.8276 26.3328L35.4689 26.6654C34.2408 26.966 33.3793 28.0465 33.3793 29.286V38.3613L28.8863 39.4613C28.1472 39.6422 27.3984 39.2022 27.2136 38.4785C27.1862 38.3714 27.1724 38.2614 27.1724 38.1509V23.0393C27.1724 22.4195 27.6032 21.8793 28.2172 21.729L35.1137 20.0406C35.8528 19.8597 36.6016 20.2997 36.7864 21.0234C36.8138 21.1305 36.8276 21.2405 36.8276 21.351V26.3328ZM21.6552 26.2484L19.9516 26.6654C18.7236 26.966 17.8621 28.0465 17.8621 29.286V38.4458L13.7138 39.4613C12.9748 39.6422 12.2259 39.2022 12.0412 38.4785C12.0138 38.3714 12 38.2614 12 38.1509V23.0393C12 22.4195 12.4308 21.8793 13.0448 21.729L19.9413 20.0406C20.6804 19.8597 21.4292 20.2997 21.614 21.0234C21.6413 21.1305 21.6552 21.2405 21.6552 21.351V26.2484ZM43.3896 21.7702L50.2862 20.0819C51.0252 19.901 51.7741 20.341 51.9588 21.0646C51.9862 21.1718 52 21.2818 52 21.3922V36.5039C52 37.1237 51.5692 37.6639 50.9552 37.8142L44.0587 39.5025C43.3196 39.6834 42.5708 39.2435 42.386 38.5198C42.3587 38.4126 42.3448 38.3026 42.3448 38.1922V23.0805C42.3448 22.4608 42.7756 21.9205 43.3896 21.7702Z" fill="white"/>
<path opacity="0.504" fill-rule="evenodd" clip-rule="evenodd" d="M25.7929 26.6276V38.1509C25.7929 38.3718 25.8206 38.5918 25.8753 38.8061C26.2178 40.1476 27.5295 41.0016 28.8964 40.8313V42.7094C28.8964 43.3291 28.4656 43.8694 27.8516 44.0197L20.9551 45.708C20.216 45.8889 19.4672 45.4489 19.2824 44.7253C19.255 44.6181 19.2412 44.5081 19.2412 44.3977V29.286C19.2412 28.6662 19.672 28.126 20.286 27.9757L25.7929 26.6276ZM40.9654 26.712V38.1922C40.9654 38.413 40.993 38.6331 41.0477 38.8473C41.4172 40.2947 42.915 41.1747 44.393 40.8128L44.4136 40.8078V42.7094C44.4136 43.3291 43.9829 43.8694 43.3689 44.0197L36.4723 45.708C35.7333 45.8889 34.9844 45.4489 34.7996 44.7253C34.7723 44.6181 34.7585 44.5081 34.7585 44.3977V29.286C34.7585 28.6662 35.1892 28.126 35.8032 27.9757L40.9654 26.712Z" fill="white"/>
</svg>
