<svg viewBox="0 0 64 64" fill="none" xmlns="http://www.w3.org/2000/svg">
<path d="M32 64C49.6731 64 64 49.6731 64 32C64 14.3269 49.6731 0 32 0C14.3269 0 0 14.3269 0 32C0 49.6731 14.3269 64 32 64Z" fill="#1D2227"/>
<path d="M12.8753 40.1115C12.8753 39.0573 12.8553 38.1438 12.8904 37.2302C12.9004 37.0294 13.0811 36.7935 13.2468 36.653C13.4325 36.4923 13.6885 36.402 13.9194 36.2966C15.34 35.644 15.8921 34.5497 15.8469 32.9886C15.6462 26.3477 18.3618 21.1725 24.1494 17.9198C29.6609 14.8227 35.2628 15.1289 40.694 18.3715C40.8898 18.487 41.0755 18.6275 41.2612 18.7581C41.3014 18.7832 41.3164 18.8384 41.4018 18.9689C40.4782 19.4407 39.5797 19.9276 38.646 20.3543C38.4753 20.4346 38.1641 20.289 37.9483 20.1836C29.7663 16.2232 20.3746 21.0621 18.929 30.0271C18.7382 31.2017 18.9039 32.4315 18.9039 33.7466C29.6358 28.2752 40.3025 22.839 51.1197 17.3224C51.1197 18.4318 51.1599 19.4106 51.0896 20.3794C51.0746 20.6002 50.678 20.8462 50.4069 20.9817C43.9066 24.3097 37.4011 27.6227 30.8957 30.9406C25.1834 33.852 19.4711 36.7634 13.7588 39.6748C13.5128 39.8053 13.2669 39.9207 12.8753 40.1115Z" fill="white"/>
<path d="M45.1156 30.3081C34.3536 35.7945 23.6719 41.2408 12.8747 46.7423C12.8747 45.6681 12.8345 44.7294 12.9048 43.7957C12.9199 43.5598 13.2411 43.2687 13.4921 43.1382C18.3812 40.6284 23.2804 38.1336 28.1745 35.6389C35.4931 31.9043 42.8167 28.1697 50.1353 24.4351C50.4214 24.2895 50.7125 24.159 51.1241 23.9583C51.1241 25.0425 51.1392 25.9761 51.1091 26.9098C51.104 27.0704 50.9535 27.2662 50.8129 27.3816C50.6422 27.5222 50.4164 27.6125 50.2105 27.7029C48.6946 28.3604 48.0471 29.4949 48.1525 31.1614C48.3433 34.123 47.7058 36.9239 46.3404 39.5592C41.9684 47.9871 31.1059 50.8332 23.185 45.6279C22.9993 45.5024 22.8236 45.3669 22.5124 45.136C23.5213 44.624 24.4248 44.1321 25.3635 43.7154C25.5492 43.6351 25.8855 43.8108 26.1215 43.9313C32.9431 47.2593 41.115 44.2877 44.1469 37.3455C45.1056 35.1319 45.467 32.8229 45.1156 30.3081Z" fill="white"/>
</svg>
