<svg viewBox="0 0 64 64" fill="none" xmlns="http://www.w3.org/2000/svg">
<path d="M32 64C49.6731 64 64 49.6731 64 32C64 14.3269 49.6731 0 32 0C14.3269 0 0 14.3269 0 32C0 49.6731 14.3269 64 32 64Z" fill="#FF6600"/>
<path d="M31.9979 9C44.7154 9 55 19.1852 55 31.7778C54.9914 34.232 54.5912 36.6695 53.8143 39H46.9593V19.8628L32 34.6776L17.0406 19.8628V39H10.1836C9.40738 36.6694 9.00793 34.2319 9 31.7778C9 19.1852 19.2846 9 32 9H31.9979Z" fill="white"/>
<path d="M32.0628 41.8939L28.5087 38.4898L28.5065 38.4919L21.8398 32V44.0564H12C16.1255 50.6116 23.5541 55 32 55C36.0182 55.0024 39.9693 53.9968 43.4724 52.08C46.9755 50.1632 49.9124 47.3999 52 44.0564H42.158V32L35.5541 38.4919L32.0628 41.8939Z" fill="white"/>
</svg>
