<svg viewBox="0 0 64 64" fill="none" xmlns="http://www.w3.org/2000/svg">
<path d="M32 64C49.6731 64 64 49.6731 64 32C64 14.3269 49.6731 0 32 0C14.3269 0 0 14.3269 0 32C0 49.6731 14.3269 64 32 64Z" fill="#23292F"/>
<path d="M45.4329 17H50.9285L39.4933 27.0692C35.3537 30.7146 28.6433 30.7146 24.5037 27.0692L13.0699 17H18.5656L27.2523 24.6493C29.8732 26.9583 34.1238 26.9583 36.7462 24.6493L45.4329 17ZM18.4957 46.5H13L24.5052 36.3686C28.6448 32.7232 35.3552 32.7232 39.4948 36.3686L51 46.5H45.5043L36.7462 38.7885C34.1253 36.4795 29.8747 36.4795 27.2523 38.7885L18.4957 46.5Z" fill="white"/>
</svg>
