<svg viewBox="0 0 64 64" fill="none" xmlns="http://www.w3.org/2000/svg">
<path d="M32 64C49.6731 64 64 49.6731 64 32C64 14.3269 49.6731 0 32 0C14.3269 0 0 14.3269 0 32C0 49.6731 14.3269 64 32 64Z" fill="#4781EC"/>
<path fill-rule="evenodd" clip-rule="evenodd" d="M35.7338 50.9996C32.9111 50.9996 30.8541 50.3288 29.5626 48.9911C28.2731 47.6496 27.6274 46.2046 27.6274 44.6563C27.6274 44.0908 27.7395 43.6131 27.9657 43.227C28.1863 42.8438 28.5048 42.5273 28.8879 42.3105C29.2785 42.0882 29.7579 41.9751 30.3282 41.9751C30.8986 41.9751 31.38 42.0882 31.7705 42.3105C32.161 42.5348 32.4665 42.8389 32.6927 43.227C32.9189 43.6131 33.031 44.0908 33.031 44.6563C33.031 45.3408 32.8667 45.8985 32.5361 46.3314C32.2055 46.7643 31.815 47.0451 31.3645 47.1796C31.755 47.7159 32.3698 48.0961 33.2108 48.3184C34.0518 48.5582 34.8928 48.6772 35.7318 48.6772C36.8596 48.6905 37.9656 48.3639 38.9083 47.7393C39.8537 47.1133 40.5516 46.189 41.0001 44.9703C41.4506 43.7476 41.6768 42.3632 41.6768 40.8149C41.6768 39.132 41.4293 37.6949 40.9344 36.5035C40.453 35.2964 39.7396 34.4033 38.7942 33.8222C37.8742 33.2491 36.8132 32.9478 35.7318 32.9525C35.0126 32.9525 34.1117 33.2489 33.031 33.8456L31.0494 34.8284V33.8456L39.9658 22.0522H27.6274V34.2922C27.6274 35.3062 27.8517 36.1388 28.3041 36.794C28.7526 37.4492 29.4447 37.7768 30.3727 37.7768C31.0938 37.7768 31.784 37.5389 32.4452 37.0612C33.1084 36.5817 33.6868 35.993 34.1562 35.3198C34.2027 35.2027 34.2811 35.1013 34.3824 35.0273C34.464 34.9575 34.5673 34.9189 34.6743 34.9181C34.8406 34.9181 35.0339 35 35.2601 35.1619C35.4652 35.3872 35.5779 35.6827 35.5752 35.9887C35.5495 36.1993 35.512 36.4082 35.4631 36.6146C34.9527 37.7456 34.2451 38.6094 33.3461 39.2061C32.4657 39.7952 31.4311 40.1062 30.3746 40.0992C27.7028 40.0992 25.8565 39.5786 24.8357 38.5353C23.8149 37.4941 23.3045 36.0784 23.3045 34.2922V22.0522H17V19.7726H23.3026V14.5935L21.8642 13.1622V12H26.0518L27.6274 12.8034V19.7726L43.9271 19.7278L45.5511 21.3365L35.552 31.2541C36.1577 31.0139 36.7945 30.8629 37.4428 30.8056C38.5255 30.8056 39.7396 31.1488 41.091 31.8352C42.4578 32.5041 43.5076 33.4283 44.2423 34.6042C44.9789 35.7664 45.4525 36.8837 45.6613 37.9562C45.8715 38.8948 45.9848 39.8528 45.9997 40.8149C46.0138 42.6585 45.5972 44.4795 44.7836 46.1305C44.0018 47.7395 42.6992 49.0313 41.091 49.7926C39.4198 50.6014 37.5874 51.0143 35.7338 50.9996Z" fill="white"/>
</svg>
