<svg viewBox="0 0 64 64" fill="none" xmlns="http://www.w3.org/2000/svg">
<path fill-rule="evenodd" clip-rule="evenodd" d="M32 0C49.6704 0 64 14.3296 64 32C64 49.6704 49.6704 64 32 64C14.3296 64 0 49.6704 0 32C0 14.3296 14.3296 0 32 0Z" fill="#006AE3"/>
<path d="M30.6816 45.4912V18.8672H33.5809V45.4912H30.6816Z" fill="white"/>
<path d="M45.4397 27.7376L36.486 30.112L34.4893 20.8192L37.1517 20.2176L38.2013 24.6208C38.2013 24.6208 40.6205 20.6528 37.3949 16.544C35.4941 14.432 34.5917 14.3424 32.4605 14.0096C30.5852 13.7408 26.2268 14.3744 24.9276 19.4624C24.3772 22.7392 24.998 25.1648 29.222 28.3392L28.9852 31.872C28.9852 31.872 24.2684 28.5504 23.0524 26.2208C22.1116 24.3776 20.4988 20.736 23.4108 15.6672C24.9788 13.1328 28.07 10.7008 33.5164 10.9568C36.2557 11.072 42.9437 14.4192 41.9069 22.24C41.7277 23.7056 40.9661 25.6576 40.9661 25.6576L44.6397 24.8384L45.4397 27.7376Z" fill="white"/>
<path d="M40.3264 48.5695C38.688 51.0591 35.5328 53.4079 30.0992 53.0111C27.36 52.8255 20.768 49.2991 22.0096 41.5103C22.2272 40.0511 23.04 38.1247 23.04 38.1247L19.3472 38.8415L18.624 35.9295L27.6416 33.7919L29.3952 43.1359L26.7136 43.6671L25.7792 39.2319C25.7792 39.2319 23.2576 43.1295 26.368 47.3279C28.2112 49.4911 29.1072 49.5999 31.2384 49.9903C33.1008 50.3103 37.4784 49.7855 38.912 44.7359C39.5456 41.4783 38.9888 39.0335 34.8544 35.7439L35.1872 32.2175C35.1872 32.2175 39.8144 35.6607 40.9664 38.0223C41.8496 39.8975 43.3664 43.5839 40.3264 48.5695Z" fill="white"/>
</svg>
