<svg viewBox="0 0 64 64" fill="none" xmlns="http://www.w3.org/2000/svg">
<circle cx="32" cy="32" r="32" fill="#FDAB01"/>
<path d="M33.7123 24.9976C33.4716 24.9976 33.3235 24.9976 33.1754 24.9976C29.7781 24.9976 26.3901 24.9976 22.9928 25.0069C22.641 25.0069 22.5207 24.9328 22.53 24.5533C22.5485 22.6279 22.5485 20.6932 22.53 18.7678C22.53 18.3882 22.6503 18.3142 22.9928 18.3142C25.0293 18.3327 27.0658 18.3142 29.1023 18.3327C29.4541 18.3327 29.5744 18.2586 29.5744 17.8791C29.5559 16.4258 29.5744 14.9817 29.5559 13.5284C29.5559 13.2136 29.6207 13.1118 29.954 13.1118C31.6943 13.1303 33.4438 13.1303 35.1841 13.1118C35.5174 13.1118 35.6284 13.1766 35.6284 13.5376C35.6099 14.991 35.6284 16.435 35.6099 17.8884C35.6099 18.2309 35.684 18.3327 36.045 18.3327C38.2481 18.3142 40.4605 18.3327 42.6637 18.3142C43.0617 18.3142 43.145 18.4253 43.1358 18.8048C43.1173 20.2396 43.1173 21.6744 43.1358 23.1092C43.145 23.4887 43.034 23.7757 42.8025 24.0812C39.0813 28.9781 35.3693 33.8842 31.648 38.7811C31.5554 38.9014 31.4721 39.031 31.3703 39.1606C31.5276 39.2902 31.7035 39.2254 31.8609 39.2254C35.5914 39.2347 39.3219 39.2347 43.0617 39.2161C43.4413 39.2161 43.5523 39.3087 43.5431 39.6975C43.5246 41.5766 43.5153 43.465 43.5431 45.3442C43.5523 45.77 43.469 45.9181 43.0062 45.9088C40.692 45.8811 38.3777 45.9088 36.0635 45.8903C35.6932 45.8903 35.6007 45.9922 35.6099 46.3532C35.6284 47.8065 35.6099 49.2506 35.6284 50.7039C35.6284 51.0279 35.5451 51.1205 35.2211 51.1112C33.4623 51.0927 31.7035 51.1019 29.9447 51.1112C29.6485 51.1112 29.5559 51.0279 29.5559 50.7224C29.5744 49.2598 29.5559 47.788 29.5744 46.3254C29.5744 45.9829 29.4819 45.8811 29.1301 45.8811C26.7974 45.8996 24.4739 45.8811 22.1412 45.8996C21.7153 45.8996 21.632 45.7793 21.6413 45.3812C21.6691 44.039 21.6598 42.6967 21.6413 41.3545C21.6413 41.0397 21.7246 40.7991 21.9097 40.5584C25.7513 35.5041 29.5837 30.4406 33.4253 25.3771C33.4994 25.2846 33.5734 25.1828 33.7123 24.9976Z" fill="#1B1A1A"/>
</svg>
