<svg viewBox="0 0 64 64" fill="none" xmlns="http://www.w3.org/2000/svg">
<path d="M32 64C49.6731 64 64 49.6731 64 32C64 14.3269 49.6731 0 32 0C14.3269 0 0 14.3269 0 32C0 49.6731 14.3269 64 32 64Z" fill="#49C1BF"/>
<path d="M18 14.562L40.228 25.328L45.918 22.764L23.782 12L18 14.562Z" fill="white" fill-opacity="0.304"/>
<path d="M40.2275 25.3026L45.9182 22.7396V28.4696L40.2275 31.0325V25.3026ZM40.2275 51.871V33.9955L45.9182 31.4051V49.308L40.2275 51.871Z" fill="white" fill-opacity="0.646"/>
<path d="M18 14.568V20.362L33.386 27.836L18 35.456V41.168L40.228 51.914V46.166L25.132 38.824L40.228 31.062V25.332L18 14.568Z" fill="white"/>
</svg>
