<svg viewBox="0 0 64 64" fill="none" xmlns="http://www.w3.org/2000/svg">
<path d="M32 64C49.6731 64 64 49.6731 64 32C64 14.3269 49.6731 0 32 0C14.3269 0 0 14.3269 0 32C0 49.6731 14.3269 64 32 64Z" fill="#302C2C"/>
<path fill-rule="evenodd" clip-rule="evenodd" d="M30.9926 54C30.4526 53.944 29.9126 53.894 29.3726 53.83C26.4692 53.4838 23.6654 52.556 21.1286 51.102C21.0906 51.082 21.0566 51.052 20.9826 51.002C25.3946 47.702 29.7866 44.422 34.2026 41.122L35.5326 42.416C36.2726 43.14 37.0166 43.856 37.7426 44.59C37.9226 44.77 38.0526 44.768 38.2626 44.66C40.4619 43.5622 42.341 41.9158 43.7186 39.88L43.9326 39.564C43.9946 39.636 44.0526 39.694 44.1006 39.758C45.6346 41.802 47.1666 43.846 48.7066 45.884C48.8406 46.06 48.8246 46.164 48.6826 46.324C45.1166 50.376 40.6846 52.872 35.3426 53.726C34.6706 53.834 33.9886 53.874 33.3106 53.948C33.2206 53.958 33.1306 53.982 33.0426 54H30.9926ZM32.9326 10C33.3046 10.038 33.6786 10.078 34.0526 10.112C37.2046 10.412 40.1526 11.346 42.8986 12.912C42.9386 12.936 42.9726 12.964 43.0386 13.012L29.6026 22.65C29.4246 22.482 29.2526 22.322 29.0826 22.156C28.1386 21.236 27.1906 20.318 26.2526 19.39C26.1026 19.242 25.9886 19.226 25.8006 19.32C23.5623 20.4246 21.6523 22.096 20.2606 24.168L20.0606 24.468L15.1246 17.892C15.6226 17.364 16.0826 16.838 16.5806 16.352C19.8266 13.186 23.6806 11.172 28.1466 10.362C29.0066 10.206 29.8846 10.154 30.7546 10.052C30.8526 10.042 30.9506 10.018 31.0466 10H32.9306H32.9326ZM12.9166 21.068L22.9066 34.164L20.8906 36.232C20.3886 36.746 19.8906 37.266 19.3786 37.772C19.2346 37.916 19.2286 38.026 19.3166 38.202C20.4196 40.4407 22.0905 42.3509 24.1626 43.742C24.2326 43.786 24.3026 43.832 24.3686 43.882C24.3806 43.89 24.3866 43.91 24.4226 43.978L17.9006 48.87C14.0006 45.512 11.4706 41.374 10.4546 36.356C9.36657 30.984 10.2486 25.908 12.9186 21.068H12.9166ZM41.2666 29.808L43.1026 27.902C43.6146 27.37 44.1186 26.832 44.6426 26.314C44.8066 26.152 44.8046 26.03 44.7086 25.838C43.5985 23.5724 41.9077 21.6415 39.8086 20.242C39.7346 20.192 39.6626 20.138 39.5366 20.048L46.0946 15.128C49.8086 18.308 52.2746 22.228 53.4066 26.958C54.8206 32.862 53.5606 38.702 51.1126 42.814L41.2666 29.808Z" fill="white"/>
</svg>
