<svg xmlns="http://www.w3.org/2000/svg" width="24" height="24.468" viewBox="0 0 24 24.468">
  <g id="Group_1228" data-name="Group 1228" transform="translate(0 -1.205)">
    <path id="Profile" d="M0,22c.1-3.926,5.4-8.968,12-8.968S24,17.685,24,22ZM6,5.978a6,6,0,1,1,6,5.978A5.989,5.989,0,0,1,6,5.978Z" transform="translate(0 3.673)" />
    <path id="Path_492" data-name="Path 492" d="M5.082,12.491H19.567a.833.833,0,0,0,.832-.832v-.034a.833.833,0,0,0-.832-.832h-.458a6.787,6.787,0,0,0-3.4-5.859V6.547a.849.849,0,1,1-1.7,0V4.238A6.946,6.946,0,0,0,12.316,4a6.946,6.946,0,0,0-1.7.238V6.547a.849.849,0,1,1-1.7,0V4.934a6.787,6.787,0,0,0-3.4,5.859H5.082a.833.833,0,0,0-.832.832v.051A.83.83,0,0,0,5.082,12.491Z" transform="translate(-0.221 -2.795)" />
  </g>
</svg>
