<svg xmlns="http://www.w3.org/2000/svg" width="25.658" height="25.673" viewBox="0 0 25.658 25.673">
  <g id="Group_1226" data-name="Group 1226" transform="translate(1779.524 -819.088)">
    <path id="Path_485" data-name="Path 485" d="M-1775.841,836.143V819.491a.4.4,0,0,0-.5-.389c-1.415.379-3.181,1.4-3.181,2.7v16.345A4.372,4.372,0,0,1-1775.841,836.143Z" transform="translate(0)" />
    <path id="Path_486" data-name="Path 486" d="M-1755.418,828.193h-19.4v0l0,12.889a.465.465,0,0,1-.458.459c-.07,0-.136-.013-.213-.013a3.976,3.976,0,0,0-4.031,3.918,3.793,3.793,0,0,0,.571,1.981c.041.067.071.142.115.207h0a4.012,4.012,0,0,0,2.53,1.648,4.1,4.1,0,0,0,.781.078h20.106a1.536,1.536,0,0,0,1.552-1.52V829.712A1.535,1.535,0,0,0-1755.418,828.193ZM-1770.025,847h-3.4v-3.259l11.039-10.592,3.316,3.218Zm13.483-12.923-1.45,1.407-3.358-3.259,1.449-1.407a.756.756,0,0,1,1.046,0l2.312,2.243A.7.7,0,0,1-1756.542,834.075Z" transform="translate(0 -4.603)" />
  </g>
</svg>
