<svg viewBox="0 0 48 48" fill="none" xmlns="http://www.w3.org/2000/svg">
<path d="M24.001 44.002C35.0472 44.002 44.002 35.0472 44.002 24.001C44.002 12.9547 35.0472 4 24.001 4C12.9547 4 4 12.9547 4 24.001C4.00001 35.0472 12.9548 44.002 24.001 44.002Z" fill="#FFD05D"/>
<path d="M34.4639 6.9314C36.456 10.0404 37.6105 13.7385 37.6105 17.704C37.6105 28.7487 28.6564 37.7051 17.6093 37.7051C13.7729 37.7051 10.1898 36.6234 7.14648 34.751C10.7014 40.3003 16.9218 43.9772 24.0011 43.9772C35.0458 43.9772 44.0022 35.0231 44.0022 23.976C43.9999 16.7677 40.1846 10.4511 34.4639 6.9314Z" fill="#FDC453"/>
<path d="M6.71702 26.1113C6.71702 15.8549 15.0305 7.54144 25.2869 7.54144C31.282 7.54144 36.6108 10.383 40.0062 14.792C36.8009 9.22385 30.7893 5.47656 23.9048 5.47656C13.6484 5.47656 5.33496 13.79 5.33496 24.0464C5.33496 28.3076 6.77099 32.2332 9.18549 35.3657C7.61571 32.6415 6.71702 29.4808 6.71702 26.1113Z" fill="#FFD77F"/>
<path d="M18.1044 19.1494C18.1044 20.5221 17.445 21.6343 16.6308 21.6343C15.8166 21.6343 15.1572 20.5221 15.1572 19.1494C15.1572 17.7768 15.8166 16.6646 16.6308 16.6646C17.445 16.6646 18.1044 17.7768 18.1044 19.1494Z" fill="#303030"/>
<path d="M32.8422 19.1494C32.8422 20.5221 32.1828 21.6343 31.3686 21.6343C30.5544 21.6343 29.895 20.5221 29.895 19.1494C29.895 17.7768 30.5544 16.6646 31.3686 16.6646C32.1828 16.6646 32.8422 17.7768 32.8422 19.1494Z" fill="#303030"/>
<path d="M10.5605 25.8931C11.3231 32.6415 17.0461 37.8881 23.9987 37.8881C30.9512 37.8881 36.6766 32.6415 37.4368 25.8931H10.5605Z" fill="#695342"/>
<path d="M14.7158 34.1948C17.1374 36.4826 20.4036 37.8882 23.9984 37.8882C27.4383 37.8882 30.5779 36.6023 32.9642 34.4858L32.8398 34.1948C23.8177 29.7952 14.8402 34.1338 14.7158 34.1948Z" fill="#F06669"/>
</svg>
