<svg viewBox="0 0 48 48" fill="none" xmlns="http://www.w3.org/2000/svg">
<path d="M44.3008 24C44.3008 12.9543 35.3465 4 24.3008 4C13.2551 4 4.30078 12.9543 4.30078 24C4.30078 35.0457 13.2551 44 24.3008 44C35.3465 44 44.3008 35.0457 44.3008 24Z" fill="#FFD05D"/>
<path d="M34.7617 6.93237C36.7537 10.0412 37.908 13.7389 37.908 17.7041C37.908 28.7481 28.9546 37.7038 17.9084 37.7038C14.0722 37.7038 10.4894 36.6222 7.44629 34.7499C11.0009 40.2988 17.2209 43.9754 24.2996 43.9754C35.3436 43.9754 44.2993 35.022 44.2993 23.9758C44.297 16.768 40.4819 10.4518 34.7617 6.93237Z" fill="#FDC453"/>
<path d="M7.01721 26.1109C7.01721 15.8553 15.3301 7.54239 25.5857 7.54239C31.5804 7.54239 36.9088 10.3837 40.3039 14.7924C37.0989 9.22467 31.0877 5.47766 24.2037 5.47766C13.9481 5.47766 5.63525 13.7905 5.63525 24.0461C5.63525 28.307 7.07118 32.2323 9.4855 35.3646C7.91584 32.6405 7.01721 29.4801 7.01721 26.1109Z" fill="#FFD77F"/>
<path d="M19.1358 19.8158C18.5703 18.401 17.2189 17.4859 15.6962 17.4859C14.2063 17.4859 12.8665 18.3728 12.2847 19.7477C12.1744 20.0105 12.2612 20.3085 12.4982 20.4704C12.7351 20.6323 13.0425 20.6065 13.249 20.407C14.3588 19.3301 16.1138 18.4666 18.1691 20.4657C18.2841 20.5783 18.4343 20.637 18.5844 20.637C18.6994 20.637 18.8144 20.6041 18.9176 20.5337C19.1522 20.3742 19.2414 20.0809 19.1358 19.8158Z" fill="#303030"/>
<path d="M36.3176 19.8158C35.7521 18.401 34.4006 17.486 32.8779 17.486C31.388 17.486 30.0483 18.3729 29.4664 19.7454C29.3538 20.0082 29.443 20.3062 29.6776 20.4681C29.9146 20.63 30.2219 20.6042 30.4284 20.4047C31.5382 19.3278 33.2909 18.4644 35.3485 20.4634C35.4635 20.576 35.6137 20.6347 35.7638 20.6347C35.8788 20.6347 35.9938 20.6018 36.097 20.5314C36.334 20.3742 36.4231 20.0809 36.3176 19.8158Z" fill="#303030"/>
<path d="M15.3582 27.7697C15.3582 27.7579 15.3582 27.7486 15.3582 27.7368C15.3582 25.7401 13.9153 23.9147 11.745 23.9147C10.0205 23.9147 9.02094 25.1536 8.67839 26.315C8.33818 25.1559 7.33631 23.9147 5.6118 23.9147C3.44383 23.9171 2.00087 25.7425 2.00087 27.7392C2.00087 27.7509 2.00087 27.7603 2.00087 27.772C1.98914 28.2061 2.00087 32.6241 8.67604 36.2257C15.3582 32.6241 15.37 28.2061 15.3582 27.7697Z" fill="#EE5181"/>
<path d="M24.2999 35.1229C22.4816 35.1229 21.0034 33.6447 21.0034 31.8264C21.0034 31.0357 21.2826 30.2848 21.7847 29.6959C21.2826 29.1047 21.0034 28.3562 21.0034 27.5655C21.0034 25.7471 22.4816 24.269 24.2999 24.269C25.4074 24.269 26.4351 24.8204 27.0474 25.7448C27.2211 26.0052 27.1483 26.3548 26.8902 26.5285C26.6298 26.7021 26.2802 26.6293 26.1066 26.3712C25.703 25.7636 25.0273 25.3999 24.2999 25.3999C23.1057 25.3999 22.132 26.3713 22.132 27.5679C22.132 28.2272 22.4276 28.8442 22.9461 29.2572C23.0799 29.3651 23.1573 29.527 23.1573 29.6983C23.1573 29.8696 23.0799 30.0314 22.9461 30.1394C22.43 30.5547 22.132 31.1694 22.132 31.8287C22.132 33.023 23.1033 33.9967 24.2999 33.9967C25.0203 33.9967 25.6936 33.64 26.0972 33.0417C26.2708 32.7836 26.6228 32.7156 26.8809 32.8892C27.1389 33.0628 27.207 33.4148 27.0334 33.6729C26.4186 34.5785 25.3957 35.1229 24.2999 35.1229Z" fill="#5E4939"/>
</svg>
