<svg viewBox="0 0 48 48" fill="none" xmlns="http://www.w3.org/2000/svg">
<path d="M43.6905 27.1515C45.4601 16.2477 38.0554 5.97383 27.1515 4.2042C16.2477 2.43458 5.97381 9.83933 4.20419 20.7432C2.43456 31.647 9.83931 41.9209 20.7432 43.6905C31.647 45.4601 41.9209 38.0554 43.6905 27.1515Z" fill="#FFD05D"/>
<path d="M34.4092 6.87836C36.4014 9.98741 37.5558 13.6854 37.5558 17.6509C37.5558 28.6957 28.6017 37.6521 17.5546 37.6521C13.7182 37.6521 10.1351 36.5704 7.0918 34.6979C10.6467 40.2473 16.8671 43.9242 23.9464 43.9242C34.9911 43.9242 43.9475 34.9701 43.9475 23.923C43.9452 16.7147 40.1299 10.398 34.4092 6.87836Z" fill="#FDC453"/>
<path d="M6.66282 26.0583C6.66282 15.8019 14.9763 7.48846 25.2327 7.48846C31.2278 7.48846 36.5566 10.33 39.952 14.739C36.7467 9.17087 30.7351 5.42358 23.8506 5.42358C13.5942 5.42358 5.28076 13.7371 5.28076 23.9934C5.28076 28.2546 6.71679 32.1802 9.13129 35.3127C7.56151 32.5885 6.66282 29.4278 6.66282 26.0583Z" fill="#FFD77F"/>
<path d="M15.4458 28.041C15.9268 32.3092 19.5497 35.6295 23.947 35.6295C28.3443 35.6295 31.9648 32.3116 32.4482 28.041H15.4458Z" fill="#695342"/>
<path d="M18.0737 33.2924C19.606 34.7401 21.6708 35.6294 23.9446 35.6294C26.1221 35.6294 28.1072 34.8152 29.6159 33.4777L29.5385 33.2947C23.8296 30.5095 18.1512 33.2525 18.0737 33.2924Z" fill="#F06669"/>
<path d="M21.1872 18.1319C21.1872 18.1226 21.1872 18.1132 21.1872 18.1014C21.1872 16.2548 19.8521 14.563 17.8435 14.563C16.2479 14.563 15.3211 15.7104 15.0067 16.7827C14.6899 15.7081 13.7654 14.563 12.1698 14.563C10.1612 14.563 8.8261 16.2548 8.8261 18.1014C8.8261 18.1108 8.8261 18.1202 8.8261 18.1319C8.81437 18.5332 8.8261 22.6231 15.0043 25.955C21.1896 22.6231 21.1989 18.5332 21.1872 18.1319Z" fill="#E62728"/>
<path d="M39.0647 18.1319C39.0647 18.1226 39.0647 18.1132 39.0647 18.1014C39.0647 16.2548 37.7295 14.563 35.721 14.563C34.1254 14.563 33.1985 15.7104 32.8841 16.7827C32.5673 15.7081 31.6428 14.563 30.0472 14.563C28.0387 14.563 26.7035 16.2548 26.7035 18.1014C26.7035 18.1108 26.7035 18.1202 26.7035 18.1319C26.6918 18.5332 26.7035 22.6231 32.8818 25.955C39.0647 22.6231 39.0764 18.5332 39.0647 18.1319Z" fill="#E62728"/>
</svg>
