<svg viewBox="0 0 48 48" fill="none" xmlns="http://www.w3.org/2000/svg">
<path d="M23.9993 44C35.0446 44 43.9986 35.0457 43.9986 24C43.9986 12.9543 35.0446 4 23.9993 4C12.954 4 4 12.9543 4 24C4 35.0457 12.954 44 23.9993 44Z" fill="#FFD05D"/>
<path d="M34.4626 6.93103C36.4546 10.0399 37.6089 13.7378 37.6089 17.7031C37.6089 28.7473 28.6556 37.7033 17.6094 37.7033C13.7733 37.7033 10.1906 36.6216 7.14746 34.7492C10.702 40.2983 16.922 43.975 24.0006 43.975C35.0445 43.975 44.0002 35.0214 44.0002 23.9748C43.9978 16.7669 40.1828 10.4505 34.4626 6.93103Z" fill="#FDC453"/>
<path d="M6.71925 26.11C6.71925 15.8542 15.0321 7.5411 25.2876 7.5411C31.2822 7.5411 36.6106 10.3825 40.0056 14.7913C36.7983 9.22342 30.7895 5.47632 23.9033 5.47632C13.6478 5.47632 5.33496 13.7894 5.33496 24.0452C5.33496 28.3062 6.77087 32.2316 9.18517 35.364C7.61553 32.6399 6.71925 29.4794 6.71925 26.11Z" fill="#FFD77F"/>
<path d="M13.2112 24.322C12.9578 24.322 12.7091 24.2093 12.5425 23.9958C12.2539 23.6274 12.322 23.0948 12.6903 22.8062L15.5739 20.5584L12.5918 18.8057C12.1882 18.5687 12.0545 18.0479 12.2915 17.6443C12.5284 17.2407 13.0493 17.107 13.4529 17.344L17.5095 19.7302C17.7512 19.8733 17.9084 20.1244 17.9248 20.4059C17.9436 20.6851 17.8216 20.9573 17.601 21.1309L13.7321 24.1436C13.5772 24.2633 13.3942 24.322 13.2112 24.322Z" fill="#303030"/>
<path d="M34.785 24.322C34.6019 24.322 34.4189 24.2633 34.2641 24.1437L30.3975 21.1286C30.1769 20.955 30.0549 20.6852 30.0737 20.4036C30.0924 20.1244 30.2473 19.871 30.489 19.7279L34.5456 17.3416C34.9492 17.1047 35.4677 17.2384 35.707 17.642C35.944 18.0455 35.8103 18.5641 35.4067 18.8034L32.4246 20.5561L35.3082 22.8039C35.6765 23.0925 35.7446 23.6251 35.456 23.9935C35.2871 24.2094 35.0384 24.322 34.785 24.322Z" fill="#303030"/>
<path d="M37.4424 24C36.0047 32.6695 38.5315 35.5585 38.5315 35.5585C40.0147 37.9756 43.1681 38.7248 45.5696 37.231C47.9733 35.7395 48.7184 32.5687 47.2329 30.1539C47.2329 30.1539 45.7952 26.5889 37.4424 24Z" fill="#7CC4E8"/>
<path d="M41.4458 37.7922C42.7878 38.1862 44.287 38.0304 45.5721 37.2332C47.9758 35.7417 48.7209 32.5708 47.2353 30.156C47.2353 30.156 46.627 28.6576 43.927 26.8981C46.545 33.1069 43.6354 36.3396 41.4458 37.7922Z" fill="#62BBE8"/>
<path d="M9.48281 24C1.88539 26.7629 0.642825 30.3271 0.642825 30.3271C-0.664482 32.7562 0.0852357 35.8778 2.31977 37.299C4.5543 38.7201 7.42578 37.9051 8.73309 35.476C8.73309 35.4782 10.9864 32.5542 9.48281 24Z" fill="#7CC4E8"/>
<path d="M0.0976562 33.9299C0.356612 35.2966 1.12721 36.5407 2.31966 37.3012C4.55419 38.7223 7.42567 37.9073 8.73298 35.4782C8.73298 35.4782 9.679 34.2477 9.93378 31.0535C6.05989 36.241 2.20689 35.1831 0.0976562 33.9299Z" fill="#62BBE8"/>
<path d="M12.0459 26.6497C12.6956 32.4029 17.5742 36.875 23.4989 36.875C29.4236 36.875 34.3022 32.4029 34.9519 26.6497H12.0459Z" fill="#695342"/>
<path d="M15.5879 33.7262C17.6519 35.6784 20.4337 36.875 23.4992 36.875C26.431 36.875 29.1072 35.7793 31.1408 33.9749L31.0352 33.7262C23.3421 29.9744 15.6911 33.6746 15.5879 33.7262Z" fill="#F06669"/>
</svg>
