<svg viewBox="0 0 48 48" fill="none" xmlns="http://www.w3.org/2000/svg">
<path d="M24.2857 43.2865C35.3319 43.2865 44.2866 34.3318 44.2866 23.2855C44.2866 12.2393 35.3319 3.28455 24.2856 3.28455C13.2394 3.28455 4.28467 12.2393 4.28467 23.2855C4.28467 34.3318 13.2394 43.2865 24.2857 43.2865Z" fill="#FFD05D"/>
<path d="M34.7486 6.21606C36.7407 9.32512 37.8952 13.0231 37.8952 16.9886C37.8952 28.0334 28.9411 36.9898 17.894 36.9898C14.0575 36.9898 10.4745 35.9081 7.43115 34.0356C10.986 39.585 17.2065 43.2619 24.2857 43.2619C35.3305 43.2619 44.2869 34.3078 44.2869 23.2607C44.2846 16.0524 40.4692 9.73575 34.7486 6.21606Z" fill="#FDC453"/>
<path d="M7.00169 25.3959C7.00169 15.1396 15.3152 6.82611 25.5715 6.82611C31.5667 6.82611 36.8955 9.66766 40.2908 14.0767C37.0856 8.50852 31.074 4.76123 24.1895 4.76123C13.9331 4.76123 5.61963 13.0747 5.61963 23.3311C5.61963 27.5922 7.05566 31.5178 9.47016 34.6504C7.90038 31.9261 7.00169 28.7654 7.00169 25.3959Z" fill="#FFD77F"/>
<path d="M16.0874 27.4843C15.5712 26.9845 14.7476 27.5383 15.0127 28.2047C16.491 31.898 20.0998 34.5049 24.3211 34.5049C28.472 34.5049 32.0316 31.9825 33.5521 28.3877C33.8289 27.733 32.9983 27.1652 32.4868 27.6603C29.5607 30.4995 23.3473 34.5378 16.0874 27.4843Z" fill="#5E4939"/>
<path d="M38.4023 15.6981L30.2812 16.3716C30.185 16.3716 30.0911 16.3762 29.9926 16.3856C29.9198 16.395 27.3036 16.7071 24.3893 16.8784C24.3212 16.8831 24.2508 16.8831 24.1828 16.8784C21.2685 16.7071 18.6498 16.395 18.5747 16.3856C18.4809 16.3762 18.387 16.3716 18.2908 16.3716L10.1674 15.6981C8.56946 15.6676 7.6872 16.4537 7.77167 17.8428C7.77402 17.8967 8.34655 21.0574 8.34655 21.0574C8.53192 22.1438 8.73372 23.0331 9.40011 24.014C9.74504 24.5255 10.2589 24.908 10.808 25.1895C11.0872 25.3327 11.3829 25.4429 11.6879 25.5157C11.9437 25.5767 12.2276 25.5743 12.5021 25.5884C12.7438 25.6025 13.1404 25.6213 13.382 25.6213H15.2381C15.759 25.6213 15.9467 25.6213 16.0077 25.6213C16.8665 25.6213 17.7394 25.4195 18.5067 25.037C19.7128 24.4363 20.412 23.4391 20.9118 22.2283C21.3858 21.0856 22.3314 20.2197 23.338 19.5604C23.9129 19.1826 24.6544 19.1826 25.2293 19.5604C25.7737 19.917 26.2782 20.3371 26.7146 20.8181C27.0361 21.1724 27.2965 21.6182 27.5593 22.0265C27.855 22.4888 28.045 23.0378 28.3548 23.5071C28.6645 23.9811 29.0094 24.3683 29.4858 24.6968C30.2836 25.2435 31.2503 25.5438 32.21 25.6095C32.3273 25.6166 32.4446 25.6213 32.562 25.6213C32.623 25.6213 32.8107 25.6213 33.3316 25.6213H35.1876C35.4293 25.6213 35.8259 25.6025 36.0676 25.5884C36.3421 25.5743 36.6237 25.5767 36.8818 25.5157C37.1868 25.4429 37.4825 25.3327 37.7617 25.1895C38.3108 24.908 38.8246 24.5231 39.1696 24.014C39.8336 23.0331 40.0354 22.1415 40.2208 21.0574C40.2208 21.0574 40.791 17.8967 40.7957 17.8428C40.8801 16.4537 40.0002 15.6676 38.4023 15.6981Z" fill="#2D292A"/>
<path d="M32.5644 25.6237C32.6254 25.6237 32.8131 25.6237 33.334 25.6237H35.1901C35.4317 25.6237 35.8283 25.6049 36.07 25.5908C36.3445 25.5767 36.6261 25.5791 36.8842 25.5181C37.1892 25.4453 37.4849 25.335 37.7641 25.1919C38.3132 24.9103 38.8271 24.5255 39.172 24.0163C39.836 23.0355 40.0378 22.1439 40.2232 21.0598C40.2232 21.0598 40.7934 17.8991 40.7981 17.8452C40.8098 17.6504 40.8004 17.4697 40.7746 17.3008C37.0344 23.0918 32.4963 24.4927 29.582 24.7649C30.3611 25.2717 31.2856 25.5533 32.2101 25.6143C32.3274 25.619 32.447 25.6237 32.5644 25.6237Z" fill="#414042"/>
<path d="M10.8078 25.1919C11.087 25.3351 11.3827 25.4454 11.6877 25.5181C11.9435 25.5791 12.2274 25.5768 12.5019 25.5908C12.7436 25.6049 13.1402 25.6237 13.3819 25.6237H15.2379C15.7588 25.6237 15.9465 25.6237 16.0075 25.6237C16.8663 25.6237 17.7392 25.4219 18.5065 25.0394C19.7126 24.4387 20.4118 23.4415 20.9116 22.2307C21.1627 21.623 21.5499 21.0974 22.0074 20.6351C16.5988 24.2182 12.096 24.7837 10.2329 24.8447C10.4159 24.9737 10.6083 25.0887 10.8078 25.1919Z" fill="#414042"/>
</svg>
