<svg viewBox="0 0 48 48" fill="none" xmlns="http://www.w3.org/2000/svg">
<path d="M24 44C35.0457 44 44 35.0457 44 24C44 12.9543 35.0457 4 24 4C12.9543 4 4 12.9543 4 24C4 35.0457 12.9543 44 24 44Z" fill="#FFD05D"/>
<path d="M34.4621 6.93127C36.4541 10.0402 37.6085 13.738 37.6085 17.7033C37.6085 28.7475 28.6549 37.7035 17.6083 37.7035C13.7721 37.7035 10.1892 36.6219 7.146 34.7495C10.7007 40.2986 16.9208 43.9753 23.9998 43.9753C35.044 43.9753 43.9999 35.0216 43.9999 23.9751C43.9976 16.7671 40.1824 10.4508 34.4621 6.93127Z" fill="#FDC453"/>
<path d="M6.71695 26.1103C6.71695 15.8544 15.03 7.54134 25.2859 7.54134C31.2808 7.54134 36.6093 10.3828 40.0045 14.7915C36.7994 9.22367 30.788 5.47656 23.9039 5.47656C13.648 5.47656 5.33496 13.7896 5.33496 24.0455C5.33496 28.3064 6.77092 32.2319 9.1853 35.3642C7.6156 32.6401 6.71695 29.4796 6.71695 26.1103Z" fill="#FFD77F"/>
<path d="M31.562 26.5443C31.7708 26.5209 31.8905 26.779 31.8881 26.9714C31.8788 27.8606 31.6418 28.7687 31.1842 29.6697C30.7502 30.4979 30.1284 31.2675 29.3846 31.8963C27.9088 33.1305 25.9472 33.8415 24.0021 33.8485C22.0218 33.886 20.0438 33.1727 18.5821 31.9081C17.064 30.6105 16.1395 28.7663 16.1114 26.9761C16.109 26.7719 16.2451 26.5068 16.4727 26.549C16.6604 26.5819 16.8129 26.8376 16.9513 26.9526C17.1649 27.1309 17.3854 27.2975 17.613 27.4571C18.0659 27.7762 18.5398 28.0624 19.0302 28.3229C20.8322 29.2849 22.8735 29.8034 24.9195 29.6251C26.2217 29.5125 27.4864 29.1206 28.6478 28.5246C29.3447 28.168 30.0064 27.741 30.6282 27.2647C30.8651 27.084 31.2523 26.6007 31.5432 26.5443C31.5479 26.5467 31.555 26.5467 31.562 26.5443Z" fill="#5E4939"/>
<path d="M17.8689 20.4204C17.8689 21.793 17.2096 22.9052 16.3954 22.9052C15.5812 22.9052 14.9219 21.793 14.9219 20.4204C14.9219 19.0478 15.5812 17.9356 16.3954 17.9356C17.2096 17.938 17.8689 19.0501 17.8689 20.4204Z" fill="#303030"/>
<path d="M34.2958 21.2464C33.7303 19.8315 32.3788 18.9164 30.856 18.9164C29.3661 18.9164 28.0263 19.8034 27.4444 21.176C27.3318 21.4388 27.421 21.7367 27.6556 21.8986C27.8926 22.0605 28.2 22.0347 28.4064 21.8353C29.5163 20.7583 31.269 19.8949 33.3267 21.8939C33.4417 22.0066 33.5919 22.0652 33.742 22.0652C33.857 22.0652 33.972 22.0324 34.0752 21.962C34.3098 21.8048 34.4013 21.5091 34.2958 21.2464Z" fill="#303030"/>
<path d="M40.0042 5.63379C38.533 12.776 32.937 14.456 32.937 14.456C32.937 14.456 38.533 16.136 40.0042 23.2783C41.4753 16.136 47.0714 14.456 47.0714 14.456C47.0714 14.456 41.4753 12.776 40.0042 5.63379Z" fill="white"/>
<path d="M40.0042 5.63379C38.533 12.776 32.937 14.456 32.937 14.456C32.937 14.456 40.45 15.5565 40.0042 5.63379Z" fill="#F1F2F2"/>
</svg>
