<svg viewBox="0 0 48 48" fill="none" xmlns="http://www.w3.org/2000/svg">
<path d="M43.9999 23.9999C43.9999 12.9543 35.0456 4.00001 23.9999 4.00001C12.9543 4.00001 4 12.9543 4 23.9999C4 35.0456 12.9543 43.9999 23.9999 43.9999C35.0456 43.9999 43.9999 35.0456 43.9999 23.9999Z" fill="#FFD05D"/>
<path d="M34.462 6.93127C36.454 10.0402 37.6084 13.738 37.6084 17.7033C37.6084 28.7475 28.6548 37.7034 17.6083 37.7034C13.772 37.7034 10.1892 36.6218 7.146 34.7494C10.7007 40.2985 16.9208 43.9752 23.9997 43.9752C35.0439 43.9752 43.9998 35.0216 43.9998 23.975C43.9975 16.7671 40.1823 10.4508 34.462 6.93127Z" fill="#FDC453"/>
<path d="M6.71695 26.1102C6.71695 15.8544 15.03 7.54133 25.2858 7.54133C31.2807 7.54133 36.6092 10.3827 40.0043 14.7915C36.7993 9.22365 30.788 5.47656 23.9038 5.47656C13.648 5.47656 5.33496 13.7896 5.33496 24.0454C5.33496 28.3064 6.77092 32.2318 9.18529 35.3641C7.61559 32.64 6.71695 29.4795 6.71695 26.1102Z" fill="#FFD77F"/>
<path d="M12.3356 16.7103L11.0415 18.0044L16.8715 23.8344L18.1656 22.5403L12.3356 16.7103Z" fill="#303030"/>
<path d="M18.1642 18.0038L16.8701 16.7097L11.0401 22.5398L12.3342 23.8339L18.1642 18.0038Z" fill="#303030"/>
<path d="M31.1266 16.7102L29.8325 18.0043L35.6626 23.8343L36.9567 22.5402L31.1266 16.7102Z" fill="#303030"/>
<path d="M36.9557 18.0039L35.6616 16.7098L29.8316 22.5399L31.1257 23.834L36.9557 18.0039Z" fill="#303030"/>
<path d="M24.0002 36.4504C25.9945 36.4504 27.6112 33.7097 27.6112 30.3289C27.6112 26.948 25.9945 24.2073 24.0002 24.2073C22.0059 24.2073 20.3892 26.948 20.3892 30.3289C20.3892 33.7097 22.0059 36.4504 24.0002 36.4504Z" fill="#695342"/>
<path d="M27.048 33.609C24.4131 32.1614 22.2686 32.9826 21.0273 33.8038C21.6796 35.4016 22.766 36.4505 24.0001 36.4505C25.2812 36.4505 26.4075 35.3172 27.048 33.609Z" fill="#F06669"/>
</svg>
