<svg viewBox="0 0 48 48" fill="none" xmlns="http://www.w3.org/2000/svg">
<path d="M43.9999 23.9999C43.9999 12.9543 35.0456 4.00001 23.9999 4.00001C12.9543 4.00001 4 12.9543 4 23.9999C4 35.0456 12.9543 43.9999 23.9999 43.9999C35.0456 43.9999 43.9999 35.0456 43.9999 23.9999Z" fill="#FFD05D"/>
<path d="M34.462 6.93127C36.454 10.0402 37.6084 13.738 37.6084 17.7033C37.6084 28.7475 28.6548 37.7034 17.6083 37.7034C13.772 37.7034 10.1892 36.6218 7.146 34.7494C10.7007 40.2985 16.9208 43.9752 23.9997 43.9752C35.0439 43.9752 43.9998 35.0216 43.9998 23.975C43.9975 16.7671 40.1823 10.4508 34.462 6.93127Z" fill="#FDC453"/>
<path d="M6.71695 26.1102C6.71695 15.8544 15.03 7.54133 25.2858 7.54133C31.2807 7.54133 36.6092 10.3827 40.0043 14.7915C36.7993 9.22365 30.788 5.47656 23.9038 5.47656C13.648 5.47656 5.33496 13.7896 5.33496 24.0454C5.33496 28.3064 6.77092 32.2318 9.18529 35.3641C7.61559 32.64 6.71695 29.4795 6.71695 26.1102Z" fill="#FFD77F"/>
<path d="M16.6302 22.762C17.444 22.762 18.1037 21.6495 18.1037 20.2772C18.1037 18.9049 17.444 17.7925 16.6302 17.7925C15.8164 17.7925 15.1567 18.9049 15.1567 20.2772C15.1567 21.6495 15.8164 22.762 16.6302 22.762Z" fill="#303030"/>
<path d="M32.841 20.2772C32.841 21.6498 32.1817 22.762 31.3675 22.762C30.5534 22.762 29.894 21.6498 29.894 20.2772C29.894 18.9046 30.5534 17.7925 31.3675 17.7925C32.1817 17.7948 32.841 18.907 32.841 20.2772Z" fill="#303030"/>
<path d="M16.3088 12.3479L14.9683 13.6884L19.4428 18.163L20.7834 16.8224L16.3088 12.3479Z" fill="#303030"/>
<path d="M33.0285 13.6878L31.688 12.3472L27.2134 16.8218L28.554 18.1623L33.0285 13.6878Z" fill="#303030"/>
<path d="M31.3678 33.1515C30.9407 28.7357 27.7943 25.3077 23.9839 25.3148C20.1711 25.3218 17.0411 28.7639 16.6328 33.182L31.3678 33.1515Z" fill="#695342"/>
<path d="M16.6304 33.1844C16.6304 33.1844 22.8341 26.9595 31.3653 33.1515L16.6304 33.1844Z" fill="#F06669"/>
</svg>
