<svg viewBox="0 0 48 48" fill="none" xmlns="http://www.w3.org/2000/svg">
<path d="M44 24C44 12.9543 35.0457 4 24 4C12.9543 4 4 12.9543 4 24C4 35.0457 12.9543 44 24 44C35.0457 44 44 35.0457 44 24Z" fill="#F16D24"/>
<path d="M34.4614 6.93231C36.4534 10.0411 37.6078 13.7389 37.6078 17.7041C37.6078 28.748 28.6543 37.7038 17.6081 37.7038C13.7719 37.7038 10.1891 36.6221 7.146 34.7498C10.7006 40.2988 16.9206 43.9754 23.9993 43.9754C35.0433 43.9754 43.999 35.022 43.999 23.9757C43.9967 16.7679 40.1816 10.4517 34.4614 6.93231Z" fill="#EF6421"/>
<path d="M6.71643 26.1108C6.71643 15.8552 15.0293 7.54233 25.2849 7.54233C31.2796 7.54233 36.608 10.3837 40.0031 14.7923C36.7981 9.22461 30.7869 5.4776 23.9029 5.4776C13.6473 5.4776 5.33447 13.7905 5.33447 24.0461C5.33447 28.3069 6.7704 32.2322 9.18472 35.3645C7.61506 32.6405 6.71643 29.48 6.71643 26.1108Z" fill="#F2824E"/>
<path d="M16.6297 22.7627C17.4435 22.7627 18.1032 21.6503 18.1032 20.278C18.1032 18.9057 17.4435 17.7933 16.6297 17.7933C15.8159 17.7933 15.1562 18.9057 15.1562 20.278C15.1562 21.6503 15.8159 22.7627 16.6297 22.7627Z" fill="#303030"/>
<path d="M32.84 20.278C32.84 21.6506 32.1807 22.7627 31.3665 22.7627C30.5524 22.7627 29.8931 21.6506 29.8931 20.278C29.8931 18.9054 30.5524 17.7933 31.3665 17.7933C32.1807 17.7956 32.84 18.9078 32.84 20.278Z" fill="#303030"/>
<path d="M32.1947 32.8892C32.7109 33.389 33.5345 32.8352 33.2693 32.1689C31.7912 28.4759 28.1826 25.8691 23.9616 25.8691C19.8111 25.8691 16.2518 28.3914 14.7314 31.9859C14.4545 32.6405 15.2851 33.2083 15.7966 32.7132C18.7224 29.8742 24.9353 25.8363 32.1947 32.8892Z" fill="#5E4939"/>
<path d="M16.3088 12.3489L14.9683 13.6894L19.4427 18.1639L20.7832 16.8233L16.3088 12.3489Z" fill="#303030"/>
<path d="M33.028 13.6887L31.6875 12.3481L27.213 16.8226L28.5535 18.1631L33.028 13.6887Z" fill="#303030"/>
</svg>
