<svg viewBox="0 0 48 48" fill="none" xmlns="http://www.w3.org/2000/svg">
<path d="M44 24C44 12.9543 35.0457 4 24 4C12.9543 4 4 12.9543 4 24C4 35.0457 12.9543 44 24 44C35.0457 44 44 35.0457 44 24Z" fill="#FFD05D"/>
<path d="M34.4621 6.93127C36.4541 10.0402 37.6085 13.738 37.6085 17.7033C37.6085 28.7475 28.6549 37.7035 17.6083 37.7035C13.7721 37.7035 10.1892 36.6218 7.146 34.7495C10.7007 40.2986 16.9208 43.9753 23.9997 43.9753C35.044 43.9753 43.9999 35.0216 43.9999 23.9751C43.9976 16.7671 40.1824 10.4508 34.4621 6.93127Z" fill="#FDC453"/>
<path d="M6.71695 26.1103C6.71695 15.8544 15.03 7.54134 25.2859 7.54134C31.2808 7.54134 36.6093 10.3828 40.0045 14.7915C36.7994 9.22367 30.788 5.47656 23.9039 5.47656C13.648 5.47656 5.33496 13.7896 5.33496 24.0455C5.33496 28.3064 6.77092 32.2319 9.1853 35.3642C7.6156 32.6401 6.71695 29.4796 6.71695 26.1103Z" fill="#FFD77F"/>
<path d="M19.5454 21.0849C19.9511 18.5855 18.2537 16.2305 15.7543 15.8248C13.2549 15.4192 10.8999 17.1165 10.4942 19.6159C10.0886 22.1154 11.7859 24.4704 14.2854 24.876C16.7848 25.2817 19.1398 23.5843 19.5454 21.0849Z" fill="white"/>
<path d="M18.2347 17.0838C17.4065 16.2696 16.2732 15.7651 15.0203 15.7651C14.1732 15.7651 13.3849 15.9974 12.7044 16.3986C12.566 16.577 12.4768 16.7764 12.4557 16.9923C12.3666 17.9496 13.6007 18.8459 15.2127 18.9984C16.8246 19.1486 18.2042 18.4963 18.2934 17.539C18.3075 17.3818 18.284 17.2316 18.2347 17.0838Z" fill="#303030"/>
<path d="M36.2212 23.5914C38.0117 21.8009 38.0117 18.8981 36.2212 17.1076C34.4308 15.3172 31.5279 15.3172 29.7375 17.1076C27.947 18.8981 27.947 21.8009 29.7375 23.5914C31.5279 25.3818 34.4308 25.3818 36.2212 23.5914Z" fill="white"/>
<path d="M36.1937 17.0838C35.3655 16.2697 34.2322 15.7652 32.9792 15.7652C32.1322 15.7652 31.3438 15.9975 30.6634 16.3987C30.525 16.577 30.4358 16.7765 30.4147 16.9923C30.3255 17.9496 31.5597 18.8459 33.1716 18.9985C34.7836 19.1486 36.1632 18.4963 36.2524 17.539C36.2688 17.3818 36.2454 17.2317 36.1937 17.0838Z" fill="#303030"/>
<path d="M31.4426 28.5833C30.4876 27.6377 29.1807 26.9432 27.6626 26.5725C26.276 26.2393 24.786 26.2135 23.3501 26.4927C21.947 26.7649 20.579 27.3327 19.3895 28.1351C18.1271 28.9962 17.1487 30.0263 16.48 31.1947C16.3768 31.3731 16.4049 31.5983 16.5457 31.7485C16.6372 31.8447 16.7616 31.8963 16.8883 31.8963C16.9586 31.8963 17.029 31.8799 17.0947 31.847L17.5335 31.6312C18.5635 31.122 19.5349 30.641 20.5227 30.2539C21.6513 29.8034 22.7823 29.4678 23.885 29.2567C25.0324 29.0361 26.1985 28.9352 27.3482 28.9587C28.4158 28.9751 29.5514 29.1042 31.0296 29.3763C31.2314 29.4139 31.4356 29.3153 31.5318 29.1323C31.6233 28.9516 31.5881 28.7287 31.4426 28.5833Z" fill="#5E4939"/>
</svg>
