<svg viewBox="0 0 48 48" fill="none" xmlns="http://www.w3.org/2000/svg">
<path d="M44 24C44 12.9543 35.0457 4 24 4C12.9543 4 4 12.9543 4 24C4 35.0457 12.9543 44 24 44C35.0457 44 44 35.0457 44 24Z" fill="#FFD05D"/>
<path d="M34.4621 6.93127C36.4541 10.0402 37.6085 13.738 37.6085 17.7033C37.6085 28.7475 28.6549 37.7035 17.6083 37.7035C13.7721 37.7035 10.1892 36.6218 7.146 34.7495C10.7007 40.2986 16.9208 43.9753 23.9997 43.9753C35.044 43.9753 43.9999 35.0216 43.9999 23.9751C43.9976 16.7671 40.1824 10.4508 34.4621 6.93127Z" fill="#FDC453"/>
<path d="M6.71695 26.1103C6.71695 15.8544 15.03 7.54134 25.2859 7.54134C31.2808 7.54134 36.6093 10.3828 40.0045 14.7915C36.7994 9.22367 30.788 5.47656 23.9039 5.47656C13.648 5.47656 5.33496 13.7896 5.33496 24.0455C5.33496 28.3064 6.77092 32.2319 9.1853 35.3642C7.6156 32.6401 6.71695 29.4796 6.71695 26.1103Z" fill="#FFD77F"/>
<path d="M15.8017 27.0253C15.2855 26.5256 14.4619 27.0793 14.7271 27.7457C16.2053 31.4388 19.8139 34.0456 24.035 34.0456C28.1857 34.0456 31.7451 31.5233 33.2655 27.9287C33.5424 27.274 32.7118 26.7062 32.2003 27.2013C29.2744 30.0404 23.0613 34.0784 15.8017 27.0253Z" fill="#5E4939"/>
<path d="M18.1037 20.4203C18.1037 21.7929 17.4444 22.9051 16.6302 22.9051C15.8161 22.9051 15.1567 21.7929 15.1567 20.4203C15.1567 19.0477 15.8161 17.9355 16.6302 17.9355C17.4444 17.9379 18.1037 19.0501 18.1037 20.4203Z" fill="#303030"/>
<path d="M32.841 20.4203C32.841 21.7929 32.1817 22.9051 31.3675 22.9051C30.5534 22.9051 29.894 21.7929 29.894 20.4203C29.894 19.0477 30.5534 17.9355 31.3675 17.9355C32.1817 17.9379 32.841 19.0501 32.841 20.4203Z" fill="#303030"/>
</svg>
