<svg viewBox="0 0 48 48" fill="none" xmlns="http://www.w3.org/2000/svg">
<path d="M24.0015 44.0011C35.0477 44.0011 44.0025 35.0464 44.0025 24.0001C44.0025 12.9539 35.0477 3.99915 24.0015 3.99915C12.9552 3.99915 4.00049 12.9539 4.00049 24.0001C4.00049 35.0464 12.9552 44.0011 24.0015 44.0011Z" fill="#FFD05D"/>
<path d="M34.4644 6.93066C36.4565 10.0397 37.611 13.7377 37.611 17.7032C37.611 28.748 28.6569 37.7044 17.6098 37.7044C13.7734 37.7044 10.1903 36.6227 7.14697 34.7502C10.7019 40.2996 16.9223 43.9765 24.0016 43.9765C35.0463 43.9765 44.0027 35.0224 44.0027 23.9753C44.0004 16.767 40.185 10.4503 34.4644 6.93066Z" fill="#FDC453"/>
<path d="M6.71751 26.1105C6.71751 15.8542 15.031 7.54071 25.2873 7.54071C31.2825 7.54071 36.6113 10.3823 40.0067 14.7913C36.8014 9.22312 30.7898 5.47583 23.9053 5.47583C13.6489 5.47583 5.33545 13.7893 5.33545 24.0457C5.33545 28.3068 6.77148 32.2324 9.18598 35.365C7.6162 32.6407 6.71751 29.48 6.71751 26.1105Z" fill="#FFD77F"/>
<path d="M18.1049 19.1486C18.1049 20.5213 17.4455 21.6335 16.6313 21.6335C15.8171 21.6335 15.1577 20.5213 15.1577 19.1486C15.1577 17.7759 15.8171 16.6637 16.6313 16.6637C17.4455 16.6637 18.1049 17.7759 18.1049 19.1486Z" fill="#303030"/>
<path d="M32.8427 19.1486C32.8427 20.5213 32.1833 21.6335 31.3691 21.6335C30.5549 21.6335 29.8955 20.5213 29.8955 19.1486C29.8955 17.7759 30.5549 16.6637 31.3691 16.6637C32.1833 16.6637 32.8427 17.7759 32.8427 19.1486Z" fill="#303030"/>
<path d="M35.8133 14.9555C35.5974 14.8922 35.3886 14.8335 35.1844 14.7772C34.7339 14.6505 34.3116 14.5332 33.9009 14.39C33.2885 14.1835 32.7371 13.9489 32.2162 13.6744C31.6671 13.3834 31.1697 13.0619 30.6933 12.6865C30.1724 12.2829 29.689 11.8089 29.2432 11.3584C29.2174 11.3326 29.1799 11.3256 29.147 11.3396C29.1142 11.3537 29.093 11.3866 29.0954 11.4241C29.1282 12.1069 29.3981 12.8132 29.8768 13.4655C30.3132 14.0568 30.8998 14.5543 31.5686 14.9039C32.1998 15.2348 32.9037 15.4389 33.6123 15.4905C33.6405 15.4929 33.6663 15.4952 33.6944 15.4952C34.4899 15.5375 35.2056 15.4084 35.8274 15.1174C35.8602 15.101 35.879 15.0682 35.8767 15.033C35.8743 14.9954 35.8485 14.9649 35.8133 14.9555Z" fill="#414042"/>
<path d="M12.1871 14.9555C12.403 14.8922 12.6118 14.8335 12.8159 14.7772C13.2665 14.6505 13.6888 14.5332 14.0994 14.39C14.7119 14.1835 15.2633 13.9489 15.7842 13.6744C16.3333 13.3834 16.8307 13.0619 17.307 12.6865C17.828 12.2829 18.3113 11.8089 18.7572 11.3584C18.783 11.3326 18.8205 11.3256 18.8534 11.3396C18.8862 11.3537 18.9073 11.3866 18.905 11.4241C18.8721 12.1069 18.6023 12.8132 18.1236 13.4655C17.6872 14.0568 17.1006 14.5543 16.4318 14.9039C15.8006 15.2348 15.0967 15.4389 14.3881 15.4905C14.3599 15.4929 14.3341 15.4952 14.3059 15.4952C13.5105 15.5375 12.7948 15.4084 12.173 15.1174C12.1402 15.101 12.1214 15.0682 12.1237 15.033C12.1284 14.9954 12.1519 14.9649 12.1871 14.9555Z" fill="#414042"/>
<path d="M16.439 32.6078C16.2301 32.6313 16.1105 32.3732 16.1128 32.1808C16.1222 31.2914 16.3592 30.3834 16.8168 29.4823C17.2509 28.654 17.8727 27.8844 18.6165 27.2555C20.0924 26.0213 22.054 25.3103 23.9993 25.3033C25.9797 25.2657 27.9577 25.9791 29.4196 27.2438C30.9377 28.5414 31.8622 30.3857 31.8904 32.1761C31.8927 32.3802 31.7566 32.6454 31.529 32.6031C31.3413 32.5703 31.1888 32.3145 31.0504 32.1995C30.8368 32.0212 30.6163 31.8546 30.3887 31.695C29.9358 31.3759 29.4618 31.0897 28.9714 30.8292C27.1693 29.8671 25.1279 29.3486 23.0818 29.5269C21.7795 29.6395 20.5148 30.0314 19.3533 30.6274C18.6564 30.9841 17.9947 31.4111 17.3729 31.8874C17.1359 32.0681 16.7487 32.5515 16.4578 32.6078C16.4507 32.6055 16.4437 32.6055 16.439 32.6078Z" fill="#5E4939"/>
</svg>
