<svg viewBox="0 0 48 48" fill="none" xmlns="http://www.w3.org/2000/svg">
<path d="M24 44C35.0457 44 44 35.0457 44 24C44 12.9543 35.0457 4 24 4C12.9543 4 4 12.9543 4 24C4 35.0457 12.9543 44 24 44Z" fill="#FFD05D"/>
<path d="M34.4621 6.93127C36.4541 10.0402 37.6085 13.738 37.6085 17.7033C37.6085 28.7475 28.6549 37.7035 17.6083 37.7035C13.7721 37.7035 10.1892 36.6219 7.146 34.7495C10.7007 40.2986 16.9208 43.9753 23.9998 43.9753C35.044 43.9753 43.9999 35.0216 43.9999 23.9751C43.9976 16.7671 40.1824 10.4508 34.4621 6.93127Z" fill="#FDC453"/>
<path d="M6.71695 26.1103C6.71695 15.8544 15.03 7.54134 25.2859 7.54134C31.2808 7.54134 36.6093 10.3828 40.0045 14.7915C36.7994 9.22367 30.788 5.47656 23.9039 5.47656C13.648 5.47656 5.33496 13.7896 5.33496 24.0455C5.33496 28.3064 6.77092 32.2319 9.1853 35.3642C7.6156 32.6401 6.71695 29.4796 6.71695 26.1103Z" fill="#FFD77F"/>
<path d="M13.2112 24.3223C12.9578 24.3223 12.7091 24.2096 12.5425 23.9961C12.2539 23.6278 12.322 23.0951 12.6903 22.8065L15.574 20.5587L12.5918 18.806C12.1882 18.569 12.0545 18.0482 12.2915 17.6446C12.5284 17.241 13.0493 17.1073 13.4529 17.3443L17.5097 19.7305C17.7514 19.8736 17.9086 20.1247 17.925 20.4062C17.9438 20.6854 17.8218 20.9576 17.6012 21.1312L13.7321 24.1439C13.5773 24.2636 13.3942 24.3223 13.2112 24.3223Z" fill="#303030"/>
<path d="M34.7856 24.3223C34.6026 24.3223 34.4196 24.2636 34.2647 24.144L30.398 21.1289C30.1774 20.9553 30.0554 20.6855 30.0742 20.4039C30.0929 20.1247 30.2478 19.8713 30.4895 19.7282L34.5463 17.3419C34.9498 17.105 35.4684 17.2387 35.7077 17.6423C35.9447 18.0458 35.811 18.5644 35.4074 18.8037L32.4252 20.5564L35.3088 22.8042C35.6772 23.0928 35.7453 23.6254 35.4567 23.9938C35.2877 24.2097 35.039 24.3223 34.7856 24.3223Z" fill="#303030"/>
<path d="M14.0044 27.0676C14.5699 30.939 18.8285 33.9494 23.9975 33.9494C29.1664 33.9494 33.425 30.939 33.9905 27.0676H14.0044Z" fill="#695342"/>
<path d="M18.0356 27.0676V34.8668C18.0356 38.147 20.7199 40.8312 24 40.8312C27.2802 40.8312 29.9644 38.147 29.9644 34.8668V27.0676H18.0356Z" fill="#F06669"/>
<path d="M23.9999 35.9556C23.7066 35.9556 23.4673 35.7162 23.4673 35.4229V27.0676H24.5325V35.4229C24.5325 35.7162 24.2932 35.9556 23.9999 35.9556Z" fill="#C64F58"/>
<path d="M23.9998 40.8336C27.2401 40.8336 29.8962 38.2151 29.9619 34.9889C26.1561 38.6914 22.1087 39.163 19.7529 39.0434C20.8346 40.1461 22.3409 40.8336 23.9998 40.8336Z" fill="#E05F65"/>
</svg>
