<svg viewBox="0 0 48 48" fill="none" xmlns="http://www.w3.org/2000/svg">
<path d="M44 24C44 12.9543 35.0457 4 24 4C12.9543 4 4 12.9543 4 24C4 35.0457 12.9543 44 24 44C35.0457 44 44 35.0457 44 24Z" fill="#FFD05D"/>
<path d="M34.4621 6.93127C36.4541 10.0402 37.6085 13.738 37.6085 17.7033C37.6085 28.7475 28.6549 37.7035 17.6083 37.7035C13.7721 37.7035 10.1892 36.6218 7.146 34.7495C10.7007 40.2986 16.9208 43.9753 23.9997 43.9753C35.044 43.9753 43.9999 35.0216 43.9999 23.9751C43.9976 16.7671 40.1824 10.4508 34.4621 6.93127Z" fill="#FDC453"/>
<path d="M6.71695 26.1103C6.71695 15.8544 15.03 7.54134 25.2859 7.54134C31.2808 7.54134 36.6093 10.3828 40.0045 14.7915C36.7994 9.22367 30.788 5.47656 23.9039 5.47656C13.648 5.47656 5.33496 13.7896 5.33496 24.0455C5.33496 28.3064 6.77092 32.2319 9.1853 35.3642C7.6156 32.6401 6.71695 29.4796 6.71695 26.1103Z" fill="#FFD77F"/>
<path d="M18.1037 22.6353C18.1037 24.0079 17.4444 25.1201 16.6302 25.1201C15.8161 25.1201 15.1567 24.0079 15.1567 22.6353C15.1567 21.2627 15.8161 20.1505 16.6302 20.1505C17.4444 20.1505 18.1037 21.2627 18.1037 22.6353Z" fill="#303030"/>
<path d="M32.841 22.6353C32.841 24.0079 32.1817 25.1201 31.3675 25.1201C30.5534 25.1201 29.894 24.0079 29.894 22.6353C29.894 21.2627 30.5534 20.1505 31.3675 20.1505C32.1817 20.1505 32.841 21.2627 32.841 22.6353Z" fill="#303030"/>
<path d="M17.4962 31.6688C18.4511 30.7232 19.758 30.0287 21.2761 29.658C22.6628 29.3248 24.1527 29.299 25.5887 29.5782C26.9918 29.8504 28.3597 30.4182 29.5493 31.2206C30.8116 32.0817 31.79 33.1118 32.4588 34.2802C32.562 34.4586 32.5338 34.6838 32.3931 34.834C32.3016 34.9302 32.1772 34.9818 32.0505 34.9818C31.9801 34.9818 31.9097 34.9654 31.844 34.9325L31.4052 34.7167C30.3752 34.2075 29.4038 33.7265 28.416 33.3394C27.2874 32.8889 26.1565 32.5533 25.0537 32.3422C23.9064 32.1216 22.7402 32.0207 21.5905 32.0442C20.5229 32.0606 19.3873 32.1897 17.9091 32.4618C17.7073 32.4994 17.5032 32.4008 17.407 32.2178C17.3131 32.0371 17.3483 31.8142 17.4962 31.6688Z" fill="#5E4939"/>
<path d="M43.411 18.8178C42.6227 15.8661 41.1773 13.1842 39.2463 10.9317L10.1376 9.40662C7.96959 11.4573 6.25911 13.9796 5.17041 16.814L43.411 18.8178Z" fill="#F1F2F2"/>
<path d="M11.7637 17.1425L33.716 10.6432L15.3841 17.349L11.7637 17.1425Z" fill="#E6E7E8"/>
<path d="M9.4596 10.0754C7.01941 12.6118 5.23619 15.7864 4.38916 19.3247L37.8128 9.42781C35.2623 7.00873 32.0807 5.25133 28.5377 4.42542L9.4596 10.0754Z" fill="white"/>
<path d="M8.51172 11.1289L32.6368 5.859C31.3416 5.23957 29.969 4.76091 28.5401 4.42773L9.45964 10.0754C9.1335 10.4179 8.8144 10.7675 8.51172 11.1289Z" fill="#F9F9F9"/>
<path d="M11.8297 18.8882C12.0455 18.8249 12.2543 18.7662 12.4585 18.7099C12.909 18.5832 13.3313 18.4659 13.7419 18.3227C14.3543 18.1163 14.9057 17.8816 15.4266 17.6071C15.9756 17.3162 16.4731 16.9947 16.9494 16.6193C17.4703 16.2157 17.9536 15.7418 18.3994 15.2913C18.4252 15.2655 18.4628 15.2584 18.4956 15.2725C18.5285 15.2866 18.5496 15.3194 18.5472 15.357C18.5144 16.0398 18.2446 16.746 17.7659 17.3983C17.3295 17.9896 16.7429 18.487 16.0742 18.8366C15.443 19.1674 14.7391 19.3716 14.0305 19.4232C14.0024 19.4255 13.9766 19.4279 13.9484 19.4279C13.153 19.4701 12.4374 19.3434 11.8156 19.0501C11.7827 19.0337 11.764 19.0008 11.7663 18.9656C11.771 18.9281 11.7945 18.8976 11.8297 18.8882Z" fill="#414042"/>
</svg>
