<svg viewBox="0 0 48 48" fill="none" xmlns="http://www.w3.org/2000/svg">
<path d="M43.9999 23.9999C43.9999 12.9543 35.0456 4.00001 23.9999 4.00001C12.9543 4.00001 4 12.9543 4 23.9999C4 35.0456 12.9543 43.9999 23.9999 43.9999C35.0456 43.9999 43.9999 35.0456 43.9999 23.9999Z" fill="#FFD05D"/>
<path d="M34.462 6.93127C36.454 10.0402 37.6084 13.738 37.6084 17.7033C37.6084 28.7475 28.6548 37.7034 17.6083 37.7034C13.772 37.7034 10.1892 36.6218 7.146 34.7494C10.7007 40.2985 16.9208 43.9752 23.9997 43.9752C35.0439 43.9752 43.9998 35.0216 43.9998 23.975C43.9975 16.7671 40.1823 10.4508 34.462 6.93127Z" fill="#FDC453"/>
<path d="M6.71695 26.1102C6.71695 15.8544 15.03 7.54133 25.2858 7.54133C31.2807 7.54133 36.6092 10.3827 40.0043 14.7915C36.7993 9.22365 30.788 5.47656 23.9038 5.47656C13.648 5.47656 5.33496 13.7896 5.33496 24.0454C5.33496 28.3064 6.77092 32.2318 9.18529 35.3641C7.61559 32.64 6.71695 29.4795 6.71695 26.1102Z" fill="#FFD77F"/>
<path d="M23.9998 39.327C26.931 39.327 29.3072 35.2984 29.3072 30.3289C29.3072 25.3593 26.931 21.3307 23.9998 21.3307C21.0686 21.3307 18.6924 25.3593 18.6924 30.3289C18.6924 35.2984 21.0686 39.327 23.9998 39.327Z" fill="#695342"/>
<path d="M28.4793 35.1529C24.6055 33.0248 21.452 34.2308 19.6289 35.4392C20.5862 37.7879 22.1864 39.3294 23.9978 39.3294C25.8842 39.3271 27.5384 37.6612 28.4793 35.1529Z" fill="#F06669"/>
<path d="M18.9467 21.3909C20.6175 17.986 20.0161 14.2661 17.6035 13.0822C15.1909 11.8983 11.8806 13.6988 10.2098 17.1037C8.53901 20.5086 9.1404 24.2286 11.553 25.4125C13.9657 26.5963 17.2759 24.7958 18.9467 21.3909Z" fill="white"/>
<path d="M36.4419 25.4133C38.8545 24.2294 39.4559 20.5094 37.7851 17.1045C36.1143 13.6996 32.8041 11.8991 30.3914 13.083C27.9788 14.2668 27.3774 17.9868 29.0482 21.3917C30.719 24.7966 34.0292 26.5971 36.4419 25.4133Z" fill="white"/>
<path d="M35.2248 13.3227C34.901 13.3227 34.6382 13.0599 34.6382 12.7361V5.40616C34.6382 5.08237 34.901 4.81958 35.2248 4.81958C35.5486 4.81958 35.8113 5.08237 35.8113 5.40616V12.7361C35.8113 13.0599 35.5486 13.3227 35.2248 13.3227Z" fill="#414042"/>
<path d="M37.9298 12.1354C37.6061 12.1354 37.3433 11.8726 37.3433 11.5489V6.27665C37.3433 5.95285 37.6061 5.69006 37.9298 5.69006C38.2536 5.69006 38.5164 5.95285 38.5164 6.27665V11.5489C38.5164 11.8726 38.2536 12.1354 37.9298 12.1354Z" fill="#414042"/>
<path d="M40.6613 16.0303C40.3375 16.0303 40.0747 15.7675 40.0747 15.4437V7.54831C40.0747 7.22452 40.3375 6.96173 40.6613 6.96173C40.9851 6.96173 41.2479 7.22452 41.2479 7.54831V15.4437C41.2479 15.7675 40.9851 16.0303 40.6613 16.0303Z" fill="#414042"/>
</svg>
