<svg viewBox="0 0 48 48" fill="none" xmlns="http://www.w3.org/2000/svg">
<path d="M44 24C44 12.9543 35.0457 4 24 4C12.9543 4 4 12.9543 4 24C4 35.0457 12.9543 44 24 44C35.0457 44 44 35.0457 44 24Z" fill="#8CB7EA"/>
<path d="M34.4626 6.93127C36.4546 10.0402 37.609 13.738 37.609 17.7033C37.609 28.7475 28.6554 37.7035 17.6088 37.7035C13.7725 37.7035 10.1897 36.6218 7.14648 34.7495C10.7012 40.2986 16.9213 43.9753 24.0002 43.9753C35.0445 43.9753 44.0004 35.0216 44.0004 23.9751C43.9981 16.7671 40.1829 10.4508 34.4626 6.93127Z" fill="#70A9E0"/>
<path d="M6.71695 26.1101C6.71695 15.8543 15.03 7.54122 25.2859 7.54122C31.2808 7.54122 36.6093 10.3826 40.0045 14.7914C36.7994 9.22354 30.788 5.47644 23.9039 5.47644C13.648 5.47644 5.33496 13.7895 5.33496 24.0454C5.33496 28.3063 6.77092 32.2317 9.1853 35.3641C7.6156 32.64 6.71695 29.4795 6.71695 26.1101Z" fill="#A0C9F2"/>
<path d="M13.2112 25.8803C12.9578 25.8803 12.7091 25.7677 12.5425 25.5542C12.2539 25.1858 12.322 24.6532 12.6903 24.3646L15.574 22.1168L12.5918 20.3641C12.1882 20.1271 12.0545 19.6062 12.2915 19.2026C12.5284 18.7991 13.0493 18.6653 13.4529 18.9023L17.5097 21.2885C17.7514 21.4317 17.9086 21.6827 17.925 21.9643C17.9438 22.2435 17.8218 22.5157 17.6012 22.6893L13.7321 25.6996C13.5773 25.8217 13.3942 25.8803 13.2112 25.8803Z" fill="#303030"/>
<path d="M34.786 25.8803C34.603 25.8803 34.42 25.8217 34.2651 25.702L30.396 22.687C30.1754 22.5133 30.0534 22.2435 30.0722 21.962C30.091 21.6827 30.2458 21.4293 30.4875 21.2862L34.5443 18.9C34.9479 18.663 35.4664 18.7967 35.7058 19.2003C35.9427 19.6039 35.809 20.1224 35.4054 20.3618L32.4232 22.1145L35.3069 24.3623C35.6753 24.6509 35.7433 25.1835 35.4547 25.5519C35.2881 25.7677 35.0394 25.8803 34.786 25.8803Z" fill="#303030"/>
<path d="M9.02562 16.6076C9.27433 16.563 9.51365 16.5231 9.74829 16.4855C10.2645 16.4011 10.7525 16.319 11.2265 16.211C11.9351 16.0538 12.578 15.8614 13.1927 15.6174C13.8403 15.3617 14.4339 15.0613 15.0111 14.7C15.6423 14.3128 16.2383 13.8436 16.7897 13.3954C16.8202 13.3696 16.8647 13.3673 16.8999 13.386C16.9351 13.4072 16.9539 13.4447 16.9469 13.4846C16.8272 14.2424 16.44 14.9956 15.8253 15.6667C15.2669 16.272 14.5536 16.7554 13.7629 17.0651C13.0191 17.3584 12.2096 17.4968 11.4118 17.471C11.3813 17.471 11.3508 17.4687 11.3203 17.4663C10.4287 17.4147 9.64505 17.1871 8.98808 16.7835C8.95288 16.7624 8.93646 16.7225 8.94349 16.6826C8.95523 16.6451 8.98808 16.6146 9.02562 16.6076Z" fill="#414042"/>
<path d="M38.972 16.6076C38.7233 16.563 38.484 16.5231 38.2493 16.4856C37.7332 16.4011 37.2451 16.319 36.7712 16.2111C36.0626 16.0539 35.4197 15.8615 34.8049 15.6175C34.1573 15.3617 33.5637 15.0614 32.9865 14.7C32.3553 14.3129 31.7594 13.8436 31.208 13.3955C31.1775 13.3697 31.1329 13.3673 31.0977 13.3861C31.0625 13.4072 31.0437 13.4448 31.0508 13.4846C31.1704 14.2425 31.5576 14.9957 32.1723 15.6667C32.7308 16.2721 33.444 16.7554 34.2348 17.0652C34.9786 17.3584 35.788 17.4969 36.5858 17.4711C36.6163 17.4711 36.6468 17.4687 36.6773 17.4664C37.5689 17.4148 38.3526 17.1872 39.0096 16.7836C39.0448 16.7625 39.0612 16.7226 39.0541 16.6827C39.0424 16.6452 39.0119 16.6147 38.972 16.6076Z" fill="#414042"/>
<path d="M30.8911 27.2646C31.1398 27.2646 31.3745 27.3772 31.5317 27.572L34.237 30.9343C34.5209 31.2886 34.4646 31.8048 34.1127 32.0887C33.7584 32.3726 33.2422 32.3163 32.9583 31.9643L30.9545 29.4749L28.1318 33.7053C27.9793 33.9329 27.7236 34.0713 27.4491 34.0713C27.1745 34.0713 26.9188 33.9353 26.7663 33.7053L24.0023 29.5664L21.2383 33.7053C21.0858 33.9329 20.83 34.0713 20.5555 34.0713C20.281 34.0713 20.0252 33.9353 19.8727 33.7053L17.0454 29.4725L15.0416 31.962C14.7577 32.3163 14.2392 32.3702 13.8872 32.0863C13.5329 31.8024 13.479 31.2839 13.7629 30.9319L16.4682 27.5696C16.6324 27.3655 16.8858 27.2505 17.1439 27.2646C17.4044 27.2763 17.6461 27.4124 17.7915 27.6283L20.5532 31.7672L23.3172 27.6283C23.4697 27.4007 23.7254 27.2623 23.9999 27.2623C24.2745 27.2623 24.5302 27.3984 24.6827 27.6283L27.4467 31.7672L30.2083 27.6283C30.3538 27.4101 30.5931 27.2763 30.8559 27.2646C30.8677 27.2646 30.8794 27.2646 30.8911 27.2646Z" fill="#5E4939"/>
</svg>
