<svg viewBox="0 0 48 48" fill="none" xmlns="http://www.w3.org/2000/svg">
<path d="M43.9999 23.9999C43.9999 12.9543 35.0456 4.00001 23.9999 4.00001C12.9543 4.00001 4 12.9543 4 23.9999C4 35.0456 12.9543 43.9999 23.9999 43.9999C35.0456 43.9999 43.9999 35.0456 43.9999 23.9999Z" fill="#84B840"/>
<path d="M34.462 6.93127C36.454 10.0402 37.6084 13.738 37.6084 17.7033C37.6084 28.7475 28.6548 37.7034 17.6083 37.7034C13.772 37.7034 10.1892 36.6218 7.146 34.7494C10.7007 40.2985 16.9208 43.9752 23.9997 43.9752C35.0439 43.9752 43.9998 35.0216 43.9998 23.975C43.9975 16.7671 40.1823 10.4508 34.462 6.93127Z" fill="#73AA43"/>
<path d="M6.71695 26.1102C6.71695 15.8544 15.03 7.54133 25.2858 7.54133C31.2807 7.54133 36.6092 10.3827 40.0043 14.7915C36.7993 9.22365 30.788 5.47656 23.9038 5.47656C13.648 5.47656 5.33496 13.7896 5.33496 24.0454C5.33496 28.3064 6.77092 32.2318 9.18529 35.3641C7.61559 32.64 6.71695 29.4795 6.71695 26.1102Z" fill="#93C23D"/>
<path d="M36.3861 30.052C35.8535 28.3251 34.563 27.2083 33.0965 27.2083C32.5428 27.2083 31.9914 27.3749 31.5034 27.6869C31.1397 27.9192 30.8628 28.2477 30.5954 28.5668C30.464 28.7217 30.3419 28.8695 30.2106 29.0009C29.9525 29.2637 29.6052 29.4842 29.2345 29.625C28.4837 29.9089 27.348 29.6837 26.7427 28.8179C26.027 27.7949 25.0228 27.2083 23.9834 27.2083C23.2185 27.2083 22.4747 27.5461 21.8318 28.182C21.6793 28.3322 21.5479 28.5011 21.4212 28.6607C21.3086 28.8038 21.203 28.9399 21.0904 29.0525C20.8815 29.2637 20.607 29.4021 20.295 29.5476C19.9149 29.7259 19.5183 29.7892 19.1453 29.7306C18.6572 29.6532 18.141 29.3763 17.7656 28.9915C17.6459 28.8671 17.5263 28.731 17.4019 28.5856C17.1133 28.2524 16.8177 27.9075 16.447 27.6729C15.9636 27.3678 15.4193 27.2059 14.8749 27.2059C13.439 27.2059 12.1579 28.2899 11.6112 29.9699C11.5103 30.282 11.637 30.6269 11.9068 30.7724C12.1461 30.9014 12.4254 30.8404 12.6013 30.6175C13.2888 29.7517 14.4291 28.9657 15.5718 29.3622C16.1349 29.557 16.5971 30.0755 16.9866 30.5448C17.5427 31.2135 18.2654 31.6405 19.0279 31.7461C19.157 31.7649 19.2884 31.7719 19.4174 31.7719C20.3489 31.7719 21.257 31.2956 21.9139 30.4626L22.0336 30.3078C22.2588 30.0168 22.4372 29.7869 22.707 29.618C23.0308 29.4162 23.3827 29.2848 23.7253 29.2379C24.0913 29.1886 24.4714 29.259 24.8539 29.4443C25.0416 29.5358 25.2316 29.6555 25.4193 29.8033C25.6141 29.9558 25.7924 30.167 25.9801 30.3899C26.1796 30.6269 26.3837 30.8709 26.6347 31.0727C27.1979 31.5279 27.8525 31.7672 28.5282 31.7672C29.272 31.7672 29.9876 31.4645 30.5954 30.892C30.6869 30.8052 30.8464 30.6386 31.0318 30.4439C31.2734 30.1905 31.7216 29.7212 31.8319 29.6461C32.6672 29.083 33.5846 29.1065 34.4152 29.7118C34.7437 29.9511 35.0628 30.2702 35.3913 30.6855C35.5672 30.9061 35.8441 30.9694 36.0834 30.8451C36.3579 30.7067 36.4846 30.3711 36.3861 30.052Z" fill="#5E4939"/>
<path d="M12.3346 16.4408L11.0405 17.7349L16.8706 23.5649L18.1647 22.2708L12.3346 16.4408Z" fill="#303030"/>
<path d="M18.1647 17.7342L16.8706 16.4401L11.0406 22.2701L12.3347 23.5642L18.1647 17.7342Z" fill="#303030"/>
<path d="M31.1261 16.441L29.832 17.7351L35.6621 23.5652L36.9562 22.2711L31.1261 16.441Z" fill="#303030"/>
<path d="M36.9562 17.7342L35.6621 16.4401L29.8321 22.2701L31.1262 23.5642L36.9562 17.7342Z" fill="#303030"/>
</svg>
