<svg viewBox="0 0 48 48" fill="none" xmlns="http://www.w3.org/2000/svg">
<path d="M43.9999 23.9999C43.9999 12.9543 35.0456 3.99998 23.9999 3.99998C12.9543 3.99998 4 12.9543 4 23.9999C4 35.0456 12.9543 43.9999 23.9999 43.9999C35.0456 43.9999 43.9999 35.0456 43.9999 23.9999Z" fill="#FFD05D"/>
<path d="M34.462 6.93127C36.454 10.0402 37.6084 13.738 37.6084 17.7033C37.6084 28.7475 28.6548 37.7034 17.6083 37.7034C13.772 37.7034 10.1892 36.6218 7.146 34.7494C10.7007 40.2985 16.9208 43.9752 23.9997 43.9752C35.0439 43.9752 43.9998 35.0216 43.9998 23.975C43.9975 16.7671 40.1824 10.4508 34.462 6.93127Z" fill="#FDC453"/>
<path d="M6.71695 26.1102C6.71695 15.8544 15.03 7.54134 25.2858 7.54134C31.2807 7.54134 36.6092 10.3827 40.0044 14.7915C36.7993 9.22366 30.788 5.47656 23.9038 5.47656C13.648 5.47656 5.33496 13.7896 5.33496 24.0454C5.33496 28.3064 6.77092 32.2318 9.18529 35.3642C7.6156 32.6401 6.71695 29.4796 6.71695 26.1102Z" fill="#FFD77F"/>
<path d="M28.2209 32.0394C27.083 31.0539 25.5414 30.4978 23.9975 30.526C22.4795 30.5307 20.952 31.0868 19.8023 32.0464C19.2227 32.5368 18.737 33.1351 18.3992 33.7827C18.0425 34.4842 17.8572 35.1928 17.8501 35.885C17.8478 36.0516 17.9534 36.1994 18.1082 36.2534C18.2654 36.3073 18.4391 36.2557 18.54 36.1243C18.9553 35.5894 19.3471 35.1623 19.7389 34.8245C20.1613 34.4655 20.6094 34.1675 21.0717 33.9352C21.9938 33.4753 23.0097 33.229 24.014 33.2243C25.044 33.2172 26.0201 33.4472 26.9211 33.9164C27.8479 34.3904 28.6996 35.1342 29.4504 36.122C29.5255 36.2205 29.6405 36.2745 29.7578 36.2745C29.8 36.2745 29.8422 36.2675 29.8845 36.2534C30.0417 36.1994 30.1473 36.0493 30.1449 35.8827C30.1262 34.4913 29.4035 33.053 28.2209 32.0394Z" fill="#5E4939"/>
<path d="M38.3922 27.2388C38.1294 27.1614 37.876 27.091 37.6155 27.0182C37.0735 26.8657 36.562 26.7226 36.0693 26.5513C35.3278 26.3003 34.6615 26.0164 34.0327 25.6855C33.371 25.3359 32.7703 24.9441 32.1931 24.4912C31.562 24.0009 30.9777 23.4284 30.4381 22.884C30.3818 22.8277 30.295 22.8113 30.2222 22.8441C30.1495 22.877 30.1026 22.9521 30.1073 23.0318C30.1495 23.8789 30.4827 24.754 31.0739 25.5635C31.6136 26.2932 32.3339 26.9056 33.1622 27.3397C33.9388 27.748 34.8093 27.999 35.6821 28.0647L35.783 28.0718C35.905 28.0788 36.0247 28.0811 36.142 28.0811C36.982 28.0811 37.7446 27.9216 38.418 27.6025C38.4907 27.5673 38.5353 27.4922 38.5282 27.4124C38.5259 27.3303 38.4696 27.2623 38.3922 27.2388Z" fill="#303030"/>
<path d="M17.775 22.8441C17.7023 22.8113 17.6155 22.8277 17.5591 22.884C17.0195 23.4307 16.4353 24.0032 15.8041 24.4936C15.2292 24.9464 14.6262 25.3359 13.9646 25.6879C13.3357 26.0211 12.6694 26.3026 11.9279 26.5537C11.4352 26.725 10.9237 26.8681 10.3723 27.0229C10.1236 27.0933 9.86787 27.1637 9.60742 27.2412C9.52999 27.2646 9.47603 27.3327 9.46899 27.4124C9.46195 27.4922 9.50653 27.5696 9.57927 27.6025C10.2527 27.9192 11.0176 28.0811 11.8552 28.0811C11.9725 28.0811 12.0922 28.0788 12.2142 28.0718L12.3151 28.0647C13.1879 27.999 14.0608 27.748 14.8351 27.3397C15.661 26.908 16.3836 26.2932 16.9233 25.5635C17.5146 24.7564 17.8501 23.8812 17.89 23.0318C17.8947 22.9521 17.8477 22.877 17.775 22.8441Z" fill="#303030"/>
</svg>
