<svg viewBox="0 0 48 48" fill="none" xmlns="http://www.w3.org/2000/svg">
<path d="M43.9992 24C43.9992 12.9543 35.045 4.00003 23.9996 4.00003C12.9541 4.00003 4 12.9543 4 24C4 35.0457 12.9541 44 23.9996 44C35.045 44 43.9992 35.0457 43.9992 24Z" fill="#FFD05D"/>
<path d="M34.4628 6.93298C36.4547 10.0418 37.6091 13.7395 37.6091 17.7047C37.6091 28.7487 28.6559 37.7044 17.6098 37.7044C13.7737 37.7044 10.191 36.6228 7.14795 34.7505C10.7025 40.2994 16.9223 43.976 24.0009 43.976C35.0446 43.976 44.0002 35.0226 44.0002 23.9764C43.9979 16.7686 40.1829 10.4501 34.4628 6.93298Z" fill="#FDC453"/>
<path d="M6.71836 26.1115C6.71836 15.856 15.0311 7.54309 25.2864 7.54309C31.2811 7.54309 36.6093 10.3844 40.0043 14.7931C36.797 9.22772 30.7883 5.48071 23.9045 5.48071C13.6491 5.48071 5.33643 13.7936 5.33643 24.0492C5.33643 28.31 6.77232 32.2353 9.18659 35.3676C7.61696 32.6412 6.71836 29.4808 6.71836 26.1115Z" fill="#FFD77F"/>
<path d="M15.8031 27.0264C15.2869 26.5267 14.4634 27.0804 14.7285 27.7467C16.2067 31.4398 19.8152 34.0465 24.036 34.0465C28.1865 34.0465 31.7458 31.5242 33.2661 27.9297C33.543 27.2751 32.7124 26.7073 32.2009 27.2024C29.2752 30.0414 23.0624 34.077 15.8031 27.0264Z" fill="#5E4939"/>
<path d="M18.8368 21.135C18.2714 19.7202 16.92 18.8052 15.3973 18.8052C13.9074 18.8052 12.5677 19.6921 11.9858 21.067C11.8756 21.3298 11.9624 21.6277 12.1993 21.7896C12.4363 21.9515 12.7437 21.9257 12.9501 21.7263C14.0599 20.6494 15.8149 19.7859 17.8702 21.7849C17.9851 21.8976 18.1353 21.9562 18.2855 21.9562C18.4004 21.9562 18.5154 21.9234 18.6186 21.853C18.8533 21.6934 18.9424 21.4002 18.8368 21.135Z" fill="#303030"/>
<path d="M36.0181 21.135C35.4527 19.7202 34.1012 18.8052 32.5785 18.8052C31.0887 18.8052 29.749 19.6921 29.1671 21.0646C29.0545 21.3274 29.1436 21.6254 29.3783 21.7873C29.6152 21.9492 29.9226 21.9234 30.1291 21.7239C31.2388 20.647 32.9915 19.7836 35.0491 21.7826C35.1641 21.8952 35.3142 21.9539 35.4644 21.9539C35.5793 21.9539 35.6943 21.921 35.7975 21.8506C36.0345 21.6934 36.1237 21.4002 36.0181 21.135Z" fill="#303030"/>
<path d="M39.5461 4.65767C39.1647 4.08938 38.615 3.60191 37.855 3.16243C36.778 2.54615 35.5468 2.09657 33.8585 1.70255C31.2642 1.13931 28.4793 0.914518 25.5822 1.03828C25.327 1.04838 25.1222 1.23276 25.111 1.46513C25.0998 1.69497 25.2877 1.89451 25.5401 1.92481C28.6924 2.286 31.0988 2.76841 33.1209 3.43521C34.4502 3.86711 35.4374 4.32427 36.1442 4.83194C36.3096 4.95065 36.4695 5.08704 36.6294 5.24364C36.7612 5.38256 36.8593 5.51389 36.9182 5.6225C37.0248 5.84477 37.0304 6.02662 36.9323 6.21858C36.7247 6.65048 35.9703 7.1632 34.9102 7.58753C33.9622 7.96386 32.8208 8.28211 31.5251 8.53216C30.3023 8.76705 29.0514 8.93375 27.8006 9.03225C26.6002 9.13833 25.3494 9.18885 23.978 9.18885C22.6598 9.1939 21.3781 9.13581 20.1525 9.02973C18.9213 8.93122 17.6705 8.762 16.4365 8.52458C15.1324 8.26948 13.9965 7.95124 13.057 7.5749C11.9997 7.14805 11.2508 6.63785 11.0545 6.2009C10.9648 6.01399 10.9732 5.82709 11.0798 5.61998C11.2088 5.37498 11.4864 5.09715 11.8734 4.81426C12.5886 4.30912 13.5814 3.85448 14.9108 3.42258C16.9413 2.75831 19.3504 2.28094 22.4915 1.91976C22.7468 1.88945 22.9319 1.69245 22.9234 1.46008C22.9122 1.23024 22.7103 1.04333 22.4523 1.03323C19.5608 0.909466 16.7758 1.13173 14.1732 1.69497C12.5269 2.07636 11.2592 2.53604 10.1767 3.14475C9.41384 3.58675 8.86134 4.06917 8.47711 4.62736C8.24433 4.97844 8.09289 5.3472 8.03399 5.71595C7.96388 6.09481 8.00314 6.49893 8.14337 6.91316C8.35932 7.54459 8.81927 8.13561 9.55687 8.72159C10.0785 9.12318 10.6787 9.47426 11.45 9.83039C12.5774 10.3482 13.8731 10.7624 15.5278 11.1387C18.108 11.7045 20.8705 11.9874 23.978 12C27.0798 11.9924 29.8423 11.7146 32.4309 11.1488C34.0884 10.775 35.3841 10.3608 36.5088 9.84807C37.2632 9.50457 37.883 9.14339 38.4103 8.74432C38.7693 8.46144 39.0245 8.22149 39.232 7.97144C39.5097 7.65067 39.7144 7.3097 39.8322 6.97377C40.1323 6.24383 40.0257 5.38003 39.5461 4.65767Z" fill="#7CC4E8"/>
<path d="M37.4902 8.74425C37.8322 8.46136 38.0754 8.22142 38.2731 7.97137C38.5377 7.6506 38.7328 7.30963 38.845 6.9737C39.0535 6.43572 39.0481 5.82196 38.8504 5.24609C37.4527 10.6284 25.5316 11.7373 21.8491 11.9519C22.4664 11.9797 23.0917 11.9974 23.7384 11.9999C26.694 11.9924 29.3262 11.7145 31.7928 11.1488C33.3721 10.7749 34.6067 10.3607 35.6783 9.848C36.3972 9.50449 36.9878 9.14331 37.4902 8.74425Z" fill="#6EBCDB"/>
</svg>
