<svg viewBox="0 0 48 48" fill="none" xmlns="http://www.w3.org/2000/svg">
<path d="M13.1859 11.0597C13.1554 10.7003 12.9419 10.3902 12.6204 10.2281C9.34028 8.60014 7.03385 5.63782 6.19387 4.43974C5.9475 4.08736 5.51813 3.92762 5.09814 4.03333C4.68049 4.1367 4.37547 4.48203 4.3262 4.91193C3.47683 12.0957 5.08171 14.9758 5.81376 15.8803C6.01555 16.1316 6.31353 16.2632 6.61386 16.2632C6.82737 16.2632 7.04323 16.1974 7.22859 16.0611L12.7729 11.9783C13.0615 11.7621 13.2164 11.4192 13.1859 11.0597Z" fill="#F94343"/>
<path d="M34.8119 11.0598C34.8424 10.7003 35.0559 10.3902 35.3774 10.2282C38.6552 8.59782 40.9616 5.63785 41.8016 4.43977C42.0479 4.08739 42.4797 3.92765 42.8973 4.03101C43.3173 4.13673 43.62 4.48205 43.6716 4.90961C44.521 12.0934 42.9161 14.9735 42.184 15.8779C41.9822 16.1293 41.6843 16.2609 41.3839 16.2609C41.1704 16.2609 40.9546 16.1951 40.7692 16.0588L35.2248 11.9759C34.9363 11.7622 34.7814 11.4192 34.8119 11.0598Z" fill="#F94343"/>
<path d="M24 43.9999C35.0457 43.9999 44 35.062 44 24.0365C44 13.0111 35.0457 4.07318 24 4.07318C12.9543 4.07318 4 13.0111 4 24.0365C4 35.062 12.9543 43.9999 24 43.9999Z" fill="#F24545"/>
<path d="M34.4623 6.99567C36.4543 10.0989 37.6087 13.7895 37.6087 17.7502C37.6087 28.7773 28.6552 37.7136 17.6087 37.7136C13.7725 37.7136 10.1897 36.6353 7.14648 34.7653C10.7012 40.3047 16.9212 43.9765 24.0001 43.9765C35.0442 43.9765 44.0001 35.0379 44.0001 24.0131C43.9977 16.8152 40.1826 10.51 34.4623 6.99567Z" fill="#E24444"/>
<path d="M6.71694 26.1414C6.71694 15.9037 15.0299 7.60638 25.2857 7.60638C31.2805 7.60638 36.609 10.4418 40.0041 14.8419C36.7991 9.28604 30.7878 5.54614 23.9037 5.54614C13.648 5.54614 5.33496 13.8458 5.33496 24.0812C5.33496 28.3356 6.77091 32.2516 9.18527 35.3808C7.61558 32.6604 6.71694 29.5055 6.71694 26.1414Z" fill="#F45C5C"/>
<path d="M15.8022 26.9778C15.286 26.4774 14.4624 27.0319 14.7276 27.6967C16.2057 31.3825 19.8144 33.9854 24.0354 33.9854C28.186 33.9854 31.7454 31.4671 33.2658 27.8799C33.5427 27.2245 32.7121 26.6583 32.2006 27.154C29.2747 29.9871 23.0617 34.0183 15.8022 26.9778Z" fill="#5E4939"/>
<path d="M16.6302 24.0342C17.444 24.0342 18.1037 22.9246 18.1037 21.5558C18.1037 20.1871 17.444 19.0775 16.6302 19.0775C15.8164 19.0775 15.1567 20.1871 15.1567 21.5558C15.1567 22.9246 15.8164 24.0342 16.6302 24.0342Z" fill="#303030"/>
<path d="M32.841 21.5558C32.841 22.9254 32.1817 24.0342 31.3675 24.0342C30.5534 24.0342 29.894 22.9231 29.894 21.5558C29.894 20.1863 30.5534 19.0775 31.3675 19.0775C32.1817 19.0775 32.841 20.1863 32.841 21.5558Z" fill="#303030"/>
<path d="M20.7858 17.8019L19.4437 19.1409L14.9692 14.6728L16.3113 13.3361L20.7858 17.8019Z" fill="#303030"/>
<path d="M28.5541 19.141L27.2144 17.802L31.6888 13.3362L33.0285 14.6729L28.5541 19.141Z" fill="#303030"/>
</svg>
