<svg viewBox="0 0 48 48" fill="none" xmlns="http://www.w3.org/2000/svg">
<path d="M44 24C44 12.9543 35.0457 4 24 4C12.9543 4 4 12.9543 4 24C4 35.0457 12.9543 44 24 44C35.0457 44 44 35.0457 44 24Z" fill="#FFCB27"/>
<path d="M34.4621 6.93115C36.4541 10.0401 37.6085 13.7379 37.6085 17.7032C37.6085 28.7474 28.6549 37.7034 17.6083 37.7034C13.7721 37.7034 10.1892 36.6217 7.146 34.7493C10.7007 40.2984 16.9208 43.9751 23.9997 43.9751C35.044 43.9751 43.9999 35.0215 43.9999 23.975C43.9976 16.767 40.1824 10.4507 34.4621 6.93115Z" fill="#F9C021"/>
<path d="M6.71695 26.11C6.71695 15.8542 15.03 7.5411 25.2859 7.5411C31.2808 7.5411 36.6093 10.3825 40.0045 14.7913C36.7994 9.22342 30.788 5.47632 23.9039 5.47632C13.648 5.47632 5.33496 13.7894 5.33496 24.0452C5.33496 28.3062 6.77092 32.2316 9.1853 35.364C7.6156 32.6399 6.71695 29.4794 6.71695 26.11Z" fill="#FFD95F"/>
<path d="M36.431 20.8847C36.3207 20.5422 36.0297 20.2982 35.6754 20.2465L28.1883 19.1578L24.8401 12.3722C24.6805 12.0508 24.3591 11.849 24.0001 11.849C23.6411 11.849 23.3196 12.0484 23.1601 12.3722L19.8095 19.1578L12.3223 20.2465C11.9657 20.2982 11.6771 20.5422 11.5645 20.8847C11.4542 21.2273 11.5433 21.5957 11.8014 21.8444L17.2191 27.126L15.9404 34.5827C15.8794 34.937 16.0225 35.2889 16.3135 35.5001C16.6044 35.7113 16.9822 35.7394 17.2989 35.5705L23.9954 32.0486L30.6918 35.5705C30.8303 35.6432 30.9804 35.6784 31.1282 35.6784C31.3206 35.6784 31.513 35.6174 31.6773 35.4977C31.9682 35.2866 32.1114 34.9346 32.0504 34.5803L30.7716 27.1237L36.1893 21.8421C36.4521 21.5933 36.5436 21.225 36.431 20.8847Z" fill="white"/>
</svg>
