<svg viewBox="0 0 48 48" fill="none" xmlns="http://www.w3.org/2000/svg">
<path d="M44 24C44 12.9543 35.0457 4 24 4C12.9543 4 4 12.9543 4 24C4 35.0457 12.9543 44 24 44C35.0457 44 44 35.0457 44 24Z" fill="#4A85D3"/>
<path d="M34.4614 6.93231C36.4534 10.0411 37.6078 13.7389 37.6078 17.7041C37.6078 28.748 28.6543 37.7038 17.6081 37.7038C13.7719 37.7038 10.1891 36.6221 7.146 34.7498C10.7006 40.2988 16.9206 43.9754 23.9993 43.9754C35.0433 43.9754 43.999 35.022 43.999 23.9757C43.9967 16.7679 40.1816 10.4517 34.4614 6.93231Z" fill="#407EC1"/>
<path d="M6.71643 26.1108C6.71643 15.8552 15.0293 7.54233 25.2849 7.54233C31.2796 7.54233 36.608 10.3837 40.0031 14.7923C36.7981 9.22461 30.7869 5.4776 23.9029 5.4776C13.6473 5.4776 5.33447 13.7905 5.33447 24.0461C5.33447 28.3069 6.7704 32.2322 9.18472 35.3645C7.61506 32.6405 6.71643 29.48 6.71643 26.1108Z" fill="#5B9ADD"/>
<path d="M35.5216 19.2738H32.333H31.0402H28.579C28.403 19.2738 28.2693 19.1072 28.3162 18.9383C28.5977 17.9364 28.6236 16.8477 28.6236 15.8224C28.6236 15.2546 28.6517 14.6117 28.5884 13.99C28.525 13.3588 28.3678 12.7511 27.9971 12.2701C27.5842 11.7375 26.9694 11.341 26.2867 11.341C24.7006 11.341 24.4495 12.8942 24.3017 14.1542C24.1304 15.623 24.0624 17.141 23.4125 18.4948C22.9573 19.4427 22.3144 20.2569 21.3032 20.6557C20.5265 20.9631 19.954 21.2024 19.1352 21.362C19.0085 21.3878 18.917 21.4957 18.917 21.6248V31.8897C18.917 32.0399 19.039 32.1596 19.1868 32.1596H22.0282C22.115 32.1596 22.1947 32.2018 22.2464 32.2722C22.8071 33.023 23.7011 33.511 24.7123 33.511H29.1304H32.3401H33.6117C34.9116 33.511 35.9721 32.4481 35.9721 31.1507C35.9721 30.8151 35.89 30.496 35.7469 30.2145C35.6905 30.1019 35.7187 29.9658 35.8172 29.8884C36.2982 29.5036 36.6103 28.6284 36.6103 27.9691V27.6993C36.6103 27.3638 36.5282 27.0447 36.385 26.7631C36.3287 26.6505 36.3569 26.5144 36.4554 26.437C36.9364 26.0522 37.2485 25.4633 37.2485 24.804V24.5341C37.2485 24.1986 37.1664 23.8795 37.0232 23.598C36.9669 23.4854 36.9951 23.3493 37.0936 23.2718C37.5746 22.887 37.8867 22.2981 37.8867 21.6388C37.882 20.3343 36.8215 19.2738 35.5216 19.2738Z" fill="white"/>
<path d="M16.8241 33.2083H12.6336C12.277 33.2083 11.9907 32.9197 11.9907 32.5655V20.8434C11.9907 20.4868 12.2793 20.2006 12.6336 20.2006H16.8241C17.1807 20.2006 17.4669 20.4892 17.4669 20.8434V32.5631C17.4693 32.9197 17.1807 33.2083 16.8241 33.2083Z" fill="white"/>
</svg>
