<svg viewBox="0 0 48 48" fill="none" xmlns="http://www.w3.org/2000/svg">
<path d="M23.0015 44.0011C34.0477 44.0011 43.0025 35.0464 43.0025 24.0001C43.0025 12.9539 34.0477 3.99915 23.0015 3.99915C11.9552 3.99915 3.00049 12.9539 3.00049 24.0001C3.00049 35.0464 11.9552 44.0011 23.0015 44.0011Z" fill="#FFD05D"/>
<path d="M33.4644 6.93066C35.4565 10.0397 36.611 13.7377 36.611 17.7032C36.611 28.748 27.6569 37.7044 16.6098 37.7044C12.7734 37.7044 9.19032 36.6227 6.14697 34.7502C9.70185 40.2996 15.9223 43.9765 23.0016 43.9765C34.0463 43.9765 43.0027 35.0224 43.0027 23.9753C43.0004 16.767 39.185 10.4503 33.4644 6.93066Z" fill="#FDC453"/>
<path d="M5.71751 26.1105C5.71751 15.8542 14.031 7.54071 24.2873 7.54071C30.2825 7.54071 35.6113 10.3823 39.0067 14.7913C35.8014 9.22312 29.7898 5.47583 22.9053 5.47583C12.6489 5.47583 4.33545 13.7893 4.33545 24.0457C4.33545 28.3068 5.77148 32.2324 8.18598 35.365C6.6162 32.6407 5.71751 29.48 5.71751 26.1105Z" fill="#FFD77F"/>
<path d="M17.1049 19.1486C17.1049 20.5213 16.4455 21.6335 15.6313 21.6335C14.8171 21.6335 14.1577 20.5213 14.1577 19.1486C14.1577 17.7759 14.8171 16.6637 15.6313 16.6637C16.4455 16.6637 17.1049 17.7759 17.1049 19.1486Z" fill="#303030"/>
<path d="M31.8427 19.1486C31.8427 20.5213 31.1833 21.6335 30.3691 21.6335C29.5549 21.6335 28.8955 20.5213 28.8955 19.1486C28.8955 17.7759 29.5549 16.6637 30.3691 16.6637C31.1833 16.6637 31.8427 17.7759 31.8427 19.1486Z" fill="#303030"/>
<path d="M34.8133 14.9555C34.5974 14.8922 34.3886 14.8335 34.1844 14.7772C33.7339 14.6505 33.3116 14.5332 32.9009 14.39C32.2885 14.1835 31.7371 13.9489 31.2162 13.6744C30.6671 13.3834 30.1697 13.0619 29.6933 12.6865C29.1724 12.2829 28.689 11.8089 28.2432 11.3584C28.2174 11.3326 28.1799 11.3256 28.147 11.3396C28.1142 11.3537 28.093 11.3866 28.0954 11.4241C28.1282 12.1069 28.3981 12.8132 28.8768 13.4655C29.3132 14.0568 29.8998 14.5543 30.5686 14.9039C31.1998 15.2348 31.9037 15.4389 32.6123 15.4905C32.6405 15.4929 32.6663 15.4952 32.6944 15.4952C33.4899 15.5375 34.2056 15.4084 34.8274 15.1174C34.8602 15.101 34.879 15.0682 34.8767 15.033C34.8743 14.9954 34.8485 14.9649 34.8133 14.9555Z" fill="#414042"/>
<path d="M11.1871 14.9555C11.403 14.8922 11.6118 14.8335 11.8159 14.7772C12.2665 14.6505 12.6888 14.5332 13.0994 14.39C13.7119 14.1835 14.2633 13.9489 14.7842 13.6744C15.3333 13.3834 15.8307 13.0619 16.307 12.6865C16.828 12.2829 17.3113 11.8089 17.7572 11.3584C17.783 11.3326 17.8205 11.3256 17.8534 11.3396C17.8862 11.3537 17.9073 11.3866 17.905 11.4241C17.8721 12.1069 17.6023 12.8132 17.1236 13.4655C16.6872 14.0568 16.1006 14.5543 15.4318 14.9039C14.8006 15.2348 14.0967 15.4389 13.3881 15.4905C13.3599 15.4929 13.3341 15.4952 13.3059 15.4952C12.5105 15.5375 11.7948 15.4084 11.173 15.1174C11.1402 15.101 11.1214 15.0682 11.1237 15.033C11.1261 14.9954 11.1519 14.9649 11.1871 14.9555Z" fill="#414042"/>
<path d="M27.2224 27.0327C26.0844 26.0472 24.5428 25.4911 22.9988 25.5192C21.4807 25.5239 19.9531 26.08 18.8034 27.0397C18.2238 27.5301 17.7381 28.1285 17.4002 28.7761C17.0435 29.4777 16.8582 30.1863 16.8511 30.8785C16.8488 31.0451 16.9544 31.1929 17.1092 31.2469C17.2664 31.3009 17.4401 31.2493 17.541 31.1179C17.9563 30.5829 18.3482 30.1558 18.74 29.8179C19.1624 29.4589 19.6105 29.1609 20.0728 28.9286C20.995 28.4687 22.011 28.2223 23.0152 28.2176C24.0453 28.2106 25.0215 28.4405 25.9225 28.9098C26.8494 29.3838 27.7011 30.1276 28.452 31.1155C28.5271 31.2141 28.642 31.268 28.7594 31.268C28.8016 31.268 28.8438 31.261 28.8861 31.2469C29.0433 31.1929 29.1489 31.0428 29.1465 30.8762C29.1278 29.4847 28.4051 28.0463 27.2224 27.0327Z" fill="#5E4939"/>
<path d="M32.1317 22.9194C26.2069 29.696 26.8639 33.5817 26.8639 33.5817C26.8639 36.4913 29.2221 38.8495 32.1317 38.8495C35.0413 38.8495 37.3995 36.4913 37.3995 33.5817C37.3995 33.5817 38.0565 29.696 32.1317 22.9194Z" fill="#7CC4E8"/>
<path d="M28.2158 37.1038C29.1802 38.1738 30.5764 38.8496 32.1321 38.8496C35.0417 38.8496 37.3998 36.4914 37.3998 33.5818C37.3998 33.5818 37.6744 31.9487 36.2548 28.9546C35.2059 35.7804 30.9166 37.024 28.2158 37.1038Z" fill="#62BBE8"/>
</svg>
