<svg viewBox="0 0 48 48" fill="none" xmlns="http://www.w3.org/2000/svg">
<path d="M44 24C44 12.9543 35.0457 4 24 4C12.9543 4 4 12.9543 4 24C4 35.0457 12.9543 44 24 44C35.0457 44 44 35.0457 44 24Z" fill="#F94343"/>
<path d="M34.4621 6.93127C36.4541 10.0402 37.6085 13.738 37.6085 17.7033C37.6085 28.7475 28.6549 37.7035 17.6083 37.7035C13.7721 37.7035 10.1892 36.6218 7.146 34.7495C10.7007 40.2986 16.9208 43.9753 23.9997 43.9753C35.044 43.9753 43.9999 35.0216 43.9999 23.9751C43.9976 16.7671 40.1824 10.4508 34.4621 6.93127Z" fill="#E53939"/>
<path d="M6.71695 26.1103C6.71695 15.8544 15.03 7.54134 25.2859 7.54134C31.2808 7.54134 36.6093 10.3828 40.0045 14.7915C36.7994 9.22367 30.788 5.47656 23.9039 5.47656C13.648 5.47656 5.33496 13.7896 5.33496 24.0455C5.33496 28.3064 6.77092 32.2319 9.1853 35.3642C7.6156 32.6401 6.71695 29.4796 6.71695 26.1103Z" fill="#F76363"/>
<path d="M35.7666 21.6709C35.7666 21.6522 35.7689 21.6334 35.7689 21.6146C35.7689 18.0975 33.2255 14.8783 29.401 14.8783C26.3625 14.8783 24.6004 17.0627 23.9997 19.1064C23.399 17.0627 21.6369 14.8783 18.5984 14.8783C14.7739 14.8783 12.2305 18.0975 12.2305 21.6146C12.2305 21.6334 12.2328 21.6522 12.2328 21.6709C12.2117 22.4359 12.2305 30.221 23.9974 36.5679V36.5702H23.9997H24.0021H24.0044H24.0067V36.5679C35.7689 30.2234 35.7877 22.4382 35.7666 21.6709Z" fill="white"/>
</svg>
