<svg viewBox="0 0 48 48" fill="none" xmlns="http://www.w3.org/2000/svg">
<path d="M24 44C35.0457 44 44 35.0457 44 24C44 12.9543 35.0457 4 24 4C12.9543 4 4 12.9543 4 24C4 35.0457 12.9543 44 24 44Z" fill="#FFD05D"/>
<path d="M34.425 6.90784C36.4241 10.012 37.5855 13.7075 37.5949 17.6728C37.6184 28.7171 28.6835 37.6918 17.6393 37.7153C13.803 37.7247 10.2178 36.65 7.16992 34.7847C10.7364 40.3267 16.9635 43.9894 24.0424 43.9753C35.0867 43.9518 44.0215 34.9771 43.9981 23.9329C43.984 16.7249 40.1548 10.4156 34.425 6.90784Z" fill="#FDC453"/>
<path d="M6.7213 26.1477C6.70019 15.8919 14.9945 7.56238 25.2503 7.53891C31.2452 7.52483 36.5808 10.3545 39.9854 14.7563C36.7662 9.19777 30.7478 5.4624 23.8637 5.47648C13.6102 5.49994 5.3135 13.8318 5.33696 24.0853C5.34635 28.3462 6.79169 32.267 9.21077 35.397C7.63403 32.6752 6.73069 29.5171 6.7213 26.1477Z" fill="#FFD77F"/>
<path d="M24.0002 34.8879C25.9945 34.8879 27.6112 32.1471 27.6112 28.7663C27.6112 25.3854 25.9945 22.6447 24.0002 22.6447C22.0059 22.6447 20.3892 25.3854 20.3892 28.7663C20.3892 32.1471 22.0059 34.8879 24.0002 34.8879Z" fill="#695342"/>
<path d="M27.0481 32.0489C24.4131 30.6012 22.2686 31.4224 21.0273 32.2436C21.6796 33.8415 22.766 34.8903 24.0002 34.8903C25.2813 34.8903 26.4075 33.757 27.0481 32.0489Z" fill="#F06669"/>
<path d="M17.8169 20.0239L12.5518 23.3744L12.6808 40.491C14.2458 41.568 15.9727 42.4267 17.8146 43.025V20.0239H17.8169Z" fill="#7CC4E8"/>
<path d="M30.189 20.0239L35.4518 23.3768L35.3228 40.4933C33.7577 41.5703 32.0308 42.4291 30.189 43.0274V20.0239Z" fill="#7CC4E8"/>
<path d="M13.2112 23.968C12.9578 23.968 12.7091 23.8554 12.5425 23.6419C12.2539 23.2735 12.322 22.7409 12.6903 22.4523L15.574 20.2045L12.5918 18.4518C12.1882 18.2148 12.0545 17.6939 12.2915 17.2903C12.5284 16.8868 13.0493 16.753 13.4529 16.99L17.5097 19.3762C17.7514 19.5194 17.9086 19.7704 17.925 20.052C17.9438 20.3312 17.8218 20.6034 17.6012 20.777L13.7321 23.7897C13.5773 23.9117 13.3942 23.968 13.2112 23.968Z" fill="#303030"/>
<path d="M34.786 23.968C34.603 23.968 34.42 23.9094 34.2651 23.7897L30.396 20.7747C30.1754 20.6011 30.0534 20.3312 30.0722 20.0497C30.091 19.7704 30.2458 19.517 30.4875 19.3739L34.5443 16.9877C34.9479 16.7507 35.4664 16.8845 35.7058 17.288C35.9427 17.6916 35.809 18.2101 35.4054 18.4495L32.4232 20.2022L35.3069 22.45C35.6753 22.7386 35.7433 23.2712 35.4547 23.6396C35.2881 23.8578 35.0394 23.968 34.786 23.968Z" fill="#303030"/>
</svg>
