<svg viewBox="0 0 48 48" fill="none" xmlns="http://www.w3.org/2000/svg">
<path d="M23.9999 43.9999C35.0456 43.9999 43.9999 35.0456 43.9999 23.9999C43.9999 12.9543 35.0456 4 23.9999 4C12.9543 4 4 12.9543 4 23.9999C4 35.0456 12.9543 43.9999 23.9999 43.9999Z" fill="#FFD05D"/>
<path d="M34.462 6.93127C36.454 10.0402 37.6084 13.738 37.6084 17.7033C37.6084 28.7475 28.6548 37.7034 17.6083 37.7034C13.772 37.7034 10.1892 36.6218 7.146 34.7494C10.7007 40.2985 16.9208 43.9752 23.9997 43.9752C35.0439 43.9752 43.9998 35.0216 43.9998 23.975C43.9975 16.7671 40.1823 10.4508 34.462 6.93127Z" fill="#FDC453"/>
<path d="M6.71695 26.1102C6.71695 15.8544 15.03 7.54133 25.2858 7.54133C31.2807 7.54133 36.6092 10.3827 40.0043 14.7915C36.7993 9.22365 30.788 5.47656 23.9038 5.47656C13.648 5.47656 5.33496 13.7896 5.33496 24.0454C5.33496 28.3064 6.77092 32.2318 9.18529 35.3641C7.61559 32.64 6.71695 29.4795 6.71695 26.1102Z" fill="#FFD77F"/>
<path d="M18.1037 19.1486C18.1037 20.5212 17.4444 21.6333 16.6302 21.6333C15.8161 21.6333 15.1567 20.5212 15.1567 19.1486C15.1567 17.776 15.8161 16.6638 16.6302 16.6638C17.4444 16.6638 18.1037 17.776 18.1037 19.1486Z" fill="#303030"/>
<path d="M32.841 19.1486C32.841 20.5212 32.1817 21.6333 31.3675 21.6333C30.5534 21.6333 29.894 20.5212 29.894 19.1486C29.894 17.776 30.5534 16.6638 31.3675 16.6638C32.1817 16.6638 32.841 17.776 32.841 19.1486Z" fill="#303030"/>
<path d="M29.5113 11.2157C29.7272 11.279 29.936 11.3377 30.1401 11.394C30.5906 11.5207 31.013 11.638 31.4236 11.7811C32.036 11.9876 32.5873 12.2222 33.1082 12.4968C33.6573 12.7877 34.1547 13.1092 34.631 13.4846C35.1519 13.8881 35.6352 14.3621 36.081 14.8126C36.1068 14.8384 36.1444 14.8454 36.1772 14.8314C36.2101 14.8173 36.2312 14.7844 36.2288 14.7469C36.196 14.0641 35.9262 13.3579 35.4475 12.7056C35.0111 12.1143 34.4245 11.6169 33.7558 11.2673C33.1247 10.9365 32.4208 10.7323 31.7122 10.6807C31.684 10.6784 31.6582 10.676 31.63 10.676C30.8346 10.6338 30.119 10.7605 29.4972 11.0538C29.4644 11.0702 29.4456 11.103 29.448 11.1382C29.4526 11.1758 29.4785 11.2063 29.5113 11.2157Z" fill="#414042"/>
<path d="M18.4863 11.2157C18.2704 11.279 18.0616 11.3377 17.8575 11.394C17.407 11.5207 16.9846 11.638 16.574 11.7811C15.9616 11.9876 15.4102 12.2222 14.8894 12.4968C14.3403 12.7877 13.8429 13.1092 13.3666 13.4846C12.8457 13.8881 12.3624 14.3621 11.9166 14.8126C11.8907 14.8384 11.8532 14.8454 11.8204 14.8314C11.7875 14.8173 11.7664 14.7844 11.7687 14.7469C11.8016 14.0641 12.0714 13.3579 12.5501 12.7056C12.9865 12.1143 13.5731 11.6169 14.2418 11.2673C14.8729 10.9365 15.5768 10.7323 16.2854 10.6807C16.3136 10.6784 16.3394 10.676 16.3675 10.676C17.1629 10.6338 17.8786 10.7605 18.5004 11.0538C18.5332 11.0702 18.552 11.103 18.5496 11.1382C18.5449 11.1758 18.5215 11.2063 18.4863 11.2157Z" fill="#414042"/>
<path d="M31.3678 32.8558C30.9407 28.44 27.7943 25.012 23.9839 25.0191C20.1711 25.0261 17.0411 28.4682 16.6328 32.8863L31.3678 32.8558Z" fill="#695342"/>
<path d="M16.6304 32.8863C16.6304 32.8863 22.8341 26.6615 31.3653 32.8535L16.6304 32.8863Z" fill="#F06669"/>
</svg>
