<svg viewBox="0 0 48 48" fill="none" xmlns="http://www.w3.org/2000/svg">
<path d="M24.001 44.002C35.0472 44.002 44.002 35.0472 44.002 24.001C44.002 12.9547 35.0472 4 24.001 4C12.9547 4 4 12.9547 4 24.001C4.00001 35.0472 12.9548 44.002 24.001 44.002Z" fill="#FFD05D"/>
<path d="M34.4639 6.93152C36.456 10.0406 37.6105 13.7386 37.6105 17.7041C37.6105 28.7488 28.6564 37.7053 17.6093 37.7053C13.7729 37.7053 10.1898 36.6236 7.14648 34.7511C10.7014 40.3004 16.9218 43.9773 24.0011 43.9773C35.0458 43.9773 44.0022 35.0233 44.0022 23.9762C43.9999 16.7679 40.1846 10.4512 34.4639 6.93152Z" fill="#FDC453"/>
<path d="M6.71653 26.1114C6.71653 15.855 15.03 7.54156 25.2864 7.54156C31.2816 7.54156 36.6104 10.3831 40.0057 14.7921C36.8004 9.22397 30.7888 5.47668 23.9043 5.47668C13.648 5.47668 5.33447 13.7902 5.33447 24.0465C5.33447 28.3077 6.7705 32.2333 9.185 35.3658C7.61523 32.6416 6.71653 29.4809 6.71653 26.1114Z" fill="#FFD77F"/>
<path d="M15.8022 26.0621C15.286 25.5623 14.4624 26.1161 14.7276 26.7824C16.2058 30.4758 19.8147 33.0827 24.036 33.0827C28.1868 33.0827 31.7464 30.5602 33.2669 26.9655C33.5438 26.3108 32.7131 25.743 32.2016 26.2381C29.2756 29.0773 23.0622 33.1155 15.8022 26.0621Z" fill="#5E4939"/>
<path d="M29.1632 19.6257C29.7287 21.0406 31.0803 21.9557 32.6031 21.9557C34.0931 21.9557 35.4329 21.0688 36.0148 19.6937C36.1251 19.4309 36.0383 19.1329 35.8013 18.971C35.5643 18.8091 35.2569 18.8349 35.0505 19.0344C33.9406 20.1114 32.1854 20.9749 30.1299 18.9757C30.015 18.8631 29.8648 18.8044 29.7146 18.8044C29.5996 18.8044 29.4847 18.8373 29.3814 18.9077C29.1491 19.0649 29.0576 19.3606 29.1632 19.6257Z" fill="#303030"/>
<path d="M11.98 19.6257C12.5455 21.0406 13.897 21.9557 15.4199 21.9557C16.9099 21.9557 18.2497 21.0687 18.8316 19.6961C18.9442 19.4333 18.8551 19.1353 18.6204 18.9734C18.3834 18.8115 18.076 18.8373 17.8696 19.0367C16.7597 20.1137 15.0069 20.9772 12.949 18.9781C12.8341 18.8654 12.6839 18.8068 12.5337 18.8068C12.4187 18.8068 12.3038 18.8396 12.2005 18.91C11.9635 19.0649 11.8744 19.3605 11.98 19.6257Z" fill="#303030"/>
<path d="M9.29524 30.2763C11.2236 30.2763 12.7868 28.7131 12.7868 26.7847C12.7868 24.8564 11.2236 23.2932 9.29524 23.2932C7.36692 23.2932 5.80371 24.8564 5.80371 26.7847C5.80371 28.7131 7.36692 30.2763 9.29524 30.2763Z" fill="#FF838C"/>
<path d="M38.7034 30.2763C40.6317 30.2763 42.195 28.7131 42.195 26.7847C42.195 24.8564 40.6317 23.2932 38.7034 23.2932C36.7751 23.2932 35.2119 24.8564 35.2119 26.7847C35.2119 28.7131 36.7751 30.2763 38.7034 30.2763Z" fill="#FF838C"/>
</svg>
