<svg viewBox="0 0 48 48" fill="none" xmlns="http://www.w3.org/2000/svg">
<path d="M23.9999 43.9999C35.0456 43.9999 43.9999 35.0456 43.9999 23.9999C43.9999 12.9543 35.0456 4 23.9999 4C12.9543 4 4 12.9543 4 23.9999C4 35.0456 12.9543 43.9999 23.9999 43.9999Z" fill="#FFD05D"/>
<path d="M34.462 6.93127C36.454 10.0402 37.6084 13.738 37.6084 17.7033C37.6084 28.7475 28.6548 37.7034 17.6083 37.7034C13.772 37.7034 10.1892 36.6218 7.146 34.7494C10.7007 40.2985 16.9208 43.9752 23.9997 43.9752C35.0439 43.9752 43.9998 35.0216 43.9998 23.975C43.9975 16.7671 40.1823 10.4508 34.462 6.93127Z" fill="#FDC453"/>
<path d="M6.71695 26.1102C6.71695 15.8544 15.03 7.54133 25.2858 7.54133C31.2807 7.54133 36.6092 10.3827 40.0043 14.7915C36.7993 9.22365 30.788 5.47656 23.9038 5.47656C13.648 5.47656 5.33496 13.7896 5.33496 24.0454C5.33496 28.3064 6.77092 32.2318 9.18529 35.3641C7.61559 32.64 6.71695 29.4795 6.71695 26.1102Z" fill="#FFD77F"/>
<path d="M18.1037 19.1486C18.1037 20.5212 17.4444 21.6333 16.6302 21.6333C15.8161 21.6333 15.1567 20.5212 15.1567 19.1486C15.1567 17.776 15.8161 16.6638 16.6302 16.6638C17.4444 16.6638 18.1037 17.776 18.1037 19.1486Z" fill="#303030"/>
<path d="M32.841 19.1486C32.841 20.5212 32.1817 21.6333 31.3675 21.6333C30.5534 21.6333 29.894 20.5212 29.894 19.1486C29.894 17.776 30.5534 16.6638 31.3675 16.6638C32.1817 16.6638 32.841 17.776 32.841 19.1486Z" fill="#303030"/>
<path d="M24.0002 35.7325C25.9945 35.7325 27.6112 32.9918 27.6112 29.611C27.6112 26.2301 25.9945 23.4894 24.0002 23.4894C22.0059 23.4894 20.3892 26.2301 20.3892 29.611C20.3892 32.9918 22.0059 35.7325 24.0002 35.7325Z" fill="#695342"/>
<path d="M27.048 32.891C24.4131 31.4433 22.2686 32.2646 21.0273 33.0858C21.6796 34.6836 22.766 35.7324 24.0001 35.7324C25.2812 35.7324 26.4075 34.5992 27.048 32.891Z" fill="#F06669"/>
</svg>
