<svg viewBox="0 0 48 48" fill="none" xmlns="http://www.w3.org/2000/svg">
<path d="M44 24C44 12.9543 35.0457 4 24 4C12.9543 4 4 12.9543 4 24C4 35.0457 12.9543 44 24 44C35.0457 44 44 35.0457 44 24Z" fill="#FFD05D"/>
<path d="M34.4614 6.93231C36.4534 10.0411 37.6078 13.7389 37.6078 17.7041C37.6078 28.748 28.6543 37.7038 17.6081 37.7038C13.7719 37.7038 10.1891 36.6221 7.146 34.7498C10.7006 40.2988 16.9206 43.9754 23.9993 43.9754C35.0433 43.9754 43.999 35.022 43.999 23.9757C43.9967 16.7679 40.1816 10.4517 34.4614 6.93231Z" fill="#FDC453"/>
<path d="M6.71643 26.1108C6.71643 15.8552 15.0293 7.54233 25.2849 7.54233C31.2796 7.54233 36.608 10.3837 40.0031 14.7923C36.7981 9.22461 30.7869 5.4776 23.9029 5.4776C13.6473 5.4776 5.33447 13.7905 5.33447 24.0461C5.33447 28.3069 6.7704 32.2322 9.18472 35.3645C7.61506 32.6405 6.71643 29.48 6.71643 26.1108Z" fill="#FFD77F"/>
<path d="M32.4972 33.5885C32.0163 29.3206 28.3936 26.0029 23.9967 26.0029C19.5997 26.0029 15.9794 29.3206 15.4961 33.5885H32.4972Z" fill="#695342"/>
<path d="M15.4985 33.5884C15.4985 33.5884 22.6711 28.2999 32.4997 33.5884H15.4985Z" fill="#F06669"/>
<path d="M13.2107 24.3229C12.9573 24.3229 12.7086 24.2103 12.542 23.9968C12.2534 23.6284 12.3215 23.0958 12.6898 22.8072L15.5734 20.5595L12.5913 18.8068C12.1877 18.5698 12.054 18.0489 12.291 17.6454C12.5279 17.2418 13.0488 17.1081 13.4524 17.345L17.5091 19.7312C17.7508 19.8743 17.908 20.1254 17.9244 20.4069C17.9432 20.6862 17.8212 20.9583 17.6006 21.1319L13.7316 24.1446C13.5767 24.2642 13.3937 24.3229 13.2107 24.3229Z" fill="#303030"/>
<path d="M34.785 24.3229C34.602 24.3229 34.419 24.2643 34.2641 24.1446L30.3975 21.1296C30.1769 20.956 30.0549 20.6862 30.0737 20.4046C30.0924 20.1254 30.2473 19.872 30.489 19.7289L34.5457 17.3427C34.9492 17.1058 35.4678 17.2395 35.7071 17.6431C35.9441 18.0466 35.8103 18.5651 35.4068 18.8045L32.4246 20.5571L35.3082 22.8049C35.6766 23.0935 35.7446 23.6261 35.456 23.9944C35.2871 24.2103 35.0384 24.3229 34.785 24.3229Z" fill="#303030"/>
</svg>
