<svg viewBox="0 0 48 48" fill="none" xmlns="http://www.w3.org/2000/svg">
<path d="M23.9999 43.9999C35.0456 43.9999 43.9999 35.0456 43.9999 23.9999C43.9999 12.9543 35.0456 4 23.9999 4C12.9543 4 4 12.9543 4 23.9999C4 35.0456 12.9543 43.9999 23.9999 43.9999Z" fill="#FFD05D"/>
<path d="M34.462 6.93127C36.454 10.0402 37.6084 13.738 37.6084 17.7033C37.6084 28.7475 28.6548 37.7034 17.6083 37.7034C13.772 37.7034 10.1892 36.6218 7.146 34.7494C10.7007 40.2985 16.9208 43.9752 23.9997 43.9752C35.0439 43.9752 43.9998 35.0216 43.9998 23.975C43.9975 16.7671 40.1823 10.4508 34.462 6.93127Z" fill="#FDC453"/>
<path d="M6.71695 26.1102C6.71695 15.8544 15.03 7.54133 25.2858 7.54133C31.2807 7.54133 36.6092 10.3827 40.0043 14.7915C36.7993 9.22365 30.788 5.47656 23.9038 5.47656C13.648 5.47656 5.33496 13.7896 5.33496 24.0454C5.33496 28.3064 6.77092 32.2318 9.18529 35.3641C7.61559 32.64 6.71695 29.4795 6.71695 26.1102Z" fill="#FFD77F"/>
<path d="M15.8017 27.0252C15.2855 26.5254 14.4619 27.0792 14.7271 27.7455C16.2053 31.4387 19.8139 34.0454 24.035 34.0454C28.1856 34.0454 31.745 31.5231 33.2654 27.9285C33.5423 27.2739 32.7117 26.7061 32.2002 27.2012C29.2743 30.0402 23.0612 34.0783 15.8017 27.0252Z" fill="#5E4939"/>
<path d="M18.8357 21.1336C18.2702 19.7187 16.9187 18.8036 15.3959 18.8036C13.906 18.8036 12.5663 19.6906 11.9844 21.0655C11.8741 21.3283 11.9609 21.6263 12.1979 21.7882C12.4349 21.9501 12.7422 21.9243 12.9487 21.7248C14.0585 20.6479 15.8136 19.7844 17.869 21.7835C17.9839 21.8961 18.1341 21.9548 18.2843 21.9548C18.3992 21.9548 18.5142 21.9219 18.6174 21.8515C18.8521 21.692 18.9412 21.3987 18.8357 21.1336Z" fill="#303030"/>
<path d="M36.0179 21.1335C35.4524 19.7187 34.1009 18.8036 32.5782 18.8036C31.0883 18.8036 29.7485 19.6905 29.1666 21.0631C29.054 21.3259 29.1431 21.6239 29.3778 21.7858C29.6148 21.9477 29.9221 21.9219 30.1286 21.7224C31.2384 20.6455 32.9911 19.782 35.0489 21.7811C35.1638 21.8937 35.314 21.9524 35.4642 21.9524C35.5791 21.9524 35.6941 21.9195 35.7973 21.8491C36.0343 21.6919 36.1235 21.3986 36.0179 21.1335Z" fill="#303030"/>
<path d="M9.29554 30.4297C11.2238 30.4297 12.7869 28.8666 12.7869 26.9384C12.7869 25.0101 11.2238 23.447 9.29554 23.447C7.36733 23.447 5.8042 25.0101 5.8042 26.9384C5.8042 28.8666 7.36733 30.4297 9.29554 30.4297Z" fill="#FF838C"/>
<path d="M38.7018 30.4297C40.63 30.4297 42.1931 28.8666 42.1931 26.9384C42.1931 25.0101 40.63 23.447 38.7018 23.447C36.7736 23.447 35.2104 25.0101 35.2104 26.9384C35.2104 28.8666 36.7736 30.4297 38.7018 30.4297Z" fill="#FF838C"/>
</svg>
