<svg viewBox="0 0 24 24" fill="none" xmlns="http://www.w3.org/2000/svg">
<path opacity="0.1" d="M17.4999 2.44366C14.9734 0.984974 11.9709 0.589689 9.15291 1.34476C6.33494 2.09984 3.93232 3.94342 2.47363 6.46994C1.01494 8.99647 0.61966 11.999 1.37473 14.817C2.12981 17.6349 3.97339 20.0375 6.49991 21.4962C9.02644 22.9549 12.0289 23.3502 14.8469 22.5951C17.6649 21.8401 20.0675 19.9965 21.5262 17.4699C22.9849 14.9434 23.3802 11.9409 22.6251 9.12293C21.87 6.30496 20.0264 3.90236 17.4999 2.44366ZM7.49991 19.7642C5.43275 18.5707 3.92437 16.6049 3.30659 14.2993C2.6888 11.9937 3.01221 9.5371 4.20568 7.46994C5.39916 5.40279 7.36493 3.8944 9.67055 3.27662C11.9762 2.65883 14.4328 2.98224 16.4999 4.17572C18.5671 5.36919 20.0754 7.33495 20.6932 9.64057C21.311 11.9462 20.9876 14.4028 19.7941 16.4699C18.6007 18.5371 16.6349 20.0455 14.3293 20.6633C12.0237 21.2811 9.56707 20.9576 7.49991 19.7642Z" fill="currentColor"/>
<path d="M16.5 4.17572C18.5672 5.36919 20.0755 7.33495 20.6933 9.64057C21.3111 11.9462 20.9877 14.4028 19.7942 16.4699L21.5263 17.4699C22.985 14.9434 23.3803 11.9409 22.6252 9.12293C21.8701 6.30496 20.0265 3.90236 17.5 2.44366L16.5 4.17572Z" fill="currentColor"/>
</svg>
