<svg viewBox="0 0 24 24" fill="none" xmlns="http://www.w3.org/2000/svg">
<path d="M12 22C17.5228 22 22 17.5228 22 12C22 6.47715 17.5228 2 12 2C6.47715 2 2 6.47715 2 12C2 17.5228 6.47715 22 12 22Z" fill="#FFDF57"/>
<path fill-rule="evenodd" clip-rule="evenodd" d="M18.8632 11.9989C18.8632 15.7899 15.79 18.8631 11.999 18.8631C8.20798 18.8631 5.13477 15.7899 5.13477 11.9989C5.13477 8.20786 8.20798 5.13464 11.999 5.13464C15.79 5.13464 18.8632 8.20786 18.8632 11.9989ZM12.6999 15.1557C13.3321 15.0292 13.9126 14.7183 14.3682 14.2622L13.2251 13.1214C13.0744 13.2786 12.8936 13.4039 12.6935 13.4901C12.4935 13.5762 12.2781 13.6213 12.0603 13.6227C11.6261 13.6113 11.2136 13.4309 10.9105 13.1197C10.6074 12.8086 10.4378 12.3915 10.4378 11.9572C10.4378 11.5229 10.6074 11.1057 10.9105 10.7946C11.2136 10.4835 11.6261 10.303 12.0603 10.2917C12.2754 10.2921 12.4883 10.3356 12.6864 10.4195C12.8844 10.5035 13.0637 10.6261 13.2137 10.7804L14.3556 9.63844C13.8976 9.1848 13.3153 8.87707 12.6825 8.75403C12.0497 8.63099 11.3946 8.69821 10.8 8.94717C10.2053 9.19612 9.69772 9.61562 9.3413 10.1528C8.98489 10.69 8.79562 11.3208 8.79738 11.9655C8.79913 12.6101 8.9918 13.2398 9.35113 13.7751C9.71046 14.3103 10.2203 14.7271 10.8163 14.9728C11.4123 15.2186 12.0678 15.2822 12.6999 15.1557Z" fill="#F9AA0D"/>
</svg>
