<svg viewBox="0 0 24 24" fill="none" xmlns="http://www.w3.org/2000/svg">
<path d="M12 24C18.6274 24 24 18.6274 24 12C24 5.37258 18.6274 0 12 0C5.37258 0 0 5.37258 0 12C0 18.6274 5.37258 24 12 24Z" fill="white"/>
<path d="M2.48081 4.69409C1.5382 5.92048 0.827434 7.334 0.413574 8.86958H6.65629L2.48081 4.69409Z" fill="#0052B4"/>
<path d="M23.5869 8.86954C23.173 7.334 22.4622 5.92048 21.5196 4.69409L17.3442 8.86954H23.5869Z" fill="#0052B4"/>
<path d="M0.413574 15.1305C0.82748 16.666 1.53825 18.0795 2.48081 19.3059L6.65615 15.1305H0.413574Z" fill="#0052B4"/>
<path d="M19.3063 2.48061C18.0799 1.538 16.6664 0.827236 15.1309 0.41333V6.656L19.3063 2.48061Z" fill="#0052B4"/>
<path d="M4.69434 21.5192C5.92073 22.4618 7.33424 23.1726 8.86977 23.5865V17.3439L4.69434 21.5192Z" fill="#0052B4"/>
<path d="M8.86973 0.41333C7.33419 0.827236 5.92068 1.538 4.69434 2.48056L8.86973 6.65595V0.41333Z" fill="#0052B4"/>
<path d="M15.1309 23.5865C16.6664 23.1726 18.0799 22.4618 19.3063 21.5193L15.1309 17.3439V23.5865Z" fill="#0052B4"/>
<path d="M17.3442 15.1305L21.5196 19.3059C22.4622 18.0796 23.173 16.666 23.5869 15.1305H17.3442Z" fill="#0052B4"/>
<path d="M23.8984 10.4348H13.5653H13.5653V0.101578C13.0529 0.034875 12.5305 0 12 0C11.4694 0 10.9471 0.034875 10.4348 0.101578V10.4347V10.4347H0.101578C0.034875 10.9471 0 11.4695 0 12C0 12.5306 0.034875 13.0529 0.101578 13.5652H10.4347H10.4347V23.8984C10.9471 23.9651 11.4694 24 12 24C12.5305 24 13.0529 23.9652 13.5652 23.8984V13.5653V13.5653H23.8984C23.9651 13.0529 24 12.5306 24 12C24 11.4695 23.9651 10.9471 23.8984 10.4348Z" fill="#D80027"/>
<path d="M15.1304 15.1305L20.4852 20.4854C20.7315 20.2392 20.9664 19.9818 21.1906 19.715L16.6061 15.1305H15.1304V15.1305Z" fill="#D80027"/>
<path d="M8.8695 15.1305H8.86941L3.51465 20.4853C3.76084 20.7315 4.01823 20.9665 4.28504 21.1906L8.8695 16.6061V15.1305Z" fill="#D80027"/>
<path d="M8.86927 8.86961V8.86951L3.51446 3.51465C3.26818 3.76084 3.03324 4.01823 2.80908 4.28504L7.3936 8.86956H8.86927V8.86961Z" fill="#D80027"/>
<path d="M15.1304 8.86968L20.4852 3.51478C20.239 3.2685 19.9817 3.03356 19.7148 2.80945L15.1304 7.39396V8.86968Z" fill="#D80027"/>
</svg>
