<svg viewBox="0 0 24 24" fill="none" xmlns="http://www.w3.org/2000/svg">
<path d="M12 24.0002C18.6274 24.0002 24 18.6276 24 12.0002C24 5.37274 18.6274 0.000152588 12 0.000152588C5.37258 0.000152588 0 5.37274 0 12.0002C0 18.6276 5.37258 24.0002 12 24.0002Z" fill="white"/>
<path d="M11.9996 0.599976C18.2809 0.599976 23.3996 5.71873 23.3996 12C23.3996 18.2812 18.2809 23.4 11.9996 23.4C5.71836 23.4 0.599609 18.2812 0.599609 12C0.599609 5.71873 5.71836 0.599976 11.9996 0.599976ZM11.9996 0.0374756C5.39961 0.0374756 0.0371094 5.39998 0.0371094 12C0.0371094 18.6 5.38086 23.9625 11.9996 23.9625C18.6184 23.9625 23.9621 18.6187 23.9621 12C23.9621 5.38123 18.5996 0.0374756 11.9996 0.0374756Z" fill="#D2D8E2"/>
<path d="M0 12.0001C0 5.37263 5.37255 0 12 0C18.6275 0 24 5.37255 24 12.0001" fill="#D80027"/>
<path fill-rule="evenodd" clip-rule="evenodd" d="M10.174 2.69362C8.53316 3.05204 7.30443 4.51259 7.30443 6.26092C7.30443 8.00932 8.53323 9.46979 10.174 9.82799C9.92178 9.88304 9.66018 9.91289 9.39138 9.91289C7.37433 9.91289 5.73926 8.27782 5.73926 6.26077C5.73926 4.24372 7.37433 2.60864 9.39138 2.60864C9.66018 2.60864 9.92186 2.63857 10.174 2.69362ZM12.2591 3.66683L12 2.86966L11.741 3.66683H10.9028L11.581 4.15943L11.3219 4.95661L12 4.46393L12.6782 4.95661L12.419 4.15943L13.0972 3.66683H12.2591ZM9.96688 4.43481L10.2258 5.23199H11.064L10.3859 5.72466L10.645 6.52176L9.96688 6.02909L9.28865 6.52176L9.5477 5.72466L8.86963 5.23199H9.70775L9.96688 4.43481ZM14.2923 5.23199L14.0331 4.43481L13.7742 5.23199H12.936L13.6141 5.72466L13.3551 6.52176L14.0331 6.02909L14.7113 6.52176L14.4523 5.72466L15.1304 5.23199H14.2923ZM13.2504 6.78262L13.5095 7.5798H14.3477L13.6695 8.07247L13.9285 8.86965L13.2504 8.37697L12.5723 8.86965L12.8314 8.07247L12.1533 7.5798H12.9914L13.2504 6.78262ZM11.0086 7.5798L10.7496 6.78262L10.4905 7.5798H9.65234L10.3305 8.07247L10.0715 8.86965L10.7496 8.37697L11.4277 8.86965L11.1686 8.07247L11.8467 7.5798H11.0086Z" fill="#F0F0F0"/>
</svg>
