<?xml version="1.0" encoding="utf-8"?>
<!-- Generator: Adobe Illustrator 25.0.1, SVG Export Plug-In . SVG Version: 6.00 Build 0)  -->
<svg version="1.1" id="레이어_1" xmlns="http://www.w3.org/2000/svg" xmlns:xlink="http://www.w3.org/1999/xlink" x="0px"
	 y="0px" viewBox="0 0 500 500" style="enable-background:new 0 0 500 500;" xml:space="preserve">
<style type="text/css">
	.st0{fill:#C7C4C2;}
	.st1{fill:#535252;}
	.st2{fill:#FFFFFF;}
	.st3{fill:none;}
	.st4{fill:#3D3D3D;}
</style>
<g>
	<path class="st4" d="M125.71,210.57c5.18,0,9.39-4.21,9.39-9.39v-52.96l76.95,77.08c1.78,1.77,4.15,2.74,6.67,2.74
		c0.01,0,0.02,0,0.04,0c2.54-0.01,4.91-1,6.69-2.8c1.78-1.8,2.76-4.18,2.75-6.71c-0.01-2.53-1-4.91-2.8-6.69l-77.22-76.96h53.21
		c5.18,0,9.39-4.21,9.39-9.39s-4.21-9.39-9.39-9.39h-79.37c-3.14,0-5.7,2.56-5.7,5.7v79.37
		C116.32,206.36,120.53,210.57,125.71,210.57z"/>
	<g>
		<path class="st4" d="M373.39,290.33c-5.18,0-9.39,4.21-9.39,9.39v52.96l-76.95-77.08c-3.7-3.68-9.72-3.65-13.4,0.06
			c-1.78,1.8-2.76,4.18-2.75,6.71c0.01,2.53,1,4.91,2.8,6.69l77.22,76.96h-53.21c-5.18,0-9.39,4.21-9.39,9.39s4.21,9.39,9.39,9.39
			l79.37,0c3.14,0,5.7-2.56,5.7-5.7v-79.37C382.78,294.54,378.57,290.33,373.39,290.33z"/>
		<path class="st4" d="M218.78,272.92h-0.04c-2.53,0.01-4.91,1-6.69,2.8l-76.96,77.22v-53.21c0-5.18-4.21-9.39-9.39-9.39
			s-9.39,4.21-9.39,9.39v79.37c0,3.14,2.56,5.7,5.7,5.7h79.37c5.18,0,9.39-4.21,9.39-9.39s-4.21-9.39-9.39-9.39h-52.96l77.08-76.95
			c3.68-3.7,3.65-9.72-0.06-13.4C223.67,273.89,221.29,272.92,218.78,272.92z"/>
	</g>
	<path class="st4" d="M377.08,116.11h-79.37c-5.18,0-9.39,4.21-9.39,9.39s4.21,9.39,9.39,9.39h52.96l-77.08,76.95
		c-1.78,1.79-2.75,4.17-2.74,6.71c0.01,2.53,1,4.91,2.8,6.69c1.79,1.77,4.16,2.75,6.68,2.75h0.04c2.53-0.01,4.91-1,6.69-2.8
		l76.96-77.22v53.21c0,5.18,4.21,9.39,9.39,9.39s9.39-4.21,9.39-9.39v-79.37C382.78,118.67,380.22,116.11,377.08,116.11z"/>
	<path class="st4" d="M377.08,115.21h-79.37c-5.67,0-10.29,4.61-10.29,10.29s4.61,10.29,10.29,10.29h50.79l-75.54,75.41
		c-1.95,1.96-3.02,4.57-3.01,7.34s1.1,5.38,3.07,7.33c1.96,1.94,4.55,3.01,7.31,3.01c0.01,0,0.02,0,0.04,0
		c2.77-0.01,5.38-1.1,7.33-3.07l75.42-75.67v51.04c0,5.67,4.61,10.29,10.29,10.29s10.29-4.61,10.29-10.29v-79.37
		C383.68,118.17,380.72,115.21,377.08,115.21z M382.78,201.18c0,5.18-4.21,9.39-9.39,9.39s-9.39-4.21-9.39-9.39v-53.21l-76.96,77.22
		c-1.79,1.8-4.16,2.79-6.69,2.8h-0.04c-2.52,0-4.89-0.98-6.68-2.75c-1.8-1.78-2.79-4.16-2.8-6.69c-0.01-2.53,0.97-4.91,2.74-6.71
		l77.08-76.95h-52.96c-5.18,0-9.39-4.21-9.39-9.39s4.21-9.39,9.39-9.39h79.37c3.14,0,5.7,2.56,5.7,5.7V201.18z"/>
</g>
</svg>
