<?xml version="1.0" encoding="utf-8"?>
<!-- Generator: Adobe Illustrator 25.0.1, SVG Export Plug-In . SVG Version: 6.00 Build 0)  -->
<svg version="1.1" id="레이어_1" xmlns="http://www.w3.org/2000/svg" xmlns:xlink="http://www.w3.org/1999/xlink" x="0px"
	 y="0px" viewBox="0 0 500 500" style="enable-background:new 0 0 500 500;" xml:space="preserve">
<style type="text/css">
	.st0{fill:#C7C4C2;}
	.st1{fill:#535252;}
	.st2{fill:#FFFFFF;}
	.st3{fill:none;}
	.st4{fill:#3D3D3D;}
</style>
<g>
	<g>
		<path class="st4" d="M250,395.87c-38.4,0-74.53-14.98-101.72-42.17c-27.2-27.19-42.17-63.32-42.17-101.72
			c0-37.79,14.54-73.48,40.93-100.51c26.35-26.98,61.59-42.37,99.24-43.33c2.86-0.08,5.69,1.03,7.74,3.04
			c2.08,2.03,3.22,4.74,3.22,7.64v65.41c0,4-3.24,7.25-7.25,7.25s-7.25-3.24-7.25-7.25v-61.44
			c-68.81,3.74-122.16,59.77-122.16,129.2c0,34.53,13.47,67.02,37.93,91.48c24.46,24.46,56.95,37.93,91.48,37.93
			c71.35,0,129.4-58.05,129.4-129.4c0-21.26-5.27-42.34-15.24-60.97c-1.89-3.53-0.56-7.92,2.97-9.81c3.53-1.89,7.92-0.56,9.81,2.97
			c11.09,20.72,16.95,44.17,16.95,67.8C393.89,331.32,329.34,395.87,250,395.87z"/>
	</g>
	<path class="st4" d="M355.52,170.68L251.36,224.8c-13.07,6.79-17.17,21.22-9.11,32.07l0.91,1.23c7.27,9.79,20.91,10.1,30.31,0.69
		l84.6-84.63C359.83,172.4,357.73,169.53,355.52,170.68z"/>
</g>
</svg>
