<?xml version="1.0" encoding="utf-8"?>
<!-- Generator: Adobe Illustrator 25.0.1, SVG Export Plug-In . SVG Version: 6.00 Build 0)  -->
<svg version="1.1" id="레이어_1" xmlns="http://www.w3.org/2000/svg" xmlns:xlink="http://www.w3.org/1999/xlink" x="0px"
	 y="0px" viewBox="0 0 500 500" style="enable-background:new 0 0 500 500;" xml:space="preserve">
<style type="text/css">
	.st0{fill:#C7C4C2;}
	.st1{fill:#535252;}
	.st2{fill:#FFFFFF;}
	.st3{fill:none;}
	.st4{fill:#3D3D3D;}
</style>
<g>
	<path class="st4" d="M294.33,259.68c-1.06-2.1-2.58-4.09-4.5-5.92c-2.05-1.96-4.15-3.67-6.25-5.08c-2.08-1.41-4.79-2.83-8.07-4.24
		c-3.38-1.45-6.61-2.68-9.62-3.67c-3.05-1.01-6.89-2.22-11.43-3.6c-4.63-1.38-8.24-2.74-11.03-4.16c-3.02-1.53-5.14-3.09-6.49-4.76
		c-1.49-1.86-2.24-3.99-2.24-6.33c0-3.56,1.53-6.49,4.43-8.47c2.62-1.79,6.23-2.65,11.05-2.65c9.13,0,18.94,3.35,29.19,9.97
		l15.15-19.08c-3.83-2.92-8.21-5.56-13.04-7.87c-5.85-2.8-11.95-4.96-18.12-6.43l-2.31-0.55v-23.74H242.1v22.85l-2.54,0.39
		c-10.8,1.67-19.33,5.94-25.36,12.7c-6.09,6.83-9.05,15.05-9.05,25.15c0,3.43,0.38,6.62,1.14,9.49c0.75,2.87,1.76,5.41,2.98,7.55
		c1.2,2.1,2.82,4.11,4.83,5.97c2.1,1.95,4.24,3.62,6.36,4.97c2.13,1.36,4.78,2.74,7.86,4.09c3.15,1.38,6.11,2.55,8.79,3.48
		c2.71,0.94,5.97,1.97,9.69,3.08c7.95,2.37,13.28,4.64,16.27,6.93c3.39,2.6,5.19,6.06,5.19,10.01c0,3.64-1.56,6.74-4.52,8.94
		c-2.73,2.04-6.39,3.07-10.86,3.07c-5.78,0-12.01-1.34-18.52-3.99c-5.58-2.27-10.88-5.54-15.82-9.74l-15.58,19.09
		c10.62,9.77,22.93,15.89,36.64,18.2l2.5,0.42v21.13h18.96v-21.12l2.49-0.43c10.77-1.86,19.33-6.18,25.44-12.84
		c6.13-6.69,9.12-14.97,9.12-25.32c0-3.58-0.36-6.88-1.06-9.8C296.36,264.46,295.44,261.87,294.33,259.68z"/>
</g>
<path class="st4" d="M250,398.51c-81.89,0-148.51-66.62-148.51-148.51S168.11,101.49,250,101.49S398.51,168.11,398.51,250
	S331.89,398.51,250,398.51z M250,115.98c-73.9,0-134.02,60.12-134.02,134.02S176.1,384.02,250,384.02
	c73.9,0,134.02-60.12,134.02-134.02S323.9,115.98,250,115.98z"/>
</svg>
