<?xml version="1.0" encoding="utf-8"?>
<!-- Generator: Adobe Illustrator 25.0.1, SVG Export Plug-In . SVG Version: 6.00 Build 0)  -->
<svg version="1.1" id="레이어_1" xmlns="http://www.w3.org/2000/svg" xmlns:xlink="http://www.w3.org/1999/xlink" x="0px"
	 y="0px" viewBox="0 0 500 500" style="enable-background:new 0 0 500 500;" xml:space="preserve">
<style type="text/css">
	.st0{fill:#C7C4C2;}
	.st1{fill:#535252;}
	.st2{fill:#FFFFFF;}
	.st3{fill:none;}
	.st4{fill:#3D3D3D;}
</style>
<path class="st4" d="M368.91,396.51H281.3v-77.6c0-3.16-2.57-5.72-5.72-5.72h-51.15c-3.16,0-5.72,2.57-5.72,5.72v77.6h-89.09v-146.2
	H87.36c-5.36,0-9.94-3.28-11.68-8.35s-0.12-10.47,4.11-13.75l153.77-119.31c9.45-7.33,22.59-7.24,31.94,0.22l154.84,123.59l0,0
	c4.16,3.32,5.71,8.71,3.95,13.73c-1.76,5.02-6.33,8.27-11.65,8.27h-43.73V396.51z M295.79,382.02h58.63v-141.8h52.1L256.46,120.45
	c-4.11-3.28-9.87-3.32-14.02-0.1L93.62,235.83h50.49v146.2h60.11v-63.11c0-11.15,9.07-20.21,20.21-20.21h51.15
	c11.15,0,20.21,9.07,20.21,20.21V382.02z M411.3,244.04L411.3,244.04L411.3,244.04z"/>
</svg>
