<svg xmlns="http://www.w3.org/2000/svg" width="266.904" height="69.67" viewBox="0 0 266.904 69.67">
  <g id="Group_273" data-name="Group 273" transform="translate(-1994.937 -102.009)">
    <path id="Path_218" data-name="Path 218" d="M2040,106.7a4.688,4.688,0,1,0-4.688,4.688A4.687,4.687,0,0,0,2040,106.7" fill="#010101"/>
    <path id="Path_219" data-name="Path 219" d="M2175.4,171.679a26.738,26.738,0,1,1,26.74-26.736,26.768,26.768,0,0,1-26.74,26.736m0-45.838a19.1,19.1,0,1,0,19.1,19.1,19.12,19.12,0,0,0-19.1-19.1" fill="#010101"/>
    <path id="Path_220" data-name="Path 220" d="M2258.021,171.339h0a3.819,3.819,0,0,1-3.821-3.815V145.495c0-10.273-7.877-19.123-18.136-19.628A19.118,19.118,0,0,0,2216,144.943v22.542a3.819,3.819,0,0,1-7.639,0V145.6c0-14.479,11.238-26.827,25.707-27.374a26.768,26.768,0,0,1,27.77,26.719v22.581a3.818,3.818,0,0,1-3.82,3.815" fill="#010101"/>
    <path id="Path_221" data-name="Path 221" d="M2132,143.4h0a5.363,5.363,0,0,1-5.362,5.364h-38.389a1.332,1.332,0,0,0-1.268,1.718,19.1,19.1,0,0,0,31.8,7.959,3.8,3.8,0,0,1,4.9-.4,3.842,3.842,0,0,1,.433,5.874,26.735,26.735,0,1,1,7.668-22.456A17.025,17.025,0,0,1,2132,143.4m-43.751-2.274h34.032a1.329,1.329,0,0,0,1.265-1.718,19.1,19.1,0,0,0-36.565,0,1.331,1.331,0,0,0,1.268,1.718" fill="#010101"/>
    <path id="Path_222" data-name="Path 222" d="M2035.307,171.37h0c-2.108,0-3.818-2.011-3.818-4.491V124.118c0-2.484,1.572-4.65,3.678-4.65s3.96,2.166,3.96,4.65v42.761c0,2.48-1.713,4.491-3.82,4.491" fill="#010101"/>
    <path id="Path_223" data-name="Path 223" d="M2070.167,139.262h-11.436a1.968,1.968,0,0,1-1.965-1.881c.195-14.257,5.237-12.166,14.244-14.125l.046-.009a3.917,3.917,0,0,0,3.15-3.817,3.823,3.823,0,0,0-4.636-3.677l-.184.039c-9.5,2.067-20.269,1.211-20.269,22.461V167.41a3.91,3.91,0,0,0,3.063,3.887,3.821,3.821,0,0,0,4.574-3.745V148.876a1.977,1.977,0,0,1,1.977-1.975h11.652a3.821,3.821,0,0,0,3.815-4.024,3.966,3.966,0,0,0-4.031-3.615" fill="#010101"/>
    <path id="Path_224" data-name="Path 224" d="M2019.9,171.37a3.939,3.939,0,0,1-.506-.032c-11.325-1.494-24.322-4.685-24.322-24.822l-.136-26.606a3.818,3.818,0,1,1,7.636,0l.136,26.606c0,11.831,4.63,15.529,17.686,17.251a3.818,3.818,0,0,1-.494,7.6" fill="#010101"/>
  </g>
</svg>
