<svg xmlns="http://www.w3.org/2000/svg" width="334.918" height="100.587" viewBox="0 0 334.918 100.587">
  <g id="Group_399" data-name="Group 399" transform="translate(-585.898 -1510.491)">
    <g id="Group_395" data-name="Group 395" transform="translate(813.4 1510.491)">
      <path id="Path_211" data-name="Path 211" d="M842.475,1511.446a.955.955,0,1,0-.956.956.956.956,0,0,0,.956-.956" transform="translate(-833.292 -1510.491)" fill="#010101"/>
      <path id="Path_212" data-name="Path 212" d="M870.071,1524.69a5.449,5.449,0,1,1,5.449-5.449,5.455,5.455,0,0,1-5.449,5.449m0-9.342a3.893,3.893,0,1,0,3.892,3.893,3.9,3.9,0,0,0-3.892-3.893" transform="translate(-833.292 -1510.491)" fill="#010101"/>
      <path id="Path_213" data-name="Path 213" d="M886.91,1524.621h0a.778.778,0,0,1-.779-.778v-4.489a3.967,3.967,0,0,0-3.7-4,3.9,3.9,0,0,0-4.089,3.888v4.6a.779.779,0,0,1-1.557,0v-4.461a5.537,5.537,0,0,1,5.24-5.579,5.456,5.456,0,0,1,5.659,5.445v4.6a.778.778,0,0,1-.778.778" transform="translate(-833.292 -1510.491)" fill="#010101"/>
      <path id="Path_214" data-name="Path 214" d="M861.227,1518.926h0a1.093,1.093,0,0,1-1.093,1.094H852.31a.271.271,0,0,0-.258.35,3.893,3.893,0,0,0,6.48,1.622.774.774,0,0,1,1-.082.783.783,0,0,1,.088,1.2,5.449,5.449,0,1,1,1.563-4.577,3.448,3.448,0,0,1,.046.4m-8.917-.463h6.936a.271.271,0,0,0,.258-.35,3.893,3.893,0,0,0-7.452,0,.271.271,0,0,0,.258.35" transform="translate(-833.292 -1510.491)" fill="#010101"/>
      <path id="Path_215" data-name="Path 215" d="M841.519,1524.627h0a.855.855,0,0,1-.778-.915V1515a.867.867,0,0,1,.75-.948.909.909,0,0,1,.807.948v8.715a.855.855,0,0,1-.779.915" transform="translate(-833.292 -1510.491)" fill="#010101"/>
      <path id="Path_216" data-name="Path 216" d="M848.624,1518.084h-2.331a.4.4,0,0,1-.4-.384c.04-2.9,1.067-2.479,2.9-2.879h.009a.8.8,0,0,0,.642-.778.78.78,0,0,0-.945-.75l-.037.008c-1.936.422-4.131.247-4.131,4.578v5.942a.8.8,0,0,0,.624.793.779.779,0,0,0,.932-.764v-3.806a.4.4,0,0,1,.4-.4h2.375a.779.779,0,0,0,.778-.82.809.809,0,0,0-.822-.736" transform="translate(-833.292 -1510.491)" fill="#010101"/>
      <path id="Path_217" data-name="Path 217" d="M838.379,1524.627a.9.9,0,0,1-.1-.006c-2.308-.3-4.957-.955-4.957-5.059l-.027-5.422a.778.778,0,1,1,1.556,0l.028,5.422c0,2.411.943,3.165,3.6,3.516a.778.778,0,0,1-.1,1.549" transform="translate(-833.292 -1510.491)" fill="#010101"/>
    </g>
    <text id="Lorem_ipsum_dolor_sit_amet_consectetuer_adipiscing_elit_sed_diam_nonummy_nibh_euismod_tincidunt_ut_laoreet_dolore" data-name="Lorem ipsum dolor sit amet, consectetuer
adipiscing elit, sed diam nonummy nibh
euismod tincidunt ut laoreet dolore" transform="translate(585.899 1511.833)" fill="#5b6670" font-size="10" font-family="Helvetica"><tspan x="0" y="8">Lorem ipsum dolor sit amet, consectetuer</tspan><tspan x="0" y="20">adipiscing elit, sed diam nonummy nibh</tspan><tspan x="0" y="32">euismod tincidunt ut laoreet dolore</tspan></text>
    <g id="Group_398" data-name="Group 398" transform="translate(585.898 1525.952)">
      <text id="Lorem_ipsum_dolor_sit_amet_consectetuer_adipiscing_elit" data-name="Lorem ipsum dolor sit amet, consectetuer adipiscing elit" transform="translate(0 70.125)" fill="#5b6670" font-size="6" font-family="Helvetica"><tspan x="0" y="5">Lorem ipsum dolor sit amet, consectetuer adipiscing elit</tspan></text>
      <g id="Group_397" data-name="Group 397" transform="translate(0 39.092)">
        <g id="Group_396" data-name="Group 396">
          <path id="Path_218" data-name="Path 218" d="M591.923,1571.093a4.958,4.958,0,0,1,2.273.5,4.09,4.09,0,0,0,3.785.024,5.978,5.978,0,0,1,5.274.03,5.526,5.526,0,0,1,1.884,1.495c.2.24.248.384-.067.586a5.452,5.452,0,0,0,.633,9.349c.3.157.306.277.2.576a14.092,14.092,0,0,1-3.17,5.111,3,3,0,0,1-3.42.811c-.276-.1-.555-.194-.826-.308a5.143,5.143,0,0,0-4.174.033c-.354.15-.728.249-1.088.386a2.468,2.468,0,0,1-2.647-.589,13.789,13.789,0,0,1-3.7-5.594,13.979,13.979,0,0,1-.953-4.176c-.172-2.807.462-5.34,2.852-7.136A5.446,5.446,0,0,1,591.923,1571.093Z" transform="translate(-585.898 -1565.044)" fill="#ecedef"/>
          <path id="Path_219" data-name="Path 219" d="M626.658,1574.363c2.135,0,4.269.012,6.4-.009.48-.005.679.095.675.633-.023,3.164,0,6.329-.013,9.494a1.645,1.645,0,0,1-1.744,1.725c-1.12.017-1.12.017-1.122,1.146,0,.754.007,1.509,0,2.263a1.555,1.555,0,1,1-3.1-.013c-.01-.975-.015-1.95,0-2.925.005-.356-.122-.471-.482-.479-1.684-.039-1.684-.05-1.683,1.643,0,.589.005,1.178,0,1.767a1.619,1.619,0,0,1-1.523,1.648,1.636,1.636,0,0,1-1.592-1.591c-.024-.974-.022-1.95,0-2.925.008-.4-.117-.552-.537-.542a2.253,2.253,0,0,1-1.589-.284,1.726,1.726,0,0,1-.737-1.411c-.006-3.182,0-6.365-.01-9.548,0-.462.158-.6.607-.6C622.353,1574.373,624.506,1574.363,626.658,1574.363Z" transform="translate(-585.898 -1565.044)" fill="#ecedef"/>
          <path id="Path_220" data-name="Path 220" d="M626.672,1573.8c-2.188,0-4.376-.013-6.563.012-.466.005-.57-.16-.521-.578a6.324,6.324,0,0,1,2.919-4.707c.66-.44.662-.435.276-1.142-.211-.386-.419-.775-.627-1.163-.076-.142-.115-.289.07-.371.167-.075.223.071.285.181.278.494.559.985.827,1.484a.445.445,0,0,0,.649.253,7.663,7.663,0,0,1,5.4.022c.329.123.461.035.6-.237.224-.441.459-.877.712-1.3.1-.168.152-.52.43-.379.263.132.057.383-.042.568a10.381,10.381,0,0,1-.591,1.058c-.3.439-.25.676.233.978a6.26,6.26,0,0,1,2.956,4.262c.031.162.033.33.063.492.089.467-.1.584-.563.579C631.01,1573.79,628.841,1573.8,626.672,1573.8Zm-2.622-3.147c-.039-.363-.2-.636-.6-.632a.613.613,0,1,0,.011,1.226C623.827,1571.247,624.007,1571.017,624.05,1570.657Zm5.817-.632a.581.581,0,0,0-.571.613.555.555,0,0,0,.622.6.531.531,0,0,0,.593-.568C630.513,1570.294,630.32,1570.06,629.867,1570.025Z" transform="translate(-585.898 -1565.044)" fill="#ecedef"/>
          <path id="Path_221" data-name="Path 221" d="M619,1578.882c0,1.083.006,2.166,0,3.25a1.552,1.552,0,0,1-3.077.361,2.514,2.514,0,0,1-.083-.6q-.008-2.947,0-5.894a1.91,1.91,0,0,1,.475-1.475,1.547,1.547,0,0,1,1.677-.386,1.448,1.448,0,0,1,1.012,1.434v3.306Z" transform="translate(-585.898 -1565.044)" fill="#ecedef"/>
          <path id="Path_222" data-name="Path 222" d="M634.346,1578.878c0-1.049-.005-2.1,0-3.146a1.573,1.573,0,0,1,1.478-1.662,1.53,1.53,0,0,1,1.628,1.567q.045,3.312,0,6.623a1.564,1.564,0,0,1-1.613,1.489,1.588,1.588,0,0,1-1.487-1.559C634.335,1581.086,634.347,1579.982,634.346,1578.878Z" transform="translate(-585.898 -1565.044)" fill="#ecedef"/>
          <path id="Path_223" data-name="Path 223" d="M600.906,1565.749a5.426,5.426,0,0,1-3.8,4.946c-1.106.265-1.332.052-1.133-1.069a5.715,5.715,0,0,1,4.6-4.564c.228-.043.357-.026.337.246C600.9,1565.454,600.905,1565.6,600.906,1565.749Z" transform="translate(-585.898 -1565.044)" fill="#ecedef"/>
        </g>
      </g>
      <path id="Path_224" data-name="Path 224" d="M940.708,1591.686H915.466c-.277,0-.552.023-.829.023-1.8-.086-7.044.184-8.424-1.128-2.426-2.305,2.452-2.324,4.143-2.348,2.036-.029,7.872.138,8.424,1.657-.138.967-3.357.439-4.972-.414-1.316-.7-1.337-1.915-1.243-3.867.553-11.462-.216-35.418-2.347-42.4-1.729-5.662-4.119-15.591-10.768-17.177-4.616-1.1-9.057,9.039-8.462,13.112-4.419-.276-8.353,3.95-7.977,9.865,2.887-1.885,14.385-1.889,16.711,1.11-1.907,2.667-13.879,2.407-16.572.266,2.591-3.813,13.5-3.523,16.993-1.584.041-1.353.19-9.14-8.3-9.693-.557-4.073,3.188-13.289,7.516-12.188,6.234,1.586,8.609,11.042,10.23,16.7,2,6.979,2.719,30.935,2.2,42.4-.05,1.124.135,2.751-.774,3.564-.887.792-2.518.708-3.627.925-2.728.534-10.907.69-13.48.69,2.588-.329,3.74-4.563,4.384-7.077.576-2.246,3.1-10.531,2.643-11.71-.612-1.584-3.453-1.34-4.706-1.441-.321,1.7-3.3,14.3-5.31,14.5-7.588.754-53.989,1.4-54.745.276-.773-1.144-.538-3.9,0-4.971.8-1.595,1.531-1.185,3.107-1.52a96.712,96.712,0,0,1,15.412-1.657c2.479-.119,7.894-1.3,9.2,1.8.447,1.062-.026,1.844-.124,3.008a8.268,8.268,0,0,0,.421,2.852c1.159-1.759.433-2.815.7-4.9.238-1.868,1.814-2.148,3.347-2.551a44.607,44.607,0,0,1,12.34-.9c2.23.076,4.4.864,6.633,1.122,1.289.148,3.022.119,4.029,1.084,1.355,1.3.412,3.008-.831,4.941,2-1.464,2.794-4.008,3.46-7.053s1.777-5.063,1.994-8.242c-1.813-.108-1.9-.568-3.656-.686-1.952-.13-3.123-1.769-4.97-.263a61.088,61.088,0,0,1-8.791,6.482c-1.708.953-.569,2.073,1.047,2.487,2.747.7,5.568.064,8.232,1.477,1.5.8,2.138,1.726,3.767.418,1.678-1.346,2.19-4.164,2.784-6.262.584-2.065,1.671-3.367-.426-3.792-1.346-.272.557-1.116.218-2.347-3.591-2.348-27.116-2.653-28.145-1.914-.564.405.1,1.134-.266,1.73,2.821.254,3.951-1,7.473-.655,1.505.148,1.648.192,2.091,1.482.553,1.61.461,3.382.75,5.028.155.885,1.03,2.282.724,3.21-.485,1.47-3.925.854-5.133,1.057-1.785.3-3.564.8-5.315,1.278a5.778,5.778,0,0,1-2.475-.03,8.87,8.87,0,0,1-2.629-3.156,15.146,15.146,0,0,1-1.6-5.033c-.043-.732-.1-2.053.42-2.623,1.029-1.138,3.669-.612,5.049-.651-1.574-2.718-4.6-1.905-6.961-1.8-4.092.191-8.5,1.13-12.6.791-1.5-.124-11.02.289-11.64,2.109-.528,1.553.617,5.419.622,7.044a29.348,29.348,0,0,0,.87,4.143c.477,2.595,5.288-.915,7.209-.967,1.641-.044,7.951.195,9.589.306,1.133.078,2.648.585,3.72-.016,1.488-.834,1.521-2.836,1.611-4.444.1-1.83.574-4.452.185-6.223-1.9-.575-4.432.216-6.453.025-1.082-.1-4.606-.988-5.675-.157-2.47,1.918.094,7.247-1.174,9.767-1.135,2.256-.9-.512-1.513-1.974-.636-1.506-.709-4.7-.788-6.353-1.217-.11-2.169.139-3.4.138-1.4,0-1.744-.834-3.107-.828-2.721.011-.127,16.51-.333,13.964a44.493,44.493,0,0,1-1.995-8.762c-.227-1.959.27-3.707-1.864-3.591a13.824,13.824,0,0,0-2.717.483c-.994.691.549,12.054,1.109,14.509.809,3.549,3.041,5.563,6.214,5.907,1.418.154,55.345-.568,56.368-.114,1.93.855-.495,4.343-1.785,4.893-.055-1.216.33-2.655-.734-3.17-1.247-.6-40.537-.467-48.226-.449-1.054,0-3.211-.187-3.764,1.022a3.85,3.85,0,0,0-.119,2.468c-1.412-.1-2.079-2.031-3.4-3.591-1.109-1.312-4.216-1.036-10.292-.9-1.953.049-5.552.069-7.527.069-1.159,0-3.278-.278-4.143-1.105s-2.558-6.523-2.486-8.079c1.724-.57,5.048.3,5.041-2.276-.015-5.6.551-11.382-1.394-12.093-.843-.309-1.869.468-2.411,1.027-.381.393-.737,1.359-1.241,1.531-.5-1.6.873-3.372,1.457-4.754a5.912,5.912,0,0,0-3.042.921c-.688.446-.865,1.188-1.379,1.7-1.046-1.658-.72-4.233,1.277-4.9-.622-.23-1.893.2-2.429-.349a2.4,2.4,0,0,1-.084-2.126c.287-.443,2.222-.671,1.995.115-.164.572-1.836.477-2.039.095-.526-.981.846-2.67,1.523-3.2,2.28-1.8,4.56-.207,4.72.479-3.858-5.794,3.8-3.35,3.131-1.373-.5-2.626,2.16-2.643,3.409-2.423.709.125,1.508.749,1.029,1.484-.413.636-1.712.774-2.309,1.28a10.573,10.573,0,0,1,5.388.342c.52.232,1.779.951,1.686,1.665s-1.117.363-1.617.323c-.723-.058-2.528.283-1.2.988,1.227.65,3.61-.494,4.578.724a1.116,1.116,0,0,1-.523,1.69,2.38,2.38,0,0,1-2.288-.361c-.437-.236-2.017-1.075-2.473-.4-.32.475.517,1.075.919,1.307.965.557,3.868.61,3.363,2.457a1.381,1.381,0,0,1-1.736.828c-.9-.217-1.584-2.036-2.355-1.994-1.221.067.672,1.852,1.03,2.072,1.14.7,1.9,1.226,1.629,2.756-.226,1.25-1.378,1.378-2.416.884a4.982,4.982,0,0,1-1.942-2.076c-.246-.413-.474-1.126-1.018-1.2.072,1.173,1.6,2.119,1.786,3.409.195,1.373-.864,2.972-1.864,1.3-.741-1.241-.362-2.8-1.075-4.031-.4-.693-.745-.865-1.075-.19-.477.976-.279,2.675-.256,3.744.033,1.591-.056,3.1.069,4.687a30.83,30.83,0,0,1,.138,3.591c-.039.868.109,1.558.967,1.657,1.163.134,1.88.142,3.38.3.445.047.543.6.151.95a5.979,5.979,0,0,1-2.219.341c-2.248.06-4.447.482-6.476.1-1.1-.2-2.083-1.345-.539-2.058s3.459-.477,5.151-.67c.942-.107,3.793.22,4.626.829,1.109.81-.242,5.112-.586,6.42a8.458,8.458,0,0,1-.933,2.35c-.727,1.1-3.3-.075-4.4-.013-1.881.106-3.308,1.3-5.058,1.329-.192,0-166.376,0-166.6,0" transform="translate(-605.79 -1525.952)" fill="none" stroke="#000" stroke-miterlimit="10" stroke-width="0.532"/>
    </g>
  </g>
</svg>
