<svg xmlns="http://www.w3.org/2000/svg" width="21.833" height="20" viewBox="0 0 21.833 20">
  <path id="Path_14" data-name="Path 14" d="M9.155,16.5A2.248,2.248,0,1,0,11.4,18.752,2.245,2.245,0,0,0,9.155,16.5ZM2.248,3.248,7.542,13.03c.733,1.593,1.686,1.585,1.686,1.585H17.6a2.237,2.237,0,0,0,1.967-1.158l3.962-7.149a1.12,1.12,0,0,0-.978-1.664H5.738l-1.76-3A1.115,1.115,0,0,0,2.967,1C.975,1.493,2.224,3.233,2.248,3.248ZM17.895,16.5a2.248,2.248,0,1,0,2.248,2.248A2.245,2.245,0,0,0,17.895,16.5Z" transform="translate(-1.84 -1)" fill="#535252"/>
</svg>
