<svg xmlns="http://www.w3.org/2000/svg" width="25" height="25" viewBox="0 0 25 25">
  <g id="Group_1009" data-name="Group 1009" transform="translate(0)">
    <g id="zalo">
      <circle id="Ellipse_20" data-name="Ellipse 20" cx="12.5" cy="12.5" r="12.5" transform="translate(0 0)" fill="#dedede"/>
      <path id="Path_354" data-name="Path 354" d="M131.164,99.4h0a1.366,1.366,0,0,0-.969-.4H119.537a1.37,1.37,0,0,0-1.37,1.37v10.658a1.366,1.366,0,0,0,.4.969h0l7.052,7.052a12.442,12.442,0,0,0,11.687-12.419c0-.393-.019-.782-.055-1.165Z" transform="translate(-112.424 -94.07)" fill="#bbb"/>
      <path id="Path_355" data-name="Path 355" d="M130.194,99H119.536a1.37,1.37,0,0,0-1.37,1.37v10.658a1.37,1.37,0,0,0,1.37,1.37h2.137v1.863l2.594-1.863h5.927a1.37,1.37,0,0,0,1.37-1.37V100.369A1.37,1.37,0,0,0,130.194,99Z" transform="translate(-112.423 -94.071)" fill="#535252"/>
      <path id="Path_356" data-name="Path 356" d="M216.34,135.429v-2.147a1.529,1.529,0,0,0-1.1-.461h-3.12l4.216-5.744v-1.841a1.2,1.2,0,0,0-.8-.307h-6.377a1.534,1.534,0,0,0,0,3.069h2.681l-4.34,5.979a1.2,1.2,0,0,0,.975,1.912h6.767A1.53,1.53,0,0,0,216.34,135.429Z" transform="translate(-197.199 -118.741)" fill="#fff"/>
    </g>
  </g>
</svg>
