<svg xmlns="http://www.w3.org/2000/svg" width="466.172" height="435.676" viewBox="0 0 466.172 435.676">
  <defs>
    <style>
      .cls-1 {
        fill: #c7c4c2;
      }

      .cls-2 {
        fill: #535252;
      }
    </style>
  </defs>
  <g id="Group_3" data-name="Group 3" transform="translate(-550.02 -32.162)">
    <path id="Polygon_9" data-name="Polygon 9" class="cls-1" d="M769.92,39.97a15.079,15.079,0,0,1,26.416,0l64.171,116.522a15.077,15.077,0,0,0,10.555,7.539l132.685,23.506a15.078,15.078,0,0,1,8.142,25.391L919.13,307.753a15.079,15.079,0,0,0-4.162,12.62l18.094,130.318a15.078,15.078,0,0,1-21.35,15.711L789.581,408.91a15.08,15.08,0,0,0-12.846,0L654.6,466.4a15.077,15.077,0,0,1-21.35-15.711l18.093-130.318a15.075,15.075,0,0,0-4.161-12.62l-92.864-94.779a15.079,15.079,0,0,1,8.142-25.392l132.685-23.506a15.078,15.078,0,0,0,10.554-7.539Z"/>
    <g id="Group_2" data-name="Group 2">
      <path id="Path_1" data-name="Path 1" class="cls-2" d="M769.92,39.97,705.7,156.537a15.078,15.078,0,0,1-10.554,7.539L562.463,187.583a15.078,15.078,0,0,0-8.142,25.391l92.865,94.779a15.079,15.079,0,0,1,4.162,12.62L633.254,450.691A15.077,15.077,0,0,0,654.6,466.4L776.735,408.91a15.08,15.08,0,0,1,6.371-1.434V32.167A15.07,15.07,0,0,0,769.92,39.97Z"/>
    </g>
  </g>
</svg>
