<svg xmlns="http://www.w3.org/2000/svg" width="466.171" height="435.676" viewBox="0 0 466.171 435.676">
  <path id="Polygon_9" data-name="Polygon 9" d="M236.813,39.97a15.079,15.079,0,0,1,26.417,0L327.4,156.492a15.078,15.078,0,0,0,10.554,7.539L470.64,187.537a15.078,15.078,0,0,1,8.142,25.391l-92.759,94.825a15.078,15.078,0,0,0-4.161,12.62l18.093,130.318a15.078,15.078,0,0,1-21.35,15.711L256.475,408.91a15.082,15.082,0,0,0-12.847,0L121.5,466.4a15.078,15.078,0,0,1-21.35-15.711l18.093-130.318a15.078,15.078,0,0,0-4.161-12.62L21.215,212.974a15.079,15.079,0,0,1,8.142-25.392l132.685-23.506a15.08,15.08,0,0,0,10.555-7.539Z" transform="translate(-16.914 -32.162)" fill="#535252"/>
</svg>
