<svg xmlns="http://www.w3.org/2000/svg" width="466.172" height="435.676" viewBox="0 0 466.172 435.676">
  <path id="Polygon_9" data-name="Polygon 9" d="M1306.09,39.97a15.079,15.079,0,0,1,26.416,0l64.171,116.522a15.079,15.079,0,0,0,10.555,7.539l132.685,23.506a15.078,15.078,0,0,1,8.142,25.391L1455.3,307.753a15.075,15.075,0,0,0-4.161,12.62l18.093,130.318a15.078,15.078,0,0,1-21.35,15.711L1325.751,408.91a15.08,15.08,0,0,0-12.846,0L1190.774,466.4a15.079,15.079,0,0,1-21.35-15.711l18.094-130.318a15.078,15.078,0,0,0-4.162-12.62l-92.864-94.779a15.079,15.079,0,0,1,8.142-25.392l132.685-23.506a15.078,15.078,0,0,0,10.554-7.539Z" transform="translate(-1086.191 -32.162)" fill="#c7c4c2"/>
</svg>
