<?xml version="1.0" encoding="utf-8"?>
<!-- Generator: Adobe Illustrator 25.0.1, SVG Export Plug-In . SVG Version: 6.00 Build 0)  -->
<svg version="1.1" id="레이어_1" xmlns="http://www.w3.org/2000/svg" xmlns:xlink="http://www.w3.org/1999/xlink" x="0px"
	 y="0px" viewBox="0 0 500 500" style="enable-background:new 0 0 500 500;" xml:space="preserve">
<style type="text/css">
	.st0{fill:#C7C4C2;}
	.st1{fill:#535252;}
	.st2{fill:#FFFFFF;}
	.st3{fill:none;}
	.st4{fill:#3D3D3D;}
</style>
<path class="st4" d="M338.67,401.55c-2.47,0-4.92-0.54-7.18-1.61l-80.22-37.76c-0.79-0.37-1.69-0.37-2.47,0l-80.22,37.76
	c-8.44,3.97-18.53,0.33-22.49-8.1c-1.4-2.97-1.9-6.26-1.45-9.51l11.88-85.6c0.12-0.88-0.18-1.79-0.8-2.43l-60.99-62.25
	c-3.16-3.23-4.87-7.49-4.82-12.01c0.05-4.52,1.85-8.74,5.08-11.9c2.44-2.38,5.5-3.96,8.87-4.56l87.16-15.44
	c0.86-0.15,1.6-0.68,2.03-1.45l42.17-76.55c2.18-3.95,5.76-6.82,10.1-8.08c4.33-1.26,8.9-0.75,12.86,1.43
	c2.81,1.55,5.11,3.85,6.66,6.66l42.15,76.53c0.42,0.75,1.16,1.28,2.02,1.44l87.15,15.44c4.45,0.79,8.32,3.26,10.91,6.96
	c2.59,3.7,3.58,8.19,2.79,12.63c-0.6,3.36-2.17,6.43-4.56,8.87l-60.92,62.28c-0.63,0.64-0.93,1.55-0.8,2.43l11.88,85.59
	c1.28,9.24-5.2,17.79-14.43,19.06C340.22,401.5,339.45,401.55,338.67,401.55z M250.03,347.9c2.46,0,4.91,0.54,7.2,1.62l80.22,37.76
	c0.5,0.24,1.07,0.33,1.62,0.25c1.59-0.22,2.7-1.69,2.48-3.27l-11.88-85.59c-0.71-5.15,1.03-10.44,4.67-14.15l60.92-62.28
	c0.41-0.42,0.68-0.95,0.78-1.52c0.18-1.03-0.22-1.8-0.48-2.17c-0.26-0.37-0.84-1.01-1.87-1.2l-87.15-15.44
	c-5.04-0.89-9.35-3.97-11.83-8.45l-42.16-76.55c-0.27-0.48-0.66-0.88-1.14-1.14c-0.92-0.5-1.78-0.37-2.21-0.25
	c-0.43,0.12-1.23,0.47-1.73,1.39l0,0l-42.18,76.56c-2.49,4.49-6.8,7.57-11.84,8.47l-87.15,15.44c-0.57,0.1-1.1,0.37-1.52,0.78
	c-0.75,0.73-0.87,1.6-0.88,2.05s0.1,1.31,0.83,2.06l60.99,62.25c3.64,3.71,5.38,9,4.67,14.15l-11.88,85.6
	c-0.08,0.55,0.01,1.12,0.25,1.63c0.68,1.45,2.41,2.07,3.86,1.39l80.21-37.76C245.12,348.44,247.58,347.9,250.03,347.9z
	 M241.34,113.52L241.34,113.52L241.34,113.52z"/>
</svg>
