<svg  viewBox="0 0 24 24" fill="none" xmlns="http://www.w3.org/2000/svg">
<path fill-rule="evenodd" clip-rule="evenodd" d="M14.58 2.58L19.41 7.41C19.79 7.79 20 8.3 20 8.83V20C20 21.1 19.1 22 18 22H5.99C4.89 22 4 21.1 4 20L4.01 4C4.01 2.9 4.9 2 6 2H13.17C13.7 2 14.21 2.21 14.58 2.58ZM13 8C13 8.55 13.45 9 14 9H18.5L13 3.5V8ZM10.8965 15.4017V12.4017C10.8965 11.8517 11.3465 11.4017 11.8965 11.4017C12.4465 11.4017 12.8965 11.8517 12.8965 12.4017V15.4017H14.6865C15.1365 15.4017 15.3565 15.9417 15.0365 16.2517L12.2365 19.0417C12.0365 19.2417 11.7265 19.2317 11.5265 19.0417L8.73645 16.2517C8.43645 15.9417 8.65645 15.4017 9.09645 15.4017H10.8965Z" fill="currentColor"/>
</svg>
