<svg  viewBox="0 0 24 24" fill="none" xmlns="http://www.w3.org/2000/svg">
<path fill-rule="evenodd" clip-rule="evenodd" d="M14.58 2.58L19.41 7.41C19.79 7.79 20 8.3 20 8.83V20C20 21.1 19.1 22 18 22H5.99C4.89 22 4 21.1 4 20L4.01 4C4.01 2.9 4.9 2 6 2H13.17C13.7 2 14.21 2.21 14.58 2.58ZM13 8C13 8.55 13.45 9 14 9H18.5L13 3.5V8ZM11.9999 16.2915H8.99986C8.44986 16.2915 7.99986 15.8415 7.99986 15.2915C7.99986 14.7415 8.44986 14.2915 8.99986 14.2915H11.9999V12.5015C11.9999 12.0515 12.5399 11.8315 12.8499 12.1515L15.6399 14.9515C15.8399 15.1515 15.8299 15.4615 15.6399 15.6615L12.8499 18.4515C12.5399 18.7515 11.9999 18.5315 11.9999 18.0915V16.2915Z" fill="currentColor"/>
</svg>
