<svg  viewBox="0 0 24 24" fill="none" xmlns="http://www.w3.org/2000/svg">
<path fill-rule="evenodd" clip-rule="evenodd" d="M12 6H20C21.1 6 22 6.9 22 8V18C22 19.1 21.1 20 20 20H4C2.9 20 2 19.1 2 18L2.01 6C2.01 4.9 2.9 4 4 4H9.17C9.7 4 10.21 4.21 10.59 4.59L12 6ZM11.2983 13L11.2983 10C11.2983 9.45001 11.7483 9.00001 12.2983 9.00001C12.8483 9.00001 13.2983 9.45001 13.2983 10V13H15.0883C15.5383 13 15.7583 13.54 15.4383 13.85L12.6383 16.64C12.4383 16.84 12.1283 16.83 11.9283 16.64L9.13831 13.85C8.83831 13.54 9.05831 13 9.49831 13H11.2983Z" fill="currentColor"/>
</svg>
