<svg viewBox="0 0 24 24" fill="none" xmlns="http://www.w3.org/2000/svg">
<path fill-rule="evenodd" clip-rule="evenodd" d="M8.84594 2C9.27842 2.11625 9.54131 2.45571 9.77875 2.84166C10.4402 3.90188 10.9108 5.05975 11.2882 6.26877C11.5227 7.01927 11.7519 7.76977 11.9815 8.5215L11.9815 8.52152L11.9815 8.52153L11.9815 8.52175L11.9816 8.52177L11.9816 8.52178L11.9816 8.5218C12.109 8.93906 12.2365 9.3567 12.3652 9.77494C12.3712 9.7948 12.3763 9.81572 12.3822 9.84017L12.3822 9.84018L12.3823 9.84019C12.3888 9.86724 12.3964 9.89862 12.4076 9.93769C12.284 9.92841 12.1638 9.91838 12.0454 9.9085L12.0453 9.9085L12.0453 9.9085L12.0453 9.9085L12.0452 9.90849L12.0452 9.90849L12.0451 9.90849C11.867 9.89363 11.6929 9.87911 11.5172 9.86794C11.4625 9.8638 11.4079 9.85921 11.3532 9.85462C11.162 9.83854 10.9707 9.82247 10.7794 9.82609C10.3639 9.83074 10.0628 10.0632 9.86355 10.4585C9.84235 10.4957 9.82115 10.5329 9.80843 10.5561L9.73216 10.4926L9.7321 10.4926L9.73206 10.4925L9.73191 10.4924C9.54638 10.3379 9.36412 10.1861 9.18514 10.0307C9.15122 9.99814 9.12154 9.94699 9.10882 9.90049C8.64666 8.33806 8.18449 6.77563 7.72233 5.21786C7.53152 4.57149 7.48064 3.91118 7.67145 3.26017C7.77321 2.92537 7.93857 2.59986 8.13361 2.31621C8.20682 2.21022 8.33463 2.1486 8.46258 2.08692C8.51989 2.05929 8.57723 2.03165 8.6297 2H8.84594ZM6.41163 16.0572C6.40193 16.1059 6.38679 16.1555 6.37169 16.205C6.34061 16.3069 6.30971 16.4082 6.32683 16.499C6.5558 17.9544 7.67941 18.8752 8.58678 19.103C9.32455 19.289 10.0199 18.8984 10.1726 18.1683C10.2134 17.9666 10.196 17.7493 10.1784 17.5303V17.5303V17.5303L10.1784 17.5303C10.1705 17.4314 10.1625 17.3321 10.1598 17.2337C10.7704 17.1546 10.7704 17.1546 11.2792 16.7687C11.2728 16.867 11.2629 16.9654 11.253 17.0635C11.2303 17.2901 11.2076 17.5152 11.2283 17.7359C11.275 18.1916 11.3555 18.652 11.4827 19.0891C11.6184 19.5541 11.9407 19.8377 12.4325 19.9493C12.4283 19.8883 12.4264 19.8284 12.4246 19.7695L12.4246 19.7695C12.4208 19.6489 12.4171 19.5332 12.3943 19.4239C12.3435 19.1774 12.2756 18.931 12.1951 18.6938C11.9364 17.9219 12.0255 17.1872 12.3816 16.4897C12.9286 15.4248 13.7215 14.6715 14.773 14.253C14.9893 14.1646 15.2055 14.067 15.4175 13.9693C15.5532 13.9089 15.6719 13.8391 15.638 13.6345C15.5998 13.416 15.5405 13.2207 15.3073 13.1881C15.115 13.1652 14.9186 13.1558 14.7261 13.1466H14.7261L14.7179 13.1463C14.4955 13.1347 14.2726 13.1272 14.0497 13.1197C13.5546 13.103 13.0594 13.0863 12.5682 13.0254C12.1442 12.9742 11.7159 12.8254 11.3216 12.6347C10.8255 12.3929 10.5923 11.9093 10.5754 11.3141C10.5626 10.9375 10.6898 10.7282 11.029 10.6817C11.4573 10.6259 11.8983 10.6166 12.3307 10.6492C13.1152 10.7096 13.8996 10.8026 14.684 10.9142C15.4769 11.0258 16.2613 11.1886 17.0075 11.5373C17.5206 11.7791 17.8386 12.1558 17.9149 12.7649C18.2371 15.4806 17.7792 17.9591 15.9645 19.9679C14.8705 21.1816 13.5137 21.8094 11.9576 21.9628C10.7153 22.0837 9.51959 21.9349 8.39598 21.349C6.96284 20.605 5.87315 19.4657 5.2965 17.8196C5.00818 17.0198 4.9149 16.1874 5.0845 15.3364C5.17778 14.8575 5.4025 14.4715 5.74171 14.1507C5.97915 13.9228 6.24203 13.8531 6.52188 14.0065C6.77628 14.146 7.03916 14.2995 7.2554 14.4994C8.06101 15.2434 8.75214 16.0898 9.21007 17.1453C9.37119 17.522 9.27791 17.7917 8.9175 17.9219C8.55286 18.0614 8.20094 17.973 7.92109 17.7266C7.59461 17.4429 7.30204 17.1035 7.01372 16.7687C6.88408 16.617 6.77009 16.4503 6.65581 16.2832L6.6558 16.2832L6.65579 16.2832C6.60188 16.2043 6.54791 16.1254 6.4922 16.0479L6.48109 16.0497C6.45606 16.0537 6.43385 16.0572 6.41163 16.0572ZM14.3898 10.1911C14.9198 10.2632 15.4498 10.3353 15.9862 10.4073C16.1516 9.88188 16.3169 9.37502 16.4865 8.86816C16.5606 8.63238 16.6363 8.39715 16.712 8.16193L16.712 8.1619L16.7121 8.1618C17.0783 7.02387 17.4444 5.88614 17.6271 4.68774C17.7289 4.00882 17.6568 3.37641 17.2158 2.8463C16.9953 2.58125 16.7155 2.46965 16.4145 2.6138C16.177 2.7254 15.9438 2.86955 15.7572 3.06021C15.312 3.51127 15.011 4.08323 14.7312 4.66449C14.0697 6.02231 13.5779 7.45918 13.1199 8.91001C13.0538 9.12216 12.9891 9.33431 12.9242 9.54747L12.9241 9.54758C12.8809 9.68947 12.8375 9.8318 12.7935 9.97488C13.3297 10.0469 13.8596 10.119 14.3896 10.1911L14.3898 10.1911ZM8.40476 10.4678C8.43413 10.4871 8.47001 10.5075 8.50952 10.53C8.61259 10.5886 8.74033 10.6612 8.84148 10.7654C9.01109 10.9375 9.14677 11.1514 9.27821 11.3606C9.91422 12.3697 10.5036 13.4067 10.9657 14.532C11.2668 15.262 11.059 15.6852 10.5205 16.1455C10.2407 16.3827 9.96086 16.3687 9.68949 16.1269C9.53685 15.9921 9.39693 15.834 9.26125 15.6805L9.25992 15.679L9.2599 15.679C8.56922 14.889 7.8744 14.0943 7.33627 13.1648C7.12851 12.8068 6.97586 12.4022 6.8529 11.9977C6.7681 11.7047 6.8953 11.4211 7.09034 11.1979C7.42531 10.8073 7.80691 10.519 8.40476 10.4678ZM11.8901 15.4201C12.3269 14.9691 12.7721 14.5134 13.2045 14.0716C12.8063 14.0017 12.3937 13.9266 11.9739 13.8502C11.835 13.8249 11.6954 13.7994 11.5552 13.774C11.8944 14.2762 11.9961 14.8482 11.8901 15.4201Z" fill="currentColor"/>
</svg>
