<svg width="24" height="24" viewBox="0 0 24 24" fill="none" xmlns="http://www.w3.org/2000/svg">
<g clip-path="url(#clip0_66432_19199)">
<path fill-rule="evenodd" clip-rule="evenodd" d="M3.5145 3.5145C8.2005 -1.1715 15.7995 -1.1715 20.4855 3.5145L20.4854 3.5145L3.5145 3.5145ZM3.5145 20.4855V3.5145C-1.1715 8.2005 -1.1715 15.798 3.5145 20.4855ZM20.4854 3.5145V20.4855C25.1729 15.7995 25.1714 8.2005 20.4854 3.5145ZM20.4854 20.4855L3.5145 20.4855L3.5144 20.4855C8.2004 25.1715 15.7979 25.1715 20.4854 20.4855ZM14.979 14.469C14.343 15.105 13.47 15.4905 12.51 15.4905C10.578 15.4905 9.01953 13.932 9.01953 12.012C9.01953 10.0785 10.578 8.508 12.51 8.508C13.458 8.508 14.331 8.895 14.9655 9.5175L13.7445 10.74C13.4325 10.416 12.984 10.2165 12.51 10.2165C11.526 10.2165 10.728 11.028 10.728 12.012C10.728 12.984 11.526 13.782 12.51 13.782C12.996 13.782 13.4445 13.5705 13.7565 13.2465L14.979 14.469Z" fill="#457DF5"/>
</g>
<defs>
<clipPath id="clip0_66432_19199">
<rect width="24" height="24" fill="white"/>
</clipPath>
</defs>
</svg>
