<svg viewBox="0 0 24 24" fill="none" xmlns="http://www.w3.org/2000/svg">
<path d="M7.31929 12.7172H9.48929V22.6452C9.48929 22.8412 9.6322 23 9.80858 23H13.4879C13.6643 23 13.8072 22.8412 13.8072 22.6452V12.764H16.3018C16.464 12.764 16.6004 12.6287 16.619 12.4497L16.9978 8.79467C17.0082 8.69411 16.9796 8.59341 16.919 8.51797C16.8584 8.44246 16.7717 8.39924 16.6807 8.39924H13.8073V6.10812C13.8073 5.41746 14.1419 5.06723 14.802 5.06723C14.896 5.06723 16.6807 5.06723 16.6807 5.06723C16.8571 5.06723 17 4.90834 17 4.71239V1.35746C17 1.16145 16.8571 1.00263 16.6807 1.00263H14.0915C14.0733 1.00163 14.0327 1 13.973 1C13.5237 1 11.9622 1.09801 10.7287 2.3591C9.36195 3.7566 9.55193 5.42988 9.59734 5.71999V8.39917H7.31929C7.14292 8.39917 7 8.55799 7 8.75401V12.3623C7 12.5583 7.14292 12.7172 7.31929 12.7172Z" fill="currentColor"/>
</svg>
