<svg width="32" height="24" viewBox="0 0 32 24" fill="none" xmlns="http://www.w3.org/2000/svg">
<path d="M28.2331 17C28.2346 16.7351 28.2407 16.4701 28.2346 16.2055C28.2327 16.1213 28.2685 16.1079 28.3301 16.0983C28.4953 16.0721 28.6554 16.0271 28.8028 15.9411C29.0034 15.8241 29.1294 15.6411 29.2151 15.4238C29.2707 15.2829 29.3222 15.14 29.378 14.9991C29.3839 14.9841 29.3867 14.968 29.3862 14.9519C29.3857 14.9357 29.382 14.9198 29.3752 14.9053C28.8987 13.6494 28.4223 12.3933 27.946 11.137C27.8942 11.0002 27.8409 10.8641 27.7896 10.7264C27.7593 10.6443 27.7657 10.6353 27.8447 10.6353C28.1597 10.6353 28.4748 10.6364 28.7899 10.6338C28.8402 10.6338 28.8619 10.6502 28.879 10.6995C29.1086 11.3484 29.3519 11.9923 29.5668 12.6463C29.6999 13.0499 29.7913 13.4686 29.9017 13.8805C29.909 13.9081 29.9173 13.9356 29.933 13.9848C29.9911 13.7795 30.0479 13.5969 30.0945 13.4116C30.303 12.5821 30.6163 11.7904 30.8885 10.984C30.9198 10.889 30.9543 10.7946 30.9853 10.6993C31.0009 10.652 31.0254 10.6336 31.0761 10.6336C31.3547 10.6366 31.6333 10.6351 31.912 10.6351C32.0114 10.6351 32.0153 10.6413 31.9789 10.7412C31.7496 11.3699 31.5203 11.9988 31.291 12.6276C30.9284 13.6231 30.5654 14.6185 30.2022 15.6137C30.0845 15.9347 29.9269 16.2313 29.6831 16.4695C29.3941 16.7518 29.0412 16.884 28.6603 16.9525C28.5696 16.969 28.4759 16.9671 28.3879 16.9997L28.2331 17ZM0 12.5419C0.0112561 12.547 0.0128193 12.5572 0.013601 12.5683C0.0244735 12.7288 0.050341 12.8878 0.0908301 13.043C0.385989 14.1555 1.05791 14.8894 2.11723 15.2049C2.74257 15.391 3.37088 15.3373 3.98417 15.1172C4.37892 14.9756 4.72957 14.7578 5.01082 14.4273C5.02376 14.4142 5.03407 14.3984 5.04116 14.381C5.04824 14.3636 5.05196 14.3449 5.05209 14.326C5.05105 13.5147 5.05105 12.7035 5.05209 11.8923C5.05209 11.8491 5.04474 11.8297 4.99737 11.8299C4.26563 11.8314 3.53388 11.8314 2.80213 11.8299C2.75398 11.8299 2.74742 11.8501 2.7482 11.8926C2.75039 12.0018 2.75242 12.1112 2.7482 12.2203C2.74554 12.2829 2.76102 12.3024 2.82418 12.3024C3.39182 12.2996 3.95947 12.3024 4.52712 12.2994C4.58637 12.2994 4.60701 12.3121 4.6067 12.3796C4.60399 12.9723 4.60399 13.5651 4.6067 14.1578C4.60751 14.1793 4.60351 14.2007 4.59501 14.2203C4.58651 14.2398 4.57375 14.257 4.55776 14.2705C4.45066 14.3702 4.33263 14.4562 4.20617 14.5267C3.88412 14.7074 3.53581 14.7887 3.17577 14.8224C2.56278 14.8798 1.98451 14.768 1.47892 14.3843C0.642065 13.7491 0.35613 12.8612 0.478383 11.8184C0.564836 11.0817 0.943476 10.5117 1.51472 10.0883C2.31328 9.49699 3.19281 9.46233 4.10565 9.70953C4.24338 9.74698 4.36907 9.81876 4.50336 9.89218C4.50336 9.74271 4.49711 9.60359 4.50555 9.46512C4.51086 9.37938 4.47694 9.349 4.40674 9.32354C4.173 9.23944 3.93071 9.18431 3.68479 9.15929C3.30819 9.11872 2.93111 9.10475 2.55653 9.16898C2.04266 9.25401 1.55751 9.47383 1.14593 9.80808C0.58766 10.2609 0.209957 10.8394 0.0583133 11.5697C0.0364265 11.6748 0.0201674 11.7811 0.00125094 11.8867L0 12.5419ZM19.3868 15.0641C19.3868 15.1505 19.4104 15.1655 19.4859 15.1643C19.7905 15.1597 20.0951 15.1597 20.3997 15.1643C20.4671 15.1643 20.4863 15.1499 20.486 15.0758C20.4829 14.3738 20.4852 13.6719 20.4826 12.9699C20.4826 12.9014 20.4996 12.8845 20.564 12.8853C20.8504 12.8891 21.1368 12.887 21.4239 12.887C21.713 12.8892 22.0007 12.8437 22.2764 12.7521C22.7644 12.5862 23.1196 12.2656 23.3082 11.7589C23.4371 11.4122 23.4459 11.0508 23.4052 10.6863C23.3358 10.0655 23.0283 9.62379 22.4888 9.36132C22.1136 9.179 21.7146 9.11592 21.3047 9.11494C20.695 9.11494 20.0861 9.11592 19.4769 9.11297C19.4073 9.11297 19.3871 9.12939 19.3873 9.20528C19.3901 10.1831 19.3892 11.161 19.3892 12.1388C19.389 13.1135 19.3903 14.089 19.3868 15.0641ZM20.4841 10.0673C20.4841 10.0326 20.4751 9.99664 20.531 9.99812C20.8665 10.007 21.2033 9.98071 21.5378 10.0183C21.6726 10.0322 21.8042 10.0698 21.9271 10.1297C22.2177 10.2736 22.3384 10.5341 22.3667 10.8507C22.3881 11.0894 22.3667 11.3251 22.2698 11.5472C22.1327 11.8593 21.879 11.989 21.5744 12.0279C21.2272 12.0726 20.8773 12.0386 20.5289 12.0483C20.4701 12.0499 20.4846 12.0086 20.4845 11.9764C20.4845 11.6596 20.4845 11.3427 20.4845 11.0258L20.4841 10.0673ZM26.4561 15.0944C26.463 15.1436 26.4799 15.165 26.5343 15.1642C26.7763 15.1601 27.0189 15.1589 27.2604 15.1642C27.3325 15.1658 27.3442 15.1421 27.3441 15.073C27.3419 14.2079 27.3414 13.3424 27.3425 12.4763C27.3425 12.31 27.3456 12.1434 27.3269 11.9775C27.293 11.6725 27.2209 11.3813 27.0397 11.1328C26.8165 10.8266 26.5039 10.6742 26.1567 10.5907C25.7743 10.4988 25.3869 10.5047 24.9998 10.5482C24.6872 10.5833 24.3884 10.6715 24.1119 10.8342C24.0615 10.8637 24.0376 10.8948 24.0393 10.9605C24.0446 11.1678 24.0412 11.3754 24.0412 11.583C24.0412 11.7513 24.0412 11.7525 24.1875 11.6773C24.6659 11.426 25.2088 11.3439 25.7352 11.4432C26.0157 11.4938 26.2182 11.6526 26.289 11.958C26.3143 12.0721 26.3294 12.1884 26.334 12.3055C26.3363 12.3548 26.3251 12.3768 26.2738 12.384C26.034 12.4169 25.7951 12.457 25.5547 12.4915C25.2015 12.542 24.8496 12.5992 24.5166 12.7391C24.0267 12.9448 23.7079 13.3122 23.7117 13.9163C23.7142 14.2951 23.8167 14.6249 24.0829 14.8884C24.2806 15.0838 24.5207 15.1896 24.7855 15.2333C25.1476 15.2933 25.5079 15.2956 25.8486 15.128C26.0609 15.0237 26.2339 14.8629 26.3911 14.655C26.4151 14.8146 26.4367 14.9542 26.4561 15.0944ZM26.3343 13.9158C26.3363 13.9468 26.332 13.9778 26.3219 14.0069C26.3118 14.036 26.296 14.0625 26.2755 14.0849C25.9341 14.4932 25.393 14.5425 25.0322 14.4083C24.8413 14.337 24.7366 14.1821 24.7139 13.9717C24.69 13.7483 24.7375 13.5525 24.9304 13.4224C25.0976 13.3098 25.2867 13.2582 25.4787 13.223C25.7424 13.1751 26.0084 13.1409 26.2723 13.0936C26.334 13.0826 26.334 13.1074 26.3334 13.1542C26.3318 13.2881 26.3334 13.4218 26.3334 13.5556C26.3329 13.6757 26.329 13.7959 26.3343 13.9158ZM10.9268 14.6514C10.0693 14.8099 9.21574 14.2795 8.94137 13.4083C8.79817 12.9546 8.80708 12.486 8.88916 12.0242C9.0372 11.1903 9.78948 10.5467 10.5985 10.5401C11.5955 10.5319 12.3878 11.356 12.3888 12.4016C12.3895 12.9942 12.3895 13.5869 12.3888 14.1795C12.3888 14.4827 12.3903 14.7857 12.3874 15.0889C12.3874 15.1472 12.4031 15.1632 12.4576 15.1609C12.5589 15.1566 12.6609 15.155 12.7622 15.1609C12.8299 15.1651 12.8421 15.139 12.8419 15.0737C12.8398 14.1778 12.8395 13.2821 12.841 12.3863C12.8409 12.2556 12.8292 12.1251 12.8061 11.9966C12.5655 10.6497 11.3053 9.79215 10.0526 10.151C9.20573 10.3935 8.67685 10.9927 8.45142 11.8834C8.37091 12.202 8.39045 12.5291 8.39655 12.8525C8.40999 13.588 8.7028 14.1841 9.24309 14.6464C9.62439 14.9728 10.0676 15.1376 10.5579 15.1568C10.7929 15.1677 11.0274 15.1258 11.2457 15.0339C11.2715 15.0229 11.3014 15.0175 11.3011 14.9766C11.3003 14.8327 11.3011 14.6887 11.3011 14.5354C11.1802 14.5867 11.0548 14.6255 10.9268 14.6514ZM13.8936 13.7048C13.8681 13.7365 13.8712 13.7659 13.8832 13.8033C13.9427 13.9838 14.03 14.1528 14.1417 14.3035C14.7931 15.1929 16.0958 15.4263 17.0051 14.8141C17.6113 14.4056 17.9744 13.8308 18.065 13.0765C18.0913 12.8594 18.0778 12.6399 18.0757 12.4218C18.0666 11.511 17.6733 10.8271 16.9336 10.3698C16.4384 10.0637 15.9018 9.99204 15.339 10.1399C14.9699 10.2371 14.6648 10.448 14.376 10.6929C13.9089 11.0889 13.5318 11.5735 13.1636 12.0654C13.1421 12.094 13.1397 12.1237 13.1399 12.1569C13.1399 12.3481 13.1399 12.5393 13.1408 12.7304C13.1408 12.7492 13.1288 12.7733 13.1505 12.7871C13.3068 12.5846 13.4601 12.3809 13.6195 12.1823C13.9678 11.7471 14.3282 11.3231 14.7509 10.9642C15.3983 10.4147 16.2561 10.3972 16.915 10.9233C17.3098 11.2384 17.546 11.6562 17.6128 12.1748C17.6401 12.3868 17.6237 12.6002 17.6254 12.8129C17.6293 13.3178 17.458 13.7503 17.1267 14.1146C16.4099 14.903 15.1971 14.8647 14.528 14.0325C14.3661 13.8309 14.2481 13.5946 14.1823 13.3401C14.0791 13.4696 13.9874 13.5875 13.8936 13.7048ZM4.5043 10.3393C4.50821 10.2619 4.47897 10.2292 4.41753 10.1995C3.84676 9.92322 3.24831 9.85621 2.63407 9.95919C1.68591 10.1179 0.711164 10.9881 0.779482 12.3229C0.804339 12.8053 0.933784 13.2459 1.21722 13.6292C1.57679 14.1159 2.04829 14.403 2.63407 14.4745C2.94189 14.5121 3.24753 14.4843 3.54957 14.4191C3.78797 14.3677 4.01466 14.2813 4.21133 14.1244C4.24259 14.1 4.27214 14.0778 4.27198 14.0274C4.27042 13.5849 4.27042 13.1424 4.27198 12.6999C4.27198 12.661 4.25963 12.6478 4.22227 12.648C3.74837 12.649 3.27447 12.649 2.80057 12.648C2.75898 12.648 2.74742 12.6626 2.7482 12.7047C2.75054 12.8167 2.75273 12.9289 2.7482 13.0406C2.74538 13.1044 2.76258 13.1227 2.82464 13.1219C3.14497 13.1184 3.46561 13.1219 3.78547 13.1192C3.83456 13.1192 3.8541 13.1296 3.85317 13.1864C3.84988 13.3802 3.85035 13.5742 3.85317 13.7682C3.85395 13.8175 3.83753 13.8377 3.79376 13.8556C3.53847 13.9617 3.27129 13.9993 3.00021 14.0142C2.69629 14.0307 2.40285 13.9837 2.13052 13.8336C1.41576 13.4407 1.12529 12.6822 1.26287 11.8537C1.3637 11.2459 1.73765 10.8496 2.25059 10.5758C2.80854 10.2778 4.00153 10.3309 4.50336 10.802C4.50211 10.6384 4.49664 10.4882 4.5043 10.3388V10.3393ZM14.4798 12.9637C14.4668 12.9785 14.4579 12.9967 14.454 13.0164C14.4501 13.0361 14.4514 13.0565 14.4576 13.0755C14.5298 13.3751 14.6585 13.6438 14.8641 13.8664C15.2549 14.2898 15.7266 14.4436 16.2664 14.2718C16.8014 14.1016 17.1342 13.7133 17.2651 13.1401C17.3184 12.9059 17.291 12.6672 17.2963 12.4304C17.3043 12.0293 17.1745 11.6791 16.9146 11.3887C16.5609 10.9945 16.1271 10.8126 15.6109 10.9196C15.266 10.991 14.9846 11.1968 14.7407 11.4537C14.1924 12.0328 13.6778 12.6461 13.1998 13.2904C13.1594 13.3446 13.1372 13.3971 13.1391 13.4679C13.1436 13.6535 13.1402 13.8393 13.1413 14.0251C13.1413 14.0471 13.13 14.0732 13.1533 14.0949C13.1671 14.077 13.1801 14.0606 13.1926 14.0436C13.6101 13.4748 14.0491 12.9248 14.5025 12.3868C14.7214 12.1271 14.938 11.8643 15.1904 11.6383C15.4925 11.367 15.8376 11.2806 16.2142 11.4306C16.5688 11.5718 16.7759 11.8528 16.8348 12.2456C16.8638 12.4376 16.8427 12.6329 16.8458 12.8265C16.8472 12.9689 16.8198 13.1099 16.7656 13.2403C16.5749 13.7133 16.0519 13.9774 15.6098 13.8183C15.3676 13.7311 15.1966 13.5507 15.0604 13.3306C14.9163 13.0975 14.8372 12.84 14.8087 12.5422C14.6902 12.6948 14.5866 12.8306 14.4798 12.9637ZM10.7278 13.8574C10.2394 13.9204 9.76494 13.5813 9.65691 13.0769C9.60141 12.8183 9.61642 12.5534 9.63612 12.2932C9.68833 11.5974 10.3809 11.1587 11.0194 11.4501C11.403 11.6252 11.6017 11.9545 11.6045 12.3944C11.6103 13.2876 11.6069 14.1809 11.6045 15.0741C11.6045 15.1399 11.6169 15.1658 11.6844 15.1612C11.7806 15.1553 11.8771 15.1553 11.9733 15.1612C12.0391 15.1651 12.0615 15.1499 12.0612 15.0735C12.058 14.1857 12.0593 13.2979 12.0591 12.4102C12.0587 12.3119 12.0498 12.2139 12.0326 12.1173C11.9084 11.4039 11.3427 10.904 10.6412 10.8884C9.98115 10.8737 9.36347 11.3811 9.2137 12.0545C9.15789 12.3059 9.17353 12.5595 9.17368 12.8124C9.17368 13.6337 9.80355 14.3128 10.5843 14.3362C10.8083 14.3429 11.0255 14.3033 11.2231 14.1837C11.2543 14.1645 11.2989 14.152 11.2989 14.1C11.2989 13.9484 11.2989 13.7968 11.2989 13.631C11.1207 13.7646 10.9331 13.8309 10.728 13.8574H10.7278ZM5.55893 15.074C5.55893 15.1397 5.57065 15.1665 5.6385 15.1612C5.72136 15.1546 5.80515 15.1596 5.88864 15.1596C6.01042 15.1596 6.01042 15.1596 6.01042 15.0282C6.01042 14.1514 6.01042 13.2746 6.01042 12.3978C6.01042 11.8857 6.1555 11.4302 6.50365 11.0598C7.00095 10.5313 7.89299 10.3805 8.52458 10.7175C8.5768 10.7455 8.60275 10.7399 8.63808 10.6916C8.68342 10.6288 8.73814 10.5735 8.78926 10.5152C8.90682 10.3813 8.90838 10.3784 8.75002 10.2956C8.28102 10.0508 7.787 10.0124 7.28251 10.119C6.26728 10.3325 5.56502 11.2392 5.56049 12.3285C5.55877 12.7656 5.56049 13.2027 5.56049 13.6397C5.56033 14.118 5.56143 14.596 5.55893 15.074ZM6.33966 15.0696C6.33966 15.1376 6.3492 15.1681 6.42314 15.1615C6.5139 15.1531 6.60519 15.1531 6.69594 15.1615C6.77911 15.1697 6.79272 15.1371 6.79256 15.0574C6.79006 14.1675 6.79006 13.2776 6.79256 12.3877C6.7935 12.0396 6.91247 11.7438 7.19262 11.5444C7.48965 11.3328 7.81795 11.3107 8.15423 11.4263C8.20426 11.4427 8.22036 11.4333 8.23787 11.3865C8.27621 11.2821 8.32456 11.1821 8.38216 11.0879C8.41343 11.0378 8.3978 11.0194 8.3534 10.9992C8.21051 10.9335 8.06012 10.9066 7.90644 10.8938C7.00861 10.8192 6.332 11.5145 6.34075 12.4079C6.34497 12.831 6.34075 13.2541 6.34075 13.6772C6.3406 14.1414 6.34232 14.6055 6.33966 15.0696ZM14.0368 10.5155C14.0635 10.4919 14.0572 10.4615 14.0572 10.4324C14.0572 10.2193 14.0572 10.0063 14.0572 9.7933C14.0572 9.22252 14.0562 8.65175 14.0587 8.08097C14.0587 8.01527 14.0422 7.99721 13.9805 8.00049C13.8816 8.00625 13.7824 8.00625 13.6835 8.00049C13.6187 7.99655 13.602 8.0156 13.6022 8.08459C13.6046 9.02411 13.6051 9.96352 13.6037 10.9028V10.9961C13.7508 10.8167 13.8811 10.6532 14.0368 10.5155ZM14.8147 9.99368C14.8406 9.97939 14.838 9.95394 14.838 9.9293C14.838 9.30678 14.8382 8.68427 14.8388 8.06176C14.8388 8.01692 14.8284 7.99951 14.7826 8.00098C14.676 8.00427 14.5691 8.00575 14.4626 8.00098C14.402 7.99803 14.3852 8.0156 14.3854 8.08081C14.3877 8.79333 14.3868 9.50602 14.3873 10.2185C14.3873 10.2415 14.3798 10.2665 14.3976 10.293C14.5333 10.1859 14.6654 10.0761 14.8147 9.99368Z" fill="#01AE41"/>
</svg>
