<svg viewBox="0 0 24 24" fill="none" xmlns="http://www.w3.org/2000/svg">
<path fill-rule="evenodd" clip-rule="evenodd" d="M20.9543 8.29207C20.9121 7.33565 20.7574 6.67813 20.5358 6.10837C20.3072 5.50359 19.9555 4.96214 19.4947 4.51202C19.0445 4.0549 18.4994 3.69969 17.9015 3.4747C17.3283 3.25315 16.6741 3.09848 15.7175 3.05632C14.7538 3.01058 14.4478 3 12.0035 3C9.55919 3 9.25324 3.01058 8.29308 3.05274C7.33648 3.09491 6.67883 3.24971 6.1091 3.47113C5.50407 3.69969 4.96251 4.05133 4.51231 4.51202C4.0551 4.96214 3.69996 5.50717 3.47479 6.10494C3.2532 6.67813 3.0985 7.33208 3.05633 8.28849C3.01058 9.25205 3 9.55794 3 12.0018C3 14.4456 3.01058 14.7515 3.05275 15.7115C3.09493 16.6679 3.24976 17.3254 3.47136 17.8952C3.69996 18.5 4.0551 19.0414 4.51231 19.4916C4.96251 19.9487 5.50764 20.3039 6.10553 20.5289C6.67883 20.7504 7.33291 20.9051 8.28964 20.9473C9.24967 20.9896 9.55576 21 12.0001 21C14.4444 21 14.7503 20.9896 15.7105 20.9473C16.6671 20.9051 17.3247 20.7504 17.8945 20.5289C19.1044 20.0612 20.061 19.1048 20.5288 17.8952C20.7502 17.322 20.9051 16.6679 20.9472 15.7115C20.9894 14.7515 21 14.4456 21 12.0018C21 9.55794 20.9964 9.25205 20.9543 8.29207ZM12 7C9.23963 7 7 9.23948 7 12C7 14.7605 9.23963 17 12 17C14.7605 17 17 14.7605 17 12C17 9.23948 14.7605 7 12 7ZM12 15.2434C10.2092 15.2434 8.75662 13.7909 8.75662 12C8.75662 10.2091 10.2092 8.75662 12 8.75662C13.7909 8.75662 15.2434 10.2091 15.2434 12C15.2434 13.7909 13.7909 15.2434 12 15.2434ZM16.8116 8.27451C17.408 8.27451 17.8914 7.79115 17.8914 7.19502C17.8914 6.59876 17.408 6.11554 16.8116 6.11554C16.2154 6.11554 15.7319 6.59876 15.7319 7.19502C15.7319 7.79115 16.2154 8.27451 16.8116 8.27451Z" fill="currentColor"/>
</svg>
