<svg viewBox="0 0 24 24" fill="none" xmlns="http://www.w3.org/2000/svg">
<path fill-rule="evenodd" clip-rule="evenodd" d="M5.38447 3C4.06966 3 3 4.07086 3 5.38711C3 6.70395 4.06966 7.77522 5.38447 7.77522C6.69823 7.77522 7.76702 6.70389 7.76702 5.38711C7.76707 4.07086 6.69823 3 5.38447 3ZM7.19003 8.78368H3.57652C3.41614 8.78368 3.28619 8.91398 3.28619 9.07465V20.7089C3.28619 20.8697 3.41614 20.9999 3.57652 20.9999H7.19003C7.3504 20.9999 7.48035 20.8697 7.48035 20.7089V9.07465C7.48035 8.91398 7.3504 8.78368 7.19003 8.78368ZM13.2062 9.83032C13.8569 9.11985 14.9298 8.49457 16.3811 8.49457C20.4511 8.49457 20.9999 11.4431 20.9999 14.3274V20.7091C20.9999 20.8698 20.8699 21 20.7095 21H17.1026C16.9422 21 16.8123 20.8698 16.8123 20.7091V15.0525C16.8123 13.4687 16.6955 12.2573 15.2261 12.2573C13.8769 12.2573 13.3512 13.013 13.3512 14.9527V20.709C13.3512 20.8697 13.2213 21 13.0609 21H9.4553C9.29493 21 9.16498 20.8697 9.16498 20.709V9.07469C9.16498 8.91402 9.29493 8.78373 9.4553 8.78373H12.9159C13.0762 8.78373 13.2062 8.91402 13.2062 9.07469V9.83032Z" fill="currentColor"/>
</svg>
