<svg width="32" height="24" viewBox="0 0 32 24" fill="none" xmlns="http://www.w3.org/2000/svg">
<path d="M8.61388 20.8889C8.61388 20.5164 8.85767 20.2092 9.2596 20.2092C9.64175 20.2092 9.90531 20.5033 9.90531 20.8889C9.90531 21.2745 9.64834 21.5686 9.2596 21.5686C8.86426 21.5686 8.61388 21.2615 8.61388 20.8889ZM10.3468 20.8889V19.8301H9.88555V20.085C9.734 19.8954 9.51656 19.7778 9.21347 19.7778C8.61388 19.7778 8.14606 20.2418 8.14606 20.8889C8.14606 21.536 8.61388 22 9.21347 22C9.51656 22 9.74059 21.8824 9.88555 21.6928V21.9477H10.3468V20.8889ZM26.0153 20.8889C26.0153 20.5164 26.2591 20.2092 26.661 20.2092C27.0432 20.2092 27.3067 20.5033 27.3067 20.8889C27.3067 21.2745 27.0498 21.5686 26.661 21.5686C26.2657 21.5686 26.0153 21.2615 26.0153 20.8889ZM27.7416 20.8889V18.9804H27.2804V20.085C27.1354 19.8954 26.9114 19.7778 26.6083 19.7778C26.0087 19.7778 25.5409 20.2418 25.5409 20.8889C25.5409 21.536 26.0087 22 26.6083 22C26.9114 22 27.1354 21.8824 27.2804 21.6928V21.9477H27.7416V20.8889ZM16.0989 20.1896C16.3954 20.1896 16.5931 20.3726 16.6392 20.7059H15.5323C15.585 20.3987 15.7695 20.1896 16.0989 20.1896ZM16.1121 19.7778C15.4862 19.7778 15.0513 20.2288 15.0513 20.8889C15.0513 21.5621 15.5059 22 16.145 22C16.4679 22 16.7578 21.9216 17.0214 21.7059L16.7908 21.366C16.6129 21.5098 16.3823 21.5883 16.1714 21.5883C15.8749 21.5883 15.5982 21.451 15.5323 21.0719H17.1136C17.1202 21.0131 17.1202 20.9543 17.1202 20.8954C17.1202 20.2288 16.7051 19.7778 16.1121 19.7778ZM21.7127 20.8889C21.7127 20.5164 21.9565 20.2092 22.3584 20.2092C22.7406 20.2092 22.9976 20.5033 22.9976 20.8889C22.9976 21.2745 22.7406 21.5686 22.3584 21.5686C21.9565 21.5686 21.7127 21.2615 21.7127 20.8889ZM23.439 20.8889V19.8301H22.9778V20.085C22.8328 19.8954 22.6088 19.7778 22.3057 19.7778C21.7061 19.7778 21.2383 20.2418 21.2383 20.8889C21.2383 21.536 21.7061 22 22.3057 22C22.6088 22 22.8328 21.8824 22.9778 21.6928V21.9477H23.439V20.8889ZM19.0903 20.8889C19.0903 21.5294 19.5384 22 20.2302 22C20.5531 22 20.7639 21.9281 21.0011 21.7451L20.7771 21.3726C20.5992 21.4967 20.4213 21.5621 20.217 21.5621C19.848 21.5556 19.5713 21.2941 19.5713 20.8824C19.5713 20.4771 19.8414 20.2092 20.217 20.2026C20.4147 20.2026 20.5992 20.268 20.7771 20.3922L21.0011 20.0196C20.7705 19.8366 20.5531 19.7647 20.2302 19.7647C19.5449 19.7778 19.0903 20.2484 19.0903 20.8889ZM25.0731 19.7778C24.8029 19.7778 24.6316 19.902 24.513 20.085V19.8301H24.0518V21.9477H24.513V20.7582C24.513 20.4118 24.6646 20.2157 24.9677 20.2157C25.0599 20.2157 25.1587 20.2288 25.2576 20.268L25.4025 19.8366C25.2971 19.7974 25.1653 19.7778 25.0731 19.7778ZM12.6397 20C12.4157 19.8562 12.106 19.7778 11.77 19.7778C11.2297 19.7778 10.8805 20.0327 10.8805 20.451C10.8805 20.7974 11.1374 21.0066 11.6184 21.0784L11.8359 21.1111C12.0928 21.1503 12.2114 21.2157 12.2114 21.3333C12.2114 21.4967 12.0401 21.5883 11.7239 21.5883C11.401 21.5883 11.1704 21.4837 11.0123 21.366L10.7948 21.7255C11.0518 21.915 11.3681 22 11.7173 22C12.33 22 12.6924 21.7124 12.6924 21.3072C12.6924 20.9347 12.4091 20.7386 11.9479 20.6732L11.7305 20.6405C11.5262 20.6144 11.3681 20.5752 11.3681 20.4314C11.3681 20.2745 11.5196 20.183 11.7766 20.183C12.0467 20.183 12.3103 20.2811 12.4421 20.366L12.6397 20ZM18.6225 19.7778C18.3523 19.7778 18.181 19.902 18.0558 20.085V19.8301H17.5946V21.9477H18.0558V20.7582C18.0558 20.4118 18.2074 20.2157 18.5105 20.2157C18.6027 20.2157 18.7016 20.2288 18.8004 20.268L18.9454 19.8366C18.8531 19.7974 18.7147 19.7778 18.6225 19.7778ZM14.6625 19.8301H13.9048V19.1896H13.437V19.8301H13.0021V20.2484H13.437V21.2157C13.437 21.7059 13.6281 22 14.1815 22C14.3792 22 14.6164 21.9412 14.7614 21.8366L14.6296 21.4445C14.4912 21.5229 14.3397 21.5621 14.2211 21.5621C13.9905 21.5621 13.9114 21.4183 13.9114 21.2092V20.2549H14.6625V19.8301ZM7.73096 21.9477V20.6209C7.73096 20.1177 7.4081 19.7843 6.89416 19.7778C6.62402 19.7713 6.34069 19.8562 6.14302 20.1503C5.99806 19.9151 5.76086 19.7778 5.438 19.7778C5.20739 19.7778 4.98996 19.8432 4.81205 20.0915V19.8301H4.34424V21.9477H4.81205V20.7778C4.81205 20.4118 5.01631 20.2157 5.33258 20.2157C5.64226 20.2157 5.79381 20.4183 5.79381 20.7713V21.9477H6.26162V20.7778C6.26162 20.4118 6.47906 20.2157 6.78215 20.2157C7.09842 20.2157 7.24997 20.4183 7.24997 20.7713V21.9477H7.73096Z" fill="#010202"/>
<path d="M19.5119 3.70587H12.4814V16.2353H19.5119V3.70587Z" fill="#EB611D"/>
<path d="M12.9295 9.96733C12.9295 7.42484 14.1287 5.1634 16 3.69935C14.6295 2.63399 12.9098 2 11.0319 2C6.59757 2 3 5.56863 3 9.96733C3 14.3726 6.59757 17.9347 11.0319 17.9347C12.9032 17.9347 14.6295 17.3007 15.9934 16.2288C14.1287 14.7778 12.9295 12.5163 12.9295 9.96733Z" fill="#E41322"/>
<path d="M29 9.96733C29 14.3726 25.4024 17.9347 20.9681 17.9347C19.0968 17.9347 17.3705 17.3007 16 16.2288C17.8713 14.7713 19.0704 12.5033 19.0704 9.96079C19.0704 7.4183 17.8713 5.15687 16 3.69281C17.3639 2.63399 19.0902 2 20.9615 2C25.4024 2 29 5.56863 29 9.96733Z" fill="#F59E21"/>
</svg>
