<svg viewBox="0 0 24 24" fill="none" xmlns="http://www.w3.org/2000/svg">
<path d="M21.0014 2L13.2012 7.94359L14.6518 4.4359L21.0014 2Z" fill="#E17726"/>
<path d="M2.9751 2L10.7278 7.99231L9.34846 4.4359L2.9751 2Z" fill="#E27625"/>
<path d="M18.1948 15.7628L16.1021 19.0269L20.5729 20.2936L21.8333 15.8359L18.1948 15.7628Z" fill="#E27625"/>
<path d="M2.1665 15.8359L3.42691 20.2936L7.87399 19.0269L5.80503 15.7628L2.1665 15.8359Z" fill="#E27625"/>
<path d="M7.63604 10.2577L6.39941 12.182L10.7989 12.3769L10.6563 7.50513L7.63604 10.2577Z" fill="#E27625"/>
<path d="M16.3641 10.2577L13.2963 7.45642L13.2012 12.3769L17.6007 12.1821L16.3641 10.2577Z" fill="#E27625"/>
<path d="M7.87402 19.0269L10.5375 17.7115L8.23074 15.8602L7.87402 19.0269Z" fill="#E27625"/>
<path d="M13.4624 17.7115L16.1021 19.0269L15.7454 15.8602L13.4624 17.7115Z" fill="#E27625"/>
<path d="M16.1021 19.0269L13.4624 17.7115L13.6764 19.4654L13.6527 20.2205L16.1021 19.0269Z" fill="#D5BFB2"/>
<path d="M7.87402 19.0269L10.3473 20.2205L10.3235 19.4654L10.5375 17.7115L7.87402 19.0269Z" fill="#D5BFB2"/>
<path d="M10.3948 14.691L8.18311 14.0333L9.72888 13.3026L10.3948 14.691Z" fill="#233447" stroke="#233447" stroke-linecap="round" stroke-linejoin="round"/>
<path d="M13.6055 14.691L14.2476 13.3026L15.8171 14.0333L13.6055 14.691Z" fill="#233447" stroke="#233447" stroke-linecap="round" stroke-linejoin="round"/>
<path d="M7.87414 19.0269L8.25464 15.7628L5.80518 15.8359L7.87414 19.0269Z" fill="#CC6228"/>
<path d="M15.7456 15.7628L16.1023 19.0269L18.1951 15.8359L15.7456 15.7628Z" fill="#CC6228"/>
<path d="M17.6007 12.1821L13.2012 12.3769L13.6055 14.691L14.2475 13.3026L15.8171 14.0334L17.6007 12.1821Z" fill="#CC6228"/>
<path d="M8.183 14.0334L9.72878 13.3026L10.3947 14.691L10.7989 12.3769L6.39941 12.1821L8.183 14.0334Z" fill="#CC6228"/>
<path d="M6.39941 12.1821L8.23057 15.8603L8.18301 14.0333L6.39941 12.1821Z" fill="#E27525"/>
<path d="M15.8169 14.0333L15.7456 15.8603L17.6005 12.1821L15.8169 14.0333Z" fill="#E27525"/>
<path d="M10.7988 12.377L10.3945 14.6911L10.8939 17.4436L11.0128 13.8141L10.7988 12.377Z" fill="#E27525"/>
<path d="M13.2008 12.377L12.9868 13.8141L13.0819 17.4436L13.6051 14.6911L13.2008 12.377Z" fill="#E27525"/>
<path d="M13.6052 14.691L13.082 17.4436L13.4625 17.7115L15.7455 15.8602L15.8169 14.0333L13.6052 14.691Z" fill="#F5841F"/>
<path d="M8.18311 14.0333L8.23067 15.8602L10.5374 17.7115L10.8942 17.4436L10.3948 14.691L8.18311 14.0333Z" fill="#F5841F"/>
<path d="M13.6529 20.2205L13.6766 19.4654L13.4626 19.2949H10.5137L10.3235 19.4654L10.3473 20.2205L7.87402 19.0269L8.73015 19.7577L10.49 21H13.4864L15.2462 19.7577L16.1023 19.0269L13.6529 20.2205Z" fill="#C0AC9D"/>
<path d="M13.4624 17.7116L13.0819 17.4436H10.894L10.5373 17.7116L10.3232 19.4654L10.5135 19.2949H13.4624L13.6764 19.4654L13.4624 17.7116Z" fill="#161616"/>
<path d="M21.334 8.33333L21.9999 5.04487L21.001 2L13.4624 7.74872L16.3637 10.2577L20.4541 11.4756L21.3578 10.4038L20.9773 10.1115L21.5956 9.52692L21.12 9.13718L21.7383 8.65L21.334 8.33333Z" fill="#763E1A"/>
<path d="M2 5.04487L2.66587 8.33333L2.23781 8.65L2.85612 9.13718L2.3805 9.52692L3.02259 10.1115L2.61831 10.4038L3.522 11.4756L7.63615 10.2577L10.5375 7.74872L2.97503 2L2 5.04487Z" fill="#763E1A"/>
<path d="M20.4543 11.4756L16.3639 10.2577L17.6005 12.182L15.7456 15.8603L18.1951 15.8359H21.8336L20.4543 11.4756Z" fill="#F5841F"/>
<path d="M7.63618 10.2577L3.52203 11.4756L2.1665 15.8359H5.80503L8.23071 15.8603L6.39956 12.182L7.63618 10.2577Z" fill="#F5841F"/>
<path d="M13.2012 12.3769L13.4628 7.74873L14.6518 4.43591H9.34863L10.5377 7.74873L10.7993 12.3769L10.8944 13.8385V17.4436H13.0823V13.8385L13.2012 12.3769Z" fill="#F5841F"/>
</svg>
