<svg viewBox="0 0 24 24" fill="none" xmlns="http://www.w3.org/2000/svg">
<path d="M19.7708 8.28746C19.1391 8.28746 18.5833 8.55073 18.1741 8.9609C16.6699 7.91443 14.6416 7.24099 12.3941 7.16919L13.5616 2.86407L17.2791 3.70256C17.2791 4.61699 18.0208 5.36387 18.9308 5.36387C19.8583 5.36387 20.6041 4.59718 20.6041 3.68193C20.6041 2.76668 19.8633 1.99999 18.9316 1.99999C18.2824 1.99999 17.7224 2.39365 17.4433 2.93174L13.3375 2.01732C13.1308 1.96202 12.9283 2.11058 12.8733 2.31855L11.5916 7.16507C9.36162 7.25832 7.35496 7.93094 5.8458 8.97823C5.43663 8.55073 4.85913 8.28746 4.22747 8.28746C1.88414 8.28746 1.11664 11.4475 3.26247 12.5278C3.18663 12.8621 3.15247 13.2186 3.15247 13.5743C3.15247 17.1239 7.13163 20 12.0175 20C16.9241 20 20.9033 17.1239 20.9033 13.5743C20.9033 13.2186 20.8658 12.8455 20.7733 12.5105C22.8758 11.426 22.1016 8.28911 19.7708 8.28746ZM6.66746 12.7523C6.66746 11.8205 7.40913 11.0703 8.34079 11.0703C9.25079 11.0703 9.99329 11.8156 9.99329 12.7523C9.99329 13.6675 9.25162 14.4136 8.34079 14.4136C7.41329 14.4177 6.66746 13.6675 6.66746 12.7523ZM15.6999 16.712C14.1658 18.2537 9.83662 18.2537 8.30163 16.712C8.13246 16.5635 8.13246 16.301 8.30163 16.1319C8.44912 15.9833 8.71079 15.9833 8.85829 16.1319C10.03 17.3393 13.9166 17.3599 15.1391 16.1319C15.2866 15.9833 15.5483 15.9833 15.6958 16.1319C15.8683 16.3019 15.8683 16.5643 15.6999 16.712ZM15.6658 14.4169C14.7558 14.4169 14.0141 13.6717 14.0141 12.7572C14.0141 11.8255 14.7558 11.0753 15.6658 11.0753C16.5933 11.0753 17.3391 11.8205 17.3391 12.7572C17.3349 13.6675 16.5933 14.4169 15.6658 14.4169Z" fill="currentColor"/>
</svg>
