<svg viewBox="0 0 24 24" fill="none" xmlns="http://www.w3.org/2000/svg">
<path d="M1.38859 11.6309L6.45783 13.4089L8.41994 19.3386C8.54549 19.7184 9.03968 19.8588 9.3677 19.6068L12.1934 17.4421C12.4896 17.2153 12.9115 17.204 13.221 17.4151L18.3175 20.8923C18.6684 21.1319 19.1656 20.9512 19.2536 20.5528L22.987 3.67669C23.0831 3.24143 22.628 2.87833 22.187 3.03862L1.38265 10.5805C0.869238 10.7666 0.873711 11.4496 1.38859 11.6309ZM8.10373 12.4624L18.0109 6.72842C18.189 6.62567 18.3722 6.85191 18.2193 6.98519L10.043 14.1273C9.75556 14.3787 9.57018 14.7151 9.51767 15.0803L9.23915 17.0199C9.20226 17.2789 8.81513 17.3046 8.73909 17.054L7.66791 13.517C7.54522 13.1136 7.72401 12.6827 8.10373 12.4624Z" fill="currentColor"/>
</svg>
