<svg viewBox="0 0 24 24" fill="none" xmlns="http://www.w3.org/2000/svg">
<path d="M21.5467 5.96192C21.2325 6.1066 20.9095 6.2287 20.5794 6.32783C20.9702 5.86902 21.2681 5.32916 21.45 4.73839C21.4908 4.60597 21.4485 4.46103 21.3437 4.37442C21.239 4.28775 21.0935 4.27737 20.9782 4.3483C20.2772 4.77992 19.521 5.0901 18.728 5.27149C17.9293 4.46116 16.8444 4 15.7228 4C13.3554 4 11.4293 5.99956 11.4293 8.45734C11.4293 8.65091 11.4411 8.84341 11.4645 9.03323C8.52677 8.76545 5.79561 7.26636 3.92014 4.87791C3.8533 4.79278 3.75033 4.7469 3.64491 4.75567C3.53943 4.76425 3.44465 4.826 3.39136 4.92091C3.01098 5.59855 2.80988 6.37358 2.80988 7.16214C2.80988 8.23617 3.17924 9.25521 3.83169 10.0515C3.6333 9.98013 3.44078 9.89098 3.25704 9.78509C3.1584 9.72809 3.03801 9.72896 2.94001 9.7873C2.84195 9.84564 2.78046 9.95294 2.77788 10.0702C2.77743 10.09 2.77743 10.1097 2.77743 10.1298C2.77743 11.7329 3.60852 13.1763 4.87917 13.963C4.77 13.9517 4.66091 13.9353 4.55252 13.9138C4.44078 13.8916 4.32588 13.9322 4.25052 14.0207C4.17504 14.1091 4.15007 14.2324 4.18485 14.3449C4.65517 15.8694 5.86607 16.9907 7.32993 17.3326C6.11581 18.1221 4.72736 18.5356 3.26982 18.5356C2.96569 18.5356 2.65982 18.517 2.36046 18.4803C2.21175 18.4619 2.06956 18.5531 2.01892 18.6999C1.96827 18.8468 2.02195 19.0105 2.14846 19.0947C4.02091 20.3412 6.186 21 8.40954 21C12.7808 21 15.5153 18.86 17.0394 17.0647C18.9401 14.8262 20.0301 11.8632 20.0301 8.93551C20.0301 8.8132 20.0283 8.68969 20.0247 8.56658C20.7746 7.98004 21.4202 7.27018 21.9456 6.45429C22.0254 6.33038 22.0167 6.16661 21.9243 6.05254C21.8319 5.93841 21.6781 5.9015 21.5467 5.96192Z" fill="currentColor"/>
</svg>
