<svg width="32" height="24" viewBox="0 0 32 24" fill="none" xmlns="http://www.w3.org/2000/svg">
<path fill-rule="evenodd" clip-rule="evenodd" d="M22.4626 7.36361L22.5129 7.37879L22.2252 9.42424L22.0095 9.34849C21.5779 9.12121 20.9306 8.9697 20.1394 8.9697C19.1324 8.9697 18.7009 9.42424 18.7009 9.80303C18.7009 10.2576 19.2763 10.5606 20.1394 11.0152C21.5779 11.697 22.2252 12.5303 22.2252 13.6667C22.2252 15.7121 20.499 17 17.8378 17C16.687 17 15.6081 16.7727 15.0327 16.4697L15.3923 14.2727L15.68 14.4242C16.5431 14.803 17.0466 14.9546 18.0535 14.9546C18.7728 14.9546 19.564 14.7273 19.564 14.0455C19.564 13.5909 19.2763 13.2879 18.2693 12.8333C17.2624 12.3788 16.0396 11.5455 16.0396 10.1818C16.0396 8.28788 17.8378 7 20.2832 7C21.2571 7 21.9619 7.21258 22.4626 7.36361ZM12.515 7.15153L10.9326 16.8485H13.45L15.0324 7.15153H12.515ZM28.9861 7.15153H27.0441C26.4687 7.15153 25.9652 7.30305 25.7494 7.98486L22.0093 16.8485H24.6705C24.6705 16.8485 25.1021 15.6364 25.174 15.4091H28.4107C28.4826 15.7121 28.6984 16.8485 28.6984 16.8485H31L28.9861 7.15153ZM25.8933 13.4394C26.109 12.9091 26.9002 10.7121 26.9002 10.7121C26.9002 10.7121 27.116 10.1818 27.2599 9.80305L27.4037 10.6364C27.4037 10.6364 27.9072 12.9849 27.9791 13.4394H25.8933ZM6.32935 13.8182L8.84675 7.15153H11.508L7.55209 16.8485H4.89083L2.66113 8.36365C4.2435 9.19699 5.68202 10.9394 6.11357 12.4546L6.32935 13.8182Z" fill="#0058A0"/>
<path d="M4.09977 7.15155H0V7.37882C3.16474 8.21216 5.25058 10.1061 6.11369 12.4546L5.25058 7.98488C5.03481 7.37882 4.60325 7.22731 4.09977 7.15155Z" fill="#FAA61A"/>
</svg>
