<svg viewBox="0 0 24 24" fill="none" xmlns="http://www.w3.org/2000/svg">
<path d="M4.91617 6.93133C8.82885 3.02289 15.1711 3.02289 19.0889 6.93133L19.5596 7.40117C19.757 7.59737 19.757 7.91231 19.5596 8.10851L17.95 9.71939C17.8538 9.81749 17.6919 9.81749 17.5957 9.71939L16.9478 9.074C14.2195 6.3479 9.79057 6.3479 7.06232 9.074L6.36887 9.76585C6.2727 9.86395 6.11072 9.86395 6.01455 9.76585L4.39987 8.15498C4.20247 7.95878 4.20247 7.64383 4.39987 7.44764L4.91617 6.93133ZM22.4195 10.2563L23.8519 11.6865C24.0494 11.8827 24.0494 12.1977 23.8519 12.3939L17.3882 18.8529C17.1908 19.049 16.8769 19.049 16.6795 18.8529L12.0886 14.268C12.038 14.2216 11.962 14.2216 11.9114 14.268L7.32553 18.8529C7.12812 19.049 6.8143 19.049 6.61689 18.8529L0.148054 12.399C-0.0493515 12.2028 -0.0493515 11.8879 0.148054 11.6917L1.58051 10.2615C1.77792 10.0653 2.09174 10.0653 2.28915 10.2615L6.8801 14.8463C6.93072 14.8928 7.00664 14.8928 7.05726 14.8463L11.6432 10.2615C11.8406 10.0653 12.1544 10.0653 12.3518 10.2615L16.9427 14.8463C16.9934 14.8928 17.0693 14.8928 17.1199 14.8463L21.7108 10.2615C21.9032 10.0601 22.2221 10.0601 22.4195 10.2563Z" fill="#3A99FB"/>
</svg>
