<?xml version="1.0" encoding="utf-8"?>
<!-- Generator: Adobe Illustrator 25.0.1, SVG Export Plug-In . SVG Version: 6.00 Build 0)  -->
<svg version="1.1" id="레이어_1" xmlns="http://www.w3.org/2000/svg" xmlns:xlink="http://www.w3.org/1999/xlink" x="0px"
	 y="0px" viewBox="0 0 500 500" style="enable-background:new 0 0 500 500;" xml:space="preserve">
<style type="text/css">
	.st0{fill:#C7C4C2;}
	.st1{fill:#535252;}
	.st2{fill:#FFFFFF;}
	.st3{fill:none;}
	.st4{fill:#3D3D3D;}
</style>
<path class="st4" d="M432.74,221.4c-4.66-4.69-10.82-7.28-17.36-7.28l-35.68,0v-76.08c-0.02-14.08-11.24-25.55-25.01-25.57H155.55
	c-13.77,0.02-24.98,11.49-25,25.58v76.07H95.13l-0.23,0c-13.51,0-24.61,11.24-24.74,25.07v136.68c0,11.97,9.52,21.7,21.23,21.7
	s21.23-9.74,21.23-21.7v-44.52h284.82v44.37c0,12.03,9.58,21.83,21.34,21.83c11.77,0,21.35-9.79,21.35-21.83v-136.5
	C440.06,232.46,437.45,226.13,432.74,221.4z M273.84,193.4c0.13-6.47,5.36-11.74,11.66-11.74l45.06,0l0.2,0
	c6.3,0,11.52,5.26,11.64,11.72v20.82l-68.56-0.02V193.4z M330.76,168.32l-45.02,0l-0.23,0c-13.51,0-24.61,11.24-24.74,25.07v20.81
	h-11.22v-20.83c-0.13-13.8-11.23-25.04-24.73-25.04l-45.02,0l-0.23,0c-13.51,0-24.61,11.24-24.74,25.07v20.81h-11.19v-76.07
	c0-6.75,5.35-12.24,11.94-12.24h199.18c6.58,0,11.94,5.49,11.94,12.24v76.07H355.5v-20.83
	C355.36,179.55,344.27,168.32,330.76,168.32z M167.91,193.4c0.13-6.47,5.36-11.74,11.66-11.74l45.06,0l0.19,0
	c6.3,0,11.52,5.26,11.64,11.71v20.83l-68.55-0.02V193.4z M427.11,303.19v14.87H83.25v-14.87H427.11z M83.19,239.25
	c0.12-6.48,5.35-11.74,11.68-11.74l0.06,0l0.38,0.04h319.9l0.2,0c6.3,0,11.53,5.26,11.65,11.71v50.63H83.19V239.25z M91.38,384.28
	c-4.49,0-8.14-3.75-8.14-8.35v-44.59h16.28v44.59C99.52,380.54,95.87,384.28,91.38,384.28z M410.51,331.34h16.55v44.33
	c-0.09,4.3-3.29,7.79-7.46,8.14l-1,0.1l-0.07,0.01c-4.34-0.05-7.93-3.68-8.01-8.11V331.34z"/>
</svg>
