<?xml version="1.0" encoding="utf-8"?>
<!-- Generator: Adobe Illustrator 25.0.1, SVG Export Plug-In . SVG Version: 6.00 Build 0)  -->
<svg version="1.1" id="레이어_1" xmlns="http://www.w3.org/2000/svg" xmlns:xlink="http://www.w3.org/1999/xlink" x="0px"
	 y="0px" viewBox="0 0 500 500" style="enable-background:new 0 0 500 500;" xml:space="preserve">
<style type="text/css">
	.st0{fill:#C7C4C2;}
	.st1{fill:#535252;}
	.st2{fill:#FFFFFF;}
	.st3{fill:none;}
	.st4{fill:#3D3D3D;}
</style>
<path class="st4" d="M448.76,241.8l0-1.85c0.03-5.56-1.83-10.62-5.08-13.89c-2.28-2.29-5.05-3.5-8-3.5H111.26v-84.08
	c0.06-11.31,9.31-20.5,20.61-20.5h0.11c9.49,0.05,17.72,6.63,19.92,15.78l-12.16,2.85c-1.61,0.31-3,1.22-3.91,2.56
	c-0.91,1.34-1.24,2.96-0.93,4.55c0.31,1.59,1.21,2.97,2.56,3.88c1.35,0.91,2.96,1.24,4.55,0.94c0.17-0.03,0.34-0.07,0.4-0.09
	l16.78-3.95c0.49-0.06,0.91-0.16,1.33-0.3l16.8-3.95c3.21-0.89,5.1-4.24,4.2-7.47c-0.84-3.03-3.94-4.93-7.08-4.32l-10.75,2.52
	c-2.04-8.03-6.97-14.9-13.97-19.42c-7.35-4.75-16.12-6.36-24.69-4.53c-14.83,3.18-25.49,16.01-25.91,31.21v84.31H64.28
	c-7.37,0-13.14,7.65-13.14,17.41l0,1.75c-0.36,6.07,2.26,11.84,7.02,15.53c0.84,28.87,10.06,56.6,26.68,80.25
	c18.04,25.2,42.44,45.4,70.56,58.41c3.99,1.88,8.44,2.88,12.87,2.88h164.55c4.62,0,9.25-1.08,13.37-3.13
	c27.52-13.46,51.37-33.83,68.98-58.91c16.33-23.43,25.47-50.89,26.44-79.43C446.46,253.64,449.12,247.88,448.76,241.8z
	 M436.67,241.85l0.01,0.21c0.03,0.24,0.04,0.49,0.04,0.74c-0.01,1.57-0.61,3.12-1.64,4.33h-45.9V234.7h45.96
	c1.2,1.43,1.76,3.28,1.55,5.21l0,0.05L436.67,241.85z M168.25,385.19c-2.4,0-4.82-0.54-6.98-1.56l-0.91-0.43l-0.63,1.35
	c-53.7-25.95-87.01-72.65-89.35-125.26h221.74l0,67.38c-0.65,13.73,9.99,25.51,23.78,26.27l49.62,0
	c13.03-0.72,23.43-11.67,23.64-24.63l1.52-0.04l-0.02-1.18c0-0.14,0-0.28-0.01-0.41l-0.05-1l-1.45,0.07l0-66.46h40.27
	c-1.3,25.35-9.64,49.74-24.15,70.58c-14.3,20.35-33.31,37.63-54.97,49.97c-3.09,1.76-6.28,3.44-9.49,5.01
	c-2.46,1.22-5.22,1.87-7.98,1.87H169.25v-1.5H168.25z M377.08,318.33h-0.19l0,6.26l-0.29,6.5c-0.02,0.07-0.04,0.13-0.05,0.2
	l-0.08,0.31c-0.03,0.12-0.06,0.24-0.1,0.37c-0.03,0.09-0.06,0.17-0.09,0.25l-0.12,0.33c-0.04,0.12-0.08,0.25-0.13,0.37
	c-0.03,0.08-0.07,0.15-0.1,0.23l-0.13,0.29c-0.06,0.13-0.12,0.27-0.19,0.41c-0.03,0.07-0.07,0.13-0.1,0.19l-0.15,0.28
	c-0.07,0.13-0.14,0.26-0.22,0.39l-0.28,0.43c-0.09,0.14-0.17,0.27-0.27,0.41l-0.25,0.33c-0.12,0.15-0.23,0.31-0.35,0.45l-0.25,0.28
	c-0.13,0.15-0.27,0.31-0.42,0.46l-0.23,0.22c-0.16,0.15-0.32,0.31-0.47,0.45l-0.24,0.2c-0.18,0.15-0.35,0.29-0.53,0.43l-0.22,0.15
	c-0.19,0.14-0.39,0.28-0.67,0.45l-0.14,0.08c-0.21,0.13-0.42,0.25-0.63,0.37l-0.3,0.14c-0.2,0.1-0.39,0.19-0.6,0.28l-0.42,0.16
	c-0.16,0.07-0.33,0.13-0.49,0.19l-0.49,0.14c-0.15,0.05-0.3,0.1-0.46,0.14c-0.1,0.02-0.19,0.04-0.29,0.06l-0.35,0.07
	c-0.11,0.02-0.22,0.05-0.33,0.07c-0.33,0.05-0.66,0.09-0.91,0.12l-49.45,0.01c-0.34-0.03-0.68-0.07-1.02-0.12
	c-0.09-0.01-0.17-0.03-0.25-0.05l-0.36-0.07c-0.12-0.02-0.25-0.05-0.37-0.08c-0.11-0.03-0.21-0.06-0.32-0.09l-0.35-0.1
	c-0.1-0.03-0.2-0.05-0.3-0.09c-0.09-0.03-0.18-0.07-0.27-0.1l-0.37-0.14c-0.09-0.03-0.19-0.07-0.29-0.11
	c-0.1-0.04-0.2-0.09-0.29-0.14l-0.34-0.16c-0.09-0.04-0.18-0.08-0.26-0.12c-0.09-0.05-0.19-0.1-0.28-0.16l-0.34-0.19
	c-0.08-0.05-0.17-0.09-0.25-0.14c-0.09-0.06-0.18-0.12-0.26-0.18l-0.31-0.21c-0.09-0.06-0.17-0.11-0.25-0.17
	c-0.08-0.06-0.16-0.12-0.23-0.18l-0.29-0.24c-0.08-0.07-0.17-0.13-0.25-0.2c-0.07-0.06-0.14-0.12-0.2-0.19l-0.29-0.27
	c-0.08-0.07-0.16-0.14-0.23-0.22c-0.07-0.07-0.13-0.14-0.19-0.21l-0.24-0.26c-0.08-0.09-0.17-0.18-0.25-0.27
	c-0.06-0.07-0.11-0.14-0.17-0.21l-0.23-0.29c-0.07-0.09-0.14-0.18-0.21-0.27c-0.06-0.08-0.11-0.16-0.16-0.24l-0.19-0.29
	c-0.07-0.1-0.13-0.2-0.2-0.3c-0.05-0.08-0.09-0.17-0.14-0.25l-0.16-0.29c-0.06-0.11-0.12-0.21-0.18-0.32
	c-0.04-0.09-0.08-0.18-0.12-0.27l-0.14-0.31c-0.05-0.11-0.1-0.22-0.15-0.33c-0.04-0.1-0.07-0.2-0.11-0.3l-0.12-0.35
	c-0.04-0.1-0.07-0.2-0.11-0.3c-0.04-0.11-0.06-0.22-0.09-0.34l-0.09-0.33c-0.02-0.07-0.04-0.14-0.06-0.22l-0.29-6.53v-6.23h-0.19
	V234.7h72.77V318.33z M63.27,239.92l-0.01-0.16c-0.2-1.83,0.38-3.65,1.61-5.06h227.24v12.42H64.87c-0.06-0.07-0.12-0.14-0.17-0.21
	c-0.04-0.06-0.08-0.11-0.15-0.22l-0.28-0.4c-0.03-0.04-0.05-0.09-0.11-0.19l-0.19-0.34l-0.5-1.3c-0.02-0.07-0.05-0.14-0.06-0.21
	l-0.1-0.54c-0.01-0.07-0.03-0.13-0.04-0.2l-0.04-0.56c0-0.06-0.01-0.13-0.01-0.2c0-0.05,0-0.1,0.01-0.2l0.02-0.41
	c0-0.06,0-0.13,0.02-0.34L63.27,239.92z"/>
</svg>
