<?xml version="1.0" encoding="utf-8"?>
<!-- Generator: Adobe Illustrator 25.0.1, SVG Export Plug-In . SVG Version: 6.00 Build 0)  -->
<svg version="1.1" id="레이어_1" xmlns="http://www.w3.org/2000/svg" xmlns:xlink="http://www.w3.org/1999/xlink" x="0px"
	 y="0px" viewBox="0 0 500 500" style="enable-background:new 0 0 500 500;" xml:space="preserve">
<style type="text/css">
	.st0{fill:#C7C4C2;}
	.st1{fill:#535252;}
	.st2{fill:#FFFFFF;}
	.st3{fill:none;}
	.st4{fill:#3D3D3D;}
</style>
<g>
	<path class="st4" d="M349.07,366.64h-36.67c-2.96,0-5.38,2.41-5.38,5.38s2.41,5.38,5.38,5.38h36.67c2.96,0,5.38-2.41,5.38-5.38
		S352.04,366.64,349.07,366.64z"/>
	<path class="st4" d="M349.07,303.77h-36.67c-2.96,0-5.38,2.41-5.38,5.38s2.41,5.38,5.38,5.38h36.67c2.96,0,5.38-2.41,5.38-5.38
		S352.04,303.77,349.07,303.77z"/>
	<path class="st4" d="M403.3,240.53H285.67v-117.4c-0.03-17.34-14.16-31.47-31.51-31.5h-89.58c-17.3,0.06-31.4,14.2-31.43,31.51
		V240.5H96.72c-4.15,0-7.52,3.37-7.52,7.52v29.67c0,4.14,3.37,7.52,7.52,7.52h12.45v117.81c0,4.15,3.37,7.52,7.52,7.52h23.99
		c4.15,0,7.52-3.37,7.52-7.52V284.37h122.43v119.08c0,4.14,3.37,7.52,7.52,7.52h105.17c4.15,0,7.52-3.37,7.52-7.52V285.24h12.45
		c4.14,0,7.52-3.37,7.52-7.52v-29.67C410.8,243.92,407.43,240.54,403.3,240.53z M145.16,121.59c0.03-9.46,9.99-16.6,18.87-16.65
		h91.05c7.06,0,17.55,7.01,17.56,16.68v118.91h-13.55l0.29-110.17c-0.01-7.18-5.88-13.02-13.08-13.03l-73.71-0.32
		c-7.2,0.01-13.07,5.86-13.08,13.04l-0.03,110.46h-14.31V121.59z M247.28,132.64l-0.02,107.86h-75.33V132.64c0-1.14,0.9-2.07,2-2.07
		h71.34C246.38,130.57,247.28,131.5,247.28,132.64z M135.77,397.89h-14.94V284.96h14.94V397.89z M282.84,398.38v-52.7h95.77
		l0.04,52.7H282.84z M282.84,333.35v-48.68h95.76l0.03,48.68H282.84z M101.83,271.85v-18.69h296.01l0.05,18.69H101.83z"/>
	<path class="st4" d="M236.5,326.74h-55.67c-9.27,0.01-16.83,7.56-16.83,16.84l0.01,59.95c0.15,1.69,0.93,3.23,2.2,4.34
		c1.19,1.04,2.71,1.61,4.28,1.61c0.15,0,0.29-0.01,0.44-0.01c3.18-0.21,5.79-2.81,6.07-6.12v-33.26h63.25l0.01,33.43
		c0.3,3.5,3.4,6.17,6.93,5.94c3.18-0.21,5.79-2.81,6.07-6.12v-59.72C253.27,334.37,245.75,326.8,236.5,326.74z M240.28,357.04
		h-63.24l-0.02-13.47c0-2.09,1.7-3.78,3.78-3.78h55.69c2.09,0,3.78,1.7,3.78,3.78V357.04z"/>
</g>
</svg>
