<?xml version="1.0" encoding="utf-8"?>
<!-- Generator: Adobe Illustrator 25.0.1, SVG Export Plug-In . SVG Version: 6.00 Build 0)  -->
<svg version="1.1" id="레이어_1" xmlns="http://www.w3.org/2000/svg" xmlns:xlink="http://www.w3.org/1999/xlink" x="0px"
	 y="0px" viewBox="0 0 500 500" style="enable-background:new 0 0 500 500;" xml:space="preserve">
<style type="text/css">
	.st0{fill:#C7C4C2;}
	.st1{fill:#535252;}
	.st2{fill:#FFFFFF;}
	.st3{fill:none;}
	.st4{fill:#3D3D3D;}
</style>
<g>
	<path class="st4" d="M408.63,305.76l-0.45-0.01v-40.52c-0.13-13.81-11.47-25.04-25.28-25.04l-111.52,0c-0.01,0-0.02,0-0.03,0
		c-7.66,0-14.92,3.45-19.67,9.31c-4.83-5.85-12.12-9.31-19.76-9.31H119.93l-0.18,0c-13.81,0-25.15,11.24-25.28,25.06v40.69
		c-14.99,1.14-26.7,13.58-26.83,28.73v70.92c0,3.15,2.56,5.72,5.72,5.73h47.18c3.15-0.01,5.71-2.58,5.71-5.73v-8.46h252.03v8.39
		c0,3.15,2.56,5.72,5.72,5.72h47.18c3.15,0,5.71-2.56,5.72-5.72v-70.95C436.77,318.84,424.36,306.18,408.63,305.76z M378.21,348.84
		v36.96l-252.03-0.07v-36.89H378.21z M105.82,307.28v-41.96c0.11-7.39,6.23-13.51,13.7-13.64l0.33-0.03h112.01l0.17,0
		c7.51,0,13.71,6.11,13.82,13.6v72.16H126.16v-2.7C126.04,322.19,117.72,311.02,105.82,307.28z M114.73,334.71v65.21H79v-65.21
		c0-9.84,8.02-17.85,17.87-17.85C106.72,316.86,114.73,324.87,114.73,334.71z M425.39,334.71v65.21h-35.73v-65.21
		c0-9.85,8.01-17.86,17.86-17.86S425.39,324.86,425.39,334.71z M257.42,265.88c-0.08-3.79,1.4-7.51,3.99-10.16l1.19-1.01
		c2.46-1.97,5.57-3.05,8.76-3.05h111.38l0.17,0c7.51,0,13.71,6.11,13.82,13.6v42.67c-10.99,4.28-18.37,14.95-18.44,26.79v2.75
		H257.42V265.88z"/>
	<path class="st4" d="M130.78,216.83h32.14l1.44,1.43l1.41-1.43h204.66c4.36,0,7.92-3.55,7.92-7.91V99.38
		c0-4.36-3.55-7.91-7.92-7.91H130.78c-4.36,0-7.91,3.55-7.91,7.91v109.54C122.86,213.28,126.41,216.83,130.78,216.83z
		 M301.38,179.35l27.44,26.48h-57.49L301.38,179.35z M216.99,164.92l37.62,40.91h-77.99L216.99,164.92z M133.86,205.83V102.46
		h233.48v103.37h-22.69l-37.45-36.14c-3.16-3-8-3.09-11.26-0.21l-33.05,29.12l-39.68-43.15c-1.58-1.71-3.7-2.68-5.98-2.73
		c-2.25-0.08-4.44,0.81-6.12,2.5l-49.95,50.62H133.86z"/>
</g>
</svg>
