<?xml version="1.0" encoding="utf-8"?>
<!-- Generator: Adobe Illustrator 25.0.1, SVG Export Plug-In . SVG Version: 6.00 Build 0)  -->
<svg version="1.1" id="레이어_1" xmlns="http://www.w3.org/2000/svg" xmlns:xlink="http://www.w3.org/1999/xlink" x="0px"
	 y="0px" viewBox="0 0 500 500" style="enable-background:new 0 0 500 500;" xml:space="preserve">
<style type="text/css">
	.st0{fill:#C7C4C2;}
	.st1{fill:#535252;}
	.st2{fill:#FFFFFF;}
	.st3{fill:none;}
	.st4{fill:#3D3D3D;}
</style>
<g>
	<path class="st4" d="M420.5,297.07H84.52c-6.41,0-11.63,5.22-11.63,11.63v95.24c0,6.41,5.22,11.63,11.63,11.63H420.5
		c6.41,0,11.63-5.22,11.63-11.63v-95.24C432.13,302.29,426.91,297.07,420.5,297.07z M420.5,404.57H320.16v-96.5H420.5
		c0.35,0,0.63,0.28,0.63,0.63v95.24C421.13,404.29,420.85,404.57,420.5,404.57z M309.16,308.07v96.5H200.75v-96.5H309.16z
		 M83.89,308.71c0-0.35,0.28-0.63,0.63-0.63h105.23v96.5H84.52c-0.35,0-0.63-0.28-0.63-0.63V308.71z"/>
	<path class="st4" d="M228.72,325.9h53.98c3.24,0,5.88-2.55,5.88-5.69s-2.64-5.69-5.88-5.69h-53.98c-3.24,0-5.88,2.55-5.88,5.69
		S225.48,325.9,228.72,325.9z"/>
	<path class="st4" d="M112.04,325.9h53.98c3.24,0,5.88-2.55,5.88-5.69s-2.64-5.69-5.88-5.69h-53.98c-3.24,0-5.88,2.55-5.88,5.69
		S108.79,325.9,112.04,325.9z"/>
	<path class="st4" d="M398.47,314.52h-53.98c-3.24,0-5.88,2.55-5.88,5.69s2.64,5.69,5.88,5.69h53.98c3.24,0,5.88-2.55,5.88-5.69
		S401.71,314.52,398.47,314.52z"/>
	<path class="st4" d="M294.69,172.41c3,0,5.64-1.91,5.64-4.09v-20.28c0-2.14-2.63-4.03-5.64-4.03c-2.95,0-5.64,1.98-5.64,4.16v20.14
		C289.05,170.49,291.68,172.41,294.69,172.41z"/>
	<path class="st4" d="M420.5,90.08H84.52c-6.41,0-11.63,5.99-11.63,13.35v112.21c0,7.36,5.22,13.35,11.63,13.35H420.5
		c6.41,0,11.63-5.99,11.63-13.35V103.43C432.13,96.07,426.91,90.08,420.5,90.08z M320.16,154.11v-51.78H420.5
		c0.25,0,0.63,0.46,0.63,1.1v50.68H320.16z M420.5,216.74H320.16v-51.82h100.98v50.72C421.13,216.28,420.75,216.74,420.5,216.74z
		 M309.16,102.33v114.42H200.75V102.33H309.16z M83.89,103.43c0-0.64,0.38-1.1,0.63-1.1h105.23v51.78H83.89V103.43z M189.75,164.92
		v51.82H84.52c-0.25,0-0.63-0.46-0.63-1.1v-50.72H189.75z"/>
</g>
</svg>
