<svg id="_034-kitchen" data-name="034-kitchen" xmlns="http://www.w3.org/2000/svg" width="20.391" height="19.897" viewBox="0 0 20.391 19.897">
  <path id="Path_48" data-name="Path 48" d="M30.845,346.278H12.659a1.077,1.077,0,0,0-1.076,1.076v4.305a1.077,1.077,0,0,0,1.076,1.076H30.845a1.077,1.077,0,0,0,1.076-1.076v-4.305A1.077,1.077,0,0,0,30.845,346.278Zm-5.954.5v5.464H18.719v-5.464ZM12.08,351.659v-4.305a.58.58,0,0,1,.579-.579h5.563v5.464H12.659A.58.58,0,0,1,12.08,351.659Zm19.345,0a.58.58,0,0,1-.579.579H25.388v-5.464h5.457a.58.58,0,0,1,.579.579Z" transform="translate(-11.53 -332.838)" fill="#141213"/>
  <path id="Path_49" data-name="Path 49" d="M10.636,26.889H30.312a.331.331,0,0,0,.331-.331V21.885a.331.331,0,0,0-.331-.331H10.636a.331.331,0,0,0-.331.331v4.672A.331.331,0,0,0,10.636,26.889ZM10.8,24.47h5.983v1.922H10.8Zm12.865,1.922H17.282V22.051h6.384Zm.5,0V24.359h5.984v2.033Zm5.984-2.529H24.163V22.051h5.984ZM16.785,22.051v1.922H10.8V22.051Z" transform="translate(-10.305 -21.554)" fill="#141213"/>
  <path id="Path_50" data-name="Path 50" d="M57.639,370.277H54.161a.248.248,0,1,0,0,.5h3.478a.248.248,0,0,0,0-.5Z" transform="translate(-52.108 -355.844)" fill="#141213"/>
  <path id="Path_51" data-name="Path 51" d="M208.411,370.774h3.478a.248.248,0,0,0,0-.5h-3.478a.248.248,0,1,0,0,.5Z" transform="translate(-199.974 -355.844)" fill="#141213"/>
  <path id="Path_52" data-name="Path 52" d="M376.316,370.277h-3.478a.248.248,0,1,0,0,.5h3.478a.248.248,0,0,0,0-.5Z" transform="translate(-357.595 -355.844)" fill="#141213"/>
  <path id="Path_53" data-name="Path 53" d="M131.65,240.734a.248.248,0,0,0-.248-.248h-4.718a.248.248,0,0,0-.248.248v.372h-.626v-.166a.248.248,0,0,0-.248-.248h-1.573a.662.662,0,0,0,0,1.324h1.573a.248.248,0,0,0,.248-.248V241.6h.626v.892a1.077,1.077,0,0,0,1.076,1.076h3.062a1.077,1.077,0,0,0,1.076-1.076Zm-6.337.786h-1.324a.166.166,0,0,1,0-.331h1.324Zm5.841.974a.58.58,0,0,1-.579.579h-3.062a.58.58,0,0,1-.579-.579v-1.512h4.221Z" transform="translate(-118.648 -231.425)" fill="#141213"/>
  <path id="Path_54" data-name="Path 54" d="M220.781,260.635a.248.248,0,0,0,.248-.248v-.911a.248.248,0,0,0-.5,0v.911A.248.248,0,0,0,220.781,260.635Z" transform="translate(-211.832 -249.39)" fill="#141213"/>
  <path id="Path_55" data-name="Path 55" d="M207.371,318.7a.248.248,0,0,0-.437,0l-.143.264a.044.044,0,1,1-.062,0l-.143-.264a.248.248,0,0,0-.437,0l-.143.264a.044.044,0,1,1-.062,0l-.143-.264a.248.248,0,0,0-.437,0l-.143.264a.406.406,0,0,0-.031.076.411.411,0,0,0-.031-.076l-.143-.264a.248.248,0,0,0-.437,0l-.143.264a.408.408,0,0,0-.031.076.413.413,0,0,0-.031-.076l-.143-.264a.248.248,0,0,0-.437,0l-.143.264a.044.044,0,1,1-.062,0l-.143-.264a.248.248,0,0,0-.437,0l-.143.264a.411.411,0,0,0,.652.486.256.256,0,1,1,.494.12.348.348,0,0,1,.685-.012.41.41,0,0,1,.785,0,.483.483,0,0,1,.884.012.348.348,0,0,1,.685-.012.411.411,0,0,0,.461-.594Z" transform="translate(-194.851 -306.276)" fill="#141213"/>
  <path id="Path_56" data-name="Path 56" d="M289.643,205.4v-.828a.248.248,0,0,0-.5,0v.828a.248.248,0,0,0,.5,0Z" transform="translate(-277.605 -196.76)" fill="#141213"/>
  <path id="Path_57" data-name="Path 57" d="M269.643,204.987v-.414a.248.248,0,0,0-.5,0v.414a.248.248,0,0,0,.5,0Z" transform="translate(-258.433 -196.76)" fill="#141213"/>
  <path id="Path_58" data-name="Path 58" d="M249.643,205.4v-.828a.248.248,0,0,0-.5,0v.828a.248.248,0,0,0,.5,0Z" transform="translate(-239.261 -196.76)" fill="#141213"/>
  <path id="Path_59" data-name="Path 59" d="M229.643,204.987v-.414a.248.248,0,0,0-.5,0v.414a.248.248,0,0,0,.5,0Z" transform="translate(-220.088 -196.76)" fill="#141213"/>
</svg>
