<svg xmlns="http://www.w3.org/2000/svg" width="19.595" height="19.458" viewBox="0 0 19.595 19.458">
  <g id="noun_Dresser_3263349" transform="translate(-5.027 -5.561)">
    <path id="Path_495" data-name="Path 495" d="M67.164,28.635l-.349.349a.322.322,0,0,0,.456.456l.349-.349a.322.322,0,0,0-.456-.456Z" transform="translate(-53.609 -19.886)" stroke="#dedede" stroke-width="0.3"/>
    <path id="Path_496" data-name="Path 496" d="M48.121,39.037a.322.322,0,0,0,.228-.094L50.092,37.2a.322.322,0,0,0-.456-.456l-1.743,1.743a.322.322,0,0,0,.228.55Z" transform="translate(-37.126 -26.949)" stroke="#dedede" stroke-width="0.3"/>
    <path id="Path_497" data-name="Path 497" d="M57.745,43.56,56,45.3a.322.322,0,0,0,.456.456L58.2,44.015a.322.322,0,1,0-.456-.456Z" transform="translate(-44.19 -32.886)" stroke="#dedede" stroke-width="0.3"/>
    <path id="Path_498" data-name="Path 498" d="M48.241,62.482l-.349.349a.322.322,0,0,0,.456.456l.349-.349a.322.322,0,0,0-.456-.456Z" transform="translate(-37.126 -49.369)" stroke="#dedede" stroke-width="0.3"/>
    <path id="Path_499" data-name="Path 499" d="M106.854,134.308h2.2a.322.322,0,1,0,0-.645h-2.2a.322.322,0,0,0,0,.645Z" transform="translate(-88.286 -111.454)" stroke="#dedede" stroke-width="0.3"/>
    <path id="Path_500" data-name="Path 500" d="M106.854,105.057h2.2a.322.322,0,1,0,0-.645h-2.2a.322.322,0,0,0,0,.645Z" transform="translate(-88.286 -85.975)" stroke="#dedede" stroke-width="0.3"/>
    <path id="Path_501" data-name="Path 501" d="M24.021,14.643H16.964V7.6a1.893,1.893,0,0,0-1.89-1.89H9.7A1.893,1.893,0,0,0,7.814,7.6v7.041H5.628a.451.451,0,0,0-.451.451v1.78a.451.451,0,0,0,.451.451h.747v7.068a.451.451,0,0,0,.451.451H8.265a.451.451,0,0,0,.451-.451V17.325h7.345v7.092a.451.451,0,0,0,.451.451h6.31a.451.451,0,0,0,.451-.451V17.325h.747a.451.451,0,0,0,.451-.451v-1.78A.451.451,0,0,0,24.021,14.643ZM8.717,7.6A.989.989,0,0,1,9.7,6.614h5.37a.989.989,0,0,1,.988.988v7.041h-.637V8.022a.773.773,0,0,0-.772-.772H10.125a.773.773,0,0,0-.772.772v6.62H8.717Zm6.064,7.041H10V8.022a.127.127,0,0,1,.127-.127h4.528a.127.127,0,0,1,.127.127Zm-6.966,9.3H7.278V17.325h.537Zm14.558.024H16.964V21.1h5.407v2.869Zm0-3.772H16.964V17.325h5.407v2.869Zm1.2-3.772H6.08v-.877H23.57Z" stroke="#dedede" stroke-width="0.3"/>
    <path id="Path_502" data-name="Path 502" d="M43.922,114.627H40.582a1.071,1.071,0,0,0-1.07,1.07v3.593a.451.451,0,0,0,.9,0v-1.942h3.675v1.942a.451.451,0,0,0,.9,0V115.7A1.071,1.071,0,0,0,43.922,114.627Zm-3.508,1.07a.167.167,0,0,1,.167-.167h3.341a.167.167,0,0,1,.167.167v.748H40.415Z" transform="translate(-29.908 -94.872)" stroke="#dedede" stroke-width="0.3"/>
  </g>
</svg>
