<svg xmlns="http://www.w3.org/2000/svg" width="27.115" height="19.899" viewBox="0 0 27.115 19.899">
  <path id="_001-bathtub" data-name="001-bathtub" d="M36.3,82.975H13.954V77.119a1.5,1.5,0,0,1,2.976-.259l-.921.216a.331.331,0,1,0,.151.644l1.157-.272a.328.328,0,0,0,.082-.019l1.149-.27a.331.331,0,0,0-.151-.644l-.823.193a2.165,2.165,0,0,0-4.281.394s0,.01,0,.014v5.858H10.816c-.457,0-.816.487-.816,1.109v.128a1.165,1.165,0,0,0,.481,1.014,10,10,0,0,0,1.816,5.5,12.239,12.239,0,0,0,4.809,3.981,1.98,1.98,0,0,0,.846.189l11.29,0h0a1.982,1.982,0,0,0,.881-.206,12.4,12.4,0,0,0,4.7-4.014,10.044,10.044,0,0,0,1.8-5.446,1.16,1.16,0,0,0,.489-1.019v-.128C37.115,83.462,36.757,82.975,36.3,82.975Zm.154,1.109v.128a.553.553,0,0,1-.158.448H33.023V83.636H36.3A.553.553,0,0,1,36.454,84.084ZM27.2,83.636h5.165v5.91l-5.165,0Zm5.152,6.571a.945.945,0,0,1-.869.879h-3.4a.945.945,0,0,1-.87-.881ZM10.661,84.084a.551.551,0,0,1,.158-.448H26.535v1.024H10.819a.553.553,0,0,1-.158-.448ZM34.283,90.3a11.738,11.738,0,0,1-4.455,3.8,1.319,1.319,0,0,1-.586.137l-11.29,0a1.315,1.315,0,0,1-.562-.125c-3.8-1.812-6.116-5.079-6.245-8.788H26.535v4.716a1.635,1.635,0,0,0,1.543,1.71h3.4a1.635,1.635,0,0,0,1.543-1.71V85.322h2.939A9.392,9.392,0,0,1,34.283,90.3Z" transform="translate(-10 -74.999)" fill="#141213"/>
</svg>
