<svg id="_039-sofa" data-name="039-sofa" xmlns="http://www.w3.org/2000/svg" width="21.108" height="21.474" viewBox="0 0 21.108 21.474">
  <path id="Path_60" data-name="Path 60" d="M29.493,283.8h-.039v-2.41a1.383,1.383,0,0,0-1.393-1.37H21.653a1.377,1.377,0,0,0-1.133.582,1.4,1.4,0,0,0-1.138-.582H12.937a1.383,1.383,0,0,0-1.393,1.37V283.8A1.6,1.6,0,0,0,10,285.385v4.082a.258.258,0,0,0,.257.258h2.715a.258.258,0,0,0,.257-.258v-.559l14.648,0v.555a.257.257,0,0,0,.257.257h2.715a.257.257,0,0,0,.257-.257v-4.082a1.6,1.6,0,0,0-1.615-1.588Zm-8.461-3.009a.868.868,0,0,1,.62-.255h6.409a.868.868,0,0,1,.878.855v2.505a1.592,1.592,0,0,0-1.061,1.492v.23l-7.1,0v-4.189A.887.887,0,0,1,21.032,280.788Zm-8.1-.255h6.445a.868.868,0,0,1,.878.855l0,4.224-7.031,0v-.226a1.6,1.6,0,0,0-1.171-1.526v-2.47a.868.868,0,0,1,.878-.855Zm-.222,8.677h-2.2v-3.825a1.1,1.1,0,0,1,2.2,0Zm.515-.817v-2.267l14.648,0V288.4Zm17.363.817h-2.2v-3.825a1.1,1.1,0,0,1,2.2,0Z" transform="translate(-10 -268.251)" fill="#141213"/>
  <path id="Path_61" data-name="Path 61" d="M109.057,364.309a.382.382,0,1,0-.382-.382A.382.382,0,0,0,109.057,364.309Zm0-.515a.133.133,0,1,1-.133.133A.133.133,0,0,1,109.057,363.794Z" transform="translate(-104.442 -348.194)" fill="#141213"/>
  <path id="Path_62" data-name="Path 62" d="M181.082,364.309a.382.382,0,1,0-.382-.382A.382.382,0,0,0,181.082,364.309Zm0-.515a.133.133,0,1,1-.133.133A.133.133,0,0,1,181.082,363.794Z" transform="translate(-173.376 -348.194)" fill="#141213"/>
  <path id="Path_63" data-name="Path 63" d="M109.057,321.864a.382.382,0,1,0-.382-.382A.382.382,0,0,0,109.057,321.864Zm0-.515a.133.133,0,1,1-.133.133A.133.133,0,0,1,109.057,321.349Z" transform="translate(-104.442 -307.57)" fill="#141213"/>
  <path id="Path_64" data-name="Path 64" d="M181.082,321.864a.382.382,0,1,0-.382-.382A.382.382,0,0,0,181.082,321.864Zm0-.515a.133.133,0,1,1-.133.133A.133.133,0,0,1,181.082,321.349Z" transform="translate(-173.376 -307.57)" fill="#141213"/>
  <path id="Path_65" data-name="Path 65" d="M311.782,364.309a.382.382,0,1,0-.382-.382A.382.382,0,0,0,311.782,364.309Zm0-.515a.133.133,0,1,1-.133.133A.133.133,0,0,1,311.782,363.794Z" transform="translate(-298.469 -348.194)" fill="#141213"/>
  <path id="Path_66" data-name="Path 66" d="M383.807,364.309a.382.382,0,1,0-.382-.382A.382.382,0,0,0,383.807,364.309Zm0-.515a.133.133,0,1,1-.133.133A.133.133,0,0,1,383.807,363.794Z" transform="translate(-367.404 -348.194)" fill="#141213"/>
  <path id="Path_67" data-name="Path 67" d="M311.782,321.864a.382.382,0,1,0-.382-.382A.382.382,0,0,0,311.782,321.864Zm0-.515a.133.133,0,1,1-.133.133A.133.133,0,0,1,311.782,321.349Z" transform="translate(-298.469 -307.57)" fill="#141213"/>
  <path id="Path_68" data-name="Path 68" d="M383.807,321.864a.382.382,0,1,0-.382-.382A.382.382,0,0,0,383.807,321.864Zm0-.515a.133.133,0,1,1-.133.133A.133.133,0,0,1,383.807,321.349Z" transform="translate(-367.404 -307.57)" fill="#141213"/>
  <path id="Path_69" data-name="Path 69" d="M33.953,16.171H48.064a.257.257,0,0,0,.257-.257V9.273a.257.257,0,0,0-.257-.257h-14.1V5.992a.257.257,0,1,0-.515,0V9.1a2.336,2.336,0,0,0-2.075,2.318v.415a.257.257,0,0,0,.257.257h1.188a.986.986,0,0,0,.879.737v3.083a.257.257,0,0,0,.257.257Zm8.256-.515-.127-.124,1.8-1.385,1.766,1.509Zm-.739,0H36.616l2.515-2.269Zm6.337,0H46.442l-2.383-2.036a.257.257,0,0,0-.324-.008L41.708,15.17l-2.39-2.32a.257.257,0,0,0-.352-.006l-3.118,2.812H34.21V12.712a1.012,1.012,0,0,0,.478-.619h1.091a.257.257,0,0,0,.257-.257v-.415a2.33,2.33,0,0,0-.969-1.89H47.806ZM31.886,11.421a1.818,1.818,0,1,1,3.636,0v.158H31.886Zm1.485.672h.762a.436.436,0,0,1-.762,0Z" transform="translate(-30.454 -5.735)" fill="#141213"/>
  <path id="Path_70" data-name="Path 70" d="M54.267,107.252a2.332,2.332,0,0,0-.607.631.257.257,0,0,0,.431.281,1.819,1.819,0,0,1,.474-.492.257.257,0,0,0-.3-.42Z" transform="translate(-51.746 -102.852)" fill="#141213"/>
  <path id="Path_71" data-name="Path 71" d="M247.881,141a1.115,1.115,0,1,0-1.115-1.115A1.115,1.115,0,0,0,247.881,141Zm0-1.716a.6.6,0,1,1-.6.6A.6.6,0,0,1,247.881,139.288Z" transform="translate(-236.608 -133.065)" fill="#141213"/>
</svg>
