<svg id="_005-double_bed" data-name="005-double bed" xmlns="http://www.w3.org/2000/svg" width="21.704" height="16.312" viewBox="0 0 21.704 16.312">
  <path id="Path_72" data-name="Path 72" d="M123.851,182.811H121.7V178.37a1.418,1.418,0,0,0-1.416-1.416H108.538a1.418,1.418,0,0,0-1.416,1.416v4.441h-2.149a1.4,1.4,0,0,0-1.413,1.386v7.876a1.193,1.193,0,1,0,2.386,0V189.45h16.917v2.614a1.2,1.2,0,1,0,2.4,0V184.2A1.4,1.4,0,0,0,123.851,182.811ZM104.214,188.8v-.972h20.4v.972Zm3.562-10.426a.763.763,0,0,1,.763-.763h11.748a.763.763,0,0,1,.763.763v4.441h-.778v-1.257a1.4,1.4,0,0,0-1.413-1.386h-2.643a1.4,1.4,0,0,0-1.413,1.386v1.257h-.78v-1.257a1.4,1.4,0,0,0-1.413-1.386h-2.643a1.4,1.4,0,0,0-1.413,1.386v1.257h-.778Zm7.68,4.441v-1.257a.747.747,0,0,1,.759-.732h2.644a.747.747,0,0,1,.759.733v1.257Zm-6.248,0v-1.257a.747.747,0,0,1,.759-.732h2.643a.747.747,0,0,1,.759.733v1.257Zm-4.235.654h18.879a.747.747,0,0,1,.759.733v2.974h-20.4V184.2a.747.747,0,0,1,.759-.733Zm.319,8.608a.539.539,0,0,1-1.078,0V189.45h1.078Zm18.772.518a.537.537,0,0,1-.547-.526V189.45h1.094v2.614a.537.537,0,0,1-.547.526Z" transform="translate(-103.56 -176.954)" fill="#141213"/>
</svg>
