<svg viewBox="0 0 24 24" fill="none" xmlns="http://www.w3.org/2000/svg">
<path fill-rule="evenodd" clip-rule="evenodd" d="M19.8865 19.8864C19.8839 19.8838 19.8814 19.8812 19.8788 19.8787L4.32248 4.32233C4.31994 4.31978 4.31739 4.31726 4.31482 4.31475C3.93183 3.92365 3.93433 3.29613 4.32233 2.90813C4.71286 2.5176 5.34602 2.5176 5.73655 2.90813L9.88366 7.05524C10.8703 7.17952 11.793 7.50916 12.6076 8L14 8L14 6L16 6L16 4L18 4L18 2L20 2L22 2L22 4L22 6L21.9999 6L15.7889 12.2869C15.8569 12.5575 15.9092 12.8343 15.9448 13.1163L21.2929 18.4645C21.6834 18.855 21.6834 19.4882 21.2929 19.8787C20.905 20.2666 20.2776 20.2692 19.8865 19.8864ZM14.9157 17.744L11.9088 14.7371C11.5803 16.0375 10.4025 17 9 17C7.34315 17 6 15.6569 6 14C6 12.5975 6.96246 11.4197 8.26294 11.0912L5.25604 8.08431C3.29901 9.32549 2 11.511 2 14C2 17.866 5.13401 21 9 21C11.489 21 13.6745 19.701 14.9157 17.744Z" fill="currentColor"/>
</svg>
