<svg viewBox="0 0 24 24" fill="none" xmlns="http://www.w3.org/2000/svg">
<path fill-rule="evenodd" clip-rule="evenodd" d="M17.9998 8H16.9998V6C16.9998 3.24 14.7598 1 11.9998 1C9.79001 1 7.91353 2.43599 7.25324 4.42512L8.99985 6.17173V6C8.99985 4.34 10.3398 3 11.9998 3C13.6598 3 14.9998 4.34 14.9998 6V8H10.8281L19.9998 17.1717V10C19.9998 8.9 19.0998 8 17.9998 8ZM21.513 21.5132C21.5106 21.5109 21.5082 21.5085 21.5058 21.5061L3.12102 3.12132C3.11858 3.11888 3.11616 3.11644 3.11375 3.11398C2.72267 2.73081 2.09502 2.73326 1.70696 3.12132C1.31643 3.51185 1.31643 4.14501 1.70696 4.53554L5.29892 8.1275C4.54195 8.41305 3.99985 9.14629 3.99985 10V20C3.99985 21.1 4.89985 22 5.99985 22H17.9998C18.3378 22 18.6569 21.915 18.9368 21.7654L20.0917 22.9203C20.4823 23.3108 21.1154 23.3108 21.5059 22.9203C21.8941 22.5322 21.8965 21.9043 21.513 21.5132ZM9.99985 15C9.99985 14.4066 10.2618 13.8714 10.6757 13.5043L13.4956 16.3241C13.1285 16.7381 12.5933 17 11.9998 17C10.8998 17 9.99985 16.1 9.99985 15Z" fill="currentColor"/>
</svg>
