<svg viewBox="0 0 24 24" fill="none" xmlns="http://www.w3.org/2000/svg">
<path fill-rule="evenodd" clip-rule="evenodd" d="M17 8H18C19.1 8 20 8.9 20 10V20C20 21.1 19.1 22 18 22H6C4.9 22 4 21.1 4 20V10C4 8.9 4.9 8 6 8H15V6C15 4.35 13.65 3 12 3C10.63 3 9.44 3.93 9.1 5.25C8.96 5.79 8.41 6.11 7.88 5.97C7.34 5.83 7.02 5.29 7.16 4.75C7.73 2.54 9.72 1 12 1C14.76 1 17 3.24 17 6V8ZM12 13C10.9 13 10 13.9 10 15C10 16.1 10.9 17 12 17C13.1 17 14 16.1 14 15C14 13.9 13.1 13 12 13Z" fill="currentColor"/>
</svg>
