<svg viewBox="0 0 24 24" fill="none" xmlns="http://www.w3.org/2000/svg">
<path fill-rule="evenodd" clip-rule="evenodd" d="M3 6.3C3 5.51 3.47 4.79 4.19 4.47L11.19 1.36C11.7 1.13 12.29 1.13 12.81 1.36L19.81 4.47C20.53 4.79 21 5.51 21 6.3V11C21 16.55 17.16 21.74 12 23C6.84 21.74 3 16.55 3 11V6.3ZM11 8C11 7.44772 11.4477 7 12 7C12.5523 7 13 7.44772 13 8V13C13 13.5523 12.5523 14 12 14C11.4477 14 11 13.5523 11 13V8ZM11 16C11 15.4477 11.4477 15 12 15C12.5523 15 13 15.4477 13 16C13 16.5523 12.5523 17 12 17C11.4477 17 11 16.5523 11 16Z" fill="currentColor"/>
</svg>
