<svg viewBox="0 0 24 24" fill="none" xmlns="http://www.w3.org/2000/svg">
<path fill-rule="evenodd" clip-rule="evenodd" d="M3.11375 3.11398C2.72266 2.73081 2.09502 2.73326 1.70696 3.12132C1.31643 3.51185 1.31643 4.14501 1.70696 4.53554L3.04591 5.87449C3.01565 6.01262 2.99985 6.15513 2.99985 6.3V11C2.99985 16.55 6.83985 21.74 11.9998 23C13.9735 22.5181 15.7541 21.4612 17.2005 20.0291L18.6775 21.5061C19.068 21.8966 19.7012 21.8966 20.0917 21.5061C20.4799 21.118 20.4822 20.4901 20.0988 20.099C20.0964 20.0967 20.094 20.0943 20.0916 20.0919L3.12102 3.12132C3.11858 3.11888 3.11616 3.11643 3.11375 3.11398ZM19.5877 16.7596C20.4883 15.0034 20.9998 13.0257 20.9998 11V6.3C20.9998 5.51 20.5298 4.79 19.8098 4.47L12.8098 1.36C12.2898 1.13 11.6998 1.13 11.1898 1.36L6.34197 3.51384L19.5877 16.7596Z" fill="currentColor"/>
</svg>
