<svg viewBox="0 0 24 24" fill="none" xmlns="http://www.w3.org/2000/svg">
<path fill-rule="evenodd" clip-rule="evenodd" d="M3 6.3C3 5.51 3.47 4.79 4.19 4.47L11.19 1.36C11.7 1.13 12.29 1.13 12.81 1.36L19.81 4.47C20.53 4.79 21 5.51 21 6.3V11C21 16.55 17.16 21.74 12 23C6.84 21.74 3 16.55 3 11V6.3ZM15 13H13V15C13 15.55 12.55 16 12 16C11.45 16 11 15.55 11 15V13H9C8.45 13 8 12.55 8 12C8 11.45 8.45 11 9 11H11V9C11 8.45 11.45 8 12 8C12.55 8 13 8.45 13 9V11H15C15.55 11 16 11.45 16 12C16 12.55 15.55 13 15 13Z" fill="currentColor"/>
</svg>
