<svg viewBox="0 0 24 24" fill="none" xmlns="http://www.w3.org/2000/svg">
<path fill-rule="evenodd" clip-rule="evenodd" d="M3 6.1125C3 5.3225 3.47 4.6025 4.19 4.2825L11.19 1.1725C11.7 0.9425 12.29 0.9425 12.81 1.1725L19.81 4.2825C20.53 4.6025 21 5.3225 21 6.1125V10.8027C20.1175 10.2922 19.0929 10 18 10C14.6863 10 12 12.6863 12 16C12 18.3482 13.349 20.3813 15.3142 21.3668C14.2993 22.027 13.1845 22.5233 12 22.8125C6.84 21.5525 3 16.3625 3 10.8125V6.1125Z" fill="currentColor"/>
<path d="M18 12C15.79 12 14 13.79 14 16C14 18.21 15.79 20 18 20C20.21 20 22 18.21 22 16C22 13.79 20.21 12 18 12ZM18 13.38C18.62 13.38 19.12 13.89 19.12 14.5C19.12 15.11 18.61 15.62 18 15.62C17.39 15.62 16.88 15.11 16.88 14.5C16.88 13.89 17.38 13.38 18 13.38ZM18 18.75C17.07 18.75 16.26 18.29 15.76 17.58C15.81 16.86 17.27 16.5 18 16.5C18.73 16.5 20.19 16.86 20.24 17.58C19.74 18.29 18.93 18.75 18 18.75Z" fill="currentColor"/>
</svg>
