<svg width="19" height="18" viewBox="0 0 19 18" fill="none" xmlns="http://www.w3.org/2000/svg">
<path d="M9.50117 0.273438C7.13106 0.273438 6.83362 0.283801 5.90274 0.326165C4.97367 0.36871 4.33951 0.515801 3.78462 0.731619C3.21064 0.954528 2.72374 1.25271 2.23867 1.73798C1.75323 2.22307 1.45505 2.70998 1.23142 3.2838C1.01507 3.83889 0.867798 4.47325 0.825981 5.40198C0.784346 6.33289 0.773438 6.63053 0.773438 9.00071C0.773438 11.3709 0.783983 11.6674 0.826163 12.5983C0.868889 13.5274 1.01598 14.1616 1.23161 14.7165C1.45469 15.2905 1.75286 15.7774 2.23812 16.2625C2.72301 16.748 3.20991 17.0469 3.78353 17.2698C4.33878 17.4856 4.97313 17.6327 5.90201 17.6752C6.83289 17.7176 7.13015 17.728 9.50008 17.728C11.8704 17.728 12.1669 17.7176 13.0978 17.6752C14.0269 17.6327 14.6617 17.4856 15.217 17.2698C15.7908 17.0469 16.277 16.748 16.7619 16.2625C17.2473 15.7774 17.5455 15.2905 17.7691 14.7167C17.9836 14.1616 18.1309 13.5273 18.1745 12.5985C18.2164 11.6676 18.2273 11.3709 18.2273 9.00071C18.2273 6.63053 18.2164 6.33307 18.1745 5.40216C18.1309 4.47307 17.9836 3.83889 17.7691 3.28398C17.5455 2.70998 17.2473 2.22307 16.7619 1.73798C16.2764 1.25253 15.791 0.954346 15.2165 0.731619C14.6601 0.515801 14.0256 0.36871 13.0965 0.326165C12.1656 0.283801 11.8693 0.273438 9.49845 0.273438H9.50117ZM8.71829 1.84616C8.95064 1.8458 9.20991 1.84616 9.50117 1.84616C11.8313 1.84616 12.1075 1.85453 13.0276 1.89635C13.8785 1.93526 14.3403 2.07744 14.6479 2.19689C15.0552 2.35507 15.3455 2.54416 15.6508 2.84962C15.9563 3.15507 16.1453 3.44598 16.3039 3.85325C16.4233 4.16053 16.5657 4.62234 16.6044 5.47325C16.6462 6.39325 16.6553 6.66962 16.6553 8.99871C16.6553 11.3278 16.6462 11.6042 16.6044 12.5242C16.5655 13.3751 16.4233 13.8369 16.3039 14.1442C16.1457 14.5514 15.9563 14.8414 15.6508 15.1467C15.3454 15.4522 15.0554 15.6412 14.6479 15.7994C14.3407 15.9194 13.8785 16.0612 13.0276 16.1002C12.1076 16.142 11.8313 16.1511 9.50117 16.1511C7.17088 16.1511 6.89471 16.142 5.97473 16.1002C5.12385 16.0609 4.66205 15.9187 4.35424 15.7992C3.94698 15.6411 3.65608 15.452 3.35063 15.1465C3.04519 14.8411 2.8561 14.5509 2.69756 14.1434C2.57811 13.8362 2.43575 13.3743 2.39702 12.5234C2.35521 11.6034 2.34684 11.3271 2.34684 8.99652C2.34684 6.66598 2.35521 6.39107 2.39702 5.47107C2.43593 4.62016 2.57811 4.15834 2.69756 3.85071C2.85574 3.44344 3.04519 3.15253 3.35063 2.84707C3.65608 2.54162 3.94698 2.35253 4.35424 2.19398C4.66186 2.07398 5.12385 1.93216 5.97473 1.89307C6.7798 1.85671 7.09179 1.8458 8.71829 1.84398V1.84616ZM14.1596 3.29525C13.5814 3.29525 13.1123 3.7638 13.1123 4.34216C13.1123 4.92034 13.5814 5.38944 14.1596 5.38944C14.7377 5.38944 15.2068 4.92034 15.2068 4.34216C15.2068 3.76398 14.7377 3.29489 14.1596 3.29489V3.29525ZM9.50117 4.51889C7.02616 4.51889 5.01949 6.52562 5.01949 9.00071C5.01949 11.4758 7.02616 13.4816 9.50117 13.4816C11.9762 13.4816 13.9821 11.4758 13.9821 9.00071C13.9821 6.52562 11.976 4.51889 9.50099 4.51889H9.50117ZM9.50117 6.09162C11.1077 6.09162 12.4102 7.39398 12.4102 9.00071C12.4102 10.6073 11.1077 11.9098 9.50117 11.9098C7.89449 11.9098 6.59217 10.6073 6.59217 9.00071C6.59217 7.39398 7.89449 6.09162 9.50117 6.09162Z" fill="currentColor"/>
</svg>
