<svg width="19" height="18" viewBox="0 0 19 18" fill="none" xmlns="http://www.w3.org/2000/svg">
<path d="M18.74 10.68V17.424H14.828V11.136C14.828 9.552 14.264 8.472 12.848 8.472C11.768 8.472 11.12 9.204 10.844 9.9C10.736 10.152 10.712 10.5 10.712 10.848V17.412H6.8C6.8 17.412 6.848 6.756 6.8 5.652H10.712V7.32C10.7 7.332 10.688 7.344 10.688 7.356H10.712V7.32C11.228 6.516 12.164 5.376 14.24 5.376C16.808 5.388 18.74 7.068 18.74 10.68ZM2.708 0C1.376 0 0.5 0.876 0.5 2.028C0.5 3.156 1.352 4.056 2.66 4.056H2.684C4.052 4.056 4.892 3.156 4.892 2.028C4.868 0.876 4.052 0 2.708 0ZM0.728003 17.424H4.64V5.664H0.728003V17.424Z" fill="currentColor"/>
</svg>
