<svg width="19" height="15" viewBox="0 0 19 15" fill="none" xmlns="http://www.w3.org/2000/svg">
<path d="M6.18172 14.5787C12.9293 14.5787 16.6193 8.99299 16.6193 4.14924C16.6193 3.99059 16.6161 3.83265 16.609 3.67543C17.3252 3.15802 17.9478 2.51234 18.4388 1.77731C17.7815 2.06924 17.0742 2.26577 16.3322 2.35439C17.0896 1.90058 17.671 1.18272 17.9453 0.326946C17.2366 0.746805 16.4516 1.05196 15.6159 1.21671C14.9465 0.504228 13.9934 0.0585938 12.9382 0.0585938C10.9123 0.0585938 9.26952 1.70018 9.26952 3.72366C9.26952 4.01131 9.3017 4.29109 9.36465 4.55947C6.31574 4.40617 3.61221 2.94756 1.80285 0.729651C1.4878 1.27135 1.30614 1.9006 1.30614 2.57202C1.30614 3.84375 1.95378 4.96643 2.93862 5.62322C2.33676 5.60464 1.77138 5.43955 1.27722 5.16477C1.27668 5.18015 1.27667 5.19515 1.27667 5.21158C1.27667 6.9868 2.54118 8.46896 4.21974 8.80482C3.91148 8.88879 3.58716 8.93382 3.25242 8.93382C3.0164 8.93382 2.78645 8.91061 2.56295 8.86771C3.02998 10.3242 4.38425 11.384 5.98985 11.4136C4.73429 12.397 3.15264 12.9827 1.43364 12.9827C1.1379 12.9827 0.845736 12.9659 0.558594 12.9319C2.18213 13.9718 4.10994 14.5785 6.18192 14.5785" fill="currentColor"/>
</svg>
