<svg viewBox="0 0 24 24" fill="none" xmlns="http://www.w3.org/2000/svg">
<path fill-rule="evenodd" clip-rule="evenodd" d="M3.51008 3.5102C3.51157 3.51171 3.51307 3.51322 3.51457 3.51472L20.4851 20.4853C20.4867 20.4868 20.4882 20.4884 20.4898 20.4899C20.8758 20.8808 20.8743 21.5106 20.4853 21.8996C20.0948 22.2901 19.4616 22.2901 19.0711 21.8996L13.7473 16.5758L10.9317 21.4025C10.6746 21.8433 9.99985 21.6609 9.99985 21.1505V14.5C9.99985 14.2239 9.77599 14 9.49985 14H7.49985C7.22371 14 6.99985 13.7761 6.99985 13.5V9.82837L2.10051 4.92903C1.70999 4.53851 1.70999 3.90534 2.10051 3.51482C2.48949 3.12584 3.1192 3.1243 3.51008 3.5102ZM6.99985 4.17157L13.3086 10.4803C13.3113 10.4124 13.3282 10.3432 13.3617 10.2764L16.2762 4.44721C16.6087 3.78231 16.1252 3 15.3818 3H7.99985C7.44756 3 6.99985 3.44772 6.99985 4V4.17157ZM13.8283 11L15.8314 13.0031L16.5612 11.7519C16.7557 11.4186 16.5152 11 16.1293 11H13.8283Z" fill="currentColor"/>
</svg>
