<svg viewBox="0 0 24 24" fill="none" xmlns="http://www.w3.org/2000/svg">
<path d="M12 5V2.20711C12 1.76165 11.4614 1.53857 11.1464 1.85355L7.35355 5.64645C7.15829 5.84171 7.15829 6.15829 7.35355 6.35355L11.1464 10.1464C11.4614 10.4614 12 10.2383 12 9.79289V7C15.31 7 18 9.69 18 13C18 16.31 15.31 19 12 19C9.02918 19 6.55781 16.833 6.08251 13.9958C5.99126 13.4511 5.55228 13 5 13C4.44772 13 3.99345 13.45 4.06158 13.998C4.55243 17.9466 7.91799 21 12 21C16.42 21 20 17.42 20 13C20 8.58 16.42 5 12 5Z" fill="currentColor"/>
</svg>
