<svg viewBox="0 0 24 24" fill="none" xmlns="http://www.w3.org/2000/svg">
<path d="M7 7H17V8.79289C17 9.23835 17.5386 9.46143 17.8536 9.14645L20.6464 6.35355C20.8417 6.15829 20.8417 5.84171 20.6464 5.64645L17.8536 2.85355C17.5386 2.53857 17 2.76165 17 3.20711V5H6C5.44772 5 5 5.44772 5 6V10C5 10.5523 5.44772 11 6 11C6.55228 11 7 10.5523 7 10V7ZM17 17H7V15.2071C7 14.7617 6.46143 14.5386 6.14645 14.8536L3.35355 17.6464C3.15829 17.8417 3.15829 18.1583 3.35355 18.3536L5.29289 20.2929C5.92286 20.9229 7 20.4767 7 19.5858V19H18C18.5523 19 19 18.5523 19 18V14C19 13.4477 18.5523 13 18 13C17.4477 13 17 13.4477 17 14V17Z" fill="currentColor"/>
</svg>
