<svg viewBox="0 0 24 24" fill="none" xmlns="http://www.w3.org/2000/svg">
<path d="M12 2C6.48 2 2 6.48 2 12C2 17.52 6.48 22 12 22C17.52 22 22 17.52 22 12C22 6.48 17.52 2 12 2ZM13 18C13 18.5523 12.5523 19 12 19C11.4477 19 11 18.5523 11 18C11 17.4477 11.4477 17 12 17C12.5523 17 13 17.4477 13 18ZM15.07 11.25L14.17 12.17C13.67 12.68 13.31 13.14 13.13 13.86C13.118 13.9079 13.1067 13.9566 13.0962 14.0065C12.9818 14.5468 12.5523 15 12 15H11.9099C11.4074 15 11 14.5926 11 14.0901C11 14.0302 11.0058 13.9705 11.0189 13.912C11.0503 13.7718 11.1198 13.4835 11.22 13.19C11.42 12.61 11.75 12.09 12.17 11.67L13.41 10.41C13.87 9.97 14.09 9.31 13.96 8.61C13.83 7.89 13.27 7.28 12.57 7.08C11.46 6.77 10.43 7.4 10.1 8.35C9.98 8.72 9.67 9 9.28 9H8.98C8.4 9 8 8.44 8.16 7.88C8.59 6.41 9.84 5.29 11.39 5.05C12.91 4.81 14.36 5.6 15.26 6.85C16.44 8.48 16.09 10.23 15.07 11.25Z" fill="currentColor"/>
</svg>
