<svg viewBox="0 0 24 24" fill="none" xmlns="http://www.w3.org/2000/svg">
<path fill-rule="evenodd" clip-rule="evenodd" d="M18 17H19C19.55 17 20 17.45 20 18C20 18.55 19.55 19 19 19H5C4.45 19 4 18.55 4 18C4 17.45 4.45 17 5 17H6V10C6 7.21 7.91 4.86 10.5 4.2V3.5C10.5 2.67 11.17 2 12 2C12.83 2 13.5 2.67 13.5 3.5V4.2C16.09 4.86 18 7.21 18 10V17ZM13 14V13H14C14.55 13 15 12.55 15 12C15 11.45 14.55 11 14 11H13V10C13 9.45 12.55 9 12 9C11.45 9 11 9.45 11 10V11H10C9.45 11 9 11.45 9 12C9 12.55 9.45 13 10 13H11V14C11 14.55 11.45 15 12 15C12.55 15 13 14.55 13 14ZM14 20C14 21.1 13.1 22 12 22C10.9 22 10 21.1 10 20H14Z" fill="currentColor"/>
</svg>
