<svg viewBox="0 0 24 24" fill="none" xmlns="http://www.w3.org/2000/svg">
<path d="M19.9998 2H4.00977C2.90977 2 2.00977 2.9 2.00977 4V22L5.99977 18H19.9998C21.0998 18 21.9998 17.1 21.9998 16V4C21.9998 2.9 21.0998 2 19.9998 2ZM12.9998 14C12.9998 14.5523 12.5521 15 11.9998 15C11.4475 15 10.9998 14.5523 10.9998 14C10.9998 13.4477 11.4475 13 11.9998 13C12.5521 13 12.9998 13.4477 12.9998 14ZM12.9998 10C12.9998 10.55 12.5498 11 11.9998 11C11.4498 11 10.9998 10.55 10.9998 10V6C10.9998 5.45 11.4498 5 11.9998 5C12.5498 5 12.9998 5.45 12.9998 6V10Z" fill="currentColor"/>
</svg>
