<svg viewBox="0 0 24 24" fill="none" xmlns="http://www.w3.org/2000/svg">
<path fill-rule="evenodd" clip-rule="evenodd" d="M14.0001 20C14.0001 21.1 13.1001 22 12.0001 22C10.8901 22 10.0001 21.1 10.0001 20H14.0001ZM18.0001 11V16L19.2901 17.29C19.9201 17.92 19.4701 19 18.5801 19H5.41005C4.52005 19 4.08005 17.92 4.71005 17.29L6.00005 16V11C6.00005 7.92 7.63005 5.36 10.5001 4.68V4C10.5001 3.17 11.1701 2.5 12.0001 2.5C12.8301 2.5 13.5001 3.17 13.5001 4V4.68C16.3601 5.36 18.0001 7.93 18.0001 11ZM11 9C11 8.44772 11.4477 8 12 8C12.5523 8 13 8.44772 13 9V12C13 12.5523 12.5523 13 12 13C11.4477 13 11 12.5523 11 12V9ZM11 15C11 14.4477 11.4477 14 12 14C12.5523 14 13 14.4477 13 15C13 15.5523 12.5523 16 12 16C11.4477 16 11 15.5523 11 15Z" fill="currentColor"/>
</svg>
