<svg viewBox="0 0 24 24" fill="none" xmlns="http://www.w3.org/2000/svg">
<path fill-rule="evenodd" clip-rule="evenodd" d="M7.1 18H5C4.46957 18 3.96086 17.7893 3.58579 17.4142C3.21071 17.0391 3 16.5304 3 16V15C2.99968 14.3793 3.19186 13.7739 3.55006 13.267C3.90826 12.7602 4.41484 12.3769 5 12.17V9C5 7.14348 5.7375 5.36301 7.05025 4.05025C8.36301 2.7375 10.1435 2 12 2C13.8565 2 15.637 2.7375 16.9497 4.05025C18.2625 5.36301 19 7.14348 19 9V12.17C19.5852 12.3769 20.0917 12.7602 20.4499 13.267C20.8081 13.7739 21.0003 14.3793 21 15V16C21 16.5304 20.7893 17.0391 20.4142 17.4142C20.0391 17.7893 19.5304 18 19 18H16.9C16.6705 19.1303 16.0573 20.1465 15.1643 20.8764C14.2712 21.6063 13.1534 22.005 12 22.005C10.8466 22.005 9.72875 21.6063 8.83574 20.8764C7.94273 20.1465 7.32952 19.1303 7.1 18ZM14.83 18H9.17C9.37614 18.586 9.7591 19.0935 10.266 19.4526C10.7729 19.8116 11.3788 20.0045 12 20.0045C12.6212 20.0045 13.2271 19.8116 13.734 19.4526C14.2409 19.0935 14.6239 18.586 14.83 18Z" fill="currentColor"/>
</svg>
