<svg viewBox="0 0 24 24" fill="none" xmlns="http://www.w3.org/2000/svg">
<path fill-rule="evenodd" clip-rule="evenodd" d="M1 6C1 4.89543 1.89543 4 3 4H9C10.1046 4 11 4.89543 11 6V14L8.55279 18.8944C8.214 19.572 7.52148 20 6.76393 20H5.61803C4.87465 20 4.39116 19.2177 4.72361 18.5528L7 14H3C1.89543 14 1 13.1046 1 12V6ZM13 6C13 4.89543 13.8954 4 15 4H21C22.1046 4 23 4.89543 23 6V14L20.5528 18.8944C20.214 19.572 19.5215 20 18.7639 20H17.618C16.8747 20 16.3912 19.2177 16.7236 18.5528L19 14H15C13.8954 14 13 13.1046 13 12V6Z" fill="currentColor"/>
</svg>
