<svg viewBox="0 0 24 24" fill="none" xmlns="http://www.w3.org/2000/svg">
<path d="M4.47012 21H19.5301C21.0701 21 22.0301 19.33 21.2601 18L13.7301 4.98999C12.9601 3.65999 11.0401 3.65999 10.2701 4.98999L2.74012 18C1.97012 19.33 2.93012 21 4.47012 21ZM12.0001 14C11.4501 14 11.0001 13.55 11.0001 13V9C11.0001 8.45 11.4501 8 12.0001 8C12.5501 8 13.0001 8.45 13.0001 9V13C13.0001 13.55 12.5501 14 12.0001 14ZM13.0001 17C13.0001 17.5523 12.5524 18 12.0001 18C11.4478 18 11.0001 17.5523 11.0001 17C11.0001 16.4477 11.4478 16 12.0001 16C12.5524 16 13.0001 16.4477 13.0001 17Z" fill="currentColor"/>
</svg>
