<svg xmlns="http://www.w3.org/2000/svg" width="122" height="134"><g id="logo" xmlns="http://www.w3.org/2000/svg" transform="translate(-61,-67)"><svg x="50%" y="50%"><svg xmlns="http://www.w3.org/2000/svg" width="122" height="134"><g id="logo" xmlns="http://www.w3.org/2000/svg" transform="translate(-61,-67)"><svg x="50%" y="50%"><svg xmlns="http://www.w3.org/2000/svg" width="122" height="134"><g id="logo" xmlns="http://www.w3.org/2000/svg" transform="translate(-61,-67)"><svg x="50%" y="50%"><svg xmlns="http://www.w3.org/2000/svg" width="122.957" height="134.603" viewBox="0 0 122.957 134.603"><g transform="translate(-100.271 -377.716)"><path d="M25.763,0A25.758,25.758,0,0,0,1.957,15.98a25.992,25.992,0,0,0,5.588,28.2A25.814,25.814,0,0,0,43.968,7.594,25.748,25.748,0,0,0,25.763,0Z" transform="translate(187.655 416.558) rotate(90)" fill="none" stroke="#d1d1d1" stroke-width="5"/><path d="M32.856,106.009a16.457,16.457,0,0,1-16.415,16.948A16.649,16.649,0,0,1,2.31,97.89a16.179,16.179,0,0,1,6.025-5.873c-.1.447.369-.225,0,0l7.623-6.771A34.817,34.817,0,0,0,25.4,61.5c0-11.992-7.013-24.186-17.091-30.563.385.225-.148-.385,0,0a16.268,16.268,0,0,1-8.3-13.988A16.458,16.458,0,0,1,16.417,0,16.457,16.457,0,0,1,32.832,16.948a34.924,34.924,0,0,0,9.619,23.9L45.8,44.129A47.6,47.6,0,0,0,50,47.4a15.98,15.98,0,0,1,0,28.169c.135-.275-.258.148,0,0a36.879,36.879,0,0,0-17.14,30.44ZM51.23,16.9A16.5,16.5,0,0,0,61.37,32.141a16.353,16.353,0,0,0,17.894-3.578A16.532,16.532,0,0,0,76.776,3.185,16.37,16.37,0,0,0,56.046,5.238,16.55,16.55,0,0,0,51.23,16.9ZM67.653,89.513A16.422,16.422,0,0,0,52.48,99.694a16.566,16.566,0,0,0,3.562,17.98,16.377,16.377,0,0,0,25.268-2.5A16.5,16.5,0,0,0,67.653,89.5Zm42.019-28.059A16.5,16.5,0,0,0,99.536,46.211a16.353,16.353,0,0,0-17.9,3.578,16.535,16.535,0,0,0,2.488,25.382,16.355,16.355,0,0,0,20.731-2.057,16.558,16.558,0,0,0,4.816-11.665Z" transform="translate(223.228 399.196) rotate(90)" fill="#6366f1"/><path d="M16.42,0A16.418,16.418,0,0,0,1.248,10.185,16.566,16.566,0,0,0,4.809,28.161,16.453,16.453,0,0,0,28.023,4.84,16.411,16.411,0,0,0,16.42,0Z" transform="translate(178.271 377.716) rotate(90)" fill="#eb6c45"/><line y1="16.394" x2="25.403" transform="translate(173.234 471.982)" fill="none" stroke="#6366f1" stroke-width="14"/><line x2="23" y2="47" transform="translate(116.11 467.288) rotate(-34)" fill="none" stroke="#6366f1" stroke-width="14"/></g></svg></svg></g></svg></svg></g></svg></svg></g></svg>