<svg width="20" height="18" viewBox="0 0 20 18" fill="none" xmlns="http://www.w3.org/2000/svg">
<path fill-rule="evenodd" clip-rule="evenodd" d="M10.4154 6.49996C12.0262 6.49996 13.332 5.19412 13.332 3.58329C13.332 1.97246 12.0262 0.666626 10.4154 0.666626C8.80453 0.666626 7.4987 1.97246 7.4987 3.58329C7.4987 5.19412 8.80453 6.49996 10.4154 6.49996ZM11.6654 2.33329H9.16537V4.83329H11.6654V2.33329ZM0.832031 9.83329C0.832031 8.91663 1.58203 8.16663 2.4987 8.16663C3.41536 8.16663 4.16536 8.91663 4.16536 9.83329V15.6666C4.16536 16.5833 3.41536 17.3333 2.4987 17.3333C1.58203 17.3333 0.832031 16.5833 0.832031 15.6666V9.83329ZM10.9654 13.1666H16.657C17.582 13.1666 18.332 13.9083 18.332 14.8333L12.182 17.15C11.8487 17.275 11.482 17.2916 11.1404 17.1916L5.83203 15.6833V8.16663H7.16536C7.36536 8.16663 7.56536 8.19996 7.7487 8.27496L13.5154 10.425C13.8987 10.575 14.157 10.9416 14.157 11.35C14.157 11.8916 13.7154 12.3333 13.1737 12.3333H10.982C10.882 12.3333 10.7737 12.3083 10.682 12.275L9.7487 11.9166C9.53203 11.8333 9.29037 11.95 9.21537 12.1666C9.14036 12.3833 9.2487 12.6166 9.46536 12.6916L10.6904 13.1166C10.782 13.15 10.8737 13.1666 10.9654 13.1666ZM19.9987 6.91663C19.9987 8.52746 18.6929 9.83329 17.082 9.83329C15.4712 9.83329 14.1654 8.52746 14.1654 6.91663C14.1654 5.3058 15.4712 3.99996 17.082 3.99996C18.6929 3.99996 19.9987 5.3058 19.9987 6.91663ZM15.832 5.66663H18.332V8.16663H15.832V5.66663Z" fill="#457DF5"/>
</svg>
