<svg width="20" height="20" viewBox="0 0 20 20" fill="none" xmlns="http://www.w3.org/2000/svg">
<path d="M3.33464 9.58339V12.9167C3.33464 13.6084 3.89297 14.1667 4.58464 14.1667C5.2763 14.1667 5.83464 13.6084 5.83464 12.9167V9.58339C5.83464 8.89172 5.2763 8.33339 4.58464 8.33339C3.89297 8.33339 3.33464 8.89172 3.33464 9.58339ZM8.33464 9.58339V12.9167C8.33464 13.6084 8.89297 14.1667 9.58464 14.1667C10.2763 14.1667 10.8346 13.6084 10.8346 12.9167V9.58339C10.8346 8.89172 10.2763 8.33339 9.58464 8.33339C8.89297 8.33339 8.33464 8.89172 8.33464 9.58339ZM2.91797 18.3334H16.2513C16.943 18.3334 17.5013 17.7751 17.5013 17.0834C17.5013 16.3917 16.943 15.8334 16.2513 15.8334H2.91797C2.2263 15.8334 1.66797 16.3917 1.66797 17.0834C1.66797 17.7751 2.2263 18.3334 2.91797 18.3334ZM13.3346 9.58339V12.9167C13.3346 13.6084 13.893 14.1667 14.5846 14.1667C15.2763 14.1667 15.8346 13.6084 15.8346 12.9167V9.58339C15.8346 8.89172 15.2763 8.33339 14.5846 8.33339C13.893 8.33339 13.3346 8.89172 13.3346 9.58339ZM8.80964 1.24172L2.2263 4.70839C1.88464 4.88339 1.66797 5.24172 1.66797 5.62506C1.66797 6.20006 2.13464 6.66672 2.70964 6.66672H16.468C17.0346 6.66672 17.5013 6.20006 17.5013 5.62506C17.5013 5.24172 17.2846 4.88339 16.943 4.70839L10.3596 1.24172C9.8763 0.98339 9.29297 0.98339 8.80964 1.24172Z" fill="#457DF5"/>
</svg>
