<svg width="32" height="32" viewBox="0 0 32 32" fill="none" xmlns="http://www.w3.org/2000/svg">
<path fill-rule="evenodd" clip-rule="evenodd" d="M28.3346 11.9997C28.8869 11.9997 29.3346 11.552 29.3346 10.9997V10.333C29.3346 9.78073 28.8869 9.33301 28.3346 9.33301L3.66797 9.33301C3.11568 9.33301 2.66797 9.78072 2.66797 10.333L2.66797 10.9997C2.66797 11.552 3.11568 11.9997 3.66797 11.9997L28.3346 11.9997ZM3.66797 19.9997C3.11568 19.9997 2.66797 20.4474 2.66797 20.9997V21.6663C2.66797 22.2186 3.11568 22.6663 3.66797 22.6663H28.3346C28.8869 22.6663 29.3346 22.2186 29.3346 21.6663V20.9997C29.3346 20.4474 28.8869 19.9997 28.3346 19.9997H3.66797Z" fill="#457DF5"/>
</svg>
