<svg width="20" height="20" viewBox="0 0 20 20" fill="none" xmlns="http://www.w3.org/2000/svg">
<path fill-rule="evenodd" clip-rule="evenodd" d="M15 3.33317H15.8333C16.75 3.33317 17.5 4.08317 17.5 4.99984V5.83317H2.50764L2.50833 4.99984C2.50833 4.08317 3.24167 3.33317 4.16667 3.33317H5V2.49984C5 2.0415 5.375 1.6665 5.83333 1.6665C6.29167 1.6665 6.66667 2.0415 6.66667 2.49984V3.33317H13.3333V2.49984C13.3333 2.0415 13.7083 1.6665 14.1667 1.6665C14.625 1.6665 15 2.0415 15 2.49984V3.33317ZM2.50625 7.49984L2.5 14.9998C2.5 15.9165 3.24167 16.6665 4.16667 16.6665H15.8333C16.75 16.6665 17.5 15.9165 17.5 14.9998V7.49984H2.50625Z" fill="#798395"/>
</svg>
