<svg width="48" height="48" viewBox="0 0 48 48" fill="none" xmlns="http://www.w3.org/2000/svg">
<path d="M0 4C0 1.79086 1.79086 0 4 0H44C46.2091 0 48 1.79086 48 4V44C48 46.2091 46.2091 48 44 48H4C1.79086 48 0 46.2091 0 44V4Z" fill="#27C3A1"/>
<path d="M21.0011 28.2001L17.5011 24.7001C17.1111 24.3101 16.4911 24.3101 16.1011 24.7001C15.7111 25.0901 15.7111 25.7101 16.1011 26.1001L20.2911 30.2901C20.6811 30.6801 21.3111 30.6801 21.7011 30.2901L32.3011 19.7001C32.6911 19.3101 32.6911 18.6901 32.3011 18.3001C31.9111 17.9101 31.2911 17.9101 30.9011 18.3001L21.0011 28.2001Z" fill="white"/>
</svg>
