<svg width="32" height="32" viewBox="0 0 32 32" fill="none" xmlns="http://www.w3.org/2000/svg">
<path d="M16 29.3332C23.3638 29.3332 29.3334 23.3636 29.3334 15.9998C29.3334 8.63604 23.3638 2.6665 16 2.6665C8.63622 2.6665 2.66669 8.63604 2.66669 15.9998C2.66669 23.3636 8.63622 29.3332 16 29.3332Z" fill="#FFDF57"/>
<path fill-rule="evenodd" clip-rule="evenodd" d="M25.151 15.9985C25.151 21.0532 21.0533 25.1508 15.9987 25.1508C10.944 25.1508 6.84637 21.0532 6.84637 15.9985C6.84637 10.9438 10.944 6.84619 15.9987 6.84619C21.0533 6.84619 25.151 10.9438 25.151 15.9985ZM16.9333 20.2076C17.7761 20.039 18.5501 19.6244 19.1576 19.0162L17.6335 17.4952C17.4325 17.7048 17.1915 17.8719 16.9247 17.9867C16.658 18.1016 16.3709 18.1617 16.0804 18.1636C15.5015 18.1484 14.9514 17.9078 14.5474 17.493C14.1433 17.0782 13.9171 16.522 13.9171 15.9429C13.9171 15.3638 14.1433 14.8076 14.5474 14.3928C14.9514 13.978 15.5015 13.7374 16.0804 13.7222C16.3673 13.7228 16.6511 13.7808 16.9152 13.8927C17.1793 14.0046 17.4183 14.1682 17.6183 14.3738L19.1409 12.8512C18.5301 12.2464 17.7538 11.8361 16.91 11.672C16.0663 11.508 15.1929 11.5976 14.4 11.9296C13.6071 12.2615 12.9303 12.8208 12.4551 13.5371C11.9799 14.2533 11.7275 15.0944 11.7299 15.954C11.7322 16.8135 11.9891 17.6531 12.4682 18.3667C12.9473 19.0804 13.6271 19.6361 14.4218 19.9638C15.2165 20.2914 16.0904 20.3763 16.9333 20.2076Z" fill="#F9AA0D"/>
</svg>
