<svg width="32" height="32" viewBox="0 0 32 32" fill="none" xmlns="http://www.w3.org/2000/svg">
<g clip-path="url(#clip0)">
<path fill-rule="evenodd" clip-rule="evenodd" d="M8.22254 6.33621C7.83201 5.94568 7.19885 5.94568 6.80832 6.33621L6.33692 6.80761C5.9464 7.19814 5.94639 7.8313 6.33692 8.22182L14.1151 16L6.33692 23.7782C5.9464 24.1687 5.9464 24.8019 6.33692 25.1924L6.80832 25.6638C7.19885 26.0543 7.83201 26.0543 8.22254 25.6638L16.0007 17.8856L23.7789 25.6638C24.1694 26.0543 24.8026 26.0543 25.1931 25.6638L25.6645 25.1924C26.055 24.8019 26.055 24.1687 25.6645 23.7782L17.8863 16L25.6645 8.22182C26.055 7.8313 26.055 7.19813 25.6645 6.80761L25.1931 6.33621C24.8026 5.94568 24.1694 5.94568 23.7789 6.33621L16.0007 14.1144L8.22254 6.33621Z" fill="#457DF5"/>
</g>
<defs>
<clipPath id="clip0">
<rect width="32" height="32" fill="white"/>
</clipPath>
</defs>
</svg>
