<svg width="120" height="120" viewBox="0 0 120 120" fill="none" xmlns="http://www.w3.org/2000/svg">
<path d="M92.2613 94C94.0817 94 95.6591 93.3926 97 92.1932L74.0559 69.0062C73.5054 69.4046 72.9718 69.7919 72.4678 70.1603C70.7508 71.4387 69.3572 72.4363 68.2871 73.1511C67.2172 73.8676 65.7936 74.5978 64.0166 75.3434C62.2384 76.0899 60.5818 76.4619 59.045 76.4619H59H58.955C57.4181 76.4619 55.7615 76.09 53.9834 75.3434C52.2054 74.5978 50.7818 73.8676 49.7129 73.1511C48.643 72.4363 47.2501 71.4388 45.5322 70.1603C45.0535 69.8056 44.5225 69.4165 43.9485 69L21 92.1932C22.3408 93.3926 23.9192 94 25.7394 94H92.2613Z" fill="#9EBDFF"/>
<path d="M23.5146 55.8298C21.8166 54.715 20.3109 53.4382 19 52V86L39 66.3037C34.9989 63.5528 29.8436 60.0655 23.5146 55.8298Z" fill="#C4D7FF"/>
<path d="M94.5289 55.8297C88.4388 59.8874 83.2627 63.3806 79 66.3112L99 86V52C97.7177 53.4092 96.2275 54.6851 94.5289 55.8297Z" fill="#C4D7FF"/>
<path d="M91.8565 32H26.1425C23.8499 32 22.0874 32.7548 20.8526 34.2628C19.6169 35.7716 19 37.6584 19 39.9212C19 41.749 19.8186 43.7295 21.4551 45.8631C23.0916 47.9959 24.8329 49.6712 26.6783 50.8898C27.6899 51.5867 30.7407 53.6545 35.8305 57.0926C38.5782 58.9489 40.9676 60.567 43.021 61.9633C44.7712 63.1523 46.2806 64.1819 47.5268 65.0364C47.6699 65.1343 47.8948 65.2912 48.1935 65.4994C48.5152 65.7247 48.9223 66.0106 49.4246 66.3642C50.3918 67.0462 51.1953 67.5975 51.8352 68.0186C52.4743 68.4399 53.2486 68.9105 54.157 69.4331C55.0646 69.9549 55.9207 70.3473 56.7242 70.6083C57.5279 70.8692 58.2718 71 58.9562 71H59.0006H59.0451C59.7294 71 60.4734 70.8692 61.2772 70.6083C62.0806 70.3473 62.9359 69.9557 63.8443 69.4331C64.7518 68.9105 65.5251 68.4389 66.1662 68.0186C66.8062 67.5975 67.6097 67.0463 68.577 66.3642C69.0783 66.0106 69.4854 65.7245 69.8071 65.5001C70.1059 65.291 70.3307 65.1351 70.4747 65.0364C71.4455 64.3778 72.9584 63.3524 74.9924 61.9753C78.6936 59.4681 84.1444 55.7778 91.3677 50.8898C93.5402 49.4104 95.3552 47.6251 96.8139 45.5364C98.27 43.4478 99 41.2569 99 38.9645C99 37.0492 98.2922 35.4103 96.8797 34.0453C95.4656 32.682 93.791 32 91.8565 32Z" fill="#9EBDFF"/>
<circle cx="95" cy="34" r="18" fill="white"/>
<circle cx="95" cy="34" r="12" fill="#457DF5"/>
<circle cx="6" cy="83" r="6" fill="#E7EFFF"/>
<circle cx="116" cy="72" r="4" fill="#E7EFFF"/>
<circle cx="43" cy="16" r="4" fill="#F3F7FF"/>
<circle cx="48" cy="112" r="8" fill="#F3F7FF"/>
</svg>
