<svg width="16" height="16" viewBox="0 0 16 16" fill="none" xmlns="http://www.w3.org/2000/svg">
<path d="M10.6668 1.33317C10.6668 0.964981 10.3684 0.666504 10.0002 0.666504H4.00016C2.66683 0.666504 1.3335 1.99984 1.3335 3.33317V10.6665C1.3335 11.0347 1.63197 11.3332 2.00016 11.3332C2.36835 11.3332 2.66683 11.0347 2.66683 10.6665V3.99984C2.66683 2.89527 3.56226 1.99984 4.66683 1.99984H10.0002C10.3684 1.99984 10.6668 1.70136 10.6668 1.33317ZM10.0002 3.33317L14.0002 7.33317V13.9998C14.0002 14.7332 13.4002 15.3332 12.6668 15.3332H5.32683C4.5935 15.3332 4.00016 14.7332 4.00016 13.9998L4.00683 4.6665C4.00683 3.93317 4.60016 3.33317 5.3335 3.33317H10.0002ZM9.3335 7.99984H13.0002L9.3335 4.33317V7.99984Z" fill="#576071"/>
</svg>
