<svg width="16" height="16" viewBox="0 0 16 16" fill="none" xmlns="http://www.w3.org/2000/svg">
<path fill-rule="evenodd" clip-rule="evenodd" d="M2.40625 0H10.375V2.8125H2.40625C1.65625 2.8125 1 2.15625 1 1.40625C1 0.65625 1.65625 0 2.40625 0ZM2.6875 4.6875H15.0625C15.625 4.6875 16 5.0625 16 5.625V14.0625C16 14.625 15.625 15 15.0625 15H8.00037C8.62806 14.1643 9 13.1256 9 12C9 9.23858 6.76142 7 4 7C2.87439 7 1.83566 7.37194 1 7.99963V3C1 3.93198 1.75552 4.6875 2.6875 4.6875ZM11.3125 9.84375C11.3125 10.5938 11.9688 11.25 12.7188 11.25C13.4688 11.25 14.125 10.5938 14.125 9.84375C14.125 9.09375 13.4688 8.4375 12.7188 8.4375C11.9688 8.4375 11.3125 9.09375 11.3125 9.84375ZM4 16C6.20914 16 8 14.2091 8 12C8 9.79086 6.20914 8 4 8C1.79086 8 0 9.79086 0 12C0 14.2091 1.79086 16 4 16ZM3.5 10V11.5H2V12.5H3.5V14H4.5V12.5H6V11.5H4.5V10H3.5Z" fill="white"/>
</svg>
