<svg width="100" height="100" viewBox="0 0 100 100" fill="none" xmlns="http://www.w3.org/2000/svg">
<path fill-rule="evenodd" clip-rule="evenodd" d="M50 4.10959C24.6554 4.10959 4.10959 24.6554 4.10959 50C4.10959 75.3446 24.6554 95.8904 50 95.8904C75.3446 95.8904 95.8904 75.3446 95.8904 50C95.8904 24.6554 75.3446 4.10959 50 4.10959ZM0 50C0 22.3857 22.3857 0 50 0C77.6143 0 100 22.3857 100 50C100 77.6143 77.6143 100 50 100C22.3857 100 0 77.6143 0 50Z" fill="#E5E9F0"/>
<path d="M34.582 24.4814H56.5622C57.0835 24.4814 57.5843 24.685 57.9577 25.0488L67.3964 34.2424C67.783 34.6189 68.0009 35.1356 68.0009 35.6751V71.0185C68.0009 72.123 67.1055 73.0185 66.001 73.0185H34.582C33.4775 73.0185 32.582 72.123 32.582 71.0185V26.4814C32.582 25.3769 33.4775 24.4814 34.582 24.4814Z" fill="#417AF9"/>
<path opacity="0.3" d="M56.6661 34.5527L56.6661 24.4814C57.3727 24.4814 57.7047 24.8172 58.701 25.8243L67.3359 34.217C67.668 34.5527 68.0001 34.8884 68.0001 35.8955L58.0369 35.9019C57.2798 35.9019 56.6661 35.2978 56.6661 34.5527Z" fill="white"/>
<path fill-rule="evenodd" clip-rule="evenodd" d="M38.7949 44.8871C38.7949 44.1998 39.3513 43.6426 40.0377 43.6426H60.5434C61.2297 43.6426 61.7862 44.1998 61.7862 44.8871C61.7862 45.5745 61.2297 46.1317 60.5434 46.1317H40.0377C39.3513 46.1317 38.7949 45.5745 38.7949 44.8871Z" fill="white"/>
<path fill-rule="evenodd" clip-rule="evenodd" d="M38.7949 53.058C38.7949 52.3707 39.3513 51.8135 40.0377 51.8135H60.5434C61.2297 51.8135 61.7862 52.3707 61.7862 53.058C61.7862 53.7454 61.2297 54.3026 60.5434 54.3026H40.0377C39.3513 54.3026 38.7949 53.7454 38.7949 53.058Z" fill="white"/>
<path fill-rule="evenodd" clip-rule="evenodd" d="M38.7949 61.6127C38.7949 60.9254 39.3513 60.3682 40.0377 60.3682H60.5434C61.2297 60.3682 61.7862 60.9254 61.7862 61.6127C61.7862 62.3 61.2297 62.8572 60.5434 62.8572H40.0377C39.3513 62.8572 38.7949 62.3 38.7949 61.6127Z" fill="white"/>
</svg>
