<svg width="64" height="64" viewBox="0 0 64 64" fill="none" xmlns="http://www.w3.org/2000/svg">
<circle cx="32" cy="32" r="31.5" fill="#F3F7FF" stroke="#F3F7FF"/>
<path d="M19 35C17.12 35 15.38 35.66 14 36.76C12.16 38.22 11 40.48 11 43C11 44.5 11.42 45.92 12.16 47.12C13.54 49.44 16.08 51 19 51C21.02 51 22.86 50.26 24.26 49C24.88 48.48 25.42 47.84 25.84 47.12C26.58 45.92 27 44.5 27 43C27 38.58 23.42 35 19 35ZM23.14 42.14L18.88 46.08C18.6 46.34 18.22 46.48 17.86 46.48C17.48 46.48 17.1 46.34 16.8 46.04L14.82 44.0601C14.24 43.4801 14.24 42.5199 14.82 41.9399C15.4 41.3599 16.36 41.3599 16.94 41.9399L17.9 42.9L21.1 39.9399C21.7 39.3799 22.66 39.42 23.22 40.02C23.78 40.62 23.74 41.58 23.14 42.14Z" fill="#C4D7FF"/>
<path d="M47.96 30.9H52V28.02C52 23.88 48.62 20.5 44.48 20.5H21.52C17.38 20.5 14 23.88 14 28.02V36.76C15.38 35.66 17.12 35 19 35C23.42 35 27 38.58 27 43C27 44.5 26.58 45.92 25.84 47.12C25.42 47.84 24.88 48.48 24.26 49H44.48C48.62 49 52 45.62 52 41.48V39.1H48.2C46.04 39.1 44.06 37.52 43.88 35.36C43.76 34.1 44.24 32.92 45.08 32.1C45.82 31.34 46.84 30.9 47.96 30.9Z" fill="#457DF5"/>
<path d="M38.7 12.9001V20.5001H21.52C17.38 20.5001 14 23.8801 14 28.0201V20.6802C14 18.3002 15.46 16.1801 17.68 15.3401L33.56 9.34007C36.04 8.42007 38.7 10.2401 38.7 12.9001Z" fill="#C4D7FF"/>
<path d="M54.1215 32.9402V37.0603C54.1215 38.1603 53.2415 39.0602 52.1215 39.1002H48.2015C46.0415 39.1002 44.0615 37.5202 43.8815 35.3602C43.7615 34.1002 44.2415 32.9202 45.0815 32.1002C45.8215 31.3402 46.8415 30.9003 47.9615 30.9003H52.1215C53.2415 30.9403 54.1215 31.8402 54.1215 32.9402Z" fill="#C4D7FF"/>
<path d="M37 30.5H23C22.18 30.5 21.5 29.82 21.5 29C21.5 28.18 22.18 27.5 23 27.5H37C37.82 27.5 38.5 28.18 38.5 29C38.5 29.82 37.82 30.5 37 30.5Z" fill="#C4D7FF"/>
</svg>
