<svg width="429" height="32" viewBox="0 0 429 32" fill="none" xmlns="http://www.w3.org/2000/svg">
<mask id="mask0_46860_30974" style="mask-type:alpha" maskUnits="userSpaceOnUse" x="0" y="0" width="429" height="32">
<rect width="429" height="32" fill="#C4D7FF"/>
</mask>
<g mask="url(#mask0_46860_30974)">
<path fill-rule="evenodd" clip-rule="evenodd" d="M-4 41.9828L53.9828 -16L59.6396 -10.3431L1.65685 47.6396L-4 41.9828ZM-19 42.1629L38.9828 -15.8198L44.6396 -10.163L-13.3431 47.8198L-19 42.1629ZM23.9828 -15.6396L-34 42.3431L-28.3431 48L29.6396 -9.98279L23.9828 -15.6396ZM111.983 -15.6396L54 42.3431L59.6569 48L117.64 -9.98279L111.983 -15.6396ZM142 42.3431L199.983 -15.6396L205.64 -9.98279L147.657 48L142 42.3431ZM287.983 -15.6396L230 42.3431L235.657 48L293.64 -9.98279L287.983 -15.6396ZM10 42.3431L67.9828 -15.6396L73.6396 -9.98279L15.6569 48L10 42.3431ZM155.983 -15.6396L98 42.3431L103.657 48L161.64 -9.98279L155.983 -15.6396ZM186 42.3431L243.983 -15.6396L249.64 -9.98279L191.657 48L186 42.3431ZM331.983 -15.6396L274 42.3431L279.657 48L337.64 -9.98279L331.983 -15.6396ZM126.983 -15.8198L69 42.1629L74.6569 47.8198L132.64 -10.163L126.983 -15.8198ZM157 42.1629L214.983 -15.8198L220.64 -10.163L162.657 47.8198L157 42.1629ZM302.983 -15.8198L245 42.1629L250.657 47.8198L308.64 -10.163L302.983 -15.8198ZM25 42.1629L82.9828 -15.8198L88.6396 -10.163L30.6569 47.8198L25 42.1629ZM170.983 -15.8198L113 42.1629L118.657 47.8198L176.64 -10.163L170.983 -15.8198ZM201 42.1629L258.983 -15.8198L264.64 -10.163L206.657 47.8198L201 42.1629ZM346.983 -15.8198L289 42.1629L294.657 47.8198L352.64 -10.163L346.983 -15.8198ZM141.983 -16L84 41.9828L89.6569 47.6396L147.64 -10.3431L141.983 -16ZM172 41.9828L229.983 -16L235.64 -10.3431L177.657 47.6396L172 41.9828ZM317.983 -16L260 41.9828L265.657 47.6396L323.64 -10.3431L317.983 -16ZM40 41.9828L97.9828 -16L103.64 -10.3431L45.6569 47.6396L40 41.9828ZM185.983 -16L128 41.9828L133.657 47.6396L191.64 -10.3431L185.983 -16ZM216 41.9828L273.983 -16L279.64 -10.3431L221.657 47.6396L216 41.9828ZM361.983 -16L304 41.9828L309.657 47.6396L367.64 -10.3431L361.983 -16Z" fill="#E7EFFF"/>
<path fill-rule="evenodd" clip-rule="evenodd" d="M348 41.9828L405.983 -16L411.64 -10.3431L353.657 47.6396L348 41.9828ZM333 42.1629L390.983 -15.8198L396.64 -10.163L338.657 47.8198L333 42.1629ZM375.983 -15.6396L318 42.3431L323.657 48L381.64 -9.98279L375.983 -15.6396ZM463.983 -15.6396L406 42.3431L411.657 48L469.64 -9.98279L463.983 -15.6396ZM494 42.3431L551.983 -15.6396L557.64 -9.98279L499.657 48L494 42.3431ZM639.983 -15.6396L582 42.3431L587.657 48L645.64 -9.98279L639.983 -15.6396ZM362 42.3431L419.983 -15.6396L425.64 -9.98279L367.657 48L362 42.3431ZM507.983 -15.6396L450 42.3431L455.657 48L513.64 -9.98279L507.983 -15.6396ZM538 42.3431L595.983 -15.6396L601.64 -9.98279L543.657 48L538 42.3431ZM683.983 -15.6396L626 42.3431L631.657 48L689.64 -9.98279L683.983 -15.6396ZM478.983 -15.8198L421 42.1629L426.657 47.8198L484.64 -10.163L478.983 -15.8198ZM509 42.1629L566.983 -15.8198L572.64 -10.163L514.657 47.8198L509 42.1629ZM654.983 -15.8198L597 42.1629L602.657 47.8198L660.64 -10.163L654.983 -15.8198ZM377 42.1629L434.983 -15.8198L440.64 -10.163L382.657 47.8198L377 42.1629ZM522.983 -15.8198L465 42.1629L470.657 47.8198L528.64 -10.163L522.983 -15.8198ZM553 42.1629L610.983 -15.8198L616.64 -10.163L558.657 47.8198L553 42.1629ZM698.983 -15.8198L641 42.1629L646.657 47.8198L704.64 -10.163L698.983 -15.8198ZM493.983 -16L436 41.9828L441.657 47.6396L499.64 -10.3431L493.983 -16ZM524 41.9828L581.983 -16L587.64 -10.3431L529.657 47.6396L524 41.9828ZM669.983 -16L612 41.9828L617.657 47.6396L675.64 -10.3431L669.983 -16ZM392 41.9828L449.983 -16L455.64 -10.3431L397.657 47.6396L392 41.9828ZM537.983 -16L480 41.9828L485.657 47.6396L543.64 -10.3431L537.983 -16ZM568 41.9828L625.983 -16L631.64 -10.3431L573.657 47.6396L568 41.9828ZM713.983 -16L656 41.9828L661.657 47.6396L719.64 -10.3431L713.983 -16Z" fill="#E7EFFF"/>
</g>
</svg>
