<svg width="102" height="102" viewBox="0 0 102 102" fill="none" xmlns="http://www.w3.org/2000/svg">
<path d="M71.3569 34.6489H29.92C29.4546 34.6501 29.0086 34.8356 28.6796 35.1646C28.3505 35.4937 28.1651 35.9397 28.1638 36.4051C28.1567 36.7181 28.2488 37.0253 28.4269 37.2828V37.3705C30.215 40.4119 32.5854 43.0708 35.4024 45.1949C38.2195 47.319 41.4279 48.8665 44.8438 49.7489C45.2831 49.8366 45.8092 49.9243 46.2485 50.012H46.3361C46.7683 50.1135 47.2094 50.1722 47.6531 50.1874H47.9161C48.3221 50.2603 48.7347 50.2897 49.1469 50.2751H52.1315C52.5708 50.2751 52.9215 50.1874 53.3623 50.1874H53.6254C54.0646 50.0997 54.5031 50.0997 54.9423 50.012H55.03C55.4692 49.9243 55.9954 49.8366 56.4346 49.7489C59.8502 48.8662 63.0581 47.3186 65.8747 45.1945C68.6914 43.0704 71.0614 40.4117 72.8492 37.3705V37.2828C73.0274 37.0253 73.1194 36.7181 73.1123 36.4051C73.1111 35.9398 72.9258 35.494 72.5969 35.1649C72.2679 34.8359 71.8222 34.6503 71.3569 34.6489V34.6489Z" fill="#417AF9"/>
<path d="M36.8554 50.8037C36.8392 50.6389 36.7826 50.4806 36.6907 50.3428C36.5988 50.2051 36.4744 50.092 36.3285 50.0137C33.2044 48.2219 30.4367 45.8704 28.1639 43.0767C28.0982 42.9451 28.009 42.8265 27.9008 42.7267C27.9008 42.6391 27.8131 42.5514 27.7254 42.4637C27.6486 42.3493 27.5435 42.2567 27.4203 42.195C27.2971 42.1332 27.16 42.1044 27.0223 42.1114C26.7898 42.112 26.5669 42.2046 26.4024 42.3691C26.2379 42.5336 26.1453 42.7565 26.1447 42.9891V63.4444C26.1453 63.677 26.2379 63.8999 26.4024 64.0644C26.5669 64.2289 26.7898 64.3215 27.0223 64.3221C27.2817 64.3289 27.5335 64.2345 27.7247 64.0591C27.7247 64.0591 34.7477 54.2267 36.767 51.3298C36.8386 51.1642 36.869 50.9836 36.8554 50.8037Z" fill="#417AF9"/>
<path d="M64.5969 50.9774C64.6132 50.8126 64.6698 50.6543 64.7617 50.5165C64.8536 50.3787 64.9779 50.2657 65.1238 50.1874C68.2481 48.3961 71.016 46.0452 73.2892 43.252L73.5523 42.9889C73.64 42.9012 73.64 42.8135 73.7277 42.7258C73.8051 42.64 73.9002 42.572 74.0064 42.5266C74.1127 42.4811 74.2276 42.4594 74.3431 42.4627C74.5757 42.4634 74.7986 42.556 74.963 42.7205C75.1275 42.885 75.2202 43.1078 75.2208 43.3404V63.7951C75.2202 64.0276 75.1275 64.2505 74.963 64.415C74.7986 64.5795 74.5757 64.6721 74.3431 64.6727C74.0837 64.6795 73.8319 64.5851 73.6408 64.4097C73.6408 64.4097 66.6162 54.5774 64.5969 51.6797V50.9774Z" fill="#417AF9"/>
<path d="M72.41 68.2725L61.2623 52.5579H61.1746C61.1016 52.4336 60.9996 52.3287 60.8773 52.2522C60.755 52.1757 60.6161 52.1299 60.4723 52.1187C60.3484 52.1055 60.2239 52.1366 60.1208 52.2064C57.0444 53.2846 53.8113 53.848 50.5515 53.8741C47.2911 53.8556 44.0567 53.2919 40.9823 52.2064C40.8946 52.2064 40.8069 52.1187 40.6307 52.1187C40.482 52.1064 40.3332 52.1425 40.2067 52.2217C40.0801 52.3008 39.9825 52.4188 39.9284 52.5579H39.8407L28.6023 68.1841C28.5164 68.2614 28.4484 68.3565 28.403 68.4628C28.3576 68.5691 28.3358 68.6839 28.3392 68.7995C28.3398 69.032 28.4325 69.2549 28.597 69.4194C28.7614 69.5839 28.9843 69.6765 29.2169 69.6772H71.7077C71.8248 69.6842 71.942 69.6664 72.0517 69.6248C72.1614 69.5831 72.261 69.5187 72.344 69.4358C72.4269 69.3528 72.4914 69.2532 72.533 69.1435C72.5746 69.0338 72.5924 68.9166 72.5854 68.7995C72.6248 68.7053 72.6287 68.6 72.5965 68.5031C72.5642 68.4062 72.498 68.3243 72.41 68.2725Z" fill="#417AF9"/>
<path d="M51 99.7421C77.9769 99.7421 99.8461 77.8729 99.8461 50.896C99.8461 23.919 77.9769 2.0498 51 2.0498C24.023 2.0498 2.15381 23.919 2.15381 50.896C2.15381 77.8729 24.023 99.7421 51 99.7421Z" stroke="#78EDDE" stroke-width="3"/>
</svg>
