<svg width="32" height="32" viewBox="0 0 32 32" fill="none" xmlns="http://www.w3.org/2000/svg">
<path d="M0 4C0 1.79086 1.79086 0 4 0H28C30.2091 0 32 1.79086 32 4V28C32 30.2091 30.2091 32 28 32H4C1.79086 32 0 30.2091 0 28V4Z" fill="#E5E9F0"/>
<rect x="10.6667" y="14" width="11.3333" height="1.33333" rx="0.666667" fill="#798395"/>
<path d="M12.4362 11.6094C12.5822 11.4343 12.7984 11.333 13.0264 11.333C13.6777 11.333 14.0335 12.0927 13.6166 12.593L11.5636 15.0566C11.4176 15.2317 11.2014 15.333 10.9734 15.333C10.3221 15.333 9.9663 14.5733 10.3833 14.073L12.4362 11.6094Z" fill="#798395"/>
<path d="M20.4362 16.9434C20.5822 16.7683 20.7984 16.667 21.0264 16.667C21.6777 16.667 22.0335 17.4267 21.6166 17.927L19.5636 20.3906C19.4176 20.5657 19.2014 20.667 18.9734 20.667C18.3221 20.667 17.9663 19.9073 18.3833 19.407L20.4362 16.9434Z" fill="#798395"/>
<rect x="10" y="16.667" width="11.3333" height="1.33333" rx="0.666667" fill="#798395"/>
</svg>
