<svg viewBox="0 0 24 24" fill="none" xmlns="http://www.w3.org/2000/svg">
<rect x="4" y="9" width="17" height="2" rx="1" fill="currentColor"/>
<path d="M6.65448 5.41463C6.87341 5.1519 7.19773 5 7.53972 5C8.51671 5 9.05042 6.13949 8.42497 6.89004L5.34552 10.5854C5.12659 10.8481 4.80227 11 4.46028 11C3.48329 11 2.94958 9.86051 3.57503 9.10996L6.65448 5.41463Z" fill="currentColor"/>
<path d="M18.6545 13.4146C18.8734 13.1519 19.1977 13 19.5397 13C20.5167 13 21.0504 14.1395 20.425 14.89L17.3455 18.5854C17.1266 18.8481 16.8023 19 16.4603 19C15.4833 19 14.9496 17.8605 15.575 17.11L18.6545 13.4146Z" fill="currentColor"/>
<rect x="3" y="13" width="17" height="2" rx="1" fill="currentColor"/>
</svg>
