<svg width="64" height="64" viewBox="0 0 64 64" fill="none" xmlns="http://www.w3.org/2000/svg">
<circle cx="32" cy="32" r="31.5" fill="#F3F7FF" stroke="#F3F7FF"/>
<path d="M51.3403 21.8998C50.0603 17.5598 46.4403 13.9398 42.1003 12.6598C38.8003 11.6998 36.5203 11.7798 34.9403 12.9598C33.0403 14.3798 32.8203 16.9398 32.8203 18.7598V23.7398C32.8203 28.6598 35.0603 31.1598 39.4603 31.1598H45.2003C47.0003 31.1598 49.5803 30.9398 51.0003 29.0398C52.2203 27.4798 52.3203 25.1998 51.3403 21.8998Z" fill="#C4D7FF"/>
<path d="M45.8188 34.7196C45.2988 34.1196 44.5388 33.7796 43.7588 33.7796H36.5988C33.0788 33.7796 30.2188 30.9196 30.2188 27.3996V20.2396C30.2188 19.4596 29.8788 18.6996 29.2788 18.1796C28.6988 17.6596 27.8988 17.4196 27.1388 17.5196C22.4388 18.1196 18.1188 20.6996 15.2988 24.5796C12.4588 28.4796 11.4188 33.2396 12.3188 37.9996C13.6188 44.8796 19.1188 50.3796 26.0188 51.6796C27.1188 51.8996 28.2188 51.9996 29.3188 51.9996C32.9388 51.9996 36.4388 50.8796 39.4188 48.6996C43.2988 45.8796 45.8788 41.5596 46.4788 36.8596C46.5788 36.0796 46.3388 35.2996 45.8188 34.7196Z" fill="#457DF5"/>
</svg>
