<svg width="32" height="32" viewBox="0 0 32 32" fill="none" xmlns="http://www.w3.org/2000/svg">
<path d="M9.33333 13.3332H6.66667V10.6665C6.66667 9.93317 6.06667 9.33317 5.33333 9.33317C4.6 9.33317 4 9.93317 4 10.6665V13.3332H1.33333C0.6 13.3332 0 13.9332 0 14.6665C0 15.3998 0.6 15.9998 1.33333 15.9998H4V18.6665C4 19.3998 4.6 19.9998 5.33333 19.9998C6.06667 19.9998 6.66667 19.3998 6.66667 18.6665V15.9998H9.33333C10.0667 15.9998 10.6667 15.3998 10.6667 14.6665C10.6667 13.9332 10.0667 13.3332 9.33333 13.3332ZM24 14.6665C26.2133 14.6665 27.9867 12.8798 27.9867 10.6665C27.9867 8.45317 26.2133 6.6665 24 6.6665C23.5733 6.6665 23.16 6.73317 22.7867 6.85317C23.5467 7.93317 23.9867 9.23984 23.9867 10.6665C23.9867 12.0932 23.5333 13.3865 22.7867 14.4798C23.16 14.5998 23.5733 14.6665 24 14.6665ZM17.3333 14.6665C19.5467 14.6665 21.32 12.8798 21.32 10.6665C21.32 8.45317 19.5467 6.6665 17.3333 6.6665C15.12 6.6665 13.3333 8.45317 13.3333 10.6665C13.3333 12.8798 15.12 14.6665 17.3333 14.6665ZM17.3333 17.3332C14.6667 17.3332 9.33333 18.6665 9.33333 21.3332V22.6665C9.33333 23.3998 9.93333 23.9998 10.6667 23.9998H24C24.7333 23.9998 25.3333 23.3998 25.3333 22.6665V21.3332C25.3333 18.6665 20 17.3332 17.3333 17.3332ZM26.16 17.5465C27.2667 18.5198 28 19.7598 28 21.3332V23.3332C28 23.5598 27.9733 23.7865 27.9333 23.9998H31.3333C31.7067 23.9998 32 23.7065 32 23.3332V21.3332C32 19.2798 28.84 18.0132 26.16 17.5465Z" fill="#457DF5"/>
</svg>
