<svg width="24" height="24" viewBox="0 0 24 24" fill="none" xmlns="http://www.w3.org/2000/svg">
<path d="M19.5492 10.9969C19.0942 9.97277 18.4328 9.0536 17.6063 8.29686L16.9242 7.67108C16.9011 7.65041 16.8732 7.63575 16.843 7.62837C16.8129 7.62099 16.7814 7.62113 16.7513 7.62876C16.7212 7.6364 16.6935 7.6513 16.6705 7.67217C16.6475 7.69303 16.63 7.71921 16.6195 7.74842L16.3148 8.62264C16.125 9.17108 15.7758 9.73123 15.2812 10.282C15.2484 10.3172 15.2109 10.3265 15.1852 10.3289C15.1594 10.3312 15.1195 10.3265 15.0844 10.2937C15.0516 10.2656 15.0352 10.2234 15.0375 10.1812C15.1242 8.7703 14.7023 7.17889 13.7789 5.44686C13.0148 4.0078 11.9531 2.88515 10.6266 2.10233L9.65859 1.5328C9.53203 1.4578 9.37031 1.55624 9.37734 1.7039L9.42891 2.8289C9.46406 3.59764 9.375 4.27733 9.16406 4.84217C8.90625 5.53358 8.53594 6.17577 8.0625 6.75233C7.73302 7.15302 7.35959 7.51545 6.94922 7.8328C5.96087 8.59256 5.15722 9.56608 4.59844 10.6805C4.04103 11.8045 3.75068 13.0421 3.75 14.2969C3.75 15.4031 3.96797 16.4742 4.39922 17.4843C4.81562 18.4569 5.41654 19.3396 6.16875 20.0836C6.92813 20.8336 7.80938 21.4242 8.79141 21.8343C9.80859 22.2609 10.8867 22.4765 12 22.4765C13.1133 22.4765 14.1914 22.2609 15.2086 21.8367C16.1882 21.4289 17.079 20.8343 17.8312 20.0859C18.5906 19.3359 19.1859 18.4593 19.6008 17.4867C20.0314 16.4793 20.2523 15.3948 20.25 14.2992C20.25 13.1554 20.0156 12.0445 19.5492 10.9969Z" fill="#FF7714"/>
</svg>
