<svg width="14" height="14" viewBox="0 0 14 14" fill="none" xmlns="http://www.w3.org/2000/svg">
<path d="M7.00065 0.333374C3.32065 0.333374 0.333984 3.32004 0.333984 7.00004C0.333984 10.68 3.32065 13.6667 7.00065 13.6667C10.6807 13.6667 13.6673 10.68 13.6673 7.00004C13.6673 3.32004 10.6807 0.333374 7.00065 0.333374ZM7.00065 10.3334C6.63398 10.3334 6.33398 10.0334 6.33398 9.66671V7.00004C6.33398 6.63337 6.63398 6.33337 7.00065 6.33337C7.36732 6.33337 7.66732 6.63337 7.66732 7.00004V9.66671C7.66732 10.0334 7.36732 10.3334 7.00065 10.3334ZM7.66732 4.33337C7.66732 4.70156 7.36884 5.00004 7.00065 5.00004C6.63246 5.00004 6.33398 4.70156 6.33398 4.33337C6.33398 3.96518 6.63246 3.66671 7.00065 3.66671C7.36884 3.66671 7.66732 3.96518 7.66732 4.33337Z" fill="#798395"/>
</svg>
