<svg width="20" height="20" viewBox="0 0 20 20" fill="none" xmlns="http://www.w3.org/2000/svg">
<path d="M16.6666 2.22217H3.33328C2.72217 2.22217 2.22217 2.72217 2.22217 3.33328V16.6666C2.22217 17.2777 2.72217 17.7777 3.33328 17.7777H16.6666C17.2777 17.7777 17.7777 17.2777 17.7777 16.6666V3.33328C17.7777 2.72217 17.2777 2.22217 16.6666 2.22217ZM9.99995 5.27772C11.3777 5.27772 12.4999 6.39995 12.4999 7.77772C12.4999 9.1555 11.3777 10.2777 9.99995 10.2777C8.62217 10.2777 7.49995 9.1555 7.49995 7.77772C7.49995 6.39995 8.62217 5.27772 9.99995 5.27772ZM14.9999 15.5555H4.99995V14.7222C4.99995 13.0555 8.33328 12.2222 9.99995 12.2222C11.6666 12.2222 14.9999 13.0555 14.9999 14.7222V15.5555Z" fill="#457DF5"/>
</svg>
