<svg width="24" height="24" viewBox="0 0 24 24" fill="none" xmlns="http://www.w3.org/2000/svg">
<path d="M12 2C6.48 2 2 6.48 2 12C2 17.52 6.48 22 12 22C17.52 22 22 17.52 22 12C22 6.48 17.52 2 12 2ZM4 12C4 7.58 7.58 4 12 4C13.85 4 15.55 4.63 16.9 5.69L5.69 16.9C4.63 15.55 4 13.85 4 12ZM12 20C10.15 20 8.45 19.37 7.1 18.31L18.31 7.1C19.37 8.45 20 10.15 20 12C20 16.42 16.42 20 12 20Z" fill="#457DF5"/>
<path d="M14.4137 11.6162C15.0182 11.2732 15.3449 10.5866 15.2323 9.89786C15.0924 8.8345 13.8331 8.43306 12.8396 8.34858V6.75H11.8601V8.3345H11.2025V6.75H10.223V8.3345H8.25V9.35564H8.98461C9.31344 9.35564 9.47435 9.45423 9.47435 9.72182V14.1091C9.47435 14.4753 9.29243 14.588 9.09654 14.588H8.34795V15.6303H10.2509V17.25H11.2374V15.6303H11.895V17.25H12.8535V15.6303H13.0634C15.0783 15.6303 15.75 14.6373 15.75 13.2852C15.7339 12.488 15.1847 11.8021 14.4137 11.6162ZM11.2024 9.41901H11.902C12.3918 9.41901 13.3573 9.50353 13.3573 10.3063C13.3908 10.8303 13.0137 11.2894 12.4967 11.3556H11.2024V9.41901ZM12.2868 14.4894V14.4824H11.2024V12.3697H12.4618C12.7556 12.3697 13.861 12.4683 13.861 13.257C13.861 14.0457 13.3363 14.4894 12.2868 14.4894Z" fill="#457DF5"/>
</svg>
