<svg width="24" height="24" viewBox="0 0 24 24" fill="none" xmlns="http://www.w3.org/2000/svg">
<circle cx="12" cy="12" r="12" fill="#457DF5"/>
<path fill-rule="evenodd" clip-rule="evenodd" d="M16.0002 12C16.0002 9.13999 13.1402 7.33999 10.6735 8.23332C10.4335 8.31999 10.1669 8.27999 9.99354 8.10665L9.9402 8.05332C9.6202 7.73332 9.7202 7.17332 10.1402 7.01332C13.4802 5.73999 17.3335 8.15999 17.3335 12L18.5269 12C18.8269 12 18.9735 12.36 18.7669 12.5667L16.9069 14.4267C16.7735 14.56 16.5669 14.56 16.4335 14.4267L14.5735 12.5667C14.3602 12.36 14.5069 12 14.8069 12L16.0002 12ZM8.0002 11.9998C8.0002 14.7798 10.7602 16.6731 13.3202 15.7598C13.5669 15.6798 13.8335 15.7198 14.0135 15.8998L14.0602 15.9465C14.3802 16.2665 14.2802 16.8265 13.8602 16.9865C10.5202 18.2598 6.66687 15.8398 6.66687 11.9998L5.46687 11.9998C5.17354 11.9998 5.02687 11.6398 5.23354 11.4331L7.09354 9.57314C7.22687 9.43981 7.43354 9.43981 7.56687 9.57314L9.42687 11.4331C9.6402 11.6398 9.49354 11.9998 9.19354 11.9998L8.0002 11.9998Z" fill="white"/>
</svg>
