<svg width="108" height="101" viewBox="0 0 108 101" fill="none" xmlns="http://www.w3.org/2000/svg">
<mask id="path-1-outside-1_44302_192911" maskUnits="userSpaceOnUse" x="28" y="0" width="80" height="88" fill="black">
<rect fill="white" x="28" width="80" height="88"/>
<path fill-rule="evenodd" clip-rule="evenodd" d="M67.9998 40C76.8363 40 83.9998 32.8366 83.9998 24C83.9998 15.1634 76.8363 8 67.9998 8C59.1632 8 51.9998 15.1634 51.9998 24C51.9998 32.8366 59.1632 40 67.9998 40ZM65.4545 44C49.1873 44 36 57.1872 36 73.4545C36 77.0695 38.9305 80 42.5455 80H93.4545C97.0695 80 100 77.0695 100 73.4545C100 57.1872 86.8128 44 70.5455 44H65.4545Z"/>
</mask>
<path fill-rule="evenodd" clip-rule="evenodd" d="M67.9998 40C76.8363 40 83.9998 32.8366 83.9998 24C83.9998 15.1634 76.8363 8 67.9998 8C59.1632 8 51.9998 15.1634 51.9998 24C51.9998 32.8366 59.1632 40 67.9998 40ZM65.4545 44C49.1873 44 36 57.1872 36 73.4545C36 77.0695 38.9305 80 42.5455 80H93.4545C97.0695 80 100 77.0695 100 73.4545C100 57.1872 86.8128 44 70.5455 44H65.4545Z" fill="#9EBDFF"/>
<path d="M75.9998 24C75.9998 28.4183 72.418 32 67.9998 32V48C81.2546 48 91.9998 37.2548 91.9998 24H75.9998ZM67.9998 16C72.418 16 75.9998 19.5817 75.9998 24H91.9998C91.9998 10.7452 81.2546 0 67.9998 0V16ZM59.9998 24C59.9998 19.5817 63.5815 16 67.9998 16V0C54.7449 0 43.9998 10.7452 43.9998 24H59.9998ZM67.9998 32C63.5815 32 59.9998 28.4183 59.9998 24H43.9998C43.9998 37.2548 54.7449 48 67.9998 48V32ZM44 73.4545C44 61.6055 53.6055 52 65.4545 52V36C44.769 36 28 52.769 28 73.4545H44ZM42.5455 72C43.3488 72 44 72.6512 44 73.4545H28C28 81.4878 34.5122 88 42.5455 88V72ZM93.4545 72H42.5455V88H93.4545V72ZM92 73.4545C92 72.6512 92.6512 72 93.4545 72V88C101.488 88 108 81.4878 108 73.4545H92ZM70.5455 52C82.3945 52 92 61.6055 92 73.4545H108C108 52.769 91.231 36 70.5455 36V52ZM65.4545 52H70.5455V36H65.4545V52Z" fill="#F7FAFF" mask="url(#path-1-outside-1_44302_192911)"/>
<mask id="path-3-outside-2_44302_192911" maskUnits="userSpaceOnUse" x="0" y="0" width="80" height="88" fill="black">
<rect fill="white" width="80" height="88"/>
<path fill-rule="evenodd" clip-rule="evenodd" d="M39.9998 40C48.8363 40 55.9998 32.8366 55.9998 24C55.9998 15.1634 48.8363 8 39.9998 8C31.1632 8 23.9998 15.1634 23.9998 24C23.9998 32.8366 31.1632 40 39.9998 40ZM37.4545 44C21.1873 44 8 57.1872 8 73.4545C8 77.0695 10.9305 80 14.5455 80H65.4545C69.0695 80 72 77.0695 72 73.4545C72 57.1872 58.8128 44 42.5455 44H37.4545Z"/>
</mask>
<path fill-rule="evenodd" clip-rule="evenodd" d="M39.9998 40C48.8363 40 55.9998 32.8366 55.9998 24C55.9998 15.1634 48.8363 8 39.9998 8C31.1632 8 23.9998 15.1634 23.9998 24C23.9998 32.8366 31.1632 40 39.9998 40ZM37.4545 44C21.1873 44 8 57.1872 8 73.4545C8 77.0695 10.9305 80 14.5455 80H65.4545C69.0695 80 72 77.0695 72 73.4545C72 57.1872 58.8128 44 42.5455 44H37.4545Z" fill="#9EBDFF"/>
<path d="M47.9998 24C47.9998 28.4183 44.418 32 39.9998 32V48C53.2546 48 63.9998 37.2548 63.9998 24H47.9998ZM39.9998 16C44.418 16 47.9998 19.5817 47.9998 24H63.9998C63.9998 10.7452 53.2546 0 39.9998 0V16ZM31.9998 24C31.9998 19.5817 35.5815 16 39.9998 16V0C26.7449 0 15.9998 10.7452 15.9998 24H31.9998ZM39.9998 32C35.5815 32 31.9998 28.4183 31.9998 24H15.9998C15.9998 37.2548 26.7449 48 39.9998 48V32ZM16 73.4545C16 61.6055 25.6055 52 37.4545 52V36C16.769 36 0 52.769 0 73.4545H16ZM14.5455 72C15.3488 72 16 72.6512 16 73.4545H0C0 81.4878 6.51222 88 14.5455 88V72ZM65.4545 72H14.5455V88H65.4545V72ZM64 73.4545C64 72.6512 64.6512 72 65.4545 72V88C73.4878 88 80 81.4878 80 73.4545H64ZM42.5455 52C54.3945 52 64 61.6055 64 73.4545H80C80 52.769 63.231 36 42.5455 36V52ZM37.4545 52H42.5455V36H37.4545V52Z" fill="#F7FAFF" mask="url(#path-3-outside-2_44302_192911)"/>
<path d="M100 6C100 3.79429 98.2057 2 96 2C93.7943 2 92 3.79429 92 6C92 8.20571 93.7943 10 96 10C98.2057 10 100 8.20571 100 6Z" fill="#9EBDFF"/>
<path d="M16 34C16 30.6914 13.3086 28 10 28C6.69143 28 4 30.6914 4 34C4 37.3086 6.69143 40 10 40C13.3086 40 16 37.3086 16 34Z" fill="#9EBDFF"/>
<path d="M61 95C61 93.3457 59.6543 92 58 92C56.3457 92 55 93.3457 55 95C55 96.6543 56.3457 98 58 98C59.6543 98 61 96.6543 61 95Z" fill="#9EBDFF"/>
<circle cx="27" cy="75" r="26" fill="#F7FAFF"/>
<path d="M46.9999 75C46.9999 63.9714 38.0285 55 26.9999 55C15.9713 55 6.99988 63.9714 6.99988 75C6.99988 86.0286 15.9713 95 26.9999 95C38.0285 95 46.9999 86.0286 46.9999 75Z" fill="#457DF5"/>
<path d="M19.3969 85V81.1464L26.98 75.0578C27.4829 74.6532 27.913 74.2742 28.2703 73.921C28.6343 73.5613 28.9122 73.192 29.1041 72.8131C29.3026 72.4342 29.4019 72.0135 29.4019 71.5511C29.4019 71.0437 29.2894 70.6101 29.0644 70.2505C28.846 69.8908 28.5416 69.6146 28.1512 69.422C27.7608 69.2229 27.3109 69.1233 26.8014 69.1233C26.2919 69.1233 25.8419 69.2229 25.4515 69.422C25.0677 69.6211 24.7699 69.9133 24.5582 70.2987C24.3464 70.684 24.2406 71.1529 24.2406 71.7052H18.9999C18.9999 70.3179 19.3208 69.1233 19.9627 68.1214C20.6045 67.1195 21.511 66.3487 22.6823 65.8092C23.8535 65.2697 25.2265 65 26.8014 65C28.4292 65 29.8386 65.2537 31.0297 65.7611C32.2273 66.262 33.1504 66.9685 33.7989 67.8805C34.454 68.7926 34.7815 69.8619 34.7815 71.0886C34.7815 71.8465 34.6194 72.6012 34.2952 73.3526C33.9709 74.0976 33.3886 74.9229 32.5483 75.8285C31.7079 76.7341 30.5135 77.8131 28.9651 79.0655L27.0594 80.6069V80.7225H34.9999V85H19.3969Z" fill="white"/>
</svg>
