<svg width="96" height="96" viewBox="0 0 96 96" fill="none" xmlns="http://www.w3.org/2000/svg">
<path fill-rule="evenodd" clip-rule="evenodd" d="M87.4129 8.53782C78.6314 -0.178686 64.3421 -0.179862 55.5592 8.53782L45.6013 18.4219L45.6012 18.4219L45.6012 18.4219C45.5835 18.4396 45.5642 18.4587 45.5479 18.4763C36.8694 27.1384 36.7477 41.2422 45.6013 50.0391C46.5382 50.9691 47.5558 51.8154 48.6422 52.5684C49.5908 53.2256 50.8744 53.1257 51.6924 52.3138L54.8122 49.2169C56.0496 47.9888 56.6044 46.3872 56.5457 44.8329C56.5315 44.4656 56.4311 44.1067 56.2523 43.7848C56.0736 43.4629 55.8215 43.1869 55.5163 42.9788C55.0848 42.6839 54.5323 42.2617 53.9839 41.7184C49.8239 37.5893 49.8064 30.8873 53.9839 26.7408L63.9419 16.8582C68.1264 12.7047 74.9519 12.7297 79.1048 16.9332C83.2169 21.0957 83.0868 27.8078 78.9337 31.93L76.9944 33.8549C76.3498 34.4947 76.1395 35.4419 76.4338 36.2982C77.3027 38.8272 77.7737 41.446 77.8697 44.0526C77.9451 46.098 80.4561 47.0599 81.9142 45.6126L87.4128 40.1549C96.1958 31.4388 96.1958 17.254 87.4129 8.53782ZM66.3987 29.9611C75.2523 38.758 75.1308 52.8617 66.4521 61.5238C66.4358 61.5414 66.4165 61.5605 66.3988 61.5782L66.3987 61.5782L56.4408 71.4622C54.1856 73.7006 51.5675 75.3642 48.7728 76.453C48.9227 75.3233 49 74.1707 49 73C49 69.7622 48.4082 66.6627 47.3268 63.8037C47.5783 63.5963 47.8224 63.3756 48.058 63.1417L58.016 53.2591C62.1934 49.1127 62.1759 42.4107 58.016 38.2816C57.4675 37.7383 56.9151 37.3161 56.4836 37.0212C56.1783 36.8132 55.9263 36.5371 55.7476 36.2152C55.5688 35.8933 55.4684 35.5344 55.4542 35.1671C55.3955 33.6129 55.9503 32.0113 57.1876 30.7831L60.3075 27.6863C61.1256 26.8742 62.409 26.7745 63.3577 27.4317C64.4442 28.1847 65.4618 29.031 66.3987 29.9611ZM32.427 48.7617C32.6282 48.5241 32.8414 48.2932 33.0663 48.07L35.0055 46.1451C35.6501 45.5053 35.8604 44.5581 35.5661 43.7018C34.6972 41.1728 34.2262 38.554 34.1302 35.9474C34.0549 33.902 31.5438 32.9401 30.0857 34.3874L24.5872 39.8451C22.3979 42.0177 20.7543 44.5302 19.6565 47.213C20.7512 47.0725 21.8671 47 23 47C26.325 47 29.5043 47.6242 32.427 48.7617Z" fill="#9EBDFF"/>
<path d="M43 73C43 61.9714 34.0286 53 23 53C11.9714 53 3 61.9714 3 73C3 84.0286 11.9714 93 23 93C34.0286 93 43 84.0286 43 73Z" fill="#457DF5"/>
<path d="M94 69C94 65.14 90.86 62 87 62C83.14 62 80 65.14 80 69C80 72.86 83.14 76 87 76C90.86 76 94 72.86 94 69Z" fill="#9EBDFF"/>
<path d="M40 4C40 1.79429 38.2057 0 36 0C33.7943 0 32 1.79429 32 4C32 6.20571 33.7943 8 36 8C38.2057 8 40 6.20571 40 4Z" fill="#9EBDFF"/>
<path d="M12 22C12 18.6914 9.30857 16 6 16C2.69143 16 0 18.6914 0 22C0 25.3086 2.69143 28 6 28C9.30857 28 12 25.3086 12 22Z" fill="#9EBDFF"/>
<path d="M27 63V83H21.5276V68H21.4094L17 70.6172V66.0078L21.9606 63H27Z" fill="white"/>
</svg>
