<svg width="96" height="96" viewBox="0 0 96 96" fill="none" xmlns="http://www.w3.org/2000/svg">
<path fill-rule="evenodd" clip-rule="evenodd" d="M53.1893 9.0007C34.4393 8.88095 19.1002 24.1092 19.0005 42.9498C18.9927 44.4117 19.079 45.853 19.2539 47.2679C20.4771 47.0914 21.7279 47 23 47C29.1566 47 34.8133 49.1398 39.2672 52.7163C39.127 52.124 39.0373 51.5186 39 50.9066H47.4849C47.6209 51.5548 47.9017 52.1638 48.3062 52.6877C48.7106 53.2117 49.2282 53.6371 49.8201 53.9319C52.03 55.0679 54.3229 55.018 56.4483 53.7807C57.7661 53.0137 58.5299 51.725 58.4892 50.3333C58.4529 48.9825 57.6484 47.7785 56.3396 47.1144C54.9489 46.4063 53.4523 45.9836 52.004 45.5746L51.9772 45.567L51.6753 45.4807C51.1616 45.3345 50.6423 45.1953 50.1391 45.0605L50.0873 45.0466L50.0705 45.0421C48.1144 44.5174 46.2663 44.0216 44.5278 43.1679C41.0107 41.4405 39.3547 38.6103 39.4664 34.517C39.6068 29.433 42.6439 25.9207 47.8019 24.8618L47.8308 24.855C48.0335 24.8075 48.2314 24.7611 48.4389 24.7105L48.765 24.6349C49.0311 24.5733 49.2686 24.4231 49.4386 24.2088C49.6086 23.9945 49.701 23.7288 49.7008 23.455V21H55.7268V23.4732C55.7266 23.7493 55.8207 24.0172 55.9934 24.2324C56.1661 24.4475 56.4071 24.5971 56.6763 24.6561C59.6213 25.3005 61.8689 26.4849 63.3573 28.1745C64.6932 29.6887 65.4706 31.6218 65.7212 34.0421H57.4385C57.1504 33.3623 56.7276 32.7483 56.1957 32.2371C55.6638 31.7259 55.0339 31.3282 54.3441 31.0682C53.4723 30.7412 52.5332 30.6363 51.611 30.7631C50.6888 30.8898 49.8125 31.2442 49.0608 31.7943C48.6418 32.0889 48.2966 32.477 48.0525 32.9279C47.8084 33.3788 47.672 33.8803 47.654 34.393C47.6422 34.8862 47.7452 35.3753 47.9548 35.8217C48.1644 36.268 48.4748 36.6593 48.8616 36.9645C49.6651 37.6059 50.5802 38.0926 51.5606 38.4C52.7214 38.7646 53.9033 39.0958 55.0475 39.4165C55.1154 39.4356 55.1835 39.4548 55.2517 39.4739C56.5986 39.8524 57.9921 40.2439 59.3254 40.6902C60.6586 41.1437 61.9338 41.753 63.1248 42.5054C65.5521 44.0226 66.8503 46.3475 66.9846 49.4151C67.2473 55.3901 64.1377 59.4531 58.2507 60.8584L57.505 61.0338L57.1065 61.1261C56.8411 61.1882 56.6045 61.3385 56.4351 61.5524C56.2658 61.7663 56.1736 62.0314 56.1736 62.3045V64.9939L50.1326 65V62.3468C50.1325 62.0676 50.0362 61.797 49.8599 61.5809C49.6835 61.3648 49.438 61.2164 49.165 61.1609C47.8183 60.8867 46.6209 60.5243 45.5586 60.0641C47.748 63.8738 49 68.2907 49 73C49 74.2625 48.91 75.504 48.7361 76.7185C50.0845 76.8919 51.4575 76.9869 52.8502 76.9988C71.5004 77.1584 86.8594 61.9102 86.999 43.1095C87.1387 24.5083 71.8993 9.12045 53.1893 9.0007Z" fill="#9EBDFF"/>
<path fill-rule="evenodd" clip-rule="evenodd" d="M1.00017 11.9823C1.03537 5.33265 6.44916 -0.0420171 13.0668 0.000247569C19.6704 0.0425123 25.0489 5.47353 24.9997 12.0386C24.9504 18.6742 19.5296 24.0559 12.9471 23.9996C6.32244 23.9432 0.964972 18.5545 1.00017 11.9823ZM13.9067 18.1423V18.9981L12.1807 19V18.1558C12.1807 18.067 12.1532 17.9809 12.1028 17.9121C12.0524 17.8433 11.9823 17.7961 11.9043 17.7785C10.7368 17.5138 9.9622 16.9906 9.46622 16.1242C9.19165 15.6406 9.03126 15.0872 9 14.5157H11.4243C11.4631 14.722 11.5433 14.9157 11.6589 15.0825C11.7745 15.2492 11.9223 15.3845 12.0915 15.4783C12.7229 15.8398 13.378 15.8239 13.9852 15.4302C14.3617 15.1862 14.58 14.7761 14.5683 14.3333C14.558 13.9035 14.3281 13.5204 13.9542 13.3091C13.5568 13.0838 13.1292 12.9493 12.7154 12.8192L12.7078 12.8168L12.6215 12.7893C12.4748 12.7428 12.3265 12.6986 12.1828 12.6557L12.1678 12.6512L12.163 12.6498C11.6041 12.4828 11.0761 12.3251 10.5794 12.0534C9.57447 11.5038 9.10135 10.6033 9.13327 9.30088C9.17338 7.68324 10.0411 6.56566 11.5148 6.22876L11.5232 6.22657C11.5811 6.21146 11.6376 6.1967 11.6968 6.18063L11.79 6.15656C11.866 6.13696 11.9339 6.08917 11.9825 6.02098C12.031 5.9528 12.0574 5.86825 12.0574 5.78115V5H13.7791V5.78692C13.779 5.87478 13.8059 5.96002 13.8553 6.02848C13.9046 6.09695 13.9734 6.14452 14.0504 6.1633C14.8918 6.36833 15.534 6.74519 15.9592 7.2828C16.3409 7.76458 16.563 8.37967 16.6346 9.14975H14.2682C14.1858 8.93346 14.065 8.73808 13.9131 8.57543C13.7611 8.41278 13.5811 8.28626 13.384 8.20352C13.135 8.09948 12.8666 8.06611 12.6031 8.10643C12.3397 8.14676 12.0893 8.25951 11.8745 8.43454C11.7548 8.5283 11.6562 8.65177 11.5864 8.79524C11.5167 8.93871 11.4777 9.09829 11.4726 9.26142C11.4692 9.41833 11.4986 9.57396 11.5585 9.71598C11.6184 9.858 11.7071 9.9825 11.8176 10.0796C12.0472 10.2837 12.3086 10.4386 12.5887 10.5364C12.9204 10.6524 13.2581 10.7578 13.585 10.8598C13.6044 10.8659 13.6239 10.872 13.6434 10.8781C14.0282 10.9985 14.4263 11.1231 14.8073 11.2651C15.1882 11.4094 15.5525 11.6032 15.8928 11.8426C16.5863 12.3254 16.9572 13.0651 16.9956 14.0412C17.0707 15.9423 16.1822 17.2351 14.5002 17.6822L14.2871 17.738L14.1733 17.7674C14.0975 17.7872 14.0299 17.835 13.9815 17.903C13.9331 17.9711 13.9067 18.0554 13.9067 18.1423Z" fill="#9EBDFF"/>
<path d="M86.0334 5.00012C82.7246 4.97899 80.0177 7.66632 80.0001 10.9911C79.9825 14.2772 82.6612 16.9716 85.9736 16.9998C89.2648 17.028 91.9752 14.3371 91.9998 11.0193C92.0245 7.73676 89.3352 5.02126 86.0334 5.00012Z" fill="#9EBDFF"/>
<path d="M83.0167 80.0001C81.3623 79.9895 80.0088 81.3332 80 82.9956C79.9912 84.6386 81.3306 85.9858 82.9868 85.9999C84.6324 86.014 85.9876 84.6686 85.9999 83.0097C86.0122 81.3684 84.6676 80.0106 83.0167 80.0001Z" fill="#9EBDFF"/>
<path d="M43 73C43 61.9714 34.0286 53 23 53C11.9714 53 3 61.9714 3 73C3 84.0286 11.9714 93 23 93C34.0286 93 43 84.0286 43 73Z" fill="#457DF5"/>
<path d="M22.9048 83C21.372 83 20.0102 82.737 18.8194 82.211C17.6349 81.6787 16.7038 80.9468 16.0261 80.0152C15.3484 79.0837 15.0063 78.0127 15 76.8023H20.3206C20.3269 77.1762 20.4409 77.512 20.6626 77.8099C20.8906 78.1014 21.201 78.3295 21.5937 78.4943C21.9864 78.6591 22.4361 78.7414 22.9428 78.7414C23.4306 78.7414 23.8613 78.6559 24.235 78.4848C24.6087 78.3074 24.9001 78.0634 25.1091 77.7529C25.3181 77.4423 25.4194 77.0875 25.4131 76.6882C25.4194 76.2953 25.2991 75.9468 25.0521 75.6426C24.8114 75.3384 24.4725 75.1008 24.0355 74.9297C23.5984 74.7586 23.0949 74.673 22.5248 74.673H20.5486V71.0228H22.5248C23.0505 71.0228 23.5129 70.9373 23.9119 70.7662C24.3173 70.5951 24.6309 70.3574 24.8525 70.0532C25.0806 69.749 25.1914 69.4005 25.1851 69.0076C25.1914 68.6274 25.0996 68.2915 24.9096 68C24.7195 67.7085 24.4535 67.4804 24.1115 67.3156C23.7758 67.1508 23.3862 67.0684 22.9428 67.0684C22.4615 67.0684 22.0307 67.154 21.6507 67.3251C21.277 67.4962 20.9825 67.7338 20.7671 68.038C20.5518 68.3422 20.4409 68.6907 20.4346 69.0837H15.38C15.3864 67.8923 15.7126 66.8403 16.3586 65.9278C17.011 65.0152 17.9041 64.2991 19.0379 63.7795C20.1717 63.2598 21.4734 63 22.9428 63C24.3807 63 25.6506 63.244 26.7527 63.7319C27.8612 64.2199 28.7258 64.8916 29.3465 65.7471C29.9736 66.5963 30.284 67.5691 30.2776 68.6654C30.2903 69.7554 29.9166 70.6489 29.1565 71.346C28.4028 72.0431 27.4463 72.455 26.2872 72.5817V72.7338C27.858 72.9049 29.0393 73.3866 29.8311 74.1787C30.6228 74.9645 31.0124 75.9531 30.9997 77.1445C31.006 78.2852 30.664 79.2959 29.9736 80.1768C29.2895 81.0577 28.3362 81.7484 27.1138 82.249C25.8977 82.7497 24.4947 83 22.9048 83Z" fill="white"/>
</svg>
