<svg width="48" height="48" viewBox="0 0 48 48" fill="none" xmlns="http://www.w3.org/2000/svg">
<path d="M0 4C0 1.79086 1.79086 0 4 0H44C46.2091 0 48 1.79086 48 4V44C48 46.2091 46.2091 48 44 48H4C1.79086 48 0 46.2091 0 44V4Z" fill="#457DF5"/>
<path d="M17.4175 24.99L28.5875 24.99L23.7075 29.87C23.3175 30.26 23.3175 30.9 23.7075 31.29C24.0975 31.68 24.7275 31.68 25.1175 31.29L31.7075 24.7C32.0975 24.31 32.0975 23.68 31.7075 23.29L25.1175 16.7C24.7275 16.31 24.0975 16.31 23.7075 16.7C23.3175 17.09 23.3175 17.72 23.7075 18.11L28.5875 22.99L17.4175 22.99C16.8675 22.99 16.4175 23.44 16.4175 23.99C16.4175 24.54 16.8675 24.99 17.4175 24.99Z" fill="white"/>
</svg>
