<svg width="120" height="120" viewBox="0 0 120 120" fill="none" xmlns="http://www.w3.org/2000/svg">
<circle r="6.5" transform="matrix(-1 0 0 1 13.5 104.5)" fill="#E5E9F0"/>
<circle r="4" transform="matrix(-1 0 0 1 109 71)" fill="#E5E9F0"/>
<circle r="4" transform="matrix(-1 0 0 1 16 26)" fill="#E5E9F0"/>
<circle r="6" transform="matrix(-1 0 0 1 79 104)" fill="#F0F3F8"/>
<circle r="4" transform="matrix(-1 0 0 1 83 7)" fill="#F0F3F8"/>
<path d="M69.3736 51.6267C78.2226 60.4848 78.1011 74.6866 69.4269 83.4089C69.4106 83.4267 69.3914 83.4459 69.3736 83.4637L59.4208 93.4165C50.6425 102.195 36.3607 102.194 27.5837 93.4165C18.8054 84.6396 18.8054 70.3562 27.5837 61.5794L33.0794 56.0838C34.5368 54.6264 37.0466 55.595 37.1218 57.6546C37.2178 60.2794 37.6885 62.9164 38.557 65.4629C38.8511 66.3252 38.641 67.279 37.9967 67.9233L36.0584 69.8616C31.9076 74.0124 31.7774 80.7711 35.8873 84.9625C40.0379 89.1953 46.86 89.2204 51.0424 85.0381L60.9952 75.0868C65.1705 70.9115 65.153 64.1629 60.9952 60.0051C60.447 59.458 59.8949 59.0329 59.4636 58.7359C59.1585 58.5264 58.9066 58.2485 58.7279 57.9243C58.5493 57.6002 58.4489 57.2388 58.4347 56.8689C58.3761 55.3039 58.9306 53.6911 60.1673 52.4544L63.2855 49.3361C64.1032 48.5184 65.386 48.4179 66.3342 49.0797C67.42 49.8379 68.4371 50.6902 69.3736 51.6267Z" fill="#B6BDCB"/>
<path d="M90.247 30.5833C81.4701 21.8062 67.1883 21.805 58.41 30.5833L48.4572 40.536C48.4394 40.5538 48.4202 40.5731 48.4039 40.5908C39.7298 49.3131 39.6082 63.5149 48.4572 72.3731C49.3936 73.3095 50.4107 74.1617 51.4965 74.9199C52.4447 75.5816 53.7276 75.4811 54.5451 74.6635L57.6634 71.5451C58.9001 70.3084 59.4546 68.6957 59.3959 67.1307C59.3817 66.7608 59.2813 66.3994 59.1027 66.0752C58.9241 65.7511 58.6721 65.4732 58.367 65.2636C57.9357 64.9667 57.3836 64.5416 56.8354 63.9945C52.6776 59.8367 52.6602 53.0881 56.8354 48.9128L66.7882 38.9615C70.9706 34.7791 77.7926 34.8043 81.9433 39.0371C86.0532 43.2285 85.9232 49.9872 81.7722 54.138L79.8339 56.0763C79.1897 56.7205 78.9795 57.6744 79.2737 58.5366C80.1422 61.0832 80.6128 63.7202 80.7088 66.345C80.7842 68.4045 83.2939 69.3732 84.7512 67.9158L90.2469 62.4201C99.0254 53.6435 99.0253 39.3601 90.247 30.5833Z" fill="#E5E9F0"/>
</svg>
