<svg width="24" height="24" viewBox="0 0 24 24" fill="none" xmlns="http://www.w3.org/2000/svg">
<rect y="4" width="24" height="16" rx="2" fill="#29313F"/>
<path d="M14.1624 8.07056H9.83594V15.9336H14.1624V8.07056Z" fill="#EB611D"/>
<path d="M10.1105 12C10.1105 10.4044 10.8485 8.98523 12 8.06645C11.1566 7.39787 10.0983 7 8.94273 7C6.21389 7 4 9.23954 4 12C4 14.7646 6.21389 17 8.94273 17C10.0943 17 11.1566 16.6021 11.996 15.9295C10.8485 15.0189 10.1105 13.5997 10.1105 12Z" fill="#E41322"/>
<path d="M20 12C20 14.7646 17.7861 17 15.0573 17C13.9057 17 12.8434 16.6021 12 15.9295C13.1515 15.0148 13.8895 13.5915 13.8895 11.9959C13.8895 10.4003 13.1515 8.98113 12 8.06235C12.8393 7.39787 13.9017 7 15.0532 7C17.7861 7 20 9.23954 20 12Z" fill="#F59E21"/>
</svg>
