<svg width="25" height="24" viewBox="0 0 25 24" fill="none" xmlns="http://www.w3.org/2000/svg">
<path d="M21.5014 2L13.7012 7.94359L15.1518 4.4359L21.5014 2Z" fill="#E17726"/>
<path d="M3.47461 2L11.2273 7.99231L9.84797 4.4359L3.47461 2Z" fill="#E27625"/>
<path d="M18.6953 15.7627L16.6025 19.0268L21.0734 20.2935L22.3338 15.8358L18.6953 15.7627Z" fill="#E27625"/>
<path d="M2.66602 15.8358L3.92642 20.2935L8.37351 19.0268L6.30454 15.7627L2.66602 15.8358Z" fill="#E27625"/>
<path d="M8.13604 10.2579L6.89941 12.1823L11.2989 12.3772L11.1563 7.50537L8.13604 10.2579Z" fill="#E27625"/>
<path d="M16.8641 10.2578L13.7963 7.45654L13.7012 12.3771L18.1007 12.1822L16.8641 10.2578Z" fill="#E27625"/>
<path d="M8.37402 19.027L11.0375 17.7116L8.73074 15.8604L8.37402 19.027Z" fill="#E27625"/>
<path d="M13.9629 17.7116L16.6026 19.027L16.2459 15.8604L13.9629 17.7116Z" fill="#E27625"/>
<path d="M16.6026 19.0268L13.9629 17.7114L14.1769 19.4653L14.1531 20.2204L16.6026 19.0268Z" fill="#D5BFB2"/>
<path d="M8.37402 19.0268L10.8473 20.2204L10.8235 19.4653L11.0375 17.7114L8.37402 19.0268Z" fill="#D5BFB2"/>
<path d="M10.8952 14.6912L8.68359 14.0335L10.2294 13.3027L10.8952 14.6912Z" fill="#233447" stroke="#233447" stroke-linecap="round" stroke-linejoin="round"/>
<path d="M14.1055 14.6912L14.7476 13.3027L16.3171 14.0335L14.1055 14.6912Z" fill="#233447" stroke="#233447" stroke-linecap="round" stroke-linejoin="round"/>
<path d="M8.37365 19.0268L8.75415 15.7627L6.30469 15.8358L8.37365 19.0268Z" fill="#CC6228"/>
<path d="M16.2451 15.7627L16.6018 19.0268L18.6946 15.8358L16.2451 15.7627Z" fill="#CC6228"/>
<path d="M18.1007 12.1821L13.7012 12.377L14.1055 14.6911L14.7475 13.3026L16.3171 14.0334L18.1007 12.1821Z" fill="#CC6228"/>
<path d="M8.683 14.0334L10.2288 13.3026L10.8947 14.6911L11.2989 12.377L6.89941 12.1821L8.683 14.0334Z" fill="#CC6228"/>
<path d="M6.89941 12.1821L8.73057 15.8603L8.68301 14.0334L6.89941 12.1821Z" fill="#E27525"/>
<path d="M16.3165 14.0334L16.2451 15.8603L18.1001 12.1821L16.3165 14.0334Z" fill="#E27525"/>
<path d="M11.2988 12.377L10.8945 14.6911L11.3939 17.4436L11.5128 13.8141L11.2988 12.377Z" fill="#E27525"/>
<path d="M13.7013 12.377L13.4873 13.8141L13.5824 17.4436L14.1056 14.6911L13.7013 12.377Z" fill="#E27525"/>
<path d="M14.1052 14.6909L13.582 17.4435L13.9625 17.7114L16.2455 15.8601L16.3169 14.0332L14.1052 14.6909Z" fill="#F5841F"/>
<path d="M8.68359 14.0332L8.73116 15.8601L11.0379 17.7114L11.3947 17.4435L10.8952 14.6909L8.68359 14.0332Z" fill="#F5841F"/>
<path d="M14.1529 20.2204L14.1766 19.4653L13.9626 19.2948H11.0137L10.8235 19.4653L10.8473 20.2204L8.37402 19.0269L9.23015 19.7576L10.99 20.9999H13.9864L15.7462 19.7576L16.6023 19.0269L14.1529 20.2204Z" fill="#C0AC9D"/>
<path d="M13.9624 17.7113L13.5819 17.4434H11.394L11.0373 17.7113L10.8232 19.4652L11.0135 19.2946H13.9624L14.1764 19.4652L13.9624 17.7113Z" fill="#161616"/>
<path d="M21.8345 8.33333L22.5003 5.04487L21.5015 2L13.9629 7.74872L16.8642 10.2577L20.9546 11.4756L21.8583 10.4038L21.4778 10.1115L22.0961 9.52692L21.6204 9.13718L22.2388 8.65L21.8345 8.33333Z" fill="#763E1A"/>
<path d="M2.5 5.04487L3.16587 8.33333L2.73781 8.65L3.35612 9.13718L2.8805 9.52692L3.52259 10.1115L3.11831 10.4038L4.022 11.4756L8.13615 10.2577L11.0375 7.74872L3.47503 2L2.5 5.04487Z" fill="#763E1A"/>
<path d="M20.9538 11.4758L16.8634 10.2578L18.1001 12.1822L16.2451 15.8604L18.6946 15.836H22.3331L20.9538 11.4758Z" fill="#F5841F"/>
<path d="M8.13569 10.2578L4.02154 11.4758L2.66602 15.836H6.30454L8.73022 15.8604L6.89907 12.1822L8.13569 10.2578Z" fill="#F5841F"/>
<path d="M13.7012 12.3771L13.9628 7.74886L15.1518 4.43604H9.84863L11.0377 7.74886L11.2993 12.3771L11.3944 13.8386V17.4437H13.5823V13.8386L13.7012 12.3771Z" fill="#F5841F"/>
</svg>
