<svg width="32" height="32" viewBox="0 0 32 32" fill="none" xmlns="http://www.w3.org/2000/svg">
<path fill-rule="evenodd" clip-rule="evenodd" d="M12.8012 4.53301C13.6848 4.53301 14.4012 3.81666 14.4012 2.93301C14.4012 2.04935 13.6848 1.33301 12.8012 1.33301C11.9175 1.33301 11.2012 2.04935 11.2012 2.93301C11.2012 3.81666 11.9175 4.53301 12.8012 4.53301ZM22.6676 11.1994C23.9931 11.1994 25.0676 10.1249 25.0676 8.79941C25.0676 7.47393 23.9931 6.39941 22.6676 6.39941C21.8353 6.39941 21.102 6.82306 20.6715 7.46647H20.6699C20.415 7.84769 20.2663 8.30603 20.2663 8.79909C20.2663 9.07986 20.3145 9.34938 20.4031 9.5998H20.4043C20.7339 10.5318 21.6227 11.1994 22.6676 11.1994ZM14.6678 19.1999C16.5824 19.1999 18.1345 17.6479 18.1345 15.7333C18.1345 13.8187 16.5824 12.2666 14.6678 12.2666C12.7533 12.2666 11.2012 13.8187 11.2012 15.7333C11.2012 17.6479 12.7533 19.1999 14.6678 19.1999ZM9.24015 18.5943C9.40079 18.8983 9.58624 19.1872 9.7938 19.4583L9.79531 19.4633L10.9398 23.2755C10.974 23.3897 11.0764 23.4665 11.1948 23.4665H20.8076C20.926 23.4665 21.0284 23.3897 21.0614 23.2766L22.206 19.4633C22.4449 18.6675 23.1638 18.1331 23.9937 18.1331H26.19L24.6858 14.8739C25.3739 14.6453 26.0102 14.303 26.5723 13.8693L28.703 18.4862C28.7681 18.6259 28.8012 18.7785 28.8012 18.9331V25.5998C28.8012 27.3641 27.3654 28.7998 25.6012 28.7998H6.40117C4.63691 28.7998 3.20117 27.3641 3.20117 25.5998V18.9331C3.20117 18.7785 3.23424 18.6259 3.29931 18.4862L7.52757 9.32567C8.04811 8.19714 9.18837 7.46647 10.4332 7.46647H16.4052C16.3142 7.89633 16.2663 8.34211 16.2663 8.79909C16.2663 9.07026 16.2831 9.3375 16.3159 9.5998H14.7159L14.6665 9.59961L14.6171 9.5998H10.4332C10.0182 9.5998 9.63851 9.84301 9.46464 10.2195L5.81237 18.1331H8.00757C8.4763 18.1331 8.90905 18.3032 9.24015 18.5943Z" fill="#B6BDCB"/>
</svg>
