<svg width="16" height="16" viewBox="0 0 16 16" fill="none" xmlns="http://www.w3.org/2000/svg">
<path d="M7.99967 14.6663C11.6816 14.6663 14.6663 11.6816 14.6663 7.99967C14.6663 4.31778 11.6816 1.33301 7.99967 1.33301C4.31778 1.33301 1.33301 4.31778 1.33301 7.99967C1.33301 11.6816 4.31778 14.6663 7.99967 14.6663Z" fill="#FFDF57"/>
<path fill-rule="evenodd" clip-rule="evenodd" d="M12.5751 7.999C12.5751 10.5263 10.5263 12.5751 7.999 12.5751C5.47166 12.5751 3.42285 10.5263 3.42285 7.999C3.42285 5.47166 5.47166 3.42285 7.999 3.42285C10.5263 3.42285 12.5751 5.47166 12.5751 7.999ZM8.4663 10.1036C8.88774 10.0192 9.27474 9.81196 9.57846 9.50788L8.81642 8.74737C8.71592 8.85218 8.59541 8.93572 8.46203 8.99313C8.32865 9.05053 8.18509 9.08061 8.03989 9.08155C7.75044 9.07397 7.47539 8.95366 7.27334 8.74625C7.0713 8.53885 6.95821 8.26075 6.95821 7.97121C6.95821 7.68166 7.0713 7.40356 7.27334 7.19616C7.47539 6.98875 7.75044 6.86844 8.03989 6.86086C8.1833 6.86117 8.3252 6.89017 8.45724 6.94612C8.58929 7.00208 8.70883 7.08385 8.8088 7.18668L9.5701 6.42538C9.26473 6.12295 8.87657 5.9178 8.45469 5.83578C8.0328 5.75375 7.59609 5.79856 7.19965 5.96453C6.8032 6.1305 6.46482 6.41017 6.22721 6.7683C5.9896 7.12642 5.86342 7.54695 5.86459 7.97673C5.86576 8.40652 5.99421 8.8263 6.23376 9.18313C6.47332 9.53996 6.81323 9.81783 7.21057 9.98164C7.60791 10.1455 8.04487 10.1879 8.4663 10.1036Z" fill="#F9AA0D"/>
</svg>
