<svg width="16" height="16" viewBox="0 0 16 16" fill="none" xmlns="http://www.w3.org/2000/svg">
<path fill-rule="evenodd" clip-rule="evenodd" d="M3.33333 7.33333H6C6.73333 7.33333 7.33333 6.73333 7.33333 6V3.33333C7.33333 2.6 6.73333 2 6 2H3.33333C2.6 2 2 2.6 2 3.33333V6C2 6.73333 2.6 7.33333 3.33333 7.33333ZM3.33333 3.33333H6V6H3.33333V3.33333ZM3.33333 14H6C6.73333 14 7.33333 13.4 7.33333 12.6667V10C7.33333 9.26667 6.73333 8.66667 6 8.66667H3.33333C2.6 8.66667 2 9.26667 2 10V12.6667C2 13.4 2.6 14 3.33333 14ZM3.33333 10H6V12.6667H3.33333V10ZM8.66667 6V3.33333C8.66667 2.6 9.26667 2 10 2H12.6667C13.4 2 14 2.6 14 3.33333V6C14 6.73333 13.4 7.33333 12.6667 7.33333H10C9.26667 7.33333 8.66667 6.73333 8.66667 6ZM10 6H12.6667V3.33333H10V6ZM14 13.6667V13C14 12.8133 13.8533 12.6667 13.6667 12.6667H13C12.8133 12.6667 12.6667 12.8133 12.6667 13V13.6667C12.6667 13.8533 12.8133 14 13 14H13.6667C13.8533 14 14 13.8533 14 13.6667ZM8.66667 9.66667V9C8.66667 8.81333 8.81333 8.66667 9 8.66667H9.66667C9.85333 8.66667 10 8.81333 10 9V9.66667C10 9.85333 9.85333 10 9.66667 10H9C8.81333 10 8.66667 9.85333 8.66667 9.66667ZM11 10H10.3333C10.1467 10 10 10.1467 10 10.3333V11C10 11.1867 10.1467 11.3333 10.3333 11.3333H11C11.1867 11.3333 11.3333 11.1867 11.3333 11V10.3333C11.3333 10.1467 11.1867 10 11 10ZM8.66667 12.3333V11.6667C8.66667 11.48 8.81333 11.3333 9 11.3333H9.66667C9.85333 11.3333 10 11.48 10 11.6667V12.3333C10 12.52 9.85333 12.6667 9.66667 12.6667H9C8.81333 12.6667 8.66667 12.52 8.66667 12.3333ZM10.3333 14H11C11.1867 14 11.3333 13.8533 11.3333 13.6667V13C11.3333 12.8133 11.1867 12.6667 11 12.6667H10.3333C10.1467 12.6667 10 12.8133 10 13V13.6667C10 13.8533 10.1467 14 10.3333 14ZM12.3333 12.6667H11.6667C11.48 12.6667 11.3333 12.52 11.3333 12.3333V11.6667C11.3333 11.48 11.48 11.3333 11.6667 11.3333H12.3333C12.52 11.3333 12.6667 11.48 12.6667 11.6667V12.3333C12.6667 12.52 12.52 12.6667 12.3333 12.6667ZM12.3333 8.66667H11.6667C11.48 8.66667 11.3333 8.81333 11.3333 9V9.66667C11.3333 9.85333 11.48 10 11.6667 10H12.3333C12.52 10 12.6667 9.85333 12.6667 9.66667V9C12.6667 8.81333 12.52 8.66667 12.3333 8.66667ZM13.6667 11.3333H13C12.8133 11.3333 12.6667 11.1867 12.6667 11V10.3333C12.6667 10.1467 12.8133 10 13 10H13.6667C13.8533 10 14 10.1467 14 10.3333V11C14 11.1867 13.8533 11.3333 13.6667 11.3333Z" fill="#798395"/>
</svg>
