<svg width="64" height="64" viewBox="0 0 64 64" fill="none" xmlns="http://www.w3.org/2000/svg">
<path fill-rule="evenodd" clip-rule="evenodd" d="M61.334 12.6667C61.334 11.5622 60.4386 10.6667 59.334 10.6667H36.6673C35.5627 10.6667 34.6673 11.5622 34.6673 12.6667V37.3334L42.1145 52.2278C42.4533 52.9054 43.1458 53.3334 43.9034 53.3334H51.7159C52.4593 53.3334 52.9428 52.5511 52.6104 51.8862L45.334 37.3334H59.334C60.4386 37.3334 61.334 36.438 61.334 35.3334V12.6667ZM29.334 12.6667C29.334 11.5622 28.4386 10.6667 27.334 10.6667H4.66732C3.56275 10.6667 2.66732 11.5622 2.66732 12.6667V37.3334L10.1145 52.2278C10.4533 52.9054 11.1458 53.3334 11.9034 53.3334H19.716C20.4593 53.3334 20.9428 52.5511 20.6104 51.8862L13.334 37.3334H27.334C28.4386 37.3334 29.334 36.438 29.334 35.3334V12.6667Z" fill="#E7EFFF"/>
</svg>
