<svg width="104" height="65" viewBox="0 0 104 65" fill="none" xmlns="http://www.w3.org/2000/svg">
<g clip-path="url(#clip0_47199_211485)">
<path d="M97.1145 0H6.88551C3.08275 0 0 3.08601 0 6.89279V58.1072C0 61.914 3.08275 65 6.88551 65H97.1145C100.917 65 104 61.914 104 58.1072V6.89279C104 3.08601 100.917 0 97.1145 0Z" fill="#F7FAFF"/>
<path d="M96.8381 -0.0105685H7.16885C6.22504 -0.0141539 5.28982 0.169028 4.41696 0.528442C3.54409 0.887855 2.75079 1.41642 2.08265 2.08374C1.41451 2.75107 0.884713 3.544 0.523698 4.41697C0.162683 5.28994 -0.0224268 6.22573 -0.0209878 7.17055V13.2908H104.001V7.17055C104.002 6.22802 103.818 5.29446 103.459 4.42327C103.099 3.55208 102.572 2.76036 101.907 2.09339C101.241 1.42642 100.451 0.897288 99.5816 0.53627C98.7119 0.175251 97.7796 -0.0105696 96.8381 -0.0105685Z" fill="#457DF5"/>
<path d="M91.3373 3.28589H10.7603C9.65568 3.28589 8.76025 4.18132 8.76025 5.28589V5.55648C8.76025 6.66105 9.65569 7.55648 10.7603 7.55648H91.3373C92.4419 7.55648 93.3373 6.66105 93.3373 5.55648V5.28589C93.3373 4.18132 92.4419 3.28589 91.3373 3.28589Z" fill="white"/>
<path d="M92.6818 8.93286H9.4158C9.05375 8.93286 8.76025 9.22636 8.76025 9.58841C8.76025 9.95046 9.05375 10.244 9.4158 10.244H92.6818C93.0439 10.244 93.3373 9.95046 93.3373 9.58841C93.3373 9.22636 93.0439 8.93286 92.6818 8.93286Z" fill="white"/>
<path d="M56.3894 18.4968H43.4587C42.5679 18.4968 41.8457 19.219 41.8457 20.1099C41.8457 21.0007 42.5679 21.7229 43.4587 21.7229H56.3894C57.2803 21.7229 58.0025 21.0007 58.0025 20.1099C58.0025 19.219 57.2803 18.4968 56.3894 18.4968Z" fill="#C4D7FF"/>
<path d="M91.0265 23.3931H43.2058C42.4546 23.3931 41.8457 24.002 41.8457 24.7531C41.8457 25.5043 42.4546 26.1132 43.2058 26.1132H91.0265C91.7776 26.1132 92.3865 25.5043 92.3865 24.7531C92.3865 24.002 91.7776 23.3931 91.0265 23.3931Z" fill="#C4D7FF"/>
<path d="M72.2772 28.8333H43.4778C42.5764 28.8333 41.8457 29.564 41.8457 30.4653C41.8457 31.3667 42.5764 32.0974 43.4778 32.0974H72.2772C73.1785 32.0974 73.9092 31.3667 73.9092 30.4653C73.9092 29.564 73.1785 28.8333 72.2772 28.8333Z" fill="#C4D7FF"/>
<path d="M91.0265 33.7295H43.2058C42.4546 33.7295 41.8457 34.3384 41.8457 35.0896C41.8457 35.8407 42.4546 36.4496 43.2058 36.4496H91.0265C91.7776 36.4496 92.3866 35.8407 92.3866 35.0896C92.3866 34.3384 91.7776 33.7295 91.0265 33.7295Z" fill="#C4D7FF"/>
<path d="M84.2331 39.1697H43.4778C42.5764 39.1697 41.8457 39.9004 41.8457 40.8018C41.8457 41.7031 42.5764 42.4338 43.4778 42.4338H84.2331C85.1344 42.4338 85.8651 41.7031 85.8651 40.8018C85.8651 39.9004 85.1344 39.1697 84.2331 39.1697Z" fill="#C4D7FF"/>
<path d="M62.2236 44.0659H43.2058C42.4546 44.0659 41.8457 44.6748 41.8457 45.426C41.8457 46.1771 42.4546 46.786 43.2058 46.786H62.2236C62.9748 46.786 63.5837 46.1771 63.5837 45.426C63.5837 44.6748 62.9748 44.0659 62.2236 44.0659Z" fill="#C4D7FF"/>
<path d="M31.7699 17.5339H9.43994C7.2308 17.5339 5.43994 19.3248 5.43994 21.5339V55.3041C5.43994 57.5132 7.2308 59.3041 9.43994 59.3041H31.7699C33.979 59.3041 35.7699 57.5132 35.7699 55.3041V21.5339C35.7699 19.3248 33.979 17.5339 31.7699 17.5339Z" fill="#C4D7FF"/>
<path d="M17.0654 43.8934L17.3305 56.5627L20.7388 59.242L24.3601 56.3468L24.2512 44.1843C24.2512 44.1843 22.8501 40.36 17.0654 43.8934Z" fill="white"/>
<path d="M20.9755 50.4253H20.1376L19.2666 47.2111H21.8465L20.9755 50.4253Z" fill="#E08663"/>
<path d="M23.191 59.4814H17.9224L20.1567 50.214H20.9567L23.191 59.4814Z" fill="#E08663"/>
<path d="M15.7307 34.0395C15.6841 34.4723 15.5119 34.8825 15.235 35.2204C14.9581 35.5583 14.5883 35.8093 14.1704 35.9433C13.7526 36.0772 13.3045 36.0882 12.8805 35.975C12.4564 35.8618 12.0746 35.6292 11.7811 35.3053C11.4876 34.9815 11.2951 34.5803 11.2268 34.1503C11.1586 33.7202 11.2175 33.2798 11.3965 32.8823C11.5754 32.4847 11.8668 32.1471 12.2353 31.9103C12.6038 31.6735 13.0336 31.5476 13.4728 31.5479C14.1049 31.583 14.6974 31.8649 15.1205 32.3318C15.5436 32.7987 15.763 33.4127 15.7307 34.0395Z" fill="#FEBDA3"/>
<path d="M30.1067 34.0395C30.0601 34.4723 29.8879 34.8825 29.6109 35.2204C29.334 35.5583 28.9643 35.8093 28.5464 35.9433C28.1286 36.0772 27.6805 36.0882 27.2565 35.975C26.8324 35.8618 26.4505 35.6292 26.1571 35.3053C25.8636 34.9815 25.6711 34.5803 25.6028 34.1503C25.5346 33.7202 25.5935 33.2798 25.7725 32.8823C25.9514 32.4847 26.2428 32.1471 26.6113 31.9103C26.9798 31.6735 27.4096 31.5476 27.8487 31.5479C28.4809 31.583 29.0733 31.8649 29.4965 32.3318C29.9196 32.7987 30.139 33.4127 30.1067 34.0395Z" fill="#FEBDA3"/>
<path d="M24.237 38.6427H17.0796V47.1687H24.237V38.6427Z" fill="#FED5C4"/>
<path d="M17.1079 42.4858C18.2381 42.9686 19.4559 43.2177 20.6866 43.2177C21.9173 43.2177 23.1351 42.9686 24.2653 42.4858V38.6615H17.1079V42.4858Z" fill="#FEBDA3"/>
<path d="M22.9115 22.4447H18.6795C15.6286 22.4447 13.1553 24.8964 13.1553 27.9207V36.0994C13.1553 39.1237 15.6286 41.5754 18.6795 41.5754H22.9115C25.9625 41.5754 28.4358 39.1237 28.4358 36.0994V27.9207C28.4358 24.8964 25.9625 22.4447 22.9115 22.4447Z" fill="#FED5C4"/>
<path d="M15.1862 24.7675C15.1862 24.7675 22.23 31.074 25.4111 30.1167C28.5922 29.1595 28.4975 32.8899 28.4975 32.8899C28.4975 32.8899 30.6182 28.3993 30.0407 26.7899C29.5673 25.4385 29.5673 23.5428 26.1827 22.6841C22.7981 21.8254 13.9365 17.6163 15.1862 24.7675Z" fill="#59524F"/>
<path d="M13.6572 22.9983C13.6572 22.9983 10.7554 23.3033 11.2383 26.0624C11.7304 28.4383 12.345 30.7875 13.0797 33.101C13.0797 33.101 17.2407 27.1792 16.4691 25.2366C15.6975 23.294 15.2146 22.5901 13.6572 22.9983Z" fill="#59524F"/>
<path d="M19.21 30.464C19.21 30.464 20.3035 30.6564 20.1567 32.5099C20.01 34.3633 19.4466 36.2168 20.223 36.2637C20.4232 36.2954 20.6282 36.2767 20.8192 36.2095C21.0103 36.1423 21.1812 36.0286 21.3165 35.879C21.3165 35.879 21.2549 37.2867 19.9626 36.8174C18.6703 36.3482 19.3851 34.0677 19.6407 32.9838C19.8964 31.8998 19.21 30.464 19.21 30.464Z" fill="#FEBDA3"/>
<path d="M17.0699 43.8793L20.696 47.3L16.98 49.4913L17.0699 43.8793Z" fill="#E0E0E0"/>
<path d="M24.251 43.8793L20.625 47.3L24.341 49.4913L24.251 43.8793Z" fill="#E0E0E0"/>
<path d="M17.0322 43.673C17.0322 43.8794 20.8192 59.7724 20.8192 59.7724H9.43457C7.22543 59.7724 5.43457 57.9815 5.43457 55.7724V47.5723L17.0322 43.673Z" fill="#45454F"/>
<path d="M24.2889 43.673C24.2889 43.8794 20.502 59.7724 20.502 59.7724H31.8677C34.0768 59.7724 35.8677 57.9815 35.8677 55.7724V47.5723L24.2889 43.673Z" fill="#45454F"/>
<path d="M43.0413 56.4649V52.28C43.0413 51.9499 42.7737 51.6823 42.4435 51.6823C42.1133 51.6823 41.8457 51.9499 41.8457 52.28V56.4649C41.8457 56.795 42.1133 57.0627 42.4435 57.0627C42.7737 57.0627 43.0413 56.795 43.0413 56.4649Z" fill="#457DF5"/>
<path d="M45.7368 51.6823H44.4761C43.9238 51.6823 43.4761 52.13 43.4761 52.6822V56.1225C43.4761 56.6748 43.9238 57.1225 44.4761 57.1225H45.7368C46.2891 57.1225 46.7368 56.6748 46.7368 56.1225V52.6823C46.7368 52.13 46.2891 51.6823 45.7368 51.6823Z" fill="#457DF5"/>
<path d="M47.9377 56.886V51.8589C47.9377 51.7613 47.8586 51.6823 47.7611 51.6823C47.6635 51.6823 47.5845 51.7613 47.5845 51.8589V56.886C47.5845 56.9836 47.6635 57.0627 47.7611 57.0627C47.8586 57.0627 47.9377 56.9836 47.9377 56.886Z" fill="#457DF5"/>
<path d="M50.3127 56.886V51.8589C50.3127 51.7613 50.2336 51.6823 50.1361 51.6823C50.0385 51.6823 49.9595 51.7613 49.9595 51.8589V56.886C49.9595 56.9836 50.0385 57.0627 50.1361 57.0627C50.2336 57.0627 50.3127 56.9836 50.3127 56.886Z" fill="#457DF5"/>
<path d="M52.7148 56.579V52.2257C52.7148 51.9256 52.4715 51.6823 52.1714 51.6823C51.8712 51.6823 51.6279 51.9256 51.6279 52.2257V56.579C51.6279 56.8792 51.8712 57.1225 52.1714 57.1225C52.4715 57.1225 52.7148 56.8792 52.7148 56.579Z" fill="#457DF5"/>
<path d="M54.3015 56.886V51.8589C54.3015 51.7613 54.2224 51.6823 54.1249 51.6823C54.0273 51.6823 53.9482 51.7613 53.9482 51.8589V56.886C53.9482 56.9836 54.0273 57.0627 54.1249 57.0627C54.2224 57.0627 54.3015 56.9836 54.3015 56.886Z" fill="#457DF5"/>
<path d="M55.9211 56.886V51.8589C55.9211 51.7613 55.842 51.6823 55.7445 51.6823C55.6469 51.6823 55.5679 51.7613 55.5679 51.8589V56.886C55.5679 56.9836 55.6469 57.0627 55.7445 57.0627C55.842 57.0627 55.9211 56.9836 55.9211 56.886Z" fill="#457DF5"/>
<path d="M58.1494 56.8508V51.954C58.1494 51.8039 58.0278 51.6823 57.8777 51.6823C57.7276 51.6823 57.606 51.8039 57.606 51.954V56.8508C57.606 57.0008 57.7276 57.1225 57.8777 57.1225C58.0278 57.1225 58.1494 57.0008 58.1494 56.8508Z" fill="#457DF5"/>
<path d="M59.7798 56.8508V51.954C59.7798 51.8039 59.6581 51.6823 59.5081 51.6823C59.358 51.6823 59.2363 51.8039 59.2363 51.954V56.8508C59.2363 57.0008 59.358 57.1225 59.5081 57.1225C59.6581 57.1225 59.7798 57.0008 59.7798 56.8508Z" fill="#457DF5"/>
<path d="M61.9536 56.579V52.2257C61.9536 51.9256 61.7103 51.6823 61.4101 51.6823C61.11 51.6823 60.8667 51.9256 60.8667 52.2257V56.579C60.8667 56.8792 61.11 57.1225 61.4101 57.1225C61.7103 57.1225 61.9536 56.8792 61.9536 56.579Z" fill="#457DF5"/>
<path d="M63.1545 56.886V51.8589C63.1545 51.7613 63.0754 51.6823 62.9779 51.6823C62.8803 51.6823 62.8013 51.7613 62.8013 51.8589V56.886C62.8013 56.9836 62.8803 57.0627 62.9779 57.0627C63.0754 57.0627 63.1545 56.9836 63.1545 56.886Z" fill="#457DF5"/>
<path d="M66.3008 56.3073V52.4974C66.3008 52.0472 65.9358 51.6823 65.4856 51.6823C65.0354 51.6823 64.6704 52.0472 64.6704 52.4974V56.3073C64.6704 56.7575 65.0354 57.1225 65.4856 57.1225C65.9358 57.1225 66.3008 56.7575 66.3008 56.3073Z" fill="#457DF5"/>
<path d="M69.1049 51.6823H68.3877C67.8354 51.6823 67.3877 52.13 67.3877 52.6822V56.1225C67.3877 56.6748 67.8354 57.1225 68.3877 57.1225H69.1049C69.6572 57.1225 70.1049 56.6748 70.1049 56.1225V52.6823C70.1049 52.13 69.6572 51.6823 69.1049 51.6823Z" fill="#457DF5"/>
<path d="M73.1971 56.6523V52.0926C73.1971 51.866 73.0134 51.6823 72.7868 51.6823C72.5602 51.6823 72.3765 51.866 72.3765 52.0926V56.6523C72.3765 56.879 72.5602 57.0627 72.7868 57.0627C73.0134 57.0627 73.1971 56.879 73.1971 56.6523Z" fill="#457DF5"/>
</g>
<defs>
<clipPath id="clip0_47199_211485">
<rect width="104" height="65" fill="white"/>
</clipPath>
</defs>
</svg>
