<svg width="20" height="20" viewBox="0 0 20 20" fill="none" xmlns="http://www.w3.org/2000/svg">
  <path fill-rule="evenodd" clip-rule="evenodd"
        d="M5.33341 3.33329C5.22814 3.33329 5.12477 3.34143 5.02389 3.3571C5.17266 2.39951 6.00078 1.66663 7.00008 1.66663H16.3334C17.438 1.66663 18.3334 2.56206 18.3334 3.66663V13C18.3334 13.9993 17.6005 14.8274 16.6429 14.9762C16.6586 14.8753 16.6667 14.7719 16.6667 14.6666V5.33329C16.6667 4.22872 15.7713 3.33329 14.6667 3.33329H5.33341ZM3.66675 4.99996C2.56218 4.99996 1.66675 5.89539 1.66675 6.99996V16.3333C1.66675 17.4379 2.56218 18.3333 3.66675 18.3333H13.0001C14.1047 18.3333 15.0001 17.4379 15.0001 16.3333V6.99996C15.0001 5.89539 14.1047 4.99996 13.0001 4.99996H3.66675Z"
        fill="currentColor"/>
</svg>
