<svg width="18" height="16" viewBox="0 0 18 16" fill="none" xmlns="http://www.w3.org/2000/svg">
  <path
    d="M15.41 1.8L14.2 0.590005C13.42 -0.189995 12.15 -0.189995 11.37 0.590005L8.69 3.27L0.292893 11.6671C0.105356 11.8546 0 12.109 0 12.3742V15C0 15.5523 0.447715 16 1 16H3.62579C3.891 16 4.14536 15.8946 4.33289 15.7071L12.78 7.26L15.41 4.63C16.2 3.85 16.2 2.58 15.41 1.8ZM10.4142 16C9.52331 16 9.07714 14.9229 9.70711 14.2929L11.7071 12.2929C11.8946 12.1054 12.149 12 12.4142 12H17C17.5523 12 18 12.4477 18 13V15C18 15.5523 17.5523 16 17 16H10.4142Z"
    fill="currentColor"/>
</svg>
