<svg width="24" height="24" viewBox="0 0 24 24" fill="none" xmlns="http://www.w3.org/2000/svg">
<path d="M3.85041 4.85002L5.16041 6.16002C6.76041 4.28002 9.12041 3.07002 11.7604 3.00002C16.6504 2.88002 20.8604 6.86002 21.0004 11.74C21.1404 16.83 17.0604 21 12.0004 21C7.80041 21 4.28041 18.12 3.28041 14.24C3.12041 13.61 3.61041 13 4.26041 13C4.71041 13 5.11041 13.3 5.22041 13.73C6.09041 17.14 9.47041 19.56 13.2704 18.89C16.0504 18.4 18.3104 16.18 18.8504 13.42C19.7404 8.94002 16.3204 5.00002 12.0004 5.00002C9.82041 5.00002 7.88041 6.02002 6.59041 7.59002L8.14041 9.14002C8.46041 9.46002 8.24041 10 7.79041 10H3.50041C3.22041 10 3.00041 9.78002 3.00041 9.50002V5.21002C3.00041 4.76002 3.54041 4.54002 3.85041 4.85002Z" fill="#576071"/>
</svg>
