<svg width="24" height="24" viewBox="0 0 24 24" fill="none" xmlns="http://www.w3.org/2000/svg">
<path d="M10.67 13.02C10.45 13.01 10.23 13 10 13C7.58 13 5.32 13.67 3.39 14.82C2.51 15.34 2 16.32 2 17.35V19C2 19.55 2.45 20 3 20H11.26C10.47 18.87 10 17.49 10 16C10 14.93 10.25 13.93 10.67 13.02Z" fill="#798395"/>
<path d="M10 12C12.2091 12 14 10.2091 14 8C14 5.79086 12.2091 4 10 4C7.79086 4 6 5.79086 6 8C6 10.2091 7.79086 12 10 12Z" fill="#798395"/>
<path d="M17 18.5372L19.4249 19.9184C19.869 20.1715 20.4124 19.7973 20.2956 19.3241L19.6528 16.7269L21.7973 14.977C22.1888 14.6579 21.9784 14.0526 21.4642 14.0141L18.6419 13.7885L17.5376 11.3343C17.3389 10.8886 16.6611 10.8886 16.4624 11.3343L15.3581 13.783L12.5358 14.0086C12.0216 14.0471 11.8112 14.6524 12.2027 14.9715L14.3472 16.7214L13.7044 19.3186C13.5876 19.7918 14.131 20.166 14.5751 19.9129L17 18.5372Z" fill="#798395"/>
</svg>
