<svg width="16"
     height="16"
     viewBox="0 0 16 16"
     fill="currentColor"
     xmlns="http://www.w3.org/2000/svg">
  <g clip-path="url(#clip0_52383_210282)">
    <path d="M11.4306 13.0725C10.5038 14.0021 9.358 14.6881 8.084 15.0006C4.7968 14.1953 2.35632 10.898 2.35632 7.36328V3.996L1 2.64136L2.0752 1.5656L14.3414 13.8324L13.2668 14.9076L11.4306 13.0725ZM7.2748 8.91616L6.81 9.38096L5.16528 7.73568L4.2648 8.63616L6.81 11.1814L8.17528 9.81608L7.2748 8.91616ZM10.3022 7.68976L13.1464 10.5329C13.5737 9.54616 13.81 8.46592 13.81 7.36328V3.5452L8.084 1L4.98776 2.37536L9.40224 6.78872L11.001 5.18992L11.9015 6.09096L10.3022 7.68976Z" />
  </g>
  <defs>
    <clipPath id="clip0_52383_210282">
      <rect width="13.3414"
            height="14"
            fill="white"
            transform="translate(1 1)" />
    </clipPath>
  </defs>
</svg>
