<svg viewBox="0 0 24 24">
<path fill-rule="evenodd" clip-rule="evenodd" d="M3 6.3C3 5.51 3.47 4.79 4.19 4.47L11.19 1.36C11.7 1.13 12.29 1.13 12.81 1.36L19.81 4.47C20.53 4.79 21 5.51 21 6.3V11C21 16.55 17.16 21.74 12 23C6.84 21.74 3 16.55 3 11V6.3ZM12 6C13.6569 6 15 7.34315 15 9V10C16.1046 10 17 10.8954 17 12V14C17 15.1046 16.1046 16 15 16H9C7.89543 16 7 15.1046 7 14V12C7 10.8954 7.89543 10 9 10V9C9 7.34315 10.3431 6 12 6ZM12 8C11.4477 8 11 8.44772 11 9V10H13V9C13 8.44772 12.5523 8 12 8ZM13 13C13 12.4477 12.5523 12 12 12C11.4477 12 11 12.4477 11 13C11 13.5523 11.4477 14 12 14C12.5523 14 13 13.5523 13 13Z"/>
</svg>
