<svg width="20" height="20" viewBox="0 0 20 20" fill="none" xmlns="http://www.w3.org/2000/svg">
<path d="M15.8333 2.5H4.16667C3.24167 2.5 2.5 3.25 2.5 4.16667V5C2.5 5.45833 2.875 5.83333 3.33333 5.83333C3.79167 5.83333 4.16667 5.45833 4.16667 5C4.16667 4.54167 4.54167 4.16667 5 4.16667H15C15.4583 4.16667 15.8333 4.54167 15.8333 5V15C15.8333 15.4583 15.4583 15.8333 15 15.8333H5C4.54167 15.8333 4.16667 15.4583 4.16667 15C4.16667 14.5417 3.79167 14.1667 3.33333 14.1667C2.875 14.1667 2.5 14.5417 2.5 15V15.8333C2.5 16.75 3.25 17.5 4.16667 17.5H15.8333C16.75 17.5 17.5 16.75 17.5 15.8333V4.16667C17.5 3.25 16.75 2.5 15.8333 2.5Z" fill="#798395"/>
<path d="M4.90206 13.575C5.22706 13.9 5.75206 13.9 6.07706 13.575C6.39373 13.2583 6.40206 12.725 6.07706 12.4L4.51039 10.8333H11.7354C12.1937 10.8333 12.5687 10.4583 12.5687 10C12.5687 9.54166 12.1937 9.16666 11.7354 9.16666H4.51039L6.07706 7.59166C6.40206 7.26666 6.40206 6.74166 6.07706 6.41666C5.75206 6.09166 5.22706 6.09166 4.90206 6.41666L1.91039 9.40833C1.58539 9.73333 1.58539 10.2583 1.91039 10.5833L4.90206 13.575Z" fill="#798395"/>
</svg>
