<svg width="24" height="24" viewBox="0 0 24 24" fill="none" xmlns="http://www.w3.org/2000/svg">
<path fill-rule="evenodd" clip-rule="evenodd" d="M12.0019 14.9337L15.1527 16.8393L14.3181 13.2585L17.107 10.842L13.4389 10.5306L11.9988 7.13218L10.5596 10.5207L6.89265 10.832L9.68152 13.2485L8.84568 16.835L12.0019 14.9337ZM17.6398 18.6998C17.8398 19.5598 16.9098 20.2398 16.1498 19.7798L11.9998 17.2698L7.84983 19.7698C7.08983 20.2298 6.15983 19.5498 6.35983 18.6898L7.45983 13.9698L3.78983 10.7898C3.11983 10.2098 3.47983 9.10977 4.35983 9.03977L9.18983 8.62977L11.0798 4.17977C11.4198 3.36977 12.5798 3.36977 12.9198 4.17977L14.8098 8.63977L19.6398 9.04977C20.5198 9.11977 20.8798 10.2198 20.2098 10.7998L16.5398 13.9798L17.6398 18.6998Z" fill="#B6BDCB"/>
</svg>
