<svg width="16" height="16" viewBox="0 0 16 16" fill="none" xmlns="http://www.w3.org/2000/svg">
<path fill-rule="evenodd" clip-rule="evenodd" d="M12.0002 8.00023C12.0002 5.14023 9.1402 3.34023 6.67354 4.23357C6.43354 4.32023 6.16687 4.28023 5.99354 4.1069L5.9402 4.05357C5.6202 3.73357 5.7202 3.17357 6.1402 3.01357C9.4802 1.74023 13.3335 4.16023 13.3335 8.00023L14.5269 8.00023C14.8269 8.00023 14.9735 8.36023 14.7669 8.5669L12.9069 10.4269C12.7735 10.5602 12.5669 10.5602 12.4335 10.4269L10.5735 8.5669C10.3602 8.36023 10.5069 8.00023 10.8069 8.00023L12.0002 8.00023ZM4.0002 8.00006C4.0002 10.7801 6.7602 12.6734 9.3202 11.7601C9.56687 11.6801 9.83354 11.7201 10.0135 11.9001L10.0602 11.9467C10.3802 12.2667 10.2802 12.8267 9.8602 12.9867C6.5202 14.2601 2.66687 11.8401 2.66687 8.00006L1.46687 8.00006C1.17354 8.00006 1.02687 7.64006 1.23354 7.43339L3.09354 5.57339C3.22687 5.44006 3.43354 5.44006 3.56687 5.57339L5.42687 7.43339C5.6402 7.64006 5.49354 8.00006 5.19354 8.00006L4.0002 8.00006Z" fill="white"/>
</svg>
