<svg width="558" height="314" viewBox="0 0 558 314" fill="none" xmlns="http://www.w3.org/2000/svg">
<mask id="mask0_56326_241582" style="mask-type:alpha" maskUnits="userSpaceOnUse" x="0" y="0" width="558" height="314">
<path d="M558 0H0V314H558V0Z" fill="#F3F7FF"/>
</mask>
<g mask="url(#mask0_56326_241582)">
<path d="M558 0H0V314H558V0Z" fill="#F3F7FF"/>
<path d="M221.727 65.8866C248.296 56.2668 277.634 52.1486 304.716 60.1147C325.094 66.1251 359.16 118.454 349.407 180.704C345.223 207.481 363.905 235.227 388.918 251.239C400.772 258.824 416 257.599 429.363 259.491C459.089 263.657 488.738 285.377 492.176 315.843C495.505 345.275 472.669 379.922 455.278 401.706C410.478 457.835 330.974 488.252 262.84 457.707C229.8 442.904 200.976 411.596 177.891 383.881C153.703 354.863 142.783 316.05 140.978 278.508C138.723 231.968 149.005 186.095 160.329 141.335C169.009 107.164 187.831 78.1459 221.727 65.8866Z" fill="white"/>
<path d="M93.1591 325.339C95.7084 304.072 97.4068 282.258 91.8992 261.643C84.2444 233.02 63.8982 210.036 43.6055 188.89C24.8656 169.166 5.23492 150 -17.8596 135.976C-77.5614 99.6608 -158.795 104.607 -213.954 147.891C-232.166 162.196 -248.739 184.379 -243.326 207.159C-240.964 217.118 -234.784 225.691 -228.565 233.63L-166.868 315.359C-145.316 343.66 -122.728 379.917 -136.301 413.157C-149.512 445.518 -181.407 464.053 -164.009 503.476C-152.298 530.029 -118.788 553.212 -91.1709 558.898C-30.0419 571.495 27.542 505.653 54.0395 457.422C76.5454 416.983 87.3884 371 93.1591 325.339Z" fill="white"/>
<path d="M139.138 33.0225C149.815 2.77829 139.642 -59.5752 112.049 -78.1476C99.2364 -86.7577 86.3781 -87.5659 72.2081 -82.4993C58.9779 -77.8844 46.6445 -70.9409 35.7687 -61.9842C26.4797 -54.1045 20.0429 -43.3341 14.6891 -32.4549C4.54591 -11.7532 -4.08727 14.6988 -26.7532 24.4435C-35.4474 28.189 -45.3771 28.8107 -53.5069 33.7374C-71.7037 44.7721 -71.5817 74.4568 -56.9541 88.7241C-44.3551 100.955 -23.8399 104.919 -7.16837 104.654C52.6385 103.722 119.477 89.0816 139.138 33.0225Z" fill="white"/>
<path d="M544.421 205.526C595.121 214.485 690.672 180.353 712.251 129.778C722.207 106.311 719.942 84.9303 707.995 63.0663C697.006 42.6115 682.602 24.2806 665.434 8.90261C650.5 -4.15471 631.559 -11.6888 612.892 -17.4411C577.45 -28.3349 533.246 -35.1054 511.592 -69.6195C503.254 -82.8804 499.496 -99.0175 489.465 -110.98C466.915 -137.833 420.148 -129.306 401.73 -101.232C385.925 -77.1281 385.452 -42.2576 390.505 -14.9467C408.699 83.0723 450.488 188.905 544.421 205.526Z" fill="white"/>
<path d="M479.929 99.6832C478.977 99.2269 478.076 98.6687 477.24 98.0182" stroke="#457DF5" stroke-miterlimit="10" stroke-linecap="round"/>
<path d="M472.484 94.5992C458.714 84.6216 429.631 62.7597 418.09 54.0022" stroke="#457DF5" stroke-miterlimit="10" stroke-linecap="round" stroke-dasharray="4.71 4.71"/>
<path d="M540.461 105.67C532.767 97.7001 522.209 94.9928 511.614 97.1917C498.243 99.9753 488.183 113.334 486.888 126.883C484.847 148.326 508.751 162.129 527.438 156.702C537.585 153.766 545.005 145.262 547.993 135.094C550.981 124.926 547.657 113.118 540.461 105.67Z" fill="#457DF5"/>
<path d="M143.587 108.626C132.817 97.4789 115.45 98.7627 104.656 109.185C91.2345 122.201 93.8614 143.808 110.744 152.464C114.428 154.31 118.462 155.316 122.565 155.414C126.668 155.511 130.743 154.696 134.507 153.027C138.271 151.357 141.635 148.873 144.366 145.745C147.097 142.617 149.129 138.92 150.322 134.911C151.533 130.31 151.549 125.466 150.368 120.857C149.187 116.248 146.85 112.032 143.587 108.626Z" fill="#457DF5"/>
<path d="M155.764 115.75L359.643 45.5757" stroke="#457DF5" stroke-miterlimit="10" stroke-linecap="round" stroke-dasharray="5 5"/>
<path d="M413.362 6.3286C403.564 -6.68686 385.324 -7.65285 372.787 1.79098C357.138 13.5354 357.2 36.3251 373.659 47.612C388.835 58.0091 409.764 51.4887 417.035 34.5965C420.981 25.4832 419.251 14.1582 413.362 6.3286Z" fill="#77A2FF"/>
<path d="M473.094 245.001C470.108 241.938 466.407 239.703 462.34 238.507C458.273 237.31 453.974 237.192 449.85 238.163C439.043 240.412 430.926 251.204 429.93 262.147C428.274 279.472 447.584 290.606 462.673 286.234C466.651 284.983 470.256 282.73 473.157 279.682C476.057 276.635 478.159 272.89 479.269 268.795C480.352 264.623 480.353 260.235 479.27 256.062C478.187 251.89 476.058 248.078 473.094 245.001V245.001Z" fill="#77A2FF"/>
<path d="M188.125 164.559L229.21 312" stroke="#457DF5" stroke-miterlimit="10" stroke-linecap="round" stroke-dasharray="5 5"/>
<path d="M513.27 164.595L472.87 236.485" stroke="#457DF5" stroke-miterlimit="10" stroke-linecap="round" stroke-dasharray="5 5"/>
<path d="M391.559 58.158L442.666 232.913" stroke="#457DF5" stroke-miterlimit="10" stroke-linecap="round" stroke-dasharray="5 5"/>
<path d="M70.6976 225.092C64.8536 218.989 56.8451 216.916 48.799 218.602C38.645 220.733 31.0129 230.962 30.0342 241.337C28.4815 257.747 46.6252 268.316 60.8164 264.16C68.5237 261.903 74.1512 255.441 76.4192 247.634C78.6871 239.826 76.1651 230.798 70.6976 225.092Z" fill="#77A2FF"/>
<path d="M530.434 123.19C530.953 119.718 528.315 117.851 524.71 116.605L525.88 111.901L523.025 111.188L521.885 115.769C521.135 115.58 520.365 115.404 519.596 115.229L520.745 110.618L517.89 109.904L516.72 114.607C516.099 114.465 515.488 114.326 514.896 114.177L514.899 114.162L510.961 113.176L510.201 116.234C510.201 116.234 512.32 116.721 512.276 116.751C513.432 117.041 513.641 117.808 513.606 118.418L512.274 123.777C512.354 123.796 512.456 123.826 512.572 123.871L512.269 123.796L510.402 131.304C510.26 131.655 509.902 132.184 509.092 131.983C509.122 132.025 507.017 131.465 507.017 131.465L505.6 134.741L509.317 135.671C510.007 135.845 510.685 136.027 511.351 136.198L510.169 140.955L513.023 141.668L514.192 136.963C514.972 137.173 515.729 137.369 516.469 137.554L515.303 142.239L518.157 142.951L519.339 138.204C524.209 139.128 527.87 138.755 529.412 134.339C530.654 130.784 529.351 128.731 526.788 127.395C528.655 126.964 530.059 125.733 530.434 123.19V123.19ZM523.909 132.364C523.028 135.921 517.055 133.998 515.119 133.516L516.689 127.212C518.625 127.698 524.832 128.657 523.909 132.364ZM524.792 123.139C523.988 126.374 519.018 124.729 517.407 124.327L518.828 118.611C520.439 119.014 525.632 119.764 524.792 123.139Z" fill="white"/>
<path d="M464.601 253.532H468.203L460.709 260.473C457.997 262.987 453.6 262.987 450.887 260.473L443.395 253.532H446.996L452.688 258.805C454.406 260.397 457.191 260.397 458.909 258.805L464.601 253.532ZM446.95 273.869H443.349L450.888 266.884C453.601 264.371 457.998 264.371 460.71 266.884L468.249 273.869H464.648L458.909 268.552C457.192 266.961 454.407 266.961 452.688 268.552L446.95 273.869Z" fill="white"/>
<path fill-rule="evenodd" clip-rule="evenodd" d="M113.984 124.735C113.984 118.935 118.606 114.245 124.26 114.245C129.914 114.245 134.535 118.935 134.535 124.735C134.535 130.258 130.349 134.781 125.048 135.198C125.048 135.198 123.77 135.281 123.444 135.336C121.976 135.531 120.726 136.669 120.4 138.223C120.4 138.223 119.965 140.249 119.937 140.415C119.774 141.192 119.013 141.692 118.252 141.525C117.491 141.359 117.002 140.582 117.165 139.804C117.192 139.638 120.4 124.375 120.4 124.375C120.563 123.597 121.324 123.098 122.085 123.264C122.846 123.431 123.335 124.208 123.172 124.985L121.84 131.257L121.596 132.478C121.568 132.561 121.65 132.645 121.732 132.617C121.822 132.604 121.931 132.584 122.058 132.561C122.198 132.536 122.361 132.507 122.547 132.478C123.254 132.367 124.695 132.284 124.695 132.284C128.582 132.062 131.681 128.759 131.681 124.735C131.681 120.434 128.147 116.965 123.879 117.187C120.046 117.381 116.947 120.6 116.839 124.513C116.811 125.429 116.947 126.345 117.246 127.205C117.491 127.982 117.083 128.815 116.349 129.065C115.588 129.314 114.773 128.898 114.528 128.149C114.175 127.039 113.984 125.901 113.984 124.735ZM122.955 139.749C123.145 138.777 124.069 138.194 124.994 138.389C125.945 138.583 126.516 139.499 126.326 140.47C126.135 141.441 125.211 142.024 124.287 141.83C123.336 141.636 122.765 140.692 122.955 139.749Z" fill="#FEFEFE"/>
<path d="M67.1797 251.363L58.1423 229.86C57.6326 228.749 56.8749 228.206 55.8761 228.206H55.0771C54.0783 228.206 53.3206 228.749 52.8108 229.86L48.8777 239.229H45.902C45.0134 239.236 44.2901 239.941 44.2832 240.822V240.842C44.2901 241.717 45.0134 242.428 45.902 242.435H47.5L43.746 251.363C43.6771 251.56 43.6357 251.763 43.6357 251.973C43.6357 252.475 43.7942 252.868 44.0766 253.173C44.359 253.478 44.7654 253.627 45.2751 253.627C45.6127 253.62 45.9364 253.519 46.205 253.322C46.4943 253.125 46.6941 252.841 46.8525 252.515L50.9855 242.428H53.851C54.7395 242.422 55.4628 241.717 55.4697 240.835V240.795C55.4628 239.92 54.7395 239.208 53.851 239.202H52.3218L55.4766 231.467L64.0731 252.509C64.2315 252.834 64.4313 253.119 64.7206 253.315C64.9892 253.512 65.3198 253.614 65.6505 253.62C66.1602 253.62 66.5597 253.471 66.849 253.166C67.1383 252.861 67.2899 252.468 67.2899 251.966C67.2968 251.763 67.2623 251.553 67.1797 251.363Z" fill="white"/>
<path d="M391.099 6.32568L387.893 8.14524L379.159 13.1292L375.953 14.9488V32.195L379.159 34.0146L387.973 38.9986L391.179 40.8181L394.384 38.9986L403.039 34.0146L406.244 32.195V14.9488L403.039 13.1292L394.304 8.14524L391.099 6.32568ZM382.364 28.5559V18.5879L391.099 13.6039L399.833 18.5879V28.5559L391.099 33.5399L382.364 28.5559Z" fill="white"/>
<path d="M-60.9309 1.56799L88.4689 108.335" stroke="#457DF5" stroke-miterlimit="10" stroke-linecap="round" stroke-dasharray="5 5"/>
<path d="M70.7168 218.038L105.668 157.379" stroke="#457DF5" stroke-miterlimit="10" stroke-linecap="round" stroke-dasharray="5 5"/>
<path d="M202.365 434.507L70.717 265.614" stroke="#457DF5" stroke-miterlimit="10" stroke-linecap="round" stroke-dasharray="5 5"/>
<path d="M-168.113 312L26.4459 251.341" stroke="#457DF5" stroke-miterlimit="10" stroke-linecap="round" stroke-dasharray="5 5"/>
<path d="M307.544 157.778C307.544 157.778 292.995 187.46 278.214 207.949C272.333 216.105 266.417 222.801 261.366 225.595C256.422 228.329 252.237 232.569 248.774 237.281C239.808 249.466 235.666 264.722 235.666 264.722L197.872 206.415C197.872 206.415 199.162 149.42 203.7 139.887C210.314 125.992 213.508 97.9211 216.049 92.3329C217.935 88.1875 223.318 66.7724 223.833 65.1979C224.058 64.5207 225.848 63.4809 228.174 63.4824C230.041 63.4824 233.211 65.3219 234.008 69.1031C238.051 88.2108 233.186 100.816 233.249 101.375C234.674 116.062 230.389 126.964 233.401 129.851C233.512 129.956 233.72 129.907 234.008 129.714C239.219 126.305 271.557 78.2277 275.54 77.1894C279.737 76.0953 307.544 157.778 307.544 157.778Z" fill="#FFC3CC"/>
<path d="M247.037 253.183C247.037 253.183 246.522 279.092 245.048 313.989H149.725C171.508 266.603 190.452 226.72 190.452 226.72C190.452 226.72 244.733 228.411 247.037 253.183Z" fill="#F99746"/>
<path d="M340.596 57.3208L328.894 74.8168L317.41 91.9873C316.71 92.8489 315.9 93.148 315.023 93.0628C312.266 92.7962 308.857 88.7422 306.2 86.4983L305.931 86.272C304.246 84.8435 303.185 82.7933 302.979 80.5693C302.772 78.3453 303.437 76.1284 304.829 74.403L322.383 52.7647L327.589 46.3475C328.99 44.6305 331.001 43.5488 333.182 43.3386C335.362 43.1284 337.536 43.8067 339.228 45.2255L339.499 45.4517C341.181 46.8814 342.241 48.9318 342.447 51.1556C342.653 53.3793 341.987 55.5957 340.596 57.3208V57.3208Z" fill="#FFC3CC"/>
<path d="M278.214 207.949C272.333 216.105 266.417 222.801 261.366 225.595C256.422 228.329 252.237 232.569 248.774 237.281C244.791 235.388 240.25 233.167 235.812 230.966C230.408 228.288 230.2 220.462 235.495 217.563C235.546 217.535 235.597 217.506 235.647 217.476C240.607 214.583 245.689 204.363 245.689 204.363L278.214 207.949Z" fill="#FF9BAB"/>
<path d="M223.57 66.0844L220.508 78.6926C220.508 78.6926 223.185 79.8084 224.904 78.9421C226.623 78.0758 228.026 66.7631 223.57 66.0844Z" fill="#FF9BAB"/>
<path d="M311.635 42.292H245.786C239.282 42.292 234.01 47.6684 234.01 54.3005V201.897C234.01 208.529 239.282 213.906 245.786 213.906H311.635C318.139 213.906 323.411 208.529 323.411 201.897V54.3005C323.411 47.6684 318.139 42.292 311.635 42.292Z" fill="#2159D1"/>
<path d="M318.98 55.4381V199.613C318.98 204.504 315.083 208.505 310.318 208.505H247.096C242.336 208.505 238.434 204.504 238.434 199.613V55.4381C238.434 50.5473 242.329 46.546 247.096 46.546H310.324C315.083 46.546 318.98 50.5535 318.98 55.4381Z" fill="#E7EFFF"/>
<path d="M310.324 46.546L247.879 208.505H247.096C242.336 208.505 238.434 204.504 238.434 199.613V55.4381C238.434 50.5473 242.329 46.546 247.096 46.546H310.324Z" fill="#F3F7FF"/>
<path d="M291.925 43.2977H265.498C263.337 43.2977 261.585 45.0843 261.585 47.2882V47.9173C261.585 50.1212 263.337 51.9078 265.498 51.9078H291.925C294.086 51.9078 295.838 50.1212 295.838 47.9173V47.2882C295.838 45.0843 294.086 43.2977 291.925 43.2977Z" fill="#2159D1"/>
<path d="M334.762 123.389L333.017 124.064L321.281 128.613C321.008 128.719 320.73 128.809 320.448 128.882C318.542 129.381 316.524 129.147 314.776 128.227C313.029 127.306 311.674 125.762 310.97 123.889L310.798 123.424C310.051 121.403 310.119 119.162 310.987 117.192C311.855 115.222 313.452 113.682 315.43 112.908L326.371 108.67L327.166 108.36L328.912 107.683C330.896 106.92 333.096 106.99 335.029 107.878C336.963 108.765 338.472 110.398 339.228 112.418L339.401 112.883C340.144 114.904 340.073 117.143 339.204 119.111C338.335 121.079 336.738 122.617 334.762 123.389V123.389Z" fill="#FFC3CC"/>
<path d="M325.23 123.668C323.273 124.425 319.726 125.767 317.829 126.046C317.293 126.124 316.31 125.826 315.381 124.797C314.828 124.177 314.299 123.3 313.906 122.082C313.715 121.52 313.58 120.94 313.504 120.35C313.43 119.663 313.452 118.969 313.57 118.289C313.63 117.971 313.762 117.672 313.956 117.417C314.151 117.161 314.401 116.956 314.688 116.818C314.688 116.818 314.688 116.818 314.697 116.818C316.714 115.837 319.433 114.639 321.816 113.973C323.463 113.508 325.13 114.25 325.651 115.721L325.897 116.407L327.157 119.925C327.678 121.382 326.83 123.052 325.23 123.668Z" fill="#FF9BAB"/>
<path d="M329.437 140.22L320.384 142.732C319.058 143.096 317.645 142.91 316.453 142.215C315.261 141.52 314.387 140.372 314.023 139.022L313.743 137.977C313.387 136.624 313.571 135.182 314.254 133.966C314.937 132.75 316.065 131.86 317.39 131.489L326.442 128.977C327.769 128.613 329.183 128.801 330.375 129.498C331.567 130.195 332.44 131.345 332.803 132.696L333.081 133.741C333.435 135.092 333.251 136.532 332.568 137.746C331.886 138.96 330.76 139.849 329.437 140.22V140.22Z" fill="#FFC3CC"/>
<path d="M324.542 139.767C322.879 140.22 319.875 141.018 318.299 141.106C317.726 141.139 316.579 140.641 315.831 139.109C315.439 138.276 315.213 137.372 315.165 136.449C315.154 135.916 315.222 135.383 315.367 134.87C315.444 134.625 315.577 134.402 315.755 134.218C315.933 134.035 316.15 133.898 316.39 133.816H316.399C318.124 133.197 320.44 132.454 322.445 132.096C323.827 131.85 325.14 132.529 325.464 133.693L325.698 134.523L326.396 137.02C326.718 138.17 325.9 139.398 324.542 139.767Z" fill="#FF9BAB"/>
<path d="M324.542 139.767C322.879 140.22 319.875 141.018 318.299 141.106C317.726 141.139 316.578 140.641 315.831 139.109C315.724 138.692 315.662 138.265 315.647 137.835C315.636 137.301 315.704 136.769 315.849 136.256C315.926 136.01 316.059 135.787 316.237 135.603C316.415 135.42 316.633 135.282 316.873 135.2C318.598 134.58 320.916 133.837 322.919 133.482C324.064 133.277 325.163 133.708 325.69 134.522L326.388 137.018C326.718 138.17 325.9 139.398 324.542 139.767Z" fill="#FF9BAB"/>
<path d="M181.173 246.378C181.173 246.378 199.801 264.573 212.359 271.597L221.868 264.72V274.866C221.868 274.866 240.56 278.238 246.465 274.866V247.199L193.947 220.349L181.173 246.378Z" fill="#FFA869"/>
<path d="M258.243 145.868H306.416C307.307 145.868 308.189 146.047 309.012 146.395C309.835 146.742 310.582 147.252 311.212 147.894C311.842 148.536 312.342 149.299 312.682 150.138C313.023 150.977 313.199 151.876 313.199 152.785V160.752C313.199 162.586 312.484 164.345 311.213 165.642C309.941 166.939 308.216 167.667 306.418 167.668H258.244C256.446 167.668 254.721 166.939 253.449 165.643C252.178 164.346 251.463 162.587 251.463 160.753V152.789C251.463 151.881 251.637 150.981 251.978 150.142C252.318 149.302 252.817 148.539 253.447 147.896C254.076 147.254 254.824 146.744 255.647 146.396C256.47 146.048 257.352 145.869 258.243 145.868V145.868Z" fill="#F99746"/>
<path d="M287.72 151.505H276.778C276.327 151.505 275.961 151.878 275.961 152.338V152.735C275.961 153.196 276.327 153.569 276.778 153.569H287.72C288.172 153.569 288.538 153.196 288.538 152.735V152.338C288.538 151.878 288.172 151.505 287.72 151.505Z" fill="#FFA869"/>
<path d="M287.968 158.855H276.528C276.216 158.855 275.959 158.545 275.959 158.182C275.959 157.812 276.216 157.51 276.528 157.51H287.968C288.281 157.51 288.536 157.82 288.536 158.182C288.536 158.553 288.281 158.855 287.968 158.855Z" fill="#FFA869"/>
<path d="M282.833 160.694H276.465C276.186 160.694 275.959 160.925 275.959 161.21V161.525C275.959 161.81 276.186 162.041 276.465 162.041H282.833C283.112 162.041 283.339 161.81 283.339 161.525V161.21C283.339 160.925 283.112 160.694 282.833 160.694Z" fill="#FFA869"/>
<path d="M296.08 160.694H285.738C285.388 160.694 285.104 160.984 285.104 161.34V161.395C285.104 161.752 285.388 162.041 285.738 162.041H296.08C296.43 162.041 296.713 161.752 296.713 161.395V161.34C296.713 160.984 296.43 160.694 296.08 160.694Z" fill="#FFA869"/>
<path d="M305.994 158.855H290.995C290.682 158.855 290.427 158.545 290.427 158.182C290.427 157.812 290.682 157.51 290.995 157.51H305.994C306.307 157.51 306.563 157.82 306.563 158.182C306.563 158.553 306.307 158.855 305.994 158.855Z" fill="#FFA869"/>
<path d="M298.62 151.505H290.794C290.407 151.505 290.094 151.824 290.094 152.219V152.854C290.094 153.249 290.407 153.569 290.794 153.569H298.62C299.007 153.569 299.321 153.249 299.321 152.854V152.219C299.321 151.824 299.007 151.505 298.62 151.505Z" fill="#FFA869"/>
<path d="M258.051 156.524C258.051 157.874 258.444 159.194 259.18 160.317C259.915 161.439 260.961 162.314 262.184 162.831C263.407 163.347 264.753 163.483 266.051 163.219C267.35 162.956 268.543 162.306 269.479 161.351C270.415 160.396 271.053 159.18 271.311 157.856C271.569 156.532 271.437 155.159 270.93 153.912C270.423 152.664 269.565 151.598 268.465 150.848C267.364 150.098 266.07 149.698 264.746 149.698C263.865 149.693 262.993 149.867 262.179 150.208C261.364 150.55 260.625 151.052 260.002 151.687C259.38 152.322 258.887 153.076 258.552 153.906C258.217 154.737 258.047 155.626 258.051 156.524V156.524Z" fill="white"/>
<path d="M261.276 160.914C262.249 161.653 263.438 162.034 264.65 161.995C265.863 161.956 267.026 161.5 267.952 160.7C267.738 160.206 267.413 159.771 267.002 159.43C266.986 159.41 266.969 159.391 266.95 159.374C266.879 159.316 266.798 159.281 266.513 159.231C266.361 159.205 266.157 159.175 265.865 159.137C265.865 159.137 265.801 159.127 265.768 159.126H265.695C265.612 159.081 265.589 158.724 265.59 158.351V158.256C265.59 158.115 265.59 157.976 265.602 157.85V157.826C265.783 157.841 265.906 157.841 265.906 157.841C266.244 157.813 266.455 156.891 266.531 156.146C266.634 155.874 266.69 155.586 266.697 155.295C266.709 155.039 266.632 154.787 266.479 154.584C266.414 154.498 266.334 154.425 266.244 154.368C266.222 154.347 266.201 154.326 266.18 154.308C265.867 153.953 264.59 152.622 263.748 153.392C263.726 153.315 263.455 152.462 262.141 152.733C262.242 152.721 262.806 152.674 262.97 152.91C262.948 152.901 262.437 152.668 262.115 152.871C261.793 153.074 261.73 153.769 261.78 153.979C261.831 154.19 262.194 154.819 262.434 154.819C262.53 154.814 262.623 154.791 262.71 154.75C262.671 154.87 262.638 154.992 262.612 155.115C262.356 156.344 263.157 157.285 263.572 157.048C263.838 156.893 264.04 157.376 264.04 157.376C264.001 158.275 263.759 158.862 263.584 159.01C263.519 159.01 263.382 159.034 263.207 159.061C262.838 159.105 262.476 159.198 262.13 159.337H262.118C262.023 159.376 261.934 159.428 261.853 159.492V159.492C261.821 159.518 261.792 159.548 261.768 159.583C261.757 159.595 261.748 159.609 261.741 159.623C261.547 160.038 261.391 160.47 261.276 160.914V160.914Z" fill="#F99746"/>
<path d="M250.433 272.664C243.198 274.178 227.604 268.382 227.604 268.382L230.115 243.609L212.487 264.187C203.521 260.778 189.494 251.904 181.162 246.378C177.013 243.626 174.274 241.706 174.274 241.706C186.034 222.409 197.861 204.358 197.861 204.358C201.334 211.442 209.551 217.591 218.459 222.511C233.262 230.687 249.971 235.464 249.971 235.464C249.976 250.19 250.433 272.664 250.433 272.664Z" fill="#E7EFFF"/>
<path d="M334.476 105.705L334.281 105.773L322.416 108.873C317.199 110.241 311.802 107.362 310.425 102.477L309.72 99.9884C308.397 95.2975 311.24 90.3928 316.089 88.8028L320.007 87.7769L327.955 85.6957C333.172 84.3289 338.567 87.2082 339.944 92.0928L340.65 94.5955C341.954 99.2136 339.204 104.047 334.476 105.705Z" fill="#FFC3CC"/>
<path d="M329.046 102.327L323.271 104.977H323.235C323.006 105.042 322.773 105.094 322.537 105.132C322.442 105.147 322.343 105.158 322.246 105.169C322.205 105.173 322.165 105.173 322.124 105.169C321.974 105.164 321.827 105.121 321.697 105.044C321.567 104.966 321.457 104.858 321.378 104.727C321.299 104.596 321.254 104.447 321.245 104.294C321.236 104.141 321.264 103.988 321.328 103.849C321.893 102.601 322.009 101.189 321.655 99.8629L321.516 99.3499C321.517 99.3448 321.517 99.3395 321.516 99.3344L321.069 97.6639C320.729 96.3806 319.997 95.2409 318.98 94.4095C318.861 94.3119 318.74 94.2189 318.615 94.1321C317.475 93.3263 317.766 91.4977 319.1 91.1257L319.136 91.1149L325.463 90.1386C327.027 89.7062 328.533 90.9336 328.958 92.5282L329.466 94.4297L330.548 98.4836C330.973 100.089 330.602 101.895 329.046 102.327Z" fill="#FF9BAB"/>
<path d="M234.009 168.64C234.009 168.64 231.425 145.597 229.034 141.105C226.642 136.612 224.626 127.612 228.298 120.926C231.97 114.241 233.241 101.383 233.241 101.383C234.667 116.07 230.381 126.972 233.393 129.859C233.504 129.964 233.713 129.914 234.001 129.722L234.009 168.64Z" fill="#FF9BAB"/>
<path d="M415.031 314H345.117C341.764 311.708 324.353 299.597 317.154 290.569C315.635 288.655 310.044 272.166 305.757 258.778C303.078 250.41 300.894 243.26 300.534 241.619C300.406 241.047 300.321 239.914 300.269 238.38V238.364C300.087 232.889 300.336 222.331 300.593 213.945V213.906V213.796C300.605 213.427 300.616 213.064 300.628 212.711V212.699C300.628 212.663 300.628 212.626 300.628 212.59C300.675 211.133 300.721 209.76 300.763 208.511C300.871 205.39 300.962 203.042 301 202.124L301.016 201.696C301.126 201.632 304.49 199.802 308.985 203.104C310.07 203.903 311.073 205.83 311.988 208.346C312.573 209.951 313.121 211.795 313.632 213.738C315.595 221.213 317.004 230.148 317.756 232.541C318.972 236.415 333.257 253.41 334.157 254.467C334.17 254.486 334.186 254.503 334.199 254.52V227.661L323.409 198.217L318.98 186.129L316.753 180.054C314.397 175.999 312.299 171.792 310.474 167.46C309.22 164.451 308.071 161.22 307.36 158.148C307.19 157.417 307.046 156.693 306.93 155.979C306.509 153.383 306.474 150.975 307.065 149.014C308.109 145.523 310.462 144.866 312.269 144.937C312.456 144.937 312.637 144.96 312.811 144.98C312.987 145.002 313.16 145.036 313.331 145.083C313.646 145.168 313.948 145.296 314.229 145.464C314.229 145.464 314.229 145.464 314.229 145.464C314.697 145.743 315.098 146.126 315.402 146.583C315.402 146.583 316.922 148.614 318.975 151.345C320.321 153.143 321.894 155.242 323.405 157.266C326.095 160.872 328.593 164.24 329.28 165.222C332.993 170.552 342.989 187.919 342.989 187.919L354.691 188.42C356.544 188.499 358.308 189.252 359.664 190.543C363.825 194.505 372.796 203.08 373.896 204.355C373.896 204.773 380.867 208.192 386.253 211.236C390.105 212.895 397.422 218.778 397.422 218.778C398.942 220.143 400.094 221.502 400.679 222.807C403.188 228.375 409.993 276.801 413.247 300.741C414.3 308.437 414.978 313.602 415.031 314Z" fill="#FFC3CC"/>
<path d="M342.994 187.925C342.994 187.925 353.834 205.97 355.268 206.782C356.703 207.594 362.283 208.733 362.921 206.782C363.559 204.831 342.994 187.925 342.994 187.925Z" fill="#FF9BAB"/>
<path d="M397.482 218.834L397.427 218.784C397.427 218.784 390.11 212.895 386.257 211.242C381.312 208.452 375.033 205.337 374.038 204.522C375.185 205.861 383.257 215.178 386.365 215.875C389.093 216.489 395.289 218.217 397.482 218.834Z" fill="#FF9BAB"/>
<path d="M311.505 155.977C310.593 154.378 308.952 151.483 308.388 149.856C308.236 149.391 308.25 148.48 308.803 147.502C309.211 146.802 309.773 146.207 310.444 145.765C310.801 145.506 311.188 145.294 311.596 145.131C312.069 144.955 312.567 144.861 313.07 144.853C313.324 144.865 313.571 144.938 313.79 145.069C314.01 145.199 314.195 145.381 314.33 145.6C314.33 145.6 314.33 145.6 314.33 145.6C315.415 147.214 316.789 149.409 317.723 151.398C318.369 152.771 318.165 154.356 317.223 155.052L316.783 155.38L314.53 157.057C313.599 157.759 312.249 157.285 311.505 155.977Z" fill="#FF9BAB"/>
<path d="M311.505 155.977C310.593 154.378 308.952 151.483 308.388 149.856C308.236 149.391 308.25 148.48 308.803 147.502C309.294 147.09 309.843 146.754 310.43 146.505C310.903 146.33 311.401 146.236 311.904 146.228C312.158 146.239 312.405 146.313 312.625 146.443C312.844 146.573 313.029 146.756 313.164 146.975V146.975C314.251 148.588 315.624 150.784 316.558 152.771C316.972 153.651 317.038 154.616 316.782 155.379L314.53 157.056C313.599 157.759 312.249 157.285 311.505 155.977Z" fill="#FF9BAB"/>
<path d="M121.367 53.4591L85.0469 78.7035L113.162 39.25L121.367 53.4591Z" fill="white"/>
<path d="M291.828 90.5834H201.928C198.808 90.5834 196.278 93.163 196.278 96.3451V131.095C196.278 134.277 198.808 136.857 201.928 136.857H291.828C294.948 136.857 297.478 134.277 297.478 131.095V96.3451C297.478 93.163 294.948 90.5834 291.828 90.5834Z" fill="#457DF5"/>
<path d="M235.171 113.41C235.178 116.71 234.109 119.919 232.132 122.532C231.499 123.369 230.78 124.137 229.989 124.821C227.44 127.022 224.23 128.27 220.891 128.358C217.552 128.446 214.283 127.369 211.626 125.304C208.969 123.24 207.083 120.312 206.279 117.006C205.476 113.699 205.804 110.212 207.209 107.122C208.614 104.031 211.011 101.522 214.005 100.011C216.998 98.4987 220.408 98.0744 223.67 98.808C226.932 99.5415 229.851 101.389 231.943 104.044C234.035 106.7 235.176 110.004 235.176 113.41H235.171Z" fill="white"/>
<path d="M226.4 120.478L226.286 120.353C226.117 120.221 225.948 120.139 225.271 120.02C224.926 119.961 224.447 119.891 223.768 119.801C223.768 119.801 223.616 119.784 223.544 119.778L223.374 119.762C223.18 119.659 223.129 118.833 223.131 117.968C223.131 117.903 223.131 117.838 223.131 117.773C223.131 117.444 223.145 117.12 223.157 116.829C223.157 116.81 223.157 116.793 223.157 116.775C223.576 116.81 223.854 116.807 223.854 116.807C224.635 116.744 225.123 114.608 225.298 112.882C225.538 112.253 225.668 111.586 225.684 110.911C225.71 110.319 225.533 109.736 225.183 109.263C225.029 109.065 224.844 108.895 224.634 108.761C224.585 108.712 224.535 108.667 224.482 108.623C223.756 107.8 220.801 104.717 218.859 106.5C218.809 106.322 218.178 104.32 215.121 104.975C215.311 104.955 216.666 104.82 217.058 105.384C217.005 105.361 215.821 104.825 215.083 105.293C214.738 105.507 214.524 105.952 214.402 106.42V106.429C214.402 106.429 214.402 106.429 214.402 106.437C214.401 106.441 214.401 106.446 214.402 106.451C214.388 106.514 214.373 106.578 214.359 106.641C214.359 106.651 214.359 106.66 214.359 106.671C214.359 106.682 214.359 106.671 214.359 106.671C214.276 107.059 214.264 107.459 214.323 107.852C214.437 108.34 215.28 109.793 215.843 109.793C216.063 109.785 216.28 109.732 216.481 109.638C216.388 109.915 216.312 110.198 216.253 110.484C215.659 113.334 217.516 115.499 218.478 114.963C219.095 114.621 219.561 115.721 219.561 115.721C219.47 117.805 218.909 119.166 218.497 119.505C218.346 119.522 218.026 119.563 217.624 119.628C217.624 119.628 216.206 119.783 215.127 120.265L215.101 120.275C214.884 120.363 214.679 120.479 214.493 120.623V120.623C214.417 120.681 214.35 120.752 214.296 120.832C214.271 120.861 214.25 120.892 214.232 120.926C213.872 121.627 213.508 122.679 213.168 123.913C215.417 125.615 218.165 126.493 220.965 126.405C223.765 126.317 226.454 125.267 228.596 123.426C227.804 121.734 226.895 120.861 226.4 120.478Z" fill="#2159D1"/>
<path d="M261.414 102.077H244.757C244.177 102.077 243.707 102.557 243.707 103.148V103.928C243.707 104.519 244.177 104.999 244.757 104.999H261.414C261.994 104.999 262.464 104.519 262.464 103.928V103.148C262.464 102.557 261.994 102.077 261.414 102.077Z" fill="white"/>
<path d="M261.615 115.499H244.552C244.316 115.486 244.095 115.379 243.936 115.201C243.778 115.023 243.694 114.788 243.704 114.548V114.548C243.704 114.024 244.087 113.595 244.552 113.595H261.613C262.08 113.595 262.461 114.024 262.461 114.548C262.472 114.788 262.389 115.023 262.23 115.201C262.072 115.379 261.851 115.486 261.615 115.499V115.499Z" fill="white"/>
<path d="M254.062 118.101H244.354C243.996 118.101 243.705 118.397 243.705 118.763V119.344C243.705 119.709 243.996 120.006 244.354 120.006H254.062C254.42 120.006 254.711 119.709 254.711 119.344V118.763C254.711 118.397 254.42 118.101 254.062 118.101Z" fill="white"/>
<path d="M273.847 118.101H258.161C257.711 118.101 257.346 118.473 257.346 118.932V119.175C257.346 119.634 257.711 120.006 258.161 120.006H273.847C274.297 120.006 274.661 119.634 274.661 119.175V118.932C274.661 118.473 274.297 118.101 273.847 118.101Z" fill="white"/>
<path d="M288.501 115.499H266.132C265.896 115.487 265.674 115.38 265.515 115.201C265.357 115.023 265.273 114.788 265.284 114.548V114.548C265.284 114.024 265.665 113.595 266.132 113.595H288.501C288.966 113.595 289.349 114.024 289.349 114.548C289.359 114.788 289.276 115.023 289.117 115.201C288.958 115.379 288.737 115.486 288.501 115.499V115.499Z" fill="white"/>
<path d="M261.615 124.514H244.552C244.087 124.514 243.704 124.085 243.704 123.561C243.696 123.321 243.78 123.087 243.938 122.91C244.097 122.733 244.317 122.627 244.552 122.614H261.614C261.849 122.626 262.071 122.733 262.23 122.912C262.389 123.09 262.472 123.325 262.462 123.565V123.565C262.463 124.085 262.082 124.514 261.615 124.514Z" fill="white"/>
<path d="M288.501 124.514H266.132C265.665 124.514 265.284 124.085 265.284 123.561C265.275 123.321 265.358 123.087 265.517 122.91C265.676 122.733 265.897 122.626 266.132 122.614H288.501C288.737 122.627 288.958 122.734 289.117 122.912C289.276 123.09 289.359 123.325 289.349 123.565C289.349 124.085 288.966 124.514 288.501 124.514Z" fill="white"/>
<path d="M277.649 102.077H265.686C265.189 102.077 264.787 102.488 264.787 102.995V104.081C264.787 104.588 265.189 104.999 265.686 104.999H277.649C278.146 104.999 278.549 104.588 278.549 104.081V102.995C278.549 102.488 278.146 102.077 277.649 102.077Z" fill="white"/>
<path d="M379.905 302.974L359.02 314H345.117C341.764 311.708 324.353 299.597 317.155 290.569C315.635 288.655 310.044 272.166 305.757 258.779C306.327 260.556 318.304 286.568 321.714 289.524C325.124 292.481 343.029 309.695 347.974 309.515C352.764 309.348 378.264 303.363 379.844 302.993L379.905 302.974Z" fill="#FF9BAB"/>
<path d="M421.927 314H346.633C350.41 312.489 364.857 306.861 379.834 302.997L379.905 302.98C392.768 299.662 406.009 297.651 413.2 300.668L413.251 300.747L421.927 314Z" fill="#C4D7FF"/>
<path d="M300.628 212.584C301.896 212.11 303.678 211.797 304.544 213.274C305.894 215.57 300.882 235.834 300.256 238.378L300.628 212.584Z" fill="#FF9BAB"/>
<path d="M301.014 201.688L300.584 213.945C300.584 213.945 303.111 214.365 304.547 213.27C305.984 212.176 305.224 201.544 301.014 201.688Z" fill="#FF9BAB"/>
<path d="M250.433 272.664C243.198 274.178 227.605 268.382 227.605 268.382L230.115 243.609L212.487 264.187C203.521 260.778 189.494 251.904 181.162 246.378C202.517 244.004 218.459 222.513 218.459 222.513C233.263 230.689 249.971 235.465 249.971 235.465C249.976 250.19 250.433 272.664 250.433 272.664Z" fill="#F3F7FF"/>
<path d="M200.785 250.162C200.79 249.571 200.968 248.994 201.294 248.505C201.621 248.017 202.083 247.638 202.621 247.416C203.159 247.195 203.749 247.142 204.317 247.262C204.885 247.383 205.405 247.673 205.811 248.095C206.217 248.517 206.492 249.053 206.599 249.634C206.707 250.215 206.644 250.816 206.417 251.36C206.19 251.905 205.81 252.368 205.324 252.692C204.839 253.016 204.27 253.186 203.69 253.181C203.305 253.177 202.925 253.096 202.57 252.943C202.216 252.789 201.894 252.566 201.624 252.285C201.355 252.005 201.142 251.673 200.998 251.309C200.853 250.945 200.781 250.555 200.785 250.162V250.162Z" fill="#F99746"/>
<path d="M308.476 62.3311H257.269C254.659 62.3311 252.543 64.4888 252.543 67.1506V76.4657C252.543 79.1275 254.659 81.2853 257.269 81.2853H308.476C311.086 81.2853 313.202 79.1275 313.202 76.4657V67.1506C313.202 64.4888 311.086 62.3311 308.476 62.3311Z" fill="#77A2FF"/>
<path d="M287.952 66.946H276.11C275.698 66.946 275.364 67.2867 275.364 67.7069V68.0711C275.364 68.4913 275.698 68.832 276.11 68.832H287.952C288.365 68.832 288.699 68.4913 288.699 68.0711V67.7069C288.699 67.2867 288.365 66.946 287.952 66.946Z" fill="#457DF5"/>
<path d="M288.096 73.6608H275.966C275.804 73.6608 275.65 73.5955 275.536 73.4792C275.422 73.363 275.358 73.2053 275.358 73.0409C275.358 72.8765 275.422 72.7188 275.536 72.6026C275.65 72.4863 275.804 72.421 275.966 72.421H288.096C288.257 72.421 288.411 72.4863 288.525 72.6026C288.639 72.7188 288.703 72.8765 288.703 73.0409C288.703 73.2053 288.639 73.363 288.525 73.4792C288.411 73.5955 288.257 73.6608 288.096 73.6608Z" fill="#457DF5"/>
<path d="M282.726 75.3391H275.826C275.57 75.3391 275.364 75.55 275.364 75.8102V76.0969C275.364 76.3571 275.57 76.568 275.826 76.568H282.726C282.982 76.568 283.188 76.3571 283.188 76.0969V75.8102C283.188 75.55 282.982 75.3391 282.726 75.3391Z" fill="#457DF5"/>
<path d="M296.791 75.3391H285.639C285.32 75.3391 285.06 75.6035 285.06 75.9296V75.9776C285.06 76.3037 285.32 76.568 285.639 76.568H296.791C297.11 76.568 297.37 76.3037 297.37 75.9776V75.9296C297.37 75.6035 297.11 75.3391 296.791 75.3391Z" fill="#457DF5"/>
<path d="M307.21 73.6608H291.305C291.144 73.6608 290.989 73.5955 290.875 73.4792C290.761 73.363 290.697 73.2053 290.697 73.0409C290.697 72.8765 290.761 72.7188 290.875 72.6026C290.989 72.4863 291.144 72.421 291.305 72.421H307.21C307.371 72.421 307.526 72.4863 307.64 72.6026C307.754 72.7188 307.818 72.8765 307.818 73.0409C307.818 73.2053 307.754 73.363 307.64 73.4792C307.526 73.5955 307.371 73.6608 307.21 73.6608Z" fill="#457DF5"/>
<path d="M299.495 66.946H290.99C290.637 66.946 290.351 67.2381 290.351 67.5985V68.1796C290.351 68.5399 290.637 68.832 290.99 68.832H299.495C299.848 68.832 300.134 68.5399 300.134 68.1796V67.5985C300.134 67.2381 299.848 66.946 299.495 66.946Z" fill="#457DF5"/>
<path d="M258.141 71.8074C258.14 73.0472 258.473 74.2634 259.103 75.3237C259.733 76.384 260.637 77.2476 261.715 77.8206C262.793 78.3936 264.005 78.6539 265.218 78.5732C266.431 78.4925 267.599 78.0739 268.595 77.363C268.651 77.3258 268.705 77.2855 268.758 77.2453C269.667 76.5545 270.387 75.6382 270.851 74.5834C271.315 73.5286 271.506 72.3704 271.407 71.2189C271.308 70.0674 270.922 68.9609 270.285 68.0046C269.648 67.0483 268.782 66.2739 267.769 65.7552C266.756 65.2365 265.63 64.9906 264.497 65.041C263.365 65.0914 262.264 65.4363 261.299 66.043C260.334 66.6497 259.537 67.498 258.985 68.5072C258.432 69.5164 258.142 70.653 258.141 71.809V71.8074Z" fill="white"/>
<path d="M266.346 75.5746L265.816 75.0957L265.683 75.1205C265.585 75.0498 265.484 74.9841 265.379 74.9237C265.414 74.7052 265.443 74.5022 265.468 74.3225C265.517 73.9685 265.547 73.612 265.557 73.2547C265.838 73.2408 266.028 73.2098 266.028 73.2098C266.56 73.0843 266.586 71.2324 266.463 70.2654C266.565 70.2691 266.666 70.2495 266.759 70.208C267.162 70.0267 267.185 69.4053 267.185 69.4053C267.119 69.5295 267.018 69.6313 266.896 69.6982C266.896 69.6982 267.569 68.7575 266.788 68.1144C266.007 67.4713 265.215 67.8913 264.762 67.9192C263.769 67.9811 263.126 68.0416 262.802 68.7079C262.478 69.3743 262.607 71.1719 263.221 71.8368C263.232 71.8987 263.243 71.9592 263.25 72.0212C263.279 72.2363 263.363 72.4399 263.493 72.6116C263.384 73.2435 263.132 73.8408 262.758 74.3565C262.555 74.5228 262.377 74.7186 262.229 74.9377L262.218 74.9454C261.887 75.4568 261.637 76.0179 261.475 76.6082C261.475 76.6082 261.475 76.6082 261.475 76.6175C261.803 76.8525 262.155 77.05 262.525 77.2064L262.598 77.2374H262.615L262.735 77.2854C262.832 77.3242 262.93 77.3598 263.028 77.3924C263.127 77.4249 263.237 77.4575 263.342 77.4854L263.493 77.521C263.536 77.5318 263.579 77.5411 263.623 77.5489H263.641L263.728 77.5659L263.931 77.6016H263.978L264.091 77.6171L264.243 77.6357C264.302 77.6357 264.363 77.6465 264.424 77.6496C264.484 77.6527 264.537 77.6496 264.595 77.6589H264.776H264.971H265.034H265.13H265.142C265.203 77.6589 265.262 77.6512 265.323 77.645C266.083 77.5717 266.821 77.344 267.493 76.9755C267.181 76.4531 266.794 75.981 266.346 75.5746V75.5746Z" fill="#457DF5"/>
<path d="M308.476 175.415H257.269C254.659 175.415 252.543 177.572 252.543 180.234V189.549C252.543 192.211 254.659 194.369 257.269 194.369H308.476C311.086 194.369 313.202 192.211 313.202 189.549V180.234C313.202 177.572 311.086 175.415 308.476 175.415Z" fill="#77A2FF"/>
<path d="M287.952 180.028H276.11C275.698 180.028 275.364 180.369 275.364 180.789V181.153C275.364 181.573 275.698 181.914 276.11 181.914H287.952C288.365 181.914 288.699 181.573 288.699 181.153V180.789C288.699 180.369 288.365 180.028 287.952 180.028Z" fill="#457DF5"/>
<path d="M288.096 186.743H275.966C275.804 186.743 275.65 186.678 275.536 186.561C275.422 186.445 275.358 186.287 275.358 186.123C275.358 185.959 275.422 185.801 275.536 185.685C275.65 185.568 275.804 185.503 275.966 185.503H288.096C288.257 185.503 288.411 185.568 288.525 185.685C288.639 185.801 288.703 185.959 288.703 186.123C288.703 186.287 288.639 186.445 288.525 186.561C288.411 186.678 288.257 186.743 288.096 186.743Z" fill="#457DF5"/>
<path d="M282.726 188.423H275.826C275.57 188.423 275.364 188.634 275.364 188.894V189.181C275.364 189.441 275.57 189.652 275.826 189.652H282.726C282.982 189.652 283.188 189.441 283.188 189.181V188.894C283.188 188.634 282.982 188.423 282.726 188.423Z" fill="#457DF5"/>
<path d="M296.791 188.423H285.639C285.32 188.423 285.06 188.687 285.06 189.013V189.061C285.06 189.387 285.32 189.652 285.639 189.652H296.791C297.11 189.652 297.37 189.387 297.37 189.061V189.013C297.37 188.687 297.11 188.423 296.791 188.423Z" fill="#457DF5"/>
<path d="M307.21 186.743H291.305C291.144 186.743 290.989 186.678 290.875 186.561C290.761 186.445 290.697 186.287 290.697 186.123C290.697 185.959 290.761 185.801 290.875 185.685C290.989 185.568 291.144 185.503 291.305 185.503H307.21C307.371 185.503 307.526 185.568 307.64 185.685C307.754 185.801 307.818 185.959 307.818 186.123C307.818 186.287 307.754 186.445 307.64 186.561C307.526 186.678 307.371 186.743 307.21 186.743Z" fill="#457DF5"/>
<path d="M299.495 180.028H290.99C290.637 180.028 290.351 180.32 290.351 180.681V181.262C290.351 181.622 290.637 181.914 290.99 181.914H299.495C299.848 181.914 300.134 181.622 300.134 181.262V180.681C300.134 180.32 299.848 180.028 299.495 180.028Z" fill="#457DF5"/>
<path d="M258.141 184.891C258.138 186.387 258.624 187.841 259.521 189.024C259.808 189.404 260.134 189.752 260.492 190.062C260.85 190.37 261.238 190.64 261.65 190.867C262.733 191.458 263.955 191.732 265.181 191.657C266.407 191.583 267.589 191.163 268.595 190.445C268.651 190.406 268.704 190.366 268.758 190.326C269.667 189.635 270.387 188.719 270.851 187.664C271.314 186.609 271.506 185.451 271.407 184.299C271.308 183.147 270.921 182.041 270.284 181.085C269.647 180.128 268.781 179.354 267.768 178.835C266.755 178.317 265.629 178.071 264.496 178.121C263.364 178.172 262.263 178.517 261.298 179.124C260.333 179.731 259.536 180.579 258.984 181.589C258.431 182.598 258.141 183.735 258.141 184.891V184.891Z" fill="white"/>
<path d="M266.346 188.658L265.816 188.179L265.683 188.204C265.585 188.134 265.484 188.068 265.379 188.007C265.414 187.789 265.443 187.586 265.468 187.406C265.517 187.052 265.547 186.696 265.557 186.338C265.838 186.325 266.028 186.294 266.028 186.294C266.56 186.168 266.586 184.316 266.463 183.349C266.565 183.353 266.666 183.333 266.759 183.292C267.162 183.11 267.185 182.489 267.185 182.489C267.119 182.613 267.018 182.715 266.896 182.782C266.896 182.782 267.569 181.841 266.788 181.198C266.007 180.555 265.215 180.975 264.762 181.003C263.769 181.065 263.126 181.125 262.802 181.792C262.478 182.458 262.607 184.256 263.221 184.921C263.232 184.983 263.243 185.043 263.25 185.105C263.279 185.32 263.363 185.524 263.493 185.695C263.384 186.327 263.132 186.925 262.758 187.44C262.555 187.607 262.377 187.802 262.229 188.021L262.218 188.029C261.887 188.541 261.637 189.102 261.475 189.692V189.701C261.803 189.936 262.155 190.134 262.525 190.29L262.598 190.321H262.615L262.735 190.369C262.832 190.408 262.93 190.444 263.028 190.476C263.127 190.509 263.237 190.541 263.342 190.569L263.493 190.605C263.536 190.616 263.579 190.625 263.623 190.633H263.641L263.728 190.65L263.931 190.685H263.978L264.091 190.701L264.243 190.719C264.302 190.719 264.363 190.73 264.424 190.733C264.484 190.736 264.537 190.733 264.595 190.743H264.776H264.971H265.034H265.13H265.142C265.203 190.743 265.262 190.743 265.323 190.729C266.083 190.655 266.821 190.428 267.493 190.059C267.181 189.537 266.794 189.065 266.346 188.658Z" fill="#457DF5"/>
</g>
</svg>
