<svg width="558" height="314" viewBox="0 0 558 314" fill="none" xmlns="http://www.w3.org/2000/svg">
<mask id="mask0_58331_196906" style="mask-type:alpha" maskUnits="userSpaceOnUse" x="0" y="0" width="558" height="314">
<path d="M558 0H0V314H558V0Z" fill="#F3F7FF"/>
</mask>
<g mask="url(#mask0_58331_196906)">
<path d="M558 0H0V314H558V0Z" fill="#F3F7FF"/>
<rect opacity="0.3" x="102.522" y="85.6364" width="353.003" height="165.326" rx="16" fill="white"/>
<rect opacity="0.6" x="116.502" y="53" width="325.042" height="177" rx="16" fill="white"/>
<path d="M153.696 291.097L404.267 291.695C406.521 291.701 408.754 291.251 410.838 290.372C412.923 289.493 414.817 288.202 416.413 286.572C418.009 284.943 419.275 283.007 420.139 280.876C421.003 278.745 421.448 276.46 421.448 274.153V62.6554C421.448 58.003 419.642 53.5412 416.428 50.2515C413.214 46.9618 408.855 45.1136 404.31 45.1136H153.737C149.192 45.1136 144.833 46.9618 141.619 50.2515C138.405 53.5412 136.599 58.003 136.599 62.6554V273.543C136.596 278.19 138.395 282.649 141.6 285.94C144.806 289.231 149.156 291.086 153.696 291.097Z" fill="white"/>
<path d="M376.789 238.353H180.687C175.915 238.353 172.046 242.313 172.046 247.198V257.888C172.046 262.773 175.915 266.733 180.687 266.733H376.789C381.561 266.733 385.43 262.773 385.43 257.888V247.198C385.43 242.313 381.561 238.353 376.789 238.353Z" fill="#457DF5"/>
<path d="M265.681 257.619C265.075 257.619 264.498 257.535 263.948 257.368C263.406 257.2 262.971 256.969 262.645 256.674C262.493 256.547 262.418 256.383 262.418 256.184C262.418 256.041 262.457 255.921 262.537 255.826C262.617 255.722 262.712 255.67 262.824 255.67C262.936 255.67 263.071 255.722 263.23 255.826C263.94 256.352 264.749 256.614 265.657 256.614C266.295 256.614 266.785 256.495 267.127 256.256C267.47 256.017 267.641 255.674 267.641 255.228C267.641 254.877 267.482 254.614 267.163 254.439C266.844 254.264 266.334 254.096 265.633 253.937C264.964 253.793 264.414 253.63 263.984 253.447C263.553 253.264 263.215 253.016 262.967 252.706C262.728 252.387 262.609 251.985 262.609 251.498C262.609 251.012 262.74 250.582 263.003 250.207C263.274 249.825 263.649 249.53 264.127 249.323C264.605 249.108 265.151 249 265.765 249C266.33 249 266.852 249.08 267.33 249.239C267.809 249.399 268.215 249.634 268.55 249.944C268.709 250.08 268.789 250.243 268.789 250.435C268.789 250.57 268.745 250.69 268.657 250.793C268.578 250.897 268.482 250.949 268.37 250.949C268.267 250.949 268.135 250.897 267.976 250.793C267.609 250.514 267.263 250.315 266.936 250.195C266.617 250.068 266.231 250.004 265.777 250.004C265.163 250.004 264.685 250.132 264.342 250.387C263.999 250.634 263.828 250.98 263.828 251.427C263.828 251.809 263.98 252.1 264.282 252.299C264.585 252.491 265.071 252.666 265.741 252.825C266.442 252.985 267.008 253.152 267.438 253.327C267.876 253.495 268.223 253.73 268.478 254.033C268.741 254.327 268.872 254.71 268.872 255.18C268.872 255.658 268.737 256.085 268.466 256.459C268.203 256.826 267.829 257.113 267.342 257.32C266.864 257.519 266.31 257.619 265.681 257.619Z" fill="white"/>
<path d="M271.597 257.523C271.406 257.523 271.255 257.471 271.143 257.368C271.039 257.256 270.988 257.109 270.988 256.925V249.693C270.988 249.51 271.039 249.367 271.143 249.263C271.255 249.152 271.406 249.096 271.597 249.096H275.996C276.179 249.096 276.319 249.14 276.415 249.227C276.518 249.315 276.57 249.438 276.57 249.598C276.57 249.757 276.518 249.881 276.415 249.968C276.319 250.048 276.179 250.088 275.996 250.088H272.195V252.742H275.757C275.94 252.742 276.08 252.785 276.176 252.873C276.279 252.961 276.331 253.084 276.331 253.244C276.331 253.403 276.279 253.527 276.176 253.614C276.08 253.702 275.94 253.746 275.757 253.746H272.195V256.531H275.996C276.379 256.531 276.57 256.694 276.57 257.021C276.57 257.18 276.518 257.304 276.415 257.391C276.319 257.479 276.179 257.523 275.996 257.523H271.597Z" fill="white"/>
<path d="M284.913 249.036C285.088 249.036 285.228 249.096 285.331 249.215C285.443 249.327 285.499 249.474 285.499 249.658V256.961C285.499 257.144 285.443 257.296 285.331 257.415C285.22 257.527 285.076 257.583 284.901 257.583C284.694 257.583 284.535 257.503 284.423 257.344L279.737 251.164V256.961C279.737 257.144 279.681 257.296 279.57 257.415C279.466 257.527 279.327 257.583 279.151 257.583C278.976 257.583 278.837 257.527 278.733 257.415C278.629 257.304 278.578 257.152 278.578 256.961V249.658C278.578 249.474 278.633 249.327 278.745 249.215C278.857 249.096 279 249.036 279.175 249.036C279.383 249.036 279.542 249.116 279.653 249.275L284.339 255.467V249.658C284.339 249.474 284.391 249.327 284.495 249.215C284.598 249.096 284.738 249.036 284.913 249.036Z" fill="white"/>
<path d="M288.668 257.523C288.477 257.523 288.326 257.471 288.214 257.368C288.111 257.256 288.059 257.109 288.059 256.925V249.693C288.059 249.51 288.111 249.367 288.214 249.263C288.326 249.152 288.477 249.096 288.668 249.096H291.011C292.374 249.096 293.43 249.462 294.179 250.195C294.928 250.929 295.303 251.965 295.303 253.303C295.303 254.642 294.928 255.682 294.179 256.423C293.43 257.156 292.374 257.523 291.011 257.523H288.668ZM290.94 256.495C293.011 256.495 294.047 255.431 294.047 253.303C294.047 251.184 293.011 250.124 290.94 250.124H289.29V256.495H290.94Z" fill="white"/>
<path d="M288.956 148.041H176.242C174.135 148.041 172.427 149.79 172.427 151.946V151.948C172.427 154.105 174.135 155.853 176.242 155.853H288.956C291.063 155.853 292.771 154.105 292.771 151.948V151.946C292.771 149.79 291.063 148.041 288.956 148.041Z" fill="#C4D7FF"/>
<path d="M354.975 167.776H176.242C174.135 167.776 172.427 169.524 172.427 171.681V171.683C172.427 173.839 174.135 175.588 176.242 175.588H354.975C357.082 175.588 358.79 173.839 358.79 171.683V171.681C358.79 169.524 357.082 167.776 354.975 167.776Z" fill="#C4D7FF"/>
<path d="M288.956 187.51H176.242C174.135 187.51 172.427 189.258 172.427 191.415V191.417C172.427 193.574 174.135 195.322 176.242 195.322H288.956C291.063 195.322 292.771 193.574 292.771 191.417V191.415C292.771 189.258 291.063 187.51 288.956 187.51Z" fill="#C4D7FF"/>
<path d="M354.975 207.245H176.242C174.135 207.245 172.427 208.993 172.427 211.15V211.152C172.427 213.308 174.135 215.057 176.242 215.057H354.975C357.082 215.057 358.79 213.308 358.79 211.152V211.15C358.79 208.993 357.082 207.245 354.975 207.245Z" fill="#C4D7FF"/>
<mask id="mask1_58331_196906" style="mask-type:alpha" maskUnits="userSpaceOnUse" x="227" y="21" width="101" height="103">
<path d="M327.299 72.0363C327.317 83.4263 323.594 94.492 316.729 103.456C312.072 109.569 306.112 114.512 299.305 117.91C292.497 121.308 285.022 123.07 277.449 123.062C276.753 123.062 276.061 123.047 275.371 123.018C265.292 122.582 255.578 119.03 247.511 112.83C239.443 106.629 233.402 98.0717 230.182 88.2855C229.884 87.3819 229.612 86.4672 229.365 85.5414C229.276 85.2065 229.194 84.8733 229.108 84.5367C228.103 80.4496 227.596 76.2509 227.599 72.0363C227.599 43.8548 249.916 21.0109 277.449 21.0109C304.981 21.0109 327.299 43.8548 327.299 72.0363Z" fill="#D9EDF9"/>
</mask>
<g mask="url(#mask1_58331_196906)">
<path d="M327.299 72.0363C327.317 83.4263 323.594 94.492 316.729 103.456C312.072 109.569 306.112 114.512 299.305 117.91C292.497 121.308 285.022 123.07 277.449 123.062C276.753 123.062 276.061 123.047 275.371 123.018C265.292 122.582 255.578 119.03 247.511 112.83C239.443 106.629 233.402 98.0717 230.182 88.2855C229.884 87.3819 229.612 86.4672 229.365 85.5414C229.276 85.2065 229.194 84.8733 229.108 84.5367C228.103 80.4496 227.596 76.2509 227.599 72.0363C227.599 43.8548 249.916 21.0109 277.449 21.0109C304.981 21.0109 327.299 43.8548 327.299 72.0363Z" fill="#C4D7FF"/>
<path d="M296.813 95.8811C296.813 95.8811 335.364 105.725 342.321 155.425C342.321 155.425 323.468 163.733 304.572 160.157L308.819 143.535L296.813 95.8811Z" fill="#457DF5"/>
<path d="M259.486 95.0166C259.486 95.0166 229.57 101.87 213.66 137.198C213.66 137.198 223.292 151.942 238.749 158.497L249.09 145.63L259.486 95.0166Z" fill="#457DF5"/>
<path d="M259.171 95.5252C252.057 99.4283 245.567 104.513 239.943 110.589L242.268 220.403H316.688L316.447 111.158C316.447 111.158 307.065 101.338 296.897 96.5568C288.263 92.4634 267.57 90.9226 259.171 95.5252Z" fill="#457DF5"/>
<path d="M305.142 145.756L306.097 111.977" stroke="#113FA1" stroke-width="1.4" stroke-linecap="round" stroke-linejoin="round"/>
<path d="M252.73 140.129L251.139 110.845" stroke="#113FA1" stroke-width="1.4" stroke-linecap="round" stroke-linejoin="round"/>
<path d="M260.348 64.0288L257.288 48.6003C257.111 47.3566 256.633 45.4039 257.221 43.5819C258.194 40.5658 261.767 34.7762 267.874 37.4254L269.196 43.5383C269.196 43.5383 262.851 44.838 260.305 53.2643L260.348 64.0288Z" fill="#282828"/>
<path d="M267.416 40.5907C267.306 42.618 265.544 51.492 259.357 54.7257C259.357 54.7008 253.93 42.8854 267.416 40.5907Z" fill="#282828"/>
<path d="M289.139 92.0692V65.8638H265.366V92.0692L258.292 95.3464C258.292 95.3464 259.951 106.204 277.5 106.447C295.05 106.689 296.812 95.875 296.812 95.875L289.139 92.0692Z" fill="#FFB1A5"/>
<path d="M267.87 37.4067C267.87 37.4067 272.233 25.7094 285.683 31.928C293.828 35.6903 296.086 40.7399 297.077 44.3156C297.397 45.6791 297.519 47.0828 297.438 48.4821L294.183 64.0287L281.479 42.5433L269.192 43.5072L267.87 37.4067Z" fill="#282828"/>
<path d="M294.183 64.0288C294.183 64.0288 295.786 61.4418 299.078 62.7166C302.37 63.9915 300.914 72.1441 295.933 73.1889C295.376 73.2885 294.804 73.2645 294.257 73.1185C293.71 72.9725 293.2 72.708 292.763 72.3431C292.763 72.3431 293.993 66.2986 294.183 64.0288Z" fill="#F3978E"/>
<path d="M298.435 65.5771C298.435 65.5771 295.669 64.6381 293.705 68.7797" stroke="#282828" stroke-width="1.4" stroke-linecap="round" stroke-linejoin="round"/>
<path d="M260.349 64.0288C260.349 64.0288 258.746 61.4418 255.454 62.7166C252.162 63.9915 253.618 72.1441 258.605 73.1889C259.162 73.2885 259.734 73.2645 260.281 73.1185C260.828 72.9725 261.338 72.708 261.775 72.3431C261.775 72.3431 260.545 66.2986 260.349 64.0288Z" fill="#F3978E"/>
<path d="M256.096 65.5771C256.096 65.5771 258.868 64.6381 260.832 68.7797" stroke="#282828" stroke-width="1.4" stroke-linecap="round" stroke-linejoin="round"/>
<path d="M294.514 56.2741C294.514 61.1868 294.043 71.4787 291.069 77.5854C288.279 83.319 283.659 86.4035 277.607 86.5838C271.555 86.7642 267.039 84.4011 263.423 76.9574C259.807 69.5136 259.978 56.3612 259.978 56.3612C259.978 56.3612 259.978 38.7935 277.062 38.7935C295.047 38.7935 294.514 56.2741 294.514 56.2741Z" fill="#FFB1A5"/>
<path d="M265.544 80.6265C265.544 80.6265 267.539 90.8872 276.326 92.0688C286.441 93.4245 289.139 80.8752 289.139 80.8752C289.139 80.8752 284.666 86.5653 277.599 86.5715C275.279 86.5628 272.991 86.0239 270.905 84.9948C268.818 83.9657 266.986 82.4728 265.544 80.6265Z" fill="#F3978E"/>
<path d="M276.488 63.5792V67.6462C276.487 67.8165 276.518 67.9853 276.58 68.1437C276.707 68.4326 276.932 68.6649 277.215 68.7976C277.497 68.9302 277.817 68.9542 278.116 68.8651L279.444 68.5106" stroke="#282828" stroke-width="1.4" stroke-linecap="round" stroke-linejoin="round"/>
<path d="M270.979 61.6223C270.979 61.9347 270.888 62.2401 270.717 62.4998C270.546 62.7596 270.303 62.962 270.019 63.0816C269.735 63.2011 269.423 63.2324 269.121 63.1715C268.82 63.1105 268.543 62.9601 268.326 62.7392C268.108 62.5183 267.96 62.2368 267.9 61.9304C267.84 61.624 267.871 61.3064 267.989 61.0178C268.106 60.7292 268.306 60.4825 268.561 60.3089C268.817 60.1354 269.117 60.0427 269.425 60.0427C269.629 60.0427 269.831 60.0836 270.019 60.163C270.208 60.2423 270.379 60.3587 270.524 60.5054C270.668 60.652 270.782 60.8262 270.861 61.0178C270.939 61.2094 270.979 61.4148 270.979 61.6223Z" fill="#282828"/>
<path d="M285.56 61.6223C285.56 61.9347 285.469 62.2401 285.298 62.4998C285.127 62.7596 284.885 62.962 284.601 63.0816C284.317 63.2011 284.004 63.2324 283.703 63.1715C283.401 63.1105 283.124 62.9601 282.907 62.7392C282.69 62.5183 282.541 62.2368 282.482 61.9304C282.422 61.624 282.452 61.3064 282.57 61.0178C282.688 60.7292 282.887 60.4825 283.142 60.3089C283.398 60.1354 283.699 60.0427 284.006 60.0427C284.418 60.0427 284.813 60.2091 285.105 60.5054C285.396 60.8016 285.56 61.2033 285.56 61.6223Z" fill="#282828"/>
<path d="M280.023 53.7619L290.481 56.5043C290.481 56.5043 290.01 53.5256 285.733 52.4436C281.455 51.3615 280.023 53.7619 280.023 53.7619Z" fill="#282828"/>
<path d="M273.53 53.7619L263.072 56.5043C263.072 56.5043 263.543 53.5256 267.82 52.4436C272.098 51.3615 273.53 53.7619 273.53 53.7619Z" fill="#282828"/>
<path d="M271.448 71.7275C271.448 71.7275 272.99 72.9277 277.047 72.9277C279.106 72.9748 281.151 72.5652 283.038 71.7275" stroke="#282828" stroke-width="1.4" stroke-linecap="round" stroke-linejoin="round"/>
<path d="M265.544 41.0199C265.544 41.0199 268.72 50.18 283.045 49.9002C292.774 49.7074 295.099 56.8651 295.099 56.8651C295.099 56.8651 293.404 40.8707 292.958 41.0199C292.511 41.1692 278.149 37.1208 278.149 37.1208L265.544 41.0199Z" fill="#282828"/>
</g>
<circle cx="314.25" cy="110.25" r="16.25" fill="white"/>
<circle cx="314.25" cy="110.25" r="14.3383" fill="#00B58D"/>
<rect x="307.329" y="107.792" width="10.565" height="3.01858" rx="1.50929" transform="rotate(45 307.329 107.792)" fill="white"/>
<rect x="310.531" y="115.263" width="15.0929" height="3.01858" rx="1.50929" transform="rotate(-45 310.531 115.263)" fill="white"/>
</g>
</svg>
