<svg width="558" height="314" viewBox="0 0 558 314" fill="none" xmlns="http://www.w3.org/2000/svg">
<mask id="mask0_56326_241418" style="mask-type:alpha" maskUnits="userSpaceOnUse" x="0" y="0" width="558" height="314">
<path d="M0 8C0 3.58172 3.58172 0 8 0H550C554.418 0 558 3.58172 558 8V314H0V8Z" fill="#C4C4C4"/>
</mask>
<g mask="url(#mask0_56326_241418)">
<path d="M558 0H0V314H558V0Z" fill="#F3F7FF"/>
<path d="M313.458 38.8792H124.61C121.296 38.8792 118.61 41.5654 118.61 44.8791V199.574C118.61 202.888 121.296 205.574 124.61 205.574H313.458C316.772 205.574 319.458 202.888 319.458 199.574V44.8791C319.458 41.5654 316.772 38.8792 313.458 38.8792Z" fill="#C4D7FF"/>
<path d="M436.281 113.376H246.71C243.396 113.376 240.71 116.062 240.71 119.376V274.071C240.71 277.385 243.396 280.071 246.71 280.071H436.281C439.594 280.071 442.281 277.385 442.281 274.071V119.376C442.281 116.062 439.594 113.376 436.281 113.376Z" fill="#E7EFFF"/>
<path d="M438.625 280.256H244.562C243.569 280.254 242.617 279.851 241.914 279.133C241.212 278.416 240.818 277.444 240.817 276.43V117.186C240.818 116.172 241.212 115.2 241.914 114.483C242.617 113.766 243.569 113.362 244.562 113.361H438.625C439.618 113.362 440.57 113.766 441.272 114.483C441.974 115.2 442.369 116.172 442.37 117.186V276.43C442.369 277.444 441.974 278.416 441.272 279.133C440.57 279.851 439.618 280.254 438.625 280.256V280.256ZM244.562 113.863C243.699 113.864 242.871 114.214 242.261 114.837C241.651 115.46 241.307 116.305 241.307 117.186V276.43C241.307 277.311 241.651 278.156 242.261 278.78C242.871 279.403 243.699 279.754 244.562 279.755H438.625C439.488 279.754 440.315 279.403 440.926 278.78C441.536 278.156 441.879 277.311 441.88 276.43V117.186C441.879 116.305 441.536 115.46 440.926 114.837C440.315 114.214 439.488 113.864 438.625 113.863H244.562Z" fill="#2159D1"/>
<path d="M442.127 128.781H241.063V129.283H442.127V128.781Z" fill="#2159D1"/>
<path d="M246.861 118.028L246.514 118.382L253.725 125.743L254.071 125.39L246.861 118.028Z" fill="#2159D1"/>
<path d="M253.743 118.054L246.531 125.414L246.878 125.768L254.089 118.408L253.743 118.054Z" fill="#2159D1"/>
<path d="M265.236 125.809H257.532V117.946H265.234L265.236 125.809ZM258.025 125.307H264.744V118.448H258.025V125.307Z" fill="#2159D1"/>
<path d="M275.69 125.307H267.761V125.809H275.69V125.307Z" fill="#2159D1"/>
<path d="M241.06 205.444H122.054C121.061 205.442 120.108 205.039 119.406 204.322C118.704 203.605 118.308 202.632 118.307 201.618V42.3745C118.308 41.3604 118.704 40.3882 119.406 39.6711C120.108 38.954 121.061 38.5505 122.054 38.5491H316.115C317.109 38.5491 318.063 38.952 318.766 39.6693C319.469 40.3866 319.865 41.3596 319.866 42.3745V113.847H319.376V42.3745C319.374 41.4932 319.031 40.6484 318.42 40.0254C317.81 39.4024 316.982 39.0521 316.119 39.0511H122.054C121.191 39.0521 120.363 39.4025 119.753 40.0256C119.143 40.6486 118.8 41.4934 118.799 42.3745V201.618C118.8 202.5 119.143 203.344 119.753 203.968C120.363 204.591 121.191 204.942 122.054 204.943H241.06V205.444Z" fill="#2159D1"/>
<path d="M319.618 53.969H118.555V54.471H319.618V53.969Z" fill="#2159D1"/>
<path d="M124.352 43.2094L124.005 43.5645L131.215 50.9257L131.563 50.5707L124.352 43.2094Z" fill="#000100"/>
<path d="M131.224 43.222L124.014 50.5833L124.361 50.9383L131.572 43.577L131.224 43.222Z" fill="#000100"/>
<path d="M142.729 50.9977H135.029V43.1346H142.729V50.9977ZM135.519 50.4956H142.239V43.6367H135.519V50.4956Z" fill="#000100"/>
<path d="M153.183 50.4955H145.254V50.9975H153.183V50.4955Z" fill="#000100"/>
<path d="M373.94 89.404C362.839 102.397 353.4 117.427 349.372 134.344C345.646 149.991 346.883 167.559 355.433 181.4C359.462 187.918 365.168 193.621 372.433 196.135C380.61 198.963 389.48 197.549 397.599 195.242C405.045 193.121 412.74 190.603 419.344 186.403C424.25 183.279 429.417 178.635 429.907 172.349C430.409 165.863 425.846 161.094 420.407 158.608C413.852 155.614 406.262 155.027 399.179 154.719C382.597 153.982 365.888 156.986 350.474 163.242C342.774 166.358 335.418 170.293 328.525 174.981C321.824 179.551 315.552 184.899 310.608 191.438C306.196 197.271 302.853 204.166 302.285 211.59C301.765 218.458 303.945 225.089 307.279 230.979C310.778 237.166 315.569 242.733 321.283 246.866C323.952 248.796 326.868 250.424 329.993 251.432C333.536 252.574 337.39 252.989 341.075 253.329C352.474 254.381 365.317 253.018 374.56 245.46C377.351 243.178 379.818 240.276 381.148 236.85C383.226 231.504 381.089 226.309 378.076 221.795C369.95 209.617 355.939 203.057 342.233 199.992C313.072 193.483 281.525 200.253 255.89 215.294C242.829 222.959 231.032 232.92 221.403 244.762C216.381 250.949 211.315 257.775 209.109 265.606C207.145 272.582 208.207 279.882 212.226 285.896C215.862 291.359 221.647 295.354 228.137 296.13C234.673 296.911 241.352 294.502 246.38 290.27C249.123 287.983 251.334 285.102 252.853 281.835C254.371 278.569 255.16 274.999 255.161 271.383C255.178 263.66 251.997 256.101 247.088 250.308C241.8 244.069 234.741 239.701 227.411 236.41C219.446 232.826 211.039 230.222 202.541 228.357C184.831 224.456 166.563 223.839 148.517 224.914C139.497 225.444 130.509 226.422 121.557 227.647C121.401 227.668 121.399 227.919 121.557 227.898C155.322 223.277 191.071 222.082 223.345 234.969C237.909 240.779 252.955 251.149 254.757 268.417C255.557 276.106 253.026 283.619 247.485 288.944C242.489 293.751 235.451 296.635 228.547 295.934C221.539 295.227 215.344 290.754 211.73 284.671C207.685 277.864 207.512 269.981 210.359 262.67C213.302 255.128 218.497 248.464 223.692 242.413C228.409 236.93 233.58 231.872 239.146 227.293C261.434 208.933 289.861 198.093 318.56 197.874C332.603 197.766 347.149 199.976 359.807 206.458C365.99 209.626 371.704 213.894 376.054 219.427C379.747 224.122 383.231 230.125 381.11 236.261C378.331 244.311 369.905 249.206 362.319 251.432C356.086 253.262 349.516 253.665 343.068 253.244C335.73 252.765 328.696 251.595 322.463 247.398C316.546 243.408 311.59 237.826 307.942 231.644C304.461 225.75 302.07 219.038 302.494 212.074C303.462 196.262 316.118 183.827 328.217 175.499C341.521 166.38 356.491 160.094 372.231 157.017C380.099 155.469 388.103 154.753 396.116 154.88C403.243 154.999 410.783 155.444 417.587 157.772C423.845 159.911 430.018 164.522 429.675 171.983C429.358 178.878 423.294 183.827 417.9 186.997C411.32 190.886 403.755 193.329 396.438 195.316C388.336 197.515 379.498 198.685 371.474 195.534C356.314 189.58 348.915 171.377 347.792 155.948C346.58 139.347 351.79 123.128 360.086 109.01C364.144 102.102 368.916 95.6619 374.099 89.595C374.203 89.4748 374.03 89.2962 373.926 89.4182L373.94 89.404Z" fill="#2159D1"/>
<path d="M200.484 172.528C207.19 162.547 212.501 151.193 213.63 139.009C214.636 128.143 212.114 116.599 205.273 108.024C201.827 103.707 197.234 100.115 191.798 98.9853C185.866 97.7478 179.816 99.4396 174.327 101.697C169.357 103.742 164.253 106.044 160.073 109.528C156.882 112.18 153.774 116.058 154.49 120.552C155.207 125.046 159.091 127.586 163.108 128.7C168.106 130.086 173.575 129.856 178.692 129.446C189.937 128.525 200.874 125.242 210.818 119.804C215.827 117.069 220.536 113.795 224.864 110.037C229.12 106.336 233.002 102.082 235.773 97.0955C238.37 92.4446 239.916 87.0882 239.211 81.716C238.605 77.0933 236.235 72.8772 233.378 69.3134C230.284 65.4543 226.4 62.1027 222.005 59.8912C217.479 57.6125 212.646 57.3279 207.666 57.5082C200.127 57.7787 191.859 59.6914 186.339 65.3112C184.661 67.017 183.25 69.0959 182.576 71.4329C181.601 74.8217 182.848 77.9507 184.919 80.6571C191.185 88.8489 201.332 92.7256 211.138 94.0921C221.286 95.4957 231.797 94.4881 241.667 91.8099C251.689 89.0747 261.165 84.5728 269.669 78.5075C278.109 72.4971 285.537 64.9788 291.357 56.3026C294.507 51.6057 297.63 46.4297 298.856 40.8135C299.968 35.7223 298.979 30.6029 295.816 26.4752C293.056 22.8742 288.917 20.311 284.422 19.8761C279.78 19.4288 275.112 21.3345 271.735 24.5483C268.149 27.9636 266.229 32.7419 266.563 37.7482C266.909 42.9967 269.462 47.9552 273.028 51.6782C276.961 55.7847 282.112 58.4628 287.376 60.3225C293.204 62.382 299.324 63.6389 305.441 64.399C318.371 66.0059 331.487 65.1344 344.311 63.0219C350.6 61.986 356.835 60.6443 363.029 59.1204C363.181 59.0833 363.117 58.8411 362.963 58.88C339.241 64.7137 313.573 68.2297 289.767 60.8511C279.579 57.6921 268.92 51.1408 267.011 39.5053C266.569 36.9204 266.744 34.2644 267.523 31.7637C268.302 29.2629 269.662 26.9913 271.486 25.1423C274.918 21.6474 279.84 19.5826 284.711 20.1589C289.582 20.7352 294.003 23.8571 296.609 28.0538C299.578 32.8373 299.609 38.3881 297.803 43.6331C296.044 48.7419 293.068 53.5025 289.975 57.8742C287.046 62.0072 283.759 65.864 280.156 69.3982C265.907 83.3989 246.91 92.4286 227.17 94.1469C217.371 95.0007 207.084 94.2388 197.961 90.2455C193.552 88.3151 189.452 85.575 186.247 81.9052C183.75 79.0467 181.709 75.6013 182.76 71.6892C184.24 66.1756 189.45 62.3961 194.392 60.3756C198.451 58.7227 202.826 57.9767 207.178 57.7787C212.137 57.5542 217.084 57.7593 221.622 59.9813C225.885 62.0691 229.655 65.2422 232.716 68.8997C235.618 72.3698 238.114 76.5347 238.869 81.0973C240.754 92.4888 232.76 102.814 224.817 109.756C216.481 117.039 206.636 122.484 196.157 125.783C191.023 127.402 185.745 128.496 180.399 129.048C175.352 129.566 169.991 129.856 164.978 128.889C160.589 128.04 155.817 125.806 154.802 120.902C153.763 115.869 157.67 111.625 161.309 108.881C165.638 105.613 170.81 103.313 175.82 101.389C181.322 99.2681 187.383 97.9176 193.178 99.604C203.723 102.673 210.3 114.038 212.535 124.34C214.992 135.672 212.902 147.385 208.348 157.878C206.134 162.984 203.365 167.817 200.272 172.418C200.184 172.553 200.395 172.678 200.485 172.545L200.484 172.528Z" fill="#2159D1"/>
<path d="M358.076 194.427C357.015 194.172 355.905 193.955 354.755 193.773C355.893 193.976 356.996 194.192 358.057 194.421L358.076 194.427Z" fill="#EFE6C9"/>
<path d="M354.756 193.769C334.454 190.144 303.068 190.663 303.068 190.663C303.068 190.663 285.351 185.434 269.573 185.303C253.795 185.173 257.186 195.134 257.186 195.134C257.186 195.134 256.188 202.205 271.343 205.399C271.343 205.399 279.495 204.317 286.371 202.316C292.926 200.405 331.831 190.136 354.756 193.769Z" fill="#EFE6C9"/>
<path d="M222.901 214.092C220.217 209.838 200.704 179.21 200.704 179.21L203.102 177.806C203.102 177.806 200.332 172.326 196.481 167.255C192.63 162.183 183.515 160.565 177.383 166.16L194.758 192.974C194.758 192.974 206.382 211.426 210.054 216.839C213.727 222.252 215.548 223.675 222.932 225.948C230.315 228.221 247.693 233.726 247.693 233.726L267.415 240.178C267.415 240.178 240.176 226.408 233.288 223.148C226.4 219.888 225.579 218.347 222.901 214.092Z" fill="#EFE6C9"/>
<path d="M366.936 197.188C364.623 196.092 361.568 195.18 358.059 194.418C349.661 192.742 341.495 193.534 328.536 196.905C315.577 200.276 297.626 206.352 288.83 209.28C280.033 212.207 278.44 212.576 275.769 212.308C273.097 212.039 245.827 208.578 245.827 208.578L242.381 207.761C242.381 207.761 228.31 190.34 221.389 182.443C214.468 174.547 207.684 175.25 203.099 177.805L200.701 179.208C200.701 179.208 220.214 209.836 222.898 214.09C225.581 218.343 226.392 219.879 233.287 223.137C240.182 226.395 267.402 240.169 267.402 240.169C267.402 240.169 275.531 244.412 283.626 243.201C291.721 241.99 296.786 240.793 319.975 238.175C343.164 235.557 360.869 244.799 373.733 257.055C386.596 269.311 456.081 338.526 456.081 338.526L460.544 257.428C405.03 218.527 382.413 204.514 366.936 197.188Z" fill="#EFE6C9"/>
<path d="M288.829 209.276C297.625 206.347 315.566 200.277 328.535 196.902C341.505 193.527 349.66 192.739 358.058 194.415C356.997 194.185 355.894 193.969 354.756 193.766C331.83 190.133 292.926 200.402 286.377 202.309C279.501 204.311 271.349 205.392 271.349 205.392L245.826 208.574C245.826 208.574 273.091 212.037 275.768 212.304C278.445 212.571 280.042 212.211 288.829 209.276Z" fill="#EFE6C9"/>
<path d="M204.473 221.297C202.671 219.72 176.85 198.052 176.85 198.052C176.85 198.052 167.752 196.285 164.92 205.974L204.399 226.701L247.688 233.721C247.688 233.721 215.597 225.276 211.817 224.21C208.037 223.144 206.278 222.872 204.473 221.297Z" fill="#EFE6C9"/>
<path d="M210.051 216.837C206.378 211.426 194.754 192.972 194.754 192.972C194.754 192.972 182.164 182.236 175.276 176.521C168.388 170.806 158.965 172.142 154.725 179.567L176.85 198.047C176.85 198.047 202.671 219.715 204.474 221.291C206.276 222.868 208.037 223.139 211.815 224.205C215.594 225.271 247.686 233.715 247.686 233.715C247.686 233.715 230.313 228.219 222.925 225.937C215.536 223.655 213.723 222.246 210.051 216.837Z" fill="#EFE6C9"/>
<path d="M358.076 195.564C357.015 195.309 355.905 195.093 354.755 194.911C355.893 195.115 356.996 195.33 358.057 195.56L358.076 195.564Z" fill="#598EFF"/>
<path d="M354.757 194.911C334.454 191.286 303.068 191.804 303.068 191.804C303.068 191.804 285.351 186.575 269.573 186.445C253.795 186.316 257.193 196.272 257.193 196.272C257.193 196.272 256.195 203.344 271.35 206.536C271.35 206.536 279.502 205.456 286.378 203.453C292.927 201.547 331.831 191.279 354.757 194.911Z" fill="#598EFF"/>
<path d="M222.901 215.233C220.217 210.98 200.704 180.352 200.704 180.352L203.102 178.938C203.102 178.938 200.332 173.458 196.481 168.388C192.63 163.318 183.515 161.699 177.383 167.293L194.758 194.107C194.758 194.107 206.382 212.559 210.054 217.972C213.727 223.385 215.548 224.809 222.932 227.083C230.315 229.356 247.693 234.861 247.693 234.861L267.415 241.313C267.415 241.313 240.176 227.541 233.288 224.283C226.4 221.025 225.579 219.487 222.901 215.233Z" fill="#598EFF"/>
<path d="M366.936 198.328C364.623 197.234 361.568 196.322 358.059 195.56C349.661 193.884 341.495 194.676 328.536 198.047C315.577 201.418 297.626 207.492 288.83 210.422C280.033 213.351 278.44 213.719 275.769 213.45C273.097 213.181 245.827 209.72 245.827 209.72L242.381 208.903C242.381 208.903 228.31 191.482 221.389 183.583C214.468 175.685 207.684 176.392 203.099 178.945L200.701 180.359C200.701 180.359 220.214 210.98 222.901 215.234C225.588 219.487 226.395 221.023 233.29 224.281C240.185 227.539 267.402 241.312 267.402 241.312C267.402 241.312 275.531 245.554 283.626 244.343C291.721 243.132 296.786 241.936 319.975 239.318C343.164 236.699 360.869 245.941 373.733 258.196C386.596 270.45 456.081 339.668 456.081 339.668L460.544 258.57C405.03 219.667 382.413 205.654 366.936 198.328Z" fill="#598EFF"/>
<path d="M288.829 210.423C297.625 207.492 315.566 201.424 328.535 198.049C341.505 194.674 349.66 193.886 358.058 195.562C356.997 195.332 355.894 195.116 354.756 194.913C331.83 191.28 292.926 201.549 286.377 203.455C279.501 205.458 271.349 206.538 271.349 206.538L245.826 209.72C245.826 209.72 273.091 213.181 275.768 213.45C278.445 213.718 280.042 213.352 288.829 210.423Z" fill="#598EFF"/>
<path style="mix-blend-mode:multiply" d="M267.432 242.306C349.589 226.776 414.338 203.975 412.054 191.379C409.769 178.783 341.316 181.162 259.159 196.692C177.002 212.222 112.252 235.023 114.537 247.619C116.821 260.215 185.275 257.837 267.432 242.306Z" fill="url(#paint0_radial_56326_241418)"/>
<path d="M204.473 222.435C202.671 220.858 176.85 199.191 176.85 199.191C176.85 199.191 167.752 197.423 164.92 207.112L204.399 227.839L247.688 234.859C247.688 234.859 215.595 226.423 211.819 225.349C208.042 224.274 206.278 224.014 204.473 222.435Z" fill="#598EFF"/>
<path d="M210.051 217.977C206.378 212.568 194.754 194.112 194.754 194.112C194.754 194.112 182.164 183.375 175.276 177.661C168.388 171.948 158.965 173.283 154.725 180.706L176.85 199.2C176.85 199.2 202.671 220.867 204.474 222.444C206.276 224.021 208.037 224.292 211.815 225.357C215.594 226.423 247.686 234.868 247.686 234.868C247.686 234.868 230.313 229.37 222.925 227.09C215.536 224.809 213.723 223.388 210.051 217.977Z" fill="#598EFF"/>
<path d="M222.901 214.092C220.217 209.838 200.704 179.21 200.704 179.21L203.102 177.806C203.102 177.806 200.332 172.326 196.481 167.255C192.63 162.183 183.515 160.565 177.383 166.16L194.758 192.974C194.758 192.974 206.382 211.426 210.054 216.839C213.727 222.252 215.548 223.675 222.932 225.948C230.315 228.221 247.693 233.726 247.693 233.726L267.415 240.178C267.415 240.178 240.176 226.408 233.288 223.148C226.4 219.888 225.579 218.347 222.901 214.092Z" fill="#EFE6C9"/>
<path d="M366.936 197.188C364.623 196.092 361.568 195.18 358.059 194.418C349.661 192.742 341.495 193.534 328.536 196.905C315.577 200.276 297.626 206.352 288.83 209.28C280.033 212.207 278.44 212.576 275.769 212.308C273.097 212.039 245.827 208.578 245.827 208.578L242.381 207.761C242.381 207.761 228.31 190.34 221.389 182.443C214.468 174.547 207.684 175.25 203.099 177.805L200.701 179.208C200.701 179.208 220.214 209.836 222.898 214.09C225.581 218.343 226.392 219.879 233.287 223.137C240.182 226.395 267.402 240.169 267.402 240.169C267.402 240.169 275.531 244.412 283.626 243.201C291.721 241.99 296.786 240.793 319.975 238.175C343.164 235.557 360.869 244.799 373.733 257.055C386.596 269.311 456.081 338.526 456.081 338.526L515.251 294.085C459.738 255.184 382.413 204.514 366.936 197.188Z" fill="#EFE6C9"/>
<path d="M204.473 221.297C202.671 219.72 176.85 198.052 176.85 198.052C176.85 198.052 167.752 196.285 164.92 205.974L204.399 226.701L247.688 233.721C247.688 233.721 215.597 225.276 211.817 224.21C208.037 223.144 206.278 222.872 204.473 221.297Z" fill="#EFE6C9"/>
<path d="M210.051 216.837C206.378 211.426 194.754 192.972 194.754 192.972C194.754 192.972 182.164 182.236 175.276 176.521C168.388 170.806 158.965 172.142 154.725 179.567L176.85 198.047C176.85 198.047 202.671 219.715 204.474 221.291C206.276 222.868 208.037 223.139 211.815 224.205C215.594 225.271 247.686 233.715 247.686 233.715C247.686 233.715 230.313 228.219 222.925 225.937C215.536 223.655 213.723 222.246 210.051 216.837Z" fill="#EFE6C9"/>
<path d="M222.901 215.233C220.217 210.98 200.704 180.352 200.704 180.352L203.102 178.938C203.102 178.938 200.332 173.458 196.481 168.388C192.63 163.318 183.515 161.699 177.383 167.293L194.758 194.107C194.758 194.107 206.382 212.559 210.054 217.972C213.727 223.385 215.548 224.809 222.932 227.083C230.315 229.356 247.693 234.861 247.693 234.861L267.415 241.313C267.415 241.313 240.176 227.541 233.288 224.283C226.4 221.025 225.579 219.487 222.901 215.233Z" fill="#598EFF"/>
<path d="M366.936 198.328C364.623 197.234 361.568 196.322 358.059 195.56C349.661 193.884 341.495 194.676 328.536 198.047C315.577 201.418 297.626 207.492 288.83 210.422C280.033 213.351 278.44 213.719 275.769 213.45C273.097 213.181 245.827 209.72 245.827 209.72L242.381 208.903C242.381 208.903 228.31 191.482 221.389 183.583C214.468 175.685 207.684 176.392 203.099 178.945L200.701 180.359C200.701 180.359 220.214 210.98 222.901 215.234C225.588 219.487 226.395 221.023 233.29 224.281C240.185 227.539 267.402 241.312 267.402 241.312C267.402 241.312 275.531 245.554 283.626 244.343C291.721 243.132 296.786 241.936 319.975 239.318C343.164 236.699 360.869 245.941 373.733 258.196C386.596 270.45 456.081 339.668 456.081 339.668L556.25 320.589C500.737 281.686 382.413 205.654 366.936 198.328Z" fill="#598EFF"/>
<path d="M204.473 222.435C202.671 220.858 176.85 199.191 176.85 199.191C176.85 199.191 167.752 197.423 164.92 207.112L204.399 227.839L247.688 234.859C247.688 234.859 215.595 226.423 211.819 225.349C208.042 224.274 206.278 224.014 204.473 222.435Z" fill="#598EFF"/>
<path d="M210.051 217.977C206.378 212.568 194.754 194.112 194.754 194.112C194.754 194.112 182.164 183.375 175.276 177.661C168.388 171.948 158.965 173.283 154.725 180.706L176.85 199.2C176.85 199.2 202.671 220.867 204.474 222.444C206.276 224.021 208.037 224.292 211.815 225.357C215.594 226.423 247.686 234.868 247.686 234.868C247.686 234.868 230.313 229.37 222.925 227.09C215.536 224.809 213.723 223.388 210.051 217.977Z" fill="#598EFF"/>
<path d="M267.4 241.487C267.433 241.486 267.464 241.477 267.491 241.459C267.518 241.442 267.54 241.417 267.555 241.388C267.574 241.346 267.577 241.298 267.562 241.255C267.547 241.211 267.517 241.175 267.477 241.154C267.267 241.048 246.494 230.604 236.338 225.57C227.211 221.042 226.468 219.996 224.022 216.524C223.729 216.109 223.397 215.64 223.026 215.129C219.646 210.477 201.025 180.561 200.838 180.258C200.811 180.225 200.774 180.202 200.732 180.195C200.69 180.188 200.647 180.197 200.611 180.22C200.575 180.243 200.549 180.279 200.537 180.32C200.525 180.362 200.529 180.407 200.547 180.446C200.734 180.748 219.362 210.675 222.751 215.338C223.118 215.845 223.443 216.315 223.743 216.729C226.233 220.256 226.985 221.325 236.188 225.884C246.343 230.921 267.115 241.363 267.324 241.469C267.348 241.481 267.374 241.487 267.4 241.487Z" fill="#2159D1"/>
<path d="M247.685 235.036C247.731 235.043 247.777 235.03 247.815 235.002C247.852 234.974 247.876 234.931 247.883 234.885C247.89 234.838 247.878 234.79 247.85 234.752C247.822 234.714 247.781 234.689 247.735 234.682C247.577 234.633 231.89 229.69 222.974 226.904C215.062 224.429 213.518 222.347 211.179 219.184C210.865 218.758 210.54 218.32 210.181 217.853C207.956 214.959 203.601 207.954 199.388 201.192C197.787 198.616 196.272 196.184 194.895 194.004C194.87 193.965 194.831 193.937 194.786 193.927C194.742 193.917 194.695 193.926 194.656 193.951C194.618 193.977 194.592 194.016 194.583 194.062C194.573 194.107 194.582 194.154 194.606 194.193C195.991 196.373 197.498 198.805 199.099 201.379C203.316 208.155 207.676 215.168 209.911 218.071C210.268 218.534 210.592 218.972 210.905 219.395C213.282 222.614 214.855 224.74 222.873 227.24C231.786 230.017 247.473 234.962 247.635 235.018C247.65 235.027 247.667 235.033 247.685 235.036V235.036Z" fill="#2159D1"/>
<path d="M244.777 234.076C244.823 234.082 244.869 234.068 244.906 234.039C244.942 234.01 244.965 233.967 244.971 233.92C244.976 233.874 244.963 233.826 244.935 233.789C244.906 233.752 244.864 233.728 244.819 233.722C244.531 233.648 215.971 226.284 210.397 224.769C205.803 223.519 204.856 222.669 202.546 220.614C202.048 220.171 201.483 219.667 200.815 219.094C197.762 216.504 190.318 210.255 182.438 203.642L176.965 199.046C176.948 199.027 176.927 199.013 176.904 199.003C176.882 198.993 176.857 198.989 176.832 198.989C176.808 198.99 176.784 198.996 176.761 199.007C176.739 199.019 176.72 199.034 176.704 199.054C176.688 199.073 176.677 199.096 176.67 199.12C176.664 199.145 176.663 199.17 176.667 199.195C176.671 199.22 176.68 199.244 176.694 199.264C176.707 199.285 176.725 199.303 176.746 199.316L182.22 203.913C190.1 210.526 197.542 216.773 200.595 219.363C201.268 219.934 201.831 220.434 202.326 220.878C204.605 222.909 205.644 223.835 210.316 225.106C215.891 226.621 244.453 233.988 244.742 234.062L244.777 234.076Z" fill="#2159D1"/>
<path d="M271.37 206.66L271.331 206.414C280.71 204.791 288.705 202.91 295.288 201.288C296.462 200.996 297.628 200.697 298.751 200.404C305.368 198.705 312.209 196.948 328.085 194.982L328.115 195.229C312.254 197.195 305.42 198.942 298.81 200.646C297.685 200.936 296.519 201.235 295.347 201.53C288.759 203.156 280.759 205.033 271.37 206.66Z" fill="#2159D1"/>
<path d="M438.625 280.255H327.712V279.755H438.625C439.488 279.753 440.315 279.403 440.926 278.779C441.536 278.156 441.879 277.311 441.88 276.43V196.808H442.37V276.43C442.369 277.444 441.974 278.416 441.272 279.133C440.57 279.85 439.618 280.254 438.625 280.255V280.255Z" fill="#113FA1"/>
<path d="M136.495 105.94C137.558 106.194 138.668 106.412 139.816 106.594C138.679 106.391 137.576 106.175 136.514 105.943L136.495 105.94Z" fill="#EFE6C9"/>
<path d="M139.817 106.594C160.12 110.219 191.506 109.7 191.506 109.7C191.506 109.7 209.219 114.929 225.002 115.054C240.785 115.18 237.383 105.227 237.383 105.227C237.383 105.227 238.379 98.1563 223.224 94.9619C223.224 94.9619 215.072 96.0438 208.196 98.0449C201.647 99.9576 162.745 110.227 139.817 106.594Z" fill="#EFE6C9"/>
<path d="M271.68 86.2718C274.362 90.5251 293.875 121.153 293.875 121.153L291.47 122.557C291.47 122.557 294.24 128.037 298.093 133.107C301.945 138.177 311.057 139.798 317.19 134.203L299.821 107.39C299.821 107.39 288.197 88.9376 284.524 83.5247C280.852 78.1118 279.032 76.6888 271.647 74.4154C264.262 72.1421 246.886 66.6373 246.886 66.6373L227.164 60.1849C227.164 60.1849 254.415 73.9647 261.296 77.2244C268.177 80.4842 268.996 82.0168 271.68 86.2718Z" fill="#EFE6C9"/>
<path d="M127.64 103.175C129.954 104.271 133.008 105.183 136.516 105.944C144.914 107.621 153.08 106.827 166.039 103.458C178.998 100.089 196.949 94.0111 205.745 91.0837C214.541 88.1563 216.134 87.7868 218.808 88.0555C221.481 88.3242 248.748 91.7855 248.748 91.7855L252.194 92.6022C252.194 92.6022 266.264 110.024 273.187 117.92C280.11 125.817 286.89 125.113 291.476 122.559L293.874 121.155C293.874 121.155 274.361 90.5251 271.679 86.2718C268.997 82.0186 268.183 80.4824 261.29 77.2227C254.396 73.9629 227.161 60.1938 227.161 60.1938C227.161 60.1938 219.023 55.9512 210.936 57.1621C202.85 58.373 197.776 59.5698 174.589 62.1878C151.402 64.8059 133.694 55.564 120.832 43.3081C107.97 31.0522 38.4899 -38.1628 38.4899 -38.1628L-2.33504 18.4727C53.1852 57.3794 112.162 95.8496 127.64 103.175Z" fill="#EFE6C9"/>
<path d="M205.745 91.0819C196.948 94.0111 179.008 100.082 166.039 103.456C153.069 106.831 144.914 107.619 136.516 105.942C137.577 106.173 138.68 106.389 139.818 106.592C162.745 110.225 201.648 99.9561 208.196 98.0487C215.072 96.0476 223.224 94.9657 223.224 94.9657L248.747 91.7837C248.747 91.7837 221.484 88.3207 218.807 88.0537C216.13 87.7868 214.541 88.151 205.745 91.0819Z" fill="#EFE6C9"/>
<path d="M290.103 79.07C291.904 80.6468 317.725 102.314 317.725 102.314C317.725 102.314 326.822 104.082 329.655 94.3929L290.176 73.6659L246.887 66.6461C246.887 66.6461 278.978 75.0907 282.758 76.1567C286.538 77.2227 288.3 77.4914 290.103 79.07Z" fill="#EFE6C9"/>
<path d="M284.523 83.5264C288.196 88.9375 299.82 107.391 299.82 107.391C299.82 107.391 312.41 118.127 319.298 123.842C326.186 129.557 335.609 128.221 339.85 120.796L317.724 102.314C317.724 102.314 291.903 80.6467 290.102 79.0698C288.301 77.493 286.539 77.2243 282.759 76.1636C278.979 75.103 246.888 66.6531 246.888 66.6531C246.888 66.6531 264.261 72.1491 271.649 74.4312C279.038 76.7134 280.851 78.117 284.523 83.5264Z" fill="#EFE6C9"/>
<path d="M136.495 104.801C137.558 105.056 138.668 105.272 139.816 105.454C138.679 105.25 137.576 105.035 136.514 104.805L136.495 104.801Z" fill="#FA3F35"/>
<path d="M139.817 105.452C160.12 109.078 191.506 108.56 191.506 108.56C191.506 108.56 209.223 113.789 225.002 113.918C240.782 114.047 237.383 104.091 237.383 104.091C237.383 104.091 238.379 97.0197 223.224 93.8271C223.224 93.8271 215.072 94.9073 208.196 96.9101C201.647 98.8158 162.745 109.085 139.817 105.452Z" fill="#336BE3"/>
<path d="M271.68 85.1298C274.362 89.383 293.875 120.004 293.875 120.004L291.47 121.418C291.47 121.418 294.24 126.899 298.093 131.968C301.945 137.038 311.057 138.658 317.19 133.063L299.821 106.248C299.821 106.248 288.197 87.7956 284.524 82.3827C280.852 76.9698 279.032 75.545 271.647 73.2716C264.262 70.9983 246.886 65.4935 246.886 65.4935L227.164 59.0411C227.164 59.0411 254.404 72.812 261.292 76.0718C268.18 79.3315 268.996 80.8766 271.68 85.1298Z" fill="#FA3F35"/>
<path d="M127.639 102.035C129.952 103.129 133.007 104.041 136.515 104.803C144.913 106.479 153.079 105.687 166.038 102.316C178.997 98.9448 196.948 92.8708 205.744 89.9416C214.54 87.0124 216.133 86.6447 218.807 86.9134C221.48 87.1821 248.747 90.6434 248.747 90.6434L252.193 91.4601C252.193 91.4601 266.263 108.881 273.186 116.78C280.108 124.678 286.889 123.969 291.467 121.418L293.866 120.004C293.866 120.004 274.36 89.383 271.678 85.1298C268.995 80.8765 268.182 79.3403 261.288 76.0823C254.395 72.8244 227.16 59.0517 227.16 59.0517C227.16 59.0517 219.021 54.8091 210.935 56.02C202.849 57.2309 197.775 58.4277 174.588 61.0457C151.401 63.6638 133.698 54.4202 120.836 42.1678C107.974 29.9154 38.4887 -39.3049 38.4887 -39.3049L34.0265 41.793C89.5433 80.6962 112.161 94.7093 127.639 102.035Z" fill="#FA3F35"/>
<path d="M205.745 89.94C196.948 92.871 179.008 98.9397 166.039 102.314C153.069 105.689 144.914 106.477 136.516 104.802C137.577 105.031 138.68 105.247 139.818 105.45C162.745 109.083 201.648 98.8142 208.196 96.9085C215.072 94.9057 223.224 93.8256 223.224 93.8256L248.747 90.6436C248.747 90.6436 221.484 87.1805 218.807 86.9136C216.13 86.6467 214.541 87.0108 205.745 89.94Z" fill="#336BE3"/>
<path d="M290.103 77.9314C291.904 79.5083 317.725 101.176 317.725 101.176C317.725 101.176 326.822 102.944 329.655 93.2544L290.176 72.5274L246.887 65.5076C246.887 65.5076 278.978 73.9522 282.758 75.0181C286.538 76.0841 288.3 76.3493 290.103 77.9314Z" fill="#FA3F35"/>
<path d="M284.523 82.3862C288.196 87.7955 299.82 106.251 299.82 106.251C299.82 106.251 312.41 116.988 319.298 122.702C326.186 128.415 335.609 127.075 339.85 119.651L317.724 101.172C317.724 101.172 291.903 79.5047 290.102 77.9314C288.301 76.3581 286.539 76.0841 282.759 75.0181C278.979 73.9522 246.888 65.5076 246.888 65.5076C246.888 65.5076 264.261 71.0053 271.649 73.2857C279.038 75.5661 280.851 76.9751 284.523 82.3862Z" fill="#FA3F35"/>
<path d="M271.68 86.2718C274.362 90.5251 293.875 121.153 293.875 121.153L291.47 122.557C291.47 122.557 294.24 128.037 298.093 133.107C301.945 138.177 311.057 139.798 317.19 134.203L299.821 107.39C299.821 107.39 288.197 88.9376 284.524 83.5247C280.852 78.1118 279.032 76.6888 271.647 74.4154C264.262 72.1421 246.886 66.6373 246.886 66.6373L227.164 60.1849C227.164 60.1849 254.415 73.9647 261.296 77.2244C268.177 80.4842 268.996 82.0168 271.68 86.2718Z" fill="#EFE6C9"/>
<path d="M290.103 79.07C291.904 80.6468 317.725 102.314 317.725 102.314C317.725 102.314 326.822 104.082 329.655 94.3929L290.176 73.6659L246.887 66.6461C246.887 66.6461 278.978 75.0907 282.758 76.1567C286.538 77.2227 288.3 77.4914 290.103 79.07Z" fill="#EFE6C9"/>
<path d="M284.523 83.5264C288.196 88.9375 299.82 107.391 299.82 107.391C299.82 107.391 312.41 118.127 319.298 123.842C326.186 129.557 335.609 128.221 339.85 120.796L317.724 102.314C317.724 102.314 291.903 80.6467 290.102 79.0698C288.301 77.493 286.539 77.2243 282.759 76.1636C278.979 75.103 246.888 66.6531 246.888 66.6531C246.888 66.6531 264.261 72.1491 271.649 74.4312C279.038 76.7134 280.851 78.117 284.523 83.5264Z" fill="#EFE6C9"/>
<path d="M271.68 85.1298C274.362 89.383 293.875 120.004 293.875 120.004L291.47 121.418C291.47 121.418 294.24 126.899 298.093 131.968C301.945 137.038 311.057 138.658 317.19 133.063L299.821 106.248C299.821 106.248 288.197 87.7956 284.524 82.3827C280.852 76.9698 279.032 75.545 271.647 73.2716C264.262 70.9983 246.886 65.4935 246.886 65.4935L227.164 59.0411C227.164 59.0411 254.404 72.812 261.292 76.0718C268.18 79.3315 268.996 80.8766 271.68 85.1298Z" fill="#336BE3"/>
<path d="M127.639 102.035C129.952 103.129 133.007 104.041 136.515 104.803C144.913 106.479 153.079 105.687 166.038 102.316C178.997 98.945 196.948 92.8709 205.744 89.9417C214.54 87.0126 216.133 86.6449 218.807 86.9136C221.48 87.1823 248.747 90.6435 248.747 90.6435L252.193 91.4603C252.193 91.4603 266.263 108.882 273.186 116.78C280.108 124.678 286.889 123.969 291.467 121.419L293.866 120.004C293.866 120.004 274.36 89.3831 271.678 85.1299C268.995 80.8766 268.182 79.3405 261.288 76.0825C254.395 72.8245 227.16 59.0518 227.16 59.0518C227.16 59.0518 219.021 54.8092 210.935 56.0201C202.849 57.231 197.775 58.4278 174.588 61.0459C151.401 63.6639 133.698 54.4203 120.836 42.1679C107.974 29.9155 38.4887 -39.3048 38.4887 -39.3048L-35.6049 -5.36288C19.9119 33.5403 106.813 93.555 127.639 102.035Z" fill="#336BE3"/>
<path d="M290.103 77.9314C291.904 79.5083 317.725 101.176 317.725 101.176C317.725 101.176 326.822 102.944 329.655 93.2544L290.176 72.5274L246.887 65.5076C246.887 65.5076 278.978 73.9522 282.758 75.0181C286.538 76.0841 288.3 76.3493 290.103 77.9314Z" fill="#336BE3"/>
<path d="M284.523 82.3862C288.196 87.7955 299.82 106.251 299.82 106.251C299.82 106.251 312.41 116.988 319.298 122.702C326.186 128.415 335.609 127.075 339.85 119.651L317.724 101.172C317.724 101.172 291.903 79.5047 290.102 77.9314C288.301 76.3581 286.539 76.0841 282.759 75.0181C278.979 73.9522 246.888 65.5076 246.888 65.5076C246.888 65.5076 264.261 71.0053 271.649 73.2857C279.038 75.5661 280.851 76.9751 284.523 82.3862Z" fill="#336BE3"/>
<path d="M227.167 58.8767C227.135 58.8766 227.103 58.8859 227.076 58.9034C227.048 58.9209 227.026 58.946 227.012 58.9757C226.992 59.0175 226.99 59.0653 227.005 59.1089C227.02 59.1526 227.051 59.1885 227.091 59.209C227.299 59.3151 248.072 69.7591 258.228 74.7937C267.355 79.3209 268.098 80.3674 270.544 83.8393C270.837 84.2547 271.171 84.7232 271.54 85.2341C274.922 89.8868 293.541 119.803 293.73 120.105C293.74 120.128 293.755 120.149 293.773 120.166C293.792 120.183 293.814 120.195 293.838 120.203C293.862 120.21 293.887 120.212 293.911 120.209C293.936 120.205 293.96 120.196 293.981 120.183C294.002 120.169 294.02 120.151 294.033 120.13C294.047 120.108 294.056 120.084 294.059 120.059C294.063 120.034 294.061 120.008 294.054 119.984C294.047 119.959 294.035 119.937 294.019 119.918C293.832 119.615 275.204 89.6888 271.815 85.0255C271.448 84.5181 271.123 84.0479 270.823 83.6342C268.333 80.0987 267.583 79.0381 258.378 74.479C248.223 69.4426 227.451 59.0005 227.242 58.8944C227.219 58.8829 227.193 58.8769 227.167 58.8767Z" fill="#FFF1D0"/>
<path d="M246.889 65.3273C246.848 65.3282 246.809 65.3438 246.778 65.3714C246.748 65.399 246.728 65.4367 246.722 65.478C246.716 65.5193 246.724 65.5614 246.746 65.5969C246.767 65.6324 246.8 65.659 246.839 65.672C246.997 65.7215 262.684 70.6642 271.6 73.4501C279.513 75.9162 281.058 78.0074 283.395 81.17C283.709 81.596 284.034 82.0344 284.393 82.5011C286.618 85.3949 290.973 92.4006 295.185 99.1623C296.787 101.738 298.302 104.17 299.687 106.35C299.698 106.373 299.713 106.393 299.732 106.409C299.751 106.425 299.773 106.438 299.796 106.444C299.82 106.451 299.845 106.453 299.869 106.449C299.893 106.446 299.917 106.437 299.937 106.423C299.958 106.41 299.976 106.392 299.989 106.371C300.003 106.35 300.012 106.326 300.015 106.301C300.019 106.276 300.017 106.251 300.011 106.227C300.004 106.203 299.992 106.18 299.977 106.161C298.591 103.979 297.083 101.549 295.475 98.9749C291.258 92.199 286.898 85.1863 284.663 82.2837C284.308 81.8205 283.982 81.3821 283.669 80.9578C281.292 77.7405 279.719 75.6139 271.701 73.1143C262.79 70.3371 247.1 65.3927 246.939 65.3361C246.923 65.3306 246.906 65.3277 246.889 65.3273V65.3273Z" fill="#FFF1D0"/>
<path d="M249.796 66.287C249.75 66.2814 249.704 66.2946 249.667 66.3238C249.631 66.353 249.607 66.3957 249.602 66.4426C249.596 66.4895 249.609 66.5367 249.638 66.5738C249.666 66.6109 249.708 66.635 249.754 66.6406C250.041 66.7148 278.602 74.0793 284.175 75.5943C288.769 76.8441 289.716 77.6944 292.026 79.7486C292.525 80.1923 293.09 80.6961 293.758 81.2688C296.812 83.8586 304.254 90.1077 312.135 96.7209L317.608 101.317C317.644 101.346 317.689 101.36 317.734 101.356C317.78 101.351 317.821 101.328 317.851 101.292C317.879 101.256 317.892 101.21 317.887 101.164C317.883 101.118 317.861 101.076 317.826 101.047L312.353 96.4504C304.473 89.8372 297.031 83.5899 293.978 81.0001C293.306 80.4291 292.743 79.9289 292.246 79.4852C289.968 77.454 288.929 76.5277 284.259 75.2567C278.681 73.7417 250.119 66.3754 249.83 66.3012C249.819 66.2952 249.808 66.2905 249.796 66.287V66.287Z" fill="#FFF1D0"/>
<path d="M166.489 105.378L166.459 105.128C182.32 103.164 189.153 101.416 195.762 99.7138C196.888 99.4239 198.053 99.1251 199.225 98.8299C205.805 97.2018 213.812 95.3209 223.2 93.7034L223.242 93.9491C213.86 95.5719 205.866 97.4528 199.282 99.0756C198.108 99.3673 196.945 99.666 195.819 99.9595C189.207 101.655 182.365 103.412 166.489 105.378Z" fill="#2159D1"/>
<path d="M276.925 184.915C263.753 184.915 253.03 173.974 253.03 160.519C253.03 147.065 263.748 136.124 276.925 136.124C290.102 136.124 300.821 147.065 300.821 160.519C300.821 173.974 290.094 184.915 276.925 184.915ZM276.925 136.637C264.024 136.637 253.527 147.353 253.527 160.525C253.527 173.696 264.024 184.414 276.925 184.414C289.827 184.414 300.325 173.698 300.325 160.525C300.325 147.351 289.824 136.637 276.925 136.637Z" fill="#2159D1"/>
<path d="M293.638 176.709C302.872 167.282 302.872 151.998 293.638 142.571C284.405 133.144 269.434 133.144 260.2 142.571C250.967 151.998 250.967 167.282 260.2 176.709C269.434 186.135 284.405 186.135 293.638 176.709Z" fill="#FFBC00"/>
<path d="M276.923 181.259C271.309 181.252 265.926 178.972 261.957 174.919C257.987 170.866 255.754 165.371 255.748 159.639H256.238C256.238 165.24 258.417 170.611 262.296 174.571C266.176 178.532 271.437 180.757 276.923 180.757C282.409 180.757 287.67 178.532 291.55 174.571C295.429 170.611 297.608 165.24 297.608 159.639H298.1C298.094 165.371 295.861 170.866 291.891 174.92C287.921 178.973 282.538 181.253 276.923 181.259V181.259Z" fill="#FFF9E2"/>
<path d="M298.096 159.639H297.605C297.605 154.038 295.425 148.667 291.546 144.707C287.667 140.746 282.406 138.521 276.92 138.521C271.434 138.521 266.172 140.746 262.293 144.707C258.414 148.667 256.235 154.038 256.235 159.639H255.745C255.795 153.939 258.048 148.49 262.014 144.478C265.98 140.466 271.337 138.215 276.92 138.215C282.504 138.215 287.861 140.466 291.827 144.478C295.793 148.49 298.046 153.939 298.096 159.639V159.639Z" fill="#CD9D3D"/>
<path d="M118.799 149.446H118.307V53.969H167.874V54.471H118.799V149.446Z" fill="#2159D1"/>
<path d="M319.148 172.215L315.204 168.195C315.122 168.112 314.99 168.112 314.908 168.195L310.964 172.215C310.882 172.298 310.882 172.433 310.964 172.516L314.908 176.536C314.99 176.619 315.122 176.619 315.204 176.536L319.148 172.516C319.23 172.433 319.23 172.298 319.148 172.215Z" fill="#FFE39D"/>
<path d="M324.573 145.69L320.628 141.67C320.547 141.587 320.414 141.587 320.333 141.67L316.389 145.69C316.307 145.773 316.307 145.908 316.389 145.991L320.333 150.011C320.414 150.094 320.547 150.094 320.628 150.011L324.573 145.991C324.654 145.908 324.654 145.773 324.573 145.69Z" fill="#FFE39D"/>
<path d="M310.78 158.854L307.713 155.728L304.646 158.854L307.713 161.98L310.78 158.854Z" fill="#FFE39D"/>
<path d="M238.313 176.732L235.542 173.908C235.46 173.825 235.328 173.825 235.246 173.908L232.475 176.732C232.393 176.816 232.393 176.95 232.475 177.034L235.246 179.858C235.328 179.941 235.46 179.941 235.542 179.858L238.313 177.034C238.395 176.95 238.395 176.816 238.313 176.732Z" fill="#FFE39D"/>
<path d="M235.325 140.575L231.221 136.392C231.139 136.309 231.007 136.309 230.925 136.392L226.821 140.575C226.739 140.658 226.739 140.793 226.821 140.876L230.925 145.059C231.007 145.142 231.139 145.142 231.221 145.059L235.325 140.876C235.406 140.793 235.406 140.658 235.325 140.575Z" fill="#FFE39D"/>
<path d="M257.546 158.937L252.068 153.354C251.987 153.271 251.854 153.271 251.773 153.354L246.295 158.937C246.213 159.02 246.213 159.155 246.295 159.238L251.773 164.821C251.854 164.904 251.987 164.904 252.068 164.821L257.546 159.238C257.628 159.155 257.628 159.02 257.546 158.937Z" fill="#FFE39D"/>
<path d="M283.315 159.396C283.187 159.323 283.051 159.258 282.911 159.196C284.433 158.205 285.062 157.075 285.111 154.923C285.111 154.83 285.111 154.741 285.111 154.638C285.127 153.827 285.005 153.02 284.751 152.253C284.535 151.621 284.173 151.051 283.697 150.595C282.895 149.836 281.766 149.406 280.32 149.247V146.617H277.607V149.17H276.373V146.617H273.66V149.17H268.885V152.714H271.039V166.286H268.885V169.83H273.66V172.383H276.373V169.83H277.619V172.383H280.332V169.757C283.492 169.394 285.423 167.623 285.499 164.099C285.499 164.036 285.499 163.972 285.499 163.905C285.502 161.455 284.756 160.185 283.315 159.396ZM281.001 155.184C281.001 155.266 281.001 155.345 281.001 155.422C280.936 156.908 280.225 157.677 278.718 157.677H275.102V152.756H278.689C280.205 152.756 281.001 153.484 281.001 155.184ZM281.376 163.954C281.301 165.769 280.399 166.246 278.796 166.246H275.091V161.201H278.796C280.411 161.201 281.384 161.991 281.384 163.693C281.384 163.783 281.38 163.871 281.376 163.954Z" fill="#FFF1D0"/>
<path d="M283.315 158.608C283.187 158.537 283.051 158.47 282.911 158.409C284.433 157.42 285.062 156.287 285.111 154.135C285.111 154.043 285.111 153.954 285.111 153.85C285.127 153.04 285.005 152.233 284.751 151.466C284.535 150.833 284.174 150.265 283.697 149.809C282.895 149.049 281.766 148.621 280.32 148.459V145.83H277.607V148.39H276.373V145.83H273.66V148.39H268.885V151.934H271.039V165.507H268.885V169.051H273.66V171.604H276.373V169.051H277.619V171.604H280.332V168.977C283.492 168.614 285.423 166.845 285.499 163.321C285.499 163.257 285.499 163.192 285.499 163.127C285.502 160.666 284.756 159.39 283.315 158.608ZM281.001 154.398C281.001 154.478 281.001 154.56 281.001 154.634C280.936 156.122 280.225 156.892 278.718 156.892H275.102V151.969H278.689C280.205 151.969 281.001 152.698 281.001 154.398V154.398ZM281.376 163.167C281.301 164.981 280.399 165.458 278.796 165.458H275.091V160.416H278.796C280.411 160.416 281.384 161.203 281.384 162.905C281.384 162.996 281.38 163.088 281.376 163.167V163.167Z" fill="#CD9D3D"/>
</g>
<defs>
<radialGradient id="paint0_radial_56326_241418" cx="0" cy="0" r="1" gradientUnits="userSpaceOnUse" gradientTransform="translate(263.418 219.363) rotate(-10.7044) scale(151.438 23.1584)">
<stop stop-color="#D5B582"/>
<stop offset="0.03" stop-color="#D7B988"/>
<stop offset="0.25" stop-color="#E5D2B3"/>
<stop offset="0.46" stop-color="#F1E5D4"/>
<stop offset="0.66" stop-color="#F9F4EC"/>
<stop offset="0.84" stop-color="#FDFCFA"/>
<stop offset="1" stop-color="white"/>
</radialGradient>
</defs>
</svg>
