<svg width="16" height="16" viewBox="0 0 16 16" fill="none" xmlns="http://www.w3.org/2000/svg">
<path fill-rule="evenodd" clip-rule="evenodd" d="M6.00033 2.00016C6.00033 1.63197 6.2988 1.3335 6.66699 1.3335H9.33366C9.70185 1.3335 10.0003 1.63197 10.0003 2.00016H11.3337C12.4382 2.00016 13.3337 2.89559 13.3337 4.00016H2.66699C2.66699 2.89559 3.56242 2.00016 4.66699 2.00016H6.00033ZM12.667 4.66683H3.33366V12.6668C3.33366 13.7714 4.22909 14.6668 5.33366 14.6668H10.667C11.7716 14.6668 12.667 13.7714 12.667 12.6668V4.66683ZM5.33366 6.66683C4.96547 6.66683 4.66699 6.96531 4.66699 7.3335V12.0002C4.66699 12.3684 4.96547 12.6668 5.33366 12.6668C5.70185 12.6668 6.00033 12.3684 6.00033 12.0002V7.3335C6.00033 6.96531 5.70185 6.66683 5.33366 6.66683ZM10.667 6.66683C10.2988 6.66683 10.0003 6.96531 10.0003 7.3335V12.0002C10.0003 12.3684 10.2988 12.6668 10.667 12.6668C11.0352 12.6668 11.3337 12.3684 11.3337 12.0002V7.3335C11.3337 6.96531 11.0352 6.66683 10.667 6.66683ZM7.33366 7.3335C7.33366 6.96531 7.63214 6.66683 8.00033 6.66683C8.36852 6.66683 8.66699 6.96531 8.66699 7.3335V12.0002C8.66699 12.3684 8.36852 12.6668 8.00033 12.6668C7.63214 12.6668 7.33366 12.3684 7.33366 12.0002V7.3335Z" fill="#717680"/>
</svg>
