<svg width="24" height="24" viewBox="0 0 24 24" fill="none" xmlns="http://www.w3.org/2000/svg">
<rect y="4" width="24" height="16" rx="2" fill="#113FA1"/>
<path fill-rule="evenodd" clip-rule="evenodd" d="M14.283 10.2143C14.7882 10.2061 15.1544 10.3194 15.4388 10.4367L15.5783 10.504L15.7872 9.24407C15.4813 9.12632 15.0019 9 14.4037 9C12.8777 9 11.8021 9.78845 11.7937 10.9184C11.7838 11.7533 12.5599 12.2194 13.1462 12.4977C13.748 12.783 13.9497 12.9643 13.947 13.2189C13.9422 13.6081 13.4671 13.7866 13.0235 13.7866C12.405 13.7866 12.0765 13.6989 11.5693 13.4822L11.3703 13.3893L11.153 14.6903C11.5145 14.8529 12.1814 14.9927 12.8737 15C14.4971 15 15.552 14.2209 15.5632 13.0136C15.5699 12.3531 15.158 11.849 14.2655 11.4355C13.7253 11.1657 13.3948 10.9864 13.398 10.7142C13.398 10.4726 13.6784 10.2143 14.283 10.2143ZM4.4142 9.05012C4.73712 9.06275 4.99729 9.16829 5.08706 9.52238L5.60779 12.0903C5.0962 10.7468 3.86328 9.62954 2 9.16584L2.01986 9.05012H4.4142ZM9.60771 9.09982L8.64211 14.9128H10.1864L11.1528 9.09982H9.60771ZM7.34716 9.10636L5.83461 13.0706L5.67334 12.4721C5.37504 11.7508 4.52821 10.715 3.53401 10.0623L4.91707 14.91L6.55116 14.9071L8.98323 9.10513L7.34716 9.10636ZM18.5571 9.10634H19.7503L20.9999 14.916H19.5672C19.5672 14.916 19.425 14.2482 19.3789 14.0453C19.2601 14.0453 18.7628 14.0446 18.2947 14.044C17.8782 14.0434 17.4848 14.0428 17.4012 14.0428C17.3412 14.1997 17.0767 14.916 17.0767 14.916H15.4549L17.748 9.58878C17.9108 9.20984 18.1865 9.10634 18.5571 9.10634ZM18.461 11.2284C18.461 11.2284 17.9728 12.5193 17.8457 12.853H19.1287L18.7708 11.1747L18.6667 10.6735C18.6277 10.7805 18.5756 10.9194 18.5335 11.0316C18.4896 11.1487 18.4567 11.2366 18.461 11.2284Z" fill="#FEFEFE"/>
</svg>
