<svg width="68" height="68" viewBox="0 0 68 68" fill="none" xmlns="http://www.w3.org/2000/svg">
<path d="M34.0013 0.666748C15.6013 0.666748 0.667969 15.6001 0.667969 34.0001C0.667969 52.4001 15.6013 67.3334 34.0013 67.3334C52.4013 67.3334 67.3346 52.4001 67.3346 34.0001C67.3346 15.6001 52.4013 0.666748 34.0013 0.666748ZM34.0013 50.6668C32.168 50.6668 30.668 49.1668 30.668 47.3334V34.0001C30.668 32.1667 32.168 30.6667 34.0013 30.6667C35.8346 30.6667 37.3346 32.1667 37.3346 34.0001V47.3334C37.3346 49.1668 35.8346 50.6668 34.0013 50.6668ZM37.3346 20.6667C37.3346 22.5077 35.8423 24.0001 34.0013 24.0001C32.1604 24.0001 30.668 22.5077 30.668 20.6667C30.668 18.8258 32.1604 17.3334 34.0013 17.3334C35.8423 17.3334 37.3346 18.8258 37.3346 20.6667Z" fill="#DB8C09"/>
</svg>
