<svg width="16" height="16" viewBox="0 0 16 16" fill="none" xmlns="http://www.w3.org/2000/svg">
<path fill-rule="evenodd" clip-rule="evenodd" d="M0 1C0 0.447715 0.447715 0 1 0H15C15.5523 0 16 0.447715 16 1V5C16 5.55228 15.5523 6 15 6H14V2H2V6H1C0.447715 6 0 5.55228 0 5V1ZM3 3H13V16H3V3ZM7 6.5V11H6.20711C5.76165 11 5.53857 11.5386 5.85355 11.8536L7.64645 13.6464C7.84171 13.8417 8.15829 13.8417 8.35355 13.6464L10.1464 11.8536C10.4614 11.5386 10.2383 11 9.79289 11H9V6.5C9 6.22386 8.77614 6 8.5 6H7.5C7.22386 6 7 6.22386 7 6.5Z" fill="white"/>
</svg>
