<svg viewBox="0 0 24 24" fill="none" xmlns="http://www.w3.org/2000/svg">
<path fill-rule="evenodd" clip-rule="evenodd" d="M2 5C2 3.89543 2.89543 3 4 3H20C21.1046 3 22 3.89543 22 5V9C22 10.1046 21.1046 11 20 11H19V7C19 6.44772 18.5523 6 18 6H6C5.44772 6 5 6.44772 5 7V11H4C2.89543 11 2 10.1046 2 9V5ZM6 7H18V19C18 20.1046 17.1046 21 16 21H8C6.89543 21 6 20.1046 6 19V7ZM11.0002 17.79V12.79H9.21018C8.76018 12.79 8.54018 12.25 8.85018 11.94L11.6402 9.15C11.8402 8.95 12.1502 8.95 12.3502 9.15L15.1402 11.94C15.4602 12.25 15.2402 12.79 14.7902 12.79H13.0002V17.79C13.0002 18.34 12.5502 18.79 12.0002 18.79C11.4502 18.79 11.0002 18.34 11.0002 17.79Z" fill="currentColor"/>
</svg>
