<svg viewBox="0 0 24 24" fill="none" xmlns="http://www.w3.org/2000/svg">
<path fill-rule="evenodd" clip-rule="evenodd" d="M4 4C2.89543 4 2 4.89543 2 6V18C2 19.1046 2.89543 20 4 20H20C21.1046 20 22 19.1046 22 18V6C22 4.89543 21.1046 4 20 4H4ZM6 7C5.44772 7 5 7.44772 5 8V11C5 11.5523 5.44772 12 6 12H9C9.55228 12 10 11.5523 10 11V8C10 7.44772 9.55228 7 9 7H6ZM5 16C5 15.4477 5.44772 15 6 15C6.55228 15 7 15.4477 7 16C7 16.5523 6.55228 17 6 17C5.44772 17 5 16.5523 5 16ZM15 15C14.4477 15 14 15.4477 14 16C14 16.5523 14.4477 17 15 17C15.5523 17 16 16.5523 16 16C16 15.4477 15.5523 15 15 15ZM17 16C17 15.4477 17.4477 15 18 15C18.5523 15 19 15.4477 19 16C19 16.5523 18.5523 17 18 17C17.4477 17 17 16.5523 17 16ZM9 15C8.44772 15 8 15.4477 8 16C8 16.5523 8.44772 17 9 17H11C11.5523 17 12 16.5523 12 16C12 15.4477 11.5523 15 11 15H9Z" fill="currentColor"/>
</svg>
