<svg viewBox="0 0 24 24" fill="none" xmlns="http://www.w3.org/2000/svg">
<path d="M21.1899 21.19L2.80989 2.81C2.41989 2.42 1.78989 2.42 1.39989 2.81C0.999895 3.2 0.999895 3.83 1.38989 4.22L2.22989 5.06C2.08989 5.34 2.00989 5.66 2.00989 6L1.99989 18C1.99989 19.11 2.88989 20 3.99989 20H17.1699L19.7799 22.61C20.1699 23 20.7999 23 21.1899 22.61C21.5799 22.22 21.5799 21.58 21.1899 21.19ZM4.9999 12C4.44761 12 3.99989 11.5523 3.99989 11V9C3.99989 8.44772 4.44761 8 4.99989 8H5.16989L9.1699 12H4.9999ZM6.82989 4H19.9999C21.1099 4 21.9999 4.89 21.9999 6V18C21.9999 18.34 21.9199 18.66 21.7699 18.94L14.8299 12H18.9999C19.5522 12 19.9999 11.5523 19.9999 11V9C19.9999 8.44772 19.5522 8 18.9999 8H10.8299L6.82989 4Z" fill="currentColor"/>
</svg>
