<svg viewBox="0 0 24 24" fill="none" xmlns="http://www.w3.org/2000/svg">
<path fill-rule="evenodd" clip-rule="evenodd" d="M12.5 9C14.433 9 16 7.433 16 5.5C16 3.567 14.433 2 12.5 2C10.567 2 9 3.567 9 5.5C9 7.433 10.567 9 12.5 9ZM1 13C1 11.9 1.9 11 3 11C4.1 11 5 11.9 5 13V20C5 21.1 4.1 22 3 22C1.9 22 1 21.1 1 20V13ZM13.16 17H19.99C21.1 17 22 17.89 22 19L14.62 21.78C14.22 21.93 13.78 21.95 13.37 21.83L7 20.02V11H8.6C8.84 11 9.08 11.04 9.3 11.13L16.22 13.71C16.68 13.89 16.99 14.33 16.99 14.82C16.99 15.47 16.46 16 15.81 16H13.18C13.06 16 12.93 15.97 12.82 15.93L11.7 15.5C11.44 15.4 11.15 15.54 11.06 15.8C10.97 16.06 11.1 16.34 11.36 16.43L12.83 16.94C12.94 16.98 13.05 17 13.16 17ZM24 9.5C24 11.433 22.433 13 20.5 13C18.567 13 17 11.433 17 9.5C17 7.567 18.567 6 20.5 6C22.433 6 24 7.567 24 9.5ZM14 4H11V7H14V4ZM19 8H22V11H19V8Z" fill="currentColor"/>
</svg>
