<svg width="22" height="22" viewBox="0 0 22 22" fill="none" xmlns="http://www.w3.org/2000/svg">
<path d="M18.375 14.103C19.0239 12.5613 19.1733 10.855 18.8021 9.22402C18.431 7.59303 17.558 6.11938 16.306 5.01024C15.0539 3.9011 13.4857 3.21225 11.8219 3.04055C10.158 2.86884 8.48222 3.22292 7.03004 4.05299L6.03804 2.31599C7.55567 1.4486 9.27423 0.994353 11.0222 0.998564C12.7703 1.00278 14.4866 1.4653 16 2.33999C20.49 4.93199 22.21 10.482 20.117 15.11L21.459 15.884L17.294 18.098L17.129 13.384L18.375 14.103ZM3.62504 7.89699C2.97618 9.43868 2.82682 11.145 3.19796 12.776C3.56909 14.4069 4.44205 15.8806 5.69411 16.9897C6.94617 18.0989 8.51436 18.7877 10.1782 18.9594C11.842 19.1311 13.5179 18.7771 14.97 17.947L15.962 19.684C14.4444 20.5514 12.7258 21.0056 10.9778 21.0014C9.22982 20.9972 7.51347 20.5347 6.00004 19.66C1.51004 17.068 -0.209961 11.518 1.88304 6.88999L0.540039 6.11699L4.70504 3.90299L4.87004 8.61699L3.62404 7.89799L3.62504 7.89699ZM7.50004 13H13C13.1326 13 13.2598 12.9473 13.3536 12.8535C13.4474 12.7598 13.5 12.6326 13.5 12.5C13.5 12.3674 13.4474 12.2402 13.3536 12.1464C13.2598 12.0527 13.1326 12 13 12H9.00004C8.337 12 7.70111 11.7366 7.23227 11.2678C6.76343 10.7989 6.50004 10.163 6.50004 9.49999C6.50004 8.83694 6.76343 8.20106 7.23227 7.73222C7.70111 7.26338 8.337 6.99999 9.00004 6.99999H10V5.99999H12V6.99999H14.5V8.99999H9.00004C8.86743 8.99999 8.74025 9.05266 8.64649 9.14643C8.55272 9.2402 8.50004 9.36738 8.50004 9.49999C8.50004 9.63259 8.55272 9.75977 8.64649 9.85354C8.74025 9.94731 8.86743 9.99999 9.00004 9.99999H13C13.6631 9.99999 14.299 10.2634 14.7678 10.7322C15.2366 11.2011 15.5 11.8369 15.5 12.5C15.5 13.163 15.2366 13.7989 14.7678 14.2678C14.299 14.7366 13.6631 15 13 15H12V16H10V15H7.50004V13Z" fill="currentColor"/>
</svg>
