<svg viewBox="0 0 24 24" fill="none" xmlns="http://www.w3.org/2000/svg">
<path d="M19.83 7.5L17.56 5.23C17.63 4.81 17.74 4.42 17.88 4.08C17.99 3.82 18.03 3.52 17.97 3.21C17.84 2.49 17.14 1.99 16.4 2C14.81 2.03 13.4 2.81 12.5 4H7.5C4.46 4 2 6.46 2 9.5C2 11.75 3.37 16.98 4.08 19.54C4.32 20.4 5.11 21 6.01 21H8C9.1 21 10 20.1 10 19H12C12 20.1 12.9 21 14 21H16.01C16.89 21 17.67 20.42 17.93 19.57L19.18 15.41L21.32 14.69C21.73 14.55 22 14.17 22 13.74V8.5C22 7.95 21.55 7.5 21 7.5H19.83ZM12 9H9C8.45 9 8 8.55 8 8C8 7.45 8.45 7 9 7H12C12.55 7 13 7.45 13 8C13 8.55 12.55 9 12 9ZM16 11C15.45 11 15 10.55 15 10C15 9.45 15.45 9 16 9C16.55 9 17 9.45 17 10C17 10.55 16.55 11 16 11Z" fill="currentColor"/>
</svg>
