<svg viewBox="0 0 24 24" fill="none" xmlns="http://www.w3.org/2000/svg">
<path fill-rule="evenodd" clip-rule="evenodd" d="M21 8C21 10.7614 18.7614 13 16 13C15.6122 13 15.2347 12.9559 14.8723 12.8723C14.4445 11.0164 12.9836 9.5555 11.1277 9.12769C11.0441 8.76527 11 8.38779 11 8C11 5.23858 13.2386 3 16 3C18.7614 3 21 5.23858 21 8ZM8 21C10.7614 21 13 18.7614 13 16C13 13.2386 10.7614 11 8 11C5.23858 11 3 13.2386 3 16C3 18.7614 5.23858 21 8 21ZM3 8.58579V4C3 3.44772 3.44772 3 4 3H8.58579C9.47669 3 9.92286 4.07714 9.2929 4.7071L4.70711 9.29289C4.07714 9.92286 3 9.47669 3 8.58579ZM21 20V15.4142C21 14.5233 19.9229 14.0771 19.2929 14.7071L14.7071 19.2929C14.0771 19.9229 14.5233 21 15.4142 21H20C20.5523 21 21 20.5523 21 20Z" fill="currentColor"/>
</svg>
