<svg viewBox="0 0 24 24" fill="none" xmlns="http://www.w3.org/2000/svg">
<path fill-rule="evenodd" clip-rule="evenodd" d="M6 3C4.89543 3 4 3.89543 4 5C4 6.10457 4.89543 7 6 7H17C17.5523 7 18 6.55228 18 6V4C18 3.44772 17.5523 3 17 3H6ZM3 6C3 7.10457 3.89543 8 5 8H7H21C21.5523 8 22 8.44772 22 9V19C22 19.5523 21.5523 20 21 20H10.9782C11.625 18.9897 12 17.7886 12 16.5C12 12.9101 9.08985 10 5.5 10C4.6141 10 3.76959 10.1772 3 10.4982V10V6ZM20 14C20 15.1046 19.1046 16 18 16C16.8954 16 16 15.1046 16 14C16 12.8954 16.8954 12 18 12C19.1046 12 20 12.8954 20 14ZM10 16.5C10 18.9853 7.98528 21 5.5 21C3.01472 21 1 18.9853 1 16.5C1 14.0147 3.01472 12 5.5 12C7.98528 12 10 14.0147 10 16.5ZM7.5 16C7.77614 16 8 16.2239 8 16.5C8 16.7761 7.77614 17 7.5 17H3.5C3.22386 17 3 16.7761 3 16.5C3 16.2239 3.22386 16 3.5 16H7.5Z" fill="currentColor"/>
</svg>
