<svg viewBox="0 0 24 24" fill="none" xmlns="http://www.w3.org/2000/svg">
<path fill-rule="evenodd" clip-rule="evenodd" d="M2 5C2 3.89543 2.89543 3 4 3H20C21.1046 3 22 3.89543 22 5V9C22 10.1046 21.1046 11 20 11H19V7C19 6.44772 18.5523 6 18 6H6C5.44772 6 5 6.44772 5 7V11H4C2.89543 11 2 10.1046 2 9V5ZM6 7H18V19C18 20.1046 17.1046 21 16 21H8C6.89543 21 6 20.1046 6 19V7ZM11.0002 10V15H9.21018C8.76018 15 8.54018 15.54 8.85018 15.85L11.6402 18.64C11.8402 18.84 12.1502 18.84 12.3502 18.64L15.1402 15.85C15.4602 15.54 15.2402 15 14.7902 15H13.0002V10C13.0002 9.45 12.5502 9 12.0002 9C11.4502 9 11.0002 9.45 11.0002 10Z" fill="currentColor"/>
</svg>
